<svg xmlns="http://www.w3.org/2000/svg" xmlns:xlink="http://www.w3.org/1999/xlink" width="600" height="400" viewBox="0 0 2400 1600">
<defs>
  <clipPath id="clip500">
    <rect x="0" y="0" width="2400" height="1600"></rect>
  </clipPath>
</defs>
<path clip-path="url(#clip500)" d="M0 1600 L2400 1600 L2400 0 L0 0  Z" fill="#f8f8ff" fill-rule="evenodd" fill-opacity="1"></path>
<defs>
  <clipPath id="clip501">
    <rect x="480" y="0" width="1681" height="1600"></rect>
  </clipPath>
</defs>
<path clip-path="url(#clip500)" d="M262.551 1486.45 L2352.76 1486.45 L2352.76 123.472 L262.551 123.472  Z" fill="#f8f8ff" fill-rule="evenodd" fill-opacity="1"></path>
<defs>
  <clipPath id="clip502">
    <rect x="262" y="123" width="2091" height="1364"></rect>
  </clipPath>
</defs>
<polyline clip-path="url(#clip502)" style="stroke:#000000; stroke-linecap:round; stroke-linejoin:round; stroke-width:2; stroke-opacity:0.1; fill:none" points="302.563,1486.45 302.563,123.472 "></polyline>
<polyline clip-path="url(#clip502)" style="stroke:#000000; stroke-linecap:round; stroke-linejoin:round; stroke-width:2; stroke-opacity:0.1; fill:none" points="781.178,1486.45 781.178,123.472 "></polyline>
<polyline clip-path="url(#clip502)" style="stroke:#000000; stroke-linecap:round; stroke-linejoin:round; stroke-width:2; stroke-opacity:0.1; fill:none" points="1259.79,1486.45 1259.79,123.472 "></polyline>
<polyline clip-path="url(#clip502)" style="stroke:#000000; stroke-linecap:round; stroke-linejoin:round; stroke-width:2; stroke-opacity:0.1; fill:none" points="1738.41,1486.45 1738.41,123.472 "></polyline>
<polyline clip-path="url(#clip502)" style="stroke:#000000; stroke-linecap:round; stroke-linejoin:round; stroke-width:2; stroke-opacity:0.1; fill:none" points="2217.02,1486.45 2217.02,123.472 "></polyline>
<polyline clip-path="url(#clip500)" style="stroke:#000000; stroke-linecap:round; stroke-linejoin:round; stroke-width:4; stroke-opacity:1; fill:none" points="262.551,1486.45 2352.76,1486.45 "></polyline>
<polyline clip-path="url(#clip500)" style="stroke:#000000; stroke-linecap:round; stroke-linejoin:round; stroke-width:4; stroke-opacity:1; fill:none" points="302.563,1486.45 302.563,1467.55 "></polyline>
<polyline clip-path="url(#clip500)" style="stroke:#000000; stroke-linecap:round; stroke-linejoin:round; stroke-width:4; stroke-opacity:1; fill:none" points="781.178,1486.45 781.178,1467.55 "></polyline>
<polyline clip-path="url(#clip500)" style="stroke:#000000; stroke-linecap:round; stroke-linejoin:round; stroke-width:4; stroke-opacity:1; fill:none" points="1259.79,1486.45 1259.79,1467.55 "></polyline>
<polyline clip-path="url(#clip500)" style="stroke:#000000; stroke-linecap:round; stroke-linejoin:round; stroke-width:4; stroke-opacity:1; fill:none" points="1738.41,1486.45 1738.41,1467.55 "></polyline>
<polyline clip-path="url(#clip500)" style="stroke:#000000; stroke-linecap:round; stroke-linejoin:round; stroke-width:4; stroke-opacity:1; fill:none" points="2217.02,1486.45 2217.02,1467.55 "></polyline>
<path clip-path="url(#clip500)" d="M302.563 1517.37 Q298.952 1517.37 297.124 1520.93 Q295.318 1524.47 295.318 1531.6 Q295.318 1538.71 297.124 1542.27 Q298.952 1545.82 302.563 1545.82 Q306.198 1545.82 308.003 1542.27 Q309.832 1538.71 309.832 1531.6 Q309.832 1524.47 308.003 1520.93 Q306.198 1517.37 302.563 1517.37 M302.563 1513.66 Q308.374 1513.66 311.429 1518.27 Q314.508 1522.85 314.508 1531.6 Q314.508 1540.33 311.429 1544.94 Q308.374 1549.52 302.563 1549.52 Q296.753 1549.52 293.675 1544.94 Q290.619 1540.33 290.619 1531.6 Q290.619 1522.85 293.675 1518.27 Q296.753 1513.66 302.563 1513.66 Z" fill="#000000" fill-rule="nonzero" fill-opacity="1"></path><path clip-path="url(#clip500)" d="M760.449 1544.91 L776.768 1544.91 L776.768 1548.85 L754.824 1548.85 L754.824 1544.91 Q757.486 1542.16 762.069 1537.53 Q766.676 1532.88 767.856 1531.53 Q770.101 1529.01 770.981 1527.27 Q771.884 1525.51 771.884 1523.82 Q771.884 1521.07 769.939 1519.33 Q768.018 1517.6 764.916 1517.6 Q762.717 1517.6 760.264 1518.36 Q757.833 1519.13 755.055 1520.68 L755.055 1515.95 Q757.879 1514.82 760.333 1514.24 Q762.787 1513.66 764.824 1513.66 Q770.194 1513.66 773.388 1516.35 Q776.583 1519.03 776.583 1523.52 Q776.583 1525.65 775.773 1527.57 Q774.986 1529.47 772.879 1532.07 Q772.3 1532.74 769.199 1535.95 Q766.097 1539.15 760.449 1544.91 Z" fill="#000000" fill-rule="nonzero" fill-opacity="1"></path><path clip-path="url(#clip500)" d="M786.629 1514.29 L804.985 1514.29 L804.985 1518.22 L790.911 1518.22 L790.911 1526.7 Q791.93 1526.35 792.949 1526.19 Q793.967 1526 794.986 1526 Q800.773 1526 804.152 1529.17 Q807.532 1532.34 807.532 1537.76 Q807.532 1543.34 804.06 1546.44 Q800.587 1549.52 794.268 1549.52 Q792.092 1549.52 789.824 1549.15 Q787.578 1548.78 785.171 1548.04 L785.171 1543.34 Q787.254 1544.47 789.476 1545.03 Q791.699 1545.58 794.175 1545.58 Q798.18 1545.58 800.518 1543.48 Q802.856 1541.37 802.856 1537.76 Q802.856 1534.15 800.518 1532.04 Q798.18 1529.94 794.175 1529.94 Q792.3 1529.94 790.425 1530.35 Q788.574 1530.77 786.629 1531.65 L786.629 1514.29 Z" fill="#000000" fill-rule="nonzero" fill-opacity="1"></path><path clip-path="url(#clip500)" d="M1234.49 1514.29 L1252.85 1514.29 L1252.85 1518.22 L1238.77 1518.22 L1238.77 1526.7 Q1239.79 1526.35 1240.81 1526.19 Q1241.83 1526 1242.85 1526 Q1248.63 1526 1252.01 1529.17 Q1255.39 1532.34 1255.39 1537.76 Q1255.39 1543.34 1251.92 1546.44 Q1248.45 1549.52 1242.13 1549.52 Q1239.95 1549.52 1237.69 1549.15 Q1235.44 1548.78 1233.03 1548.04 L1233.03 1543.34 Q1235.12 1544.47 1237.34 1545.03 Q1239.56 1545.58 1242.04 1545.58 Q1246.04 1545.58 1248.38 1543.48 Q1250.72 1541.37 1250.72 1537.76 Q1250.72 1534.15 1248.38 1532.04 Q1246.04 1529.94 1242.04 1529.94 Q1240.16 1529.94 1238.29 1530.35 Q1236.44 1530.77 1234.49 1531.65 L1234.49 1514.29 Z" fill="#000000" fill-rule="nonzero" fill-opacity="1"></path><path clip-path="url(#clip500)" d="M1274.61 1517.37 Q1271 1517.37 1269.17 1520.93 Q1267.36 1524.47 1267.36 1531.6 Q1267.36 1538.71 1269.17 1542.27 Q1271 1545.82 1274.61 1545.82 Q1278.24 1545.82 1280.05 1542.27 Q1281.88 1538.71 1281.88 1531.6 Q1281.88 1524.47 1280.05 1520.93 Q1278.24 1517.37 1274.61 1517.37 M1274.61 1513.66 Q1280.42 1513.66 1283.47 1518.27 Q1286.55 1522.85 1286.55 1531.6 Q1286.55 1540.33 1283.47 1544.94 Q1280.42 1549.52 1274.61 1549.52 Q1268.8 1549.52 1265.72 1544.94 Q1262.66 1540.33 1262.66 1531.6 Q1262.66 1522.85 1265.72 1518.27 Q1268.8 1513.66 1274.61 1513.66 Z" fill="#000000" fill-rule="nonzero" fill-opacity="1"></path><path clip-path="url(#clip500)" d="M1712.26 1514.29 L1734.48 1514.29 L1734.48 1516.28 L1721.94 1548.85 L1717.05 1548.85 L1728.86 1518.22 L1712.26 1518.22 L1712.26 1514.29 Z" fill="#000000" fill-rule="nonzero" fill-opacity="1"></path><path clip-path="url(#clip500)" d="M1743.65 1514.29 L1762.01 1514.29 L1762.01 1518.22 L1747.93 1518.22 L1747.93 1526.7 Q1748.95 1526.35 1749.97 1526.19 Q1750.99 1526 1752.01 1526 Q1757.79 1526 1761.17 1529.17 Q1764.55 1532.34 1764.55 1537.76 Q1764.55 1543.34 1761.08 1546.44 Q1757.61 1549.52 1751.29 1549.52 Q1749.11 1549.52 1746.84 1549.15 Q1744.6 1548.78 1742.19 1548.04 L1742.19 1543.34 Q1744.27 1544.47 1746.5 1545.03 Q1748.72 1545.58 1751.2 1545.58 Q1755.2 1545.58 1757.54 1543.48 Q1759.88 1541.37 1759.88 1537.76 Q1759.88 1534.15 1757.54 1532.04 Q1755.2 1529.94 1751.2 1529.94 Q1749.32 1529.94 1747.45 1530.35 Q1745.59 1530.77 1743.65 1531.65 L1743.65 1514.29 Z" fill="#000000" fill-rule="nonzero" fill-opacity="1"></path><path clip-path="url(#clip500)" d="M2176.63 1544.91 L2184.27 1544.91 L2184.27 1518.55 L2175.96 1520.21 L2175.96 1515.95 L2184.22 1514.29 L2188.9 1514.29 L2188.9 1544.91 L2196.53 1544.91 L2196.53 1548.85 L2176.63 1548.85 L2176.63 1544.91 Z" fill="#000000" fill-rule="nonzero" fill-opacity="1"></path><path clip-path="url(#clip500)" d="M2215.98 1517.37 Q2212.37 1517.37 2210.54 1520.93 Q2208.73 1524.47 2208.73 1531.6 Q2208.73 1538.71 2210.54 1542.27 Q2212.37 1545.82 2215.98 1545.82 Q2219.61 1545.82 2221.42 1542.27 Q2223.25 1538.71 2223.25 1531.6 Q2223.25 1524.47 2221.42 1520.93 Q2219.61 1517.37 2215.98 1517.37 M2215.98 1513.66 Q2221.79 1513.66 2224.84 1518.27 Q2227.92 1522.85 2227.92 1531.6 Q2227.92 1540.33 2224.84 1544.94 Q2221.79 1549.52 2215.98 1549.52 Q2210.17 1549.52 2207.09 1544.94 Q2204.03 1540.33 2204.03 1531.6 Q2204.03 1522.85 2207.09 1518.27 Q2210.17 1513.66 2215.98 1513.66 Z" fill="#000000" fill-rule="nonzero" fill-opacity="1"></path><path clip-path="url(#clip500)" d="M2246.14 1517.37 Q2242.53 1517.37 2240.7 1520.93 Q2238.9 1524.47 2238.9 1531.6 Q2238.9 1538.71 2240.7 1542.27 Q2242.53 1545.82 2246.14 1545.82 Q2249.78 1545.82 2251.58 1542.27 Q2253.41 1538.71 2253.41 1531.6 Q2253.41 1524.47 2251.58 1520.93 Q2249.78 1517.37 2246.14 1517.37 M2246.14 1513.66 Q2251.95 1513.66 2255.01 1518.27 Q2258.09 1522.85 2258.09 1531.6 Q2258.09 1540.33 2255.01 1544.94 Q2251.95 1549.52 2246.14 1549.52 Q2240.33 1549.52 2237.25 1544.94 Q2234.2 1540.33 2234.2 1531.6 Q2234.2 1522.85 2237.25 1518.27 Q2240.33 1513.66 2246.14 1513.66 Z" fill="#000000" fill-rule="nonzero" fill-opacity="1"></path><polyline clip-path="url(#clip502)" style="stroke:#000000; stroke-linecap:round; stroke-linejoin:round; stroke-width:2; stroke-opacity:0.1; fill:none" points="262.551,1283.56 2352.76,1283.56 "></polyline>
<polyline clip-path="url(#clip502)" style="stroke:#000000; stroke-linecap:round; stroke-linejoin:round; stroke-width:2; stroke-opacity:0.1; fill:none" points="262.551,1029.34 2352.76,1029.34 "></polyline>
<polyline clip-path="url(#clip502)" style="stroke:#000000; stroke-linecap:round; stroke-linejoin:round; stroke-width:2; stroke-opacity:0.1; fill:none" points="262.551,775.128 2352.76,775.128 "></polyline>
<polyline clip-path="url(#clip502)" style="stroke:#000000; stroke-linecap:round; stroke-linejoin:round; stroke-width:2; stroke-opacity:0.1; fill:none" points="262.551,520.913 2352.76,520.913 "></polyline>
<polyline clip-path="url(#clip502)" style="stroke:#000000; stroke-linecap:round; stroke-linejoin:round; stroke-width:2; stroke-opacity:0.1; fill:none" points="262.551,266.699 2352.76,266.699 "></polyline>
<polyline clip-path="url(#clip500)" style="stroke:#000000; stroke-linecap:round; stroke-linejoin:round; stroke-width:4; stroke-opacity:1; fill:none" points="262.551,1486.45 262.551,123.472 "></polyline>
<polyline clip-path="url(#clip500)" style="stroke:#000000; stroke-linecap:round; stroke-linejoin:round; stroke-width:4; stroke-opacity:1; fill:none" points="262.551,1283.56 281.449,1283.56 "></polyline>
<polyline clip-path="url(#clip500)" style="stroke:#000000; stroke-linecap:round; stroke-linejoin:round; stroke-width:4; stroke-opacity:1; fill:none" points="262.551,1029.34 281.449,1029.34 "></polyline>
<polyline clip-path="url(#clip500)" style="stroke:#000000; stroke-linecap:round; stroke-linejoin:round; stroke-width:4; stroke-opacity:1; fill:none" points="262.551,775.128 281.449,775.128 "></polyline>
<polyline clip-path="url(#clip500)" style="stroke:#000000; stroke-linecap:round; stroke-linejoin:round; stroke-width:4; stroke-opacity:1; fill:none" points="262.551,520.913 281.449,520.913 "></polyline>
<polyline clip-path="url(#clip500)" style="stroke:#000000; stroke-linecap:round; stroke-linejoin:round; stroke-width:4; stroke-opacity:1; fill:none" points="262.551,266.699 281.449,266.699 "></polyline>
<path clip-path="url(#clip500)" d="M114.931 1296.9 L122.57 1296.9 L122.57 1270.54 L114.26 1272.2 L114.26 1267.94 L122.524 1266.28 L127.2 1266.28 L127.2 1296.9 L134.839 1296.9 L134.839 1300.84 L114.931 1300.84 L114.931 1296.9 Z" fill="#000000" fill-rule="nonzero" fill-opacity="1"></path><path clip-path="url(#clip500)" d="M154.283 1269.35 Q150.672 1269.35 148.843 1272.92 Q147.038 1276.46 147.038 1283.59 Q147.038 1290.7 148.843 1294.26 Q150.672 1297.8 154.283 1297.8 Q157.917 1297.8 159.723 1294.26 Q161.552 1290.7 161.552 1283.59 Q161.552 1276.46 159.723 1272.92 Q157.917 1269.35 154.283 1269.35 M154.283 1265.65 Q160.093 1265.65 163.149 1270.26 Q166.227 1274.84 166.227 1283.59 Q166.227 1292.32 163.149 1296.92 Q160.093 1301.51 154.283 1301.51 Q148.473 1301.51 145.394 1296.92 Q142.339 1292.32 142.339 1283.59 Q142.339 1274.84 145.394 1270.26 Q148.473 1265.65 154.283 1265.65 Z" fill="#000000" fill-rule="nonzero" fill-opacity="1"></path><path clip-path="url(#clip500)" d="M184.445 1269.35 Q180.834 1269.35 179.005 1272.92 Q177.2 1276.46 177.2 1283.59 Q177.2 1290.7 179.005 1294.26 Q180.834 1297.8 184.445 1297.8 Q188.079 1297.8 189.885 1294.26 Q191.713 1290.7 191.713 1283.59 Q191.713 1276.46 189.885 1272.92 Q188.079 1269.35 184.445 1269.35 M184.445 1265.65 Q190.255 1265.65 193.311 1270.26 Q196.389 1274.84 196.389 1283.59 Q196.389 1292.32 193.311 1296.92 Q190.255 1301.51 184.445 1301.51 Q178.635 1301.51 175.556 1296.92 Q172.501 1292.32 172.501 1283.59 Q172.501 1274.84 175.556 1270.26 Q178.635 1265.65 184.445 1265.65 Z" fill="#000000" fill-rule="nonzero" fill-opacity="1"></path><path clip-path="url(#clip500)" d="M214.607 1269.35 Q210.996 1269.35 209.167 1272.92 Q207.362 1276.46 207.362 1283.59 Q207.362 1290.7 209.167 1294.26 Q210.996 1297.8 214.607 1297.8 Q218.241 1297.8 220.047 1294.26 Q221.875 1290.7 221.875 1283.59 Q221.875 1276.46 220.047 1272.92 Q218.241 1269.35 214.607 1269.35 M214.607 1265.65 Q220.417 1265.65 223.473 1270.26 Q226.551 1274.84 226.551 1283.59 Q226.551 1292.32 223.473 1296.92 Q220.417 1301.51 214.607 1301.51 Q208.797 1301.51 205.718 1296.92 Q202.662 1292.32 202.662 1283.59 Q202.662 1274.84 205.718 1270.26 Q208.797 1265.65 214.607 1265.65 Z" fill="#000000" fill-rule="nonzero" fill-opacity="1"></path><path clip-path="url(#clip500)" d="M114.931 1042.69 L122.57 1042.69 L122.57 1016.32 L114.26 1017.99 L114.26 1013.73 L122.524 1012.06 L127.2 1012.06 L127.2 1042.69 L134.839 1042.69 L134.839 1046.62 L114.931 1046.62 L114.931 1042.69 Z" fill="#000000" fill-rule="nonzero" fill-opacity="1"></path><path clip-path="url(#clip500)" d="M148.311 1042.69 L164.63 1042.69 L164.63 1046.62 L142.686 1046.62 L142.686 1042.69 Q145.348 1039.93 149.931 1035.3 Q154.538 1030.65 155.718 1029.31 Q157.964 1026.78 158.843 1025.05 Q159.746 1023.29 159.746 1021.6 Q159.746 1018.84 157.802 1017.11 Q155.88 1015.37 152.778 1015.37 Q150.579 1015.37 148.126 1016.14 Q145.695 1016.9 142.917 1018.45 L142.917 1013.73 Q145.741 1012.59 148.195 1012.02 Q150.649 1011.44 152.686 1011.44 Q158.056 1011.44 161.251 1014.12 Q164.445 1016.81 164.445 1021.3 Q164.445 1023.43 163.635 1025.35 Q162.848 1027.25 160.741 1029.84 Q160.163 1030.51 157.061 1033.73 Q153.959 1036.92 148.311 1042.69 Z" fill="#000000" fill-rule="nonzero" fill-opacity="1"></path><path clip-path="url(#clip500)" d="M184.445 1015.14 Q180.834 1015.14 179.005 1018.71 Q177.2 1022.25 177.2 1029.38 Q177.2 1036.48 179.005 1040.05 Q180.834 1043.59 184.445 1043.59 Q188.079 1043.59 189.885 1040.05 Q191.713 1036.48 191.713 1029.38 Q191.713 1022.25 189.885 1018.71 Q188.079 1015.14 184.445 1015.14 M184.445 1011.44 Q190.255 1011.44 193.311 1016.04 Q196.389 1020.63 196.389 1029.38 Q196.389 1038.1 193.311 1042.71 Q190.255 1047.29 184.445 1047.29 Q178.635 1047.29 175.556 1042.71 Q172.501 1038.1 172.501 1029.38 Q172.501 1020.63 175.556 1016.04 Q178.635 1011.44 184.445 1011.44 Z" fill="#000000" fill-rule="nonzero" fill-opacity="1"></path><path clip-path="url(#clip500)" d="M214.607 1015.14 Q210.996 1015.14 209.167 1018.71 Q207.362 1022.25 207.362 1029.38 Q207.362 1036.48 209.167 1040.05 Q210.996 1043.59 214.607 1043.59 Q218.241 1043.59 220.047 1040.05 Q221.875 1036.48 221.875 1029.38 Q221.875 1022.25 220.047 1018.71 Q218.241 1015.14 214.607 1015.14 M214.607 1011.44 Q220.417 1011.44 223.473 1016.04 Q226.551 1020.63 226.551 1029.38 Q226.551 1038.1 223.473 1042.71 Q220.417 1047.29 214.607 1047.29 Q208.797 1047.29 205.718 1042.71 Q202.662 1038.1 202.662 1029.38 Q202.662 1020.63 205.718 1016.04 Q208.797 1011.44 214.607 1011.44 Z" fill="#000000" fill-rule="nonzero" fill-opacity="1"></path><path clip-path="url(#clip500)" d="M114.931 788.472 L122.57 788.472 L122.57 762.107 L114.26 763.774 L114.26 759.514 L122.524 757.848 L127.2 757.848 L127.2 788.472 L134.839 788.472 L134.839 792.408 L114.931 792.408 L114.931 788.472 Z" fill="#000000" fill-rule="nonzero" fill-opacity="1"></path><path clip-path="url(#clip500)" d="M157.13 761.922 L145.325 780.371 L157.13 780.371 L157.13 761.922 M155.903 757.848 L161.783 757.848 L161.783 780.371 L166.714 780.371 L166.714 784.26 L161.783 784.26 L161.783 792.408 L157.13 792.408 L157.13 784.26 L141.529 784.26 L141.529 779.746 L155.903 757.848 Z" fill="#000000" fill-rule="nonzero" fill-opacity="1"></path><path clip-path="url(#clip500)" d="M184.445 760.926 Q180.834 760.926 179.005 764.491 Q177.2 768.033 177.2 775.162 Q177.2 782.269 179.005 785.834 Q180.834 789.375 184.445 789.375 Q188.079 789.375 189.885 785.834 Q191.713 782.269 191.713 775.162 Q191.713 768.033 189.885 764.491 Q188.079 760.926 184.445 760.926 M184.445 757.223 Q190.255 757.223 193.311 761.829 Q196.389 766.412 196.389 775.162 Q196.389 783.889 193.311 788.496 Q190.255 793.079 184.445 793.079 Q178.635 793.079 175.556 788.496 Q172.501 783.889 172.501 775.162 Q172.501 766.412 175.556 761.829 Q178.635 757.223 184.445 757.223 Z" fill="#000000" fill-rule="nonzero" fill-opacity="1"></path><path clip-path="url(#clip500)" d="M214.607 760.926 Q210.996 760.926 209.167 764.491 Q207.362 768.033 207.362 775.162 Q207.362 782.269 209.167 785.834 Q210.996 789.375 214.607 789.375 Q218.241 789.375 220.047 785.834 Q221.875 782.269 221.875 775.162 Q221.875 768.033 220.047 764.491 Q218.241 760.926 214.607 760.926 M214.607 757.223 Q220.417 757.223 223.473 761.829 Q226.551 766.412 226.551 775.162 Q226.551 783.889 223.473 788.496 Q220.417 793.079 214.607 793.079 Q208.797 793.079 205.718 788.496 Q202.662 783.889 202.662 775.162 Q202.662 766.412 205.718 761.829 Q208.797 757.223 214.607 757.223 Z" fill="#000000" fill-rule="nonzero" fill-opacity="1"></path><path clip-path="url(#clip500)" d="M114.931 534.258 L122.57 534.258 L122.57 507.893 L114.26 509.559 L114.26 505.3 L122.524 503.633 L127.2 503.633 L127.2 534.258 L134.839 534.258 L134.839 538.193 L114.931 538.193 L114.931 534.258 Z" fill="#000000" fill-rule="nonzero" fill-opacity="1"></path><path clip-path="url(#clip500)" d="M154.862 519.05 Q151.714 519.05 149.862 521.203 Q148.033 523.355 148.033 527.105 Q148.033 530.832 149.862 533.008 Q151.714 535.161 154.862 535.161 Q158.01 535.161 159.839 533.008 Q161.69 530.832 161.69 527.105 Q161.69 523.355 159.839 521.203 Q158.01 519.05 154.862 519.05 M164.144 504.397 L164.144 508.656 Q162.385 507.823 160.579 507.383 Q158.797 506.943 157.038 506.943 Q152.408 506.943 149.954 510.068 Q147.524 513.193 147.177 519.513 Q148.542 517.499 150.603 516.434 Q152.663 515.346 155.14 515.346 Q160.348 515.346 163.357 518.517 Q166.39 521.666 166.39 527.105 Q166.39 532.429 163.241 535.647 Q160.093 538.865 154.862 538.865 Q148.866 538.865 145.695 534.281 Q142.524 529.675 142.524 520.948 Q142.524 512.754 146.413 507.893 Q150.302 503.008 156.853 503.008 Q158.612 503.008 160.394 503.356 Q162.2 503.703 164.144 504.397 Z" fill="#000000" fill-rule="nonzero" fill-opacity="1"></path><path clip-path="url(#clip500)" d="M184.445 506.712 Q180.834 506.712 179.005 510.277 Q177.2 513.818 177.2 520.948 Q177.2 528.054 179.005 531.619 Q180.834 535.161 184.445 535.161 Q188.079 535.161 189.885 531.619 Q191.713 528.054 191.713 520.948 Q191.713 513.818 189.885 510.277 Q188.079 506.712 184.445 506.712 M184.445 503.008 Q190.255 503.008 193.311 507.615 Q196.389 512.198 196.389 520.948 Q196.389 529.675 193.311 534.281 Q190.255 538.865 184.445 538.865 Q178.635 538.865 175.556 534.281 Q172.501 529.675 172.501 520.948 Q172.501 512.198 175.556 507.615 Q178.635 503.008 184.445 503.008 Z" fill="#000000" fill-rule="nonzero" fill-opacity="1"></path><path clip-path="url(#clip500)" d="M214.607 506.712 Q210.996 506.712 209.167 510.277 Q207.362 513.818 207.362 520.948 Q207.362 528.054 209.167 531.619 Q210.996 535.161 214.607 535.161 Q218.241 535.161 220.047 531.619 Q221.875 528.054 221.875 520.948 Q221.875 513.818 220.047 510.277 Q218.241 506.712 214.607 506.712 M214.607 503.008 Q220.417 503.008 223.473 507.615 Q226.551 512.198 226.551 520.948 Q226.551 529.675 223.473 534.281 Q220.417 538.865 214.607 538.865 Q208.797 538.865 205.718 534.281 Q202.662 529.675 202.662 520.948 Q202.662 512.198 205.718 507.615 Q208.797 503.008 214.607 503.008 Z" fill="#000000" fill-rule="nonzero" fill-opacity="1"></path><path clip-path="url(#clip500)" d="M114.931 280.044 L122.57 280.044 L122.57 253.678 L114.26 255.345 L114.26 251.086 L122.524 249.419 L127.2 249.419 L127.2 280.044 L134.839 280.044 L134.839 283.979 L114.931 283.979 L114.931 280.044 Z" fill="#000000" fill-rule="nonzero" fill-opacity="1"></path><path clip-path="url(#clip500)" d="M154.283 267.567 Q150.95 267.567 149.028 269.349 Q147.13 271.132 147.13 274.257 Q147.13 277.382 149.028 279.164 Q150.95 280.947 154.283 280.947 Q157.616 280.947 159.538 279.164 Q161.459 277.359 161.459 274.257 Q161.459 271.132 159.538 269.349 Q157.64 267.567 154.283 267.567 M149.607 265.576 Q146.598 264.836 144.908 262.775 Q143.241 260.715 143.241 257.752 Q143.241 253.609 146.181 251.201 Q149.144 248.794 154.283 248.794 Q159.445 248.794 162.385 251.201 Q165.325 253.609 165.325 257.752 Q165.325 260.715 163.635 262.775 Q161.968 264.836 158.982 265.576 Q162.362 266.363 164.237 268.655 Q166.135 270.947 166.135 274.257 Q166.135 279.28 163.056 281.965 Q160.001 284.65 154.283 284.65 Q148.566 284.65 145.487 281.965 Q142.431 279.28 142.431 274.257 Q142.431 270.947 144.329 268.655 Q146.228 266.363 149.607 265.576 M147.894 258.192 Q147.894 260.877 149.561 262.382 Q151.251 263.887 154.283 263.887 Q157.292 263.887 158.982 262.382 Q160.695 260.877 160.695 258.192 Q160.695 255.507 158.982 254.002 Q157.292 252.498 154.283 252.498 Q151.251 252.498 149.561 254.002 Q147.894 255.507 147.894 258.192 Z" fill="#000000" fill-rule="nonzero" fill-opacity="1"></path><path clip-path="url(#clip500)" d="M184.445 252.498 Q180.834 252.498 179.005 256.062 Q177.2 259.604 177.2 266.734 Q177.2 273.84 179.005 277.405 Q180.834 280.947 184.445 280.947 Q188.079 280.947 189.885 277.405 Q191.713 273.84 191.713 266.734 Q191.713 259.604 189.885 256.062 Q188.079 252.498 184.445 252.498 M184.445 248.794 Q190.255 248.794 193.311 253.4 Q196.389 257.984 196.389 266.734 Q196.389 275.461 193.311 280.067 Q190.255 284.65 184.445 284.65 Q178.635 284.65 175.556 280.067 Q172.501 275.461 172.501 266.734 Q172.501 257.984 175.556 253.4 Q178.635 248.794 184.445 248.794 Z" fill="#000000" fill-rule="nonzero" fill-opacity="1"></path><path clip-path="url(#clip500)" d="M214.607 252.498 Q210.996 252.498 209.167 256.062 Q207.362 259.604 207.362 266.734 Q207.362 273.84 209.167 277.405 Q210.996 280.947 214.607 280.947 Q218.241 280.947 220.047 277.405 Q221.875 273.84 221.875 266.734 Q221.875 259.604 220.047 256.062 Q218.241 252.498 214.607 252.498 M214.607 248.794 Q220.417 248.794 223.473 253.4 Q226.551 257.984 226.551 266.734 Q226.551 275.461 223.473 280.067 Q220.417 284.65 214.607 284.65 Q208.797 284.65 205.718 280.067 Q202.662 275.461 202.662 266.734 Q202.662 257.984 205.718 253.4 Q208.797 248.794 214.607 248.794 Z" fill="#000000" fill-rule="nonzero" fill-opacity="1"></path><path clip-path="url(#clip500)" d="M16.4842 1105.34 L16.4842 1075.3 L21.895 1075.3 L21.895 1098.91 L35.9632 1098.91 L35.9632 1076.28 L41.3741 1076.28 L41.3741 1098.91 L58.5933 1098.91 L58.5933 1074.72 L64.0042 1074.72 L64.0042 1105.34 L16.4842 1105.34 Z" fill="#000000" fill-rule="nonzero" fill-opacity="1"></path><path clip-path="url(#clip500)" d="M14.479 1064.41 L14.479 1058.55 L64.0042 1058.55 L64.0042 1064.41 L14.479 1064.41 Z" fill="#000000" fill-rule="nonzero" fill-opacity="1"></path><path clip-path="url(#clip500)" d="M44.7161 1015.81 L47.5806 1015.81 L47.5806 1042.74 Q53.6281 1042.35 56.8109 1039.11 Q59.9619 1035.83 59.9619 1030 Q59.9619 1026.63 59.1344 1023.48 Q58.3069 1020.3 56.6518 1017.18 L62.1899 1017.18 Q63.5267 1020.33 64.227 1023.64 Q64.9272 1026.95 64.9272 1030.35 Q64.9272 1038.88 59.9619 1043.88 Q54.9967 1048.85 46.5303 1048.85 Q37.7774 1048.85 32.6531 1044.14 Q27.4968 1039.39 27.4968 1031.37 Q27.4968 1024.18 32.1438 1020.01 Q36.7589 1015.81 44.7161 1015.81 M42.9973 1021.66 Q38.1912 1021.73 35.3266 1024.37 Q32.4621 1026.98 32.4621 1031.31 Q32.4621 1036.21 35.2312 1039.17 Q38.0002 1042.1 43.0292 1042.54 L42.9973 1021.66 Z" fill="#000000" fill-rule="nonzero" fill-opacity="1"></path><path clip-path="url(#clip500)" d="M28.3562 1010.4 L28.3562 1004.19 L58.275 993.051 L28.3562 981.911 L28.3562 975.704 L64.0042 989.072 L64.0042 997.029 L28.3562 1010.4 Z" fill="#000000" fill-rule="nonzero" fill-opacity="1"></path><path clip-path="url(#clip500)" d="M46.0847 951.419 Q46.0847 958.517 47.7079 961.254 Q49.3312 963.991 53.2461 963.991 Q56.3653 963.991 58.2114 961.954 Q60.0256 959.885 60.0256 956.352 Q60.0256 951.483 56.5881 948.554 Q53.1188 945.594 47.3897 945.594 L46.0847 945.594 L46.0847 951.419 M43.6657 939.738 L64.0042 939.738 L64.0042 945.594 L58.5933 945.594 Q61.8398 947.6 63.3994 950.591 Q64.9272 953.583 64.9272 957.912 Q64.9272 963.387 61.8716 966.633 Q58.7843 969.848 53.6281 969.848 Q47.6125 969.848 44.5569 965.837 Q41.5014 961.795 41.5014 953.806 L41.5014 945.594 L40.9285 945.594 Q36.8862 945.594 34.6901 948.268 Q32.4621 950.91 32.4621 955.716 Q32.4621 958.771 33.1941 961.668 Q33.9262 964.564 35.3903 967.238 L29.9795 967.238 Q28.7381 964.023 28.1334 960.999 Q27.4968 957.976 27.4968 955.111 Q27.4968 947.377 31.5072 943.557 Q35.5176 939.738 43.6657 939.738 Z" fill="#000000" fill-rule="nonzero" fill-opacity="1"></path><path clip-path="url(#clip500)" d="M18.2347 921.882 L28.3562 921.882 L28.3562 909.819 L32.9077 909.819 L32.9077 921.882 L52.2594 921.882 Q56.6199 921.882 57.8613 920.704 Q59.1026 919.495 59.1026 915.835 L59.1026 909.819 L64.0042 909.819 L64.0042 915.835 Q64.0042 922.614 61.4897 925.192 Q58.9434 927.77 52.2594 927.77 L32.9077 927.77 L32.9077 932.067 L28.3562 932.067 L28.3562 927.77 L18.2347 927.77 L18.2347 921.882 Z" fill="#000000" fill-rule="nonzero" fill-opacity="1"></path><path clip-path="url(#clip500)" d="M28.3562 902.117 L28.3562 896.26 L64.0042 896.26 L64.0042 902.117 L28.3562 902.117 M14.479 902.117 L14.479 896.26 L21.895 896.26 L21.895 902.117 L14.479 902.117 Z" fill="#000000" fill-rule="nonzero" fill-opacity="1"></path><path clip-path="url(#clip500)" d="M32.4621 870.193 Q32.4621 874.903 36.1542 877.64 Q39.8145 880.378 46.212 880.378 Q52.6095 880.378 56.3017 877.672 Q59.9619 874.935 59.9619 870.193 Q59.9619 865.514 56.2698 862.777 Q52.5777 860.039 46.212 860.039 Q39.8781 860.039 36.186 862.777 Q32.4621 865.514 32.4621 870.193 M27.4968 870.193 Q27.4968 862.554 32.4621 858.193 Q37.4273 853.833 46.212 853.833 Q54.9649 853.833 59.9619 858.193 Q64.9272 862.554 64.9272 870.193 Q64.9272 877.863 59.9619 882.224 Q54.9649 886.552 46.212 886.552 Q37.4273 886.552 32.4621 882.224 Q27.4968 877.863 27.4968 870.193 Z" fill="#000000" fill-rule="nonzero" fill-opacity="1"></path><path clip-path="url(#clip500)" d="M42.4881 814.493 L64.0042 814.493 L64.0042 820.349 L42.679 820.349 Q37.6183 820.349 35.1038 822.322 Q32.5894 824.296 32.5894 828.243 Q32.5894 832.985 35.6131 835.722 Q38.6368 838.46 43.8567 838.46 L64.0042 838.46 L64.0042 844.348 L28.3562 844.348 L28.3562 838.46 L33.8944 838.46 Q30.6797 836.359 29.0883 833.526 Q27.4968 830.662 27.4968 826.938 Q27.4968 820.795 31.3163 817.644 Q35.1038 814.493 42.4881 814.493 Z" fill="#000000" fill-rule="nonzero" fill-opacity="1"></path><path clip-path="url(#clip500)" d="M14.5426 768.023 Q21.8632 772.288 29.0246 774.357 Q36.186 776.426 43.5384 776.426 Q50.8908 776.426 58.1159 774.357 Q65.3091 772.256 72.5979 768.023 L72.5979 773.116 Q65.1182 777.89 57.8931 780.277 Q50.668 782.632 43.5384 782.632 Q36.4406 782.632 29.2474 780.277 Q22.0542 777.922 14.5426 773.116 L14.5426 768.023 Z" fill="#000000" fill-rule="nonzero" fill-opacity="1"></path><path clip-path="url(#clip500)" d="M35.1993 728.906 Q31.2526 726.71 29.3747 723.654 Q27.4968 720.598 27.4968 716.461 Q27.4968 710.891 31.4117 707.867 Q35.2948 704.843 42.4881 704.843 L64.0042 704.843 L64.0042 710.732 L42.679 710.732 Q37.5546 710.732 35.072 712.546 Q32.5894 714.36 32.5894 718.084 Q32.5894 722.635 35.6131 725.277 Q38.6368 727.919 43.8567 727.919 L64.0042 727.919 L64.0042 733.807 L42.679 733.807 Q37.5228 733.807 35.072 735.622 Q32.5894 737.436 32.5894 741.223 Q32.5894 745.711 35.6449 748.353 Q38.6686 750.995 43.8567 750.995 L64.0042 750.995 L64.0042 756.883 L28.3562 756.883 L28.3562 750.995 L33.8944 750.995 Q30.616 748.99 29.0564 746.189 Q27.4968 743.388 27.4968 739.536 Q27.4968 735.653 29.4702 732.948 Q31.4436 730.211 35.1993 728.906 Z" fill="#000000" fill-rule="nonzero" fill-opacity="1"></path><path clip-path="url(#clip500)" d="M55.9197 692.335 L55.9197 685.619 L64.0042 685.619 L64.0042 692.335 L55.9197 692.335 Z" fill="#000000" fill-rule="nonzero" fill-opacity="1"></path><path clip-path="url(#clip500)" d="M46.0847 656.241 Q46.0847 663.339 47.7079 666.076 Q49.3312 668.813 53.2461 668.813 Q56.3653 668.813 58.2114 666.776 Q60.0256 664.708 60.0256 661.175 Q60.0256 656.305 56.5881 653.377 Q53.1188 650.417 47.3897 650.417 L46.0847 650.417 L46.0847 656.241 M43.6657 644.56 L64.0042 644.56 L64.0042 650.417 L58.5933 650.417 Q61.8398 652.422 63.3994 655.414 Q64.9272 658.406 64.9272 662.734 Q64.9272 668.209 61.8716 671.455 Q58.7843 674.67 53.6281 674.67 Q47.6125 674.67 44.5569 670.66 Q41.5014 666.617 41.5014 658.628 L41.5014 650.417 L40.9285 650.417 Q36.8862 650.417 34.6901 653.09 Q32.4621 655.732 32.4621 660.538 Q32.4621 663.594 33.1941 666.49 Q33.9262 669.386 35.3903 672.06 L29.9795 672.06 Q28.7381 668.845 28.1334 665.822 Q27.4968 662.798 27.4968 659.933 Q27.4968 652.199 31.5072 648.38 Q35.5176 644.56 43.6657 644.56 Z" fill="#000000" fill-rule="nonzero" fill-opacity="1"></path><path clip-path="url(#clip500)" d="M55.9197 631.67 L55.9197 624.954 L64.0042 624.954 L64.0042 631.67 L55.9197 631.67 Z" fill="#000000" fill-rule="nonzero" fill-opacity="1"></path><path clip-path="url(#clip500)" d="M29.4065 589.051 L34.9447 589.051 Q33.6716 591.534 33.035 594.207 Q32.3984 596.881 32.3984 599.746 Q32.3984 604.106 33.7352 606.302 Q35.072 608.467 37.7456 608.467 Q39.7826 608.467 40.9603 606.907 Q42.1061 605.347 43.1565 600.637 L43.6021 598.632 Q44.9389 592.393 47.3897 589.783 Q49.8086 587.141 54.1691 587.141 Q59.1344 587.141 62.0308 591.088 Q64.9272 595.003 64.9272 601.878 Q64.9272 604.743 64.3543 607.862 Q63.8132 610.949 62.6992 614.387 L56.6518 614.387 Q58.3387 611.14 59.198 607.989 Q60.0256 604.838 60.0256 601.751 Q60.0256 597.613 58.6251 595.385 Q57.1929 593.157 54.6147 593.157 Q52.2276 593.157 50.9545 594.78 Q49.6813 596.372 48.5037 601.814 L48.0262 603.851 Q46.8804 609.294 44.5251 611.713 Q42.138 614.132 38.0002 614.132 Q32.9713 614.132 30.2341 610.567 Q27.4968 607.002 27.4968 600.446 Q27.4968 597.199 27.9743 594.335 Q28.4517 591.47 29.4065 589.051 Z" fill="#000000" fill-rule="nonzero" fill-opacity="1"></path><path clip-path="url(#clip500)" d="M55.9197 576.988 L55.9197 570.272 L64.0042 570.272 L64.0042 576.988 L55.9197 576.988 Z" fill="#000000" fill-rule="nonzero" fill-opacity="1"></path><path clip-path="url(#clip500)" d="M14.479 557.095 L14.479 551.239 L64.0042 551.239 L64.0042 557.095 L14.479 557.095 Z" fill="#000000" fill-rule="nonzero" fill-opacity="1"></path><path clip-path="url(#clip500)" d="M55.9197 538.157 L55.9197 531.442 L64.0042 531.442 L64.0042 538.157 L55.9197 538.157 Z" fill="#000000" fill-rule="nonzero" fill-opacity="1"></path><path clip-path="url(#clip500)" d="M14.5426 519.188 L14.5426 514.095 Q22.0542 509.321 29.2474 506.965 Q36.4406 504.578 43.5384 504.578 Q50.668 504.578 57.8931 506.965 Q65.1182 509.321 72.5979 514.095 L72.5979 519.188 Q65.3091 514.954 58.1159 512.885 Q50.8908 510.785 43.5384 510.785 Q36.186 510.785 29.0246 512.885 Q21.8632 514.954 14.5426 519.188 Z" fill="#000000" fill-rule="nonzero" fill-opacity="1"></path><path clip-path="url(#clip500)" d="M1001.45 9.62495 Q996.018 18.942 993.384 28.0566 Q990.751 37.1711 990.751 46.5287 Q990.751 55.8863 993.384 65.0818 Q996.058 74.2369 1001.45 83.5134 L994.964 83.5134 Q988.888 73.9938 985.85 64.7983 Q982.852 55.6027 982.852 46.5287 Q982.852 37.4952 985.85 28.3401 Q988.847 19.1851 994.964 9.62495 L1001.45 9.62495 Z" fill="#000000" fill-rule="nonzero" fill-opacity="1"></path><path clip-path="url(#clip500)" d="M1038.88 9.54393 L1038.88 15.7418 L1031.75 15.7418 Q1027.74 15.7418 1026.16 17.3622 Q1024.62 18.9825 1024.62 23.1955 L1024.62 27.2059 L1036.89 27.2059 L1036.89 32.9987 L1024.62 32.9987 L1024.62 72.576 L1017.12 72.576 L1017.12 32.9987 L1009.99 32.9987 L1009.99 27.2059 L1017.12 27.2059 L1017.12 24.0462 Q1017.12 16.471 1020.65 13.0277 Q1024.17 9.54393 1031.83 9.54393 L1038.88 9.54393 Z" fill="#000000" fill-rule="nonzero" fill-opacity="1"></path><path clip-path="url(#clip500)" d="M1062.7 32.4315 Q1056.7 32.4315 1053.22 37.1306 Q1049.73 41.7891 1049.73 49.9314 Q1049.73 58.0738 1053.18 62.7728 Q1056.66 67.4314 1062.7 67.4314 Q1068.65 67.4314 1072.13 62.7323 Q1075.62 58.0333 1075.62 49.9314 Q1075.62 41.8701 1072.13 37.1711 Q1068.65 32.4315 1062.7 32.4315 M1062.7 26.1121 Q1072.42 26.1121 1077.97 32.4315 Q1083.52 38.7509 1083.52 49.9314 Q1083.52 61.0714 1077.97 67.4314 Q1072.42 73.7508 1062.7 73.7508 Q1052.93 73.7508 1047.38 67.4314 Q1041.87 61.0714 1041.87 49.9314 Q1041.87 38.7509 1047.38 32.4315 Q1052.93 26.1121 1062.7 26.1121 Z" fill="#000000" fill-rule="nonzero" fill-opacity="1"></path><path clip-path="url(#clip500)" d="M1122.16 34.1734 Q1120.91 33.4443 1119.41 33.1202 Q1117.95 32.7556 1116.17 32.7556 Q1109.85 32.7556 1106.45 36.8875 Q1103.08 40.9789 1103.08 48.6757 L1103.08 72.576 L1095.59 72.576 L1095.59 27.2059 L1103.08 27.2059 L1103.08 34.2544 Q1105.43 30.1225 1109.2 28.1376 Q1112.97 26.1121 1118.35 26.1121 Q1119.12 26.1121 1120.06 26.2337 Q1120.99 26.3147 1122.12 26.5172 L1122.16 34.1734 Z" fill="#000000" fill-rule="nonzero" fill-opacity="1"></path><path clip-path="url(#clip500)" d="M1158.82 65.6895 L1172.19 65.6895 L1172.19 19.5497 L1157.65 22.4663 L1157.65 15.0127 L1172.11 12.096 L1180.29 12.096 L1180.29 65.6895 L1193.66 65.6895 L1193.66 72.576 L1158.82 72.576 L1158.82 65.6895 Z" fill="#000000" fill-rule="nonzero" fill-opacity="1"></path><path clip-path="url(#clip500)" d="M1227.69 17.4837 Q1221.37 17.4837 1218.17 23.7221 Q1215.01 29.92 1215.01 42.3968 Q1215.01 54.833 1218.17 61.0714 Q1221.37 67.2693 1227.69 67.2693 Q1234.05 67.2693 1237.21 61.0714 Q1240.41 54.833 1240.41 42.3968 Q1240.41 29.92 1237.21 23.7221 Q1234.05 17.4837 1227.69 17.4837 M1227.69 11.0023 Q1237.86 11.0023 1243.2 19.0636 Q1248.59 27.0843 1248.59 42.3968 Q1248.59 57.6687 1243.2 65.73 Q1237.86 73.7508 1227.69 73.7508 Q1217.52 73.7508 1212.13 65.73 Q1206.79 57.6687 1206.79 42.3968 Q1206.79 27.0843 1212.13 19.0636 Q1217.52 11.0023 1227.69 11.0023 Z" fill="#000000" fill-rule="nonzero" fill-opacity="1"></path><path clip-path="url(#clip500)" d="M1280.47 17.4837 Q1274.15 17.4837 1270.95 23.7221 Q1267.79 29.92 1267.79 42.3968 Q1267.79 54.833 1270.95 61.0714 Q1274.15 67.2693 1280.47 67.2693 Q1286.83 67.2693 1289.99 61.0714 Q1293.19 54.833 1293.19 42.3968 Q1293.19 29.92 1289.99 23.7221 Q1286.83 17.4837 1280.47 17.4837 M1280.47 11.0023 Q1290.64 11.0023 1295.99 19.0636 Q1301.37 27.0843 1301.37 42.3968 Q1301.37 57.6687 1295.99 65.73 Q1290.64 73.7508 1280.47 73.7508 Q1270.3 73.7508 1264.92 65.73 Q1259.57 57.6687 1259.57 42.3968 Q1259.57 27.0843 1264.92 19.0636 Q1270.3 11.0023 1280.47 11.0023 Z" fill="#000000" fill-rule="nonzero" fill-opacity="1"></path><path clip-path="url(#clip500)" d="M1315.76 62.2867 L1324.3 62.2867 L1324.3 72.576 L1315.76 72.576 L1315.76 62.2867 Z" fill="#000000" fill-rule="nonzero" fill-opacity="1"></path><path clip-path="url(#clip500)" d="M1359.63 17.4837 Q1353.31 17.4837 1350.11 23.7221 Q1346.95 29.92 1346.95 42.3968 Q1346.95 54.833 1350.11 61.0714 Q1353.31 67.2693 1359.63 67.2693 Q1365.99 67.2693 1369.15 61.0714 Q1372.35 54.833 1372.35 42.3968 Q1372.35 29.92 1369.15 23.7221 Q1365.99 17.4837 1359.63 17.4837 M1359.63 11.0023 Q1369.79 11.0023 1375.14 19.0636 Q1380.53 27.0843 1380.53 42.3968 Q1380.53 57.6687 1375.14 65.73 Q1369.79 73.7508 1359.63 73.7508 Q1349.46 73.7508 1344.07 65.73 Q1338.72 57.6687 1338.72 42.3968 Q1338.72 27.0843 1344.07 19.0636 Q1349.46 11.0023 1359.63 11.0023 Z" fill="#000000" fill-rule="nonzero" fill-opacity="1"></path><path clip-path="url(#clip500)" d="M1439.11 76.7889 Q1435.95 84.8907 1432.95 87.3618 Q1429.95 89.8329 1424.93 89.8329 L1418.97 89.8329 L1418.97 83.5945 L1423.35 83.5945 Q1426.43 83.5945 1428.13 82.1361 Q1429.83 80.6778 1431.89 75.2496 L1433.23 71.8468 L1414.88 27.2059 L1422.78 27.2059 L1436.96 62.6918 L1451.14 27.2059 L1459.04 27.2059 L1439.11 76.7889 Z" fill="#000000" fill-rule="nonzero" fill-opacity="1"></path><path clip-path="url(#clip500)" d="M1508.13 48.0275 L1508.13 51.6733 L1473.86 51.6733 Q1474.35 59.3701 1478.48 63.421 Q1482.65 67.4314 1490.07 67.4314 Q1494.36 67.4314 1498.37 66.3781 Q1502.42 65.3249 1506.39 63.2184 L1506.39 70.267 Q1502.38 71.9684 1498.17 72.8596 Q1493.95 73.7508 1489.62 73.7508 Q1478.76 73.7508 1472.4 67.4314 Q1466.08 61.1119 1466.08 50.3365 Q1466.08 39.1965 1472.08 32.6746 Q1478.12 26.1121 1488.32 26.1121 Q1497.48 26.1121 1502.79 32.0264 Q1508.13 37.9003 1508.13 48.0275 M1500.68 45.84 Q1500.6 39.7232 1497.24 36.0774 Q1493.91 32.4315 1488.4 32.4315 Q1482.17 32.4315 1478.4 35.9558 Q1474.67 39.4801 1474.11 45.8805 L1500.68 45.84 Z" fill="#000000" fill-rule="nonzero" fill-opacity="1"></path><path clip-path="url(#clip500)" d="M1540.99 49.7694 Q1531.95 49.7694 1528.47 51.8354 Q1524.98 53.9013 1524.98 58.8839 Q1524.98 62.8538 1527.58 65.2034 Q1530.21 67.5124 1534.71 67.5124 Q1540.9 67.5124 1544.63 63.1374 Q1548.4 58.7219 1548.4 51.4303 L1548.4 49.7694 L1540.99 49.7694 M1555.85 46.6907 L1555.85 72.576 L1548.4 72.576 L1548.4 65.6895 Q1545.85 69.8214 1542.04 71.8063 Q1538.23 73.7508 1532.72 73.7508 Q1525.75 73.7508 1521.62 69.8619 Q1517.53 65.9325 1517.53 59.3701 Q1517.53 51.7138 1522.64 47.825 Q1527.78 43.9361 1537.95 43.9361 L1548.4 43.9361 L1548.4 43.2069 Q1548.4 38.0623 1545 35.2672 Q1541.63 32.4315 1535.52 32.4315 Q1531.63 32.4315 1527.94 33.3632 Q1524.26 34.295 1520.85 36.1584 L1520.85 29.2718 Q1524.94 27.692 1528.79 26.9223 Q1532.64 26.1121 1536.29 26.1121 Q1546.13 26.1121 1550.99 31.2163 Q1555.85 36.3204 1555.85 46.6907 Z" fill="#000000" fill-rule="nonzero" fill-opacity="1"></path><path clip-path="url(#clip500)" d="M1597.5 34.1734 Q1596.24 33.4443 1594.74 33.1202 Q1593.28 32.7556 1591.5 32.7556 Q1585.18 32.7556 1581.78 36.8875 Q1578.42 40.9789 1578.42 48.6757 L1578.42 72.576 L1570.92 72.576 L1570.92 27.2059 L1578.42 27.2059 L1578.42 34.2544 Q1580.77 30.1225 1584.53 28.1376 Q1588.3 26.1121 1593.69 26.1121 Q1594.46 26.1121 1595.39 26.2337 Q1596.32 26.3147 1597.46 26.5172 L1597.5 34.1734 Z" fill="#000000" fill-rule="nonzero" fill-opacity="1"></path><path clip-path="url(#clip500)" d="M1634.24 28.5427 L1634.24 35.5912 Q1631.08 33.9709 1627.67 33.1607 Q1624.27 32.3505 1620.63 32.3505 Q1615.08 32.3505 1612.28 34.0519 Q1609.53 35.7533 1609.53 39.156 Q1609.53 41.7486 1611.51 43.2475 Q1613.5 44.7058 1619.49 46.0426 L1622.04 46.6097 Q1629.98 48.3111 1633.31 51.4303 Q1636.67 54.509 1636.67 60.0587 Q1636.67 66.3781 1631.64 70.0644 Q1626.66 73.7508 1617.91 73.7508 Q1614.27 73.7508 1610.3 73.0216 Q1606.37 72.3329 1601.99 70.9151 L1601.99 63.2184 Q1606.12 65.3654 1610.13 66.4591 Q1614.14 67.5124 1618.07 67.5124 Q1623.34 67.5124 1626.18 65.73 Q1629.01 63.9071 1629.01 60.6258 Q1629.01 57.5877 1626.95 55.9673 Q1624.92 54.3469 1617.99 52.8481 L1615.4 52.2405 Q1608.47 50.7821 1605.4 47.7845 Q1602.32 44.7463 1602.32 39.4801 Q1602.32 33.0797 1606.85 29.5959 Q1611.39 26.1121 1619.74 26.1121 Q1623.87 26.1121 1627.51 26.7198 Q1631.16 27.3274 1634.24 28.5427 Z" fill="#000000" fill-rule="nonzero" fill-opacity="1"></path><path clip-path="url(#clip500)" d="M1647.36 9.62495 L1653.84 9.62495 Q1659.92 19.1851 1662.92 28.3401 Q1665.96 37.4952 1665.96 46.5287 Q1665.96 55.6027 1662.92 64.7983 Q1659.92 73.9938 1653.84 83.5134 L1647.36 83.5134 Q1652.75 74.2369 1655.38 65.0818 Q1658.06 55.8863 1658.06 46.5287 Q1658.06 37.1711 1655.38 28.0566 Q1652.75 18.942 1647.36 9.62495 Z" fill="#000000" fill-rule="nonzero" fill-opacity="1"></path><polyline clip-path="url(#clip502)" style="stroke:#a52a2a; stroke-linecap:round; stroke-linejoin:round; stroke-width:4; stroke-opacity:1; fill:none" points="321.708,235.564 340.853,245.066 359.997,257.971 379.142,276.767 398.286,300.504 417.431,328.664 436.575,357.189 455.72,384.036 474.865,410.94 494.009,438.723 513.154,479.687 532.298,522.231 551.443,540.545 570.587,570.793 589.732,596.392 608.877,607.738 628.021,616.925 647.166,622.688 666.31,625.716 685.455,632.246 704.599,641.599 723.744,644.197 742.889,648.408 762.033,658.969 781.178,670.673 800.322,683.827 819.467,698.362 838.611,711.997 857.756,723.84 876.901,736.062 896.045,745.222 915.19,752.825 934.334,765.882 953.479,779.949 972.624,793.356 991.768,814.685 1010.91,837.578 1030.06,852.276 1049.2,866.634 1068.35,883.092 1087.49,895.633 1106.64,898.389 1125.78,897.161 1144.92,905.993 1164.07,914.172 1183.21,926.684 1202.36,945.671 1221.5,963.863 1240.65,980.785 1259.79,997.411 1278.94,997.836 1298.08,998.652 1317.23,1004.24 1336.37,999.091 1355.52,1010.14 1374.66,1021.56 1393.8,1035.87 1412.95,1047.04 1432.09,1054.32 1451.24,1059.16 1470.38,1062.71 1489.53,1065.1 1508.67,1066.52 1527.82,1068.02 1546.96,1071.13 1566.11,1076.44 1585.25,1083.6 1604.39,1091.21 1623.54,1097 1642.68,1099.93 1661.83,1101.05 1680.97,1102.44 1700.12,1105.31 1719.26,1109.49 1738.41,1114.24 1757.55,1119.46 1776.7,1126.35 1795.84,1136.8 1814.98,1152.7 1834.13,1174.6 1853.27,1201.6 1872.42,1232.78 1891.56,1267.08 1910.71,1301.07 1929.85,1329.91 1949,1351.67 1968.14,1368.12 1987.29,1381.42 2006.43,1392.17 2025.58,1400.39 2044.72,1406.79 2063.86,1412.53 2083.01,1418.54 2102.15,1425.16 2121.3,1431.83 2140.44,1437.45 2159.59,1441.52 2178.73,1444.18 2197.88,1445.89 2217.02,1447.1 2236.17,1447.87 2255.31,1447.76 2274.45,1446.52 2293.6,1445.12 "></polyline>
<polyline clip-path="url(#clip502)" style="stroke:#0000ff; stroke-linecap:round; stroke-linejoin:round; stroke-width:4; stroke-opacity:1; fill:none" points="321.708,176.56 340.853,193.977 359.997,212.999 379.142,236.032 398.286,262.696 417.431,291.718 436.575,321.85 455.72,353.757 474.865,390.986 494.009,438.723 513.154,479.687 532.298,522.231 551.443,540.545 570.587,570.793 589.732,585.673 608.877,595.616 628.021,605.718 647.166,616.006 666.31,625.716 685.455,632.246 704.599,641.599 723.744,644.197 742.889,648.408 762.033,658.969 781.178,670.673 800.322,683.827 819.467,698.362 838.611,711.997 857.756,723.84 876.901,736.062 896.045,745.222 915.19,752.825 934.334,765.882 953.479,779.949 972.624,793.356 991.768,814.685 1010.91,837.578 1030.06,852.276 1049.2,866.634 1068.35,883.092 1087.49,895.633 1106.64,898.389 1125.78,897.161 1144.92,905.993 1164.07,914.172 1183.21,926.684 1202.36,945.671 1221.5,963.863 1240.65,980.785 1259.79,997.411 1278.94,997.836 1298.08,998.652 1317.23,1004.24 1336.37,999.091 1355.52,1010.14 1374.66,1021.56 1393.8,1035.87 1412.95,1047.04 1432.09,1054.32 1451.24,1059.16 1470.38,1062.71 1489.53,1065.1 1508.67,1066.52 1527.82,1068.02 1546.96,1071.13 1566.11,1076.44 1585.25,1083.6 1604.39,1091.21 1623.54,1097 1642.68,1099.93 1661.83,1101.05 1680.97,1102.44 1700.12,1105.31 1719.26,1109.49 1738.41,1114.24 1757.55,1119.46 1776.7,1126.35 1795.84,1136.8 1814.98,1152.7 1834.13,1174.6 1853.27,1201.6 1872.42,1232.78 1891.56,1267.08 1910.71,1301.07 1929.85,1329.91 1949,1351.67 1968.14,1368.12 1987.29,1381.42 2006.43,1392.17 2025.58,1400.39 2044.72,1406.79 2063.86,1412.53 2083.01,1418.54 2102.15,1425.16 2121.3,1431.83 2140.44,1437.45 2159.59,1441.52 2178.73,1444.18 2197.88,1445.89 2217.02,1447.1 2236.17,1447.87 2255.31,1447.76 2274.45,1446.52 2293.6,1445.12 "></polyline>
<polyline clip-path="url(#clip502)" style="stroke:#ff0000; stroke-linecap:round; stroke-linejoin:round; stroke-width:4; stroke-opacity:1; fill:none" points="321.708,175.824 340.853,193.161 359.997,212.095 379.142,235.041 398.286,261.619 417.431,290.57 436.575,320.617 455.72,352.461 474.865,389.568 494.009,438.203 513.154,479.476 532.298,522.231 551.443,540.545 570.587,570.793 589.732,584.961 608.877,594.939 628.021,605.081 647.166,615.408 666.31,625.716 685.455,632.246 704.599,641.599 723.744,644.197 742.889,648.408 762.033,658.969 781.178,670.673 800.322,683.827 819.467,698.362 838.611,711.997 857.756,723.84 876.901,736.062 896.045,745.222 915.19,752.825 934.334,765.882 953.479,779.949 972.624,793.356 991.768,814.685 1010.91,837.578 1030.06,852.276 1049.2,866.634 1068.35,883.092 1087.49,895.633 1106.64,898.389 1125.78,897.161 1144.92,905.993 1164.07,914.172 1183.21,926.684 1202.36,945.671 1221.5,963.863 1240.65,980.785 1259.79,997.411 1278.94,997.836 1298.08,998.652 1317.23,1004.24 1336.37,999.091 1355.52,1010.14 1374.66,1021.56 1393.8,1035.87 1412.95,1047.04 1432.09,1054.32 1451.24,1059.16 1470.38,1062.71 1489.53,1065.1 1508.67,1066.52 1527.82,1068.02 1546.96,1071.13 1566.11,1076.44 1585.25,1083.6 1604.39,1091.21 1623.54,1097 1642.68,1099.93 1661.83,1101.05 1680.97,1102.44 1700.12,1105.31 1719.26,1109.49 1738.41,1114.24 1757.55,1119.46 1776.7,1126.35 1795.84,1136.8 1814.98,1152.7 1834.13,1174.6 1853.27,1201.6 1872.42,1232.78 1891.56,1267.08 1910.71,1301.07 1929.85,1329.91 1949,1351.67 1968.14,1368.12 1987.29,1381.42 2006.43,1392.17 2025.58,1400.39 2044.72,1406.79 2063.86,1412.53 2083.01,1418.54 2102.15,1425.16 2121.3,1431.83 2140.44,1437.45 2159.59,1441.52 2178.73,1444.18 2197.88,1445.89 2217.02,1447.1 2236.17,1447.87 2255.31,1447.76 2274.45,1446.52 2293.6,1445.12 "></polyline>
<polyline clip-path="url(#clip502)" style="stroke:#008000; stroke-linecap:round; stroke-linejoin:round; stroke-width:4; stroke-opacity:1; fill:none" points="321.708,162.047 340.853,176.937 359.997,196.288 379.142,217.202 398.286,241.941 417.431,268.019 436.575,294.643 455.72,321.437 474.865,348.352 494.009,375.013 513.154,400.918 532.298,412.882 551.443,424.845 570.587,436.808 589.732,445.927 608.877,454.653 628.021,463.379 647.166,472.105 666.31,481.465 685.455,491.473 704.599,501.482 723.744,511.49 742.889,523.173 762.033,535.257 781.178,547.34 800.322,559.432 819.467,571.53 838.611,583.627 857.756,596.12 876.901,609.011 896.045,621.902 915.19,636.251 934.334,651.953 953.479,667.668 972.624,684.333 991.768,700.998 1010.91,714.829 1030.06,727.394 1049.2,739.958 1068.35,751.366 1087.49,762.197 1106.64,773.029 1125.78,786 1144.92,801.661 1164.07,817.322 1183.21,836.449 1202.36,855.675 1221.5,874.197 1240.65,892.646 1259.79,910.927 1278.94,929.177 1298.08,948.459 1317.23,967.955 1336.37,984.12 1355.52,1010.14 1374.66,1021.56 1393.8,1035.87 1412.95,1047.04 1432.09,1054.32 1451.24,1059.16 1470.38,1062.71 1489.53,1065.1 1508.67,1066.52 1527.82,1068.02 1546.96,1071.13 1566.11,1076.44 1585.25,1083.6 1604.39,1091.21 1623.54,1097 1642.68,1099.93 1661.83,1101.05 1680.97,1102.44 1700.12,1105.31 1719.26,1109.49 1738.41,1114.24 1757.55,1119.46 1776.7,1126.35 1795.84,1136.8 1814.98,1152.7 1834.13,1174.6 1853.27,1201.6 1872.42,1232.78 1891.56,1267.08 1910.71,1301.07 1929.85,1329.91 1949,1351.67 1968.14,1368.12 1987.29,1381.42 2006.43,1392.17 2025.58,1400.39 2044.72,1406.79 2063.86,1412.53 2083.01,1418.54 2102.15,1425.16 2121.3,1431.83 2140.44,1437.45 2159.59,1441.52 2178.73,1444.18 2197.88,1445.89 2217.02,1447.1 2236.17,1447.87 2255.31,1447.76 2274.45,1446.52 2293.6,1445.12 "></polyline>
<polyline clip-path="url(#clip502)" style="stroke:#000000; stroke-linecap:round; stroke-linejoin:round; stroke-width:4; stroke-opacity:1; fill:none" stroke-dasharray="16, 10" points="321.708,187.5 340.853,201.51 359.997,218.842 379.142,240.668 398.286,266.617 417.431,295.305 436.575,325.331 455.72,357.375 474.865,395.054 494.009,438.723 513.154,479.687 532.298,522.231 551.443,540.545 570.587,569.548 589.732,581.902 608.877,592.052 628.021,602.164 647.166,612.67 666.31,624.588 685.455,632.246 704.599,641.599 723.744,644.197 742.889,648.408 762.033,658.969 781.178,670.673 800.322,683.827 819.467,698.362 838.611,711.997 857.756,723.84 876.901,736.062 896.045,745.222 915.19,752.825 934.334,765.882 953.479,779.949 972.624,793.356 991.768,814.685 1010.91,837.578 1030.06,852.276 1049.2,866.634 1068.35,883.092 1087.49,895.633 1106.64,898.389 1125.78,897.161 1144.92,905.993 1164.07,914.172 1183.21,926.684 1202.36,945.671 1221.5,963.863 1240.65,980.785 1259.79,997.411 1278.94,997.836 1298.08,998.652 1317.23,1004.24 1336.37,999.091 1355.52,1010.14 1374.66,1021.56 1393.8,1035.87 1412.95,1047.04 1432.09,1054.32 1451.24,1059.16 1470.38,1062.71 1489.53,1065.1 1508.67,1066.52 1527.82,1068.02 1546.96,1071.13 1566.11,1076.44 1585.25,1083.6 1604.39,1091.21 1623.54,1097 1642.68,1099.93 1661.83,1101.05 1680.97,1102.44 1700.12,1105.31 1719.26,1109.49 1738.41,1114.24 1757.55,1119.46 1776.7,1126.35 1795.84,1136.8 1814.98,1152.7 1834.13,1174.6 1853.27,1201.6 1872.42,1232.78 1891.56,1267.08 1910.71,1301.07 1929.85,1329.91 1949,1351.67 1968.14,1368.12 1987.29,1381.42 2006.43,1392.17 2025.58,1400.39 2044.72,1406.79 2063.86,1412.53 2083.01,1418.54 2102.15,1425.16 2121.3,1431.83 2140.44,1437.45 2159.59,1441.52 2178.73,1444.18 2197.88,1445.89 2217.02,1447.1 2236.17,1447.87 2255.31,1447.76 2274.45,1446.52 2293.6,1445.12 "></polyline>
<path clip-path="url(#clip500)" d="M1729.34 479.945 L2283.08 479.945 L2283.08 168.905 L1729.34 168.905  Z" fill="#f8f8ff" fill-rule="evenodd" fill-opacity="1"></path>
<polyline clip-path="url(#clip500)" style="stroke:#000000; stroke-linecap:round; stroke-linejoin:round; stroke-width:4; stroke-opacity:1; fill:none" points="1729.34,479.945 2283.08,479.945 2283.08,168.905 1729.34,168.905 1729.34,479.945 "></polyline>
<polyline clip-path="url(#clip500)" style="stroke:#a52a2a; stroke-linecap:round; stroke-linejoin:round; stroke-width:4; stroke-opacity:1; fill:none" points="1752.57,220.745 1891.91,220.745 "></polyline>
<path clip-path="url(#clip500)" d="M1933.91 225.085 Q1933.91 220.386 1931.97 217.724 Q1930.04 215.039 1926.67 215.039 Q1923.29 215.039 1921.34 217.724 Q1919.42 220.386 1919.42 225.085 Q1919.42 229.784 1921.34 232.469 Q1923.29 235.131 1926.67 235.131 Q1930.04 235.131 1931.97 232.469 Q1933.91 229.784 1933.91 225.085 M1919.42 216.034 Q1920.76 213.719 1922.8 212.608 Q1924.86 211.474 1927.71 211.474 Q1932.43 211.474 1935.37 215.224 Q1938.33 218.974 1938.33 225.085 Q1938.33 231.196 1935.37 234.946 Q1932.43 238.696 1927.71 238.696 Q1924.86 238.696 1922.8 237.585 Q1920.76 236.451 1919.42 234.136 L1919.42 238.025 L1915.14 238.025 L1915.14 202.006 L1919.42 202.006 L1919.42 216.034 Z" fill="#000000" fill-rule="nonzero" fill-opacity="1"></path><path clip-path="url(#clip500)" d="M1967.57 223.997 L1967.57 226.08 L1947.98 226.08 Q1948.26 230.478 1950.62 232.793 Q1953.01 235.085 1957.24 235.085 Q1959.7 235.085 1961.99 234.483 Q1964.3 233.881 1966.57 232.677 L1966.57 236.705 Q1964.28 237.677 1961.87 238.187 Q1959.47 238.696 1956.99 238.696 Q1950.79 238.696 1947.15 235.085 Q1943.54 231.474 1943.54 225.316 Q1943.54 218.951 1946.97 215.224 Q1950.42 211.474 1956.25 211.474 Q1961.48 211.474 1964.51 214.853 Q1967.57 218.21 1967.57 223.997 M1963.31 222.747 Q1963.26 219.252 1961.34 217.168 Q1959.44 215.085 1956.29 215.085 Q1952.73 215.085 1950.58 217.099 Q1948.45 219.113 1948.12 222.77 L1963.31 222.747 Z" fill="#000000" fill-rule="nonzero" fill-opacity="1"></path><path clip-path="url(#clip500)" d="M1991.62 216.034 L1991.62 202.006 L1995.88 202.006 L1995.88 238.025 L1991.62 238.025 L1991.62 234.136 Q1990.28 236.451 1988.22 237.585 Q1986.18 238.696 1983.31 238.696 Q1978.61 238.696 1975.65 234.946 Q1972.71 231.196 1972.71 225.085 Q1972.71 218.974 1975.65 215.224 Q1978.61 211.474 1983.31 211.474 Q1986.18 211.474 1988.22 212.608 Q1990.28 213.719 1991.62 216.034 M1977.1 225.085 Q1977.1 229.784 1979.03 232.469 Q1980.97 235.131 1984.35 235.131 Q1987.73 235.131 1989.67 232.469 Q1991.62 229.784 1991.62 225.085 Q1991.62 220.386 1989.67 217.724 Q1987.73 215.039 1984.35 215.039 Q1980.97 215.039 1979.03 217.724 Q1977.1 220.386 1977.1 225.085 Z" fill="#000000" fill-rule="nonzero" fill-opacity="1"></path><polyline clip-path="url(#clip500)" style="stroke:#0000ff; stroke-linecap:round; stroke-linejoin:round; stroke-width:4; stroke-opacity:1; fill:none" points="1752.57,272.585 1891.91,272.585 "></polyline>
<path clip-path="url(#clip500)" d="M1933.56 264.703 L1933.56 268.731 Q1931.76 267.805 1929.81 267.342 Q1927.87 266.879 1925.79 266.879 Q1922.61 266.879 1921.02 267.851 Q1919.44 268.823 1919.44 270.768 Q1919.44 272.249 1920.58 273.105 Q1921.71 273.939 1925.14 274.703 L1926.6 275.027 Q1931.13 275.999 1933.03 277.781 Q1934.95 279.541 1934.95 282.712 Q1934.95 286.323 1932.08 288.429 Q1929.23 290.536 1924.23 290.536 Q1922.15 290.536 1919.88 290.119 Q1917.64 289.726 1915.14 288.916 L1915.14 284.517 Q1917.5 285.744 1919.79 286.369 Q1922.08 286.971 1924.33 286.971 Q1927.34 286.971 1928.96 285.953 Q1930.58 284.911 1930.58 283.036 Q1930.58 281.3 1929.4 280.374 Q1928.24 279.448 1924.28 278.592 L1922.8 278.244 Q1918.84 277.411 1917.08 275.698 Q1915.32 273.962 1915.32 270.953 Q1915.32 267.295 1917.92 265.305 Q1920.51 263.314 1925.28 263.314 Q1927.64 263.314 1929.72 263.661 Q1931.8 264.008 1933.56 264.703 Z" fill="#000000" fill-rule="nonzero" fill-opacity="1"></path><path clip-path="url(#clip500)" d="M1941.29 279.633 L1941.29 263.939 L1945.55 263.939 L1945.55 279.471 Q1945.55 283.152 1946.99 285.004 Q1948.42 286.832 1951.29 286.832 Q1954.74 286.832 1956.73 284.633 Q1958.75 282.434 1958.75 278.638 L1958.75 263.939 L1963.01 263.939 L1963.01 289.865 L1958.75 289.865 L1958.75 285.883 Q1957.2 288.244 1955.14 289.402 Q1953.1 290.536 1950.39 290.536 Q1945.92 290.536 1943.61 287.758 Q1941.29 284.98 1941.29 279.633 M1952.01 263.314 L1952.01 263.314 Z" fill="#000000" fill-rule="nonzero" fill-opacity="1"></path><path clip-path="url(#clip500)" d="M1986.8 267.92 Q1986.09 267.504 1985.23 267.318 Q1984.4 267.11 1983.38 267.11 Q1979.77 267.11 1977.82 269.471 Q1975.9 271.809 1975.9 276.207 L1975.9 289.865 L1971.62 289.865 L1971.62 263.939 L1975.9 263.939 L1975.9 267.967 Q1977.24 265.606 1979.4 264.471 Q1981.55 263.314 1984.63 263.314 Q1985.07 263.314 1985.6 263.383 Q1986.13 263.43 1986.78 263.545 L1986.8 267.92 Z" fill="#000000" fill-rule="nonzero" fill-opacity="1"></path><path clip-path="url(#clip500)" d="M2004.4 253.846 L2004.4 257.388 L2000.32 257.388 Q1998.03 257.388 1997.13 258.314 Q1996.25 259.24 1996.25 261.647 L1996.25 263.939 L2003.26 263.939 L2003.26 267.249 L1996.25 267.249 L1996.25 289.865 L1991.97 289.865 L1991.97 267.249 L1987.89 267.249 L1987.89 263.939 L1991.97 263.939 L1991.97 262.133 Q1991.97 257.805 1993.98 255.837 Q1995.99 253.846 2000.37 253.846 L2004.4 253.846 Z" fill="#000000" fill-rule="nonzero" fill-opacity="1"></path><path clip-path="url(#clip500)" d="M2019.74 276.832 Q2014.58 276.832 2012.59 278.013 Q2010.6 279.193 2010.6 282.041 Q2010.6 284.309 2012.08 285.652 Q2013.59 286.971 2016.16 286.971 Q2019.7 286.971 2021.83 284.471 Q2023.98 281.948 2023.98 277.781 L2023.98 276.832 L2019.74 276.832 M2028.24 275.073 L2028.24 289.865 L2023.98 289.865 L2023.98 285.929 Q2022.52 288.291 2020.35 289.425 Q2018.17 290.536 2015.02 290.536 Q2011.04 290.536 2008.68 288.314 Q2006.34 286.068 2006.34 282.318 Q2006.34 277.943 2009.26 275.721 Q2012.2 273.499 2018.01 273.499 L2023.98 273.499 L2023.98 273.082 Q2023.98 270.143 2022.04 268.545 Q2020.11 266.925 2016.62 266.925 Q2014.4 266.925 2012.29 267.457 Q2010.18 267.99 2008.24 269.055 L2008.24 265.119 Q2010.58 264.217 2012.78 263.777 Q2014.97 263.314 2017.06 263.314 Q2022.68 263.314 2025.46 266.231 Q2028.24 269.147 2028.24 275.073 Z" fill="#000000" fill-rule="nonzero" fill-opacity="1"></path><path clip-path="url(#clip500)" d="M2055.67 264.934 L2055.67 268.916 Q2053.86 267.92 2052.03 267.434 Q2050.23 266.925 2048.38 266.925 Q2044.23 266.925 2041.94 269.564 Q2039.65 272.18 2039.65 276.925 Q2039.65 281.67 2041.94 284.309 Q2044.23 286.925 2048.38 286.925 Q2050.23 286.925 2052.03 286.439 Q2053.86 285.929 2055.67 284.934 L2055.67 288.869 Q2053.89 289.703 2051.97 290.119 Q2050.07 290.536 2047.91 290.536 Q2042.06 290.536 2038.61 286.855 Q2035.16 283.175 2035.16 276.925 Q2035.16 270.582 2038.63 266.948 Q2042.13 263.314 2048.19 263.314 Q2050.16 263.314 2052.03 263.731 Q2053.91 264.124 2055.67 264.934 Z" fill="#000000" fill-rule="nonzero" fill-opacity="1"></path><path clip-path="url(#clip500)" d="M2085.25 275.837 L2085.25 277.92 L2065.67 277.92 Q2065.95 282.318 2068.31 284.633 Q2070.69 286.925 2074.93 286.925 Q2077.38 286.925 2079.67 286.323 Q2081.99 285.721 2084.26 284.517 L2084.26 288.545 Q2081.97 289.517 2079.56 290.027 Q2077.15 290.536 2074.67 290.536 Q2068.47 290.536 2064.84 286.925 Q2061.22 283.314 2061.22 277.156 Q2061.22 270.791 2064.65 267.064 Q2068.1 263.314 2073.93 263.314 Q2079.16 263.314 2082.2 266.693 Q2085.25 270.05 2085.25 275.837 M2080.99 274.587 Q2080.95 271.092 2079.03 269.008 Q2077.13 266.925 2073.98 266.925 Q2070.41 266.925 2068.26 268.939 Q2066.13 270.953 2065.81 274.61 L2080.99 274.587 Z" fill="#000000" fill-rule="nonzero" fill-opacity="1"></path><path clip-path="url(#clip500)" d="M2123.84 264.703 L2123.84 268.731 Q2122.03 267.805 2120.09 267.342 Q2118.15 266.879 2116.06 266.879 Q2112.89 266.879 2111.29 267.851 Q2109.72 268.823 2109.72 270.768 Q2109.72 272.249 2110.85 273.105 Q2111.99 273.939 2115.41 274.703 L2116.87 275.027 Q2121.41 275.999 2123.31 277.781 Q2125.23 279.541 2125.23 282.712 Q2125.23 286.323 2122.36 288.429 Q2119.51 290.536 2114.51 290.536 Q2112.43 290.536 2110.16 290.119 Q2107.91 289.726 2105.41 288.916 L2105.41 284.517 Q2107.78 285.744 2110.07 286.369 Q2112.36 286.971 2114.6 286.971 Q2117.61 286.971 2119.23 285.953 Q2120.85 284.911 2120.85 283.036 Q2120.85 281.3 2119.67 280.374 Q2118.52 279.448 2114.56 278.592 L2113.08 278.244 Q2109.12 277.411 2107.36 275.698 Q2105.6 273.962 2105.6 270.953 Q2105.6 267.295 2108.19 265.305 Q2110.78 263.314 2115.55 263.314 Q2117.91 263.314 2120 263.661 Q2122.08 264.008 2123.84 264.703 Z" fill="#000000" fill-rule="nonzero" fill-opacity="1"></path><path clip-path="url(#clip500)" d="M2142.06 266.925 Q2138.63 266.925 2136.64 269.61 Q2134.65 272.272 2134.65 276.925 Q2134.65 281.578 2136.62 284.263 Q2138.61 286.925 2142.06 286.925 Q2145.46 286.925 2147.45 284.24 Q2149.44 281.555 2149.44 276.925 Q2149.44 272.318 2147.45 269.633 Q2145.46 266.925 2142.06 266.925 M2142.06 263.314 Q2147.61 263.314 2150.78 266.925 Q2153.96 270.536 2153.96 276.925 Q2153.96 283.291 2150.78 286.925 Q2147.61 290.536 2142.06 290.536 Q2136.48 290.536 2133.31 286.925 Q2130.16 283.291 2130.16 276.925 Q2130.16 270.536 2133.31 266.925 Q2136.48 263.314 2142.06 263.314 Z" fill="#000000" fill-rule="nonzero" fill-opacity="1"></path><path clip-path="url(#clip500)" d="M2161.02 253.846 L2165.28 253.846 L2165.28 289.865 L2161.02 289.865 L2161.02 253.846 Z" fill="#000000" fill-rule="nonzero" fill-opacity="1"></path><path clip-path="url(#clip500)" d="M2171.13 263.939 L2175.65 263.939 L2183.75 285.698 L2191.85 263.939 L2196.36 263.939 L2186.64 289.865 L2180.85 289.865 L2171.13 263.939 Z" fill="#000000" fill-rule="nonzero" fill-opacity="1"></path><path clip-path="url(#clip500)" d="M2224.42 275.837 L2224.42 277.92 L2204.84 277.92 Q2205.11 282.318 2207.47 284.633 Q2209.86 286.925 2214.09 286.925 Q2216.55 286.925 2218.84 286.323 Q2221.15 285.721 2223.42 284.517 L2223.42 288.545 Q2221.13 289.517 2218.72 290.027 Q2216.32 290.536 2213.84 290.536 Q2207.64 290.536 2204 286.925 Q2200.39 283.314 2200.39 277.156 Q2200.39 270.791 2203.82 267.064 Q2207.27 263.314 2213.1 263.314 Q2218.33 263.314 2221.36 266.693 Q2224.42 270.05 2224.42 275.837 M2220.16 274.587 Q2220.11 271.092 2218.19 269.008 Q2216.29 266.925 2213.15 266.925 Q2209.58 266.925 2207.43 268.939 Q2205.3 270.953 2204.97 274.61 L2220.16 274.587 Z" fill="#000000" fill-rule="nonzero" fill-opacity="1"></path><path clip-path="url(#clip500)" d="M2246.43 267.92 Q2245.71 267.504 2244.86 267.318 Q2244.02 267.11 2243.01 267.11 Q2239.4 267.11 2237.45 269.471 Q2235.53 271.809 2235.53 276.207 L2235.53 289.865 L2231.25 289.865 L2231.25 263.939 L2235.53 263.939 L2235.53 267.967 Q2236.87 265.606 2239.02 264.471 Q2241.18 263.314 2244.26 263.314 Q2244.7 263.314 2245.23 263.383 Q2245.76 263.43 2246.41 263.545 L2246.43 267.92 Z" fill="#000000" fill-rule="nonzero" fill-opacity="1"></path><polyline clip-path="url(#clip500)" style="stroke:#ff0000; stroke-linecap:round; stroke-linejoin:round; stroke-width:4; stroke-opacity:1; fill:none" points="1752.57,324.425 1891.91,324.425 "></polyline>
<path clip-path="url(#clip500)" d="M1933.56 316.543 L1933.56 320.571 Q1931.76 319.645 1929.81 319.182 Q1927.87 318.719 1925.79 318.719 Q1922.61 318.719 1921.02 319.691 Q1919.44 320.663 1919.44 322.608 Q1919.44 324.089 1920.58 324.945 Q1921.71 325.779 1925.14 326.543 L1926.6 326.867 Q1931.13 327.839 1933.03 329.621 Q1934.95 331.381 1934.95 334.552 Q1934.95 338.163 1932.08 340.269 Q1929.23 342.376 1924.23 342.376 Q1922.15 342.376 1919.88 341.959 Q1917.64 341.566 1915.14 340.756 L1915.14 336.357 Q1917.5 337.584 1919.79 338.209 Q1922.08 338.811 1924.33 338.811 Q1927.34 338.811 1928.96 337.793 Q1930.58 336.751 1930.58 334.876 Q1930.58 333.14 1929.4 332.214 Q1928.24 331.288 1924.28 330.432 L1922.8 330.084 Q1918.84 329.251 1917.08 327.538 Q1915.32 325.802 1915.32 322.793 Q1915.32 319.135 1917.92 317.145 Q1920.51 315.154 1925.28 315.154 Q1927.64 315.154 1929.72 315.501 Q1931.8 315.848 1933.56 316.543 Z" fill="#000000" fill-rule="nonzero" fill-opacity="1"></path><path clip-path="url(#clip500)" d="M1941.29 331.473 L1941.29 315.779 L1945.55 315.779 L1945.55 331.311 Q1945.55 334.992 1946.99 336.844 Q1948.42 338.672 1951.29 338.672 Q1954.74 338.672 1956.73 336.473 Q1958.75 334.274 1958.75 330.478 L1958.75 315.779 L1963.01 315.779 L1963.01 341.705 L1958.75 341.705 L1958.75 337.723 Q1957.2 340.084 1955.14 341.242 Q1953.1 342.376 1950.39 342.376 Q1945.92 342.376 1943.61 339.598 Q1941.29 336.82 1941.29 331.473 M1952.01 315.154 L1952.01 315.154 Z" fill="#000000" fill-rule="nonzero" fill-opacity="1"></path><path clip-path="url(#clip500)" d="M1986.8 319.76 Q1986.09 319.344 1985.23 319.158 Q1984.4 318.95 1983.38 318.95 Q1979.77 318.95 1977.82 321.311 Q1975.9 323.649 1975.9 328.047 L1975.9 341.705 L1971.62 341.705 L1971.62 315.779 L1975.9 315.779 L1975.9 319.807 Q1977.24 317.446 1979.4 316.311 Q1981.55 315.154 1984.63 315.154 Q1985.07 315.154 1985.6 315.223 Q1986.13 315.27 1986.78 315.385 L1986.8 319.76 Z" fill="#000000" fill-rule="nonzero" fill-opacity="1"></path><path clip-path="url(#clip500)" d="M2004.4 305.686 L2004.4 309.228 L2000.32 309.228 Q1998.03 309.228 1997.13 310.154 Q1996.25 311.08 1996.25 313.487 L1996.25 315.779 L2003.26 315.779 L2003.26 319.089 L1996.25 319.089 L1996.25 341.705 L1991.97 341.705 L1991.97 319.089 L1987.89 319.089 L1987.89 315.779 L1991.97 315.779 L1991.97 313.973 Q1991.97 309.645 1993.98 307.677 Q1995.99 305.686 2000.37 305.686 L2004.4 305.686 Z" fill="#000000" fill-rule="nonzero" fill-opacity="1"></path><path clip-path="url(#clip500)" d="M2019.74 328.672 Q2014.58 328.672 2012.59 329.853 Q2010.6 331.033 2010.6 333.881 Q2010.6 336.149 2012.08 337.492 Q2013.59 338.811 2016.16 338.811 Q2019.7 338.811 2021.83 336.311 Q2023.98 333.788 2023.98 329.621 L2023.98 328.672 L2019.74 328.672 M2028.24 326.913 L2028.24 341.705 L2023.98 341.705 L2023.98 337.769 Q2022.52 340.131 2020.35 341.265 Q2018.17 342.376 2015.02 342.376 Q2011.04 342.376 2008.68 340.154 Q2006.34 337.908 2006.34 334.158 Q2006.34 329.783 2009.26 327.561 Q2012.2 325.339 2018.01 325.339 L2023.98 325.339 L2023.98 324.922 Q2023.98 321.983 2022.04 320.385 Q2020.11 318.765 2016.62 318.765 Q2014.4 318.765 2012.29 319.297 Q2010.18 319.83 2008.24 320.895 L2008.24 316.959 Q2010.58 316.057 2012.78 315.617 Q2014.97 315.154 2017.06 315.154 Q2022.68 315.154 2025.46 318.071 Q2028.24 320.987 2028.24 326.913 Z" fill="#000000" fill-rule="nonzero" fill-opacity="1"></path><path clip-path="url(#clip500)" d="M2055.67 316.774 L2055.67 320.756 Q2053.86 319.76 2052.03 319.274 Q2050.23 318.765 2048.38 318.765 Q2044.23 318.765 2041.94 321.404 Q2039.65 324.02 2039.65 328.765 Q2039.65 333.51 2041.94 336.149 Q2044.23 338.765 2048.38 338.765 Q2050.23 338.765 2052.03 338.279 Q2053.86 337.769 2055.67 336.774 L2055.67 340.709 Q2053.89 341.543 2051.97 341.959 Q2050.07 342.376 2047.91 342.376 Q2042.06 342.376 2038.61 338.695 Q2035.16 335.015 2035.16 328.765 Q2035.16 322.422 2038.63 318.788 Q2042.13 315.154 2048.19 315.154 Q2050.16 315.154 2052.03 315.571 Q2053.91 315.964 2055.67 316.774 Z" fill="#000000" fill-rule="nonzero" fill-opacity="1"></path><path clip-path="url(#clip500)" d="M2085.25 327.677 L2085.25 329.76 L2065.67 329.76 Q2065.95 334.158 2068.31 336.473 Q2070.69 338.765 2074.93 338.765 Q2077.38 338.765 2079.67 338.163 Q2081.99 337.561 2084.26 336.357 L2084.26 340.385 Q2081.97 341.357 2079.56 341.867 Q2077.15 342.376 2074.67 342.376 Q2068.47 342.376 2064.84 338.765 Q2061.22 335.154 2061.22 328.996 Q2061.22 322.631 2064.65 318.904 Q2068.1 315.154 2073.93 315.154 Q2079.16 315.154 2082.2 318.533 Q2085.25 321.89 2085.25 327.677 M2080.99 326.427 Q2080.95 322.932 2079.03 320.848 Q2077.13 318.765 2073.98 318.765 Q2070.41 318.765 2068.26 320.779 Q2066.13 322.793 2065.81 326.45 L2080.99 326.427 Z" fill="#000000" fill-rule="nonzero" fill-opacity="1"></path><path clip-path="url(#clip500)" d="M2122.34 319.76 Q2121.62 319.344 2120.76 319.158 Q2119.93 318.95 2118.91 318.95 Q2115.3 318.95 2113.35 321.311 Q2111.43 323.649 2111.43 328.047 L2111.43 341.705 L2107.15 341.705 L2107.15 315.779 L2111.43 315.779 L2111.43 319.807 Q2112.78 317.446 2114.93 316.311 Q2117.08 315.154 2120.16 315.154 Q2120.6 315.154 2121.13 315.223 Q2121.66 315.27 2122.31 315.385 L2122.34 319.76 Z" fill="#000000" fill-rule="nonzero" fill-opacity="1"></path><path clip-path="url(#clip500)" d="M2138.59 328.672 Q2133.42 328.672 2131.43 329.853 Q2129.44 331.033 2129.44 333.881 Q2129.44 336.149 2130.92 337.492 Q2132.43 338.811 2135 338.811 Q2138.54 338.811 2140.67 336.311 Q2142.82 333.788 2142.82 329.621 L2142.82 328.672 L2138.59 328.672 M2147.08 326.913 L2147.08 341.705 L2142.82 341.705 L2142.82 337.769 Q2141.36 340.131 2139.19 341.265 Q2137.01 342.376 2133.86 342.376 Q2129.88 342.376 2127.52 340.154 Q2125.18 337.908 2125.18 334.158 Q2125.18 329.783 2128.1 327.561 Q2131.04 325.339 2136.85 325.339 L2142.82 325.339 L2142.82 324.922 Q2142.82 321.983 2140.88 320.385 Q2138.96 318.765 2135.46 318.765 Q2133.24 318.765 2131.13 319.297 Q2129.03 319.83 2127.08 320.895 L2127.08 316.959 Q2129.42 316.057 2131.62 315.617 Q2133.82 315.154 2135.9 315.154 Q2141.53 315.154 2144.3 318.071 Q2147.08 320.987 2147.08 326.913 Z" fill="#000000" fill-rule="nonzero" fill-opacity="1"></path><path clip-path="url(#clip500)" d="M2153.38 315.779 L2157.64 315.779 L2162.96 336.01 L2168.26 315.779 L2173.28 315.779 L2178.61 336.01 L2183.91 315.779 L2188.17 315.779 L2181.39 341.705 L2176.36 341.705 L2170.78 320.455 L2165.18 341.705 L2160.16 341.705 L2153.38 315.779 Z" fill="#000000" fill-rule="nonzero" fill-opacity="1"></path><polyline clip-path="url(#clip500)" style="stroke:#008000; stroke-linecap:round; stroke-linejoin:round; stroke-width:4; stroke-opacity:1; fill:none" points="1752.57,376.265 1891.91,376.265 "></polyline>
<path clip-path="url(#clip500)" d="M1933.56 368.383 L1933.56 372.411 Q1931.76 371.485 1929.81 371.022 Q1927.87 370.559 1925.79 370.559 Q1922.61 370.559 1921.02 371.531 Q1919.44 372.503 1919.44 374.448 Q1919.44 375.929 1920.58 376.785 Q1921.71 377.619 1925.14 378.383 L1926.6 378.707 Q1931.13 379.679 1933.03 381.461 Q1934.95 383.221 1934.95 386.392 Q1934.95 390.003 1932.08 392.109 Q1929.23 394.216 1924.23 394.216 Q1922.15 394.216 1919.88 393.799 Q1917.64 393.406 1915.14 392.596 L1915.14 388.197 Q1917.5 389.424 1919.79 390.049 Q1922.08 390.651 1924.33 390.651 Q1927.34 390.651 1928.96 389.633 Q1930.58 388.591 1930.58 386.716 Q1930.58 384.98 1929.4 384.054 Q1928.24 383.128 1924.28 382.272 L1922.8 381.924 Q1918.84 381.091 1917.08 379.378 Q1915.32 377.642 1915.32 374.633 Q1915.32 370.975 1917.92 368.985 Q1920.51 366.994 1925.28 366.994 Q1927.64 366.994 1929.72 367.341 Q1931.8 367.688 1933.56 368.383 Z" fill="#000000" fill-rule="nonzero" fill-opacity="1"></path><path clip-path="url(#clip500)" d="M1941.29 383.313 L1941.29 367.619 L1945.55 367.619 L1945.55 383.151 Q1945.55 386.832 1946.99 388.684 Q1948.42 390.512 1951.29 390.512 Q1954.74 390.512 1956.73 388.313 Q1958.75 386.114 1958.75 382.318 L1958.75 367.619 L1963.01 367.619 L1963.01 393.545 L1958.75 393.545 L1958.75 389.563 Q1957.2 391.924 1955.14 393.082 Q1953.1 394.216 1950.39 394.216 Q1945.92 394.216 1943.61 391.438 Q1941.29 388.66 1941.29 383.313 M1952.01 366.994 L1952.01 366.994 Z" fill="#000000" fill-rule="nonzero" fill-opacity="1"></path><path clip-path="url(#clip500)" d="M1986.8 371.6 Q1986.09 371.184 1985.23 370.998 Q1984.4 370.79 1983.38 370.79 Q1979.77 370.79 1977.82 373.151 Q1975.9 375.489 1975.9 379.887 L1975.9 393.545 L1971.62 393.545 L1971.62 367.619 L1975.9 367.619 L1975.9 371.647 Q1977.24 369.286 1979.4 368.151 Q1981.55 366.994 1984.63 366.994 Q1985.07 366.994 1985.6 367.063 Q1986.13 367.11 1986.78 367.225 L1986.8 371.6 Z" fill="#000000" fill-rule="nonzero" fill-opacity="1"></path><path clip-path="url(#clip500)" d="M2004.4 357.526 L2004.4 361.068 L2000.32 361.068 Q1998.03 361.068 1997.13 361.994 Q1996.25 362.92 1996.25 365.327 L1996.25 367.619 L2003.26 367.619 L2003.26 370.929 L1996.25 370.929 L1996.25 393.545 L1991.97 393.545 L1991.97 370.929 L1987.89 370.929 L1987.89 367.619 L1991.97 367.619 L1991.97 365.813 Q1991.97 361.485 1993.98 359.517 Q1995.99 357.526 2000.37 357.526 L2004.4 357.526 Z" fill="#000000" fill-rule="nonzero" fill-opacity="1"></path><path clip-path="url(#clip500)" d="M2019.74 380.512 Q2014.58 380.512 2012.59 381.693 Q2010.6 382.873 2010.6 385.721 Q2010.6 387.989 2012.08 389.332 Q2013.59 390.651 2016.16 390.651 Q2019.7 390.651 2021.83 388.151 Q2023.98 385.628 2023.98 381.461 L2023.98 380.512 L2019.74 380.512 M2028.24 378.753 L2028.24 393.545 L2023.98 393.545 L2023.98 389.609 Q2022.52 391.971 2020.35 393.105 Q2018.17 394.216 2015.02 394.216 Q2011.04 394.216 2008.68 391.994 Q2006.34 389.748 2006.34 385.998 Q2006.34 381.623 2009.26 379.401 Q2012.2 377.179 2018.01 377.179 L2023.98 377.179 L2023.98 376.762 Q2023.98 373.823 2022.04 372.225 Q2020.11 370.605 2016.62 370.605 Q2014.4 370.605 2012.29 371.137 Q2010.18 371.67 2008.24 372.735 L2008.24 368.799 Q2010.58 367.897 2012.78 367.457 Q2014.97 366.994 2017.06 366.994 Q2022.68 366.994 2025.46 369.911 Q2028.24 372.827 2028.24 378.753 Z" fill="#000000" fill-rule="nonzero" fill-opacity="1"></path><path clip-path="url(#clip500)" d="M2055.67 368.614 L2055.67 372.596 Q2053.86 371.6 2052.03 371.114 Q2050.23 370.605 2048.38 370.605 Q2044.23 370.605 2041.94 373.244 Q2039.65 375.86 2039.65 380.605 Q2039.65 385.35 2041.94 387.989 Q2044.23 390.605 2048.38 390.605 Q2050.23 390.605 2052.03 390.119 Q2053.86 389.609 2055.67 388.614 L2055.67 392.549 Q2053.89 393.383 2051.97 393.799 Q2050.07 394.216 2047.91 394.216 Q2042.06 394.216 2038.61 390.535 Q2035.16 386.855 2035.16 380.605 Q2035.16 374.262 2038.63 370.628 Q2042.13 366.994 2048.19 366.994 Q2050.16 366.994 2052.03 367.411 Q2053.91 367.804 2055.67 368.614 Z" fill="#000000" fill-rule="nonzero" fill-opacity="1"></path><path clip-path="url(#clip500)" d="M2085.25 379.517 L2085.25 381.6 L2065.67 381.6 Q2065.95 385.998 2068.31 388.313 Q2070.69 390.605 2074.93 390.605 Q2077.38 390.605 2079.67 390.003 Q2081.99 389.401 2084.26 388.197 L2084.26 392.225 Q2081.97 393.197 2079.56 393.707 Q2077.15 394.216 2074.67 394.216 Q2068.47 394.216 2064.84 390.605 Q2061.22 386.994 2061.22 380.836 Q2061.22 374.471 2064.65 370.744 Q2068.1 366.994 2073.93 366.994 Q2079.16 366.994 2082.2 370.373 Q2085.25 373.73 2085.25 379.517 M2080.99 378.267 Q2080.95 374.772 2079.03 372.688 Q2077.13 370.605 2073.98 370.605 Q2070.41 370.605 2068.26 372.619 Q2066.13 374.633 2065.81 378.29 L2080.99 378.267 Z" fill="#000000" fill-rule="nonzero" fill-opacity="1"></path><path clip-path="url(#clip500)" d="M2107.31 367.619 L2111.57 367.619 L2111.57 393.545 L2107.31 393.545 L2107.31 367.619 M2107.31 357.526 L2111.57 357.526 L2111.57 362.92 L2107.31 362.92 L2107.31 357.526 Z" fill="#000000" fill-rule="nonzero" fill-opacity="1"></path><path clip-path="url(#clip500)" d="M2142.03 377.897 L2142.03 393.545 L2137.78 393.545 L2137.78 378.035 Q2137.78 374.355 2136.34 372.526 Q2134.9 370.698 2132.03 370.698 Q2128.59 370.698 2126.59 372.897 Q2124.6 375.096 2124.6 378.892 L2124.6 393.545 L2120.32 393.545 L2120.32 367.619 L2124.6 367.619 L2124.6 371.647 Q2126.13 369.309 2128.19 368.151 Q2130.28 366.994 2132.98 366.994 Q2137.45 366.994 2139.74 369.772 Q2142.03 372.526 2142.03 377.897 Z" fill="#000000" fill-rule="nonzero" fill-opacity="1"></path><path clip-path="url(#clip500)" d="M2150.53 367.619 L2154.79 367.619 L2154.79 393.545 L2150.53 393.545 L2150.53 367.619 M2150.53 357.526 L2154.79 357.526 L2154.79 362.92 L2150.53 362.92 L2150.53 357.526 Z" fill="#000000" fill-rule="nonzero" fill-opacity="1"></path><path clip-path="url(#clip500)" d="M2167.91 360.258 L2167.91 367.619 L2176.69 367.619 L2176.69 370.929 L2167.91 370.929 L2167.91 385.003 Q2167.91 388.174 2168.77 389.077 Q2169.65 389.98 2172.31 389.98 L2176.69 389.98 L2176.69 393.545 L2172.31 393.545 Q2167.38 393.545 2165.51 391.716 Q2163.63 389.864 2163.63 385.003 L2163.63 370.929 L2160.51 370.929 L2160.51 367.619 L2163.63 367.619 L2163.63 360.258 L2167.91 360.258 Z" fill="#000000" fill-rule="nonzero" fill-opacity="1"></path><path clip-path="url(#clip500)" d="M2182.29 367.619 L2186.55 367.619 L2186.55 393.545 L2182.29 393.545 L2182.29 367.619 M2182.29 357.526 L2186.55 357.526 L2186.55 362.92 L2182.29 362.92 L2182.29 357.526 Z" fill="#000000" fill-rule="nonzero" fill-opacity="1"></path><path clip-path="url(#clip500)" d="M2207.24 380.512 Q2202.08 380.512 2200.09 381.693 Q2198.1 382.873 2198.1 385.721 Q2198.1 387.989 2199.58 389.332 Q2201.09 390.651 2203.65 390.651 Q2207.2 390.651 2209.33 388.151 Q2211.48 385.628 2211.48 381.461 L2211.48 380.512 L2207.24 380.512 M2215.74 378.753 L2215.74 393.545 L2211.48 393.545 L2211.48 389.609 Q2210.02 391.971 2207.84 393.105 Q2205.67 394.216 2202.52 394.216 Q2198.54 394.216 2196.18 391.994 Q2193.84 389.748 2193.84 385.998 Q2193.84 381.623 2196.76 379.401 Q2199.7 377.179 2205.51 377.179 L2211.48 377.179 L2211.48 376.762 Q2211.48 373.823 2209.53 372.225 Q2207.61 370.605 2204.12 370.605 Q2201.9 370.605 2199.79 371.137 Q2197.68 371.67 2195.74 372.735 L2195.74 368.799 Q2198.08 367.897 2200.27 367.457 Q2202.47 366.994 2204.56 366.994 Q2210.18 366.994 2212.96 369.911 Q2215.74 372.827 2215.74 378.753 Z" fill="#000000" fill-rule="nonzero" fill-opacity="1"></path><path clip-path="url(#clip500)" d="M2224.51 357.526 L2228.77 357.526 L2228.77 393.545 L2224.51 393.545 L2224.51 357.526 Z" fill="#000000" fill-rule="nonzero" fill-opacity="1"></path><path clip-path="url(#clip500)" d="M2259.86 379.517 L2259.86 381.6 L2240.27 381.6 Q2240.55 385.998 2242.91 388.313 Q2245.3 390.605 2249.53 390.605 Q2251.99 390.605 2254.28 390.003 Q2256.59 389.401 2258.86 388.197 L2258.86 392.225 Q2256.57 393.197 2254.16 393.707 Q2251.76 394.216 2249.28 394.216 Q2243.08 394.216 2239.44 390.605 Q2235.83 386.994 2235.83 380.836 Q2235.83 374.471 2239.26 370.744 Q2242.71 366.994 2248.54 366.994 Q2253.77 366.994 2256.8 370.373 Q2259.86 373.73 2259.86 379.517 M2255.6 378.267 Q2255.55 374.772 2253.63 372.688 Q2251.73 370.605 2248.58 370.605 Q2245.02 370.605 2242.87 372.619 Q2240.74 374.633 2240.41 378.29 L2255.6 378.267 Z" fill="#000000" fill-rule="nonzero" fill-opacity="1"></path><polyline clip-path="url(#clip500)" style="stroke:#000000; stroke-linecap:round; stroke-linejoin:round; stroke-width:4; stroke-opacity:1; fill:none" stroke-dasharray="16, 10" points="1752.57,428.105 1891.91,428.105 "></polyline>
<path clip-path="url(#clip500)" d="M1933.56 420.223 L1933.56 424.251 Q1931.76 423.325 1929.81 422.862 Q1927.87 422.399 1925.79 422.399 Q1922.61 422.399 1921.02 423.371 Q1919.44 424.343 1919.44 426.288 Q1919.44 427.769 1920.58 428.625 Q1921.71 429.459 1925.14 430.223 L1926.6 430.547 Q1931.13 431.519 1933.03 433.301 Q1934.95 435.061 1934.95 438.232 Q1934.95 441.843 1932.08 443.949 Q1929.23 446.056 1924.23 446.056 Q1922.15 446.056 1919.88 445.639 Q1917.64 445.246 1915.14 444.436 L1915.14 440.037 Q1917.5 441.264 1919.79 441.889 Q1922.08 442.491 1924.33 442.491 Q1927.34 442.491 1928.96 441.473 Q1930.58 440.431 1930.58 438.556 Q1930.58 436.82 1929.4 435.894 Q1928.24 434.968 1924.28 434.112 L1922.8 433.764 Q1918.84 432.931 1917.08 431.218 Q1915.32 429.482 1915.32 426.473 Q1915.32 422.815 1917.92 420.825 Q1920.51 418.834 1925.28 418.834 Q1927.64 418.834 1929.72 419.181 Q1931.8 419.528 1933.56 420.223 Z" fill="#000000" fill-rule="nonzero" fill-opacity="1"></path><path clip-path="url(#clip500)" d="M1941.29 435.153 L1941.29 419.459 L1945.55 419.459 L1945.55 434.991 Q1945.55 438.672 1946.99 440.524 Q1948.42 442.352 1951.29 442.352 Q1954.74 442.352 1956.73 440.153 Q1958.75 437.954 1958.75 434.158 L1958.75 419.459 L1963.01 419.459 L1963.01 445.385 L1958.75 445.385 L1958.75 441.403 Q1957.2 443.764 1955.14 444.922 Q1953.1 446.056 1950.39 446.056 Q1945.92 446.056 1943.61 443.278 Q1941.29 440.5 1941.29 435.153 M1952.01 418.834 L1952.01 418.834 Z" fill="#000000" fill-rule="nonzero" fill-opacity="1"></path><path clip-path="url(#clip500)" d="M1986.8 423.44 Q1986.09 423.024 1985.23 422.838 Q1984.4 422.63 1983.38 422.63 Q1979.77 422.63 1977.82 424.991 Q1975.9 427.329 1975.9 431.727 L1975.9 445.385 L1971.62 445.385 L1971.62 419.459 L1975.9 419.459 L1975.9 423.487 Q1977.24 421.126 1979.4 419.991 Q1981.55 418.834 1984.63 418.834 Q1985.07 418.834 1985.6 418.903 Q1986.13 418.95 1986.78 419.065 L1986.8 423.44 Z" fill="#000000" fill-rule="nonzero" fill-opacity="1"></path><path clip-path="url(#clip500)" d="M2004.4 409.366 L2004.4 412.908 L2000.32 412.908 Q1998.03 412.908 1997.13 413.834 Q1996.25 414.76 1996.25 417.167 L1996.25 419.459 L2003.26 419.459 L2003.26 422.769 L1996.25 422.769 L1996.25 445.385 L1991.97 445.385 L1991.97 422.769 L1987.89 422.769 L1987.89 419.459 L1991.97 419.459 L1991.97 417.653 Q1991.97 413.325 1993.98 411.357 Q1995.99 409.366 2000.37 409.366 L2004.4 409.366 Z" fill="#000000" fill-rule="nonzero" fill-opacity="1"></path><path clip-path="url(#clip500)" d="M2019.74 432.352 Q2014.58 432.352 2012.59 433.533 Q2010.6 434.713 2010.6 437.561 Q2010.6 439.829 2012.08 441.172 Q2013.59 442.491 2016.16 442.491 Q2019.7 442.491 2021.83 439.991 Q2023.98 437.468 2023.98 433.301 L2023.98 432.352 L2019.74 432.352 M2028.24 430.593 L2028.24 445.385 L2023.98 445.385 L2023.98 441.449 Q2022.52 443.811 2020.35 444.945 Q2018.17 446.056 2015.02 446.056 Q2011.04 446.056 2008.68 443.834 Q2006.34 441.588 2006.34 437.838 Q2006.34 433.463 2009.26 431.241 Q2012.2 429.019 2018.01 429.019 L2023.98 429.019 L2023.98 428.602 Q2023.98 425.663 2022.04 424.065 Q2020.11 422.445 2016.62 422.445 Q2014.4 422.445 2012.29 422.977 Q2010.18 423.51 2008.24 424.575 L2008.24 420.639 Q2010.58 419.737 2012.78 419.297 Q2014.97 418.834 2017.06 418.834 Q2022.68 418.834 2025.46 421.751 Q2028.24 424.667 2028.24 430.593 Z" fill="#000000" fill-rule="nonzero" fill-opacity="1"></path><path clip-path="url(#clip500)" d="M2055.67 420.454 L2055.67 424.436 Q2053.86 423.44 2052.03 422.954 Q2050.23 422.445 2048.38 422.445 Q2044.23 422.445 2041.94 425.084 Q2039.65 427.7 2039.65 432.445 Q2039.65 437.19 2041.94 439.829 Q2044.23 442.445 2048.38 442.445 Q2050.23 442.445 2052.03 441.959 Q2053.86 441.449 2055.67 440.454 L2055.67 444.389 Q2053.89 445.223 2051.97 445.639 Q2050.07 446.056 2047.91 446.056 Q2042.06 446.056 2038.61 442.375 Q2035.16 438.695 2035.16 432.445 Q2035.16 426.102 2038.63 422.468 Q2042.13 418.834 2048.19 418.834 Q2050.16 418.834 2052.03 419.251 Q2053.91 419.644 2055.67 420.454 Z" fill="#000000" fill-rule="nonzero" fill-opacity="1"></path><path clip-path="url(#clip500)" d="M2085.25 431.357 L2085.25 433.44 L2065.67 433.44 Q2065.95 437.838 2068.31 440.153 Q2070.69 442.445 2074.93 442.445 Q2077.38 442.445 2079.67 441.843 Q2081.99 441.241 2084.26 440.037 L2084.26 444.065 Q2081.97 445.037 2079.56 445.547 Q2077.15 446.056 2074.67 446.056 Q2068.47 446.056 2064.84 442.445 Q2061.22 438.834 2061.22 432.676 Q2061.22 426.311 2064.65 422.584 Q2068.1 418.834 2073.93 418.834 Q2079.16 418.834 2082.2 422.213 Q2085.25 425.57 2085.25 431.357 M2080.99 430.107 Q2080.95 426.612 2079.03 424.528 Q2077.13 422.445 2073.98 422.445 Q2070.41 422.445 2068.26 424.459 Q2066.13 426.473 2065.81 430.13 L2080.99 430.107 Z" fill="#000000" fill-rule="nonzero" fill-opacity="1"></path><path clip-path="url(#clip500)" d="M2117.36 422.445 Q2113.93 422.445 2111.94 425.13 Q2109.95 427.792 2109.95 432.445 Q2109.95 437.098 2111.92 439.783 Q2113.91 442.445 2117.36 442.445 Q2120.76 442.445 2122.75 439.76 Q2124.74 437.075 2124.74 432.445 Q2124.74 427.838 2122.75 425.153 Q2120.76 422.445 2117.36 422.445 M2117.36 418.834 Q2122.91 418.834 2126.09 422.445 Q2129.26 426.056 2129.26 432.445 Q2129.26 438.811 2126.09 442.445 Q2122.91 446.056 2117.36 446.056 Q2111.78 446.056 2108.61 442.445 Q2105.46 438.811 2105.46 432.445 Q2105.46 426.056 2108.61 422.445 Q2111.78 418.834 2117.36 418.834 Z" fill="#000000" fill-rule="nonzero" fill-opacity="1"></path><path clip-path="url(#clip500)" d="M2153.38 432.121 Q2153.38 427.491 2151.46 424.945 Q2149.56 422.399 2146.11 422.399 Q2142.68 422.399 2140.76 424.945 Q2138.86 427.491 2138.86 432.121 Q2138.86 436.727 2140.76 439.274 Q2142.68 441.82 2146.11 441.82 Q2149.56 441.82 2151.46 439.274 Q2153.38 436.727 2153.38 432.121 M2157.64 442.167 Q2157.64 448.787 2154.7 452.005 Q2151.76 455.246 2145.69 455.246 Q2143.45 455.246 2141.46 454.898 Q2139.47 454.574 2137.59 453.88 L2137.59 449.736 Q2139.47 450.755 2141.29 451.241 Q2143.12 451.727 2145.02 451.727 Q2149.21 451.727 2151.29 449.528 Q2153.38 447.352 2153.38 442.931 L2153.38 440.824 Q2152.06 443.116 2150 444.25 Q2147.94 445.385 2145.07 445.385 Q2140.3 445.385 2137.38 441.75 Q2134.47 438.116 2134.47 432.121 Q2134.47 426.102 2137.38 422.468 Q2140.3 418.834 2145.07 418.834 Q2147.94 418.834 2150 419.968 Q2152.06 421.102 2153.38 423.394 L2153.38 419.459 L2157.64 419.459 L2157.64 442.167 Z" fill="#000000" fill-rule="nonzero" fill-opacity="1"></path><path clip-path="url(#clip500)" d="M2183.47 432.121 Q2183.47 427.491 2181.55 424.945 Q2179.65 422.399 2176.2 422.399 Q2172.78 422.399 2170.85 424.945 Q2168.96 427.491 2168.96 432.121 Q2168.96 436.727 2170.85 439.274 Q2172.78 441.82 2176.2 441.82 Q2179.65 441.82 2181.55 439.274 Q2183.47 436.727 2183.47 432.121 M2187.73 442.167 Q2187.73 448.787 2184.79 452.005 Q2181.85 455.246 2175.78 455.246 Q2173.54 455.246 2171.55 454.898 Q2169.56 454.574 2167.68 453.88 L2167.68 449.736 Q2169.56 450.755 2171.39 451.241 Q2173.21 451.727 2175.11 451.727 Q2179.3 451.727 2181.39 449.528 Q2183.47 447.352 2183.47 442.931 L2183.47 440.824 Q2182.15 443.116 2180.09 444.25 Q2178.03 445.385 2175.16 445.385 Q2170.39 445.385 2167.47 441.75 Q2164.56 438.116 2164.56 432.121 Q2164.56 426.102 2167.47 422.468 Q2170.39 418.834 2175.16 418.834 Q2178.03 418.834 2180.09 419.968 Q2182.15 421.102 2183.47 423.394 L2183.47 419.459 L2187.73 419.459 L2187.73 442.167 Z" fill="#000000" fill-rule="nonzero" fill-opacity="1"></path><path clip-path="url(#clip500)" d="M2216.69 424.436 Q2218.28 421.565 2220.51 420.2 Q2222.73 418.834 2225.74 418.834 Q2229.79 418.834 2231.99 421.681 Q2234.19 424.505 2234.19 429.737 L2234.19 445.385 L2229.9 445.385 L2229.9 429.875 Q2229.9 426.149 2228.58 424.343 Q2227.27 422.538 2224.56 422.538 Q2221.25 422.538 2219.33 424.737 Q2217.4 426.936 2217.4 430.732 L2217.4 445.385 L2213.12 445.385 L2213.12 429.875 Q2213.12 426.125 2211.8 424.343 Q2210.48 422.538 2207.73 422.538 Q2204.46 422.538 2202.54 424.76 Q2200.62 426.959 2200.62 430.732 L2200.62 445.385 L2196.34 445.385 L2196.34 419.459 L2200.62 419.459 L2200.62 423.487 Q2202.08 421.102 2204.12 419.968 Q2206.15 418.834 2208.96 418.834 Q2211.78 418.834 2213.75 420.269 Q2215.74 421.704 2216.69 424.436 Z" fill="#000000" fill-rule="nonzero" fill-opacity="1"></path></svg>