<svg xmlns="http://www.w3.org/2000/svg" xmlns:xlink="http://www.w3.org/1999/xlink" width="600" height="400" viewBox="0 0 2400 1600">
<defs>
  <clipPath id="clip020">
    <rect x="0" y="0" width="2400" height="1600"></rect>
  </clipPath>
</defs>
<path clip-path="url(#clip020)" d="M0 1600 L2400 1600 L2400 0 L0 0  Z" fill="#f8f8ff" fill-rule="evenodd" fill-opacity="1"></path>
<defs>
  <clipPath id="clip021">
    <rect x="480" y="0" width="1681" height="1600"></rect>
  </clipPath>
</defs>
<path clip-path="url(#clip020)" d="M265.445 1486.45 L2352.76 1486.45 L2352.76 123.472 L265.445 123.472  Z" fill="#f8f8ff" fill-rule="evenodd" fill-opacity="1"></path>
<defs>
  <clipPath id="clip022">
    <rect x="265" y="123" width="2088" height="1364"></rect>
  </clipPath>
</defs>
<polyline clip-path="url(#clip022)" style="stroke:#000000; stroke-linecap:round; stroke-linejoin:round; stroke-width:2; stroke-opacity:0.1; fill:none" points="297.909,1486.45 297.909,123.472 "></polyline>
<polyline clip-path="url(#clip022)" style="stroke:#000000; stroke-linecap:round; stroke-linejoin:round; stroke-width:2; stroke-opacity:0.1; fill:none" points="830.115,1486.45 830.115,123.472 "></polyline>
<polyline clip-path="url(#clip022)" style="stroke:#000000; stroke-linecap:round; stroke-linejoin:round; stroke-width:2; stroke-opacity:0.1; fill:none" points="1362.32,1486.45 1362.32,123.472 "></polyline>
<polyline clip-path="url(#clip022)" style="stroke:#000000; stroke-linecap:round; stroke-linejoin:round; stroke-width:2; stroke-opacity:0.1; fill:none" points="1894.53,1486.45 1894.53,123.472 "></polyline>
<polyline clip-path="url(#clip020)" style="stroke:#000000; stroke-linecap:round; stroke-linejoin:round; stroke-width:4; stroke-opacity:1; fill:none" points="265.445,1486.45 2352.76,1486.45 "></polyline>
<polyline clip-path="url(#clip020)" style="stroke:#000000; stroke-linecap:round; stroke-linejoin:round; stroke-width:4; stroke-opacity:1; fill:none" points="297.909,1486.45 297.909,1467.55 "></polyline>
<polyline clip-path="url(#clip020)" style="stroke:#000000; stroke-linecap:round; stroke-linejoin:round; stroke-width:4; stroke-opacity:1; fill:none" points="830.115,1486.45 830.115,1467.55 "></polyline>
<polyline clip-path="url(#clip020)" style="stroke:#000000; stroke-linecap:round; stroke-linejoin:round; stroke-width:4; stroke-opacity:1; fill:none" points="1362.32,1486.45 1362.32,1467.55 "></polyline>
<polyline clip-path="url(#clip020)" style="stroke:#000000; stroke-linecap:round; stroke-linejoin:round; stroke-width:4; stroke-opacity:1; fill:none" points="1894.53,1486.45 1894.53,1467.55 "></polyline>
<path clip-path="url(#clip020)" d="M297.909 1517.37 Q294.298 1517.37 292.469 1520.93 Q290.664 1524.47 290.664 1531.6 Q290.664 1538.71 292.469 1542.27 Q294.298 1545.82 297.909 1545.82 Q301.544 1545.82 303.349 1542.27 Q305.178 1538.71 305.178 1531.6 Q305.178 1524.47 303.349 1520.93 Q301.544 1517.37 297.909 1517.37 M297.909 1513.66 Q303.719 1513.66 306.775 1518.27 Q309.854 1522.85 309.854 1531.6 Q309.854 1540.33 306.775 1544.94 Q303.719 1549.52 297.909 1549.52 Q292.099 1549.52 289.02 1544.94 Q285.965 1540.33 285.965 1531.6 Q285.965 1522.85 289.02 1518.27 Q292.099 1513.66 297.909 1513.66 Z" fill="#000000" fill-rule="nonzero" fill-opacity="1"></path><path clip-path="url(#clip020)" d="M808.888 1544.91 L825.208 1544.91 L825.208 1548.85 L803.263 1548.85 L803.263 1544.91 Q805.925 1542.16 810.509 1537.53 Q815.115 1532.88 816.296 1531.53 Q818.541 1529.01 819.421 1527.27 Q820.323 1525.51 820.323 1523.82 Q820.323 1521.07 818.379 1519.33 Q816.458 1517.6 813.356 1517.6 Q811.157 1517.6 808.703 1518.36 Q806.273 1519.13 803.495 1520.68 L803.495 1515.95 Q806.319 1514.82 808.773 1514.24 Q811.226 1513.66 813.263 1513.66 Q818.634 1513.66 821.828 1516.35 Q825.023 1519.03 825.023 1523.52 Q825.023 1525.65 824.212 1527.57 Q823.425 1529.47 821.319 1532.07 Q820.74 1532.74 817.638 1535.95 Q814.536 1539.15 808.888 1544.91 Z" fill="#000000" fill-rule="nonzero" fill-opacity="1"></path><path clip-path="url(#clip020)" d="M845.022 1517.37 Q841.411 1517.37 839.583 1520.93 Q837.777 1524.47 837.777 1531.6 Q837.777 1538.71 839.583 1542.27 Q841.411 1545.82 845.022 1545.82 Q848.657 1545.82 850.462 1542.27 Q852.291 1538.71 852.291 1531.6 Q852.291 1524.47 850.462 1520.93 Q848.657 1517.37 845.022 1517.37 M845.022 1513.66 Q850.833 1513.66 853.888 1518.27 Q856.967 1522.85 856.967 1531.6 Q856.967 1540.33 853.888 1544.94 Q850.833 1549.52 845.022 1549.52 Q839.212 1549.52 836.134 1544.94 Q833.078 1540.33 833.078 1531.6 Q833.078 1522.85 836.134 1518.27 Q839.212 1513.66 845.022 1513.66 Z" fill="#000000" fill-rule="nonzero" fill-opacity="1"></path><path clip-path="url(#clip020)" d="M1350.49 1518.36 L1338.69 1536.81 L1350.49 1536.81 L1350.49 1518.36 M1349.27 1514.29 L1355.15 1514.29 L1355.15 1536.81 L1360.08 1536.81 L1360.08 1540.7 L1355.15 1540.7 L1355.15 1548.85 L1350.49 1548.85 L1350.49 1540.7 L1334.89 1540.7 L1334.89 1536.19 L1349.27 1514.29 Z" fill="#000000" fill-rule="nonzero" fill-opacity="1"></path><path clip-path="url(#clip020)" d="M1377.81 1517.37 Q1374.2 1517.37 1372.37 1520.93 Q1370.56 1524.47 1370.56 1531.6 Q1370.56 1538.71 1372.37 1542.27 Q1374.2 1545.82 1377.81 1545.82 Q1381.44 1545.82 1383.25 1542.27 Q1385.08 1538.71 1385.08 1531.6 Q1385.08 1524.47 1383.25 1520.93 Q1381.44 1517.37 1377.81 1517.37 M1377.81 1513.66 Q1383.62 1513.66 1386.67 1518.27 Q1389.75 1522.85 1389.75 1531.6 Q1389.75 1540.33 1386.67 1544.94 Q1383.62 1549.52 1377.81 1549.52 Q1372 1549.52 1368.92 1544.94 Q1365.86 1540.33 1365.86 1531.6 Q1365.86 1522.85 1368.92 1518.27 Q1372 1513.66 1377.81 1513.66 Z" fill="#000000" fill-rule="nonzero" fill-opacity="1"></path><path clip-path="url(#clip020)" d="M1879.93 1529.7 Q1876.78 1529.7 1874.93 1531.86 Q1873.1 1534.01 1873.1 1537.76 Q1873.1 1541.49 1874.93 1543.66 Q1876.78 1545.82 1879.93 1545.82 Q1883.08 1545.82 1884.91 1543.66 Q1886.76 1541.49 1886.76 1537.76 Q1886.76 1534.01 1884.91 1531.86 Q1883.08 1529.7 1879.93 1529.7 M1889.21 1515.05 L1889.21 1519.31 Q1887.45 1518.48 1885.65 1518.04 Q1883.87 1517.6 1882.11 1517.6 Q1877.48 1517.6 1875.02 1520.72 Q1872.59 1523.85 1872.25 1530.17 Q1873.61 1528.15 1875.67 1527.09 Q1877.73 1526 1880.21 1526 Q1885.42 1526 1888.43 1529.17 Q1891.46 1532.32 1891.46 1537.76 Q1891.46 1543.08 1888.31 1546.3 Q1885.16 1549.52 1879.93 1549.52 Q1873.94 1549.52 1870.77 1544.94 Q1867.59 1540.33 1867.59 1531.6 Q1867.59 1523.41 1871.48 1518.55 Q1875.37 1513.66 1881.92 1513.66 Q1883.68 1513.66 1885.46 1514.01 Q1887.27 1514.36 1889.21 1515.05 Z" fill="#000000" fill-rule="nonzero" fill-opacity="1"></path><path clip-path="url(#clip020)" d="M1909.52 1517.37 Q1905.9 1517.37 1904.08 1520.93 Q1902.27 1524.47 1902.27 1531.6 Q1902.27 1538.71 1904.08 1542.27 Q1905.9 1545.82 1909.52 1545.82 Q1913.15 1545.82 1914.95 1542.27 Q1916.78 1538.71 1916.78 1531.6 Q1916.78 1524.47 1914.95 1520.93 Q1913.15 1517.37 1909.52 1517.37 M1909.52 1513.66 Q1915.33 1513.66 1918.38 1518.27 Q1921.46 1522.85 1921.46 1531.6 Q1921.46 1540.33 1918.38 1544.94 Q1915.33 1549.52 1909.52 1549.52 Q1903.7 1549.52 1900.63 1544.94 Q1897.57 1540.33 1897.57 1531.6 Q1897.57 1522.85 1900.63 1518.27 Q1903.7 1513.66 1909.52 1513.66 Z" fill="#000000" fill-rule="nonzero" fill-opacity="1"></path><polyline clip-path="url(#clip022)" style="stroke:#000000; stroke-linecap:round; stroke-linejoin:round; stroke-width:2; stroke-opacity:0.1; fill:none" points="265.445,1453.73 2352.76,1453.73 "></polyline>
<polyline clip-path="url(#clip022)" style="stroke:#000000; stroke-linecap:round; stroke-linejoin:round; stroke-width:2; stroke-opacity:0.1; fill:none" points="265.445,1156.95 2352.76,1156.95 "></polyline>
<polyline clip-path="url(#clip022)" style="stroke:#000000; stroke-linecap:round; stroke-linejoin:round; stroke-width:2; stroke-opacity:0.1; fill:none" points="265.445,860.172 2352.76,860.172 "></polyline>
<polyline clip-path="url(#clip022)" style="stroke:#000000; stroke-linecap:round; stroke-linejoin:round; stroke-width:2; stroke-opacity:0.1; fill:none" points="265.445,563.393 2352.76,563.393 "></polyline>
<polyline clip-path="url(#clip022)" style="stroke:#000000; stroke-linecap:round; stroke-linejoin:round; stroke-width:2; stroke-opacity:0.1; fill:none" points="265.445,266.614 2352.76,266.614 "></polyline>
<polyline clip-path="url(#clip020)" style="stroke:#000000; stroke-linecap:round; stroke-linejoin:round; stroke-width:4; stroke-opacity:1; fill:none" points="265.445,1486.45 265.445,123.472 "></polyline>
<polyline clip-path="url(#clip020)" style="stroke:#000000; stroke-linecap:round; stroke-linejoin:round; stroke-width:4; stroke-opacity:1; fill:none" points="265.445,1453.73 284.342,1453.73 "></polyline>
<polyline clip-path="url(#clip020)" style="stroke:#000000; stroke-linecap:round; stroke-linejoin:round; stroke-width:4; stroke-opacity:1; fill:none" points="265.445,1156.95 284.342,1156.95 "></polyline>
<polyline clip-path="url(#clip020)" style="stroke:#000000; stroke-linecap:round; stroke-linejoin:round; stroke-width:4; stroke-opacity:1; fill:none" points="265.445,860.172 284.342,860.172 "></polyline>
<polyline clip-path="url(#clip020)" style="stroke:#000000; stroke-linecap:round; stroke-linejoin:round; stroke-width:4; stroke-opacity:1; fill:none" points="265.445,563.393 284.342,563.393 "></polyline>
<polyline clip-path="url(#clip020)" style="stroke:#000000; stroke-linecap:round; stroke-linejoin:round; stroke-width:4; stroke-opacity:1; fill:none" points="265.445,266.614 284.342,266.614 "></polyline>
<path clip-path="url(#clip020)" d="M131.181 1452.38 Q134.538 1453.09 136.413 1455.36 Q138.311 1457.63 138.311 1460.96 Q138.311 1466.08 134.792 1468.88 Q131.274 1471.68 124.793 1471.68 Q122.617 1471.68 120.302 1471.24 Q118.01 1470.82 115.556 1469.97 L115.556 1465.45 Q117.501 1466.59 119.816 1467.17 Q122.13 1467.75 124.654 1467.75 Q129.052 1467.75 131.343 1466.01 Q133.658 1464.27 133.658 1460.96 Q133.658 1457.91 131.505 1456.19 Q129.376 1454.46 125.556 1454.46 L121.529 1454.46 L121.529 1450.62 L125.742 1450.62 Q129.191 1450.62 131.019 1449.25 Q132.848 1447.86 132.848 1445.27 Q132.848 1442.61 130.95 1441.19 Q129.075 1439.76 125.556 1439.76 Q123.635 1439.76 121.436 1440.18 Q119.237 1440.59 116.598 1441.47 L116.598 1437.31 Q119.26 1436.57 121.575 1436.2 Q123.913 1435.82 125.973 1435.82 Q131.297 1435.82 134.399 1438.26 Q137.501 1440.66 137.501 1444.78 Q137.501 1447.65 135.857 1449.64 Q134.214 1451.61 131.181 1452.38 Z" fill="#000000" fill-rule="nonzero" fill-opacity="1"></path><path clip-path="url(#clip020)" d="M147.223 1436.45 L165.579 1436.45 L165.579 1440.38 L151.505 1440.38 L151.505 1448.86 Q152.524 1448.51 153.542 1448.35 Q154.561 1448.16 155.579 1448.16 Q161.366 1448.16 164.746 1451.33 Q168.126 1454.51 168.126 1459.92 Q168.126 1465.5 164.653 1468.6 Q161.181 1471.68 154.862 1471.68 Q152.686 1471.68 150.417 1471.31 Q148.172 1470.94 145.765 1470.2 L145.765 1465.5 Q147.848 1466.63 150.07 1467.19 Q152.292 1467.75 154.769 1467.75 Q158.774 1467.75 161.112 1465.64 Q163.45 1463.53 163.45 1459.92 Q163.45 1456.31 161.112 1454.2 Q158.774 1452.1 154.769 1452.1 Q152.894 1452.1 151.019 1452.51 Q149.167 1452.93 147.223 1453.81 L147.223 1436.45 Z" fill="#000000" fill-rule="nonzero" fill-opacity="1"></path><path clip-path="url(#clip020)" d="M187.338 1439.53 Q183.727 1439.53 181.899 1443.09 Q180.093 1446.63 180.093 1453.76 Q180.093 1460.87 181.899 1464.44 Q183.727 1467.98 187.338 1467.98 Q190.973 1467.98 192.778 1464.44 Q194.607 1460.87 194.607 1453.76 Q194.607 1446.63 192.778 1443.09 Q190.973 1439.53 187.338 1439.53 M187.338 1435.82 Q193.149 1435.82 196.204 1440.43 Q199.283 1445.01 199.283 1453.76 Q199.283 1462.49 196.204 1467.1 Q193.149 1471.68 187.338 1471.68 Q181.528 1471.68 178.45 1467.1 Q175.394 1462.49 175.394 1453.76 Q175.394 1445.01 178.45 1440.43 Q181.528 1435.82 187.338 1435.82 Z" fill="#000000" fill-rule="nonzero" fill-opacity="1"></path><path clip-path="url(#clip020)" d="M217.5 1439.53 Q213.889 1439.53 212.061 1443.09 Q210.255 1446.63 210.255 1453.76 Q210.255 1460.87 212.061 1464.44 Q213.889 1467.98 217.5 1467.98 Q221.135 1467.98 222.94 1464.44 Q224.769 1460.87 224.769 1453.76 Q224.769 1446.63 222.94 1443.09 Q221.135 1439.53 217.5 1439.53 M217.5 1435.82 Q223.31 1435.82 226.366 1440.43 Q229.445 1445.01 229.445 1453.76 Q229.445 1462.49 226.366 1467.1 Q223.31 1471.68 217.5 1471.68 Q211.69 1471.68 208.612 1467.1 Q205.556 1462.49 205.556 1453.76 Q205.556 1445.01 208.612 1440.43 Q211.69 1435.82 217.5 1435.82 Z" fill="#000000" fill-rule="nonzero" fill-opacity="1"></path><path clip-path="url(#clip020)" d="M129.862 1143.74 L118.056 1162.19 L129.862 1162.19 L129.862 1143.74 M128.635 1139.67 L134.515 1139.67 L134.515 1162.19 L139.445 1162.19 L139.445 1166.08 L134.515 1166.08 L134.515 1174.23 L129.862 1174.23 L129.862 1166.08 L114.26 1166.08 L114.26 1161.57 L128.635 1139.67 Z" fill="#000000" fill-rule="nonzero" fill-opacity="1"></path><path clip-path="url(#clip020)" d="M157.177 1142.75 Q153.566 1142.75 151.737 1146.31 Q149.931 1149.86 149.931 1156.99 Q149.931 1164.09 151.737 1167.66 Q153.566 1171.2 157.177 1171.2 Q160.811 1171.2 162.616 1167.66 Q164.445 1164.09 164.445 1156.99 Q164.445 1149.86 162.616 1146.31 Q160.811 1142.75 157.177 1142.75 M157.177 1139.05 Q162.987 1139.05 166.042 1143.65 Q169.121 1148.24 169.121 1156.99 Q169.121 1165.71 166.042 1170.32 Q162.987 1174.9 157.177 1174.9 Q151.366 1174.9 148.288 1170.32 Q145.232 1165.71 145.232 1156.99 Q145.232 1148.24 148.288 1143.65 Q151.366 1139.05 157.177 1139.05 Z" fill="#000000" fill-rule="nonzero" fill-opacity="1"></path><path clip-path="url(#clip020)" d="M187.338 1142.75 Q183.727 1142.75 181.899 1146.31 Q180.093 1149.86 180.093 1156.99 Q180.093 1164.09 181.899 1167.66 Q183.727 1171.2 187.338 1171.2 Q190.973 1171.2 192.778 1167.66 Q194.607 1164.09 194.607 1156.99 Q194.607 1149.86 192.778 1146.31 Q190.973 1142.75 187.338 1142.75 M187.338 1139.05 Q193.149 1139.05 196.204 1143.65 Q199.283 1148.24 199.283 1156.99 Q199.283 1165.71 196.204 1170.32 Q193.149 1174.9 187.338 1174.9 Q181.528 1174.9 178.45 1170.32 Q175.394 1165.71 175.394 1156.99 Q175.394 1148.24 178.45 1143.65 Q181.528 1139.05 187.338 1139.05 Z" fill="#000000" fill-rule="nonzero" fill-opacity="1"></path><path clip-path="url(#clip020)" d="M217.5 1142.75 Q213.889 1142.75 212.061 1146.31 Q210.255 1149.86 210.255 1156.99 Q210.255 1164.09 212.061 1167.66 Q213.889 1171.2 217.5 1171.2 Q221.135 1171.2 222.94 1167.66 Q224.769 1164.09 224.769 1156.99 Q224.769 1149.86 222.94 1146.31 Q221.135 1142.75 217.5 1142.75 M217.5 1139.05 Q223.31 1139.05 226.366 1143.65 Q229.445 1148.24 229.445 1156.99 Q229.445 1165.71 226.366 1170.32 Q223.31 1174.9 217.5 1174.9 Q211.69 1174.9 208.612 1170.32 Q205.556 1165.71 205.556 1156.99 Q205.556 1148.24 208.612 1143.65 Q211.69 1139.05 217.5 1139.05 Z" fill="#000000" fill-rule="nonzero" fill-opacity="1"></path><path clip-path="url(#clip020)" d="M129.862 846.966 L118.056 865.415 L129.862 865.415 L129.862 846.966 M128.635 842.892 L134.515 842.892 L134.515 865.415 L139.445 865.415 L139.445 869.303 L134.515 869.303 L134.515 877.452 L129.862 877.452 L129.862 869.303 L114.26 869.303 L114.26 864.79 L128.635 842.892 Z" fill="#000000" fill-rule="nonzero" fill-opacity="1"></path><path clip-path="url(#clip020)" d="M147.223 842.892 L165.579 842.892 L165.579 846.827 L151.505 846.827 L151.505 855.299 Q152.524 854.952 153.542 854.79 Q154.561 854.604 155.579 854.604 Q161.366 854.604 164.746 857.776 Q168.126 860.947 168.126 866.364 Q168.126 871.942 164.653 875.044 Q161.181 878.123 154.862 878.123 Q152.686 878.123 150.417 877.752 Q148.172 877.382 145.765 876.641 L145.765 871.942 Q147.848 873.077 150.07 873.632 Q152.292 874.188 154.769 874.188 Q158.774 874.188 161.112 872.081 Q163.45 869.975 163.45 866.364 Q163.45 862.753 161.112 860.646 Q158.774 858.54 154.769 858.54 Q152.894 858.54 151.019 858.956 Q149.167 859.373 147.223 860.253 L147.223 842.892 Z" fill="#000000" fill-rule="nonzero" fill-opacity="1"></path><path clip-path="url(#clip020)" d="M187.338 845.97 Q183.727 845.97 181.899 849.535 Q180.093 853.077 180.093 860.206 Q180.093 867.313 181.899 870.878 Q183.727 874.419 187.338 874.419 Q190.973 874.419 192.778 870.878 Q194.607 867.313 194.607 860.206 Q194.607 853.077 192.778 849.535 Q190.973 845.97 187.338 845.97 M187.338 842.267 Q193.149 842.267 196.204 846.873 Q199.283 851.456 199.283 860.206 Q199.283 868.933 196.204 873.54 Q193.149 878.123 187.338 878.123 Q181.528 878.123 178.45 873.54 Q175.394 868.933 175.394 860.206 Q175.394 851.456 178.45 846.873 Q181.528 842.267 187.338 842.267 Z" fill="#000000" fill-rule="nonzero" fill-opacity="1"></path><path clip-path="url(#clip020)" d="M217.5 845.97 Q213.889 845.97 212.061 849.535 Q210.255 853.077 210.255 860.206 Q210.255 867.313 212.061 870.878 Q213.889 874.419 217.5 874.419 Q221.135 874.419 222.94 870.878 Q224.769 867.313 224.769 860.206 Q224.769 853.077 222.94 849.535 Q221.135 845.97 217.5 845.97 M217.5 842.267 Q223.31 842.267 226.366 846.873 Q229.445 851.456 229.445 860.206 Q229.445 868.933 226.366 873.54 Q223.31 878.123 217.5 878.123 Q211.69 878.123 208.612 873.54 Q205.556 868.933 205.556 860.206 Q205.556 851.456 208.612 846.873 Q211.69 842.267 217.5 842.267 Z" fill="#000000" fill-rule="nonzero" fill-opacity="1"></path><path clip-path="url(#clip020)" d="M117.061 546.113 L135.417 546.113 L135.417 550.048 L121.343 550.048 L121.343 558.52 Q122.362 558.173 123.38 558.011 Q124.399 557.825 125.418 557.825 Q131.205 557.825 134.584 560.997 Q137.964 564.168 137.964 569.585 Q137.964 575.163 134.492 578.265 Q131.019 581.344 124.7 581.344 Q122.524 581.344 120.255 580.973 Q118.01 580.603 115.603 579.862 L115.603 575.163 Q117.686 576.298 119.908 576.853 Q122.13 577.409 124.607 577.409 Q128.612 577.409 130.95 575.302 Q133.288 573.196 133.288 569.585 Q133.288 565.974 130.95 563.867 Q128.612 561.761 124.607 561.761 Q122.732 561.761 120.857 562.177 Q119.006 562.594 117.061 563.474 L117.061 546.113 Z" fill="#000000" fill-rule="nonzero" fill-opacity="1"></path><path clip-path="url(#clip020)" d="M157.177 549.191 Q153.566 549.191 151.737 552.756 Q149.931 556.298 149.931 563.427 Q149.931 570.534 151.737 574.098 Q153.566 577.64 157.177 577.64 Q160.811 577.64 162.616 574.098 Q164.445 570.534 164.445 563.427 Q164.445 556.298 162.616 552.756 Q160.811 549.191 157.177 549.191 M157.177 545.488 Q162.987 545.488 166.042 550.094 Q169.121 554.677 169.121 563.427 Q169.121 572.154 166.042 576.761 Q162.987 581.344 157.177 581.344 Q151.366 581.344 148.288 576.761 Q145.232 572.154 145.232 563.427 Q145.232 554.677 148.288 550.094 Q151.366 545.488 157.177 545.488 Z" fill="#000000" fill-rule="nonzero" fill-opacity="1"></path><path clip-path="url(#clip020)" d="M187.338 549.191 Q183.727 549.191 181.899 552.756 Q180.093 556.298 180.093 563.427 Q180.093 570.534 181.899 574.098 Q183.727 577.64 187.338 577.64 Q190.973 577.64 192.778 574.098 Q194.607 570.534 194.607 563.427 Q194.607 556.298 192.778 552.756 Q190.973 549.191 187.338 549.191 M187.338 545.488 Q193.149 545.488 196.204 550.094 Q199.283 554.677 199.283 563.427 Q199.283 572.154 196.204 576.761 Q193.149 581.344 187.338 581.344 Q181.528 581.344 178.45 576.761 Q175.394 572.154 175.394 563.427 Q175.394 554.677 178.45 550.094 Q181.528 545.488 187.338 545.488 Z" fill="#000000" fill-rule="nonzero" fill-opacity="1"></path><path clip-path="url(#clip020)" d="M217.5 549.191 Q213.889 549.191 212.061 552.756 Q210.255 556.298 210.255 563.427 Q210.255 570.534 212.061 574.098 Q213.889 577.64 217.5 577.64 Q221.135 577.64 222.94 574.098 Q224.769 570.534 224.769 563.427 Q224.769 556.298 222.94 552.756 Q221.135 549.191 217.5 549.191 M217.5 545.488 Q223.31 545.488 226.366 550.094 Q229.445 554.677 229.445 563.427 Q229.445 572.154 226.366 576.761 Q223.31 581.344 217.5 581.344 Q211.69 581.344 208.612 576.761 Q205.556 572.154 205.556 563.427 Q205.556 554.677 208.612 550.094 Q211.69 545.488 217.5 545.488 Z" fill="#000000" fill-rule="nonzero" fill-opacity="1"></path><path clip-path="url(#clip020)" d="M117.061 249.334 L135.417 249.334 L135.417 253.269 L121.343 253.269 L121.343 261.741 Q122.362 261.394 123.38 261.232 Q124.399 261.046 125.418 261.046 Q131.205 261.046 134.584 264.218 Q137.964 267.389 137.964 272.806 Q137.964 278.384 134.492 281.486 Q131.019 284.565 124.7 284.565 Q122.524 284.565 120.255 284.194 Q118.01 283.824 115.603 283.083 L115.603 278.384 Q117.686 279.519 119.908 280.074 Q122.13 280.63 124.607 280.63 Q128.612 280.63 130.95 278.523 Q133.288 276.417 133.288 272.806 Q133.288 269.195 130.95 267.088 Q128.612 264.982 124.607 264.982 Q122.732 264.982 120.857 265.398 Q119.006 265.815 117.061 266.695 L117.061 249.334 Z" fill="#000000" fill-rule="nonzero" fill-opacity="1"></path><path clip-path="url(#clip020)" d="M147.223 249.334 L165.579 249.334 L165.579 253.269 L151.505 253.269 L151.505 261.741 Q152.524 261.394 153.542 261.232 Q154.561 261.046 155.579 261.046 Q161.366 261.046 164.746 264.218 Q168.126 267.389 168.126 272.806 Q168.126 278.384 164.653 281.486 Q161.181 284.565 154.862 284.565 Q152.686 284.565 150.417 284.194 Q148.172 283.824 145.765 283.083 L145.765 278.384 Q147.848 279.519 150.07 280.074 Q152.292 280.63 154.769 280.63 Q158.774 280.63 161.112 278.523 Q163.45 276.417 163.45 272.806 Q163.45 269.195 161.112 267.088 Q158.774 264.982 154.769 264.982 Q152.894 264.982 151.019 265.398 Q149.167 265.815 147.223 266.695 L147.223 249.334 Z" fill="#000000" fill-rule="nonzero" fill-opacity="1"></path><path clip-path="url(#clip020)" d="M187.338 252.412 Q183.727 252.412 181.899 255.977 Q180.093 259.519 180.093 266.648 Q180.093 273.755 181.899 277.319 Q183.727 280.861 187.338 280.861 Q190.973 280.861 192.778 277.319 Q194.607 273.755 194.607 266.648 Q194.607 259.519 192.778 255.977 Q190.973 252.412 187.338 252.412 M187.338 248.709 Q193.149 248.709 196.204 253.315 Q199.283 257.898 199.283 266.648 Q199.283 275.375 196.204 279.981 Q193.149 284.565 187.338 284.565 Q181.528 284.565 178.45 279.981 Q175.394 275.375 175.394 266.648 Q175.394 257.898 178.45 253.315 Q181.528 248.709 187.338 248.709 Z" fill="#000000" fill-rule="nonzero" fill-opacity="1"></path><path clip-path="url(#clip020)" d="M217.5 252.412 Q213.889 252.412 212.061 255.977 Q210.255 259.519 210.255 266.648 Q210.255 273.755 212.061 277.319 Q213.889 280.861 217.5 280.861 Q221.135 280.861 222.94 277.319 Q224.769 273.755 224.769 266.648 Q224.769 259.519 222.94 255.977 Q221.135 252.412 217.5 252.412 M217.5 248.709 Q223.31 248.709 226.366 253.315 Q229.445 257.898 229.445 266.648 Q229.445 275.375 226.366 279.981 Q223.31 284.565 217.5 284.565 Q211.69 284.565 208.612 279.981 Q205.556 275.375 205.556 266.648 Q205.556 257.898 208.612 253.315 Q211.69 248.709 217.5 248.709 Z" fill="#000000" fill-rule="nonzero" fill-opacity="1"></path><path clip-path="url(#clip020)" d="M16.4842 1105.34 L16.4842 1075.3 L21.895 1075.3 L21.895 1098.91 L35.9632 1098.91 L35.9632 1076.28 L41.3741 1076.28 L41.3741 1098.91 L58.5933 1098.91 L58.5933 1074.72 L64.0042 1074.72 L64.0042 1105.34 L16.4842 1105.34 Z" fill="#000000" fill-rule="nonzero" fill-opacity="1"></path><path clip-path="url(#clip020)" d="M14.479 1064.41 L14.479 1058.55 L64.0042 1058.55 L64.0042 1064.41 L14.479 1064.41 Z" fill="#000000" fill-rule="nonzero" fill-opacity="1"></path><path clip-path="url(#clip020)" d="M44.7161 1015.81 L47.5806 1015.81 L47.5806 1042.74 Q53.6281 1042.35 56.8109 1039.11 Q59.9619 1035.83 59.9619 1030 Q59.9619 1026.63 59.1344 1023.48 Q58.3069 1020.3 56.6518 1017.18 L62.1899 1017.18 Q63.5267 1020.33 64.227 1023.64 Q64.9272 1026.95 64.9272 1030.35 Q64.9272 1038.88 59.9619 1043.88 Q54.9967 1048.85 46.5303 1048.85 Q37.7774 1048.85 32.6531 1044.14 Q27.4968 1039.39 27.4968 1031.37 Q27.4968 1024.18 32.1438 1020.01 Q36.7589 1015.81 44.7161 1015.81 M42.9973 1021.66 Q38.1912 1021.73 35.3266 1024.37 Q32.4621 1026.98 32.4621 1031.31 Q32.4621 1036.21 35.2312 1039.17 Q38.0002 1042.1 43.0292 1042.54 L42.9973 1021.66 Z" fill="#000000" fill-rule="nonzero" fill-opacity="1"></path><path clip-path="url(#clip020)" d="M28.3562 1010.4 L28.3562 1004.19 L58.275 993.051 L28.3562 981.911 L28.3562 975.704 L64.0042 989.072 L64.0042 997.029 L28.3562 1010.4 Z" fill="#000000" fill-rule="nonzero" fill-opacity="1"></path><path clip-path="url(#clip020)" d="M46.0847 951.419 Q46.0847 958.517 47.7079 961.254 Q49.3312 963.991 53.2461 963.991 Q56.3653 963.991 58.2114 961.954 Q60.0256 959.885 60.0256 956.352 Q60.0256 951.483 56.5881 948.554 Q53.1188 945.594 47.3897 945.594 L46.0847 945.594 L46.0847 951.419 M43.6657 939.738 L64.0042 939.738 L64.0042 945.594 L58.5933 945.594 Q61.8398 947.6 63.3994 950.591 Q64.9272 953.583 64.9272 957.912 Q64.9272 963.387 61.8716 966.633 Q58.7843 969.848 53.6281 969.848 Q47.6125 969.848 44.5569 965.837 Q41.5014 961.795 41.5014 953.806 L41.5014 945.594 L40.9285 945.594 Q36.8862 945.594 34.6901 948.268 Q32.4621 950.91 32.4621 955.716 Q32.4621 958.771 33.1941 961.668 Q33.9262 964.564 35.3903 967.238 L29.9795 967.238 Q28.7381 964.023 28.1334 960.999 Q27.4968 957.976 27.4968 955.111 Q27.4968 947.377 31.5072 943.557 Q35.5176 939.738 43.6657 939.738 Z" fill="#000000" fill-rule="nonzero" fill-opacity="1"></path><path clip-path="url(#clip020)" d="M18.2347 921.882 L28.3562 921.882 L28.3562 909.819 L32.9077 909.819 L32.9077 921.882 L52.2594 921.882 Q56.6199 921.882 57.8613 920.704 Q59.1026 919.495 59.1026 915.835 L59.1026 909.819 L64.0042 909.819 L64.0042 915.835 Q64.0042 922.614 61.4897 925.192 Q58.9434 927.77 52.2594 927.77 L32.9077 927.77 L32.9077 932.067 L28.3562 932.067 L28.3562 927.77 L18.2347 927.77 L18.2347 921.882 Z" fill="#000000" fill-rule="nonzero" fill-opacity="1"></path><path clip-path="url(#clip020)" d="M28.3562 902.117 L28.3562 896.26 L64.0042 896.26 L64.0042 902.117 L28.3562 902.117 M14.479 902.117 L14.479 896.26 L21.895 896.26 L21.895 902.117 L14.479 902.117 Z" fill="#000000" fill-rule="nonzero" fill-opacity="1"></path><path clip-path="url(#clip020)" d="M32.4621 870.193 Q32.4621 874.903 36.1542 877.64 Q39.8145 880.378 46.212 880.378 Q52.6095 880.378 56.3017 877.672 Q59.9619 874.935 59.9619 870.193 Q59.9619 865.514 56.2698 862.777 Q52.5777 860.039 46.212 860.039 Q39.8781 860.039 36.186 862.777 Q32.4621 865.514 32.4621 870.193 M27.4968 870.193 Q27.4968 862.554 32.4621 858.193 Q37.4273 853.833 46.212 853.833 Q54.9649 853.833 59.9619 858.193 Q64.9272 862.554 64.9272 870.193 Q64.9272 877.863 59.9619 882.224 Q54.9649 886.552 46.212 886.552 Q37.4273 886.552 32.4621 882.224 Q27.4968 877.863 27.4968 870.193 Z" fill="#000000" fill-rule="nonzero" fill-opacity="1"></path><path clip-path="url(#clip020)" d="M42.4881 814.493 L64.0042 814.493 L64.0042 820.349 L42.679 820.349 Q37.6183 820.349 35.1038 822.322 Q32.5894 824.296 32.5894 828.243 Q32.5894 832.985 35.6131 835.722 Q38.6368 838.46 43.8567 838.46 L64.0042 838.46 L64.0042 844.348 L28.3562 844.348 L28.3562 838.46 L33.8944 838.46 Q30.6797 836.359 29.0883 833.526 Q27.4968 830.662 27.4968 826.938 Q27.4968 820.795 31.3163 817.644 Q35.1038 814.493 42.4881 814.493 Z" fill="#000000" fill-rule="nonzero" fill-opacity="1"></path><path clip-path="url(#clip020)" d="M14.5426 768.023 Q21.8632 772.288 29.0246 774.357 Q36.186 776.426 43.5384 776.426 Q50.8908 776.426 58.1159 774.357 Q65.3091 772.256 72.5979 768.023 L72.5979 773.116 Q65.1182 777.89 57.8931 780.277 Q50.668 782.632 43.5384 782.632 Q36.4406 782.632 29.2474 780.277 Q22.0542 777.922 14.5426 773.116 L14.5426 768.023 Z" fill="#000000" fill-rule="nonzero" fill-opacity="1"></path><path clip-path="url(#clip020)" d="M35.1993 728.906 Q31.2526 726.71 29.3747 723.654 Q27.4968 720.598 27.4968 716.461 Q27.4968 710.891 31.4117 707.867 Q35.2948 704.843 42.4881 704.843 L64.0042 704.843 L64.0042 710.732 L42.679 710.732 Q37.5546 710.732 35.072 712.546 Q32.5894 714.36 32.5894 718.084 Q32.5894 722.635 35.6131 725.277 Q38.6368 727.919 43.8567 727.919 L64.0042 727.919 L64.0042 733.807 L42.679 733.807 Q37.5228 733.807 35.072 735.622 Q32.5894 737.436 32.5894 741.223 Q32.5894 745.711 35.6449 748.353 Q38.6686 750.995 43.8567 750.995 L64.0042 750.995 L64.0042 756.883 L28.3562 756.883 L28.3562 750.995 L33.8944 750.995 Q30.616 748.99 29.0564 746.189 Q27.4968 743.388 27.4968 739.536 Q27.4968 735.653 29.4702 732.948 Q31.4436 730.211 35.1993 728.906 Z" fill="#000000" fill-rule="nonzero" fill-opacity="1"></path><path clip-path="url(#clip020)" d="M55.9197 692.335 L55.9197 685.619 L64.0042 685.619 L64.0042 692.335 L55.9197 692.335 Z" fill="#000000" fill-rule="nonzero" fill-opacity="1"></path><path clip-path="url(#clip020)" d="M46.0847 656.241 Q46.0847 663.339 47.7079 666.076 Q49.3312 668.813 53.2461 668.813 Q56.3653 668.813 58.2114 666.776 Q60.0256 664.708 60.0256 661.175 Q60.0256 656.305 56.5881 653.377 Q53.1188 650.417 47.3897 650.417 L46.0847 650.417 L46.0847 656.241 M43.6657 644.56 L64.0042 644.56 L64.0042 650.417 L58.5933 650.417 Q61.8398 652.422 63.3994 655.414 Q64.9272 658.406 64.9272 662.734 Q64.9272 668.209 61.8716 671.455 Q58.7843 674.67 53.6281 674.67 Q47.6125 674.67 44.5569 670.66 Q41.5014 666.617 41.5014 658.628 L41.5014 650.417 L40.9285 650.417 Q36.8862 650.417 34.6901 653.09 Q32.4621 655.732 32.4621 660.538 Q32.4621 663.594 33.1941 666.49 Q33.9262 669.386 35.3903 672.06 L29.9795 672.06 Q28.7381 668.845 28.1334 665.822 Q27.4968 662.798 27.4968 659.933 Q27.4968 652.199 31.5072 648.38 Q35.5176 644.56 43.6657 644.56 Z" fill="#000000" fill-rule="nonzero" fill-opacity="1"></path><path clip-path="url(#clip020)" d="M55.9197 631.67 L55.9197 624.954 L64.0042 624.954 L64.0042 631.67 L55.9197 631.67 Z" fill="#000000" fill-rule="nonzero" fill-opacity="1"></path><path clip-path="url(#clip020)" d="M29.4065 589.051 L34.9447 589.051 Q33.6716 591.534 33.035 594.207 Q32.3984 596.881 32.3984 599.746 Q32.3984 604.106 33.7352 606.302 Q35.072 608.467 37.7456 608.467 Q39.7826 608.467 40.9603 606.907 Q42.1061 605.347 43.1565 600.637 L43.6021 598.632 Q44.9389 592.393 47.3897 589.783 Q49.8086 587.141 54.1691 587.141 Q59.1344 587.141 62.0308 591.088 Q64.9272 595.003 64.9272 601.878 Q64.9272 604.743 64.3543 607.862 Q63.8132 610.949 62.6992 614.387 L56.6518 614.387 Q58.3387 611.14 59.198 607.989 Q60.0256 604.838 60.0256 601.751 Q60.0256 597.613 58.6251 595.385 Q57.1929 593.157 54.6147 593.157 Q52.2276 593.157 50.9545 594.78 Q49.6813 596.372 48.5037 601.814 L48.0262 603.851 Q46.8804 609.294 44.5251 611.713 Q42.138 614.132 38.0002 614.132 Q32.9713 614.132 30.2341 610.567 Q27.4968 607.002 27.4968 600.446 Q27.4968 597.199 27.9743 594.335 Q28.4517 591.47 29.4065 589.051 Z" fill="#000000" fill-rule="nonzero" fill-opacity="1"></path><path clip-path="url(#clip020)" d="M55.9197 576.988 L55.9197 570.272 L64.0042 570.272 L64.0042 576.988 L55.9197 576.988 Z" fill="#000000" fill-rule="nonzero" fill-opacity="1"></path><path clip-path="url(#clip020)" d="M14.479 557.095 L14.479 551.239 L64.0042 551.239 L64.0042 557.095 L14.479 557.095 Z" fill="#000000" fill-rule="nonzero" fill-opacity="1"></path><path clip-path="url(#clip020)" d="M55.9197 538.157 L55.9197 531.442 L64.0042 531.442 L64.0042 538.157 L55.9197 538.157 Z" fill="#000000" fill-rule="nonzero" fill-opacity="1"></path><path clip-path="url(#clip020)" d="M14.5426 519.188 L14.5426 514.095 Q22.0542 509.321 29.2474 506.965 Q36.4406 504.578 43.5384 504.578 Q50.668 504.578 57.8931 506.965 Q65.1182 509.321 72.5979 514.095 L72.5979 519.188 Q65.3091 514.954 58.1159 512.885 Q50.8908 510.785 43.5384 510.785 Q36.186 510.785 29.0246 512.885 Q21.8632 514.954 14.5426 519.188 Z" fill="#000000" fill-rule="nonzero" fill-opacity="1"></path><path clip-path="url(#clip020)" d="M1002.89 9.62495 Q997.464 18.942 994.831 28.0566 Q992.198 37.1711 992.198 46.5287 Q992.198 55.8863 994.831 65.0818 Q997.505 74.2369 1002.89 83.5134 L996.411 83.5134 Q990.335 73.9938 987.296 64.7983 Q984.299 55.6027 984.299 46.5287 Q984.299 37.4952 987.296 28.3401 Q990.294 19.1851 996.411 9.62495 L1002.89 9.62495 Z" fill="#000000" fill-rule="nonzero" fill-opacity="1"></path><path clip-path="url(#clip020)" d="M1040.32 9.54393 L1040.32 15.7418 L1033.19 15.7418 Q1029.18 15.7418 1027.6 17.3622 Q1026.06 18.9825 1026.06 23.1955 L1026.06 27.2059 L1038.34 27.2059 L1038.34 32.9987 L1026.06 32.9987 L1026.06 72.576 L1018.57 72.576 L1018.57 32.9987 L1011.44 32.9987 L1011.44 27.2059 L1018.57 27.2059 L1018.57 24.0462 Q1018.57 16.471 1022.09 13.0277 Q1025.62 9.54393 1033.27 9.54393 L1040.32 9.54393 Z" fill="#000000" fill-rule="nonzero" fill-opacity="1"></path><path clip-path="url(#clip020)" d="M1064.14 32.4315 Q1058.15 32.4315 1054.66 37.1306 Q1051.18 41.7891 1051.18 49.9314 Q1051.18 58.0738 1054.62 62.7728 Q1058.11 67.4314 1064.14 67.4314 Q1070.1 67.4314 1073.58 62.7323 Q1077.06 58.0333 1077.06 49.9314 Q1077.06 41.8701 1073.58 37.1711 Q1070.1 32.4315 1064.14 32.4315 M1064.14 26.1121 Q1073.86 26.1121 1079.41 32.4315 Q1084.96 38.7509 1084.96 49.9314 Q1084.96 61.0714 1079.41 67.4314 Q1073.86 73.7508 1064.14 73.7508 Q1054.38 73.7508 1048.83 67.4314 Q1043.32 61.0714 1043.32 49.9314 Q1043.32 38.7509 1048.83 32.4315 Q1054.38 26.1121 1064.14 26.1121 Z" fill="#000000" fill-rule="nonzero" fill-opacity="1"></path><path clip-path="url(#clip020)" d="M1123.61 34.1734 Q1122.35 33.4443 1120.85 33.1202 Q1119.4 32.7556 1117.61 32.7556 Q1111.29 32.7556 1107.89 36.8875 Q1104.53 40.9789 1104.53 48.6757 L1104.53 72.576 L1097.04 72.576 L1097.04 27.2059 L1104.53 27.2059 L1104.53 34.2544 Q1106.88 30.1225 1110.65 28.1376 Q1114.41 26.1121 1119.8 26.1121 Q1120.57 26.1121 1121.5 26.2337 Q1122.43 26.3147 1123.57 26.5172 L1123.61 34.1734 Z" fill="#000000" fill-rule="nonzero" fill-opacity="1"></path><path clip-path="url(#clip020)" d="M1160.27 65.6895 L1173.64 65.6895 L1173.64 19.5497 L1159.1 22.4663 L1159.1 15.0127 L1173.56 12.096 L1181.74 12.096 L1181.74 65.6895 L1195.11 65.6895 L1195.11 72.576 L1160.27 72.576 L1160.27 65.6895 Z" fill="#000000" fill-rule="nonzero" fill-opacity="1"></path><path clip-path="url(#clip020)" d="M1229.14 17.4837 Q1222.82 17.4837 1219.62 23.7221 Q1216.46 29.92 1216.46 42.3968 Q1216.46 54.833 1219.62 61.0714 Q1222.82 67.2693 1229.14 67.2693 Q1235.5 67.2693 1238.66 61.0714 Q1241.86 54.833 1241.86 42.3968 Q1241.86 29.92 1238.66 23.7221 Q1235.5 17.4837 1229.14 17.4837 M1229.14 11.0023 Q1239.3 11.0023 1244.65 19.0636 Q1250.04 27.0843 1250.04 42.3968 Q1250.04 57.6687 1244.65 65.73 Q1239.3 73.7508 1229.14 73.7508 Q1218.97 73.7508 1213.58 65.73 Q1208.23 57.6687 1208.23 42.3968 Q1208.23 27.0843 1213.58 19.0636 Q1218.97 11.0023 1229.14 11.0023 Z" fill="#000000" fill-rule="nonzero" fill-opacity="1"></path><path clip-path="url(#clip020)" d="M1281.92 17.4837 Q1275.6 17.4837 1272.4 23.7221 Q1269.24 29.92 1269.24 42.3968 Q1269.24 54.833 1272.4 61.0714 Q1275.6 67.2693 1281.92 67.2693 Q1288.28 67.2693 1291.44 61.0714 Q1294.64 54.833 1294.64 42.3968 Q1294.64 29.92 1291.44 23.7221 Q1288.28 17.4837 1281.92 17.4837 M1281.92 11.0023 Q1292.09 11.0023 1297.43 19.0636 Q1302.82 27.0843 1302.82 42.3968 Q1302.82 57.6687 1297.43 65.73 Q1292.09 73.7508 1281.92 73.7508 Q1271.75 73.7508 1266.36 65.73 Q1261.02 57.6687 1261.02 42.3968 Q1261.02 27.0843 1266.36 19.0636 Q1271.75 11.0023 1281.92 11.0023 Z" fill="#000000" fill-rule="nonzero" fill-opacity="1"></path><path clip-path="url(#clip020)" d="M1317.2 62.2867 L1325.75 62.2867 L1325.75 72.576 L1317.2 72.576 L1317.2 62.2867 Z" fill="#000000" fill-rule="nonzero" fill-opacity="1"></path><path clip-path="url(#clip020)" d="M1361.07 17.4837 Q1354.75 17.4837 1351.55 23.7221 Q1348.39 29.92 1348.39 42.3968 Q1348.39 54.833 1351.55 61.0714 Q1354.75 67.2693 1361.07 67.2693 Q1367.43 67.2693 1370.59 61.0714 Q1373.79 54.833 1373.79 42.3968 Q1373.79 29.92 1370.59 23.7221 Q1367.43 17.4837 1361.07 17.4837 M1361.07 11.0023 Q1371.24 11.0023 1376.59 19.0636 Q1381.98 27.0843 1381.98 42.3968 Q1381.98 57.6687 1376.59 65.73 Q1371.24 73.7508 1361.07 73.7508 Q1350.91 73.7508 1345.52 65.73 Q1340.17 57.6687 1340.17 42.3968 Q1340.17 27.0843 1345.52 19.0636 Q1350.91 11.0023 1361.07 11.0023 Z" fill="#000000" fill-rule="nonzero" fill-opacity="1"></path><path clip-path="url(#clip020)" d="M1440.55 76.7889 Q1437.39 84.8907 1434.39 87.3618 Q1431.4 89.8329 1426.37 89.8329 L1420.42 89.8329 L1420.42 83.5945 L1424.79 83.5945 Q1427.87 83.5945 1429.57 82.1361 Q1431.28 80.6778 1433.34 75.2496 L1434.68 71.8468 L1416.33 27.2059 L1424.23 27.2059 L1438.41 62.6918 L1452.58 27.2059 L1460.48 27.2059 L1440.55 76.7889 Z" fill="#000000" fill-rule="nonzero" fill-opacity="1"></path><path clip-path="url(#clip020)" d="M1509.58 48.0275 L1509.58 51.6733 L1475.31 51.6733 Q1475.8 59.3701 1479.93 63.421 Q1484.1 67.4314 1491.51 67.4314 Q1495.81 67.4314 1499.82 66.3781 Q1503.87 65.3249 1507.84 63.2184 L1507.84 70.267 Q1503.83 71.9684 1499.61 72.8596 Q1495.4 73.7508 1491.07 73.7508 Q1480.21 73.7508 1473.85 67.4314 Q1467.53 61.1119 1467.53 50.3365 Q1467.53 39.1965 1473.53 32.6746 Q1479.56 26.1121 1489.77 26.1121 Q1498.93 26.1121 1504.23 32.0264 Q1509.58 37.9003 1509.58 48.0275 M1502.13 45.84 Q1502.04 39.7232 1498.68 36.0774 Q1495.36 32.4315 1489.85 32.4315 Q1483.61 32.4315 1479.85 35.9558 Q1476.12 39.4801 1475.55 45.8805 L1502.13 45.84 Z" fill="#000000" fill-rule="nonzero" fill-opacity="1"></path><path clip-path="url(#clip020)" d="M1542.43 49.7694 Q1533.4 49.7694 1529.92 51.8354 Q1526.43 53.9013 1526.43 58.8839 Q1526.43 62.8538 1529.02 65.2034 Q1531.66 67.5124 1536.15 67.5124 Q1542.35 67.5124 1546.08 63.1374 Q1549.85 58.7219 1549.85 51.4303 L1549.85 49.7694 L1542.43 49.7694 M1557.3 46.6907 L1557.3 72.576 L1549.85 72.576 L1549.85 65.6895 Q1547.29 69.8214 1543.49 71.8063 Q1539.68 73.7508 1534.17 73.7508 Q1527.2 73.7508 1523.07 69.8619 Q1518.98 65.9325 1518.98 59.3701 Q1518.98 51.7138 1524.08 47.825 Q1529.23 43.9361 1539.39 43.9361 L1549.85 43.9361 L1549.85 43.2069 Q1549.85 38.0623 1546.44 35.2672 Q1543.08 32.4315 1536.96 32.4315 Q1533.07 32.4315 1529.39 33.3632 Q1525.7 34.295 1522.3 36.1584 L1522.3 29.2718 Q1526.39 27.692 1530.24 26.9223 Q1534.09 26.1121 1537.73 26.1121 Q1547.58 26.1121 1552.44 31.2163 Q1557.3 36.3204 1557.3 46.6907 Z" fill="#000000" fill-rule="nonzero" fill-opacity="1"></path><path clip-path="url(#clip020)" d="M1598.94 34.1734 Q1597.69 33.4443 1596.19 33.1202 Q1594.73 32.7556 1592.95 32.7556 Q1586.63 32.7556 1583.23 36.8875 Q1579.86 40.9789 1579.86 48.6757 L1579.86 72.576 L1572.37 72.576 L1572.37 27.2059 L1579.86 27.2059 L1579.86 34.2544 Q1582.21 30.1225 1585.98 28.1376 Q1589.75 26.1121 1595.13 26.1121 Q1595.9 26.1121 1596.84 26.2337 Q1597.77 26.3147 1598.9 26.5172 L1598.94 34.1734 Z" fill="#000000" fill-rule="nonzero" fill-opacity="1"></path><path clip-path="url(#clip020)" d="M1635.68 28.5427 L1635.68 35.5912 Q1632.52 33.9709 1629.12 33.1607 Q1625.72 32.3505 1622.07 32.3505 Q1616.52 32.3505 1613.73 34.0519 Q1610.97 35.7533 1610.97 39.156 Q1610.97 41.7486 1612.96 43.2475 Q1614.94 44.7058 1620.94 46.0426 L1623.49 46.6097 Q1631.43 48.3111 1634.75 51.4303 Q1638.11 54.509 1638.11 60.0587 Q1638.11 66.3781 1633.09 70.0644 Q1628.11 73.7508 1619.36 73.7508 Q1615.71 73.7508 1611.74 73.0216 Q1607.81 72.3329 1603.44 70.9151 L1603.44 63.2184 Q1607.57 65.3654 1611.58 66.4591 Q1615.59 67.5124 1619.52 67.5124 Q1624.79 67.5124 1627.62 65.73 Q1630.46 63.9071 1630.46 60.6258 Q1630.46 57.5877 1628.39 55.9673 Q1626.37 54.3469 1619.44 52.8481 L1616.85 52.2405 Q1609.92 50.7821 1606.84 47.7845 Q1603.76 44.7463 1603.76 39.4801 Q1603.76 33.0797 1608.3 29.5959 Q1612.84 26.1121 1621.18 26.1121 Q1625.31 26.1121 1628.96 26.7198 Q1632.61 27.3274 1635.68 28.5427 Z" fill="#000000" fill-rule="nonzero" fill-opacity="1"></path><path clip-path="url(#clip020)" d="M1648.81 9.62495 L1655.29 9.62495 Q1661.37 19.1851 1664.36 28.3401 Q1667.4 37.4952 1667.4 46.5287 Q1667.4 55.6027 1664.36 64.7983 Q1661.37 73.9938 1655.29 83.5134 L1648.81 83.5134 Q1654.2 74.2369 1656.83 65.0818 Q1659.5 55.8863 1659.5 46.5287 Q1659.5 37.1711 1656.83 28.0566 Q1654.2 18.942 1648.81 9.62495 Z" fill="#000000" fill-rule="nonzero" fill-opacity="1"></path><polyline clip-path="url(#clip022)" style="stroke:#a52a2a; stroke-linecap:round; stroke-linejoin:round; stroke-width:4; stroke-opacity:1; fill:none" points="324.52,195.917 351.13,210.922 377.74,240.438 404.35,271.96 430.961,302.598 457.571,341.003 484.181,370.84 510.792,405.913 537.402,445.699 564.012,486.695 590.622,523.527 617.233,558.25 643.843,589.34 670.453,618.608 697.064,646.782 723.674,675.968 750.284,704.461 776.895,726.903 803.505,744.405 830.115,757.959 856.725,777.647 883.336,794.97 909.946,816.342 936.556,837.483 963.167,854.112 989.777,869.996 1016.39,883.435 1043,902.707 1069.61,921.394 1096.22,936.638 1122.83,948.884 1149.44,961.337 1176.05,976.903 1202.66,996.084 1229.27,1017.7 1255.88,1040.27 1282.49,1062.53 1309.1,1084.16 1335.71,1105.58 1362.32,1126.24 1388.93,1144.62 1415.54,1160.55 1442.15,1175.53 1468.76,1190.23 1495.37,1203.66 1521.98,1215.25 1548.59,1226.06 1575.2,1237.88 1601.81,1252.11 1628.42,1268.94 1655.03,1287.18 1681.64,1305.02 1708.25,1320.21 1734.86,1331.82 1761.48,1342 1788.09,1354.55 1814.7,1372.29 1841.31,1395.04 1867.92,1418.38 1894.53,1435.94 1921.14,1445.08 1947.75,1447.87 1974.36,1446.75 2000.97,1443.45 2027.58,1439.61 2054.19,1436.28 2080.8,1433.96 2107.41,1432.41 2134.02,1430.93 2160.63,1428.52 2187.24,1423.85 2213.85,1415.61 2240.46,1404.19 2267.07,1392.88 2293.68,1385.8 "></polyline>
<polyline clip-path="url(#clip022)" style="stroke:#0000ff; stroke-linecap:round; stroke-linejoin:round; stroke-width:4; stroke-opacity:1; fill:none" points="324.52,162.047 351.13,185.896 377.74,218.563 404.35,246.424 430.961,280.725 457.571,314.455 484.181,346.151 510.792,381.621 537.402,421.988 564.012,460.955 590.622,496.149 617.233,528.639 643.843,559.06 670.453,588.606 697.064,617.791 723.674,645.737 750.284,669.986 776.895,690.512 803.505,709.682 830.115,728.885 856.725,749.332 883.336,768.546 909.946,790.011 936.556,811.147 963.167,839.4 989.777,869.996 1016.39,883.435 1043,902.707 1069.61,921.394 1096.22,936.638 1122.83,948.884 1149.44,961.337 1176.05,976.903 1202.66,996.084 1229.27,1017.7 1255.88,1040.27 1282.49,1062.53 1309.1,1084.16 1335.71,1105.58 1362.32,1126.24 1388.93,1144.62 1415.54,1160.55 1442.15,1175.53 1468.76,1190.23 1495.37,1203.66 1521.98,1215.25 1548.59,1226.06 1575.2,1237.88 1601.81,1252.11 1628.42,1268.94 1655.03,1287.18 1681.64,1305.02 1708.25,1320.21 1734.86,1331.82 1761.48,1342 1788.09,1354.55 1814.7,1372.29 1841.31,1395.04 1867.92,1418.38 1894.53,1435.94 1921.14,1445.08 1947.75,1447.87 1974.36,1446.75 2000.97,1443.45 2027.58,1439.61 2054.19,1436.28 2080.8,1433.96 2107.41,1432.41 2134.02,1430.93 2160.63,1428.52 2187.24,1423.85 2213.85,1415.61 2240.46,1404.19 2267.07,1392.88 2293.68,1385.8 "></polyline>
<polyline clip-path="url(#clip022)" style="stroke:#ff0000; stroke-linecap:round; stroke-linejoin:round; stroke-width:4; stroke-opacity:1; fill:none" points="324.52,164.789 351.13,188.645 377.74,221.302 404.35,249.166 430.961,283.473 457.571,317.188 484.181,348.898 510.792,384.357 537.402,424.735 564.012,463.682 590.622,498.864 617.233,531.095 643.843,560.716 670.453,588.603 697.064,615.508 723.674,640.095 750.284,660.057 776.895,676.634 803.505,691.98 830.115,707.756 856.725,724.236 883.336,741.008 909.946,760.22 936.556,781.624 963.167,810.235 989.777,861.854 1016.39,883.434 1043,902.707 1069.61,921.394 1096.22,936.638 1122.83,948.884 1149.44,961.337 1176.05,976.903 1202.66,996.084 1229.27,1017.7 1255.88,1040.27 1282.49,1062.53 1309.1,1084.16 1335.71,1105.58 1362.32,1126.24 1388.93,1144.62 1415.54,1160.55 1442.15,1175.53 1468.76,1190.23 1495.37,1203.66 1521.98,1215.25 1548.59,1226.06 1575.2,1237.88 1601.81,1252.11 1628.42,1268.94 1655.03,1287.18 1681.64,1305.02 1708.25,1320.21 1734.86,1331.82 1761.48,1342 1788.09,1354.55 1814.7,1372.29 1841.31,1395.04 1867.92,1418.38 1894.53,1435.94 1921.14,1445.08 1947.75,1447.87 1974.36,1446.75 2000.97,1443.45 2027.58,1439.61 2054.19,1436.28 2080.8,1433.96 2107.41,1432.41 2134.02,1430.93 2160.63,1428.52 2187.24,1423.85 2213.85,1415.61 2240.46,1404.19 2267.07,1392.88 2293.68,1385.8 "></polyline>
<polyline clip-path="url(#clip022)" style="stroke:#008000; stroke-linecap:round; stroke-linejoin:round; stroke-width:4; stroke-opacity:1; fill:none" points="324.52,169.267 351.13,187.229 377.74,218.888 404.35,249.865 430.961,280.793 457.571,317.329 484.181,347.729 510.792,383.387 537.402,423.264 564.012,462.765 590.622,497.734 617.233,530.533 643.843,560.656 670.453,589.419 697.064,617.089 723.674,643.741 750.284,666.534 776.895,685.051 803.505,702.665 830.115,721.263 856.725,744.566 883.336,772.052 909.946,800.65 936.556,828.857 963.167,853.518 989.777,869.996 1016.39,883.435 1043,902.707 1069.61,921.394 1096.22,936.638 1122.83,948.884 1149.44,961.337 1176.05,976.903 1202.66,996.084 1229.27,1017.7 1255.88,1040.27 1282.49,1062.53 1309.1,1084.16 1335.71,1105.58 1362.32,1126.24 1388.93,1144.62 1415.54,1160.55 1442.15,1175.53 1468.76,1190.23 1495.37,1203.66 1521.98,1215.25 1548.59,1226.06 1575.2,1237.88 1601.81,1252.11 1628.42,1268.94 1655.03,1287.18 1681.64,1305.02 1708.25,1320.21 1734.86,1331.82 1761.48,1342 1788.09,1354.55 1814.7,1372.29 1841.31,1395.04 1867.92,1418.38 1894.53,1435.94 1921.14,1445.08 1947.75,1447.87 1974.36,1446.75 2000.97,1443.45 2027.58,1439.61 2054.19,1436.28 2080.8,1433.96 2107.41,1432.41 2134.02,1430.93 2160.63,1428.52 2187.24,1423.85 2213.85,1415.61 2240.46,1404.19 2267.07,1392.88 2293.68,1385.8 "></polyline>
<polyline clip-path="url(#clip022)" style="stroke:#000000; stroke-linecap:round; stroke-linejoin:round; stroke-width:4; stroke-opacity:1; fill:none" stroke-dasharray="16, 10" points="324.52,170.352 351.13,190.822 377.74,220.584 404.35,250.291 430.961,283.012 457.571,317.12 484.181,348.552 510.792,384.39 537.402,424.339 564.012,463.051 590.622,498.136 617.233,530.407 643.843,560.346 670.453,589.2 697.064,617.972 723.674,646.294 750.284,672.056 776.895,695.917 803.505,720.089 830.115,750.191 856.725,777.647 883.336,794.97 909.946,816.342 936.556,837.483 963.167,854.112 989.777,869.996 1016.39,883.435 1043,902.707 1069.61,921.394 1096.22,936.638 1122.83,948.884 1149.44,961.337 1176.05,976.903 1202.66,996.084 1229.27,1017.7 1255.88,1040.27 1282.49,1062.53 1309.1,1084.16 1335.71,1105.58 1362.32,1126.24 1388.93,1144.62 1415.54,1160.55 1442.15,1175.53 1468.76,1190.23 1495.37,1203.66 1521.98,1215.25 1548.59,1226.06 1575.2,1237.88 1601.81,1252.11 1628.42,1268.94 1655.03,1287.18 1681.64,1305.02 1708.25,1320.21 1734.86,1331.82 1761.48,1342 1788.09,1354.55 1814.7,1372.29 1841.31,1395.04 1867.92,1418.38 1894.53,1435.94 1921.14,1445.08 1947.75,1447.87 1974.36,1446.75 2000.97,1443.45 2027.58,1439.61 2054.19,1436.28 2080.8,1433.96 2107.41,1432.41 2134.02,1430.93 2160.63,1428.52 2187.24,1423.85 2213.85,1415.61 2240.46,1404.19 2267.07,1392.88 2293.68,1385.8 "></polyline>
<path clip-path="url(#clip020)" d="M1729.73 479.945 L2283.18 479.945 L2283.18 168.905 L1729.73 168.905  Z" fill="#f8f8ff" fill-rule="evenodd" fill-opacity="1"></path>
<polyline clip-path="url(#clip020)" style="stroke:#000000; stroke-linecap:round; stroke-linejoin:round; stroke-width:4; stroke-opacity:1; fill:none" points="1729.73,479.945 2283.18,479.945 2283.18,168.905 1729.73,168.905 1729.73,479.945 "></polyline>
<polyline clip-path="url(#clip020)" style="stroke:#a52a2a; stroke-linecap:round; stroke-linejoin:round; stroke-width:4; stroke-opacity:1; fill:none" points="1752.92,220.745 1892.07,220.745 "></polyline>
<path clip-path="url(#clip020)" d="M1934.04 225.085 Q1934.04 220.386 1932.09 217.724 Q1930.17 215.039 1926.79 215.039 Q1923.41 215.039 1921.47 217.724 Q1919.55 220.386 1919.55 225.085 Q1919.55 229.784 1921.47 232.469 Q1923.41 235.131 1926.79 235.131 Q1930.17 235.131 1932.09 232.469 Q1934.04 229.784 1934.04 225.085 M1919.55 216.034 Q1920.89 213.719 1922.93 212.608 Q1924.99 211.474 1927.84 211.474 Q1932.56 211.474 1935.5 215.224 Q1938.46 218.974 1938.46 225.085 Q1938.46 231.196 1935.5 234.946 Q1932.56 238.696 1927.84 238.696 Q1924.99 238.696 1922.93 237.585 Q1920.89 236.451 1919.55 234.136 L1919.55 238.025 L1915.27 238.025 L1915.27 202.006 L1919.55 202.006 L1919.55 216.034 Z" fill="#000000" fill-rule="nonzero" fill-opacity="1"></path><path clip-path="url(#clip020)" d="M1967.7 223.997 L1967.7 226.08 L1948.11 226.08 Q1948.39 230.478 1950.75 232.793 Q1953.14 235.085 1957.37 235.085 Q1959.83 235.085 1962.12 234.483 Q1964.43 233.881 1966.7 232.677 L1966.7 236.705 Q1964.41 237.677 1962 238.187 Q1959.59 238.696 1957.12 238.696 Q1950.91 238.696 1947.28 235.085 Q1943.67 231.474 1943.67 225.316 Q1943.67 218.951 1947.09 215.224 Q1950.54 211.474 1956.38 211.474 Q1961.61 211.474 1964.64 214.853 Q1967.7 218.21 1967.7 223.997 M1963.44 222.747 Q1963.39 219.252 1961.47 217.168 Q1959.57 215.085 1956.42 215.085 Q1952.86 215.085 1950.71 217.099 Q1948.58 219.113 1948.25 222.77 L1963.44 222.747 Z" fill="#000000" fill-rule="nonzero" fill-opacity="1"></path><path clip-path="url(#clip020)" d="M1991.75 216.034 L1991.75 202.006 L1996.01 202.006 L1996.01 238.025 L1991.75 238.025 L1991.75 234.136 Q1990.4 236.451 1988.34 237.585 Q1986.31 238.696 1983.44 238.696 Q1978.74 238.696 1975.78 234.946 Q1972.84 231.196 1972.84 225.085 Q1972.84 218.974 1975.78 215.224 Q1978.74 211.474 1983.44 211.474 Q1986.31 211.474 1988.34 212.608 Q1990.4 213.719 1991.75 216.034 M1977.23 225.085 Q1977.23 229.784 1979.15 232.469 Q1981.1 235.131 1984.48 235.131 Q1987.86 235.131 1989.8 232.469 Q1991.75 229.784 1991.75 225.085 Q1991.75 220.386 1989.8 217.724 Q1987.86 215.039 1984.48 215.039 Q1981.1 215.039 1979.15 217.724 Q1977.23 220.386 1977.23 225.085 Z" fill="#000000" fill-rule="nonzero" fill-opacity="1"></path><polyline clip-path="url(#clip020)" style="stroke:#0000ff; stroke-linecap:round; stroke-linejoin:round; stroke-width:4; stroke-opacity:1; fill:none" points="1752.92,272.585 1892.07,272.585 "></polyline>
<path clip-path="url(#clip020)" d="M1933.69 264.703 L1933.69 268.731 Q1931.89 267.805 1929.94 267.342 Q1928 266.879 1925.91 266.879 Q1922.74 266.879 1921.15 267.851 Q1919.57 268.823 1919.57 270.768 Q1919.57 272.249 1920.71 273.105 Q1921.84 273.939 1925.27 274.703 L1926.72 275.027 Q1931.26 275.999 1933.16 277.781 Q1935.08 279.541 1935.08 282.712 Q1935.08 286.323 1932.21 288.429 Q1929.36 290.536 1924.36 290.536 Q1922.28 290.536 1920.01 290.119 Q1917.77 289.726 1915.27 288.916 L1915.27 284.517 Q1917.63 285.744 1919.92 286.369 Q1922.21 286.971 1924.46 286.971 Q1927.47 286.971 1929.09 285.953 Q1930.71 284.911 1930.71 283.036 Q1930.71 281.3 1929.53 280.374 Q1928.37 279.448 1924.41 278.592 L1922.93 278.244 Q1918.97 277.411 1917.21 275.698 Q1915.45 273.962 1915.45 270.953 Q1915.45 267.295 1918.04 265.305 Q1920.64 263.314 1925.4 263.314 Q1927.77 263.314 1929.85 263.661 Q1931.93 264.008 1933.69 264.703 Z" fill="#000000" fill-rule="nonzero" fill-opacity="1"></path><path clip-path="url(#clip020)" d="M1941.42 279.633 L1941.42 263.939 L1945.68 263.939 L1945.68 279.471 Q1945.68 283.152 1947.12 285.004 Q1948.55 286.832 1951.42 286.832 Q1954.87 286.832 1956.86 284.633 Q1958.88 282.434 1958.88 278.638 L1958.88 263.939 L1963.14 263.939 L1963.14 289.865 L1958.88 289.865 L1958.88 285.883 Q1957.33 288.244 1955.27 289.402 Q1953.23 290.536 1950.52 290.536 Q1946.05 290.536 1943.74 287.758 Q1941.42 284.98 1941.42 279.633 M1952.14 263.314 L1952.14 263.314 Z" fill="#000000" fill-rule="nonzero" fill-opacity="1"></path><path clip-path="url(#clip020)" d="M1986.93 267.92 Q1986.21 267.504 1985.36 267.318 Q1984.53 267.11 1983.51 267.11 Q1979.9 267.11 1977.95 269.471 Q1976.03 271.809 1976.03 276.207 L1976.03 289.865 L1971.75 289.865 L1971.75 263.939 L1976.03 263.939 L1976.03 267.967 Q1977.37 265.606 1979.53 264.471 Q1981.68 263.314 1984.76 263.314 Q1985.2 263.314 1985.73 263.383 Q1986.26 263.43 1986.91 263.545 L1986.93 267.92 Z" fill="#000000" fill-rule="nonzero" fill-opacity="1"></path><path clip-path="url(#clip020)" d="M2004.52 253.846 L2004.52 257.388 L2000.45 257.388 Q1998.16 257.388 1997.26 258.314 Q1996.38 259.24 1996.38 261.647 L1996.38 263.939 L2003.39 263.939 L2003.39 267.249 L1996.38 267.249 L1996.38 289.865 L1992.09 289.865 L1992.09 267.249 L1988.02 267.249 L1988.02 263.939 L1992.09 263.939 L1992.09 262.133 Q1992.09 257.805 1994.11 255.837 Q1996.12 253.846 2000.5 253.846 L2004.52 253.846 Z" fill="#000000" fill-rule="nonzero" fill-opacity="1"></path><path clip-path="url(#clip020)" d="M2019.87 276.832 Q2014.71 276.832 2012.72 278.013 Q2010.73 279.193 2010.73 282.041 Q2010.73 284.309 2012.21 285.652 Q2013.71 286.971 2016.28 286.971 Q2019.83 286.971 2021.96 284.471 Q2024.11 281.948 2024.11 277.781 L2024.11 276.832 L2019.87 276.832 M2028.37 275.073 L2028.37 289.865 L2024.11 289.865 L2024.11 285.929 Q2022.65 288.291 2020.47 289.425 Q2018.3 290.536 2015.15 290.536 Q2011.17 290.536 2008.81 288.314 Q2006.47 286.068 2006.47 282.318 Q2006.47 277.943 2009.39 275.721 Q2012.33 273.499 2018.14 273.499 L2024.11 273.499 L2024.11 273.082 Q2024.11 270.143 2022.16 268.545 Q2020.24 266.925 2016.75 266.925 Q2014.52 266.925 2012.42 267.457 Q2010.31 267.99 2008.37 269.055 L2008.37 265.119 Q2010.71 264.217 2012.9 263.777 Q2015.1 263.314 2017.19 263.314 Q2022.81 263.314 2025.59 266.231 Q2028.37 269.147 2028.37 275.073 Z" fill="#000000" fill-rule="nonzero" fill-opacity="1"></path><path clip-path="url(#clip020)" d="M2055.8 264.934 L2055.8 268.916 Q2053.99 267.92 2052.16 267.434 Q2050.36 266.925 2048.51 266.925 Q2044.36 266.925 2042.07 269.564 Q2039.78 272.18 2039.78 276.925 Q2039.78 281.67 2042.07 284.309 Q2044.36 286.925 2048.51 286.925 Q2050.36 286.925 2052.16 286.439 Q2053.99 285.929 2055.8 284.934 L2055.8 288.869 Q2054.02 289.703 2052.09 290.119 Q2050.2 290.536 2048.04 290.536 Q2042.19 290.536 2038.74 286.855 Q2035.29 283.175 2035.29 276.925 Q2035.29 270.582 2038.76 266.948 Q2042.26 263.314 2048.32 263.314 Q2050.29 263.314 2052.16 263.731 Q2054.04 264.124 2055.8 264.934 Z" fill="#000000" fill-rule="nonzero" fill-opacity="1"></path><path clip-path="url(#clip020)" d="M2085.38 275.837 L2085.38 277.92 L2065.8 277.92 Q2066.08 282.318 2068.44 284.633 Q2070.82 286.925 2075.06 286.925 Q2077.51 286.925 2079.8 286.323 Q2082.12 285.721 2084.39 284.517 L2084.39 288.545 Q2082.09 289.517 2079.69 290.027 Q2077.28 290.536 2074.8 290.536 Q2068.6 290.536 2064.96 286.925 Q2061.35 283.314 2061.35 277.156 Q2061.35 270.791 2064.78 267.064 Q2068.23 263.314 2074.06 263.314 Q2079.29 263.314 2082.33 266.693 Q2085.38 270.05 2085.38 275.837 M2081.12 274.587 Q2081.08 271.092 2079.15 269.008 Q2077.26 266.925 2074.11 266.925 Q2070.54 266.925 2068.39 268.939 Q2066.26 270.953 2065.94 274.61 L2081.12 274.587 Z" fill="#000000" fill-rule="nonzero" fill-opacity="1"></path><path clip-path="url(#clip020)" d="M2123.97 264.703 L2123.97 268.731 Q2122.16 267.805 2120.22 267.342 Q2118.27 266.879 2116.19 266.879 Q2113.02 266.879 2111.42 267.851 Q2109.85 268.823 2109.85 270.768 Q2109.85 272.249 2110.98 273.105 Q2112.12 273.939 2115.54 274.703 L2117 275.027 Q2121.54 275.999 2123.44 277.781 Q2125.36 279.541 2125.36 282.712 Q2125.36 286.323 2122.49 288.429 Q2119.64 290.536 2114.64 290.536 Q2112.56 290.536 2110.29 290.119 Q2108.04 289.726 2105.54 288.916 L2105.54 284.517 Q2107.9 285.744 2110.2 286.369 Q2112.49 286.971 2114.73 286.971 Q2117.74 286.971 2119.36 285.953 Q2120.98 284.911 2120.98 283.036 Q2120.98 281.3 2119.8 280.374 Q2118.64 279.448 2114.69 278.592 L2113.2 278.244 Q2109.25 277.411 2107.49 275.698 Q2105.73 273.962 2105.73 270.953 Q2105.73 267.295 2108.32 265.305 Q2110.91 263.314 2115.68 263.314 Q2118.04 263.314 2120.13 263.661 Q2122.21 264.008 2123.97 264.703 Z" fill="#000000" fill-rule="nonzero" fill-opacity="1"></path><path clip-path="url(#clip020)" d="M2142.19 266.925 Q2138.76 266.925 2136.77 269.61 Q2134.78 272.272 2134.78 276.925 Q2134.78 281.578 2136.75 284.263 Q2138.74 286.925 2142.19 286.925 Q2145.59 286.925 2147.58 284.24 Q2149.57 281.555 2149.57 276.925 Q2149.57 272.318 2147.58 269.633 Q2145.59 266.925 2142.19 266.925 M2142.19 263.314 Q2147.74 263.314 2150.91 266.925 Q2154.08 270.536 2154.08 276.925 Q2154.08 283.291 2150.91 286.925 Q2147.74 290.536 2142.19 290.536 Q2136.61 290.536 2133.44 286.925 Q2130.29 283.291 2130.29 276.925 Q2130.29 270.536 2133.44 266.925 Q2136.61 263.314 2142.19 263.314 Z" fill="#000000" fill-rule="nonzero" fill-opacity="1"></path><path clip-path="url(#clip020)" d="M2161.14 253.846 L2165.4 253.846 L2165.4 289.865 L2161.14 289.865 L2161.14 253.846 Z" fill="#000000" fill-rule="nonzero" fill-opacity="1"></path><path clip-path="url(#clip020)" d="M2171.26 263.939 L2175.77 263.939 L2183.88 285.698 L2191.98 263.939 L2196.49 263.939 L2186.77 289.865 L2180.98 289.865 L2171.26 263.939 Z" fill="#000000" fill-rule="nonzero" fill-opacity="1"></path><path clip-path="url(#clip020)" d="M2224.55 275.837 L2224.55 277.92 L2204.96 277.92 Q2205.24 282.318 2207.6 284.633 Q2209.99 286.925 2214.22 286.925 Q2216.68 286.925 2218.97 286.323 Q2221.28 285.721 2223.55 284.517 L2223.55 288.545 Q2221.26 289.517 2218.85 290.027 Q2216.45 290.536 2213.97 290.536 Q2207.76 290.536 2204.13 286.925 Q2200.52 283.314 2200.52 277.156 Q2200.52 270.791 2203.95 267.064 Q2207.39 263.314 2213.23 263.314 Q2218.46 263.314 2221.49 266.693 Q2224.55 270.05 2224.55 275.837 M2220.29 274.587 Q2220.24 271.092 2218.32 269.008 Q2216.42 266.925 2213.27 266.925 Q2209.71 266.925 2207.56 268.939 Q2205.43 270.953 2205.1 274.61 L2220.29 274.587 Z" fill="#000000" fill-rule="nonzero" fill-opacity="1"></path><path clip-path="url(#clip020)" d="M2246.56 267.92 Q2245.84 267.504 2244.99 267.318 Q2244.15 267.11 2243.13 267.11 Q2239.52 267.11 2237.58 269.471 Q2235.66 271.809 2235.66 276.207 L2235.66 289.865 L2231.38 289.865 L2231.38 263.939 L2235.66 263.939 L2235.66 267.967 Q2237 265.606 2239.15 264.471 Q2241.31 263.314 2244.38 263.314 Q2244.82 263.314 2245.36 263.383 Q2245.89 263.43 2246.54 263.545 L2246.56 267.92 Z" fill="#000000" fill-rule="nonzero" fill-opacity="1"></path><polyline clip-path="url(#clip020)" style="stroke:#ff0000; stroke-linecap:round; stroke-linejoin:round; stroke-width:4; stroke-opacity:1; fill:none" points="1752.92,324.425 1892.07,324.425 "></polyline>
<path clip-path="url(#clip020)" d="M1933.69 316.543 L1933.69 320.571 Q1931.89 319.645 1929.94 319.182 Q1928 318.719 1925.91 318.719 Q1922.74 318.719 1921.15 319.691 Q1919.57 320.663 1919.57 322.608 Q1919.57 324.089 1920.71 324.945 Q1921.84 325.779 1925.27 326.543 L1926.72 326.867 Q1931.26 327.839 1933.16 329.621 Q1935.08 331.381 1935.08 334.552 Q1935.08 338.163 1932.21 340.269 Q1929.36 342.376 1924.36 342.376 Q1922.28 342.376 1920.01 341.959 Q1917.77 341.566 1915.27 340.756 L1915.27 336.357 Q1917.63 337.584 1919.92 338.209 Q1922.21 338.811 1924.46 338.811 Q1927.47 338.811 1929.09 337.793 Q1930.71 336.751 1930.71 334.876 Q1930.71 333.14 1929.53 332.214 Q1928.37 331.288 1924.41 330.432 L1922.93 330.084 Q1918.97 329.251 1917.21 327.538 Q1915.45 325.802 1915.45 322.793 Q1915.45 319.135 1918.04 317.145 Q1920.64 315.154 1925.4 315.154 Q1927.77 315.154 1929.85 315.501 Q1931.93 315.848 1933.69 316.543 Z" fill="#000000" fill-rule="nonzero" fill-opacity="1"></path><path clip-path="url(#clip020)" d="M1941.42 331.473 L1941.42 315.779 L1945.68 315.779 L1945.68 331.311 Q1945.68 334.992 1947.12 336.844 Q1948.55 338.672 1951.42 338.672 Q1954.87 338.672 1956.86 336.473 Q1958.88 334.274 1958.88 330.478 L1958.88 315.779 L1963.14 315.779 L1963.14 341.705 L1958.88 341.705 L1958.88 337.723 Q1957.33 340.084 1955.27 341.242 Q1953.23 342.376 1950.52 342.376 Q1946.05 342.376 1943.74 339.598 Q1941.42 336.82 1941.42 331.473 M1952.14 315.154 L1952.14 315.154 Z" fill="#000000" fill-rule="nonzero" fill-opacity="1"></path><path clip-path="url(#clip020)" d="M1986.93 319.76 Q1986.21 319.344 1985.36 319.158 Q1984.53 318.95 1983.51 318.95 Q1979.9 318.95 1977.95 321.311 Q1976.03 323.649 1976.03 328.047 L1976.03 341.705 L1971.75 341.705 L1971.75 315.779 L1976.03 315.779 L1976.03 319.807 Q1977.37 317.446 1979.53 316.311 Q1981.68 315.154 1984.76 315.154 Q1985.2 315.154 1985.73 315.223 Q1986.26 315.27 1986.91 315.385 L1986.93 319.76 Z" fill="#000000" fill-rule="nonzero" fill-opacity="1"></path><path clip-path="url(#clip020)" d="M2004.52 305.686 L2004.52 309.228 L2000.45 309.228 Q1998.16 309.228 1997.26 310.154 Q1996.38 311.08 1996.38 313.487 L1996.38 315.779 L2003.39 315.779 L2003.39 319.089 L1996.38 319.089 L1996.38 341.705 L1992.09 341.705 L1992.09 319.089 L1988.02 319.089 L1988.02 315.779 L1992.09 315.779 L1992.09 313.973 Q1992.09 309.645 1994.11 307.677 Q1996.12 305.686 2000.5 305.686 L2004.52 305.686 Z" fill="#000000" fill-rule="nonzero" fill-opacity="1"></path><path clip-path="url(#clip020)" d="M2019.87 328.672 Q2014.71 328.672 2012.72 329.853 Q2010.73 331.033 2010.73 333.881 Q2010.73 336.149 2012.21 337.492 Q2013.71 338.811 2016.28 338.811 Q2019.83 338.811 2021.96 336.311 Q2024.11 333.788 2024.11 329.621 L2024.11 328.672 L2019.87 328.672 M2028.37 326.913 L2028.37 341.705 L2024.11 341.705 L2024.11 337.769 Q2022.65 340.131 2020.47 341.265 Q2018.3 342.376 2015.15 342.376 Q2011.17 342.376 2008.81 340.154 Q2006.47 337.908 2006.47 334.158 Q2006.47 329.783 2009.39 327.561 Q2012.33 325.339 2018.14 325.339 L2024.11 325.339 L2024.11 324.922 Q2024.11 321.983 2022.16 320.385 Q2020.24 318.765 2016.75 318.765 Q2014.52 318.765 2012.42 319.297 Q2010.31 319.83 2008.37 320.895 L2008.37 316.959 Q2010.71 316.057 2012.9 315.617 Q2015.1 315.154 2017.19 315.154 Q2022.81 315.154 2025.59 318.071 Q2028.37 320.987 2028.37 326.913 Z" fill="#000000" fill-rule="nonzero" fill-opacity="1"></path><path clip-path="url(#clip020)" d="M2055.8 316.774 L2055.8 320.756 Q2053.99 319.76 2052.16 319.274 Q2050.36 318.765 2048.51 318.765 Q2044.36 318.765 2042.07 321.404 Q2039.78 324.02 2039.78 328.765 Q2039.78 333.51 2042.07 336.149 Q2044.36 338.765 2048.51 338.765 Q2050.36 338.765 2052.16 338.279 Q2053.99 337.769 2055.8 336.774 L2055.8 340.709 Q2054.02 341.543 2052.09 341.959 Q2050.2 342.376 2048.04 342.376 Q2042.19 342.376 2038.74 338.695 Q2035.29 335.015 2035.29 328.765 Q2035.29 322.422 2038.76 318.788 Q2042.26 315.154 2048.32 315.154 Q2050.29 315.154 2052.16 315.571 Q2054.04 315.964 2055.8 316.774 Z" fill="#000000" fill-rule="nonzero" fill-opacity="1"></path><path clip-path="url(#clip020)" d="M2085.38 327.677 L2085.38 329.76 L2065.8 329.76 Q2066.08 334.158 2068.44 336.473 Q2070.82 338.765 2075.06 338.765 Q2077.51 338.765 2079.8 338.163 Q2082.12 337.561 2084.39 336.357 L2084.39 340.385 Q2082.09 341.357 2079.69 341.867 Q2077.28 342.376 2074.8 342.376 Q2068.6 342.376 2064.96 338.765 Q2061.35 335.154 2061.35 328.996 Q2061.35 322.631 2064.78 318.904 Q2068.23 315.154 2074.06 315.154 Q2079.29 315.154 2082.33 318.533 Q2085.38 321.89 2085.38 327.677 M2081.12 326.427 Q2081.08 322.932 2079.15 320.848 Q2077.26 318.765 2074.11 318.765 Q2070.54 318.765 2068.39 320.779 Q2066.26 322.793 2065.94 326.45 L2081.12 326.427 Z" fill="#000000" fill-rule="nonzero" fill-opacity="1"></path><path clip-path="url(#clip020)" d="M2122.46 319.76 Q2121.75 319.344 2120.89 319.158 Q2120.06 318.95 2119.04 318.95 Q2115.43 318.95 2113.48 321.311 Q2111.56 323.649 2111.56 328.047 L2111.56 341.705 L2107.28 341.705 L2107.28 315.779 L2111.56 315.779 L2111.56 319.807 Q2112.9 317.446 2115.06 316.311 Q2117.21 315.154 2120.29 315.154 Q2120.73 315.154 2121.26 315.223 Q2121.79 315.27 2122.44 315.385 L2122.46 319.76 Z" fill="#000000" fill-rule="nonzero" fill-opacity="1"></path><path clip-path="url(#clip020)" d="M2138.71 328.672 Q2133.55 328.672 2131.56 329.853 Q2129.57 331.033 2129.57 333.881 Q2129.57 336.149 2131.05 337.492 Q2132.56 338.811 2135.13 338.811 Q2138.67 338.811 2140.8 336.311 Q2142.95 333.788 2142.95 329.621 L2142.95 328.672 L2138.71 328.672 M2147.21 326.913 L2147.21 341.705 L2142.95 341.705 L2142.95 337.769 Q2141.49 340.131 2139.32 341.265 Q2137.14 342.376 2133.99 342.376 Q2130.01 342.376 2127.65 340.154 Q2125.31 337.908 2125.31 334.158 Q2125.31 329.783 2128.23 327.561 Q2131.17 325.339 2136.98 325.339 L2142.95 325.339 L2142.95 324.922 Q2142.95 321.983 2141.01 320.385 Q2139.08 318.765 2135.59 318.765 Q2133.37 318.765 2131.26 319.297 Q2129.15 319.83 2127.21 320.895 L2127.21 316.959 Q2129.55 316.057 2131.75 315.617 Q2133.95 315.154 2136.03 315.154 Q2141.65 315.154 2144.43 318.071 Q2147.21 320.987 2147.21 326.913 Z" fill="#000000" fill-rule="nonzero" fill-opacity="1"></path><path clip-path="url(#clip020)" d="M2153.51 315.779 L2157.76 315.779 L2163.09 336.01 L2168.39 315.779 L2173.41 315.779 L2178.74 336.01 L2184.04 315.779 L2188.3 315.779 L2181.51 341.705 L2176.49 341.705 L2170.91 320.455 L2165.31 341.705 L2160.29 341.705 L2153.51 315.779 Z" fill="#000000" fill-rule="nonzero" fill-opacity="1"></path><polyline clip-path="url(#clip020)" style="stroke:#008000; stroke-linecap:round; stroke-linejoin:round; stroke-width:4; stroke-opacity:1; fill:none" points="1752.92,376.265 1892.07,376.265 "></polyline>
<path clip-path="url(#clip020)" d="M1933.69 368.383 L1933.69 372.411 Q1931.89 371.485 1929.94 371.022 Q1928 370.559 1925.91 370.559 Q1922.74 370.559 1921.15 371.531 Q1919.57 372.503 1919.57 374.448 Q1919.57 375.929 1920.71 376.785 Q1921.84 377.619 1925.27 378.383 L1926.72 378.707 Q1931.26 379.679 1933.16 381.461 Q1935.08 383.221 1935.08 386.392 Q1935.08 390.003 1932.21 392.109 Q1929.36 394.216 1924.36 394.216 Q1922.28 394.216 1920.01 393.799 Q1917.77 393.406 1915.27 392.596 L1915.27 388.197 Q1917.63 389.424 1919.92 390.049 Q1922.21 390.651 1924.46 390.651 Q1927.47 390.651 1929.09 389.633 Q1930.71 388.591 1930.71 386.716 Q1930.71 384.98 1929.53 384.054 Q1928.37 383.128 1924.41 382.272 L1922.93 381.924 Q1918.97 381.091 1917.21 379.378 Q1915.45 377.642 1915.45 374.633 Q1915.45 370.975 1918.04 368.985 Q1920.64 366.994 1925.4 366.994 Q1927.77 366.994 1929.85 367.341 Q1931.93 367.688 1933.69 368.383 Z" fill="#000000" fill-rule="nonzero" fill-opacity="1"></path><path clip-path="url(#clip020)" d="M1941.42 383.313 L1941.42 367.619 L1945.68 367.619 L1945.68 383.151 Q1945.68 386.832 1947.12 388.684 Q1948.55 390.512 1951.42 390.512 Q1954.87 390.512 1956.86 388.313 Q1958.88 386.114 1958.88 382.318 L1958.88 367.619 L1963.14 367.619 L1963.14 393.545 L1958.88 393.545 L1958.88 389.563 Q1957.33 391.924 1955.27 393.082 Q1953.23 394.216 1950.52 394.216 Q1946.05 394.216 1943.74 391.438 Q1941.42 388.66 1941.42 383.313 M1952.14 366.994 L1952.14 366.994 Z" fill="#000000" fill-rule="nonzero" fill-opacity="1"></path><path clip-path="url(#clip020)" d="M1986.93 371.6 Q1986.21 371.184 1985.36 370.998 Q1984.53 370.79 1983.51 370.79 Q1979.9 370.79 1977.95 373.151 Q1976.03 375.489 1976.03 379.887 L1976.03 393.545 L1971.75 393.545 L1971.75 367.619 L1976.03 367.619 L1976.03 371.647 Q1977.37 369.286 1979.53 368.151 Q1981.68 366.994 1984.76 366.994 Q1985.2 366.994 1985.73 367.063 Q1986.26 367.11 1986.91 367.225 L1986.93 371.6 Z" fill="#000000" fill-rule="nonzero" fill-opacity="1"></path><path clip-path="url(#clip020)" d="M2004.52 357.526 L2004.52 361.068 L2000.45 361.068 Q1998.16 361.068 1997.26 361.994 Q1996.38 362.92 1996.38 365.327 L1996.38 367.619 L2003.39 367.619 L2003.39 370.929 L1996.38 370.929 L1996.38 393.545 L1992.09 393.545 L1992.09 370.929 L1988.02 370.929 L1988.02 367.619 L1992.09 367.619 L1992.09 365.813 Q1992.09 361.485 1994.11 359.517 Q1996.12 357.526 2000.5 357.526 L2004.52 357.526 Z" fill="#000000" fill-rule="nonzero" fill-opacity="1"></path><path clip-path="url(#clip020)" d="M2019.87 380.512 Q2014.71 380.512 2012.72 381.693 Q2010.73 382.873 2010.73 385.721 Q2010.73 387.989 2012.21 389.332 Q2013.71 390.651 2016.28 390.651 Q2019.83 390.651 2021.96 388.151 Q2024.11 385.628 2024.11 381.461 L2024.11 380.512 L2019.87 380.512 M2028.37 378.753 L2028.37 393.545 L2024.11 393.545 L2024.11 389.609 Q2022.65 391.971 2020.47 393.105 Q2018.3 394.216 2015.15 394.216 Q2011.17 394.216 2008.81 391.994 Q2006.47 389.748 2006.47 385.998 Q2006.47 381.623 2009.39 379.401 Q2012.33 377.179 2018.14 377.179 L2024.11 377.179 L2024.11 376.762 Q2024.11 373.823 2022.16 372.225 Q2020.24 370.605 2016.75 370.605 Q2014.52 370.605 2012.42 371.137 Q2010.31 371.67 2008.37 372.735 L2008.37 368.799 Q2010.71 367.897 2012.9 367.457 Q2015.1 366.994 2017.19 366.994 Q2022.81 366.994 2025.59 369.911 Q2028.37 372.827 2028.37 378.753 Z" fill="#000000" fill-rule="nonzero" fill-opacity="1"></path><path clip-path="url(#clip020)" d="M2055.8 368.614 L2055.8 372.596 Q2053.99 371.6 2052.16 371.114 Q2050.36 370.605 2048.51 370.605 Q2044.36 370.605 2042.07 373.244 Q2039.78 375.86 2039.78 380.605 Q2039.78 385.35 2042.07 387.989 Q2044.36 390.605 2048.51 390.605 Q2050.36 390.605 2052.16 390.119 Q2053.99 389.609 2055.8 388.614 L2055.8 392.549 Q2054.02 393.383 2052.09 393.799 Q2050.2 394.216 2048.04 394.216 Q2042.19 394.216 2038.74 390.535 Q2035.29 386.855 2035.29 380.605 Q2035.29 374.262 2038.76 370.628 Q2042.26 366.994 2048.32 366.994 Q2050.29 366.994 2052.16 367.411 Q2054.04 367.804 2055.8 368.614 Z" fill="#000000" fill-rule="nonzero" fill-opacity="1"></path><path clip-path="url(#clip020)" d="M2085.38 379.517 L2085.38 381.6 L2065.8 381.6 Q2066.08 385.998 2068.44 388.313 Q2070.82 390.605 2075.06 390.605 Q2077.51 390.605 2079.8 390.003 Q2082.12 389.401 2084.39 388.197 L2084.39 392.225 Q2082.09 393.197 2079.69 393.707 Q2077.28 394.216 2074.8 394.216 Q2068.6 394.216 2064.96 390.605 Q2061.35 386.994 2061.35 380.836 Q2061.35 374.471 2064.78 370.744 Q2068.23 366.994 2074.06 366.994 Q2079.29 366.994 2082.33 370.373 Q2085.38 373.73 2085.38 379.517 M2081.12 378.267 Q2081.08 374.772 2079.15 372.688 Q2077.26 370.605 2074.11 370.605 Q2070.54 370.605 2068.39 372.619 Q2066.26 374.633 2065.94 378.29 L2081.12 378.267 Z" fill="#000000" fill-rule="nonzero" fill-opacity="1"></path><path clip-path="url(#clip020)" d="M2107.44 367.619 L2111.7 367.619 L2111.7 393.545 L2107.44 393.545 L2107.44 367.619 M2107.44 357.526 L2111.7 357.526 L2111.7 362.92 L2107.44 362.92 L2107.44 357.526 Z" fill="#000000" fill-rule="nonzero" fill-opacity="1"></path><path clip-path="url(#clip020)" d="M2142.16 377.897 L2142.16 393.545 L2137.9 393.545 L2137.9 378.035 Q2137.9 374.355 2136.47 372.526 Q2135.03 370.698 2132.16 370.698 Q2128.71 370.698 2126.72 372.897 Q2124.73 375.096 2124.73 378.892 L2124.73 393.545 L2120.45 393.545 L2120.45 367.619 L2124.73 367.619 L2124.73 371.647 Q2126.26 369.309 2128.32 368.151 Q2130.4 366.994 2133.11 366.994 Q2137.58 366.994 2139.87 369.772 Q2142.16 372.526 2142.16 377.897 Z" fill="#000000" fill-rule="nonzero" fill-opacity="1"></path><path clip-path="url(#clip020)" d="M2150.66 367.619 L2154.92 367.619 L2154.92 393.545 L2150.66 393.545 L2150.66 367.619 M2150.66 357.526 L2154.92 357.526 L2154.92 362.92 L2150.66 362.92 L2150.66 357.526 Z" fill="#000000" fill-rule="nonzero" fill-opacity="1"></path><path clip-path="url(#clip020)" d="M2168.04 360.258 L2168.04 367.619 L2176.82 367.619 L2176.82 370.929 L2168.04 370.929 L2168.04 385.003 Q2168.04 388.174 2168.9 389.077 Q2169.78 389.98 2172.44 389.98 L2176.82 389.98 L2176.82 393.545 L2172.44 393.545 Q2167.51 393.545 2165.64 391.716 Q2163.76 389.864 2163.76 385.003 L2163.76 370.929 L2160.64 370.929 L2160.64 367.619 L2163.76 367.619 L2163.76 360.258 L2168.04 360.258 Z" fill="#000000" fill-rule="nonzero" fill-opacity="1"></path><path clip-path="url(#clip020)" d="M2182.42 367.619 L2186.68 367.619 L2186.68 393.545 L2182.42 393.545 L2182.42 367.619 M2182.42 357.526 L2186.68 357.526 L2186.68 362.92 L2182.42 362.92 L2182.42 357.526 Z" fill="#000000" fill-rule="nonzero" fill-opacity="1"></path><path clip-path="url(#clip020)" d="M2207.37 380.512 Q2202.21 380.512 2200.22 381.693 Q2198.23 382.873 2198.23 385.721 Q2198.23 387.989 2199.71 389.332 Q2201.21 390.651 2203.78 390.651 Q2207.32 390.651 2209.45 388.151 Q2211.61 385.628 2211.61 381.461 L2211.61 380.512 L2207.37 380.512 M2215.87 378.753 L2215.87 393.545 L2211.61 393.545 L2211.61 389.609 Q2210.15 391.971 2207.97 393.105 Q2205.8 394.216 2202.65 394.216 Q2198.67 394.216 2196.31 391.994 Q2193.97 389.748 2193.97 385.998 Q2193.97 381.623 2196.89 379.401 Q2199.82 377.179 2205.63 377.179 L2211.61 377.179 L2211.61 376.762 Q2211.61 373.823 2209.66 372.225 Q2207.74 370.605 2204.25 370.605 Q2202.02 370.605 2199.92 371.137 Q2197.81 371.67 2195.87 372.735 L2195.87 368.799 Q2198.2 367.897 2200.4 367.457 Q2202.6 366.994 2204.69 366.994 Q2210.31 366.994 2213.09 369.911 Q2215.87 372.827 2215.87 378.753 Z" fill="#000000" fill-rule="nonzero" fill-opacity="1"></path><path clip-path="url(#clip020)" d="M2224.64 357.526 L2228.9 357.526 L2228.9 393.545 L2224.64 393.545 L2224.64 357.526 Z" fill="#000000" fill-rule="nonzero" fill-opacity="1"></path><path clip-path="url(#clip020)" d="M2259.99 379.517 L2259.99 381.6 L2240.4 381.6 Q2240.68 385.998 2243.04 388.313 Q2245.43 390.605 2249.66 390.605 Q2252.12 390.605 2254.41 390.003 Q2256.72 389.401 2258.99 388.197 L2258.99 392.225 Q2256.7 393.197 2254.29 393.707 Q2251.88 394.216 2249.41 394.216 Q2243.2 394.216 2239.57 390.605 Q2235.96 386.994 2235.96 380.836 Q2235.96 374.471 2239.38 370.744 Q2242.83 366.994 2248.67 366.994 Q2253.9 366.994 2256.93 370.373 Q2259.99 373.73 2259.99 379.517 M2255.73 378.267 Q2255.68 374.772 2253.76 372.688 Q2251.86 370.605 2248.71 370.605 Q2245.15 370.605 2243 372.619 Q2240.87 374.633 2240.54 378.29 L2255.73 378.267 Z" fill="#000000" fill-rule="nonzero" fill-opacity="1"></path><polyline clip-path="url(#clip020)" style="stroke:#000000; stroke-linecap:round; stroke-linejoin:round; stroke-width:4; stroke-opacity:1; fill:none" stroke-dasharray="16, 10" points="1752.92,428.105 1892.07,428.105 "></polyline>
<path clip-path="url(#clip020)" d="M1933.69 420.223 L1933.69 424.251 Q1931.89 423.325 1929.94 422.862 Q1928 422.399 1925.91 422.399 Q1922.74 422.399 1921.15 423.371 Q1919.57 424.343 1919.57 426.288 Q1919.57 427.769 1920.71 428.625 Q1921.84 429.459 1925.27 430.223 L1926.72 430.547 Q1931.26 431.519 1933.16 433.301 Q1935.08 435.061 1935.08 438.232 Q1935.08 441.843 1932.21 443.949 Q1929.36 446.056 1924.36 446.056 Q1922.28 446.056 1920.01 445.639 Q1917.77 445.246 1915.27 444.436 L1915.27 440.037 Q1917.63 441.264 1919.92 441.889 Q1922.21 442.491 1924.46 442.491 Q1927.47 442.491 1929.09 441.473 Q1930.71 440.431 1930.71 438.556 Q1930.71 436.82 1929.53 435.894 Q1928.37 434.968 1924.41 434.112 L1922.93 433.764 Q1918.97 432.931 1917.21 431.218 Q1915.45 429.482 1915.45 426.473 Q1915.45 422.815 1918.04 420.825 Q1920.64 418.834 1925.4 418.834 Q1927.77 418.834 1929.85 419.181 Q1931.93 419.528 1933.69 420.223 Z" fill="#000000" fill-rule="nonzero" fill-opacity="1"></path><path clip-path="url(#clip020)" d="M1941.42 435.153 L1941.42 419.459 L1945.68 419.459 L1945.68 434.991 Q1945.68 438.672 1947.12 440.524 Q1948.55 442.352 1951.42 442.352 Q1954.87 442.352 1956.86 440.153 Q1958.88 437.954 1958.88 434.158 L1958.88 419.459 L1963.14 419.459 L1963.14 445.385 L1958.88 445.385 L1958.88 441.403 Q1957.33 443.764 1955.27 444.922 Q1953.23 446.056 1950.52 446.056 Q1946.05 446.056 1943.74 443.278 Q1941.42 440.5 1941.42 435.153 M1952.14 418.834 L1952.14 418.834 Z" fill="#000000" fill-rule="nonzero" fill-opacity="1"></path><path clip-path="url(#clip020)" d="M1986.93 423.44 Q1986.21 423.024 1985.36 422.838 Q1984.53 422.63 1983.51 422.63 Q1979.9 422.63 1977.95 424.991 Q1976.03 427.329 1976.03 431.727 L1976.03 445.385 L1971.75 445.385 L1971.75 419.459 L1976.03 419.459 L1976.03 423.487 Q1977.37 421.126 1979.53 419.991 Q1981.68 418.834 1984.76 418.834 Q1985.2 418.834 1985.73 418.903 Q1986.26 418.95 1986.91 419.065 L1986.93 423.44 Z" fill="#000000" fill-rule="nonzero" fill-opacity="1"></path><path clip-path="url(#clip020)" d="M2004.52 409.366 L2004.52 412.908 L2000.45 412.908 Q1998.16 412.908 1997.26 413.834 Q1996.38 414.76 1996.38 417.167 L1996.38 419.459 L2003.39 419.459 L2003.39 422.769 L1996.38 422.769 L1996.38 445.385 L1992.09 445.385 L1992.09 422.769 L1988.02 422.769 L1988.02 419.459 L1992.09 419.459 L1992.09 417.653 Q1992.09 413.325 1994.11 411.357 Q1996.12 409.366 2000.5 409.366 L2004.52 409.366 Z" fill="#000000" fill-rule="nonzero" fill-opacity="1"></path><path clip-path="url(#clip020)" d="M2019.87 432.352 Q2014.71 432.352 2012.72 433.533 Q2010.73 434.713 2010.73 437.561 Q2010.73 439.829 2012.21 441.172 Q2013.71 442.491 2016.28 442.491 Q2019.83 442.491 2021.96 439.991 Q2024.11 437.468 2024.11 433.301 L2024.11 432.352 L2019.87 432.352 M2028.37 430.593 L2028.37 445.385 L2024.11 445.385 L2024.11 441.449 Q2022.65 443.811 2020.47 444.945 Q2018.3 446.056 2015.15 446.056 Q2011.17 446.056 2008.81 443.834 Q2006.47 441.588 2006.47 437.838 Q2006.47 433.463 2009.39 431.241 Q2012.33 429.019 2018.14 429.019 L2024.11 429.019 L2024.11 428.602 Q2024.11 425.663 2022.16 424.065 Q2020.24 422.445 2016.75 422.445 Q2014.52 422.445 2012.42 422.977 Q2010.31 423.51 2008.37 424.575 L2008.37 420.639 Q2010.71 419.737 2012.9 419.297 Q2015.1 418.834 2017.19 418.834 Q2022.81 418.834 2025.59 421.751 Q2028.37 424.667 2028.37 430.593 Z" fill="#000000" fill-rule="nonzero" fill-opacity="1"></path><path clip-path="url(#clip020)" d="M2055.8 420.454 L2055.8 424.436 Q2053.99 423.44 2052.16 422.954 Q2050.36 422.445 2048.51 422.445 Q2044.36 422.445 2042.07 425.084 Q2039.78 427.7 2039.78 432.445 Q2039.78 437.19 2042.07 439.829 Q2044.36 442.445 2048.51 442.445 Q2050.36 442.445 2052.16 441.959 Q2053.99 441.449 2055.8 440.454 L2055.8 444.389 Q2054.02 445.223 2052.09 445.639 Q2050.2 446.056 2048.04 446.056 Q2042.19 446.056 2038.74 442.375 Q2035.29 438.695 2035.29 432.445 Q2035.29 426.102 2038.76 422.468 Q2042.26 418.834 2048.32 418.834 Q2050.29 418.834 2052.16 419.251 Q2054.04 419.644 2055.8 420.454 Z" fill="#000000" fill-rule="nonzero" fill-opacity="1"></path><path clip-path="url(#clip020)" d="M2085.38 431.357 L2085.38 433.44 L2065.8 433.44 Q2066.08 437.838 2068.44 440.153 Q2070.82 442.445 2075.06 442.445 Q2077.51 442.445 2079.8 441.843 Q2082.12 441.241 2084.39 440.037 L2084.39 444.065 Q2082.09 445.037 2079.69 445.547 Q2077.28 446.056 2074.8 446.056 Q2068.6 446.056 2064.96 442.445 Q2061.35 438.834 2061.35 432.676 Q2061.35 426.311 2064.78 422.584 Q2068.23 418.834 2074.06 418.834 Q2079.29 418.834 2082.33 422.213 Q2085.38 425.57 2085.38 431.357 M2081.12 430.107 Q2081.08 426.612 2079.15 424.528 Q2077.26 422.445 2074.11 422.445 Q2070.54 422.445 2068.39 424.459 Q2066.26 426.473 2065.94 430.13 L2081.12 430.107 Z" fill="#000000" fill-rule="nonzero" fill-opacity="1"></path><path clip-path="url(#clip020)" d="M2117.49 422.445 Q2114.06 422.445 2112.07 425.13 Q2110.08 427.792 2110.08 432.445 Q2110.08 437.098 2112.05 439.783 Q2114.04 442.445 2117.49 442.445 Q2120.89 442.445 2122.88 439.76 Q2124.87 437.075 2124.87 432.445 Q2124.87 427.838 2122.88 425.153 Q2120.89 422.445 2117.49 422.445 M2117.49 418.834 Q2123.04 418.834 2126.21 422.445 Q2129.39 426.056 2129.39 432.445 Q2129.39 438.811 2126.21 442.445 Q2123.04 446.056 2117.49 446.056 Q2111.91 446.056 2108.74 442.445 Q2105.59 438.811 2105.59 432.445 Q2105.59 426.056 2108.74 422.445 Q2111.91 418.834 2117.49 418.834 Z" fill="#000000" fill-rule="nonzero" fill-opacity="1"></path><path clip-path="url(#clip020)" d="M2153.51 432.121 Q2153.51 427.491 2151.58 424.945 Q2149.69 422.399 2146.24 422.399 Q2142.81 422.399 2140.89 424.945 Q2138.99 427.491 2138.99 432.121 Q2138.99 436.727 2140.89 439.274 Q2142.81 441.82 2146.24 441.82 Q2149.69 441.82 2151.58 439.274 Q2153.51 436.727 2153.51 432.121 M2157.76 442.167 Q2157.76 448.787 2154.83 452.005 Q2151.89 455.246 2145.82 455.246 Q2143.58 455.246 2141.58 454.898 Q2139.59 454.574 2137.72 453.88 L2137.72 449.736 Q2139.59 450.755 2141.42 451.241 Q2143.25 451.727 2145.15 451.727 Q2149.34 451.727 2151.42 449.528 Q2153.51 447.352 2153.51 442.931 L2153.51 440.824 Q2152.19 443.116 2150.13 444.25 Q2148.07 445.385 2145.2 445.385 Q2140.43 445.385 2137.51 441.75 Q2134.59 438.116 2134.59 432.121 Q2134.59 426.102 2137.51 422.468 Q2140.43 418.834 2145.2 418.834 Q2148.07 418.834 2150.13 419.968 Q2152.19 421.102 2153.51 423.394 L2153.51 419.459 L2157.76 419.459 L2157.76 442.167 Z" fill="#000000" fill-rule="nonzero" fill-opacity="1"></path><path clip-path="url(#clip020)" d="M2183.6 432.121 Q2183.6 427.491 2181.68 424.945 Q2179.78 422.399 2176.33 422.399 Q2172.9 422.399 2170.98 424.945 Q2169.08 427.491 2169.08 432.121 Q2169.08 436.727 2170.98 439.274 Q2172.9 441.82 2176.33 441.82 Q2179.78 441.82 2181.68 439.274 Q2183.6 436.727 2183.6 432.121 M2187.86 442.167 Q2187.86 448.787 2184.92 452.005 Q2181.98 455.246 2175.91 455.246 Q2173.67 455.246 2171.68 454.898 Q2169.69 454.574 2167.81 453.88 L2167.81 449.736 Q2169.69 450.755 2171.51 451.241 Q2173.34 451.727 2175.24 451.727 Q2179.43 451.727 2181.51 449.528 Q2183.6 447.352 2183.6 442.931 L2183.6 440.824 Q2182.28 443.116 2180.22 444.25 Q2178.16 445.385 2175.29 445.385 Q2170.52 445.385 2167.6 441.75 Q2164.69 438.116 2164.69 432.121 Q2164.69 426.102 2167.6 422.468 Q2170.52 418.834 2175.29 418.834 Q2178.16 418.834 2180.22 419.968 Q2182.28 421.102 2183.6 423.394 L2183.6 419.459 L2187.86 419.459 L2187.86 442.167 Z" fill="#000000" fill-rule="nonzero" fill-opacity="1"></path><path clip-path="url(#clip020)" d="M2216.82 424.436 Q2218.41 421.565 2220.63 420.2 Q2222.86 418.834 2225.87 418.834 Q2229.92 418.834 2232.12 421.681 Q2234.32 424.505 2234.32 429.737 L2234.32 445.385 L2230.03 445.385 L2230.03 429.875 Q2230.03 426.149 2228.71 424.343 Q2227.39 422.538 2224.69 422.538 Q2221.38 422.538 2219.45 424.737 Q2217.53 426.936 2217.53 430.732 L2217.53 445.385 L2213.25 445.385 L2213.25 429.875 Q2213.25 426.125 2211.93 424.343 Q2210.61 422.538 2207.86 422.538 Q2204.59 422.538 2202.67 424.76 Q2200.75 426.959 2200.75 430.732 L2200.75 445.385 L2196.47 445.385 L2196.47 419.459 L2200.75 419.459 L2200.75 423.487 Q2202.21 421.102 2204.25 419.968 Q2206.28 418.834 2209.08 418.834 Q2211.91 418.834 2213.88 420.269 Q2215.87 421.704 2216.82 424.436 Z" fill="#000000" fill-rule="nonzero" fill-opacity="1"></path></svg>