<svg xmlns="http://www.w3.org/2000/svg" xmlns:xlink="http://www.w3.org/1999/xlink" width="600" height="400" viewBox="0 0 2400 1600">
<defs>
  <clipPath id="clip700">
    <rect x="0" y="0" width="2400" height="1600"></rect>
  </clipPath>
</defs>
<path clip-path="url(#clip700)" d="M0 1600 L2400 1600 L2400 0 L0 0  Z" fill="#f8f8ff" fill-rule="evenodd" fill-opacity="1"></path>
<defs>
  <clipPath id="clip701">
    <rect x="480" y="0" width="1681" height="1600"></rect>
  </clipPath>
</defs>
<path clip-path="url(#clip700)" d="M265.445 1486.45 L2352.76 1486.45 L2352.76 123.472 L265.445 123.472  Z" fill="#f8f8ff" fill-rule="evenodd" fill-opacity="1"></path>
<defs>
  <clipPath id="clip702">
    <rect x="265" y="123" width="2088" height="1364"></rect>
  </clipPath>
</defs>
<polyline clip-path="url(#clip702)" style="stroke:#000000; stroke-linecap:round; stroke-linejoin:round; stroke-width:2; stroke-opacity:0.1; fill:none" points="306.938,1486.45 306.938,123.472 "></polyline>
<polyline clip-path="url(#clip702)" style="stroke:#000000; stroke-linecap:round; stroke-linejoin:round; stroke-width:2; stroke-opacity:0.1; fill:none" points="746.483,1486.45 746.483,123.472 "></polyline>
<polyline clip-path="url(#clip702)" style="stroke:#000000; stroke-linecap:round; stroke-linejoin:round; stroke-width:2; stroke-opacity:0.1; fill:none" points="1186.03,1486.45 1186.03,123.472 "></polyline>
<polyline clip-path="url(#clip702)" style="stroke:#000000; stroke-linecap:round; stroke-linejoin:round; stroke-width:2; stroke-opacity:0.1; fill:none" points="1625.57,1486.45 1625.57,123.472 "></polyline>
<polyline clip-path="url(#clip702)" style="stroke:#000000; stroke-linecap:round; stroke-linejoin:round; stroke-width:2; stroke-opacity:0.1; fill:none" points="2065.12,1486.45 2065.12,123.472 "></polyline>
<polyline clip-path="url(#clip700)" style="stroke:#000000; stroke-linecap:round; stroke-linejoin:round; stroke-width:4; stroke-opacity:1; fill:none" points="265.445,1486.45 2352.76,1486.45 "></polyline>
<polyline clip-path="url(#clip700)" style="stroke:#000000; stroke-linecap:round; stroke-linejoin:round; stroke-width:4; stroke-opacity:1; fill:none" points="306.938,1486.45 306.938,1467.55 "></polyline>
<polyline clip-path="url(#clip700)" style="stroke:#000000; stroke-linecap:round; stroke-linejoin:round; stroke-width:4; stroke-opacity:1; fill:none" points="746.483,1486.45 746.483,1467.55 "></polyline>
<polyline clip-path="url(#clip700)" style="stroke:#000000; stroke-linecap:round; stroke-linejoin:round; stroke-width:4; stroke-opacity:1; fill:none" points="1186.03,1486.45 1186.03,1467.55 "></polyline>
<polyline clip-path="url(#clip700)" style="stroke:#000000; stroke-linecap:round; stroke-linejoin:round; stroke-width:4; stroke-opacity:1; fill:none" points="1625.57,1486.45 1625.57,1467.55 "></polyline>
<polyline clip-path="url(#clip700)" style="stroke:#000000; stroke-linecap:round; stroke-linejoin:round; stroke-width:4; stroke-opacity:1; fill:none" points="2065.12,1486.45 2065.12,1467.55 "></polyline>
<path clip-path="url(#clip700)" d="M306.938 1517.37 Q303.327 1517.37 301.498 1520.93 Q299.692 1524.47 299.692 1531.6 Q299.692 1538.71 301.498 1542.27 Q303.327 1545.82 306.938 1545.82 Q310.572 1545.82 312.378 1542.27 Q314.206 1538.71 314.206 1531.6 Q314.206 1524.47 312.378 1520.93 Q310.572 1517.37 306.938 1517.37 M306.938 1513.66 Q312.748 1513.66 315.803 1518.27 Q318.882 1522.85 318.882 1531.6 Q318.882 1540.33 315.803 1544.94 Q312.748 1549.52 306.938 1549.52 Q301.128 1549.52 298.049 1544.94 Q294.993 1540.33 294.993 1531.6 Q294.993 1522.85 298.049 1518.27 Q301.128 1513.66 306.938 1513.66 Z" fill="#000000" fill-rule="nonzero" fill-opacity="1"></path><path clip-path="url(#clip700)" d="M725.754 1544.91 L742.073 1544.91 L742.073 1548.85 L720.129 1548.85 L720.129 1544.91 Q722.791 1542.16 727.374 1537.53 Q731.981 1532.88 733.161 1531.53 Q735.406 1529.01 736.286 1527.27 Q737.189 1525.51 737.189 1523.82 Q737.189 1521.07 735.244 1519.33 Q733.323 1517.6 730.221 1517.6 Q728.022 1517.6 725.569 1518.36 Q723.138 1519.13 720.36 1520.68 L720.36 1515.95 Q723.184 1514.82 725.638 1514.24 Q728.092 1513.66 730.129 1513.66 Q735.499 1513.66 738.693 1516.35 Q741.888 1519.03 741.888 1523.52 Q741.888 1525.65 741.078 1527.57 Q740.291 1529.47 738.184 1532.07 Q737.605 1532.74 734.504 1535.95 Q731.402 1539.15 725.754 1544.91 Z" fill="#000000" fill-rule="nonzero" fill-opacity="1"></path><path clip-path="url(#clip700)" d="M751.934 1514.29 L770.29 1514.29 L770.29 1518.22 L756.216 1518.22 L756.216 1526.7 Q757.235 1526.35 758.254 1526.19 Q759.272 1526 760.291 1526 Q766.078 1526 769.457 1529.17 Q772.837 1532.34 772.837 1537.76 Q772.837 1543.34 769.365 1546.44 Q765.892 1549.52 759.573 1549.52 Q757.397 1549.52 755.129 1549.15 Q752.883 1548.78 750.476 1548.04 L750.476 1543.34 Q752.559 1544.47 754.781 1545.03 Q757.004 1545.58 759.48 1545.58 Q763.485 1545.58 765.823 1543.48 Q768.161 1541.37 768.161 1537.76 Q768.161 1534.15 765.823 1532.04 Q763.485 1529.94 759.48 1529.94 Q757.605 1529.94 755.73 1530.35 Q753.879 1530.77 751.934 1531.65 L751.934 1514.29 Z" fill="#000000" fill-rule="nonzero" fill-opacity="1"></path><path clip-path="url(#clip700)" d="M1160.73 1514.29 L1179.08 1514.29 L1179.08 1518.22 L1165.01 1518.22 L1165.01 1526.7 Q1166.03 1526.35 1167.05 1526.19 Q1168.06 1526 1169.08 1526 Q1174.87 1526 1178.25 1529.17 Q1181.63 1532.34 1181.63 1537.76 Q1181.63 1543.34 1178.16 1546.44 Q1174.69 1549.52 1168.37 1549.52 Q1166.19 1549.52 1163.92 1549.15 Q1161.68 1548.78 1159.27 1548.04 L1159.27 1543.34 Q1161.35 1544.47 1163.57 1545.03 Q1165.8 1545.58 1168.27 1545.58 Q1172.28 1545.58 1174.62 1543.48 Q1176.95 1541.37 1176.95 1537.76 Q1176.95 1534.15 1174.62 1532.04 Q1172.28 1529.94 1168.27 1529.94 Q1166.4 1529.94 1164.52 1530.35 Q1162.67 1530.77 1160.73 1531.65 L1160.73 1514.29 Z" fill="#000000" fill-rule="nonzero" fill-opacity="1"></path><path clip-path="url(#clip700)" d="M1200.84 1517.37 Q1197.23 1517.37 1195.4 1520.93 Q1193.6 1524.47 1193.6 1531.6 Q1193.6 1538.71 1195.4 1542.27 Q1197.23 1545.82 1200.84 1545.82 Q1204.48 1545.82 1206.28 1542.27 Q1208.11 1538.71 1208.11 1531.6 Q1208.11 1524.47 1206.28 1520.93 Q1204.48 1517.37 1200.84 1517.37 M1200.84 1513.66 Q1206.65 1513.66 1209.71 1518.27 Q1212.79 1522.85 1212.79 1531.6 Q1212.79 1540.33 1209.71 1544.94 Q1206.65 1549.52 1200.84 1549.52 Q1195.03 1549.52 1191.95 1544.94 Q1188.9 1540.33 1188.9 1531.6 Q1188.9 1522.85 1191.95 1518.27 Q1195.03 1513.66 1200.84 1513.66 Z" fill="#000000" fill-rule="nonzero" fill-opacity="1"></path><path clip-path="url(#clip700)" d="M1599.43 1514.29 L1621.65 1514.29 L1621.65 1516.28 L1609.1 1548.85 L1604.22 1548.85 L1616.02 1518.22 L1599.43 1518.22 L1599.43 1514.29 Z" fill="#000000" fill-rule="nonzero" fill-opacity="1"></path><path clip-path="url(#clip700)" d="M1630.82 1514.29 L1649.17 1514.29 L1649.17 1518.22 L1635.1 1518.22 L1635.1 1526.7 Q1636.12 1526.35 1637.14 1526.19 Q1638.15 1526 1639.17 1526 Q1644.96 1526 1648.34 1529.17 Q1651.72 1532.34 1651.72 1537.76 Q1651.72 1543.34 1648.25 1546.44 Q1644.77 1549.52 1638.45 1549.52 Q1636.28 1549.52 1634.01 1549.15 Q1631.76 1548.78 1629.36 1548.04 L1629.36 1543.34 Q1631.44 1544.47 1633.66 1545.03 Q1635.89 1545.58 1638.36 1545.58 Q1642.37 1545.58 1644.7 1543.48 Q1647.04 1541.37 1647.04 1537.76 Q1647.04 1534.15 1644.7 1532.04 Q1642.37 1529.94 1638.36 1529.94 Q1636.49 1529.94 1634.61 1530.35 Q1632.76 1530.77 1630.82 1531.65 L1630.82 1514.29 Z" fill="#000000" fill-rule="nonzero" fill-opacity="1"></path><path clip-path="url(#clip700)" d="M2024.72 1544.91 L2032.36 1544.91 L2032.36 1518.55 L2024.05 1520.21 L2024.05 1515.95 L2032.32 1514.29 L2036.99 1514.29 L2036.99 1544.91 L2044.63 1544.91 L2044.63 1548.85 L2024.72 1548.85 L2024.72 1544.91 Z" fill="#000000" fill-rule="nonzero" fill-opacity="1"></path><path clip-path="url(#clip700)" d="M2064.08 1517.37 Q2060.46 1517.37 2058.64 1520.93 Q2056.83 1524.47 2056.83 1531.6 Q2056.83 1538.71 2058.64 1542.27 Q2060.46 1545.82 2064.08 1545.82 Q2067.71 1545.82 2069.52 1542.27 Q2071.34 1538.71 2071.34 1531.6 Q2071.34 1524.47 2069.52 1520.93 Q2067.71 1517.37 2064.08 1517.37 M2064.08 1513.66 Q2069.89 1513.66 2072.94 1518.27 Q2076.02 1522.85 2076.02 1531.6 Q2076.02 1540.33 2072.94 1544.94 Q2069.89 1549.52 2064.08 1549.52 Q2058.27 1549.52 2055.19 1544.94 Q2052.13 1540.33 2052.13 1531.6 Q2052.13 1522.85 2055.19 1518.27 Q2058.27 1513.66 2064.08 1513.66 Z" fill="#000000" fill-rule="nonzero" fill-opacity="1"></path><path clip-path="url(#clip700)" d="M2094.24 1517.37 Q2090.63 1517.37 2088.8 1520.93 Q2086.99 1524.47 2086.99 1531.6 Q2086.99 1538.71 2088.8 1542.27 Q2090.63 1545.82 2094.24 1545.82 Q2097.87 1545.82 2099.68 1542.27 Q2101.51 1538.71 2101.51 1531.6 Q2101.51 1524.47 2099.68 1520.93 Q2097.87 1517.37 2094.24 1517.37 M2094.24 1513.66 Q2100.05 1513.66 2103.1 1518.27 Q2106.18 1522.85 2106.18 1531.6 Q2106.18 1540.33 2103.1 1544.94 Q2100.05 1549.52 2094.24 1549.52 Q2088.43 1549.52 2085.35 1544.94 Q2082.29 1540.33 2082.29 1531.6 Q2082.29 1522.85 2085.35 1518.27 Q2088.43 1513.66 2094.24 1513.66 Z" fill="#000000" fill-rule="nonzero" fill-opacity="1"></path><polyline clip-path="url(#clip702)" style="stroke:#000000; stroke-linecap:round; stroke-linejoin:round; stroke-width:2; stroke-opacity:0.1; fill:none" points="265.445,1431.84 2352.76,1431.84 "></polyline>
<polyline clip-path="url(#clip702)" style="stroke:#000000; stroke-linecap:round; stroke-linejoin:round; stroke-width:2; stroke-opacity:0.1; fill:none" points="265.445,1092.91 2352.76,1092.91 "></polyline>
<polyline clip-path="url(#clip702)" style="stroke:#000000; stroke-linecap:round; stroke-linejoin:round; stroke-width:2; stroke-opacity:0.1; fill:none" points="265.445,753.972 2352.76,753.972 "></polyline>
<polyline clip-path="url(#clip702)" style="stroke:#000000; stroke-linecap:round; stroke-linejoin:round; stroke-width:2; stroke-opacity:0.1; fill:none" points="265.445,415.038 2352.76,415.038 "></polyline>
<polyline clip-path="url(#clip700)" style="stroke:#000000; stroke-linecap:round; stroke-linejoin:round; stroke-width:4; stroke-opacity:1; fill:none" points="265.445,1486.45 265.445,123.472 "></polyline>
<polyline clip-path="url(#clip700)" style="stroke:#000000; stroke-linecap:round; stroke-linejoin:round; stroke-width:4; stroke-opacity:1; fill:none" points="265.445,1431.84 284.342,1431.84 "></polyline>
<polyline clip-path="url(#clip700)" style="stroke:#000000; stroke-linecap:round; stroke-linejoin:round; stroke-width:4; stroke-opacity:1; fill:none" points="265.445,1092.91 284.342,1092.91 "></polyline>
<polyline clip-path="url(#clip700)" style="stroke:#000000; stroke-linecap:round; stroke-linejoin:round; stroke-width:4; stroke-opacity:1; fill:none" points="265.445,753.972 284.342,753.972 "></polyline>
<polyline clip-path="url(#clip700)" style="stroke:#000000; stroke-linecap:round; stroke-linejoin:round; stroke-width:4; stroke-opacity:1; fill:none" points="265.445,415.038 284.342,415.038 "></polyline>
<path clip-path="url(#clip700)" d="M117.825 1445.18 L125.464 1445.18 L125.464 1418.82 L117.154 1420.49 L117.154 1416.23 L125.418 1414.56 L130.093 1414.56 L130.093 1445.18 L137.732 1445.18 L137.732 1449.12 L117.825 1449.12 L117.825 1445.18 Z" fill="#000000" fill-rule="nonzero" fill-opacity="1"></path><path clip-path="url(#clip700)" d="M157.177 1417.64 Q153.566 1417.64 151.737 1421.2 Q149.931 1424.75 149.931 1431.87 Q149.931 1438.98 151.737 1442.55 Q153.566 1446.09 157.177 1446.09 Q160.811 1446.09 162.616 1442.55 Q164.445 1438.98 164.445 1431.87 Q164.445 1424.75 162.616 1421.2 Q160.811 1417.64 157.177 1417.64 M157.177 1413.94 Q162.987 1413.94 166.042 1418.54 Q169.121 1423.12 169.121 1431.87 Q169.121 1440.6 166.042 1445.21 Q162.987 1449.79 157.177 1449.79 Q151.366 1449.79 148.288 1445.21 Q145.232 1440.6 145.232 1431.87 Q145.232 1423.12 148.288 1418.54 Q151.366 1413.94 157.177 1413.94 Z" fill="#000000" fill-rule="nonzero" fill-opacity="1"></path><path clip-path="url(#clip700)" d="M187.338 1417.64 Q183.727 1417.64 181.899 1421.2 Q180.093 1424.75 180.093 1431.87 Q180.093 1438.98 181.899 1442.55 Q183.727 1446.09 187.338 1446.09 Q190.973 1446.09 192.778 1442.55 Q194.607 1438.98 194.607 1431.87 Q194.607 1424.75 192.778 1421.2 Q190.973 1417.64 187.338 1417.64 M187.338 1413.94 Q193.149 1413.94 196.204 1418.54 Q199.283 1423.12 199.283 1431.87 Q199.283 1440.6 196.204 1445.21 Q193.149 1449.79 187.338 1449.79 Q181.528 1449.79 178.45 1445.21 Q175.394 1440.6 175.394 1431.87 Q175.394 1423.12 178.45 1418.54 Q181.528 1413.94 187.338 1413.94 Z" fill="#000000" fill-rule="nonzero" fill-opacity="1"></path><path clip-path="url(#clip700)" d="M217.5 1417.64 Q213.889 1417.64 212.061 1421.2 Q210.255 1424.75 210.255 1431.87 Q210.255 1438.98 212.061 1442.55 Q213.889 1446.09 217.5 1446.09 Q221.135 1446.09 222.94 1442.55 Q224.769 1438.98 224.769 1431.87 Q224.769 1424.75 222.94 1421.2 Q221.135 1417.64 217.5 1417.64 M217.5 1413.94 Q223.31 1413.94 226.366 1418.54 Q229.445 1423.12 229.445 1431.87 Q229.445 1440.6 226.366 1445.21 Q223.31 1449.79 217.5 1449.79 Q211.69 1449.79 208.612 1445.21 Q205.556 1440.6 205.556 1431.87 Q205.556 1423.12 208.612 1418.54 Q211.69 1413.94 217.5 1413.94 Z" fill="#000000" fill-rule="nonzero" fill-opacity="1"></path><path clip-path="url(#clip700)" d="M121.043 1106.25 L137.362 1106.25 L137.362 1110.19 L115.418 1110.19 L115.418 1106.25 Q118.08 1103.5 122.663 1098.87 Q127.269 1094.21 128.45 1092.87 Q130.695 1090.35 131.575 1088.61 Q132.478 1086.85 132.478 1085.16 Q132.478 1082.41 130.533 1080.67 Q128.612 1078.94 125.51 1078.94 Q123.311 1078.94 120.857 1079.7 Q118.427 1080.46 115.649 1082.01 L115.649 1077.29 Q118.473 1076.16 120.927 1075.58 Q123.38 1075 125.418 1075 Q130.788 1075 133.982 1077.69 Q137.177 1080.37 137.177 1084.86 Q137.177 1086.99 136.367 1088.91 Q135.579 1090.81 133.473 1093.4 Q132.894 1094.08 129.792 1097.29 Q126.691 1100.49 121.043 1106.25 Z" fill="#000000" fill-rule="nonzero" fill-opacity="1"></path><path clip-path="url(#clip700)" d="M157.177 1078.7 Q153.566 1078.7 151.737 1082.27 Q149.931 1085.81 149.931 1092.94 Q149.931 1100.05 151.737 1103.61 Q153.566 1107.15 157.177 1107.15 Q160.811 1107.15 162.616 1103.61 Q164.445 1100.05 164.445 1092.94 Q164.445 1085.81 162.616 1082.27 Q160.811 1078.7 157.177 1078.7 M157.177 1075 Q162.987 1075 166.042 1079.61 Q169.121 1084.19 169.121 1092.94 Q169.121 1101.67 166.042 1106.27 Q162.987 1110.86 157.177 1110.86 Q151.366 1110.86 148.288 1106.27 Q145.232 1101.67 145.232 1092.94 Q145.232 1084.19 148.288 1079.61 Q151.366 1075 157.177 1075 Z" fill="#000000" fill-rule="nonzero" fill-opacity="1"></path><path clip-path="url(#clip700)" d="M187.338 1078.7 Q183.727 1078.7 181.899 1082.27 Q180.093 1085.81 180.093 1092.94 Q180.093 1100.05 181.899 1103.61 Q183.727 1107.15 187.338 1107.15 Q190.973 1107.15 192.778 1103.61 Q194.607 1100.05 194.607 1092.94 Q194.607 1085.81 192.778 1082.27 Q190.973 1078.7 187.338 1078.7 M187.338 1075 Q193.149 1075 196.204 1079.61 Q199.283 1084.19 199.283 1092.94 Q199.283 1101.67 196.204 1106.27 Q193.149 1110.86 187.338 1110.86 Q181.528 1110.86 178.45 1106.27 Q175.394 1101.67 175.394 1092.94 Q175.394 1084.19 178.45 1079.61 Q181.528 1075 187.338 1075 Z" fill="#000000" fill-rule="nonzero" fill-opacity="1"></path><path clip-path="url(#clip700)" d="M217.5 1078.7 Q213.889 1078.7 212.061 1082.27 Q210.255 1085.81 210.255 1092.94 Q210.255 1100.05 212.061 1103.61 Q213.889 1107.15 217.5 1107.15 Q221.135 1107.15 222.94 1103.61 Q224.769 1100.05 224.769 1092.94 Q224.769 1085.81 222.94 1082.27 Q221.135 1078.7 217.5 1078.7 M217.5 1075 Q223.31 1075 226.366 1079.61 Q229.445 1084.19 229.445 1092.94 Q229.445 1101.67 226.366 1106.27 Q223.31 1110.86 217.5 1110.86 Q211.69 1110.86 208.612 1106.27 Q205.556 1101.67 205.556 1092.94 Q205.556 1084.19 208.612 1079.61 Q211.69 1075 217.5 1075 Z" fill="#000000" fill-rule="nonzero" fill-opacity="1"></path><path clip-path="url(#clip700)" d="M131.181 752.618 Q134.538 753.336 136.413 755.604 Q138.311 757.873 138.311 761.206 Q138.311 766.322 134.792 769.122 Q131.274 771.923 124.793 771.923 Q122.617 771.923 120.302 771.484 Q118.01 771.067 115.556 770.21 L115.556 765.697 Q117.501 766.831 119.816 767.41 Q122.13 767.988 124.654 767.988 Q129.052 767.988 131.343 766.252 Q133.658 764.516 133.658 761.206 Q133.658 758.15 131.505 756.437 Q129.376 754.701 125.556 754.701 L121.529 754.701 L121.529 750.859 L125.742 750.859 Q129.191 750.859 131.019 749.493 Q132.848 748.104 132.848 745.511 Q132.848 742.849 130.95 741.437 Q129.075 740.002 125.556 740.002 Q123.635 740.002 121.436 740.419 Q119.237 740.836 116.598 741.715 L116.598 737.549 Q119.26 736.808 121.575 736.437 Q123.913 736.067 125.973 736.067 Q131.297 736.067 134.399 738.498 Q137.501 740.905 137.501 745.025 Q137.501 747.896 135.857 749.886 Q134.214 751.854 131.181 752.618 Z" fill="#000000" fill-rule="nonzero" fill-opacity="1"></path><path clip-path="url(#clip700)" d="M157.177 739.771 Q153.566 739.771 151.737 743.336 Q149.931 746.877 149.931 754.007 Q149.931 761.113 151.737 764.678 Q153.566 768.22 157.177 768.22 Q160.811 768.22 162.616 764.678 Q164.445 761.113 164.445 754.007 Q164.445 746.877 162.616 743.336 Q160.811 739.771 157.177 739.771 M157.177 736.067 Q162.987 736.067 166.042 740.674 Q169.121 745.257 169.121 754.007 Q169.121 762.734 166.042 767.34 Q162.987 771.923 157.177 771.923 Q151.366 771.923 148.288 767.34 Q145.232 762.734 145.232 754.007 Q145.232 745.257 148.288 740.674 Q151.366 736.067 157.177 736.067 Z" fill="#000000" fill-rule="nonzero" fill-opacity="1"></path><path clip-path="url(#clip700)" d="M187.338 739.771 Q183.727 739.771 181.899 743.336 Q180.093 746.877 180.093 754.007 Q180.093 761.113 181.899 764.678 Q183.727 768.22 187.338 768.22 Q190.973 768.22 192.778 764.678 Q194.607 761.113 194.607 754.007 Q194.607 746.877 192.778 743.336 Q190.973 739.771 187.338 739.771 M187.338 736.067 Q193.149 736.067 196.204 740.674 Q199.283 745.257 199.283 754.007 Q199.283 762.734 196.204 767.34 Q193.149 771.923 187.338 771.923 Q181.528 771.923 178.45 767.34 Q175.394 762.734 175.394 754.007 Q175.394 745.257 178.45 740.674 Q181.528 736.067 187.338 736.067 Z" fill="#000000" fill-rule="nonzero" fill-opacity="1"></path><path clip-path="url(#clip700)" d="M217.5 739.771 Q213.889 739.771 212.061 743.336 Q210.255 746.877 210.255 754.007 Q210.255 761.113 212.061 764.678 Q213.889 768.22 217.5 768.22 Q221.135 768.22 222.94 764.678 Q224.769 761.113 224.769 754.007 Q224.769 746.877 222.94 743.336 Q221.135 739.771 217.5 739.771 M217.5 736.067 Q223.31 736.067 226.366 740.674 Q229.445 745.257 229.445 754.007 Q229.445 762.734 226.366 767.34 Q223.31 771.923 217.5 771.923 Q211.69 771.923 208.612 767.34 Q205.556 762.734 205.556 754.007 Q205.556 745.257 208.612 740.674 Q211.69 736.067 217.5 736.067 Z" fill="#000000" fill-rule="nonzero" fill-opacity="1"></path><path clip-path="url(#clip700)" d="M129.862 401.832 L118.056 420.281 L129.862 420.281 L129.862 401.832 M128.635 397.758 L134.515 397.758 L134.515 420.281 L139.445 420.281 L139.445 424.17 L134.515 424.17 L134.515 432.318 L129.862 432.318 L129.862 424.17 L114.26 424.17 L114.26 419.656 L128.635 397.758 Z" fill="#000000" fill-rule="nonzero" fill-opacity="1"></path><path clip-path="url(#clip700)" d="M157.177 400.837 Q153.566 400.837 151.737 404.402 Q149.931 407.943 149.931 415.073 Q149.931 422.179 151.737 425.744 Q153.566 429.286 157.177 429.286 Q160.811 429.286 162.616 425.744 Q164.445 422.179 164.445 415.073 Q164.445 407.943 162.616 404.402 Q160.811 400.837 157.177 400.837 M157.177 397.133 Q162.987 397.133 166.042 401.74 Q169.121 406.323 169.121 415.073 Q169.121 423.8 166.042 428.406 Q162.987 432.989 157.177 432.989 Q151.366 432.989 148.288 428.406 Q145.232 423.8 145.232 415.073 Q145.232 406.323 148.288 401.74 Q151.366 397.133 157.177 397.133 Z" fill="#000000" fill-rule="nonzero" fill-opacity="1"></path><path clip-path="url(#clip700)" d="M187.338 400.837 Q183.727 400.837 181.899 404.402 Q180.093 407.943 180.093 415.073 Q180.093 422.179 181.899 425.744 Q183.727 429.286 187.338 429.286 Q190.973 429.286 192.778 425.744 Q194.607 422.179 194.607 415.073 Q194.607 407.943 192.778 404.402 Q190.973 400.837 187.338 400.837 M187.338 397.133 Q193.149 397.133 196.204 401.74 Q199.283 406.323 199.283 415.073 Q199.283 423.8 196.204 428.406 Q193.149 432.989 187.338 432.989 Q181.528 432.989 178.45 428.406 Q175.394 423.8 175.394 415.073 Q175.394 406.323 178.45 401.74 Q181.528 397.133 187.338 397.133 Z" fill="#000000" fill-rule="nonzero" fill-opacity="1"></path><path clip-path="url(#clip700)" d="M217.5 400.837 Q213.889 400.837 212.061 404.402 Q210.255 407.943 210.255 415.073 Q210.255 422.179 212.061 425.744 Q213.889 429.286 217.5 429.286 Q221.135 429.286 222.94 425.744 Q224.769 422.179 224.769 415.073 Q224.769 407.943 222.94 404.402 Q221.135 400.837 217.5 400.837 M217.5 397.133 Q223.31 397.133 226.366 401.74 Q229.445 406.323 229.445 415.073 Q229.445 423.8 226.366 428.406 Q223.31 432.989 217.5 432.989 Q211.69 432.989 208.612 428.406 Q205.556 423.8 205.556 415.073 Q205.556 406.323 208.612 401.74 Q211.69 397.133 217.5 397.133 Z" fill="#000000" fill-rule="nonzero" fill-opacity="1"></path><path clip-path="url(#clip700)" d="M16.4842 1105.34 L16.4842 1075.3 L21.895 1075.3 L21.895 1098.91 L35.9632 1098.91 L35.9632 1076.28 L41.3741 1076.28 L41.3741 1098.91 L58.5933 1098.91 L58.5933 1074.72 L64.0042 1074.72 L64.0042 1105.34 L16.4842 1105.34 Z" fill="#000000" fill-rule="nonzero" fill-opacity="1"></path><path clip-path="url(#clip700)" d="M14.479 1064.41 L14.479 1058.55 L64.0042 1058.55 L64.0042 1064.41 L14.479 1064.41 Z" fill="#000000" fill-rule="nonzero" fill-opacity="1"></path><path clip-path="url(#clip700)" d="M44.7161 1015.81 L47.5806 1015.81 L47.5806 1042.74 Q53.6281 1042.35 56.8109 1039.11 Q59.9619 1035.83 59.9619 1030 Q59.9619 1026.63 59.1344 1023.48 Q58.3069 1020.3 56.6518 1017.18 L62.1899 1017.18 Q63.5267 1020.33 64.227 1023.64 Q64.9272 1026.95 64.9272 1030.35 Q64.9272 1038.88 59.9619 1043.88 Q54.9967 1048.85 46.5303 1048.85 Q37.7774 1048.85 32.6531 1044.14 Q27.4968 1039.39 27.4968 1031.37 Q27.4968 1024.18 32.1438 1020.01 Q36.7589 1015.81 44.7161 1015.81 M42.9973 1021.66 Q38.1912 1021.73 35.3266 1024.37 Q32.4621 1026.98 32.4621 1031.31 Q32.4621 1036.21 35.2312 1039.17 Q38.0002 1042.1 43.0292 1042.54 L42.9973 1021.66 Z" fill="#000000" fill-rule="nonzero" fill-opacity="1"></path><path clip-path="url(#clip700)" d="M28.3562 1010.4 L28.3562 1004.19 L58.275 993.051 L28.3562 981.911 L28.3562 975.704 L64.0042 989.072 L64.0042 997.029 L28.3562 1010.4 Z" fill="#000000" fill-rule="nonzero" fill-opacity="1"></path><path clip-path="url(#clip700)" d="M46.0847 951.419 Q46.0847 958.517 47.7079 961.254 Q49.3312 963.991 53.2461 963.991 Q56.3653 963.991 58.2114 961.954 Q60.0256 959.885 60.0256 956.352 Q60.0256 951.483 56.5881 948.554 Q53.1188 945.594 47.3897 945.594 L46.0847 945.594 L46.0847 951.419 M43.6657 939.738 L64.0042 939.738 L64.0042 945.594 L58.5933 945.594 Q61.8398 947.6 63.3994 950.591 Q64.9272 953.583 64.9272 957.912 Q64.9272 963.387 61.8716 966.633 Q58.7843 969.848 53.6281 969.848 Q47.6125 969.848 44.5569 965.837 Q41.5014 961.795 41.5014 953.806 L41.5014 945.594 L40.9285 945.594 Q36.8862 945.594 34.6901 948.268 Q32.4621 950.91 32.4621 955.716 Q32.4621 958.771 33.1941 961.668 Q33.9262 964.564 35.3903 967.238 L29.9795 967.238 Q28.7381 964.023 28.1334 960.999 Q27.4968 957.976 27.4968 955.111 Q27.4968 947.377 31.5072 943.557 Q35.5176 939.738 43.6657 939.738 Z" fill="#000000" fill-rule="nonzero" fill-opacity="1"></path><path clip-path="url(#clip700)" d="M18.2347 921.882 L28.3562 921.882 L28.3562 909.819 L32.9077 909.819 L32.9077 921.882 L52.2594 921.882 Q56.6199 921.882 57.8613 920.704 Q59.1026 919.495 59.1026 915.835 L59.1026 909.819 L64.0042 909.819 L64.0042 915.835 Q64.0042 922.614 61.4897 925.192 Q58.9434 927.77 52.2594 927.77 L32.9077 927.77 L32.9077 932.067 L28.3562 932.067 L28.3562 927.77 L18.2347 927.77 L18.2347 921.882 Z" fill="#000000" fill-rule="nonzero" fill-opacity="1"></path><path clip-path="url(#clip700)" d="M28.3562 902.117 L28.3562 896.26 L64.0042 896.26 L64.0042 902.117 L28.3562 902.117 M14.479 902.117 L14.479 896.26 L21.895 896.26 L21.895 902.117 L14.479 902.117 Z" fill="#000000" fill-rule="nonzero" fill-opacity="1"></path><path clip-path="url(#clip700)" d="M32.4621 870.193 Q32.4621 874.903 36.1542 877.64 Q39.8145 880.378 46.212 880.378 Q52.6095 880.378 56.3017 877.672 Q59.9619 874.935 59.9619 870.193 Q59.9619 865.514 56.2698 862.777 Q52.5777 860.039 46.212 860.039 Q39.8781 860.039 36.186 862.777 Q32.4621 865.514 32.4621 870.193 M27.4968 870.193 Q27.4968 862.554 32.4621 858.193 Q37.4273 853.833 46.212 853.833 Q54.9649 853.833 59.9619 858.193 Q64.9272 862.554 64.9272 870.193 Q64.9272 877.863 59.9619 882.224 Q54.9649 886.552 46.212 886.552 Q37.4273 886.552 32.4621 882.224 Q27.4968 877.863 27.4968 870.193 Z" fill="#000000" fill-rule="nonzero" fill-opacity="1"></path><path clip-path="url(#clip700)" d="M42.4881 814.493 L64.0042 814.493 L64.0042 820.349 L42.679 820.349 Q37.6183 820.349 35.1038 822.322 Q32.5894 824.296 32.5894 828.243 Q32.5894 832.985 35.6131 835.722 Q38.6368 838.46 43.8567 838.46 L64.0042 838.46 L64.0042 844.348 L28.3562 844.348 L28.3562 838.46 L33.8944 838.46 Q30.6797 836.359 29.0883 833.526 Q27.4968 830.662 27.4968 826.938 Q27.4968 820.795 31.3163 817.644 Q35.1038 814.493 42.4881 814.493 Z" fill="#000000" fill-rule="nonzero" fill-opacity="1"></path><path clip-path="url(#clip700)" d="M14.5426 768.023 Q21.8632 772.288 29.0246 774.357 Q36.186 776.426 43.5384 776.426 Q50.8908 776.426 58.1159 774.357 Q65.3091 772.256 72.5979 768.023 L72.5979 773.116 Q65.1182 777.89 57.8931 780.277 Q50.668 782.632 43.5384 782.632 Q36.4406 782.632 29.2474 780.277 Q22.0542 777.922 14.5426 773.116 L14.5426 768.023 Z" fill="#000000" fill-rule="nonzero" fill-opacity="1"></path><path clip-path="url(#clip700)" d="M35.1993 728.906 Q31.2526 726.71 29.3747 723.654 Q27.4968 720.598 27.4968 716.461 Q27.4968 710.891 31.4117 707.867 Q35.2948 704.843 42.4881 704.843 L64.0042 704.843 L64.0042 710.732 L42.679 710.732 Q37.5546 710.732 35.072 712.546 Q32.5894 714.36 32.5894 718.084 Q32.5894 722.635 35.6131 725.277 Q38.6368 727.919 43.8567 727.919 L64.0042 727.919 L64.0042 733.807 L42.679 733.807 Q37.5228 733.807 35.072 735.622 Q32.5894 737.436 32.5894 741.223 Q32.5894 745.711 35.6449 748.353 Q38.6686 750.995 43.8567 750.995 L64.0042 750.995 L64.0042 756.883 L28.3562 756.883 L28.3562 750.995 L33.8944 750.995 Q30.616 748.99 29.0564 746.189 Q27.4968 743.388 27.4968 739.536 Q27.4968 735.653 29.4702 732.948 Q31.4436 730.211 35.1993 728.906 Z" fill="#000000" fill-rule="nonzero" fill-opacity="1"></path><path clip-path="url(#clip700)" d="M55.9197 692.335 L55.9197 685.619 L64.0042 685.619 L64.0042 692.335 L55.9197 692.335 Z" fill="#000000" fill-rule="nonzero" fill-opacity="1"></path><path clip-path="url(#clip700)" d="M46.0847 656.241 Q46.0847 663.339 47.7079 666.076 Q49.3312 668.813 53.2461 668.813 Q56.3653 668.813 58.2114 666.776 Q60.0256 664.708 60.0256 661.175 Q60.0256 656.305 56.5881 653.377 Q53.1188 650.417 47.3897 650.417 L46.0847 650.417 L46.0847 656.241 M43.6657 644.56 L64.0042 644.56 L64.0042 650.417 L58.5933 650.417 Q61.8398 652.422 63.3994 655.414 Q64.9272 658.406 64.9272 662.734 Q64.9272 668.209 61.8716 671.455 Q58.7843 674.67 53.6281 674.67 Q47.6125 674.67 44.5569 670.66 Q41.5014 666.617 41.5014 658.628 L41.5014 650.417 L40.9285 650.417 Q36.8862 650.417 34.6901 653.09 Q32.4621 655.732 32.4621 660.538 Q32.4621 663.594 33.1941 666.49 Q33.9262 669.386 35.3903 672.06 L29.9795 672.06 Q28.7381 668.845 28.1334 665.822 Q27.4968 662.798 27.4968 659.933 Q27.4968 652.199 31.5072 648.38 Q35.5176 644.56 43.6657 644.56 Z" fill="#000000" fill-rule="nonzero" fill-opacity="1"></path><path clip-path="url(#clip700)" d="M55.9197 631.67 L55.9197 624.954 L64.0042 624.954 L64.0042 631.67 L55.9197 631.67 Z" fill="#000000" fill-rule="nonzero" fill-opacity="1"></path><path clip-path="url(#clip700)" d="M29.4065 589.051 L34.9447 589.051 Q33.6716 591.534 33.035 594.207 Q32.3984 596.881 32.3984 599.746 Q32.3984 604.106 33.7352 606.302 Q35.072 608.467 37.7456 608.467 Q39.7826 608.467 40.9603 606.907 Q42.1061 605.347 43.1565 600.637 L43.6021 598.632 Q44.9389 592.393 47.3897 589.783 Q49.8086 587.141 54.1691 587.141 Q59.1344 587.141 62.0308 591.088 Q64.9272 595.003 64.9272 601.878 Q64.9272 604.743 64.3543 607.862 Q63.8132 610.949 62.6992 614.387 L56.6518 614.387 Q58.3387 611.14 59.198 607.989 Q60.0256 604.838 60.0256 601.751 Q60.0256 597.613 58.6251 595.385 Q57.1929 593.157 54.6147 593.157 Q52.2276 593.157 50.9545 594.78 Q49.6813 596.372 48.5037 601.814 L48.0262 603.851 Q46.8804 609.294 44.5251 611.713 Q42.138 614.132 38.0002 614.132 Q32.9713 614.132 30.2341 610.567 Q27.4968 607.002 27.4968 600.446 Q27.4968 597.199 27.9743 594.335 Q28.4517 591.47 29.4065 589.051 Z" fill="#000000" fill-rule="nonzero" fill-opacity="1"></path><path clip-path="url(#clip700)" d="M55.9197 576.988 L55.9197 570.272 L64.0042 570.272 L64.0042 576.988 L55.9197 576.988 Z" fill="#000000" fill-rule="nonzero" fill-opacity="1"></path><path clip-path="url(#clip700)" d="M14.479 557.095 L14.479 551.239 L64.0042 551.239 L64.0042 557.095 L14.479 557.095 Z" fill="#000000" fill-rule="nonzero" fill-opacity="1"></path><path clip-path="url(#clip700)" d="M55.9197 538.157 L55.9197 531.442 L64.0042 531.442 L64.0042 538.157 L55.9197 538.157 Z" fill="#000000" fill-rule="nonzero" fill-opacity="1"></path><path clip-path="url(#clip700)" d="M14.5426 519.188 L14.5426 514.095 Q22.0542 509.321 29.2474 506.965 Q36.4406 504.578 43.5384 504.578 Q50.668 504.578 57.8931 506.965 Q65.1182 509.321 72.5979 514.095 L72.5979 519.188 Q65.3091 514.954 58.1159 512.885 Q50.8908 510.785 43.5384 510.785 Q36.186 510.785 29.0246 512.885 Q21.8632 514.954 14.5426 519.188 Z" fill="#000000" fill-rule="nonzero" fill-opacity="1"></path><path clip-path="url(#clip700)" d="M459.342 12.096 L494.099 12.096 L494.099 18.9825 L467.525 18.9825 L467.525 36.8065 L491.506 36.8065 L491.506 43.6931 L467.525 43.6931 L467.525 72.576 L459.342 72.576 L459.342 12.096 Z" fill="#000000" fill-rule="nonzero" fill-opacity="1"></path><path clip-path="url(#clip700)" d="M526.992 34.1734 Q525.736 33.4443 524.238 33.1202 Q522.779 32.7556 520.997 32.7556 Q514.677 32.7556 511.275 36.8875 Q507.912 40.9789 507.912 48.6757 L507.912 72.576 L500.418 72.576 L500.418 27.2059 L507.912 27.2059 L507.912 34.2544 Q510.262 30.1225 514.029 28.1376 Q517.797 26.1121 523.184 26.1121 Q523.954 26.1121 524.886 26.2337 Q525.817 26.3147 526.952 26.5172 L526.992 34.1734 Z" fill="#000000" fill-rule="nonzero" fill-opacity="1"></path><path clip-path="url(#clip700)" d="M558.346 19.2256 L537.687 51.5113 L558.346 51.5113 L558.346 19.2256 M556.199 12.096 L566.489 12.096 L566.489 51.5113 L575.117 51.5113 L575.117 58.3168 L566.489 58.3168 L566.489 72.576 L558.346 72.576 L558.346 58.3168 L531.043 58.3168 L531.043 50.4176 L556.199 12.096 Z" fill="#000000" fill-rule="nonzero" fill-opacity="1"></path><path clip-path="url(#clip700)" d="M587.918 12.096 L598.936 12.096 L625.753 62.6918 L625.753 12.096 L633.693 12.096 L633.693 72.576 L622.675 72.576 L595.858 21.9802 L595.858 72.576 L587.918 72.576 L587.918 12.096 Z" fill="#000000" fill-rule="nonzero" fill-opacity="1"></path><path clip-path="url(#clip700)" d="M668.207 17.4837 Q661.887 17.4837 658.687 23.7221 Q655.527 29.92 655.527 42.3968 Q655.527 54.833 658.687 61.0714 Q661.887 67.2693 668.207 67.2693 Q674.567 67.2693 677.726 61.0714 Q680.927 54.833 680.927 42.3968 Q680.927 29.92 677.726 23.7221 Q674.567 17.4837 668.207 17.4837 M668.207 11.0023 Q678.375 11.0023 683.722 19.0636 Q689.109 27.0843 689.109 42.3968 Q689.109 57.6687 683.722 65.73 Q678.375 73.7508 668.207 73.7508 Q658.039 73.7508 652.651 65.73 Q647.304 57.6687 647.304 42.3968 Q647.304 27.0843 652.651 19.0636 Q658.039 11.0023 668.207 11.0023 Z" fill="#000000" fill-rule="nonzero" fill-opacity="1"></path><path clip-path="url(#clip700)" d="M704.908 65.6895 L718.276 65.6895 L718.276 19.5497 L703.733 22.4663 L703.733 15.0127 L718.195 12.096 L726.378 12.096 L726.378 65.6895 L739.746 65.6895 L739.746 72.576 L704.908 72.576 L704.908 65.6895 Z" fill="#000000" fill-rule="nonzero" fill-opacity="1"></path><path clip-path="url(#clip700)" d="M763.322 65.6895 L791.881 65.6895 L791.881 72.576 L753.478 72.576 L753.478 65.6895 Q758.137 60.8689 766.158 52.7671 Q774.219 44.6248 776.285 42.2752 Q780.214 37.8598 781.754 34.8216 Q783.333 31.7429 783.333 28.7857 Q783.333 23.9651 779.931 20.927 Q776.568 17.8888 771.14 17.8888 Q767.292 17.8888 762.998 19.2256 Q758.744 20.5624 753.883 23.2765 L753.883 15.0127 Q758.825 13.0277 763.119 12.015 Q767.413 11.0023 770.978 11.0023 Q780.376 11.0023 785.967 15.7013 Q791.557 20.4004 791.557 28.2591 Q791.557 31.9859 790.139 35.3482 Q788.762 38.6699 785.075 43.2069 Q784.063 44.3817 778.634 50.0125 Q773.206 55.6027 763.322 65.6895 Z" fill="#000000" fill-rule="nonzero" fill-opacity="1"></path><path clip-path="url(#clip700)" d="M833.848 39.9662 Q839.722 41.222 843.003 45.1919 Q846.325 49.1618 846.325 54.9951 Q846.325 63.9476 840.168 68.8492 Q834.01 73.7508 822.668 73.7508 Q818.86 73.7508 814.809 72.9811 Q810.799 72.2519 806.505 70.7531 L806.505 62.8538 Q809.907 64.8388 813.958 65.8515 Q818.009 66.8642 822.425 66.8642 Q830.121 66.8642 834.132 63.826 Q838.183 60.7879 838.183 54.9951 Q838.183 49.6479 834.415 46.6502 Q830.689 43.612 824.005 43.612 L816.956 43.612 L816.956 36.8875 L824.329 36.8875 Q830.364 36.8875 833.565 34.4975 Q836.765 32.067 836.765 27.5299 Q836.765 22.8714 833.443 20.4004 Q830.162 17.8888 824.005 17.8888 Q820.642 17.8888 816.794 18.618 Q812.946 19.3471 808.328 20.8865 L808.328 13.5948 Q812.986 12.2985 817.037 11.6504 Q821.128 11.0023 824.734 11.0023 Q834.051 11.0023 839.479 15.2557 Q844.907 19.4686 844.907 26.6793 Q844.907 31.7024 842.031 35.1862 Q839.155 38.6294 833.848 39.9662 Z" fill="#000000" fill-rule="nonzero" fill-opacity="1"></path><path clip-path="url(#clip700)" d="M859.774 12.096 L898.663 12.096 L898.663 15.5798 L876.707 72.576 L868.159 72.576 L888.819 18.9825 L859.774 18.9825 L859.774 12.096 Z" fill="#000000" fill-rule="nonzero" fill-opacity="1"></path><path clip-path="url(#clip700)" d="M922.077 18.8205 L922.077 65.8515 L931.961 65.8515 Q944.478 65.8515 950.271 60.1802 Q956.105 54.509 956.105 42.2752 Q956.105 30.1225 950.271 24.4918 Q944.478 18.8205 931.961 18.8205 L922.077 18.8205 M913.894 12.096 L930.705 12.096 Q948.286 12.096 956.51 19.4281 Q964.733 26.7198 964.733 42.2752 Q964.733 57.9117 956.469 65.2439 Q948.205 72.576 930.705 72.576 L913.894 72.576 L913.894 12.096 Z" fill="#000000" fill-rule="nonzero" fill-opacity="1"></path><path clip-path="url(#clip700)" d="M996.006 17.4837 Q989.687 17.4837 986.486 23.7221 Q983.327 29.92 983.327 42.3968 Q983.327 54.833 986.486 61.0714 Q989.687 67.2693 996.006 67.2693 Q1002.37 67.2693 1005.53 61.0714 Q1008.73 54.833 1008.73 42.3968 Q1008.73 29.92 1005.53 23.7221 Q1002.37 17.4837 996.006 17.4837 M996.006 11.0023 Q1006.17 11.0023 1011.52 19.0636 Q1016.91 27.0843 1016.91 42.3968 Q1016.91 57.6687 1011.52 65.73 Q1006.17 73.7508 996.006 73.7508 Q985.838 73.7508 980.45 65.73 Q975.103 57.6687 975.103 42.3968 Q975.103 27.0843 980.45 19.0636 Q985.838 11.0023 996.006 11.0023 Z" fill="#000000" fill-rule="nonzero" fill-opacity="1"></path><path clip-path="url(#clip700)" d="M1056.08 39.9662 Q1061.95 41.222 1065.24 45.1919 Q1068.56 49.1618 1068.56 54.9951 Q1068.56 63.9476 1062.4 68.8492 Q1056.24 73.7508 1044.9 73.7508 Q1041.09 73.7508 1037.04 72.9811 Q1033.03 72.2519 1028.74 70.7531 L1028.74 62.8538 Q1032.14 64.8388 1036.19 65.8515 Q1040.24 66.8642 1044.66 66.8642 Q1052.35 66.8642 1056.36 63.826 Q1060.42 60.7879 1060.42 54.9951 Q1060.42 49.6479 1056.65 46.6502 Q1052.92 43.612 1046.24 43.612 L1039.19 43.612 L1039.19 36.8875 L1046.56 36.8875 Q1052.6 36.8875 1055.8 34.4975 Q1059 32.067 1059 27.5299 Q1059 22.8714 1055.68 20.4004 Q1052.39 17.8888 1046.24 17.8888 Q1042.87 17.8888 1039.03 18.618 Q1035.18 19.3471 1030.56 20.8865 L1030.56 13.5948 Q1035.22 12.2985 1039.27 11.6504 Q1043.36 11.0023 1046.97 11.0023 Q1056.28 11.0023 1061.71 15.2557 Q1067.14 19.4686 1067.14 26.6793 Q1067.14 31.7024 1064.26 35.1862 Q1061.39 38.6294 1056.08 39.9662 Z" fill="#000000" fill-rule="nonzero" fill-opacity="1"></path><path clip-path="url(#clip700)" d="M1117.9 43.6931 L1117.9 65.8515 L1131.02 65.8515 Q1137.63 65.8515 1140.79 63.1374 Q1143.99 60.3828 1143.99 54.752 Q1143.99 49.0808 1140.79 46.4072 Q1137.63 43.6931 1131.02 43.6931 L1117.9 43.6931 M1117.9 18.8205 L1117.9 37.0496 L1130.01 37.0496 Q1136.01 37.0496 1138.92 34.8216 Q1141.88 32.5531 1141.88 27.935 Q1141.88 23.3575 1138.92 21.089 Q1136.01 18.8205 1130.01 18.8205 L1117.9 18.8205 M1109.71 12.096 L1130.62 12.096 Q1139.98 12.096 1145.04 15.9849 Q1150.1 19.8737 1150.1 27.0438 Q1150.1 32.5936 1147.51 35.8748 Q1144.92 39.156 1139.89 39.9662 Q1145.93 41.2625 1149.25 45.3944 Q1152.61 49.4858 1152.61 55.6432 Q1152.61 63.745 1147.1 68.1605 Q1141.6 72.576 1131.43 72.576 L1109.71 72.576 L1109.71 12.096 Z" fill="#000000" fill-rule="nonzero" fill-opacity="1"></path><path clip-path="url(#clip700)" d="M1183.89 32.4315 Q1177.89 32.4315 1174.41 37.1306 Q1170.92 41.7891 1170.92 49.9314 Q1170.92 58.0738 1174.37 62.7728 Q1177.85 67.4314 1183.89 67.4314 Q1189.84 67.4314 1193.33 62.7323 Q1196.81 58.0333 1196.81 49.9314 Q1196.81 41.8701 1193.33 37.1711 Q1189.84 32.4315 1183.89 32.4315 M1183.89 26.1121 Q1193.61 26.1121 1199.16 32.4315 Q1204.71 38.7509 1204.71 49.9314 Q1204.71 61.0714 1199.16 67.4314 Q1193.61 73.7508 1183.89 73.7508 Q1174.12 73.7508 1168.57 67.4314 Q1163.07 61.0714 1163.07 49.9314 Q1163.07 38.7509 1168.57 32.4315 Q1174.12 26.1121 1183.89 26.1121 Z" fill="#000000" fill-rule="nonzero" fill-opacity="1"></path><path clip-path="url(#clip700)" d="M1245.99 28.5427 L1245.99 35.5912 Q1242.83 33.9709 1239.42 33.1607 Q1236.02 32.3505 1232.38 32.3505 Q1226.83 32.3505 1224.03 34.0519 Q1221.28 35.7533 1221.28 39.156 Q1221.28 41.7486 1223.26 43.2475 Q1225.25 44.7058 1231.24 46.0426 L1233.79 46.6097 Q1241.73 48.3111 1245.06 51.4303 Q1248.42 54.509 1248.42 60.0587 Q1248.42 66.3781 1243.39 70.0644 Q1238.41 73.7508 1229.66 73.7508 Q1226.02 73.7508 1222.05 73.0216 Q1218.12 72.3329 1213.74 70.9151 L1213.74 63.2184 Q1217.87 65.3654 1221.88 66.4591 Q1225.89 67.5124 1229.82 67.5124 Q1235.09 67.5124 1237.93 65.73 Q1240.76 63.9071 1240.76 60.6258 Q1240.76 57.5877 1238.7 55.9673 Q1236.67 54.3469 1229.74 52.8481 L1227.15 52.2405 Q1220.22 50.7821 1217.14 47.7845 Q1214.07 44.7463 1214.07 39.4801 Q1214.07 33.0797 1218.6 29.5959 Q1223.14 26.1121 1231.48 26.1121 Q1235.62 26.1121 1239.26 26.7198 Q1242.91 27.3274 1245.99 28.5427 Z" fill="#000000" fill-rule="nonzero" fill-opacity="1"></path><path clip-path="url(#clip700)" d="M1289.21 28.5427 L1289.21 35.5912 Q1286.05 33.9709 1282.65 33.1607 Q1279.25 32.3505 1275.6 32.3505 Q1270.05 32.3505 1267.25 34.0519 Q1264.5 35.7533 1264.5 39.156 Q1264.5 41.7486 1266.48 43.2475 Q1268.47 44.7058 1274.47 46.0426 L1277.02 46.6097 Q1284.96 48.3111 1288.28 51.4303 Q1291.64 54.509 1291.64 60.0587 Q1291.64 66.3781 1286.62 70.0644 Q1281.64 73.7508 1272.89 73.7508 Q1269.24 73.7508 1265.27 73.0216 Q1261.34 72.3329 1256.97 70.9151 L1256.97 63.2184 Q1261.1 65.3654 1265.11 66.4591 Q1269.12 67.5124 1273.05 67.5124 Q1278.31 67.5124 1281.15 65.73 Q1283.98 63.9071 1283.98 60.6258 Q1283.98 57.5877 1281.92 55.9673 Q1279.89 54.3469 1272.97 52.8481 L1270.37 52.2405 Q1263.45 50.7821 1260.37 47.7845 Q1257.29 44.7463 1257.29 39.4801 Q1257.29 33.0797 1261.83 29.5959 Q1266.36 26.1121 1274.71 26.1121 Q1278.84 26.1121 1282.49 26.7198 Q1286.13 27.3274 1289.21 28.5427 Z" fill="#000000" fill-rule="nonzero" fill-opacity="1"></path><path clip-path="url(#clip700)" d="M1321.09 32.4315 Q1315.1 32.4315 1311.61 37.1306 Q1308.13 41.7891 1308.13 49.9314 Q1308.13 58.0738 1311.57 62.7728 Q1315.06 67.4314 1321.09 67.4314 Q1327.05 67.4314 1330.53 62.7323 Q1334.01 58.0333 1334.01 49.9314 Q1334.01 41.8701 1330.53 37.1711 Q1327.05 32.4315 1321.09 32.4315 M1321.09 26.1121 Q1330.81 26.1121 1336.36 32.4315 Q1341.91 38.7509 1341.91 49.9314 Q1341.91 61.0714 1336.36 67.4314 Q1330.81 73.7508 1321.09 73.7508 Q1311.33 73.7508 1305.78 67.4314 Q1300.27 61.0714 1300.27 49.9314 Q1300.27 38.7509 1305.78 32.4315 Q1311.33 26.1121 1321.09 26.1121 Z" fill="#000000" fill-rule="nonzero" fill-opacity="1"></path><path clip-path="url(#clip700)" d="M1391.98 45.1919 L1391.98 72.576 L1384.53 72.576 L1384.53 45.4349 Q1384.53 38.994 1382.02 35.7938 Q1379.51 32.5936 1374.48 32.5936 Q1368.45 32.5936 1364.96 36.4419 Q1361.48 40.2903 1361.48 46.9338 L1361.48 72.576 L1353.98 72.576 L1353.98 27.2059 L1361.48 27.2059 L1361.48 34.2544 Q1364.15 30.163 1367.76 28.1376 Q1371.4 26.1121 1376.14 26.1121 Q1383.96 26.1121 1387.97 30.9732 Q1391.98 35.7938 1391.98 45.1919 Z" fill="#000000" fill-rule="nonzero" fill-opacity="1"></path><path clip-path="url(#clip700)" d="M1435.77 28.5427 L1435.77 35.5912 Q1432.61 33.9709 1429.21 33.1607 Q1425.81 32.3505 1422.16 32.3505 Q1416.61 32.3505 1413.82 34.0519 Q1411.06 35.7533 1411.06 39.156 Q1411.06 41.7486 1413.05 43.2475 Q1415.03 44.7058 1421.03 46.0426 L1423.58 46.6097 Q1431.52 48.3111 1434.84 51.4303 Q1438.2 54.509 1438.2 60.0587 Q1438.2 66.3781 1433.18 70.0644 Q1428.2 73.7508 1419.45 73.7508 Q1415.8 73.7508 1411.83 73.0216 Q1407.9 72.3329 1403.53 70.9151 L1403.53 63.2184 Q1407.66 65.3654 1411.67 66.4591 Q1415.68 67.5124 1419.61 67.5124 Q1424.88 67.5124 1427.71 65.73 Q1430.55 63.9071 1430.55 60.6258 Q1430.55 57.5877 1428.48 55.9673 Q1426.46 54.3469 1419.53 52.8481 L1416.94 52.2405 Q1410.01 50.7821 1406.93 47.7845 Q1403.85 44.7463 1403.85 39.4801 Q1403.85 33.0797 1408.39 29.5959 Q1412.92 26.1121 1421.27 26.1121 Q1425.4 26.1121 1429.05 26.7198 Q1432.69 27.3274 1435.77 28.5427 Z" fill="#000000" fill-rule="nonzero" fill-opacity="1"></path><path clip-path="url(#clip700)" d="M1494.35 9.62495 Q1488.92 18.942 1486.29 28.0566 Q1483.65 37.1711 1483.65 46.5287 Q1483.65 55.8863 1486.29 65.0818 Q1488.96 74.2369 1494.35 83.5134 L1487.87 83.5134 Q1481.79 73.9938 1478.75 64.7983 Q1475.75 55.6027 1475.75 46.5287 Q1475.75 37.4952 1478.75 28.3401 Q1481.75 19.1851 1487.87 9.62495 L1494.35 9.62495 Z" fill="#000000" fill-rule="nonzero" fill-opacity="1"></path><path clip-path="url(#clip700)" d="M1531.78 9.54393 L1531.78 15.7418 L1524.65 15.7418 Q1520.64 15.7418 1519.06 17.3622 Q1517.52 18.9825 1517.52 23.1955 L1517.52 27.2059 L1529.79 27.2059 L1529.79 32.9987 L1517.52 32.9987 L1517.52 72.576 L1510.03 72.576 L1510.03 32.9987 L1502.9 32.9987 L1502.9 27.2059 L1510.03 27.2059 L1510.03 24.0462 Q1510.03 16.471 1513.55 13.0277 Q1517.07 9.54393 1524.73 9.54393 L1531.78 9.54393 Z" fill="#000000" fill-rule="nonzero" fill-opacity="1"></path><path clip-path="url(#clip700)" d="M1555.6 32.4315 Q1549.6 32.4315 1546.12 37.1306 Q1542.63 41.7891 1542.63 49.9314 Q1542.63 58.0738 1546.08 62.7728 Q1549.56 67.4314 1555.6 67.4314 Q1561.55 67.4314 1565.04 62.7323 Q1568.52 58.0333 1568.52 49.9314 Q1568.52 41.8701 1565.04 37.1711 Q1561.55 32.4315 1555.6 32.4315 M1555.6 26.1121 Q1565.32 26.1121 1570.87 32.4315 Q1576.42 38.7509 1576.42 49.9314 Q1576.42 61.0714 1570.87 67.4314 Q1565.32 73.7508 1555.6 73.7508 Q1545.84 73.7508 1540.29 67.4314 Q1534.78 61.0714 1534.78 49.9314 Q1534.78 38.7509 1540.29 32.4315 Q1545.84 26.1121 1555.6 26.1121 Z" fill="#000000" fill-rule="nonzero" fill-opacity="1"></path><path clip-path="url(#clip700)" d="M1615.07 34.1734 Q1613.81 33.4443 1612.31 33.1202 Q1610.85 32.7556 1609.07 32.7556 Q1602.75 32.7556 1599.35 36.8875 Q1595.99 40.9789 1595.99 48.6757 L1595.99 72.576 L1588.49 72.576 L1588.49 27.2059 L1595.99 27.2059 L1595.99 34.2544 Q1598.33 30.1225 1602.1 28.1376 Q1605.87 26.1121 1611.26 26.1121 Q1612.03 26.1121 1612.96 26.2337 Q1613.89 26.3147 1615.02 26.5172 L1615.07 34.1734 Z" fill="#000000" fill-rule="nonzero" fill-opacity="1"></path><path clip-path="url(#clip700)" d="M1651.73 65.6895 L1665.09 65.6895 L1665.09 19.5497 L1650.55 22.4663 L1650.55 15.0127 L1665.01 12.096 L1673.2 12.096 L1673.2 65.6895 L1686.56 65.6895 L1686.56 72.576 L1651.73 72.576 L1651.73 65.6895 Z" fill="#000000" fill-rule="nonzero" fill-opacity="1"></path><path clip-path="url(#clip700)" d="M1720.59 17.4837 Q1714.27 17.4837 1711.07 23.7221 Q1707.91 29.92 1707.91 42.3968 Q1707.91 54.833 1711.07 61.0714 Q1714.27 67.2693 1720.59 67.2693 Q1726.95 67.2693 1730.11 61.0714 Q1733.31 54.833 1733.31 42.3968 Q1733.31 29.92 1730.11 23.7221 Q1726.95 17.4837 1720.59 17.4837 M1720.59 11.0023 Q1730.76 11.0023 1736.11 19.0636 Q1741.49 27.0843 1741.49 42.3968 Q1741.49 57.6687 1736.11 65.73 Q1730.76 73.7508 1720.59 73.7508 Q1710.42 73.7508 1705.04 65.73 Q1699.69 57.6687 1699.69 42.3968 Q1699.69 27.0843 1705.04 19.0636 Q1710.42 11.0023 1720.59 11.0023 Z" fill="#000000" fill-rule="nonzero" fill-opacity="1"></path><path clip-path="url(#clip700)" d="M1773.37 17.4837 Q1767.06 17.4837 1763.85 23.7221 Q1760.7 29.92 1760.7 42.3968 Q1760.7 54.833 1763.85 61.0714 Q1767.06 67.2693 1773.37 67.2693 Q1779.73 67.2693 1782.89 61.0714 Q1786.09 54.833 1786.09 42.3968 Q1786.09 29.92 1782.89 23.7221 Q1779.73 17.4837 1773.37 17.4837 M1773.37 11.0023 Q1783.54 11.0023 1788.89 19.0636 Q1794.28 27.0843 1794.28 42.3968 Q1794.28 57.6687 1788.89 65.73 Q1783.54 73.7508 1773.37 73.7508 Q1763.21 73.7508 1757.82 65.73 Q1752.47 57.6687 1752.47 42.3968 Q1752.47 27.0843 1757.82 19.0636 Q1763.21 11.0023 1773.37 11.0023 Z" fill="#000000" fill-rule="nonzero" fill-opacity="1"></path><path clip-path="url(#clip700)" d="M1808.66 62.2867 L1817.21 62.2867 L1817.21 72.576 L1808.66 72.576 L1808.66 62.2867 Z" fill="#000000" fill-rule="nonzero" fill-opacity="1"></path><path clip-path="url(#clip700)" d="M1852.53 17.4837 Q1846.21 17.4837 1843.01 23.7221 Q1839.85 29.92 1839.85 42.3968 Q1839.85 54.833 1843.01 61.0714 Q1846.21 67.2693 1852.53 67.2693 Q1858.89 67.2693 1862.05 61.0714 Q1865.25 54.833 1865.25 42.3968 Q1865.25 29.92 1862.05 23.7221 Q1858.89 17.4837 1852.53 17.4837 M1852.53 11.0023 Q1862.7 11.0023 1868.04 19.0636 Q1873.43 27.0843 1873.43 42.3968 Q1873.43 57.6687 1868.04 65.73 Q1862.7 73.7508 1852.53 73.7508 Q1842.36 73.7508 1836.97 65.73 Q1831.63 57.6687 1831.63 42.3968 Q1831.63 27.0843 1836.97 19.0636 Q1842.36 11.0023 1852.53 11.0023 Z" fill="#000000" fill-rule="nonzero" fill-opacity="1"></path><path clip-path="url(#clip700)" d="M1932.01 76.7889 Q1928.85 84.8907 1925.85 87.3618 Q1922.85 89.8329 1917.83 89.8329 L1911.87 89.8329 L1911.87 83.5945 L1916.25 83.5945 Q1919.33 83.5945 1921.03 82.1361 Q1922.73 80.6778 1924.8 75.2496 L1926.13 71.8468 L1907.78 27.2059 L1915.68 27.2059 L1929.86 62.6918 L1944.04 27.2059 L1951.94 27.2059 L1932.01 76.7889 Z" fill="#000000" fill-rule="nonzero" fill-opacity="1"></path><path clip-path="url(#clip700)" d="M2001.04 48.0275 L2001.04 51.6733 L1966.76 51.6733 Q1967.25 59.3701 1971.38 63.421 Q1975.56 67.4314 1982.97 67.4314 Q1987.26 67.4314 1991.27 66.3781 Q1995.32 65.3249 1999.29 63.2184 L1999.29 70.267 Q1995.28 71.9684 1991.07 72.8596 Q1986.86 73.7508 1982.52 73.7508 Q1971.67 73.7508 1965.31 67.4314 Q1958.99 61.1119 1958.99 50.3365 Q1958.99 39.1965 1964.98 32.6746 Q1971.02 26.1121 1981.23 26.1121 Q1990.38 26.1121 1995.69 32.0264 Q2001.04 37.9003 2001.04 48.0275 M1993.58 45.84 Q1993.5 39.7232 1990.14 36.0774 Q1986.82 32.4315 1981.31 32.4315 Q1975.07 32.4315 1971.3 35.9558 Q1967.57 39.4801 1967.01 45.8805 L1993.58 45.84 Z" fill="#000000" fill-rule="nonzero" fill-opacity="1"></path><path clip-path="url(#clip700)" d="M2033.89 49.7694 Q2024.85 49.7694 2021.37 51.8354 Q2017.89 53.9013 2017.89 58.8839 Q2017.89 62.8538 2020.48 65.2034 Q2023.11 67.5124 2027.61 67.5124 Q2033.81 67.5124 2037.53 63.1374 Q2041.3 58.7219 2041.3 51.4303 L2041.3 49.7694 L2033.89 49.7694 M2048.75 46.6907 L2048.75 72.576 L2041.3 72.576 L2041.3 65.6895 Q2038.75 69.8214 2034.94 71.8063 Q2031.13 73.7508 2025.62 73.7508 Q2018.66 73.7508 2014.52 69.8619 Q2010.43 65.9325 2010.43 59.3701 Q2010.43 51.7138 2015.54 47.825 Q2020.68 43.9361 2030.85 43.9361 L2041.3 43.9361 L2041.3 43.2069 Q2041.3 38.0623 2037.9 35.2672 Q2034.54 32.4315 2028.42 32.4315 Q2024.53 32.4315 2020.84 33.3632 Q2017.16 34.295 2013.76 36.1584 L2013.76 29.2718 Q2017.85 27.692 2021.69 26.9223 Q2025.54 26.1121 2029.19 26.1121 Q2039.03 26.1121 2043.89 31.2163 Q2048.75 36.3204 2048.75 46.6907 Z" fill="#000000" fill-rule="nonzero" fill-opacity="1"></path><path clip-path="url(#clip700)" d="M2090.4 34.1734 Q2089.14 33.4443 2087.64 33.1202 Q2086.19 32.7556 2084.4 32.7556 Q2078.08 32.7556 2074.68 36.8875 Q2071.32 40.9789 2071.32 48.6757 L2071.32 72.576 L2063.82 72.576 L2063.82 27.2059 L2071.32 27.2059 L2071.32 34.2544 Q2073.67 30.1225 2077.44 28.1376 Q2081.2 26.1121 2086.59 26.1121 Q2087.36 26.1121 2088.29 26.2337 Q2089.22 26.3147 2090.36 26.5172 L2090.4 34.1734 Z" fill="#000000" fill-rule="nonzero" fill-opacity="1"></path><path clip-path="url(#clip700)" d="M2127.14 28.5427 L2127.14 35.5912 Q2123.98 33.9709 2120.58 33.1607 Q2117.17 32.3505 2113.53 32.3505 Q2107.98 32.3505 2105.18 34.0519 Q2102.43 35.7533 2102.43 39.156 Q2102.43 41.7486 2104.41 43.2475 Q2106.4 44.7058 2112.39 46.0426 L2114.95 46.6097 Q2122.89 48.3111 2126.21 51.4303 Q2129.57 54.509 2129.57 60.0587 Q2129.57 66.3781 2124.55 70.0644 Q2119.56 73.7508 2110.81 73.7508 Q2107.17 73.7508 2103.2 73.0216 Q2099.27 72.3329 2094.89 70.9151 L2094.89 63.2184 Q2099.03 65.3654 2103.04 66.4591 Q2107.05 67.5124 2110.98 67.5124 Q2116.24 67.5124 2119.08 65.73 Q2121.91 63.9071 2121.91 60.6258 Q2121.91 57.5877 2119.85 55.9673 Q2117.82 54.3469 2110.9 52.8481 L2108.3 52.2405 Q2101.38 50.7821 2098.3 47.7845 Q2095.22 44.7463 2095.22 39.4801 Q2095.22 33.0797 2099.76 29.5959 Q2104.29 26.1121 2112.64 26.1121 Q2116.77 26.1121 2120.42 26.7198 Q2124.06 27.3274 2127.14 28.5427 Z" fill="#000000" fill-rule="nonzero" fill-opacity="1"></path><path clip-path="url(#clip700)" d="M2140.26 9.62495 L2146.75 9.62495 Q2152.82 19.1851 2155.82 28.3401 Q2158.86 37.4952 2158.86 46.5287 Q2158.86 55.6027 2155.82 64.7983 Q2152.82 73.9938 2146.75 83.5134 L2140.26 83.5134 Q2145.65 74.2369 2148.29 65.0818 Q2150.96 55.8863 2150.96 46.5287 Q2150.96 37.1711 2148.29 28.0566 Q2145.65 18.942 2140.26 9.62495 Z" fill="#000000" fill-rule="nonzero" fill-opacity="1"></path><polyline clip-path="url(#clip702)" style="stroke:#a52a2a; stroke-linecap:round; stroke-linejoin:round; stroke-width:4; stroke-opacity:1; fill:none" points="324.52,201.14 342.101,200.734 359.683,192.22 377.265,200.349 394.847,222.37 412.429,250.574 430.01,273.587 447.592,298.681 465.174,324.445 482.756,346.098 500.338,363.317 517.919,367.826 535.501,379.433 553.083,398.142 570.665,418.44 588.247,435.123 605.828,454.473 623.41,472.564 640.992,489.22 658.574,515.477 676.156,547.935 693.737,581.165 711.319,606.083 728.901,612.03 746.483,637.52 764.065,667.992 781.646,695.892 799.228,722.706 816.81,742.269 834.392,750.184 851.974,765.207 869.555,784.749 887.137,804.324 904.719,823.092 922.301,839.066 939.883,851.766 957.464,866.376 975.046,883.035 992.628,903.828 1010.21,921.509 1027.79,933.86 1045.37,942.737 1062.96,950.951 1080.54,959.95 1098.12,971.69 1115.7,988.883 1133.28,1011.79 1150.86,1037.54 1168.45,1065.45 1186.03,1093.84 1203.61,1123.23 1221.19,1155.04 1238.77,1179.65 1256.35,1197.22 1273.94,1207.07 1291.52,1224.52 1309.1,1249.58 1326.68,1279.46 1344.26,1295.15 1361.85,1307.98 1379.43,1323.7 1397.01,1335.35 1414.59,1342.01 1432.17,1346.76 1449.75,1353.37 1467.34,1363.38 1484.92,1375.89 1502.5,1388.72 1520.08,1399.64 1537.66,1407.76 1555.25,1413.12 1572.83,1415.92 1590.41,1417.04 1607.99,1417.79 1625.57,1419 1643.15,1420.79 1660.74,1423.03 1678.32,1425.61 1695.9,1428.15 1713.48,1430.22 1731.06,1431.69 1748.65,1432.65 1766.23,1433.26 1783.81,1433.64 1801.39,1434.08 1818.97,1434.85 1836.55,1435.85 1854.14,1436.7 1871.72,1437.23 1889.3,1437.53 1906.88,1437.72 1924.46,1437.85 1942.05,1437.92 1959.63,1437.89 1977.21,1437.61 1994.79,1437.12 2012.37,1436.7 2029.95,1436.47 2047.54,1436.23 2065.12,1436.1 2082.7,1436.48 2100.28,1437.32 2117.86,1438.23 2135.44,1439.69 2153.03,1442.48 2170.61,1445.75 2188.19,1447.72 2205.77,1447.87 2223.35,1446.82 2240.94,1445.14 2258.52,1443.9 2276.1,1444.65 2293.68,1446.48 "></polyline>
<polyline clip-path="url(#clip702)" style="stroke:#0000ff; stroke-linecap:round; stroke-linejoin:round; stroke-width:4; stroke-opacity:1; fill:none" points="324.52,162.047 342.101,165.244 359.683,171.118 377.265,185.491 394.847,210.2 412.429,235.934 430.01,258.372 447.592,283.261 465.174,307.236 482.756,324.197 500.338,334.198 517.919,344.578 535.501,360.394 553.083,380.514 570.665,398.451 588.247,415.616 605.828,433.871 623.41,450.629 640.992,471.252 658.574,498.926 676.156,532.712 693.737,561.724 711.319,576.718 728.901,592.615 746.483,620.376 764.065,649.131 781.646,675.061 799.228,694.296 816.81,707.228 834.392,720.868 851.974,739.809 869.555,759.335 887.137,777.764 904.719,794.23 922.301,809.102 939.883,823.807 957.464,839.843 975.046,857.976 992.628,874.494 1010.21,886.85 1027.79,897.249 1045.37,907.489 1062.96,918.625 1080.54,931.698 1098.12,948.144 1115.7,969.505 1133.28,994.407 1150.86,1021.51 1168.45,1049.48 1186.03,1078.04 1203.61,1107.8 1221.19,1136.91 1238.77,1158.06 1256.35,1174.17 1273.94,1189.04 1291.52,1210.52 1309.1,1241.13 1326.68,1279.46 1344.26,1295.15 1361.85,1307.98 1379.43,1323.7 1397.01,1335.35 1414.59,1342.01 1432.17,1346.76 1449.75,1353.37 1467.34,1363.38 1484.92,1375.89 1502.5,1388.72 1520.08,1399.64 1537.66,1407.76 1555.25,1413.12 1572.83,1415.92 1590.41,1417.04 1607.99,1417.79 1625.57,1419 1643.15,1420.79 1660.74,1423.03 1678.32,1425.61 1695.9,1428.15 1713.48,1430.22 1731.06,1431.69 1748.65,1432.65 1766.23,1433.26 1783.81,1433.64 1801.39,1434.08 1818.97,1434.85 1836.55,1435.85 1854.14,1436.7 1871.72,1437.23 1889.3,1437.53 1906.88,1437.72 1924.46,1437.85 1942.05,1437.92 1959.63,1437.89 1977.21,1437.61 1994.79,1437.12 2012.37,1436.7 2029.95,1436.47 2047.54,1436.23 2065.12,1436.1 2082.7,1436.48 2100.28,1437.32 2117.86,1438.23 2135.44,1439.69 2153.03,1442.48 2170.61,1445.75 2188.19,1447.72 2205.77,1447.87 2223.35,1446.82 2240.94,1445.14 2258.52,1443.9 2276.1,1444.65 2293.68,1446.48 "></polyline>
<polyline clip-path="url(#clip702)" style="stroke:#ff0000; stroke-linecap:round; stroke-linejoin:round; stroke-width:4; stroke-opacity:1; fill:none" points="324.52,162.943 342.101,166.15 359.683,172.047 377.265,186.439 394.847,211.142 412.429,236.846 430.01,259.287 447.592,284.171 465.174,308.116 482.756,325.034 500.338,335.067 517.919,345.486 535.501,361.324 553.083,381.421 570.665,399.297 588.247,416.424 605.828,434.626 623.41,451.331 640.992,471.91 658.574,499.446 676.156,533.099 693.737,561.866 711.319,576.778 728.901,592.692 746.483,620.315 764.065,648.835 781.646,674.465 799.228,693.424 816.81,706.267 834.392,719.852 851.974,738.656 869.555,758.005 887.137,776.249 904.719,792.563 922.301,807.329 939.883,821.928 957.464,837.823 975.046,855.75 992.628,872.033 1010.21,884.249 1027.79,894.546 1045.37,904.699 1062.96,915.746 1080.54,928.724 1098.12,945.043 1115.7,966.202 1133.28,990.832 1150.86,1017.58 1168.45,1045.17 1186.03,1073.35 1203.61,1102.67 1221.19,1131.13 1238.77,1151.52 1256.35,1166.7 1273.94,1180.97 1291.52,1202.17 1309.1,1229.73 1326.68,1273.86 1344.26,1295.15 1361.85,1307.98 1379.43,1323.7 1397.01,1335.35 1414.59,1342.01 1432.17,1346.76 1449.75,1353.37 1467.34,1363.38 1484.92,1375.89 1502.5,1388.72 1520.08,1399.64 1537.66,1407.76 1555.25,1413.12 1572.83,1415.92 1590.41,1417.04 1607.99,1417.79 1625.57,1419 1643.15,1420.79 1660.74,1423.03 1678.32,1425.61 1695.9,1428.15 1713.48,1430.22 1731.06,1431.69 1748.65,1432.65 1766.23,1433.26 1783.81,1433.64 1801.39,1434.08 1818.97,1434.85 1836.55,1435.85 1854.14,1436.7 1871.72,1437.23 1889.3,1437.53 1906.88,1437.72 1924.46,1437.85 1942.05,1437.92 1959.63,1437.89 1977.21,1437.61 1994.79,1437.12 2012.37,1436.7 2029.95,1436.47 2047.54,1436.23 2065.12,1436.1 2082.7,1436.48 2100.28,1437.32 2117.86,1438.23 2135.44,1439.69 2153.03,1442.48 2170.61,1445.75 2188.19,1447.72 2205.77,1447.87 2223.35,1446.82 2240.94,1445.14 2258.52,1443.9 2276.1,1444.65 2293.68,1446.48 "></polyline>
<polyline clip-path="url(#clip702)" style="stroke:#008000; stroke-linecap:round; stroke-linejoin:round; stroke-width:4; stroke-opacity:1; fill:none" points="324.52,164.137 342.101,167.12 359.683,172.387 377.265,186.895 394.847,210.255 412.429,236.938 430.01,258.908 447.592,283.387 465.174,307.66 482.756,324.694 500.338,335.295 517.919,344.523 535.501,361.072 553.083,380.582 570.665,399.473 588.247,415.565 605.828,434.492 623.41,451.154 640.992,471.127 658.574,499.27 676.156,531.968 693.737,561.792 711.319,577.433 728.901,591.802 746.483,620.146 764.065,648.947 781.646,674.263 799.228,693.978 816.81,706.588 834.392,719.389 851.974,739.01 869.555,758.409 887.137,776.619 904.719,793.261 922.301,807.786 939.883,822.544 957.464,838.077 975.046,856.09 992.628,872.837 1010.21,885.028 1027.79,895.167 1045.37,905.486 1062.96,916.429 1080.54,929.564 1098.12,945.717 1115.7,967.031 1133.28,991.984 1150.86,1018.82 1168.45,1047.02 1186.03,1075.31 1203.61,1105.07 1221.19,1134.1 1238.77,1155.88 1256.35,1170.42 1273.94,1185.02 1291.52,1205.17 1309.1,1234.31 1326.68,1265.1 1344.26,1295.15 1361.85,1307.98 1379.43,1323.7 1397.01,1335.35 1414.59,1342.01 1432.17,1346.76 1449.75,1353.37 1467.34,1363.38 1484.92,1375.89 1502.5,1388.72 1520.08,1399.64 1537.66,1407.76 1555.25,1413.12 1572.83,1415.92 1590.41,1417.04 1607.99,1417.79 1625.57,1419 1643.15,1420.79 1660.74,1423.03 1678.32,1425.61 1695.9,1428.15 1713.48,1430.22 1731.06,1431.69 1748.65,1432.65 1766.23,1433.26 1783.81,1433.64 1801.39,1434.08 1818.97,1434.85 1836.55,1435.85 1854.14,1436.7 1871.72,1437.23 1889.3,1437.53 1906.88,1437.72 1924.46,1437.85 1942.05,1437.92 1959.63,1437.89 1977.21,1437.61 1994.79,1437.12 2012.37,1436.7 2029.95,1436.47 2047.54,1436.23 2065.12,1436.1 2082.7,1436.48 2100.28,1437.32 2117.86,1438.23 2135.44,1439.69 2153.03,1442.48 2170.61,1445.75 2188.19,1447.72 2205.77,1447.87 2223.35,1446.82 2240.94,1445.14 2258.52,1443.9 2276.1,1444.65 2293.68,1446.48 "></polyline>
<polyline clip-path="url(#clip702)" style="stroke:#000000; stroke-linecap:round; stroke-linejoin:round; stroke-width:4; stroke-opacity:1; fill:none" stroke-dasharray="16, 10" points="324.52,166.742 342.101,169.234 359.683,174.925 377.265,188.298 394.847,211.78 412.429,236.719 430.01,259.488 447.592,284.721 465.174,308.304 482.756,324.158 500.338,334.901 517.919,346.093 535.501,362.086 553.083,381.327 570.665,399.226 588.247,416.617 605.828,434.054 623.41,451.081 640.992,471.935 658.574,499.763 676.156,534.035 693.737,560.387 711.319,576.282 728.901,593.831 746.483,620.848 764.065,649.579 781.646,674.831 799.228,692.983 816.81,706.471 834.392,721.021 851.974,739.507 869.555,758.826 887.137,776.979 904.719,793.253 922.301,808.157 939.883,823.023 957.464,839.309 975.046,857.104 992.628,872.925 1010.21,885.25 1027.79,895.733 1045.37,906.006 1062.96,917.153 1080.54,930.275 1098.12,946.852 1115.7,968.054 1133.28,992.865 1150.86,1019.92 1168.45,1048.01 1186.03,1076.61 1203.61,1107.4 1221.19,1136.45 1238.77,1159.52 1256.35,1179.17 1273.94,1207.07 1291.52,1224.52 1309.1,1249.58 1326.68,1279.46 1344.26,1295.15 1361.85,1307.98 1379.43,1323.7 1397.01,1335.35 1414.59,1342.01 1432.17,1346.76 1449.75,1353.37 1467.34,1363.38 1484.92,1375.89 1502.5,1388.72 1520.08,1399.64 1537.66,1407.76 1555.25,1413.12 1572.83,1415.92 1590.41,1417.04 1607.99,1417.79 1625.57,1419 1643.15,1420.79 1660.74,1423.03 1678.32,1425.61 1695.9,1428.15 1713.48,1430.22 1731.06,1431.69 1748.65,1432.65 1766.23,1433.26 1783.81,1433.64 1801.39,1434.08 1818.97,1434.85 1836.55,1435.85 1854.14,1436.7 1871.72,1437.23 1889.3,1437.53 1906.88,1437.72 1924.46,1437.85 1942.05,1437.92 1959.63,1437.89 1977.21,1437.61 1994.79,1437.12 2012.37,1436.7 2029.95,1436.47 2047.54,1436.23 2065.12,1436.1 2082.7,1436.48 2100.28,1437.32 2117.86,1438.23 2135.44,1439.69 2153.03,1442.48 2170.61,1445.75 2188.19,1447.72 2205.77,1447.87 2223.35,1446.82 2240.94,1445.14 2258.52,1443.9 2276.1,1444.65 2293.68,1446.48 "></polyline>
<path clip-path="url(#clip700)" d="M1729.73 479.945 L2283.18 479.945 L2283.18 168.905 L1729.73 168.905  Z" fill="#f8f8ff" fill-rule="evenodd" fill-opacity="1"></path>
<polyline clip-path="url(#clip700)" style="stroke:#000000; stroke-linecap:round; stroke-linejoin:round; stroke-width:4; stroke-opacity:1; fill:none" points="1729.73,479.945 2283.18,479.945 2283.18,168.905 1729.73,168.905 1729.73,479.945 "></polyline>
<polyline clip-path="url(#clip700)" style="stroke:#a52a2a; stroke-linecap:round; stroke-linejoin:round; stroke-width:4; stroke-opacity:1; fill:none" points="1752.92,220.745 1892.07,220.745 "></polyline>
<path clip-path="url(#clip700)" d="M1934.04 225.085 Q1934.04 220.386 1932.09 217.724 Q1930.17 215.039 1926.79 215.039 Q1923.41 215.039 1921.47 217.724 Q1919.55 220.386 1919.55 225.085 Q1919.55 229.784 1921.47 232.469 Q1923.41 235.131 1926.79 235.131 Q1930.17 235.131 1932.09 232.469 Q1934.04 229.784 1934.04 225.085 M1919.55 216.034 Q1920.89 213.719 1922.93 212.608 Q1924.99 211.474 1927.84 211.474 Q1932.56 211.474 1935.5 215.224 Q1938.46 218.974 1938.46 225.085 Q1938.46 231.196 1935.5 234.946 Q1932.56 238.696 1927.84 238.696 Q1924.99 238.696 1922.93 237.585 Q1920.89 236.451 1919.55 234.136 L1919.55 238.025 L1915.27 238.025 L1915.27 202.006 L1919.55 202.006 L1919.55 216.034 Z" fill="#000000" fill-rule="nonzero" fill-opacity="1"></path><path clip-path="url(#clip700)" d="M1967.7 223.997 L1967.7 226.08 L1948.11 226.08 Q1948.39 230.478 1950.75 232.793 Q1953.14 235.085 1957.37 235.085 Q1959.83 235.085 1962.12 234.483 Q1964.43 233.881 1966.7 232.677 L1966.7 236.705 Q1964.41 237.677 1962 238.187 Q1959.59 238.696 1957.12 238.696 Q1950.91 238.696 1947.28 235.085 Q1943.67 231.474 1943.67 225.316 Q1943.67 218.951 1947.09 215.224 Q1950.54 211.474 1956.38 211.474 Q1961.61 211.474 1964.64 214.853 Q1967.7 218.21 1967.7 223.997 M1963.44 222.747 Q1963.39 219.252 1961.47 217.168 Q1959.57 215.085 1956.42 215.085 Q1952.86 215.085 1950.71 217.099 Q1948.58 219.113 1948.25 222.77 L1963.44 222.747 Z" fill="#000000" fill-rule="nonzero" fill-opacity="1"></path><path clip-path="url(#clip700)" d="M1991.75 216.034 L1991.75 202.006 L1996.01 202.006 L1996.01 238.025 L1991.75 238.025 L1991.75 234.136 Q1990.4 236.451 1988.34 237.585 Q1986.31 238.696 1983.44 238.696 Q1978.74 238.696 1975.78 234.946 Q1972.84 231.196 1972.84 225.085 Q1972.84 218.974 1975.78 215.224 Q1978.74 211.474 1983.44 211.474 Q1986.31 211.474 1988.34 212.608 Q1990.4 213.719 1991.75 216.034 M1977.23 225.085 Q1977.23 229.784 1979.15 232.469 Q1981.1 235.131 1984.48 235.131 Q1987.86 235.131 1989.8 232.469 Q1991.75 229.784 1991.75 225.085 Q1991.75 220.386 1989.8 217.724 Q1987.86 215.039 1984.48 215.039 Q1981.1 215.039 1979.15 217.724 Q1977.23 220.386 1977.23 225.085 Z" fill="#000000" fill-rule="nonzero" fill-opacity="1"></path><polyline clip-path="url(#clip700)" style="stroke:#0000ff; stroke-linecap:round; stroke-linejoin:round; stroke-width:4; stroke-opacity:1; fill:none" points="1752.92,272.585 1892.07,272.585 "></polyline>
<path clip-path="url(#clip700)" d="M1933.69 264.703 L1933.69 268.731 Q1931.89 267.805 1929.94 267.342 Q1928 266.879 1925.91 266.879 Q1922.74 266.879 1921.15 267.851 Q1919.57 268.823 1919.57 270.768 Q1919.57 272.249 1920.71 273.105 Q1921.84 273.939 1925.27 274.703 L1926.72 275.027 Q1931.26 275.999 1933.16 277.781 Q1935.08 279.541 1935.08 282.712 Q1935.08 286.323 1932.21 288.429 Q1929.36 290.536 1924.36 290.536 Q1922.28 290.536 1920.01 290.119 Q1917.77 289.726 1915.27 288.916 L1915.27 284.517 Q1917.63 285.744 1919.92 286.369 Q1922.21 286.971 1924.46 286.971 Q1927.47 286.971 1929.09 285.953 Q1930.71 284.911 1930.71 283.036 Q1930.71 281.3 1929.53 280.374 Q1928.37 279.448 1924.41 278.592 L1922.93 278.244 Q1918.97 277.411 1917.21 275.698 Q1915.45 273.962 1915.45 270.953 Q1915.45 267.295 1918.04 265.305 Q1920.64 263.314 1925.4 263.314 Q1927.77 263.314 1929.85 263.661 Q1931.93 264.008 1933.69 264.703 Z" fill="#000000" fill-rule="nonzero" fill-opacity="1"></path><path clip-path="url(#clip700)" d="M1941.42 279.633 L1941.42 263.939 L1945.68 263.939 L1945.68 279.471 Q1945.68 283.152 1947.12 285.004 Q1948.55 286.832 1951.42 286.832 Q1954.87 286.832 1956.86 284.633 Q1958.88 282.434 1958.88 278.638 L1958.88 263.939 L1963.14 263.939 L1963.14 289.865 L1958.88 289.865 L1958.88 285.883 Q1957.33 288.244 1955.27 289.402 Q1953.23 290.536 1950.52 290.536 Q1946.05 290.536 1943.74 287.758 Q1941.42 284.98 1941.42 279.633 M1952.14 263.314 L1952.14 263.314 Z" fill="#000000" fill-rule="nonzero" fill-opacity="1"></path><path clip-path="url(#clip700)" d="M1986.93 267.92 Q1986.21 267.504 1985.36 267.318 Q1984.53 267.11 1983.51 267.11 Q1979.9 267.11 1977.95 269.471 Q1976.03 271.809 1976.03 276.207 L1976.03 289.865 L1971.75 289.865 L1971.75 263.939 L1976.03 263.939 L1976.03 267.967 Q1977.37 265.606 1979.53 264.471 Q1981.68 263.314 1984.76 263.314 Q1985.2 263.314 1985.73 263.383 Q1986.26 263.43 1986.91 263.545 L1986.93 267.92 Z" fill="#000000" fill-rule="nonzero" fill-opacity="1"></path><path clip-path="url(#clip700)" d="M2004.52 253.846 L2004.52 257.388 L2000.45 257.388 Q1998.16 257.388 1997.26 258.314 Q1996.38 259.24 1996.38 261.647 L1996.38 263.939 L2003.39 263.939 L2003.39 267.249 L1996.38 267.249 L1996.38 289.865 L1992.09 289.865 L1992.09 267.249 L1988.02 267.249 L1988.02 263.939 L1992.09 263.939 L1992.09 262.133 Q1992.09 257.805 1994.11 255.837 Q1996.12 253.846 2000.5 253.846 L2004.52 253.846 Z" fill="#000000" fill-rule="nonzero" fill-opacity="1"></path><path clip-path="url(#clip700)" d="M2019.87 276.832 Q2014.71 276.832 2012.72 278.013 Q2010.73 279.193 2010.73 282.041 Q2010.73 284.309 2012.21 285.652 Q2013.71 286.971 2016.28 286.971 Q2019.83 286.971 2021.96 284.471 Q2024.11 281.948 2024.11 277.781 L2024.11 276.832 L2019.87 276.832 M2028.37 275.073 L2028.37 289.865 L2024.11 289.865 L2024.11 285.929 Q2022.65 288.291 2020.47 289.425 Q2018.3 290.536 2015.15 290.536 Q2011.17 290.536 2008.81 288.314 Q2006.47 286.068 2006.47 282.318 Q2006.47 277.943 2009.39 275.721 Q2012.33 273.499 2018.14 273.499 L2024.11 273.499 L2024.11 273.082 Q2024.11 270.143 2022.16 268.545 Q2020.24 266.925 2016.75 266.925 Q2014.52 266.925 2012.42 267.457 Q2010.31 267.99 2008.37 269.055 L2008.37 265.119 Q2010.71 264.217 2012.9 263.777 Q2015.1 263.314 2017.19 263.314 Q2022.81 263.314 2025.59 266.231 Q2028.37 269.147 2028.37 275.073 Z" fill="#000000" fill-rule="nonzero" fill-opacity="1"></path><path clip-path="url(#clip700)" d="M2055.8 264.934 L2055.8 268.916 Q2053.99 267.92 2052.16 267.434 Q2050.36 266.925 2048.51 266.925 Q2044.36 266.925 2042.07 269.564 Q2039.78 272.18 2039.78 276.925 Q2039.78 281.67 2042.07 284.309 Q2044.36 286.925 2048.51 286.925 Q2050.36 286.925 2052.16 286.439 Q2053.99 285.929 2055.8 284.934 L2055.8 288.869 Q2054.02 289.703 2052.09 290.119 Q2050.2 290.536 2048.04 290.536 Q2042.19 290.536 2038.74 286.855 Q2035.29 283.175 2035.29 276.925 Q2035.29 270.582 2038.76 266.948 Q2042.26 263.314 2048.32 263.314 Q2050.29 263.314 2052.16 263.731 Q2054.04 264.124 2055.8 264.934 Z" fill="#000000" fill-rule="nonzero" fill-opacity="1"></path><path clip-path="url(#clip700)" d="M2085.38 275.837 L2085.38 277.92 L2065.8 277.92 Q2066.08 282.318 2068.44 284.633 Q2070.82 286.925 2075.06 286.925 Q2077.51 286.925 2079.8 286.323 Q2082.12 285.721 2084.39 284.517 L2084.39 288.545 Q2082.09 289.517 2079.69 290.027 Q2077.28 290.536 2074.8 290.536 Q2068.6 290.536 2064.96 286.925 Q2061.35 283.314 2061.35 277.156 Q2061.35 270.791 2064.78 267.064 Q2068.23 263.314 2074.06 263.314 Q2079.29 263.314 2082.33 266.693 Q2085.38 270.05 2085.38 275.837 M2081.12 274.587 Q2081.08 271.092 2079.15 269.008 Q2077.26 266.925 2074.11 266.925 Q2070.54 266.925 2068.39 268.939 Q2066.26 270.953 2065.94 274.61 L2081.12 274.587 Z" fill="#000000" fill-rule="nonzero" fill-opacity="1"></path><path clip-path="url(#clip700)" d="M2123.97 264.703 L2123.97 268.731 Q2122.16 267.805 2120.22 267.342 Q2118.27 266.879 2116.19 266.879 Q2113.02 266.879 2111.42 267.851 Q2109.85 268.823 2109.85 270.768 Q2109.85 272.249 2110.98 273.105 Q2112.12 273.939 2115.54 274.703 L2117 275.027 Q2121.54 275.999 2123.44 277.781 Q2125.36 279.541 2125.36 282.712 Q2125.36 286.323 2122.49 288.429 Q2119.64 290.536 2114.64 290.536 Q2112.56 290.536 2110.29 290.119 Q2108.04 289.726 2105.54 288.916 L2105.54 284.517 Q2107.9 285.744 2110.2 286.369 Q2112.49 286.971 2114.73 286.971 Q2117.74 286.971 2119.36 285.953 Q2120.98 284.911 2120.98 283.036 Q2120.98 281.3 2119.8 280.374 Q2118.64 279.448 2114.69 278.592 L2113.2 278.244 Q2109.25 277.411 2107.49 275.698 Q2105.73 273.962 2105.73 270.953 Q2105.73 267.295 2108.32 265.305 Q2110.91 263.314 2115.68 263.314 Q2118.04 263.314 2120.13 263.661 Q2122.21 264.008 2123.97 264.703 Z" fill="#000000" fill-rule="nonzero" fill-opacity="1"></path><path clip-path="url(#clip700)" d="M2142.19 266.925 Q2138.76 266.925 2136.77 269.61 Q2134.78 272.272 2134.78 276.925 Q2134.78 281.578 2136.75 284.263 Q2138.74 286.925 2142.19 286.925 Q2145.59 286.925 2147.58 284.24 Q2149.57 281.555 2149.57 276.925 Q2149.57 272.318 2147.58 269.633 Q2145.59 266.925 2142.19 266.925 M2142.19 263.314 Q2147.74 263.314 2150.91 266.925 Q2154.08 270.536 2154.08 276.925 Q2154.08 283.291 2150.91 286.925 Q2147.74 290.536 2142.19 290.536 Q2136.61 290.536 2133.44 286.925 Q2130.29 283.291 2130.29 276.925 Q2130.29 270.536 2133.44 266.925 Q2136.61 263.314 2142.19 263.314 Z" fill="#000000" fill-rule="nonzero" fill-opacity="1"></path><path clip-path="url(#clip700)" d="M2161.14 253.846 L2165.4 253.846 L2165.4 289.865 L2161.14 289.865 L2161.14 253.846 Z" fill="#000000" fill-rule="nonzero" fill-opacity="1"></path><path clip-path="url(#clip700)" d="M2171.26 263.939 L2175.77 263.939 L2183.88 285.698 L2191.98 263.939 L2196.49 263.939 L2186.77 289.865 L2180.98 289.865 L2171.26 263.939 Z" fill="#000000" fill-rule="nonzero" fill-opacity="1"></path><path clip-path="url(#clip700)" d="M2224.55 275.837 L2224.55 277.92 L2204.96 277.92 Q2205.24 282.318 2207.6 284.633 Q2209.99 286.925 2214.22 286.925 Q2216.68 286.925 2218.97 286.323 Q2221.28 285.721 2223.55 284.517 L2223.55 288.545 Q2221.26 289.517 2218.85 290.027 Q2216.45 290.536 2213.97 290.536 Q2207.76 290.536 2204.13 286.925 Q2200.52 283.314 2200.52 277.156 Q2200.52 270.791 2203.95 267.064 Q2207.39 263.314 2213.23 263.314 Q2218.46 263.314 2221.49 266.693 Q2224.55 270.05 2224.55 275.837 M2220.29 274.587 Q2220.24 271.092 2218.32 269.008 Q2216.42 266.925 2213.27 266.925 Q2209.71 266.925 2207.56 268.939 Q2205.43 270.953 2205.1 274.61 L2220.29 274.587 Z" fill="#000000" fill-rule="nonzero" fill-opacity="1"></path><path clip-path="url(#clip700)" d="M2246.56 267.92 Q2245.84 267.504 2244.99 267.318 Q2244.15 267.11 2243.13 267.11 Q2239.52 267.11 2237.58 269.471 Q2235.66 271.809 2235.66 276.207 L2235.66 289.865 L2231.38 289.865 L2231.38 263.939 L2235.66 263.939 L2235.66 267.967 Q2237 265.606 2239.15 264.471 Q2241.31 263.314 2244.38 263.314 Q2244.82 263.314 2245.36 263.383 Q2245.89 263.43 2246.54 263.545 L2246.56 267.92 Z" fill="#000000" fill-rule="nonzero" fill-opacity="1"></path><polyline clip-path="url(#clip700)" style="stroke:#ff0000; stroke-linecap:round; stroke-linejoin:round; stroke-width:4; stroke-opacity:1; fill:none" points="1752.92,324.425 1892.07,324.425 "></polyline>
<path clip-path="url(#clip700)" d="M1933.69 316.543 L1933.69 320.571 Q1931.89 319.645 1929.94 319.182 Q1928 318.719 1925.91 318.719 Q1922.74 318.719 1921.15 319.691 Q1919.57 320.663 1919.57 322.608 Q1919.57 324.089 1920.71 324.945 Q1921.84 325.779 1925.27 326.543 L1926.72 326.867 Q1931.26 327.839 1933.16 329.621 Q1935.08 331.381 1935.08 334.552 Q1935.08 338.163 1932.21 340.269 Q1929.36 342.376 1924.36 342.376 Q1922.28 342.376 1920.01 341.959 Q1917.77 341.566 1915.27 340.756 L1915.27 336.357 Q1917.63 337.584 1919.92 338.209 Q1922.21 338.811 1924.46 338.811 Q1927.47 338.811 1929.09 337.793 Q1930.71 336.751 1930.71 334.876 Q1930.71 333.14 1929.53 332.214 Q1928.37 331.288 1924.41 330.432 L1922.93 330.084 Q1918.97 329.251 1917.21 327.538 Q1915.45 325.802 1915.45 322.793 Q1915.45 319.135 1918.04 317.145 Q1920.64 315.154 1925.4 315.154 Q1927.77 315.154 1929.85 315.501 Q1931.93 315.848 1933.69 316.543 Z" fill="#000000" fill-rule="nonzero" fill-opacity="1"></path><path clip-path="url(#clip700)" d="M1941.42 331.473 L1941.42 315.779 L1945.68 315.779 L1945.68 331.311 Q1945.68 334.992 1947.12 336.844 Q1948.55 338.672 1951.42 338.672 Q1954.87 338.672 1956.86 336.473 Q1958.88 334.274 1958.88 330.478 L1958.88 315.779 L1963.14 315.779 L1963.14 341.705 L1958.88 341.705 L1958.88 337.723 Q1957.33 340.084 1955.27 341.242 Q1953.23 342.376 1950.52 342.376 Q1946.05 342.376 1943.74 339.598 Q1941.42 336.82 1941.42 331.473 M1952.14 315.154 L1952.14 315.154 Z" fill="#000000" fill-rule="nonzero" fill-opacity="1"></path><path clip-path="url(#clip700)" d="M1986.93 319.76 Q1986.21 319.344 1985.36 319.158 Q1984.53 318.95 1983.51 318.95 Q1979.9 318.95 1977.95 321.311 Q1976.03 323.649 1976.03 328.047 L1976.03 341.705 L1971.75 341.705 L1971.75 315.779 L1976.03 315.779 L1976.03 319.807 Q1977.37 317.446 1979.53 316.311 Q1981.68 315.154 1984.76 315.154 Q1985.2 315.154 1985.73 315.223 Q1986.26 315.27 1986.91 315.385 L1986.93 319.76 Z" fill="#000000" fill-rule="nonzero" fill-opacity="1"></path><path clip-path="url(#clip700)" d="M2004.52 305.686 L2004.52 309.228 L2000.45 309.228 Q1998.16 309.228 1997.26 310.154 Q1996.38 311.08 1996.38 313.487 L1996.38 315.779 L2003.39 315.779 L2003.39 319.089 L1996.38 319.089 L1996.38 341.705 L1992.09 341.705 L1992.09 319.089 L1988.02 319.089 L1988.02 315.779 L1992.09 315.779 L1992.09 313.973 Q1992.09 309.645 1994.11 307.677 Q1996.12 305.686 2000.5 305.686 L2004.52 305.686 Z" fill="#000000" fill-rule="nonzero" fill-opacity="1"></path><path clip-path="url(#clip700)" d="M2019.87 328.672 Q2014.71 328.672 2012.72 329.853 Q2010.73 331.033 2010.73 333.881 Q2010.73 336.149 2012.21 337.492 Q2013.71 338.811 2016.28 338.811 Q2019.83 338.811 2021.96 336.311 Q2024.11 333.788 2024.11 329.621 L2024.11 328.672 L2019.87 328.672 M2028.37 326.913 L2028.37 341.705 L2024.11 341.705 L2024.11 337.769 Q2022.65 340.131 2020.47 341.265 Q2018.3 342.376 2015.15 342.376 Q2011.17 342.376 2008.81 340.154 Q2006.47 337.908 2006.47 334.158 Q2006.47 329.783 2009.39 327.561 Q2012.33 325.339 2018.14 325.339 L2024.11 325.339 L2024.11 324.922 Q2024.11 321.983 2022.16 320.385 Q2020.24 318.765 2016.75 318.765 Q2014.52 318.765 2012.42 319.297 Q2010.31 319.83 2008.37 320.895 L2008.37 316.959 Q2010.71 316.057 2012.9 315.617 Q2015.1 315.154 2017.19 315.154 Q2022.81 315.154 2025.59 318.071 Q2028.37 320.987 2028.37 326.913 Z" fill="#000000" fill-rule="nonzero" fill-opacity="1"></path><path clip-path="url(#clip700)" d="M2055.8 316.774 L2055.8 320.756 Q2053.99 319.76 2052.16 319.274 Q2050.36 318.765 2048.51 318.765 Q2044.36 318.765 2042.07 321.404 Q2039.78 324.02 2039.78 328.765 Q2039.78 333.51 2042.07 336.149 Q2044.36 338.765 2048.51 338.765 Q2050.36 338.765 2052.16 338.279 Q2053.99 337.769 2055.8 336.774 L2055.8 340.709 Q2054.02 341.543 2052.09 341.959 Q2050.2 342.376 2048.04 342.376 Q2042.19 342.376 2038.74 338.695 Q2035.29 335.015 2035.29 328.765 Q2035.29 322.422 2038.76 318.788 Q2042.26 315.154 2048.32 315.154 Q2050.29 315.154 2052.16 315.571 Q2054.04 315.964 2055.8 316.774 Z" fill="#000000" fill-rule="nonzero" fill-opacity="1"></path><path clip-path="url(#clip700)" d="M2085.38 327.677 L2085.38 329.76 L2065.8 329.76 Q2066.08 334.158 2068.44 336.473 Q2070.82 338.765 2075.06 338.765 Q2077.51 338.765 2079.8 338.163 Q2082.12 337.561 2084.39 336.357 L2084.39 340.385 Q2082.09 341.357 2079.69 341.867 Q2077.28 342.376 2074.8 342.376 Q2068.6 342.376 2064.96 338.765 Q2061.35 335.154 2061.35 328.996 Q2061.35 322.631 2064.78 318.904 Q2068.23 315.154 2074.06 315.154 Q2079.29 315.154 2082.33 318.533 Q2085.38 321.89 2085.38 327.677 M2081.12 326.427 Q2081.08 322.932 2079.15 320.848 Q2077.26 318.765 2074.11 318.765 Q2070.54 318.765 2068.39 320.779 Q2066.26 322.793 2065.94 326.45 L2081.12 326.427 Z" fill="#000000" fill-rule="nonzero" fill-opacity="1"></path><path clip-path="url(#clip700)" d="M2122.46 319.76 Q2121.75 319.344 2120.89 319.158 Q2120.06 318.95 2119.04 318.95 Q2115.43 318.95 2113.48 321.311 Q2111.56 323.649 2111.56 328.047 L2111.56 341.705 L2107.28 341.705 L2107.28 315.779 L2111.56 315.779 L2111.56 319.807 Q2112.9 317.446 2115.06 316.311 Q2117.21 315.154 2120.29 315.154 Q2120.73 315.154 2121.26 315.223 Q2121.79 315.27 2122.44 315.385 L2122.46 319.76 Z" fill="#000000" fill-rule="nonzero" fill-opacity="1"></path><path clip-path="url(#clip700)" d="M2138.71 328.672 Q2133.55 328.672 2131.56 329.853 Q2129.57 331.033 2129.57 333.881 Q2129.57 336.149 2131.05 337.492 Q2132.56 338.811 2135.13 338.811 Q2138.67 338.811 2140.8 336.311 Q2142.95 333.788 2142.95 329.621 L2142.95 328.672 L2138.71 328.672 M2147.21 326.913 L2147.21 341.705 L2142.95 341.705 L2142.95 337.769 Q2141.49 340.131 2139.32 341.265 Q2137.14 342.376 2133.99 342.376 Q2130.01 342.376 2127.65 340.154 Q2125.31 337.908 2125.31 334.158 Q2125.31 329.783 2128.23 327.561 Q2131.17 325.339 2136.98 325.339 L2142.95 325.339 L2142.95 324.922 Q2142.95 321.983 2141.01 320.385 Q2139.08 318.765 2135.59 318.765 Q2133.37 318.765 2131.26 319.297 Q2129.15 319.83 2127.21 320.895 L2127.21 316.959 Q2129.55 316.057 2131.75 315.617 Q2133.95 315.154 2136.03 315.154 Q2141.65 315.154 2144.43 318.071 Q2147.21 320.987 2147.21 326.913 Z" fill="#000000" fill-rule="nonzero" fill-opacity="1"></path><path clip-path="url(#clip700)" d="M2153.51 315.779 L2157.76 315.779 L2163.09 336.01 L2168.39 315.779 L2173.41 315.779 L2178.74 336.01 L2184.04 315.779 L2188.3 315.779 L2181.51 341.705 L2176.49 341.705 L2170.91 320.455 L2165.31 341.705 L2160.29 341.705 L2153.51 315.779 Z" fill="#000000" fill-rule="nonzero" fill-opacity="1"></path><polyline clip-path="url(#clip700)" style="stroke:#008000; stroke-linecap:round; stroke-linejoin:round; stroke-width:4; stroke-opacity:1; fill:none" points="1752.92,376.265 1892.07,376.265 "></polyline>
<path clip-path="url(#clip700)" d="M1933.69 368.383 L1933.69 372.411 Q1931.89 371.485 1929.94 371.022 Q1928 370.559 1925.91 370.559 Q1922.74 370.559 1921.15 371.531 Q1919.57 372.503 1919.57 374.448 Q1919.57 375.929 1920.71 376.785 Q1921.84 377.619 1925.27 378.383 L1926.72 378.707 Q1931.26 379.679 1933.16 381.461 Q1935.08 383.221 1935.08 386.392 Q1935.08 390.003 1932.21 392.109 Q1929.36 394.216 1924.36 394.216 Q1922.28 394.216 1920.01 393.799 Q1917.77 393.406 1915.27 392.596 L1915.27 388.197 Q1917.63 389.424 1919.92 390.049 Q1922.21 390.651 1924.46 390.651 Q1927.47 390.651 1929.09 389.633 Q1930.71 388.591 1930.71 386.716 Q1930.71 384.98 1929.53 384.054 Q1928.37 383.128 1924.41 382.272 L1922.93 381.924 Q1918.97 381.091 1917.21 379.378 Q1915.45 377.642 1915.45 374.633 Q1915.45 370.975 1918.04 368.985 Q1920.64 366.994 1925.4 366.994 Q1927.77 366.994 1929.85 367.341 Q1931.93 367.688 1933.69 368.383 Z" fill="#000000" fill-rule="nonzero" fill-opacity="1"></path><path clip-path="url(#clip700)" d="M1941.42 383.313 L1941.42 367.619 L1945.68 367.619 L1945.68 383.151 Q1945.68 386.832 1947.12 388.684 Q1948.55 390.512 1951.42 390.512 Q1954.87 390.512 1956.86 388.313 Q1958.88 386.114 1958.88 382.318 L1958.88 367.619 L1963.14 367.619 L1963.14 393.545 L1958.88 393.545 L1958.88 389.563 Q1957.33 391.924 1955.27 393.082 Q1953.23 394.216 1950.52 394.216 Q1946.05 394.216 1943.74 391.438 Q1941.42 388.66 1941.42 383.313 M1952.14 366.994 L1952.14 366.994 Z" fill="#000000" fill-rule="nonzero" fill-opacity="1"></path><path clip-path="url(#clip700)" d="M1986.93 371.6 Q1986.21 371.184 1985.36 370.998 Q1984.53 370.79 1983.51 370.79 Q1979.9 370.79 1977.95 373.151 Q1976.03 375.489 1976.03 379.887 L1976.03 393.545 L1971.75 393.545 L1971.75 367.619 L1976.03 367.619 L1976.03 371.647 Q1977.37 369.286 1979.53 368.151 Q1981.68 366.994 1984.76 366.994 Q1985.2 366.994 1985.73 367.063 Q1986.26 367.11 1986.91 367.225 L1986.93 371.6 Z" fill="#000000" fill-rule="nonzero" fill-opacity="1"></path><path clip-path="url(#clip700)" d="M2004.52 357.526 L2004.52 361.068 L2000.45 361.068 Q1998.16 361.068 1997.26 361.994 Q1996.38 362.92 1996.38 365.327 L1996.38 367.619 L2003.39 367.619 L2003.39 370.929 L1996.38 370.929 L1996.38 393.545 L1992.09 393.545 L1992.09 370.929 L1988.02 370.929 L1988.02 367.619 L1992.09 367.619 L1992.09 365.813 Q1992.09 361.485 1994.11 359.517 Q1996.12 357.526 2000.5 357.526 L2004.52 357.526 Z" fill="#000000" fill-rule="nonzero" fill-opacity="1"></path><path clip-path="url(#clip700)" d="M2019.87 380.512 Q2014.71 380.512 2012.72 381.693 Q2010.73 382.873 2010.73 385.721 Q2010.73 387.989 2012.21 389.332 Q2013.71 390.651 2016.28 390.651 Q2019.83 390.651 2021.96 388.151 Q2024.11 385.628 2024.11 381.461 L2024.11 380.512 L2019.87 380.512 M2028.37 378.753 L2028.37 393.545 L2024.11 393.545 L2024.11 389.609 Q2022.65 391.971 2020.47 393.105 Q2018.3 394.216 2015.15 394.216 Q2011.17 394.216 2008.81 391.994 Q2006.47 389.748 2006.47 385.998 Q2006.47 381.623 2009.39 379.401 Q2012.33 377.179 2018.14 377.179 L2024.11 377.179 L2024.11 376.762 Q2024.11 373.823 2022.16 372.225 Q2020.24 370.605 2016.75 370.605 Q2014.52 370.605 2012.42 371.137 Q2010.31 371.67 2008.37 372.735 L2008.37 368.799 Q2010.71 367.897 2012.9 367.457 Q2015.1 366.994 2017.19 366.994 Q2022.81 366.994 2025.59 369.911 Q2028.37 372.827 2028.37 378.753 Z" fill="#000000" fill-rule="nonzero" fill-opacity="1"></path><path clip-path="url(#clip700)" d="M2055.8 368.614 L2055.8 372.596 Q2053.99 371.6 2052.16 371.114 Q2050.36 370.605 2048.51 370.605 Q2044.36 370.605 2042.07 373.244 Q2039.78 375.86 2039.78 380.605 Q2039.78 385.35 2042.07 387.989 Q2044.36 390.605 2048.51 390.605 Q2050.36 390.605 2052.16 390.119 Q2053.99 389.609 2055.8 388.614 L2055.8 392.549 Q2054.02 393.383 2052.09 393.799 Q2050.2 394.216 2048.04 394.216 Q2042.19 394.216 2038.74 390.535 Q2035.29 386.855 2035.29 380.605 Q2035.29 374.262 2038.76 370.628 Q2042.26 366.994 2048.32 366.994 Q2050.29 366.994 2052.16 367.411 Q2054.04 367.804 2055.8 368.614 Z" fill="#000000" fill-rule="nonzero" fill-opacity="1"></path><path clip-path="url(#clip700)" d="M2085.38 379.517 L2085.38 381.6 L2065.8 381.6 Q2066.08 385.998 2068.44 388.313 Q2070.82 390.605 2075.06 390.605 Q2077.51 390.605 2079.8 390.003 Q2082.12 389.401 2084.39 388.197 L2084.39 392.225 Q2082.09 393.197 2079.69 393.707 Q2077.28 394.216 2074.8 394.216 Q2068.6 394.216 2064.96 390.605 Q2061.35 386.994 2061.35 380.836 Q2061.35 374.471 2064.78 370.744 Q2068.23 366.994 2074.06 366.994 Q2079.29 366.994 2082.33 370.373 Q2085.38 373.73 2085.38 379.517 M2081.12 378.267 Q2081.08 374.772 2079.15 372.688 Q2077.26 370.605 2074.11 370.605 Q2070.54 370.605 2068.39 372.619 Q2066.26 374.633 2065.94 378.29 L2081.12 378.267 Z" fill="#000000" fill-rule="nonzero" fill-opacity="1"></path><path clip-path="url(#clip700)" d="M2107.44 367.619 L2111.7 367.619 L2111.7 393.545 L2107.44 393.545 L2107.44 367.619 M2107.44 357.526 L2111.7 357.526 L2111.7 362.92 L2107.44 362.92 L2107.44 357.526 Z" fill="#000000" fill-rule="nonzero" fill-opacity="1"></path><path clip-path="url(#clip700)" d="M2142.16 377.897 L2142.16 393.545 L2137.9 393.545 L2137.9 378.035 Q2137.9 374.355 2136.47 372.526 Q2135.03 370.698 2132.16 370.698 Q2128.71 370.698 2126.72 372.897 Q2124.73 375.096 2124.73 378.892 L2124.73 393.545 L2120.45 393.545 L2120.45 367.619 L2124.73 367.619 L2124.73 371.647 Q2126.26 369.309 2128.32 368.151 Q2130.4 366.994 2133.11 366.994 Q2137.58 366.994 2139.87 369.772 Q2142.16 372.526 2142.16 377.897 Z" fill="#000000" fill-rule="nonzero" fill-opacity="1"></path><path clip-path="url(#clip700)" d="M2150.66 367.619 L2154.92 367.619 L2154.92 393.545 L2150.66 393.545 L2150.66 367.619 M2150.66 357.526 L2154.92 357.526 L2154.92 362.92 L2150.66 362.92 L2150.66 357.526 Z" fill="#000000" fill-rule="nonzero" fill-opacity="1"></path><path clip-path="url(#clip700)" d="M2168.04 360.258 L2168.04 367.619 L2176.82 367.619 L2176.82 370.929 L2168.04 370.929 L2168.04 385.003 Q2168.04 388.174 2168.9 389.077 Q2169.78 389.98 2172.44 389.98 L2176.82 389.98 L2176.82 393.545 L2172.44 393.545 Q2167.51 393.545 2165.64 391.716 Q2163.76 389.864 2163.76 385.003 L2163.76 370.929 L2160.64 370.929 L2160.64 367.619 L2163.76 367.619 L2163.76 360.258 L2168.04 360.258 Z" fill="#000000" fill-rule="nonzero" fill-opacity="1"></path><path clip-path="url(#clip700)" d="M2182.42 367.619 L2186.68 367.619 L2186.68 393.545 L2182.42 393.545 L2182.42 367.619 M2182.42 357.526 L2186.68 357.526 L2186.68 362.92 L2182.42 362.92 L2182.42 357.526 Z" fill="#000000" fill-rule="nonzero" fill-opacity="1"></path><path clip-path="url(#clip700)" d="M2207.37 380.512 Q2202.21 380.512 2200.22 381.693 Q2198.23 382.873 2198.23 385.721 Q2198.23 387.989 2199.71 389.332 Q2201.21 390.651 2203.78 390.651 Q2207.32 390.651 2209.45 388.151 Q2211.61 385.628 2211.61 381.461 L2211.61 380.512 L2207.37 380.512 M2215.87 378.753 L2215.87 393.545 L2211.61 393.545 L2211.61 389.609 Q2210.15 391.971 2207.97 393.105 Q2205.8 394.216 2202.65 394.216 Q2198.67 394.216 2196.31 391.994 Q2193.97 389.748 2193.97 385.998 Q2193.97 381.623 2196.89 379.401 Q2199.82 377.179 2205.63 377.179 L2211.61 377.179 L2211.61 376.762 Q2211.61 373.823 2209.66 372.225 Q2207.74 370.605 2204.25 370.605 Q2202.02 370.605 2199.92 371.137 Q2197.81 371.67 2195.87 372.735 L2195.87 368.799 Q2198.2 367.897 2200.4 367.457 Q2202.6 366.994 2204.69 366.994 Q2210.31 366.994 2213.09 369.911 Q2215.87 372.827 2215.87 378.753 Z" fill="#000000" fill-rule="nonzero" fill-opacity="1"></path><path clip-path="url(#clip700)" d="M2224.64 357.526 L2228.9 357.526 L2228.9 393.545 L2224.64 393.545 L2224.64 357.526 Z" fill="#000000" fill-rule="nonzero" fill-opacity="1"></path><path clip-path="url(#clip700)" d="M2259.99 379.517 L2259.99 381.6 L2240.4 381.6 Q2240.68 385.998 2243.04 388.313 Q2245.43 390.605 2249.66 390.605 Q2252.12 390.605 2254.41 390.003 Q2256.72 389.401 2258.99 388.197 L2258.99 392.225 Q2256.7 393.197 2254.29 393.707 Q2251.88 394.216 2249.41 394.216 Q2243.2 394.216 2239.57 390.605 Q2235.96 386.994 2235.96 380.836 Q2235.96 374.471 2239.38 370.744 Q2242.83 366.994 2248.67 366.994 Q2253.9 366.994 2256.93 370.373 Q2259.99 373.73 2259.99 379.517 M2255.73 378.267 Q2255.68 374.772 2253.76 372.688 Q2251.86 370.605 2248.71 370.605 Q2245.15 370.605 2243 372.619 Q2240.87 374.633 2240.54 378.29 L2255.73 378.267 Z" fill="#000000" fill-rule="nonzero" fill-opacity="1"></path><polyline clip-path="url(#clip700)" style="stroke:#000000; stroke-linecap:round; stroke-linejoin:round; stroke-width:4; stroke-opacity:1; fill:none" stroke-dasharray="16, 10" points="1752.92,428.105 1892.07,428.105 "></polyline>
<path clip-path="url(#clip700)" d="M1933.69 420.223 L1933.69 424.251 Q1931.89 423.325 1929.94 422.862 Q1928 422.399 1925.91 422.399 Q1922.74 422.399 1921.15 423.371 Q1919.57 424.343 1919.57 426.288 Q1919.57 427.769 1920.71 428.625 Q1921.84 429.459 1925.27 430.223 L1926.72 430.547 Q1931.26 431.519 1933.16 433.301 Q1935.08 435.061 1935.08 438.232 Q1935.08 441.843 1932.21 443.949 Q1929.36 446.056 1924.36 446.056 Q1922.28 446.056 1920.01 445.639 Q1917.77 445.246 1915.27 444.436 L1915.27 440.037 Q1917.63 441.264 1919.92 441.889 Q1922.21 442.491 1924.46 442.491 Q1927.47 442.491 1929.09 441.473 Q1930.71 440.431 1930.71 438.556 Q1930.71 436.82 1929.53 435.894 Q1928.37 434.968 1924.41 434.112 L1922.93 433.764 Q1918.97 432.931 1917.21 431.218 Q1915.45 429.482 1915.45 426.473 Q1915.45 422.815 1918.04 420.825 Q1920.64 418.834 1925.4 418.834 Q1927.77 418.834 1929.85 419.181 Q1931.93 419.528 1933.69 420.223 Z" fill="#000000" fill-rule="nonzero" fill-opacity="1"></path><path clip-path="url(#clip700)" d="M1941.42 435.153 L1941.42 419.459 L1945.68 419.459 L1945.68 434.991 Q1945.68 438.672 1947.12 440.524 Q1948.55 442.352 1951.42 442.352 Q1954.87 442.352 1956.86 440.153 Q1958.88 437.954 1958.88 434.158 L1958.88 419.459 L1963.14 419.459 L1963.14 445.385 L1958.88 445.385 L1958.88 441.403 Q1957.33 443.764 1955.27 444.922 Q1953.23 446.056 1950.52 446.056 Q1946.05 446.056 1943.74 443.278 Q1941.42 440.5 1941.42 435.153 M1952.14 418.834 L1952.14 418.834 Z" fill="#000000" fill-rule="nonzero" fill-opacity="1"></path><path clip-path="url(#clip700)" d="M1986.93 423.44 Q1986.21 423.024 1985.36 422.838 Q1984.53 422.63 1983.51 422.63 Q1979.9 422.63 1977.95 424.991 Q1976.03 427.329 1976.03 431.727 L1976.03 445.385 L1971.75 445.385 L1971.75 419.459 L1976.03 419.459 L1976.03 423.487 Q1977.37 421.126 1979.53 419.991 Q1981.68 418.834 1984.76 418.834 Q1985.2 418.834 1985.73 418.903 Q1986.26 418.95 1986.91 419.065 L1986.93 423.44 Z" fill="#000000" fill-rule="nonzero" fill-opacity="1"></path><path clip-path="url(#clip700)" d="M2004.52 409.366 L2004.52 412.908 L2000.45 412.908 Q1998.16 412.908 1997.26 413.834 Q1996.38 414.76 1996.38 417.167 L1996.38 419.459 L2003.39 419.459 L2003.39 422.769 L1996.38 422.769 L1996.38 445.385 L1992.09 445.385 L1992.09 422.769 L1988.02 422.769 L1988.02 419.459 L1992.09 419.459 L1992.09 417.653 Q1992.09 413.325 1994.11 411.357 Q1996.12 409.366 2000.5 409.366 L2004.52 409.366 Z" fill="#000000" fill-rule="nonzero" fill-opacity="1"></path><path clip-path="url(#clip700)" d="M2019.87 432.352 Q2014.71 432.352 2012.72 433.533 Q2010.73 434.713 2010.73 437.561 Q2010.73 439.829 2012.21 441.172 Q2013.71 442.491 2016.28 442.491 Q2019.83 442.491 2021.96 439.991 Q2024.11 437.468 2024.11 433.301 L2024.11 432.352 L2019.87 432.352 M2028.37 430.593 L2028.37 445.385 L2024.11 445.385 L2024.11 441.449 Q2022.65 443.811 2020.47 444.945 Q2018.3 446.056 2015.15 446.056 Q2011.17 446.056 2008.81 443.834 Q2006.47 441.588 2006.47 437.838 Q2006.47 433.463 2009.39 431.241 Q2012.33 429.019 2018.14 429.019 L2024.11 429.019 L2024.11 428.602 Q2024.11 425.663 2022.16 424.065 Q2020.24 422.445 2016.75 422.445 Q2014.52 422.445 2012.42 422.977 Q2010.31 423.51 2008.37 424.575 L2008.37 420.639 Q2010.71 419.737 2012.9 419.297 Q2015.1 418.834 2017.19 418.834 Q2022.81 418.834 2025.59 421.751 Q2028.37 424.667 2028.37 430.593 Z" fill="#000000" fill-rule="nonzero" fill-opacity="1"></path><path clip-path="url(#clip700)" d="M2055.8 420.454 L2055.8 424.436 Q2053.99 423.44 2052.16 422.954 Q2050.36 422.445 2048.51 422.445 Q2044.36 422.445 2042.07 425.084 Q2039.78 427.7 2039.78 432.445 Q2039.78 437.19 2042.07 439.829 Q2044.36 442.445 2048.51 442.445 Q2050.36 442.445 2052.16 441.959 Q2053.99 441.449 2055.8 440.454 L2055.8 444.389 Q2054.02 445.223 2052.09 445.639 Q2050.2 446.056 2048.04 446.056 Q2042.19 446.056 2038.74 442.375 Q2035.29 438.695 2035.29 432.445 Q2035.29 426.102 2038.76 422.468 Q2042.26 418.834 2048.32 418.834 Q2050.29 418.834 2052.16 419.251 Q2054.04 419.644 2055.8 420.454 Z" fill="#000000" fill-rule="nonzero" fill-opacity="1"></path><path clip-path="url(#clip700)" d="M2085.38 431.357 L2085.38 433.44 L2065.8 433.44 Q2066.08 437.838 2068.44 440.153 Q2070.82 442.445 2075.06 442.445 Q2077.51 442.445 2079.8 441.843 Q2082.12 441.241 2084.39 440.037 L2084.39 444.065 Q2082.09 445.037 2079.69 445.547 Q2077.28 446.056 2074.8 446.056 Q2068.6 446.056 2064.96 442.445 Q2061.35 438.834 2061.35 432.676 Q2061.35 426.311 2064.78 422.584 Q2068.23 418.834 2074.06 418.834 Q2079.29 418.834 2082.33 422.213 Q2085.38 425.57 2085.38 431.357 M2081.12 430.107 Q2081.08 426.612 2079.15 424.528 Q2077.26 422.445 2074.11 422.445 Q2070.54 422.445 2068.39 424.459 Q2066.26 426.473 2065.94 430.13 L2081.12 430.107 Z" fill="#000000" fill-rule="nonzero" fill-opacity="1"></path><path clip-path="url(#clip700)" d="M2117.49 422.445 Q2114.06 422.445 2112.07 425.13 Q2110.08 427.792 2110.08 432.445 Q2110.08 437.098 2112.05 439.783 Q2114.04 442.445 2117.49 442.445 Q2120.89 442.445 2122.88 439.76 Q2124.87 437.075 2124.87 432.445 Q2124.87 427.838 2122.88 425.153 Q2120.89 422.445 2117.49 422.445 M2117.49 418.834 Q2123.04 418.834 2126.21 422.445 Q2129.39 426.056 2129.39 432.445 Q2129.39 438.811 2126.21 442.445 Q2123.04 446.056 2117.49 446.056 Q2111.91 446.056 2108.74 442.445 Q2105.59 438.811 2105.59 432.445 Q2105.59 426.056 2108.74 422.445 Q2111.91 418.834 2117.49 418.834 Z" fill="#000000" fill-rule="nonzero" fill-opacity="1"></path><path clip-path="url(#clip700)" d="M2153.51 432.121 Q2153.51 427.491 2151.58 424.945 Q2149.69 422.399 2146.24 422.399 Q2142.81 422.399 2140.89 424.945 Q2138.99 427.491 2138.99 432.121 Q2138.99 436.727 2140.89 439.274 Q2142.81 441.82 2146.24 441.82 Q2149.69 441.82 2151.58 439.274 Q2153.51 436.727 2153.51 432.121 M2157.76 442.167 Q2157.76 448.787 2154.83 452.005 Q2151.89 455.246 2145.82 455.246 Q2143.58 455.246 2141.58 454.898 Q2139.59 454.574 2137.72 453.88 L2137.72 449.736 Q2139.59 450.755 2141.42 451.241 Q2143.25 451.727 2145.15 451.727 Q2149.34 451.727 2151.42 449.528 Q2153.51 447.352 2153.51 442.931 L2153.51 440.824 Q2152.19 443.116 2150.13 444.25 Q2148.07 445.385 2145.2 445.385 Q2140.43 445.385 2137.51 441.75 Q2134.59 438.116 2134.59 432.121 Q2134.59 426.102 2137.51 422.468 Q2140.43 418.834 2145.2 418.834 Q2148.07 418.834 2150.13 419.968 Q2152.19 421.102 2153.51 423.394 L2153.51 419.459 L2157.76 419.459 L2157.76 442.167 Z" fill="#000000" fill-rule="nonzero" fill-opacity="1"></path><path clip-path="url(#clip700)" d="M2183.6 432.121 Q2183.6 427.491 2181.68 424.945 Q2179.78 422.399 2176.33 422.399 Q2172.9 422.399 2170.98 424.945 Q2169.08 427.491 2169.08 432.121 Q2169.08 436.727 2170.98 439.274 Q2172.9 441.82 2176.33 441.82 Q2179.78 441.82 2181.68 439.274 Q2183.6 436.727 2183.6 432.121 M2187.86 442.167 Q2187.86 448.787 2184.92 452.005 Q2181.98 455.246 2175.91 455.246 Q2173.67 455.246 2171.68 454.898 Q2169.69 454.574 2167.81 453.88 L2167.81 449.736 Q2169.69 450.755 2171.51 451.241 Q2173.34 451.727 2175.24 451.727 Q2179.43 451.727 2181.51 449.528 Q2183.6 447.352 2183.6 442.931 L2183.6 440.824 Q2182.28 443.116 2180.22 444.25 Q2178.16 445.385 2175.29 445.385 Q2170.52 445.385 2167.6 441.75 Q2164.69 438.116 2164.69 432.121 Q2164.69 426.102 2167.6 422.468 Q2170.52 418.834 2175.29 418.834 Q2178.16 418.834 2180.22 419.968 Q2182.28 421.102 2183.6 423.394 L2183.6 419.459 L2187.86 419.459 L2187.86 442.167 Z" fill="#000000" fill-rule="nonzero" fill-opacity="1"></path><path clip-path="url(#clip700)" d="M2216.82 424.436 Q2218.41 421.565 2220.63 420.2 Q2222.86 418.834 2225.87 418.834 Q2229.92 418.834 2232.12 421.681 Q2234.32 424.505 2234.32 429.737 L2234.32 445.385 L2230.03 445.385 L2230.03 429.875 Q2230.03 426.149 2228.71 424.343 Q2227.39 422.538 2224.69 422.538 Q2221.38 422.538 2219.45 424.737 Q2217.53 426.936 2217.53 430.732 L2217.53 445.385 L2213.25 445.385 L2213.25 429.875 Q2213.25 426.125 2211.93 424.343 Q2210.61 422.538 2207.86 422.538 Q2204.59 422.538 2202.67 424.76 Q2200.75 426.959 2200.75 430.732 L2200.75 445.385 L2196.47 445.385 L2196.47 419.459 L2200.75 419.459 L2200.75 423.487 Q2202.21 421.102 2204.25 419.968 Q2206.28 418.834 2209.08 418.834 Q2211.91 418.834 2213.88 420.269 Q2215.87 421.704 2216.82 424.436 Z" fill="#000000" fill-rule="nonzero" fill-opacity="1"></path></svg>