<svg xmlns="http://www.w3.org/2000/svg" xmlns:xlink="http://www.w3.org/1999/xlink" width="600" height="400" viewBox="0 0 2400 1600">
<defs>
  <clipPath id="clip740">
    <rect x="0" y="0" width="2400" height="1600"></rect>
  </clipPath>
</defs>
<path clip-path="url(#clip740)" d="M0 1600 L2400 1600 L2400 0 L0 0  Z" fill="#f8f8ff" fill-rule="evenodd" fill-opacity="1"></path>
<defs>
  <clipPath id="clip741">
    <rect x="480" y="0" width="1681" height="1600"></rect>
  </clipPath>
</defs>
<path clip-path="url(#clip740)" d="M264.287 1486.45 L2352.76 1486.45 L2352.76 123.472 L264.287 123.472  Z" fill="#f8f8ff" fill-rule="evenodd" fill-opacity="1"></path>
<defs>
  <clipPath id="clip742">
    <rect x="264" y="123" width="2089" height="1364"></rect>
  </clipPath>
</defs>
<polyline clip-path="url(#clip742)" style="stroke:#000000; stroke-linecap:round; stroke-linejoin:round; stroke-width:2; stroke-opacity:0.1; fill:none" points="301.979,1486.45 301.979,123.472 "></polyline>
<polyline clip-path="url(#clip742)" style="stroke:#000000; stroke-linecap:round; stroke-linejoin:round; stroke-width:2; stroke-opacity:0.1; fill:none" points="730.295,1486.45 730.295,123.472 "></polyline>
<polyline clip-path="url(#clip742)" style="stroke:#000000; stroke-linecap:round; stroke-linejoin:round; stroke-width:2; stroke-opacity:0.1; fill:none" points="1158.61,1486.45 1158.61,123.472 "></polyline>
<polyline clip-path="url(#clip742)" style="stroke:#000000; stroke-linecap:round; stroke-linejoin:round; stroke-width:2; stroke-opacity:0.1; fill:none" points="1586.93,1486.45 1586.93,123.472 "></polyline>
<polyline clip-path="url(#clip742)" style="stroke:#000000; stroke-linecap:round; stroke-linejoin:round; stroke-width:2; stroke-opacity:0.1; fill:none" points="2015.24,1486.45 2015.24,123.472 "></polyline>
<polyline clip-path="url(#clip740)" style="stroke:#000000; stroke-linecap:round; stroke-linejoin:round; stroke-width:4; stroke-opacity:1; fill:none" points="264.287,1486.45 2352.76,1486.45 "></polyline>
<polyline clip-path="url(#clip740)" style="stroke:#000000; stroke-linecap:round; stroke-linejoin:round; stroke-width:4; stroke-opacity:1; fill:none" points="301.979,1486.45 301.979,1467.55 "></polyline>
<polyline clip-path="url(#clip740)" style="stroke:#000000; stroke-linecap:round; stroke-linejoin:round; stroke-width:4; stroke-opacity:1; fill:none" points="730.295,1486.45 730.295,1467.55 "></polyline>
<polyline clip-path="url(#clip740)" style="stroke:#000000; stroke-linecap:round; stroke-linejoin:round; stroke-width:4; stroke-opacity:1; fill:none" points="1158.61,1486.45 1158.61,1467.55 "></polyline>
<polyline clip-path="url(#clip740)" style="stroke:#000000; stroke-linecap:round; stroke-linejoin:round; stroke-width:4; stroke-opacity:1; fill:none" points="1586.93,1486.45 1586.93,1467.55 "></polyline>
<polyline clip-path="url(#clip740)" style="stroke:#000000; stroke-linecap:round; stroke-linejoin:round; stroke-width:4; stroke-opacity:1; fill:none" points="2015.24,1486.45 2015.24,1467.55 "></polyline>
<path clip-path="url(#clip740)" d="M301.979 1517.37 Q298.368 1517.37 296.539 1520.93 Q294.734 1524.47 294.734 1531.6 Q294.734 1538.71 296.539 1542.27 Q298.368 1545.82 301.979 1545.82 Q305.613 1545.82 307.419 1542.27 Q309.248 1538.71 309.248 1531.6 Q309.248 1524.47 307.419 1520.93 Q305.613 1517.37 301.979 1517.37 M301.979 1513.66 Q307.789 1513.66 310.845 1518.27 Q313.924 1522.85 313.924 1531.6 Q313.924 1540.33 310.845 1544.94 Q307.789 1549.52 301.979 1549.52 Q296.169 1549.52 293.09 1544.94 Q290.035 1540.33 290.035 1531.6 Q290.035 1522.85 293.09 1518.27 Q296.169 1513.66 301.979 1513.66 Z" fill="#000000" fill-rule="nonzero" fill-opacity="1"></path><path clip-path="url(#clip740)" d="M709.068 1544.91 L725.388 1544.91 L725.388 1548.85 L703.443 1548.85 L703.443 1544.91 Q706.105 1542.16 710.689 1537.53 Q715.295 1532.88 716.476 1531.53 Q718.721 1529.01 719.601 1527.27 Q720.503 1525.51 720.503 1523.82 Q720.503 1521.07 718.559 1519.33 Q716.638 1517.6 713.536 1517.6 Q711.337 1517.6 708.883 1518.36 Q706.453 1519.13 703.675 1520.68 L703.675 1515.95 Q706.499 1514.82 708.953 1514.24 Q711.406 1513.66 713.443 1513.66 Q718.814 1513.66 722.008 1516.35 Q725.203 1519.03 725.203 1523.52 Q725.203 1525.65 724.392 1527.57 Q723.605 1529.47 721.499 1532.07 Q720.92 1532.74 717.818 1535.95 Q714.716 1539.15 709.068 1544.91 Z" fill="#000000" fill-rule="nonzero" fill-opacity="1"></path><path clip-path="url(#clip740)" d="M745.202 1517.37 Q741.591 1517.37 739.763 1520.93 Q737.957 1524.47 737.957 1531.6 Q737.957 1538.71 739.763 1542.27 Q741.591 1545.82 745.202 1545.82 Q748.837 1545.82 750.642 1542.27 Q752.471 1538.71 752.471 1531.6 Q752.471 1524.47 750.642 1520.93 Q748.837 1517.37 745.202 1517.37 M745.202 1513.66 Q751.013 1513.66 754.068 1518.27 Q757.147 1522.85 757.147 1531.6 Q757.147 1540.33 754.068 1544.94 Q751.013 1549.52 745.202 1549.52 Q739.392 1549.52 736.314 1544.94 Q733.258 1540.33 733.258 1531.6 Q733.258 1522.85 736.314 1518.27 Q739.392 1513.66 745.202 1513.66 Z" fill="#000000" fill-rule="nonzero" fill-opacity="1"></path><path clip-path="url(#clip740)" d="M1146.78 1518.36 L1134.98 1536.81 L1146.78 1536.81 L1146.78 1518.36 M1145.56 1514.29 L1151.44 1514.29 L1151.44 1536.81 L1156.37 1536.81 L1156.37 1540.7 L1151.44 1540.7 L1151.44 1548.85 L1146.78 1548.85 L1146.78 1540.7 L1131.18 1540.7 L1131.18 1536.19 L1145.56 1514.29 Z" fill="#000000" fill-rule="nonzero" fill-opacity="1"></path><path clip-path="url(#clip740)" d="M1174.1 1517.37 Q1170.49 1517.37 1168.66 1520.93 Q1166.85 1524.47 1166.85 1531.6 Q1166.85 1538.71 1168.66 1542.27 Q1170.49 1545.82 1174.1 1545.82 Q1177.73 1545.82 1179.54 1542.27 Q1181.37 1538.71 1181.37 1531.6 Q1181.37 1524.47 1179.54 1520.93 Q1177.73 1517.37 1174.1 1517.37 M1174.1 1513.66 Q1179.91 1513.66 1182.96 1518.27 Q1186.04 1522.85 1186.04 1531.6 Q1186.04 1540.33 1182.96 1544.94 Q1179.91 1549.52 1174.1 1549.52 Q1168.29 1549.52 1165.21 1544.94 Q1162.15 1540.33 1162.15 1531.6 Q1162.15 1522.85 1165.21 1518.27 Q1168.29 1513.66 1174.1 1513.66 Z" fill="#000000" fill-rule="nonzero" fill-opacity="1"></path><path clip-path="url(#clip740)" d="M1572.33 1529.7 Q1569.18 1529.7 1567.33 1531.86 Q1565.5 1534.01 1565.5 1537.76 Q1565.5 1541.49 1567.33 1543.66 Q1569.18 1545.82 1572.33 1545.82 Q1575.48 1545.82 1577.31 1543.66 Q1579.16 1541.49 1579.16 1537.76 Q1579.16 1534.01 1577.31 1531.86 Q1575.48 1529.7 1572.33 1529.7 M1581.61 1515.05 L1581.61 1519.31 Q1579.86 1518.48 1578.05 1518.04 Q1576.27 1517.6 1574.51 1517.6 Q1569.88 1517.6 1567.42 1520.72 Q1564.99 1523.85 1564.65 1530.17 Q1566.01 1528.15 1568.07 1527.09 Q1570.13 1526 1572.61 1526 Q1577.82 1526 1580.83 1529.17 Q1583.86 1532.32 1583.86 1537.76 Q1583.86 1543.08 1580.71 1546.3 Q1577.56 1549.52 1572.33 1549.52 Q1566.34 1549.52 1563.17 1544.94 Q1559.99 1540.33 1559.99 1531.6 Q1559.99 1523.41 1563.88 1518.55 Q1567.77 1513.66 1574.32 1513.66 Q1576.08 1513.66 1577.86 1514.01 Q1579.67 1514.36 1581.61 1515.05 Z" fill="#000000" fill-rule="nonzero" fill-opacity="1"></path><path clip-path="url(#clip740)" d="M1601.92 1517.37 Q1598.3 1517.37 1596.48 1520.93 Q1594.67 1524.47 1594.67 1531.6 Q1594.67 1538.71 1596.48 1542.27 Q1598.3 1545.82 1601.92 1545.82 Q1605.55 1545.82 1607.36 1542.27 Q1609.18 1538.71 1609.18 1531.6 Q1609.18 1524.47 1607.36 1520.93 Q1605.55 1517.37 1601.92 1517.37 M1601.92 1513.66 Q1607.73 1513.66 1610.78 1518.27 Q1613.86 1522.85 1613.86 1531.6 Q1613.86 1540.33 1610.78 1544.94 Q1607.73 1549.52 1601.92 1549.52 Q1596.11 1549.52 1593.03 1544.94 Q1589.97 1540.33 1589.97 1531.6 Q1589.97 1522.85 1593.03 1518.27 Q1596.11 1513.66 1601.92 1513.66 Z" fill="#000000" fill-rule="nonzero" fill-opacity="1"></path><path clip-path="url(#clip740)" d="M2000.12 1532.44 Q1996.78 1532.44 1994.86 1534.22 Q1992.96 1536 1992.96 1539.13 Q1992.96 1542.25 1994.86 1544.03 Q1996.78 1545.82 2000.12 1545.82 Q2003.45 1545.82 2005.37 1544.03 Q2007.29 1542.23 2007.29 1539.13 Q2007.29 1536 2005.37 1534.22 Q2003.47 1532.44 2000.12 1532.44 M1995.44 1530.45 Q1992.43 1529.7 1990.74 1527.64 Q1989.07 1525.58 1989.07 1522.62 Q1989.07 1518.48 1992.01 1516.07 Q1994.98 1513.66 2000.12 1513.66 Q2005.28 1513.66 2008.22 1516.07 Q2011.16 1518.48 2011.16 1522.62 Q2011.16 1525.58 2009.47 1527.64 Q2007.8 1529.7 2004.81 1530.45 Q2008.19 1531.23 2010.07 1533.52 Q2011.97 1535.82 2011.97 1539.13 Q2011.97 1544.15 2008.89 1546.83 Q2005.83 1549.52 2000.12 1549.52 Q1994.4 1549.52 1991.32 1546.83 Q1988.26 1544.15 1988.26 1539.13 Q1988.26 1535.82 1990.16 1533.52 Q1992.06 1531.23 1995.44 1530.45 M1993.73 1523.06 Q1993.73 1525.75 1995.39 1527.25 Q1997.08 1528.76 2000.12 1528.76 Q2003.12 1528.76 2004.81 1527.25 Q2006.53 1525.75 2006.53 1523.06 Q2006.53 1520.38 2004.81 1518.87 Q2003.12 1517.37 2000.12 1517.37 Q1997.08 1517.37 1995.39 1518.87 Q1993.73 1520.38 1993.73 1523.06 Z" fill="#000000" fill-rule="nonzero" fill-opacity="1"></path><path clip-path="url(#clip740)" d="M2030.28 1517.37 Q2026.67 1517.37 2024.84 1520.93 Q2023.03 1524.47 2023.03 1531.6 Q2023.03 1538.71 2024.84 1542.27 Q2026.67 1545.82 2030.28 1545.82 Q2033.91 1545.82 2035.72 1542.27 Q2037.55 1538.71 2037.55 1531.6 Q2037.55 1524.47 2035.72 1520.93 Q2033.91 1517.37 2030.28 1517.37 M2030.28 1513.66 Q2036.09 1513.66 2039.14 1518.27 Q2042.22 1522.85 2042.22 1531.6 Q2042.22 1540.33 2039.14 1544.94 Q2036.09 1549.52 2030.28 1549.52 Q2024.47 1549.52 2021.39 1544.94 Q2018.33 1540.33 2018.33 1531.6 Q2018.33 1522.85 2021.39 1518.27 Q2024.47 1513.66 2030.28 1513.66 Z" fill="#000000" fill-rule="nonzero" fill-opacity="1"></path><polyline clip-path="url(#clip742)" style="stroke:#000000; stroke-linecap:round; stroke-linejoin:round; stroke-width:2; stroke-opacity:0.1; fill:none" points="264.287,1332.05 2352.76,1332.05 "></polyline>
<polyline clip-path="url(#clip742)" style="stroke:#000000; stroke-linecap:round; stroke-linejoin:round; stroke-width:2; stroke-opacity:0.1; fill:none" points="264.287,1089.12 2352.76,1089.12 "></polyline>
<polyline clip-path="url(#clip742)" style="stroke:#000000; stroke-linecap:round; stroke-linejoin:round; stroke-width:2; stroke-opacity:0.1; fill:none" points="264.287,846.179 2352.76,846.179 "></polyline>
<polyline clip-path="url(#clip742)" style="stroke:#000000; stroke-linecap:round; stroke-linejoin:round; stroke-width:2; stroke-opacity:0.1; fill:none" points="264.287,603.242 2352.76,603.242 "></polyline>
<polyline clip-path="url(#clip742)" style="stroke:#000000; stroke-linecap:round; stroke-linejoin:round; stroke-width:2; stroke-opacity:0.1; fill:none" points="264.287,360.305 2352.76,360.305 "></polyline>
<polyline clip-path="url(#clip740)" style="stroke:#000000; stroke-linecap:round; stroke-linejoin:round; stroke-width:4; stroke-opacity:1; fill:none" points="264.287,1486.45 264.287,123.472 "></polyline>
<polyline clip-path="url(#clip740)" style="stroke:#000000; stroke-linecap:round; stroke-linejoin:round; stroke-width:4; stroke-opacity:1; fill:none" points="264.287,1332.05 283.185,1332.05 "></polyline>
<polyline clip-path="url(#clip740)" style="stroke:#000000; stroke-linecap:round; stroke-linejoin:round; stroke-width:4; stroke-opacity:1; fill:none" points="264.287,1089.12 283.185,1089.12 "></polyline>
<polyline clip-path="url(#clip740)" style="stroke:#000000; stroke-linecap:round; stroke-linejoin:round; stroke-width:4; stroke-opacity:1; fill:none" points="264.287,846.179 283.185,846.179 "></polyline>
<polyline clip-path="url(#clip740)" style="stroke:#000000; stroke-linecap:round; stroke-linejoin:round; stroke-width:4; stroke-opacity:1; fill:none" points="264.287,603.242 283.185,603.242 "></polyline>
<polyline clip-path="url(#clip740)" style="stroke:#000000; stroke-linecap:round; stroke-linejoin:round; stroke-width:4; stroke-opacity:1; fill:none" points="264.287,360.305 283.185,360.305 "></polyline>
<path clip-path="url(#clip740)" d="M119.885 1345.4 L136.204 1345.4 L136.204 1349.33 L114.26 1349.33 L114.26 1345.4 Q116.922 1342.64 121.505 1338.01 Q126.112 1333.36 127.292 1332.02 Q129.538 1329.5 130.417 1327.76 Q131.32 1326 131.32 1324.31 Q131.32 1321.56 129.376 1319.82 Q127.455 1318.08 124.353 1318.08 Q122.154 1318.08 119.7 1318.85 Q117.269 1319.61 114.492 1321.16 L114.492 1316.44 Q117.316 1315.31 119.769 1314.73 Q122.223 1314.15 124.26 1314.15 Q129.63 1314.15 132.825 1316.83 Q136.019 1319.52 136.019 1324.01 Q136.019 1326.14 135.209 1328.06 Q134.422 1329.96 132.316 1332.55 Q131.737 1333.22 128.635 1336.44 Q125.533 1339.63 119.885 1345.4 Z" fill="#000000" fill-rule="nonzero" fill-opacity="1"></path><path clip-path="url(#clip740)" d="M150.047 1345.4 L166.366 1345.4 L166.366 1349.33 L144.422 1349.33 L144.422 1345.4 Q147.084 1342.64 151.667 1338.01 Q156.274 1333.36 157.454 1332.02 Q159.7 1329.5 160.579 1327.76 Q161.482 1326 161.482 1324.31 Q161.482 1321.56 159.538 1319.82 Q157.616 1318.08 154.515 1318.08 Q152.316 1318.08 149.862 1318.85 Q147.431 1319.61 144.654 1321.16 L144.654 1316.44 Q147.478 1315.31 149.931 1314.73 Q152.385 1314.15 154.422 1314.15 Q159.792 1314.15 162.987 1316.83 Q166.181 1319.52 166.181 1324.01 Q166.181 1326.14 165.371 1328.06 Q164.584 1329.96 162.477 1332.55 Q161.899 1333.22 158.797 1336.44 Q155.695 1339.63 150.047 1345.4 Z" fill="#000000" fill-rule="nonzero" fill-opacity="1"></path><path clip-path="url(#clip740)" d="M176.227 1314.77 L194.584 1314.77 L194.584 1318.71 L180.51 1318.71 L180.51 1327.18 Q181.528 1326.83 182.547 1326.67 Q183.565 1326.49 184.584 1326.49 Q190.371 1326.49 193.75 1329.66 Q197.13 1332.83 197.13 1338.25 Q197.13 1343.82 193.658 1346.93 Q190.186 1350 183.866 1350 Q181.69 1350 179.422 1349.63 Q177.176 1349.26 174.769 1348.52 L174.769 1343.82 Q176.852 1344.96 179.075 1345.51 Q181.297 1346.07 183.774 1346.07 Q187.778 1346.07 190.116 1343.96 Q192.454 1341.86 192.454 1338.25 Q192.454 1334.63 190.116 1332.53 Q187.778 1330.42 183.774 1330.42 Q181.899 1330.42 180.024 1330.84 Q178.172 1331.25 176.227 1332.13 L176.227 1314.77 Z" fill="#000000" fill-rule="nonzero" fill-opacity="1"></path><path clip-path="url(#clip740)" d="M216.343 1317.85 Q212.732 1317.85 210.903 1321.42 Q209.098 1324.96 209.098 1332.09 Q209.098 1339.19 210.903 1342.76 Q212.732 1346.3 216.343 1346.3 Q219.977 1346.3 221.783 1342.76 Q223.611 1339.19 223.611 1332.09 Q223.611 1324.96 221.783 1321.42 Q219.977 1317.85 216.343 1317.85 M216.343 1314.15 Q222.153 1314.15 225.209 1318.75 Q228.287 1323.34 228.287 1332.09 Q228.287 1340.81 225.209 1345.42 Q222.153 1350 216.343 1350 Q210.533 1350 207.454 1345.42 Q204.399 1340.81 204.399 1332.09 Q204.399 1323.34 207.454 1318.75 Q210.533 1314.15 216.343 1314.15 Z" fill="#000000" fill-rule="nonzero" fill-opacity="1"></path><path clip-path="url(#clip740)" d="M119.885 1102.46 L136.204 1102.46 L136.204 1106.4 L114.26 1106.4 L114.26 1102.46 Q116.922 1099.71 121.505 1095.08 Q126.112 1090.42 127.292 1089.08 Q129.538 1086.56 130.417 1084.82 Q131.32 1083.06 131.32 1081.37 Q131.32 1078.62 129.376 1076.88 Q127.455 1075.15 124.353 1075.15 Q122.154 1075.15 119.7 1075.91 Q117.269 1076.67 114.492 1078.22 L114.492 1073.5 Q117.316 1072.37 119.769 1071.79 Q122.223 1071.21 124.26 1071.21 Q129.63 1071.21 132.825 1073.9 Q136.019 1076.58 136.019 1081.07 Q136.019 1083.2 135.209 1085.12 Q134.422 1087.02 132.316 1089.61 Q131.737 1090.29 128.635 1093.5 Q125.533 1096.7 119.885 1102.46 Z" fill="#000000" fill-rule="nonzero" fill-opacity="1"></path><path clip-path="url(#clip740)" d="M146.066 1071.84 L164.422 1071.84 L164.422 1075.77 L150.348 1075.77 L150.348 1084.24 Q151.366 1083.9 152.385 1083.73 Q153.403 1083.55 154.422 1083.55 Q160.209 1083.55 163.589 1086.72 Q166.968 1089.89 166.968 1095.31 Q166.968 1100.89 163.496 1103.99 Q160.024 1107.07 153.704 1107.07 Q151.528 1107.07 149.26 1106.7 Q147.015 1106.33 144.607 1105.59 L144.607 1100.89 Q146.691 1102.02 148.913 1102.58 Q151.135 1103.13 153.612 1103.13 Q157.616 1103.13 159.954 1101.03 Q162.292 1098.92 162.292 1095.31 Q162.292 1091.7 159.954 1089.59 Q157.616 1087.48 153.612 1087.48 Q151.737 1087.48 149.862 1087.9 Q148.01 1088.32 146.066 1089.2 L146.066 1071.84 Z" fill="#000000" fill-rule="nonzero" fill-opacity="1"></path><path clip-path="url(#clip740)" d="M186.181 1074.91 Q182.57 1074.91 180.741 1078.48 Q178.936 1082.02 178.936 1089.15 Q178.936 1096.26 180.741 1099.82 Q182.57 1103.36 186.181 1103.36 Q189.815 1103.36 191.621 1099.82 Q193.45 1096.26 193.45 1089.15 Q193.45 1082.02 191.621 1078.48 Q189.815 1074.91 186.181 1074.91 M186.181 1071.21 Q191.991 1071.21 195.047 1075.82 Q198.125 1080.4 198.125 1089.15 Q198.125 1097.88 195.047 1102.48 Q191.991 1107.07 186.181 1107.07 Q180.371 1107.07 177.292 1102.48 Q174.237 1097.88 174.237 1089.15 Q174.237 1080.4 177.292 1075.82 Q180.371 1071.21 186.181 1071.21 Z" fill="#000000" fill-rule="nonzero" fill-opacity="1"></path><path clip-path="url(#clip740)" d="M216.343 1074.91 Q212.732 1074.91 210.903 1078.48 Q209.098 1082.02 209.098 1089.15 Q209.098 1096.26 210.903 1099.82 Q212.732 1103.36 216.343 1103.36 Q219.977 1103.36 221.783 1099.82 Q223.611 1096.26 223.611 1089.15 Q223.611 1082.02 221.783 1078.48 Q219.977 1074.91 216.343 1074.91 M216.343 1071.21 Q222.153 1071.21 225.209 1075.82 Q228.287 1080.4 228.287 1089.15 Q228.287 1097.88 225.209 1102.48 Q222.153 1107.07 216.343 1107.07 Q210.533 1107.07 207.454 1102.48 Q204.399 1097.88 204.399 1089.15 Q204.399 1080.4 207.454 1075.82 Q210.533 1071.21 216.343 1071.21 Z" fill="#000000" fill-rule="nonzero" fill-opacity="1"></path><path clip-path="url(#clip740)" d="M119.885 859.524 L136.204 859.524 L136.204 863.459 L114.26 863.459 L114.26 859.524 Q116.922 856.769 121.505 852.14 Q126.112 847.487 127.292 846.144 Q129.538 843.621 130.417 841.885 Q131.32 840.126 131.32 838.436 Q131.32 835.681 129.376 833.945 Q127.455 832.209 124.353 832.209 Q122.154 832.209 119.7 832.973 Q117.269 833.737 114.492 835.288 L114.492 830.566 Q117.316 829.431 119.769 828.853 Q122.223 828.274 124.26 828.274 Q129.63 828.274 132.825 830.959 Q136.019 833.644 136.019 838.135 Q136.019 840.265 135.209 842.186 Q134.422 844.084 132.316 846.677 Q131.737 847.348 128.635 850.566 Q125.533 853.76 119.885 859.524 Z" fill="#000000" fill-rule="nonzero" fill-opacity="1"></path><path clip-path="url(#clip740)" d="M144.839 828.899 L167.061 828.899 L167.061 830.89 L154.515 863.459 L149.63 863.459 L161.436 832.834 L144.839 832.834 L144.839 828.899 Z" fill="#000000" fill-rule="nonzero" fill-opacity="1"></path><path clip-path="url(#clip740)" d="M176.227 828.899 L194.584 828.899 L194.584 832.834 L180.51 832.834 L180.51 841.306 Q181.528 840.959 182.547 840.797 Q183.565 840.612 184.584 840.612 Q190.371 840.612 193.75 843.783 Q197.13 846.954 197.13 852.371 Q197.13 857.95 193.658 861.052 Q190.186 864.13 183.866 864.13 Q181.69 864.13 179.422 863.76 Q177.176 863.39 174.769 862.649 L174.769 857.95 Q176.852 859.084 179.075 859.64 Q181.297 860.195 183.774 860.195 Q187.778 860.195 190.116 858.089 Q192.454 855.982 192.454 852.371 Q192.454 848.76 190.116 846.654 Q187.778 844.547 183.774 844.547 Q181.899 844.547 180.024 844.964 Q178.172 845.38 176.227 846.26 L176.227 828.899 Z" fill="#000000" fill-rule="nonzero" fill-opacity="1"></path><path clip-path="url(#clip740)" d="M216.343 831.978 Q212.732 831.978 210.903 835.542 Q209.098 839.084 209.098 846.214 Q209.098 853.32 210.903 856.885 Q212.732 860.427 216.343 860.427 Q219.977 860.427 221.783 856.885 Q223.611 853.32 223.611 846.214 Q223.611 839.084 221.783 835.542 Q219.977 831.978 216.343 831.978 M216.343 828.274 Q222.153 828.274 225.209 832.88 Q228.287 837.464 228.287 846.214 Q228.287 854.941 225.209 859.547 Q222.153 864.13 216.343 864.13 Q210.533 864.13 207.454 859.547 Q204.399 854.941 204.399 846.214 Q204.399 837.464 207.454 832.88 Q210.533 828.274 216.343 828.274 Z" fill="#000000" fill-rule="nonzero" fill-opacity="1"></path><path clip-path="url(#clip740)" d="M130.024 601.888 Q133.38 602.605 135.255 604.874 Q137.154 607.142 137.154 610.476 Q137.154 615.591 133.635 618.392 Q130.117 621.193 123.635 621.193 Q121.459 621.193 119.144 620.753 Q116.853 620.337 114.399 619.48 L114.399 614.966 Q116.343 616.101 118.658 616.679 Q120.973 617.258 123.496 617.258 Q127.894 617.258 130.186 615.522 Q132.501 613.786 132.501 610.476 Q132.501 607.42 130.348 605.707 Q128.218 603.971 124.399 603.971 L120.371 603.971 L120.371 600.129 L124.584 600.129 Q128.033 600.129 129.862 598.763 Q131.691 597.374 131.691 594.781 Q131.691 592.119 129.792 590.707 Q127.917 589.272 124.399 589.272 Q122.478 589.272 120.279 589.689 Q118.08 590.105 115.441 590.985 L115.441 586.818 Q118.103 586.078 120.418 585.707 Q122.755 585.337 124.816 585.337 Q130.14 585.337 133.242 587.767 Q136.343 590.175 136.343 594.295 Q136.343 597.166 134.7 599.156 Q133.056 601.124 130.024 601.888 Z" fill="#000000" fill-rule="nonzero" fill-opacity="1"></path><path clip-path="url(#clip740)" d="M156.019 589.041 Q152.408 589.041 150.579 592.605 Q148.774 596.147 148.774 603.277 Q148.774 610.383 150.579 613.948 Q152.408 617.49 156.019 617.49 Q159.653 617.49 161.459 613.948 Q163.288 610.383 163.288 603.277 Q163.288 596.147 161.459 592.605 Q159.653 589.041 156.019 589.041 M156.019 585.337 Q161.829 585.337 164.885 589.943 Q167.964 594.527 167.964 603.277 Q167.964 612.003 164.885 616.61 Q161.829 621.193 156.019 621.193 Q150.209 621.193 147.13 616.61 Q144.075 612.003 144.075 603.277 Q144.075 594.527 147.13 589.943 Q150.209 585.337 156.019 585.337 Z" fill="#000000" fill-rule="nonzero" fill-opacity="1"></path><path clip-path="url(#clip740)" d="M186.181 589.041 Q182.57 589.041 180.741 592.605 Q178.936 596.147 178.936 603.277 Q178.936 610.383 180.741 613.948 Q182.57 617.49 186.181 617.49 Q189.815 617.49 191.621 613.948 Q193.45 610.383 193.45 603.277 Q193.45 596.147 191.621 592.605 Q189.815 589.041 186.181 589.041 M186.181 585.337 Q191.991 585.337 195.047 589.943 Q198.125 594.527 198.125 603.277 Q198.125 612.003 195.047 616.61 Q191.991 621.193 186.181 621.193 Q180.371 621.193 177.292 616.61 Q174.237 612.003 174.237 603.277 Q174.237 594.527 177.292 589.943 Q180.371 585.337 186.181 585.337 Z" fill="#000000" fill-rule="nonzero" fill-opacity="1"></path><path clip-path="url(#clip740)" d="M216.343 589.041 Q212.732 589.041 210.903 592.605 Q209.098 596.147 209.098 603.277 Q209.098 610.383 210.903 613.948 Q212.732 617.49 216.343 617.49 Q219.977 617.49 221.783 613.948 Q223.611 610.383 223.611 603.277 Q223.611 596.147 221.783 592.605 Q219.977 589.041 216.343 589.041 M216.343 585.337 Q222.153 585.337 225.209 589.943 Q228.287 594.527 228.287 603.277 Q228.287 612.003 225.209 616.61 Q222.153 621.193 216.343 621.193 Q210.533 621.193 207.454 616.61 Q204.399 612.003 204.399 603.277 Q204.399 594.527 207.454 589.943 Q210.533 585.337 216.343 585.337 Z" fill="#000000" fill-rule="nonzero" fill-opacity="1"></path><path clip-path="url(#clip740)" d="M130.024 358.951 Q133.38 359.668 135.255 361.937 Q137.154 364.205 137.154 367.539 Q137.154 372.654 133.635 375.455 Q130.117 378.256 123.635 378.256 Q121.459 378.256 119.144 377.816 Q116.853 377.4 114.399 376.543 L114.399 372.029 Q116.343 373.164 118.658 373.742 Q120.973 374.321 123.496 374.321 Q127.894 374.321 130.186 372.585 Q132.501 370.849 132.501 367.539 Q132.501 364.483 130.348 362.77 Q128.218 361.034 124.399 361.034 L120.371 361.034 L120.371 357.191 L124.584 357.191 Q128.033 357.191 129.862 355.826 Q131.691 354.437 131.691 351.844 Q131.691 349.182 129.792 347.77 Q127.917 346.335 124.399 346.335 Q122.478 346.335 120.279 346.752 Q118.08 347.168 115.441 348.048 L115.441 343.881 Q118.103 343.141 120.418 342.77 Q122.755 342.4 124.816 342.4 Q130.14 342.4 133.242 344.83 Q136.343 347.238 136.343 351.358 Q136.343 354.228 134.7 356.219 Q133.056 358.187 130.024 358.951 Z" fill="#000000" fill-rule="nonzero" fill-opacity="1"></path><path clip-path="url(#clip740)" d="M150.047 373.65 L166.366 373.65 L166.366 377.585 L144.422 377.585 L144.422 373.65 Q147.084 370.895 151.667 366.265 Q156.274 361.613 157.454 360.27 Q159.7 357.747 160.579 356.011 Q161.482 354.252 161.482 352.562 Q161.482 349.807 159.538 348.071 Q157.616 346.335 154.515 346.335 Q152.316 346.335 149.862 347.099 Q147.431 347.863 144.654 349.414 L144.654 344.692 Q147.478 343.557 149.931 342.979 Q152.385 342.4 154.422 342.4 Q159.792 342.4 162.987 345.085 Q166.181 347.77 166.181 352.261 Q166.181 354.391 165.371 356.312 Q164.584 358.21 162.477 360.803 Q161.899 361.474 158.797 364.691 Q155.695 367.886 150.047 373.65 Z" fill="#000000" fill-rule="nonzero" fill-opacity="1"></path><path clip-path="url(#clip740)" d="M176.227 343.025 L194.584 343.025 L194.584 346.96 L180.51 346.96 L180.51 355.432 Q181.528 355.085 182.547 354.923 Q183.565 354.738 184.584 354.738 Q190.371 354.738 193.75 357.909 Q197.13 361.08 197.13 366.497 Q197.13 372.076 193.658 375.177 Q190.186 378.256 183.866 378.256 Q181.69 378.256 179.422 377.886 Q177.176 377.515 174.769 376.775 L174.769 372.076 Q176.852 373.21 179.075 373.765 Q181.297 374.321 183.774 374.321 Q187.778 374.321 190.116 372.215 Q192.454 370.108 192.454 366.497 Q192.454 362.886 190.116 360.779 Q187.778 358.673 183.774 358.673 Q181.899 358.673 180.024 359.09 Q178.172 359.506 176.227 360.386 L176.227 343.025 Z" fill="#000000" fill-rule="nonzero" fill-opacity="1"></path><path clip-path="url(#clip740)" d="M216.343 346.104 Q212.732 346.104 210.903 349.668 Q209.098 353.21 209.098 360.34 Q209.098 367.446 210.903 371.011 Q212.732 374.552 216.343 374.552 Q219.977 374.552 221.783 371.011 Q223.611 367.446 223.611 360.34 Q223.611 353.21 221.783 349.668 Q219.977 346.104 216.343 346.104 M216.343 342.4 Q222.153 342.4 225.209 347.006 Q228.287 351.59 228.287 360.34 Q228.287 369.066 225.209 373.673 Q222.153 378.256 216.343 378.256 Q210.533 378.256 207.454 373.673 Q204.399 369.066 204.399 360.34 Q204.399 351.59 207.454 347.006 Q210.533 342.4 216.343 342.4 Z" fill="#000000" fill-rule="nonzero" fill-opacity="1"></path><path clip-path="url(#clip740)" d="M16.4842 1105.34 L16.4842 1075.3 L21.895 1075.3 L21.895 1098.91 L35.9632 1098.91 L35.9632 1076.28 L41.3741 1076.28 L41.3741 1098.91 L58.5933 1098.91 L58.5933 1074.72 L64.0042 1074.72 L64.0042 1105.34 L16.4842 1105.34 Z" fill="#000000" fill-rule="nonzero" fill-opacity="1"></path><path clip-path="url(#clip740)" d="M14.479 1064.41 L14.479 1058.55 L64.0042 1058.55 L64.0042 1064.41 L14.479 1064.41 Z" fill="#000000" fill-rule="nonzero" fill-opacity="1"></path><path clip-path="url(#clip740)" d="M44.7161 1015.81 L47.5806 1015.81 L47.5806 1042.74 Q53.6281 1042.35 56.8109 1039.11 Q59.9619 1035.83 59.9619 1030 Q59.9619 1026.63 59.1344 1023.48 Q58.3069 1020.3 56.6518 1017.18 L62.1899 1017.18 Q63.5267 1020.33 64.227 1023.64 Q64.9272 1026.95 64.9272 1030.35 Q64.9272 1038.88 59.9619 1043.88 Q54.9967 1048.85 46.5303 1048.85 Q37.7774 1048.85 32.6531 1044.14 Q27.4968 1039.39 27.4968 1031.37 Q27.4968 1024.18 32.1438 1020.01 Q36.7589 1015.81 44.7161 1015.81 M42.9973 1021.66 Q38.1912 1021.73 35.3266 1024.37 Q32.4621 1026.98 32.4621 1031.31 Q32.4621 1036.21 35.2312 1039.17 Q38.0002 1042.1 43.0292 1042.54 L42.9973 1021.66 Z" fill="#000000" fill-rule="nonzero" fill-opacity="1"></path><path clip-path="url(#clip740)" d="M28.3562 1010.4 L28.3562 1004.19 L58.275 993.051 L28.3562 981.911 L28.3562 975.704 L64.0042 989.072 L64.0042 997.029 L28.3562 1010.4 Z" fill="#000000" fill-rule="nonzero" fill-opacity="1"></path><path clip-path="url(#clip740)" d="M46.0847 951.419 Q46.0847 958.517 47.7079 961.254 Q49.3312 963.991 53.2461 963.991 Q56.3653 963.991 58.2114 961.954 Q60.0256 959.885 60.0256 956.352 Q60.0256 951.483 56.5881 948.554 Q53.1188 945.594 47.3897 945.594 L46.0847 945.594 L46.0847 951.419 M43.6657 939.738 L64.0042 939.738 L64.0042 945.594 L58.5933 945.594 Q61.8398 947.6 63.3994 950.591 Q64.9272 953.583 64.9272 957.912 Q64.9272 963.387 61.8716 966.633 Q58.7843 969.848 53.6281 969.848 Q47.6125 969.848 44.5569 965.837 Q41.5014 961.795 41.5014 953.806 L41.5014 945.594 L40.9285 945.594 Q36.8862 945.594 34.6901 948.268 Q32.4621 950.91 32.4621 955.716 Q32.4621 958.771 33.1941 961.668 Q33.9262 964.564 35.3903 967.238 L29.9795 967.238 Q28.7381 964.023 28.1334 960.999 Q27.4968 957.976 27.4968 955.111 Q27.4968 947.377 31.5072 943.557 Q35.5176 939.738 43.6657 939.738 Z" fill="#000000" fill-rule="nonzero" fill-opacity="1"></path><path clip-path="url(#clip740)" d="M18.2347 921.882 L28.3562 921.882 L28.3562 909.819 L32.9077 909.819 L32.9077 921.882 L52.2594 921.882 Q56.6199 921.882 57.8613 920.704 Q59.1026 919.495 59.1026 915.835 L59.1026 909.819 L64.0042 909.819 L64.0042 915.835 Q64.0042 922.614 61.4897 925.192 Q58.9434 927.77 52.2594 927.77 L32.9077 927.77 L32.9077 932.067 L28.3562 932.067 L28.3562 927.77 L18.2347 927.77 L18.2347 921.882 Z" fill="#000000" fill-rule="nonzero" fill-opacity="1"></path><path clip-path="url(#clip740)" d="M28.3562 902.117 L28.3562 896.26 L64.0042 896.26 L64.0042 902.117 L28.3562 902.117 M14.479 902.117 L14.479 896.26 L21.895 896.26 L21.895 902.117 L14.479 902.117 Z" fill="#000000" fill-rule="nonzero" fill-opacity="1"></path><path clip-path="url(#clip740)" d="M32.4621 870.193 Q32.4621 874.903 36.1542 877.64 Q39.8145 880.378 46.212 880.378 Q52.6095 880.378 56.3017 877.672 Q59.9619 874.935 59.9619 870.193 Q59.9619 865.514 56.2698 862.777 Q52.5777 860.039 46.212 860.039 Q39.8781 860.039 36.186 862.777 Q32.4621 865.514 32.4621 870.193 M27.4968 870.193 Q27.4968 862.554 32.4621 858.193 Q37.4273 853.833 46.212 853.833 Q54.9649 853.833 59.9619 858.193 Q64.9272 862.554 64.9272 870.193 Q64.9272 877.863 59.9619 882.224 Q54.9649 886.552 46.212 886.552 Q37.4273 886.552 32.4621 882.224 Q27.4968 877.863 27.4968 870.193 Z" fill="#000000" fill-rule="nonzero" fill-opacity="1"></path><path clip-path="url(#clip740)" d="M42.4881 814.493 L64.0042 814.493 L64.0042 820.349 L42.679 820.349 Q37.6183 820.349 35.1038 822.322 Q32.5894 824.296 32.5894 828.243 Q32.5894 832.985 35.6131 835.722 Q38.6368 838.46 43.8567 838.46 L64.0042 838.46 L64.0042 844.348 L28.3562 844.348 L28.3562 838.46 L33.8944 838.46 Q30.6797 836.359 29.0883 833.526 Q27.4968 830.662 27.4968 826.938 Q27.4968 820.795 31.3163 817.644 Q35.1038 814.493 42.4881 814.493 Z" fill="#000000" fill-rule="nonzero" fill-opacity="1"></path><path clip-path="url(#clip740)" d="M14.5426 768.023 Q21.8632 772.288 29.0246 774.357 Q36.186 776.426 43.5384 776.426 Q50.8908 776.426 58.1159 774.357 Q65.3091 772.256 72.5979 768.023 L72.5979 773.116 Q65.1182 777.89 57.8931 780.277 Q50.668 782.632 43.5384 782.632 Q36.4406 782.632 29.2474 780.277 Q22.0542 777.922 14.5426 773.116 L14.5426 768.023 Z" fill="#000000" fill-rule="nonzero" fill-opacity="1"></path><path clip-path="url(#clip740)" d="M35.1993 728.906 Q31.2526 726.71 29.3747 723.654 Q27.4968 720.598 27.4968 716.461 Q27.4968 710.891 31.4117 707.867 Q35.2948 704.843 42.4881 704.843 L64.0042 704.843 L64.0042 710.732 L42.679 710.732 Q37.5546 710.732 35.072 712.546 Q32.5894 714.36 32.5894 718.084 Q32.5894 722.635 35.6131 725.277 Q38.6368 727.919 43.8567 727.919 L64.0042 727.919 L64.0042 733.807 L42.679 733.807 Q37.5228 733.807 35.072 735.622 Q32.5894 737.436 32.5894 741.223 Q32.5894 745.711 35.6449 748.353 Q38.6686 750.995 43.8567 750.995 L64.0042 750.995 L64.0042 756.883 L28.3562 756.883 L28.3562 750.995 L33.8944 750.995 Q30.616 748.99 29.0564 746.189 Q27.4968 743.388 27.4968 739.536 Q27.4968 735.653 29.4702 732.948 Q31.4436 730.211 35.1993 728.906 Z" fill="#000000" fill-rule="nonzero" fill-opacity="1"></path><path clip-path="url(#clip740)" d="M55.9197 692.335 L55.9197 685.619 L64.0042 685.619 L64.0042 692.335 L55.9197 692.335 Z" fill="#000000" fill-rule="nonzero" fill-opacity="1"></path><path clip-path="url(#clip740)" d="M46.0847 656.241 Q46.0847 663.339 47.7079 666.076 Q49.3312 668.813 53.2461 668.813 Q56.3653 668.813 58.2114 666.776 Q60.0256 664.708 60.0256 661.175 Q60.0256 656.305 56.5881 653.377 Q53.1188 650.417 47.3897 650.417 L46.0847 650.417 L46.0847 656.241 M43.6657 644.56 L64.0042 644.56 L64.0042 650.417 L58.5933 650.417 Q61.8398 652.422 63.3994 655.414 Q64.9272 658.406 64.9272 662.734 Q64.9272 668.209 61.8716 671.455 Q58.7843 674.67 53.6281 674.67 Q47.6125 674.67 44.5569 670.66 Q41.5014 666.617 41.5014 658.628 L41.5014 650.417 L40.9285 650.417 Q36.8862 650.417 34.6901 653.09 Q32.4621 655.732 32.4621 660.538 Q32.4621 663.594 33.1941 666.49 Q33.9262 669.386 35.3903 672.06 L29.9795 672.06 Q28.7381 668.845 28.1334 665.822 Q27.4968 662.798 27.4968 659.933 Q27.4968 652.199 31.5072 648.38 Q35.5176 644.56 43.6657 644.56 Z" fill="#000000" fill-rule="nonzero" fill-opacity="1"></path><path clip-path="url(#clip740)" d="M55.9197 631.67 L55.9197 624.954 L64.0042 624.954 L64.0042 631.67 L55.9197 631.67 Z" fill="#000000" fill-rule="nonzero" fill-opacity="1"></path><path clip-path="url(#clip740)" d="M29.4065 589.051 L34.9447 589.051 Q33.6716 591.534 33.035 594.207 Q32.3984 596.881 32.3984 599.746 Q32.3984 604.106 33.7352 606.302 Q35.072 608.467 37.7456 608.467 Q39.7826 608.467 40.9603 606.907 Q42.1061 605.347 43.1565 600.637 L43.6021 598.632 Q44.9389 592.393 47.3897 589.783 Q49.8086 587.141 54.1691 587.141 Q59.1344 587.141 62.0308 591.088 Q64.9272 595.003 64.9272 601.878 Q64.9272 604.743 64.3543 607.862 Q63.8132 610.949 62.6992 614.387 L56.6518 614.387 Q58.3387 611.14 59.198 607.989 Q60.0256 604.838 60.0256 601.751 Q60.0256 597.613 58.6251 595.385 Q57.1929 593.157 54.6147 593.157 Q52.2276 593.157 50.9545 594.78 Q49.6813 596.372 48.5037 601.814 L48.0262 603.851 Q46.8804 609.294 44.5251 611.713 Q42.138 614.132 38.0002 614.132 Q32.9713 614.132 30.2341 610.567 Q27.4968 607.002 27.4968 600.446 Q27.4968 597.199 27.9743 594.335 Q28.4517 591.47 29.4065 589.051 Z" fill="#000000" fill-rule="nonzero" fill-opacity="1"></path><path clip-path="url(#clip740)" d="M55.9197 576.988 L55.9197 570.272 L64.0042 570.272 L64.0042 576.988 L55.9197 576.988 Z" fill="#000000" fill-rule="nonzero" fill-opacity="1"></path><path clip-path="url(#clip740)" d="M14.479 557.095 L14.479 551.239 L64.0042 551.239 L64.0042 557.095 L14.479 557.095 Z" fill="#000000" fill-rule="nonzero" fill-opacity="1"></path><path clip-path="url(#clip740)" d="M55.9197 538.157 L55.9197 531.442 L64.0042 531.442 L64.0042 538.157 L55.9197 538.157 Z" fill="#000000" fill-rule="nonzero" fill-opacity="1"></path><path clip-path="url(#clip740)" d="M14.5426 519.188 L14.5426 514.095 Q22.0542 509.321 29.2474 506.965 Q36.4406 504.578 43.5384 504.578 Q50.668 504.578 57.8931 506.965 Q65.1182 509.321 72.5979 514.095 L72.5979 519.188 Q65.3091 514.954 58.1159 512.885 Q50.8908 510.785 43.5384 510.785 Q36.186 510.785 29.0246 512.885 Q21.8632 514.954 14.5426 519.188 Z" fill="#000000" fill-rule="nonzero" fill-opacity="1"></path><path clip-path="url(#clip740)" d="M304.829 12.096 L339.586 12.096 L339.586 18.9825 L313.012 18.9825 L313.012 36.8065 L336.993 36.8065 L336.993 43.6931 L313.012 43.6931 L313.012 72.576 L304.829 72.576 L304.829 12.096 Z" fill="#000000" fill-rule="nonzero" fill-opacity="1"></path><path clip-path="url(#clip740)" d="M372.479 34.1734 Q371.223 33.4443 369.725 33.1202 Q368.266 32.7556 366.484 32.7556 Q360.164 32.7556 356.762 36.8875 Q353.399 40.9789 353.399 48.6757 L353.399 72.576 L345.905 72.576 L345.905 27.2059 L353.399 27.2059 L353.399 34.2544 Q355.749 30.1225 359.516 28.1376 Q363.284 26.1121 368.671 26.1121 Q369.441 26.1121 370.373 26.2337 Q371.304 26.3147 372.439 26.5172 L372.479 34.1734 Z" fill="#000000" fill-rule="nonzero" fill-opacity="1"></path><path clip-path="url(#clip740)" d="M403.833 19.2256 L383.174 51.5113 L403.833 51.5113 L403.833 19.2256 M401.686 12.096 L411.975 12.096 L411.975 51.5113 L420.604 51.5113 L420.604 58.3168 L411.975 58.3168 L411.975 72.576 L403.833 72.576 L403.833 58.3168 L376.53 58.3168 L376.53 50.4176 L401.686 12.096 Z" fill="#000000" fill-rule="nonzero" fill-opacity="1"></path><path clip-path="url(#clip740)" d="M433.405 12.096 L444.423 12.096 L471.24 62.6918 L471.24 12.096 L479.18 12.096 L479.18 72.576 L468.162 72.576 L441.345 21.9802 L441.345 72.576 L433.405 72.576 L433.405 12.096 Z" fill="#000000" fill-rule="nonzero" fill-opacity="1"></path><path clip-path="url(#clip740)" d="M513.694 17.4837 Q507.374 17.4837 504.174 23.7221 Q501.014 29.92 501.014 42.3968 Q501.014 54.833 504.174 61.0714 Q507.374 67.2693 513.694 67.2693 Q520.054 67.2693 523.213 61.0714 Q526.414 54.833 526.414 42.3968 Q526.414 29.92 523.213 23.7221 Q520.054 17.4837 513.694 17.4837 M513.694 11.0023 Q523.861 11.0023 529.209 19.0636 Q534.596 27.0843 534.596 42.3968 Q534.596 57.6687 529.209 65.73 Q523.861 73.7508 513.694 73.7508 Q503.526 73.7508 498.138 65.73 Q492.791 57.6687 492.791 42.3968 Q492.791 27.0843 498.138 19.0636 Q503.526 11.0023 513.694 11.0023 Z" fill="#000000" fill-rule="nonzero" fill-opacity="1"></path><path clip-path="url(#clip740)" d="M550.395 65.6895 L563.763 65.6895 L563.763 19.5497 L549.22 22.4663 L549.22 15.0127 L563.682 12.096 L571.865 12.096 L571.865 65.6895 L585.233 65.6895 L585.233 72.576 L550.395 72.576 L550.395 65.6895 Z" fill="#000000" fill-rule="nonzero" fill-opacity="1"></path><path clip-path="url(#clip740)" d="M603.178 65.6895 L616.546 65.6895 L616.546 19.5497 L602.003 22.4663 L602.003 15.0127 L616.465 12.096 L624.648 12.096 L624.648 65.6895 L638.016 65.6895 L638.016 72.576 L603.178 72.576 L603.178 65.6895 Z" fill="#000000" fill-rule="nonzero" fill-opacity="1"></path><path clip-path="url(#clip740)" d="M677.026 19.2256 L656.367 51.5113 L677.026 51.5113 L677.026 19.2256 M674.879 12.096 L685.168 12.096 L685.168 51.5113 L693.797 51.5113 L693.797 58.3168 L685.168 58.3168 L685.168 72.576 L677.026 72.576 L677.026 58.3168 L649.723 58.3168 L649.723 50.4176 L674.879 12.096 Z" fill="#000000" fill-rule="nonzero" fill-opacity="1"></path><path clip-path="url(#clip740)" d="M725.84 39.075 Q720.33 39.075 717.09 42.8424 Q713.889 46.6097 713.889 53.1722 Q713.889 59.6941 717.09 63.502 Q720.33 67.2693 725.84 67.2693 Q731.349 67.2693 734.549 63.502 Q737.79 59.6941 737.79 53.1722 Q737.79 46.6097 734.549 42.8424 Q731.349 39.075 725.84 39.075 M742.084 13.4328 L742.084 20.8865 Q739.005 19.4281 735.845 18.6585 Q732.726 17.8888 729.647 17.8888 Q721.546 17.8888 717.252 23.3575 Q712.998 28.8262 712.391 39.8852 Q714.781 36.3609 718.386 34.4975 Q721.991 32.5936 726.326 32.5936 Q735.44 32.5936 740.706 38.1433 Q746.013 43.6525 746.013 53.1722 Q746.013 62.4892 740.504 68.12 Q734.995 73.7508 725.84 73.7508 Q715.348 73.7508 709.798 65.73 Q704.248 57.6687 704.248 42.3968 Q704.248 28.0566 711.054 19.5497 Q717.859 11.0023 729.323 11.0023 Q732.402 11.0023 735.521 11.6099 Q738.681 12.2175 742.084 13.4328 Z" fill="#000000" fill-rule="nonzero" fill-opacity="1"></path><path clip-path="url(#clip740)" d="M767.564 18.8205 L767.564 65.8515 L777.448 65.8515 Q789.965 65.8515 795.758 60.1802 Q801.591 54.509 801.591 42.2752 Q801.591 30.1225 795.758 24.4918 Q789.965 18.8205 777.448 18.8205 L767.564 18.8205 M759.381 12.096 L776.192 12.096 Q793.773 12.096 801.997 19.4281 Q810.22 26.7198 810.22 42.2752 Q810.22 57.9117 801.956 65.2439 Q793.692 72.576 776.192 72.576 L759.381 72.576 L759.381 12.096 Z" fill="#000000" fill-rule="nonzero" fill-opacity="1"></path><path clip-path="url(#clip740)" d="M841.493 17.4837 Q835.173 17.4837 831.973 23.7221 Q828.814 29.92 828.814 42.3968 Q828.814 54.833 831.973 61.0714 Q835.173 67.2693 841.493 67.2693 Q847.853 67.2693 851.012 61.0714 Q854.213 54.833 854.213 42.3968 Q854.213 29.92 851.012 23.7221 Q847.853 17.4837 841.493 17.4837 M841.493 11.0023 Q851.661 11.0023 857.008 19.0636 Q862.396 27.0843 862.396 42.3968 Q862.396 57.6687 857.008 65.73 Q851.661 73.7508 841.493 73.7508 Q831.325 73.7508 825.937 65.73 Q820.59 57.6687 820.59 42.3968 Q820.59 27.0843 825.937 19.0636 Q831.325 11.0023 841.493 11.0023 Z" fill="#000000" fill-rule="nonzero" fill-opacity="1"></path><path clip-path="url(#clip740)" d="M877.019 71.3202 L877.019 63.8666 Q880.098 65.3249 883.258 66.0946 Q886.417 66.8642 889.456 66.8642 Q897.557 66.8642 901.811 61.436 Q906.105 55.9673 906.712 44.8678 Q904.363 48.3516 900.758 50.215 Q897.152 52.0784 892.777 52.0784 Q883.703 52.0784 878.397 46.6097 Q873.13 41.1005 873.13 31.5808 Q873.13 22.2638 878.64 16.633 Q884.149 11.0023 893.304 11.0023 Q903.796 11.0023 909.305 19.0636 Q914.855 27.0843 914.855 42.3968 Q914.855 56.6965 908.049 65.2439 Q901.284 73.7508 889.82 73.7508 Q886.741 73.7508 883.582 73.1431 Q880.422 72.5355 877.019 71.3202 M893.304 45.678 Q898.813 45.678 902.013 41.9107 Q905.254 38.1433 905.254 31.5808 Q905.254 25.0589 902.013 21.2916 Q898.813 17.4837 893.304 17.4837 Q887.795 17.4837 884.554 21.2916 Q881.354 25.0589 881.354 31.5808 Q881.354 38.1433 884.554 41.9107 Q887.795 45.678 893.304 45.678 Z" fill="#000000" fill-rule="nonzero" fill-opacity="1"></path><path clip-path="url(#clip740)" d="M958.848 20.5624 L958.848 43.1259 L981.411 43.1259 L981.411 50.0125 L958.848 50.0125 L958.848 72.576 L952.042 72.576 L952.042 50.0125 L929.479 50.0125 L929.479 43.1259 L952.042 43.1259 L952.042 20.5624 L958.848 20.5624 Z" fill="#000000" fill-rule="nonzero" fill-opacity="1"></path><path clip-path="url(#clip740)" d="M998.344 12.096 L1036.58 12.096 L1036.58 18.9825 L1006.53 18.9825 L1006.53 36.8875 L1035.33 36.8875 L1035.33 43.7741 L1006.53 43.7741 L1006.53 65.6895 L1037.31 65.6895 L1037.31 72.576 L998.344 72.576 L998.344 12.096 Z" fill="#000000" fill-rule="nonzero" fill-opacity="1"></path><path clip-path="url(#clip740)" d="M1068.99 17.4837 Q1062.67 17.4837 1059.47 23.7221 Q1056.31 29.92 1056.31 42.3968 Q1056.31 54.833 1059.47 61.0714 Q1062.67 67.2693 1068.99 67.2693 Q1075.35 67.2693 1078.51 61.0714 Q1081.71 54.833 1081.71 42.3968 Q1081.71 29.92 1078.51 23.7221 Q1075.35 17.4837 1068.99 17.4837 M1068.99 11.0023 Q1079.16 11.0023 1084.51 19.0636 Q1089.89 27.0843 1089.89 42.3968 Q1089.89 57.6687 1084.51 65.73 Q1079.16 73.7508 1068.99 73.7508 Q1058.82 73.7508 1053.44 65.73 Q1048.09 57.6687 1048.09 42.3968 Q1048.09 27.0843 1053.44 19.0636 Q1058.82 11.0023 1068.99 11.0023 Z" fill="#000000" fill-rule="nonzero" fill-opacity="1"></path><path clip-path="url(#clip740)" d="M1122.79 39.075 Q1117.28 39.075 1114.04 42.8424 Q1110.84 46.6097 1110.84 53.1722 Q1110.84 59.6941 1114.04 63.502 Q1117.28 67.2693 1122.79 67.2693 Q1128.3 67.2693 1131.5 63.502 Q1134.74 59.6941 1134.74 53.1722 Q1134.74 46.6097 1131.5 42.8424 Q1128.3 39.075 1122.79 39.075 M1139.03 13.4328 L1139.03 20.8865 Q1135.95 19.4281 1132.79 18.6585 Q1129.67 17.8888 1126.6 17.8888 Q1118.49 17.8888 1114.2 23.3575 Q1109.95 28.8262 1109.34 39.8852 Q1111.73 36.3609 1115.33 34.4975 Q1118.94 32.5936 1123.27 32.5936 Q1132.39 32.5936 1137.65 38.1433 Q1142.96 43.6525 1142.96 53.1722 Q1142.96 62.4892 1137.45 68.12 Q1131.94 73.7508 1122.79 73.7508 Q1112.3 73.7508 1106.75 65.73 Q1101.2 57.6687 1101.2 42.3968 Q1101.2 28.0566 1108 19.5497 Q1114.81 11.0023 1126.27 11.0023 Q1129.35 11.0023 1132.47 11.6099 Q1135.63 12.2175 1139.03 13.4328 Z" fill="#000000" fill-rule="nonzero" fill-opacity="1"></path><path clip-path="url(#clip740)" d="M1223.94 63.9476 L1223.94 47.7034 L1210.57 47.7034 L1210.57 40.9789 L1232.04 40.9789 L1232.04 66.9452 Q1227.3 70.3075 1221.59 72.0494 Q1215.88 73.7508 1209.4 73.7508 Q1195.22 73.7508 1187.2 65.4869 Q1179.22 57.1826 1179.22 42.3968 Q1179.22 27.5705 1187.2 19.3066 Q1195.22 11.0023 1209.4 11.0023 Q1215.31 11.0023 1220.62 12.4606 Q1225.96 13.9189 1230.46 16.7545 L1230.46 25.464 Q1225.92 21.6156 1220.82 19.6712 Q1215.72 17.7268 1210.08 17.7268 Q1198.99 17.7268 1193.39 23.9246 Q1187.85 30.1225 1187.85 42.3968 Q1187.85 54.6305 1193.39 60.8284 Q1198.99 67.0263 1210.08 67.0263 Q1214.42 67.0263 1217.82 66.2971 Q1221.22 65.5274 1223.94 63.9476 Z" fill="#000000" fill-rule="nonzero" fill-opacity="1"></path><path clip-path="url(#clip740)" d="M1285.47 48.0275 L1285.47 51.6733 L1251.2 51.6733 Q1251.69 59.3701 1255.82 63.421 Q1259.99 67.4314 1267.4 67.4314 Q1271.7 67.4314 1275.71 66.3781 Q1279.76 65.3249 1283.73 63.2184 L1283.73 70.267 Q1279.72 71.9684 1275.51 72.8596 Q1271.29 73.7508 1266.96 73.7508 Q1256.1 73.7508 1249.74 67.4314 Q1243.42 61.1119 1243.42 50.3365 Q1243.42 39.1965 1249.42 32.6746 Q1255.45 26.1121 1265.66 26.1121 Q1274.82 26.1121 1280.12 32.0264 Q1285.47 37.9003 1285.47 48.0275 M1278.02 45.84 Q1277.94 39.7232 1274.58 36.0774 Q1271.25 32.4315 1265.74 32.4315 Q1259.51 32.4315 1255.74 35.9558 Q1252.01 39.4801 1251.44 45.8805 L1278.02 45.84 Z" fill="#000000" fill-rule="nonzero" fill-opacity="1"></path><path clip-path="url(#clip740)" d="M1330.27 49.9314 Q1330.27 41.7081 1326.87 37.0496 Q1323.51 32.3505 1317.6 32.3505 Q1311.68 32.3505 1308.28 37.0496 Q1304.92 41.7081 1304.92 49.9314 Q1304.92 58.1548 1308.28 62.8538 Q1311.68 67.5124 1317.6 67.5124 Q1323.51 67.5124 1326.87 62.8538 Q1330.27 58.1548 1330.27 49.9314 M1304.92 34.0924 Q1307.27 30.0415 1310.83 28.0971 Q1314.44 26.1121 1319.42 26.1121 Q1327.68 26.1121 1332.83 32.6746 Q1338.01 39.2371 1338.01 49.9314 Q1338.01 60.6258 1332.83 67.1883 Q1327.68 73.7508 1319.42 73.7508 Q1314.44 73.7508 1310.83 71.8063 Q1307.27 69.8214 1304.92 65.7705 L1304.92 72.576 L1297.42 72.576 L1297.42 9.54393 L1304.92 9.54393 L1304.92 34.0924 Z" fill="#000000" fill-rule="nonzero" fill-opacity="1"></path><path clip-path="url(#clip740)" d="M1376.66 34.1734 Q1375.4 33.4443 1373.9 33.1202 Q1372.44 32.7556 1370.66 32.7556 Q1364.34 32.7556 1360.94 36.8875 Q1357.58 40.9789 1357.58 48.6757 L1357.58 72.576 L1350.08 72.576 L1350.08 27.2059 L1357.58 27.2059 L1357.58 34.2544 Q1359.93 30.1225 1363.69 28.1376 Q1367.46 26.1121 1372.85 26.1121 Q1373.62 26.1121 1374.55 26.2337 Q1375.48 26.3147 1376.62 26.5172 L1376.66 34.1734 Z" fill="#000000" fill-rule="nonzero" fill-opacity="1"></path><path clip-path="url(#clip740)" d="M1400.23 32.4315 Q1394.24 32.4315 1390.75 37.1306 Q1387.27 41.7891 1387.27 49.9314 Q1387.27 58.0738 1390.71 62.7728 Q1394.2 67.4314 1400.23 67.4314 Q1406.19 67.4314 1409.67 62.7323 Q1413.16 58.0333 1413.16 49.9314 Q1413.16 41.8701 1409.67 37.1711 Q1406.19 32.4315 1400.23 32.4315 M1400.23 26.1121 Q1409.96 26.1121 1415.51 32.4315 Q1421.06 38.7509 1421.06 49.9314 Q1421.06 61.0714 1415.51 67.4314 Q1409.96 73.7508 1400.23 73.7508 Q1390.47 73.7508 1384.92 67.4314 Q1379.41 61.0714 1379.41 49.9314 Q1379.41 38.7509 1384.92 32.4315 Q1390.47 26.1121 1400.23 26.1121 Z" fill="#000000" fill-rule="nonzero" fill-opacity="1"></path><path clip-path="url(#clip740)" d="M1432.64 54.671 L1432.64 27.2059 L1440.09 27.2059 L1440.09 54.3874 Q1440.09 60.8284 1442.61 64.0691 Q1445.12 67.2693 1450.14 67.2693 Q1456.18 67.2693 1459.66 63.421 Q1463.19 59.5726 1463.19 52.9291 L1463.19 27.2059 L1470.64 27.2059 L1470.64 72.576 L1463.19 72.576 L1463.19 65.6084 Q1460.47 69.7404 1456.87 71.7658 Q1453.3 73.7508 1448.56 73.7508 Q1440.74 73.7508 1436.69 68.8897 Q1432.64 64.0286 1432.64 54.671 M1451.4 26.1121 L1451.4 26.1121 Z" fill="#000000" fill-rule="nonzero" fill-opacity="1"></path><path clip-path="url(#clip740)" d="M1485.99 9.54393 L1493.45 9.54393 L1493.45 72.576 L1485.99 72.576 L1485.99 9.54393 Z" fill="#000000" fill-rule="nonzero" fill-opacity="1"></path><path clip-path="url(#clip740)" d="M1529.66 49.7694 Q1520.63 49.7694 1517.14 51.8354 Q1513.66 53.9013 1513.66 58.8839 Q1513.66 62.8538 1516.25 65.2034 Q1518.89 67.5124 1523.38 67.5124 Q1529.58 67.5124 1533.31 63.1374 Q1537.07 58.7219 1537.07 51.4303 L1537.07 49.7694 L1529.66 49.7694 M1544.53 46.6907 L1544.53 72.576 L1537.07 72.576 L1537.07 65.6895 Q1534.52 69.8214 1530.71 71.8063 Q1526.91 73.7508 1521.4 73.7508 Q1514.43 73.7508 1510.3 69.8619 Q1506.21 65.9325 1506.21 59.3701 Q1506.21 51.7138 1511.31 47.825 Q1516.45 43.9361 1526.62 43.9361 L1537.07 43.9361 L1537.07 43.2069 Q1537.07 38.0623 1533.67 35.2672 Q1530.31 32.4315 1524.19 32.4315 Q1520.3 32.4315 1516.62 33.3632 Q1512.93 34.295 1509.53 36.1584 L1509.53 29.2718 Q1513.62 27.692 1517.47 26.9223 Q1521.32 26.1121 1524.96 26.1121 Q1534.81 26.1121 1539.67 31.2163 Q1544.53 36.3204 1544.53 46.6907 Z" fill="#000000" fill-rule="nonzero" fill-opacity="1"></path><path clip-path="url(#clip740)" d="M1556.64 27.2059 L1592.04 27.2059 L1592.04 34.0114 L1564.01 66.6212 L1592.04 66.6212 L1592.04 72.576 L1555.63 72.576 L1555.63 65.7705 L1583.66 33.1607 L1556.64 33.1607 L1556.64 27.2059 Z" fill="#000000" fill-rule="nonzero" fill-opacity="1"></path><path clip-path="url(#clip740)" d="M1647.7 9.62495 Q1642.28 18.942 1639.64 28.0566 Q1637.01 37.1711 1637.01 46.5287 Q1637.01 55.8863 1639.64 65.0818 Q1642.32 74.2369 1647.7 83.5134 L1641.22 83.5134 Q1635.15 73.9938 1632.11 64.7983 Q1629.11 55.6027 1629.11 46.5287 Q1629.11 37.4952 1632.11 28.3401 Q1635.11 19.1851 1641.22 9.62495 L1647.7 9.62495 Z" fill="#000000" fill-rule="nonzero" fill-opacity="1"></path><path clip-path="url(#clip740)" d="M1685.13 9.54393 L1685.13 15.7418 L1678 15.7418 Q1673.99 15.7418 1672.41 17.3622 Q1670.87 18.9825 1670.87 23.1955 L1670.87 27.2059 L1683.15 27.2059 L1683.15 32.9987 L1670.87 32.9987 L1670.87 72.576 L1663.38 72.576 L1663.38 32.9987 L1656.25 32.9987 L1656.25 27.2059 L1663.38 27.2059 L1663.38 24.0462 Q1663.38 16.471 1666.91 13.0277 Q1670.43 9.54393 1678.09 9.54393 L1685.13 9.54393 Z" fill="#000000" fill-rule="nonzero" fill-opacity="1"></path><path clip-path="url(#clip740)" d="M1708.95 32.4315 Q1702.96 32.4315 1699.47 37.1306 Q1695.99 41.7891 1695.99 49.9314 Q1695.99 58.0738 1699.43 62.7728 Q1702.92 67.4314 1708.95 67.4314 Q1714.91 67.4314 1718.39 62.7323 Q1721.88 58.0333 1721.88 49.9314 Q1721.88 41.8701 1718.39 37.1711 Q1714.91 32.4315 1708.95 32.4315 M1708.95 26.1121 Q1718.68 26.1121 1724.23 32.4315 Q1729.78 38.7509 1729.78 49.9314 Q1729.78 61.0714 1724.23 67.4314 Q1718.68 73.7508 1708.95 73.7508 Q1699.19 73.7508 1693.64 67.4314 Q1688.13 61.0714 1688.13 49.9314 Q1688.13 38.7509 1693.64 32.4315 Q1699.19 26.1121 1708.95 26.1121 Z" fill="#000000" fill-rule="nonzero" fill-opacity="1"></path><path clip-path="url(#clip740)" d="M1768.42 34.1734 Q1767.16 33.4443 1765.67 33.1202 Q1764.21 32.7556 1762.43 32.7556 Q1756.11 32.7556 1752.7 36.8875 Q1749.34 40.9789 1749.34 48.6757 L1749.34 72.576 L1741.85 72.576 L1741.85 27.2059 L1749.34 27.2059 L1749.34 34.2544 Q1751.69 30.1225 1755.46 28.1376 Q1759.23 26.1121 1764.61 26.1121 Q1765.38 26.1121 1766.31 26.2337 Q1767.25 26.3147 1768.38 26.5172 L1768.42 34.1734 Z" fill="#000000" fill-rule="nonzero" fill-opacity="1"></path><path clip-path="url(#clip740)" d="M1805.08 65.6895 L1818.45 65.6895 L1818.45 19.5497 L1803.91 22.4663 L1803.91 15.0127 L1818.37 12.096 L1826.55 12.096 L1826.55 65.6895 L1839.92 65.6895 L1839.92 72.576 L1805.08 72.576 L1805.08 65.6895 Z" fill="#000000" fill-rule="nonzero" fill-opacity="1"></path><path clip-path="url(#clip740)" d="M1873.95 17.4837 Q1867.63 17.4837 1864.43 23.7221 Q1861.27 29.92 1861.27 42.3968 Q1861.27 54.833 1864.43 61.0714 Q1867.63 67.2693 1873.95 67.2693 Q1880.31 67.2693 1883.47 61.0714 Q1886.67 54.833 1886.67 42.3968 Q1886.67 29.92 1883.47 23.7221 Q1880.31 17.4837 1873.95 17.4837 M1873.95 11.0023 Q1884.11 11.0023 1889.46 19.0636 Q1894.85 27.0843 1894.85 42.3968 Q1894.85 57.6687 1889.46 65.73 Q1884.11 73.7508 1873.95 73.7508 Q1863.78 73.7508 1858.39 65.73 Q1853.04 57.6687 1853.04 42.3968 Q1853.04 27.0843 1858.39 19.0636 Q1863.78 11.0023 1873.95 11.0023 Z" fill="#000000" fill-rule="nonzero" fill-opacity="1"></path><path clip-path="url(#clip740)" d="M1926.73 17.4837 Q1920.41 17.4837 1917.21 23.7221 Q1914.05 29.92 1914.05 42.3968 Q1914.05 54.833 1917.21 61.0714 Q1920.41 67.2693 1926.73 67.2693 Q1933.09 67.2693 1936.25 61.0714 Q1939.45 54.833 1939.45 42.3968 Q1939.45 29.92 1936.25 23.7221 Q1933.09 17.4837 1926.73 17.4837 M1926.73 11.0023 Q1936.9 11.0023 1942.25 19.0636 Q1947.63 27.0843 1947.63 42.3968 Q1947.63 57.6687 1942.25 65.73 Q1936.9 73.7508 1926.73 73.7508 Q1916.56 73.7508 1911.17 65.73 Q1905.83 57.6687 1905.83 42.3968 Q1905.83 27.0843 1911.17 19.0636 Q1916.56 11.0023 1926.73 11.0023 Z" fill="#000000" fill-rule="nonzero" fill-opacity="1"></path><path clip-path="url(#clip740)" d="M1962.01 62.2867 L1970.56 62.2867 L1970.56 72.576 L1962.01 72.576 L1962.01 62.2867 Z" fill="#000000" fill-rule="nonzero" fill-opacity="1"></path><path clip-path="url(#clip740)" d="M2005.88 17.4837 Q1999.57 17.4837 1996.37 23.7221 Q1993.21 29.92 1993.21 42.3968 Q1993.21 54.833 1996.37 61.0714 Q1999.57 67.2693 2005.88 67.2693 Q2012.24 67.2693 2015.4 61.0714 Q2018.6 54.833 2018.6 42.3968 Q2018.6 29.92 2015.4 23.7221 Q2012.24 17.4837 2005.88 17.4837 M2005.88 11.0023 Q2016.05 11.0023 2021.4 19.0636 Q2026.79 27.0843 2026.79 42.3968 Q2026.79 57.6687 2021.4 65.73 Q2016.05 73.7508 2005.88 73.7508 Q1995.72 73.7508 1990.33 65.73 Q1984.98 57.6687 1984.98 42.3968 Q1984.98 27.0843 1990.33 19.0636 Q1995.72 11.0023 2005.88 11.0023 Z" fill="#000000" fill-rule="nonzero" fill-opacity="1"></path><path clip-path="url(#clip740)" d="M2085.36 76.7889 Q2082.2 84.8907 2079.21 87.3618 Q2076.21 89.8329 2071.19 89.8329 L2065.23 89.8329 L2065.23 83.5945 L2069.61 83.5945 Q2072.68 83.5945 2074.39 82.1361 Q2076.09 80.6778 2078.15 75.2496 L2079.49 71.8468 L2061.14 27.2059 L2069.04 27.2059 L2083.22 62.6918 L2097.39 27.2059 L2105.29 27.2059 L2085.36 76.7889 Z" fill="#000000" fill-rule="nonzero" fill-opacity="1"></path><path clip-path="url(#clip740)" d="M2154.39 48.0275 L2154.39 51.6733 L2120.12 51.6733 Q2120.61 59.3701 2124.74 63.421 Q2128.91 67.4314 2136.32 67.4314 Q2140.62 67.4314 2144.63 66.3781 Q2148.68 65.3249 2152.65 63.2184 L2152.65 70.267 Q2148.64 71.9684 2144.43 72.8596 Q2140.21 73.7508 2135.88 73.7508 Q2125.02 73.7508 2118.66 67.4314 Q2112.34 61.1119 2112.34 50.3365 Q2112.34 39.1965 2118.34 32.6746 Q2124.37 26.1121 2134.58 26.1121 Q2143.74 26.1121 2149.04 32.0264 Q2154.39 37.9003 2154.39 48.0275 M2146.94 45.84 Q2146.86 39.7232 2143.49 36.0774 Q2140.17 32.4315 2134.66 32.4315 Q2128.42 32.4315 2124.66 35.9558 Q2120.93 39.4801 2120.36 45.8805 L2146.94 45.84 Z" fill="#000000" fill-rule="nonzero" fill-opacity="1"></path><path clip-path="url(#clip740)" d="M2187.24 49.7694 Q2178.21 49.7694 2174.73 51.8354 Q2171.24 53.9013 2171.24 58.8839 Q2171.24 62.8538 2173.84 65.2034 Q2176.47 67.5124 2180.96 67.5124 Q2187.16 67.5124 2190.89 63.1374 Q2194.66 58.7219 2194.66 51.4303 L2194.66 49.7694 L2187.24 49.7694 M2202.11 46.6907 L2202.11 72.576 L2194.66 72.576 L2194.66 65.6895 Q2192.1 69.8214 2188.3 71.8063 Q2184.49 73.7508 2178.98 73.7508 Q2172.01 73.7508 2167.88 69.8619 Q2163.79 65.9325 2163.79 59.3701 Q2163.79 51.7138 2168.89 47.825 Q2174.04 43.9361 2184.21 43.9361 L2194.66 43.9361 L2194.66 43.2069 Q2194.66 38.0623 2191.25 35.2672 Q2187.89 32.4315 2181.78 32.4315 Q2177.89 32.4315 2174.2 33.3632 Q2170.51 34.295 2167.11 36.1584 L2167.11 29.2718 Q2171.2 27.692 2175.05 26.9223 Q2178.9 26.1121 2182.54 26.1121 Q2192.39 26.1121 2197.25 31.2163 Q2202.11 36.3204 2202.11 46.6907 Z" fill="#000000" fill-rule="nonzero" fill-opacity="1"></path><path clip-path="url(#clip740)" d="M2243.75 34.1734 Q2242.5 33.4443 2241 33.1202 Q2239.54 32.7556 2237.76 32.7556 Q2231.44 32.7556 2228.04 36.8875 Q2224.67 40.9789 2224.67 48.6757 L2224.67 72.576 L2217.18 72.576 L2217.18 27.2059 L2224.67 27.2059 L2224.67 34.2544 Q2227.02 30.1225 2230.79 28.1376 Q2234.56 26.1121 2239.95 26.1121 Q2240.72 26.1121 2241.65 26.2337 Q2242.58 26.3147 2243.71 26.5172 L2243.75 34.1734 Z" fill="#000000" fill-rule="nonzero" fill-opacity="1"></path><path clip-path="url(#clip740)" d="M2280.5 28.5427 L2280.5 35.5912 Q2277.34 33.9709 2273.93 33.1607 Q2270.53 32.3505 2266.88 32.3505 Q2261.33 32.3505 2258.54 34.0519 Q2255.79 35.7533 2255.79 39.156 Q2255.79 41.7486 2257.77 43.2475 Q2259.75 44.7058 2265.75 46.0426 L2268.3 46.6097 Q2276.24 48.3111 2279.56 51.4303 Q2282.93 54.509 2282.93 60.0587 Q2282.93 66.3781 2277.9 70.0644 Q2272.92 73.7508 2264.17 73.7508 Q2260.52 73.7508 2256.55 73.0216 Q2252.63 72.3329 2248.25 70.9151 L2248.25 63.2184 Q2252.38 65.3654 2256.39 66.4591 Q2260.4 67.5124 2264.33 67.5124 Q2269.6 67.5124 2272.43 65.73 Q2275.27 63.9071 2275.27 60.6258 Q2275.27 57.5877 2273.2 55.9673 Q2271.18 54.3469 2264.25 52.8481 L2261.66 52.2405 Q2254.73 50.7821 2251.65 47.7845 Q2248.57 44.7463 2248.57 39.4801 Q2248.57 33.0797 2253.11 29.5959 Q2257.65 26.1121 2265.99 26.1121 Q2270.13 26.1121 2273.77 26.7198 Q2277.42 27.3274 2280.5 28.5427 Z" fill="#000000" fill-rule="nonzero" fill-opacity="1"></path><path clip-path="url(#clip740)" d="M2293.62 9.62495 L2300.1 9.62495 Q2306.18 19.1851 2309.18 28.3401 Q2312.21 37.4952 2312.21 46.5287 Q2312.21 55.6027 2309.18 64.7983 Q2306.18 73.9938 2300.1 83.5134 L2293.62 83.5134 Q2299.01 74.2369 2301.64 65.0818 Q2304.31 55.8863 2304.31 46.5287 Q2304.31 37.1711 2301.64 28.0566 Q2299.01 18.942 2293.62 9.62495 Z" fill="#000000" fill-rule="nonzero" fill-opacity="1"></path><polyline clip-path="url(#clip742)" style="stroke:#a52a2a; stroke-linecap:round; stroke-linejoin:round; stroke-width:4; stroke-opacity:1; fill:none" points="323.395,228.427 344.811,243.67 366.227,242.955 387.642,250.642 409.058,264.066 430.474,283.612 451.89,311.272 473.306,341.59 494.721,372.772 516.137,402.228 537.553,429.727 558.969,459.172 580.384,486.247 601.8,513.245 623.216,541.175 644.632,568.537 666.048,595.308 687.463,621.41 708.879,645.329 730.295,669.072 751.711,688.461 773.127,702.642 794.542,717.645 815.958,738.939 837.374,759.411 858.79,776.553 880.206,798.338 901.621,821.625 923.037,843.83 944.453,864.941 965.869,877.42 987.285,879.58 1008.7,885.113 1030.12,897.716 1051.53,918.209 1072.95,936.202 1094.36,943.64 1115.78,945.133 1137.2,949.435 1158.61,958.699 1180.03,966.955 1201.44,976.287 1222.86,984.506 1244.27,991.905 1265.69,998.954 1287.11,993.522 1308.52,994.571 1329.94,998.79 1351.35,994.312 1372.77,1000.83 1394.18,1005.44 1415.6,1011.84 1437.02,1018.6 1458.43,1026.88 1479.85,1038.33 1501.26,1053.3 1522.68,1071.13 1544.1,1090.63 1565.51,1110.36 1586.93,1128.75 1608.34,1144.68 1629.76,1158.38 1651.17,1171.73 1672.59,1186.63 1694.01,1203.48 1715.42,1221.16 1736.84,1238.02 1758.25,1253.24 1779.67,1267.51 1801.08,1281.71 1822.5,1294.88 1843.92,1305.41 1865.33,1314.22 1886.75,1323.3 1908.16,1331.92 1929.58,1337.86 1951,1341.71 1972.41,1346.39 1993.83,1353.88 2015.24,1364.62 2036.66,1378.04 2058.07,1392.63 2079.49,1406.78 2100.91,1419.34 2122.32,1429.78 2143.74,1437.37 2165.15,1441.78 2186.57,1443.79 2207.99,1444.89 2229.4,1446.02 2250.82,1447.12 2272.23,1447.73 2293.65,1447.87 "></polyline>
<polyline clip-path="url(#clip742)" style="stroke:#0000ff; stroke-linecap:round; stroke-linejoin:round; stroke-width:4; stroke-opacity:1; fill:none" points="323.395,163.648 344.811,172.377 366.227,182.667 387.642,197.391 409.058,216.362 430.474,240.699 451.89,269.187 473.306,299.754 494.721,329.195 516.137,356.72 537.553,384.442 558.969,411.508 580.384,437.973 601.8,465.028 623.216,491.91 644.632,517.665 666.048,541.661 687.463,563.633 708.879,584.361 730.295,603.418 751.711,621.493 773.127,640.476 794.542,661.635 815.958,684.19 837.374,705.637 858.79,727.91 880.206,752.311 901.621,776.264 923.037,801.101 944.453,827.195 965.869,861.444 987.285,879.58 1008.7,885.113 1030.12,897.716 1051.53,918.209 1072.95,936.202 1094.36,943.64 1115.78,945.133 1137.2,949.435 1158.61,958.699 1180.03,966.955 1201.44,976.287 1222.86,984.506 1244.27,991.905 1265.69,998.954 1287.11,993.522 1308.52,994.571 1329.94,998.79 1351.35,994.312 1372.77,1000.83 1394.18,1005.44 1415.6,1011.84 1437.02,1018.6 1458.43,1026.88 1479.85,1038.33 1501.26,1053.3 1522.68,1071.13 1544.1,1090.63 1565.51,1110.36 1586.93,1128.75 1608.34,1144.68 1629.76,1158.38 1651.17,1171.73 1672.59,1186.63 1694.01,1203.48 1715.42,1221.16 1736.84,1238.02 1758.25,1253.24 1779.67,1267.51 1801.08,1281.71 1822.5,1294.88 1843.92,1305.41 1865.33,1314.22 1886.75,1323.3 1908.16,1331.92 1929.58,1337.86 1951,1341.71 1972.41,1346.39 1993.83,1353.88 2015.24,1364.62 2036.66,1378.04 2058.07,1392.63 2079.49,1406.78 2100.91,1419.34 2122.32,1429.78 2143.74,1437.37 2165.15,1441.78 2186.57,1443.79 2207.99,1444.89 2229.4,1446.02 2250.82,1447.12 2272.23,1447.73 2293.65,1447.87 "></polyline>
<polyline clip-path="url(#clip742)" style="stroke:#ff0000; stroke-linecap:round; stroke-linejoin:round; stroke-width:4; stroke-opacity:1; fill:none" points="323.395,164.709 344.811,173.421 366.227,183.701 387.642,198.397 409.058,217.337 430.474,241.606 451.89,269.988 473.306,300.418 494.721,329.736 516.137,357.176 537.553,384.803 558.969,411.775 580.384,438.147 601.8,465.101 623.216,491.88 644.632,517.532 666.048,541.426 687.463,563.298 708.879,583.93 730.295,602.898 751.711,620.882 773.127,639.747 794.542,660.765 815.958,683.157 837.374,704.422 858.79,726.482 880.206,750.618 901.621,774.233 923.037,798.689 944.453,824.037 965.869,856.993 987.285,879.536 1008.7,885.113 1030.12,897.716 1051.53,918.209 1072.95,936.202 1094.36,943.64 1115.78,945.133 1137.2,949.435 1158.61,958.699 1180.03,966.955 1201.44,976.287 1222.86,984.506 1244.27,991.905 1265.69,998.954 1287.11,993.522 1308.52,994.571 1329.94,998.79 1351.35,994.312 1372.77,1000.83 1394.18,1005.44 1415.6,1011.84 1437.02,1018.6 1458.43,1026.88 1479.85,1038.33 1501.26,1053.3 1522.68,1071.13 1544.1,1090.63 1565.51,1110.36 1586.93,1128.75 1608.34,1144.68 1629.76,1158.38 1651.17,1171.73 1672.59,1186.63 1694.01,1203.48 1715.42,1221.16 1736.84,1238.02 1758.25,1253.24 1779.67,1267.51 1801.08,1281.71 1822.5,1294.88 1843.92,1305.41 1865.33,1314.22 1886.75,1323.3 1908.16,1331.92 1929.58,1337.86 1951,1341.71 1972.41,1346.39 1993.83,1353.88 2015.24,1364.62 2036.66,1378.04 2058.07,1392.63 2079.49,1406.78 2100.91,1419.34 2122.32,1429.78 2143.74,1437.37 2165.15,1441.78 2186.57,1443.79 2207.99,1444.89 2229.4,1446.02 2250.82,1447.12 2272.23,1447.73 2293.65,1447.87 "></polyline>
<polyline clip-path="url(#clip742)" style="stroke:#008000; stroke-linecap:round; stroke-linejoin:round; stroke-width:4; stroke-opacity:1; fill:none" points="323.395,162.047 344.811,171.17 366.227,180.293 387.642,195.997 409.058,214.407 430.474,238.718 451.89,267.085 473.306,297.424 494.721,326.879 516.137,353.823 537.553,381.231 558.969,408.128 580.384,434.034 601.8,460.76 623.216,487.192 644.632,512.227 666.048,535.521 687.463,556.579 708.879,576.539 730.295,595.328 751.711,612.616 773.127,631.548 794.542,651.446 815.958,672.832 837.374,691.762 858.79,710.255 880.206,729.165 901.621,744.321 923.037,758.128 944.453,769.906 965.869,779.766 987.285,789.627 1008.7,801.249 1030.12,813.39 1051.53,824.686 1072.95,833.089 1094.36,841.493 1115.78,850.191 1137.2,860.774 1158.61,871.358 1180.03,882.009 1201.44,893.061 1222.86,904.112 1244.27,916.055 1265.69,928.467 1287.11,941.938 1308.52,957.605 1329.94,971.753 1351.35,984.533 1372.77,1000.83 1394.18,1005.44 1415.6,1011.84 1437.02,1018.6 1458.43,1026.88 1479.85,1038.33 1501.26,1053.3 1522.68,1071.13 1544.1,1090.63 1565.51,1110.36 1586.93,1128.75 1608.34,1144.68 1629.76,1158.38 1651.17,1171.73 1672.59,1186.63 1694.01,1203.48 1715.42,1221.16 1736.84,1238.02 1758.25,1253.24 1779.67,1267.51 1801.08,1281.71 1822.5,1294.88 1843.92,1305.41 1865.33,1314.22 1886.75,1323.3 1908.16,1331.92 1929.58,1337.86 1951,1341.71 1972.41,1346.39 1993.83,1353.88 2015.24,1364.62 2036.66,1378.04 2058.07,1392.63 2079.49,1406.78 2100.91,1419.34 2122.32,1429.78 2143.74,1437.37 2165.15,1441.78 2186.57,1443.79 2207.99,1444.89 2229.4,1446.02 2250.82,1447.12 2272.23,1447.73 2293.65,1447.87 "></polyline>
<polyline clip-path="url(#clip742)" style="stroke:#000000; stroke-linecap:round; stroke-linejoin:round; stroke-width:4; stroke-opacity:1; fill:none" stroke-dasharray="16, 10" points="323.395,170.211 344.811,177.459 366.227,187.014 387.642,200.928 409.058,219.575 430.474,243.342 451.89,271.639 473.306,301.748 494.721,330.73 516.137,358.41 537.553,385.801 558.969,412.666 580.384,439.233 601.8,466.197 623.216,492.945 644.632,518.541 666.048,542.341 687.463,564.259 708.879,584.731 730.295,603.713 751.711,622.031 773.127,641.307 794.542,662.495 815.958,684.671 837.374,706.431 858.79,729.258 880.206,753.854 901.621,778.752 923.037,804.309 944.453,852.899 965.869,877.42 987.285,879.58 1008.7,885.113 1030.12,897.716 1051.53,918.209 1072.95,936.202 1094.36,943.64 1115.78,945.133 1137.2,949.435 1158.61,958.699 1180.03,966.955 1201.44,976.287 1222.86,984.506 1244.27,991.905 1265.69,998.954 1287.11,993.522 1308.52,994.571 1329.94,998.79 1351.35,994.312 1372.77,1000.83 1394.18,1005.44 1415.6,1011.84 1437.02,1018.6 1458.43,1026.88 1479.85,1038.33 1501.26,1053.3 1522.68,1071.13 1544.1,1090.63 1565.51,1110.36 1586.93,1128.75 1608.34,1144.68 1629.76,1158.38 1651.17,1171.73 1672.59,1186.63 1694.01,1203.48 1715.42,1221.16 1736.84,1238.02 1758.25,1253.24 1779.67,1267.51 1801.08,1281.71 1822.5,1294.88 1843.92,1305.41 1865.33,1314.22 1886.75,1323.3 1908.16,1331.92 1929.58,1337.86 1951,1341.71 1972.41,1346.39 1993.83,1353.88 2015.24,1364.62 2036.66,1378.04 2058.07,1392.63 2079.49,1406.78 2100.91,1419.34 2122.32,1429.78 2143.74,1437.37 2165.15,1441.78 2186.57,1443.79 2207.99,1444.89 2229.4,1446.02 2250.82,1447.12 2272.23,1447.73 2293.65,1447.87 "></polyline>
<path clip-path="url(#clip740)" d="M1729.57 479.945 L2283.14 479.945 L2283.14 168.905 L1729.57 168.905  Z" fill="#f8f8ff" fill-rule="evenodd" fill-opacity="1"></path>
<polyline clip-path="url(#clip740)" style="stroke:#000000; stroke-linecap:round; stroke-linejoin:round; stroke-width:4; stroke-opacity:1; fill:none" points="1729.57,479.945 2283.14,479.945 2283.14,168.905 1729.57,168.905 1729.57,479.945 "></polyline>
<polyline clip-path="url(#clip740)" style="stroke:#a52a2a; stroke-linecap:round; stroke-linejoin:round; stroke-width:4; stroke-opacity:1; fill:none" points="1752.78,220.745 1892.01,220.745 "></polyline>
<path clip-path="url(#clip740)" d="M1933.99 225.085 Q1933.99 220.386 1932.04 217.724 Q1930.12 215.039 1926.74 215.039 Q1923.36 215.039 1921.42 217.724 Q1919.5 220.386 1919.5 225.085 Q1919.5 229.784 1921.42 232.469 Q1923.36 235.131 1926.74 235.131 Q1930.12 235.131 1932.04 232.469 Q1933.99 229.784 1933.99 225.085 M1919.5 216.034 Q1920.84 213.719 1922.88 212.608 Q1924.94 211.474 1927.78 211.474 Q1932.51 211.474 1935.45 215.224 Q1938.41 218.974 1938.41 225.085 Q1938.41 231.196 1935.45 234.946 Q1932.51 238.696 1927.78 238.696 Q1924.94 238.696 1922.88 237.585 Q1920.84 236.451 1919.5 234.136 L1919.5 238.025 L1915.21 238.025 L1915.21 202.006 L1919.5 202.006 L1919.5 216.034 Z" fill="#000000" fill-rule="nonzero" fill-opacity="1"></path><path clip-path="url(#clip740)" d="M1967.64 223.997 L1967.64 226.08 L1948.06 226.08 Q1948.34 230.478 1950.7 232.793 Q1953.08 235.085 1957.32 235.085 Q1959.77 235.085 1962.07 234.483 Q1964.38 233.881 1966.65 232.677 L1966.65 236.705 Q1964.36 237.677 1961.95 238.187 Q1959.54 238.696 1957.07 238.696 Q1950.86 238.696 1947.23 235.085 Q1943.62 231.474 1943.62 225.316 Q1943.62 218.951 1947.04 215.224 Q1950.49 211.474 1956.33 211.474 Q1961.56 211.474 1964.59 214.853 Q1967.64 218.21 1967.64 223.997 M1963.39 222.747 Q1963.34 219.252 1961.42 217.168 Q1959.52 215.085 1956.37 215.085 Q1952.81 215.085 1950.65 217.099 Q1948.52 219.113 1948.2 222.77 L1963.39 222.747 Z" fill="#000000" fill-rule="nonzero" fill-opacity="1"></path><path clip-path="url(#clip740)" d="M1991.7 216.034 L1991.7 202.006 L1995.96 202.006 L1995.96 238.025 L1991.7 238.025 L1991.7 234.136 Q1990.35 236.451 1988.29 237.585 Q1986.26 238.696 1983.39 238.696 Q1978.69 238.696 1975.72 234.946 Q1972.78 231.196 1972.78 225.085 Q1972.78 218.974 1975.72 215.224 Q1978.69 211.474 1983.39 211.474 Q1986.26 211.474 1988.29 212.608 Q1990.35 213.719 1991.7 216.034 M1977.18 225.085 Q1977.18 229.784 1979.1 232.469 Q1981.05 235.131 1984.43 235.131 Q1987.81 235.131 1989.75 232.469 Q1991.7 229.784 1991.7 225.085 Q1991.7 220.386 1989.75 217.724 Q1987.81 215.039 1984.43 215.039 Q1981.05 215.039 1979.1 217.724 Q1977.18 220.386 1977.18 225.085 Z" fill="#000000" fill-rule="nonzero" fill-opacity="1"></path><polyline clip-path="url(#clip740)" style="stroke:#0000ff; stroke-linecap:round; stroke-linejoin:round; stroke-width:4; stroke-opacity:1; fill:none" points="1752.78,272.585 1892.01,272.585 "></polyline>
<path clip-path="url(#clip740)" d="M1933.64 264.703 L1933.64 268.731 Q1931.83 267.805 1929.89 267.342 Q1927.95 266.879 1925.86 266.879 Q1922.69 266.879 1921.09 267.851 Q1919.52 268.823 1919.52 270.768 Q1919.52 272.249 1920.65 273.105 Q1921.79 273.939 1925.21 274.703 L1926.67 275.027 Q1931.21 275.999 1933.11 277.781 Q1935.03 279.541 1935.03 282.712 Q1935.03 286.323 1932.16 288.429 Q1929.31 290.536 1924.31 290.536 Q1922.23 290.536 1919.96 290.119 Q1917.71 289.726 1915.21 288.916 L1915.21 284.517 Q1917.58 285.744 1919.87 286.369 Q1922.16 286.971 1924.4 286.971 Q1927.41 286.971 1929.03 285.953 Q1930.65 284.911 1930.65 283.036 Q1930.65 281.3 1929.47 280.374 Q1928.32 279.448 1924.36 278.592 L1922.88 278.244 Q1918.92 277.411 1917.16 275.698 Q1915.4 273.962 1915.4 270.953 Q1915.4 267.295 1917.99 265.305 Q1920.59 263.314 1925.35 263.314 Q1927.71 263.314 1929.8 263.661 Q1931.88 264.008 1933.64 264.703 Z" fill="#000000" fill-rule="nonzero" fill-opacity="1"></path><path clip-path="url(#clip740)" d="M1941.37 279.633 L1941.37 263.939 L1945.63 263.939 L1945.63 279.471 Q1945.63 283.152 1947.07 285.004 Q1948.5 286.832 1951.37 286.832 Q1954.82 286.832 1956.81 284.633 Q1958.83 282.434 1958.83 278.638 L1958.83 263.939 L1963.08 263.939 L1963.08 289.865 L1958.83 289.865 L1958.83 285.883 Q1957.27 288.244 1955.21 289.402 Q1953.18 290.536 1950.47 290.536 Q1946 290.536 1943.69 287.758 Q1941.37 284.98 1941.37 279.633 M1952.09 263.314 L1952.09 263.314 Z" fill="#000000" fill-rule="nonzero" fill-opacity="1"></path><path clip-path="url(#clip740)" d="M1986.88 267.92 Q1986.16 267.504 1985.31 267.318 Q1984.47 267.11 1983.46 267.11 Q1979.84 267.11 1977.9 269.471 Q1975.98 271.809 1975.98 276.207 L1975.98 289.865 L1971.7 289.865 L1971.7 263.939 L1975.98 263.939 L1975.98 267.967 Q1977.32 265.606 1979.47 264.471 Q1981.63 263.314 1984.71 263.314 Q1985.14 263.314 1985.68 263.383 Q1986.21 263.43 1986.86 263.545 L1986.88 267.92 Z" fill="#000000" fill-rule="nonzero" fill-opacity="1"></path><path clip-path="url(#clip740)" d="M2004.47 253.846 L2004.47 257.388 L2000.4 257.388 Q1998.11 257.388 1997.21 258.314 Q1996.33 259.24 1996.33 261.647 L1996.33 263.939 L2003.34 263.939 L2003.34 267.249 L1996.33 267.249 L1996.33 289.865 L1992.04 289.865 L1992.04 267.249 L1987.97 267.249 L1987.97 263.939 L1992.04 263.939 L1992.04 262.133 Q1992.04 257.805 1994.06 255.837 Q1996.07 253.846 2000.45 253.846 L2004.47 253.846 Z" fill="#000000" fill-rule="nonzero" fill-opacity="1"></path><path clip-path="url(#clip740)" d="M2019.82 276.832 Q2014.66 276.832 2012.67 278.013 Q2010.68 279.193 2010.68 282.041 Q2010.68 284.309 2012.16 285.652 Q2013.66 286.971 2016.23 286.971 Q2019.77 286.971 2021.9 284.471 Q2024.06 281.948 2024.06 277.781 L2024.06 276.832 L2019.82 276.832 M2028.32 275.073 L2028.32 289.865 L2024.06 289.865 L2024.06 285.929 Q2022.6 288.291 2020.42 289.425 Q2018.25 290.536 2015.1 290.536 Q2011.12 290.536 2008.76 288.314 Q2006.42 286.068 2006.42 282.318 Q2006.42 277.943 2009.33 275.721 Q2012.27 273.499 2018.08 273.499 L2024.06 273.499 L2024.06 273.082 Q2024.06 270.143 2022.11 268.545 Q2020.19 266.925 2016.7 266.925 Q2014.47 266.925 2012.37 267.457 Q2010.26 267.99 2008.32 269.055 L2008.32 265.119 Q2010.65 264.217 2012.85 263.777 Q2015.05 263.314 2017.14 263.314 Q2022.76 263.314 2025.54 266.231 Q2028.32 269.147 2028.32 275.073 Z" fill="#000000" fill-rule="nonzero" fill-opacity="1"></path><path clip-path="url(#clip740)" d="M2055.75 264.934 L2055.75 268.916 Q2053.94 267.92 2052.11 267.434 Q2050.31 266.925 2048.45 266.925 Q2044.31 266.925 2042.02 269.564 Q2039.73 272.18 2039.73 276.925 Q2039.73 281.67 2042.02 284.309 Q2044.31 286.925 2048.45 286.925 Q2050.31 286.925 2052.11 286.439 Q2053.94 285.929 2055.75 284.934 L2055.75 288.869 Q2053.96 289.703 2052.04 290.119 Q2050.14 290.536 2047.99 290.536 Q2042.14 290.536 2038.69 286.855 Q2035.24 283.175 2035.24 276.925 Q2035.24 270.582 2038.71 266.948 Q2042.2 263.314 2048.27 263.314 Q2050.24 263.314 2052.11 263.731 Q2053.99 264.124 2055.75 264.934 Z" fill="#000000" fill-rule="nonzero" fill-opacity="1"></path><path clip-path="url(#clip740)" d="M2085.33 275.837 L2085.33 277.92 L2065.75 277.92 Q2066.02 282.318 2068.39 284.633 Q2070.77 286.925 2075.01 286.925 Q2077.46 286.925 2079.75 286.323 Q2082.07 285.721 2084.33 284.517 L2084.33 288.545 Q2082.04 289.517 2079.64 290.027 Q2077.23 290.536 2074.75 290.536 Q2068.55 290.536 2064.91 286.925 Q2061.3 283.314 2061.3 277.156 Q2061.3 270.791 2064.73 267.064 Q2068.18 263.314 2074.01 263.314 Q2079.24 263.314 2082.27 266.693 Q2085.33 270.05 2085.33 275.837 M2081.07 274.587 Q2081.02 271.092 2079.1 269.008 Q2077.2 266.925 2074.06 266.925 Q2070.49 266.925 2068.34 268.939 Q2066.21 270.953 2065.89 274.61 L2081.07 274.587 Z" fill="#000000" fill-rule="nonzero" fill-opacity="1"></path><path clip-path="url(#clip740)" d="M2123.92 264.703 L2123.92 268.731 Q2122.11 267.805 2120.17 267.342 Q2118.22 266.879 2116.14 266.879 Q2112.97 266.879 2111.37 267.851 Q2109.8 268.823 2109.8 270.768 Q2109.8 272.249 2110.93 273.105 Q2112.07 273.939 2115.49 274.703 L2116.95 275.027 Q2121.49 275.999 2123.38 277.781 Q2125.31 279.541 2125.31 282.712 Q2125.31 286.323 2122.44 288.429 Q2119.59 290.536 2114.59 290.536 Q2112.51 290.536 2110.24 290.119 Q2107.99 289.726 2105.49 288.916 L2105.49 284.517 Q2107.85 285.744 2110.14 286.369 Q2112.44 286.971 2114.68 286.971 Q2117.69 286.971 2119.31 285.953 Q2120.93 284.911 2120.93 283.036 Q2120.93 281.3 2119.75 280.374 Q2118.59 279.448 2114.63 278.592 L2113.15 278.244 Q2109.2 277.411 2107.44 275.698 Q2105.68 273.962 2105.68 270.953 Q2105.68 267.295 2108.27 265.305 Q2110.86 263.314 2115.63 263.314 Q2117.99 263.314 2120.07 263.661 Q2122.16 264.008 2123.92 264.703 Z" fill="#000000" fill-rule="nonzero" fill-opacity="1"></path><path clip-path="url(#clip740)" d="M2142.13 266.925 Q2138.71 266.925 2136.72 269.61 Q2134.73 272.272 2134.73 276.925 Q2134.73 281.578 2136.69 284.263 Q2138.69 286.925 2142.13 286.925 Q2145.54 286.925 2147.53 284.24 Q2149.52 281.555 2149.52 276.925 Q2149.52 272.318 2147.53 269.633 Q2145.54 266.925 2142.13 266.925 M2142.13 263.314 Q2147.69 263.314 2150.86 266.925 Q2154.03 270.536 2154.03 276.925 Q2154.03 283.291 2150.86 286.925 Q2147.69 290.536 2142.13 290.536 Q2136.56 290.536 2133.38 286.925 Q2130.24 283.291 2130.24 276.925 Q2130.24 270.536 2133.38 266.925 Q2136.56 263.314 2142.13 263.314 Z" fill="#000000" fill-rule="nonzero" fill-opacity="1"></path><path clip-path="url(#clip740)" d="M2161.09 253.846 L2165.35 253.846 L2165.35 289.865 L2161.09 289.865 L2161.09 253.846 Z" fill="#000000" fill-rule="nonzero" fill-opacity="1"></path><path clip-path="url(#clip740)" d="M2171.21 263.939 L2175.72 263.939 L2183.82 285.698 L2191.93 263.939 L2196.44 263.939 L2186.72 289.865 L2180.93 289.865 L2171.21 263.939 Z" fill="#000000" fill-rule="nonzero" fill-opacity="1"></path><path clip-path="url(#clip740)" d="M2224.5 275.837 L2224.5 277.92 L2204.91 277.92 Q2205.19 282.318 2207.55 284.633 Q2209.94 286.925 2214.17 286.925 Q2216.63 286.925 2218.92 286.323 Q2221.23 285.721 2223.5 284.517 L2223.5 288.545 Q2221.21 289.517 2218.8 290.027 Q2216.39 290.536 2213.92 290.536 Q2207.71 290.536 2204.08 286.925 Q2200.47 283.314 2200.47 277.156 Q2200.47 270.791 2203.89 267.064 Q2207.34 263.314 2213.18 263.314 Q2218.41 263.314 2221.44 266.693 Q2224.5 270.05 2224.5 275.837 M2220.24 274.587 Q2220.19 271.092 2218.27 269.008 Q2216.37 266.925 2213.22 266.925 Q2209.66 266.925 2207.5 268.939 Q2205.38 270.953 2205.05 274.61 L2220.24 274.587 Z" fill="#000000" fill-rule="nonzero" fill-opacity="1"></path><path clip-path="url(#clip740)" d="M2246.51 267.92 Q2245.79 267.504 2244.94 267.318 Q2244.1 267.11 2243.08 267.11 Q2239.47 267.11 2237.53 269.471 Q2235.61 271.809 2235.61 276.207 L2235.61 289.865 L2231.32 289.865 L2231.32 263.939 L2235.61 263.939 L2235.61 267.967 Q2236.95 265.606 2239.1 264.471 Q2241.25 263.314 2244.33 263.314 Q2244.77 263.314 2245.31 263.383 Q2245.84 263.43 2246.49 263.545 L2246.51 267.92 Z" fill="#000000" fill-rule="nonzero" fill-opacity="1"></path><polyline clip-path="url(#clip740)" style="stroke:#ff0000; stroke-linecap:round; stroke-linejoin:round; stroke-width:4; stroke-opacity:1; fill:none" points="1752.78,324.425 1892.01,324.425 "></polyline>
<path clip-path="url(#clip740)" d="M1933.64 316.543 L1933.64 320.571 Q1931.83 319.645 1929.89 319.182 Q1927.95 318.719 1925.86 318.719 Q1922.69 318.719 1921.09 319.691 Q1919.52 320.663 1919.52 322.608 Q1919.52 324.089 1920.65 324.945 Q1921.79 325.779 1925.21 326.543 L1926.67 326.867 Q1931.21 327.839 1933.11 329.621 Q1935.03 331.381 1935.03 334.552 Q1935.03 338.163 1932.16 340.269 Q1929.31 342.376 1924.31 342.376 Q1922.23 342.376 1919.96 341.959 Q1917.71 341.566 1915.21 340.756 L1915.21 336.357 Q1917.58 337.584 1919.87 338.209 Q1922.16 338.811 1924.4 338.811 Q1927.41 338.811 1929.03 337.793 Q1930.65 336.751 1930.65 334.876 Q1930.65 333.14 1929.47 332.214 Q1928.32 331.288 1924.36 330.432 L1922.88 330.084 Q1918.92 329.251 1917.16 327.538 Q1915.4 325.802 1915.4 322.793 Q1915.4 319.135 1917.99 317.145 Q1920.59 315.154 1925.35 315.154 Q1927.71 315.154 1929.8 315.501 Q1931.88 315.848 1933.64 316.543 Z" fill="#000000" fill-rule="nonzero" fill-opacity="1"></path><path clip-path="url(#clip740)" d="M1941.37 331.473 L1941.37 315.779 L1945.63 315.779 L1945.63 331.311 Q1945.63 334.992 1947.07 336.844 Q1948.5 338.672 1951.37 338.672 Q1954.82 338.672 1956.81 336.473 Q1958.83 334.274 1958.83 330.478 L1958.83 315.779 L1963.08 315.779 L1963.08 341.705 L1958.83 341.705 L1958.83 337.723 Q1957.27 340.084 1955.21 341.242 Q1953.18 342.376 1950.47 342.376 Q1946 342.376 1943.69 339.598 Q1941.37 336.82 1941.37 331.473 M1952.09 315.154 L1952.09 315.154 Z" fill="#000000" fill-rule="nonzero" fill-opacity="1"></path><path clip-path="url(#clip740)" d="M1986.88 319.76 Q1986.16 319.344 1985.31 319.158 Q1984.47 318.95 1983.46 318.95 Q1979.84 318.95 1977.9 321.311 Q1975.98 323.649 1975.98 328.047 L1975.98 341.705 L1971.7 341.705 L1971.7 315.779 L1975.98 315.779 L1975.98 319.807 Q1977.32 317.446 1979.47 316.311 Q1981.63 315.154 1984.71 315.154 Q1985.14 315.154 1985.68 315.223 Q1986.21 315.27 1986.86 315.385 L1986.88 319.76 Z" fill="#000000" fill-rule="nonzero" fill-opacity="1"></path><path clip-path="url(#clip740)" d="M2004.47 305.686 L2004.47 309.228 L2000.4 309.228 Q1998.11 309.228 1997.21 310.154 Q1996.33 311.08 1996.33 313.487 L1996.33 315.779 L2003.34 315.779 L2003.34 319.089 L1996.33 319.089 L1996.33 341.705 L1992.04 341.705 L1992.04 319.089 L1987.97 319.089 L1987.97 315.779 L1992.04 315.779 L1992.04 313.973 Q1992.04 309.645 1994.06 307.677 Q1996.07 305.686 2000.45 305.686 L2004.47 305.686 Z" fill="#000000" fill-rule="nonzero" fill-opacity="1"></path><path clip-path="url(#clip740)" d="M2019.82 328.672 Q2014.66 328.672 2012.67 329.853 Q2010.68 331.033 2010.68 333.881 Q2010.68 336.149 2012.16 337.492 Q2013.66 338.811 2016.23 338.811 Q2019.77 338.811 2021.9 336.311 Q2024.06 333.788 2024.06 329.621 L2024.06 328.672 L2019.82 328.672 M2028.32 326.913 L2028.32 341.705 L2024.06 341.705 L2024.06 337.769 Q2022.6 340.131 2020.42 341.265 Q2018.25 342.376 2015.1 342.376 Q2011.12 342.376 2008.76 340.154 Q2006.42 337.908 2006.42 334.158 Q2006.42 329.783 2009.33 327.561 Q2012.27 325.339 2018.08 325.339 L2024.06 325.339 L2024.06 324.922 Q2024.06 321.983 2022.11 320.385 Q2020.19 318.765 2016.7 318.765 Q2014.47 318.765 2012.37 319.297 Q2010.26 319.83 2008.32 320.895 L2008.32 316.959 Q2010.65 316.057 2012.85 315.617 Q2015.05 315.154 2017.14 315.154 Q2022.76 315.154 2025.54 318.071 Q2028.32 320.987 2028.32 326.913 Z" fill="#000000" fill-rule="nonzero" fill-opacity="1"></path><path clip-path="url(#clip740)" d="M2055.75 316.774 L2055.75 320.756 Q2053.94 319.76 2052.11 319.274 Q2050.31 318.765 2048.45 318.765 Q2044.31 318.765 2042.02 321.404 Q2039.73 324.02 2039.73 328.765 Q2039.73 333.51 2042.02 336.149 Q2044.31 338.765 2048.45 338.765 Q2050.31 338.765 2052.11 338.279 Q2053.94 337.769 2055.75 336.774 L2055.75 340.709 Q2053.96 341.543 2052.04 341.959 Q2050.14 342.376 2047.99 342.376 Q2042.14 342.376 2038.69 338.695 Q2035.24 335.015 2035.24 328.765 Q2035.24 322.422 2038.71 318.788 Q2042.2 315.154 2048.27 315.154 Q2050.24 315.154 2052.11 315.571 Q2053.99 315.964 2055.75 316.774 Z" fill="#000000" fill-rule="nonzero" fill-opacity="1"></path><path clip-path="url(#clip740)" d="M2085.33 327.677 L2085.33 329.76 L2065.75 329.76 Q2066.02 334.158 2068.39 336.473 Q2070.77 338.765 2075.01 338.765 Q2077.46 338.765 2079.75 338.163 Q2082.07 337.561 2084.33 336.357 L2084.33 340.385 Q2082.04 341.357 2079.64 341.867 Q2077.23 342.376 2074.75 342.376 Q2068.55 342.376 2064.91 338.765 Q2061.3 335.154 2061.3 328.996 Q2061.3 322.631 2064.73 318.904 Q2068.18 315.154 2074.01 315.154 Q2079.24 315.154 2082.27 318.533 Q2085.33 321.89 2085.33 327.677 M2081.07 326.427 Q2081.02 322.932 2079.1 320.848 Q2077.2 318.765 2074.06 318.765 Q2070.49 318.765 2068.34 320.779 Q2066.21 322.793 2065.89 326.45 L2081.07 326.427 Z" fill="#000000" fill-rule="nonzero" fill-opacity="1"></path><path clip-path="url(#clip740)" d="M2122.41 319.76 Q2121.7 319.344 2120.84 319.158 Q2120.01 318.95 2118.99 318.95 Q2115.38 318.95 2113.43 321.311 Q2111.51 323.649 2111.51 328.047 L2111.51 341.705 L2107.23 341.705 L2107.23 315.779 L2111.51 315.779 L2111.51 319.807 Q2112.85 317.446 2115.01 316.311 Q2117.16 315.154 2120.24 315.154 Q2120.68 315.154 2121.21 315.223 Q2121.74 315.27 2122.39 315.385 L2122.41 319.76 Z" fill="#000000" fill-rule="nonzero" fill-opacity="1"></path><path clip-path="url(#clip740)" d="M2138.66 328.672 Q2133.5 328.672 2131.51 329.853 Q2129.52 331.033 2129.52 333.881 Q2129.52 336.149 2131 337.492 Q2132.51 338.811 2135.07 338.811 Q2138.62 338.811 2140.75 336.311 Q2142.9 333.788 2142.9 329.621 L2142.9 328.672 L2138.66 328.672 M2147.16 326.913 L2147.16 341.705 L2142.9 341.705 L2142.9 337.769 Q2141.44 340.131 2139.26 341.265 Q2137.09 342.376 2133.94 342.376 Q2129.96 342.376 2127.6 340.154 Q2125.26 337.908 2125.26 334.158 Q2125.26 329.783 2128.18 327.561 Q2131.12 325.339 2136.93 325.339 L2142.9 325.339 L2142.9 324.922 Q2142.9 321.983 2140.95 320.385 Q2139.03 318.765 2135.54 318.765 Q2133.32 318.765 2131.21 319.297 Q2129.1 319.83 2127.16 320.895 L2127.16 316.959 Q2129.5 316.057 2131.7 315.617 Q2133.89 315.154 2135.98 315.154 Q2141.6 315.154 2144.38 318.071 Q2147.16 320.987 2147.16 326.913 Z" fill="#000000" fill-rule="nonzero" fill-opacity="1"></path><path clip-path="url(#clip740)" d="M2153.45 315.779 L2157.71 315.779 L2163.04 336.01 L2168.34 315.779 L2173.36 315.779 L2178.69 336.01 L2183.99 315.779 L2188.25 315.779 L2181.46 341.705 L2176.44 341.705 L2170.86 320.455 L2165.26 341.705 L2160.24 341.705 L2153.45 315.779 Z" fill="#000000" fill-rule="nonzero" fill-opacity="1"></path><polyline clip-path="url(#clip740)" style="stroke:#008000; stroke-linecap:round; stroke-linejoin:round; stroke-width:4; stroke-opacity:1; fill:none" points="1752.78,376.265 1892.01,376.265 "></polyline>
<path clip-path="url(#clip740)" d="M1933.64 368.383 L1933.64 372.411 Q1931.83 371.485 1929.89 371.022 Q1927.95 370.559 1925.86 370.559 Q1922.69 370.559 1921.09 371.531 Q1919.52 372.503 1919.52 374.448 Q1919.52 375.929 1920.65 376.785 Q1921.79 377.619 1925.21 378.383 L1926.67 378.707 Q1931.21 379.679 1933.11 381.461 Q1935.03 383.221 1935.03 386.392 Q1935.03 390.003 1932.16 392.109 Q1929.31 394.216 1924.31 394.216 Q1922.23 394.216 1919.96 393.799 Q1917.71 393.406 1915.21 392.596 L1915.21 388.197 Q1917.58 389.424 1919.87 390.049 Q1922.16 390.651 1924.4 390.651 Q1927.41 390.651 1929.03 389.633 Q1930.65 388.591 1930.65 386.716 Q1930.65 384.98 1929.47 384.054 Q1928.32 383.128 1924.36 382.272 L1922.88 381.924 Q1918.92 381.091 1917.16 379.378 Q1915.4 377.642 1915.4 374.633 Q1915.4 370.975 1917.99 368.985 Q1920.59 366.994 1925.35 366.994 Q1927.71 366.994 1929.8 367.341 Q1931.88 367.688 1933.64 368.383 Z" fill="#000000" fill-rule="nonzero" fill-opacity="1"></path><path clip-path="url(#clip740)" d="M1941.37 383.313 L1941.37 367.619 L1945.63 367.619 L1945.63 383.151 Q1945.63 386.832 1947.07 388.684 Q1948.5 390.512 1951.37 390.512 Q1954.82 390.512 1956.81 388.313 Q1958.83 386.114 1958.83 382.318 L1958.83 367.619 L1963.08 367.619 L1963.08 393.545 L1958.83 393.545 L1958.83 389.563 Q1957.27 391.924 1955.21 393.082 Q1953.18 394.216 1950.47 394.216 Q1946 394.216 1943.69 391.438 Q1941.37 388.66 1941.37 383.313 M1952.09 366.994 L1952.09 366.994 Z" fill="#000000" fill-rule="nonzero" fill-opacity="1"></path><path clip-path="url(#clip740)" d="M1986.88 371.6 Q1986.16 371.184 1985.31 370.998 Q1984.47 370.79 1983.46 370.79 Q1979.84 370.79 1977.9 373.151 Q1975.98 375.489 1975.98 379.887 L1975.98 393.545 L1971.7 393.545 L1971.7 367.619 L1975.98 367.619 L1975.98 371.647 Q1977.32 369.286 1979.47 368.151 Q1981.63 366.994 1984.71 366.994 Q1985.14 366.994 1985.68 367.063 Q1986.21 367.11 1986.86 367.225 L1986.88 371.6 Z" fill="#000000" fill-rule="nonzero" fill-opacity="1"></path><path clip-path="url(#clip740)" d="M2004.47 357.526 L2004.47 361.068 L2000.4 361.068 Q1998.11 361.068 1997.21 361.994 Q1996.33 362.92 1996.33 365.327 L1996.33 367.619 L2003.34 367.619 L2003.34 370.929 L1996.33 370.929 L1996.33 393.545 L1992.04 393.545 L1992.04 370.929 L1987.97 370.929 L1987.97 367.619 L1992.04 367.619 L1992.04 365.813 Q1992.04 361.485 1994.06 359.517 Q1996.07 357.526 2000.45 357.526 L2004.47 357.526 Z" fill="#000000" fill-rule="nonzero" fill-opacity="1"></path><path clip-path="url(#clip740)" d="M2019.82 380.512 Q2014.66 380.512 2012.67 381.693 Q2010.68 382.873 2010.68 385.721 Q2010.68 387.989 2012.16 389.332 Q2013.66 390.651 2016.23 390.651 Q2019.77 390.651 2021.9 388.151 Q2024.06 385.628 2024.06 381.461 L2024.06 380.512 L2019.82 380.512 M2028.32 378.753 L2028.32 393.545 L2024.06 393.545 L2024.06 389.609 Q2022.6 391.971 2020.42 393.105 Q2018.25 394.216 2015.1 394.216 Q2011.12 394.216 2008.76 391.994 Q2006.42 389.748 2006.42 385.998 Q2006.42 381.623 2009.33 379.401 Q2012.27 377.179 2018.08 377.179 L2024.06 377.179 L2024.06 376.762 Q2024.06 373.823 2022.11 372.225 Q2020.19 370.605 2016.7 370.605 Q2014.47 370.605 2012.37 371.137 Q2010.26 371.67 2008.32 372.735 L2008.32 368.799 Q2010.65 367.897 2012.85 367.457 Q2015.05 366.994 2017.14 366.994 Q2022.76 366.994 2025.54 369.911 Q2028.32 372.827 2028.32 378.753 Z" fill="#000000" fill-rule="nonzero" fill-opacity="1"></path><path clip-path="url(#clip740)" d="M2055.75 368.614 L2055.75 372.596 Q2053.94 371.6 2052.11 371.114 Q2050.31 370.605 2048.45 370.605 Q2044.31 370.605 2042.02 373.244 Q2039.73 375.86 2039.73 380.605 Q2039.73 385.35 2042.02 387.989 Q2044.31 390.605 2048.45 390.605 Q2050.31 390.605 2052.11 390.119 Q2053.94 389.609 2055.75 388.614 L2055.75 392.549 Q2053.96 393.383 2052.04 393.799 Q2050.14 394.216 2047.99 394.216 Q2042.14 394.216 2038.69 390.535 Q2035.24 386.855 2035.24 380.605 Q2035.24 374.262 2038.71 370.628 Q2042.2 366.994 2048.27 366.994 Q2050.24 366.994 2052.11 367.411 Q2053.99 367.804 2055.75 368.614 Z" fill="#000000" fill-rule="nonzero" fill-opacity="1"></path><path clip-path="url(#clip740)" d="M2085.33 379.517 L2085.33 381.6 L2065.75 381.6 Q2066.02 385.998 2068.39 388.313 Q2070.77 390.605 2075.01 390.605 Q2077.46 390.605 2079.75 390.003 Q2082.07 389.401 2084.33 388.197 L2084.33 392.225 Q2082.04 393.197 2079.64 393.707 Q2077.23 394.216 2074.75 394.216 Q2068.55 394.216 2064.91 390.605 Q2061.3 386.994 2061.3 380.836 Q2061.3 374.471 2064.73 370.744 Q2068.18 366.994 2074.01 366.994 Q2079.24 366.994 2082.27 370.373 Q2085.33 373.73 2085.33 379.517 M2081.07 378.267 Q2081.02 374.772 2079.1 372.688 Q2077.2 370.605 2074.06 370.605 Q2070.49 370.605 2068.34 372.619 Q2066.21 374.633 2065.89 378.29 L2081.07 378.267 Z" fill="#000000" fill-rule="nonzero" fill-opacity="1"></path><path clip-path="url(#clip740)" d="M2107.39 367.619 L2111.65 367.619 L2111.65 393.545 L2107.39 393.545 L2107.39 367.619 M2107.39 357.526 L2111.65 357.526 L2111.65 362.92 L2107.39 362.92 L2107.39 357.526 Z" fill="#000000" fill-rule="nonzero" fill-opacity="1"></path><path clip-path="url(#clip740)" d="M2142.11 377.897 L2142.11 393.545 L2137.85 393.545 L2137.85 378.035 Q2137.85 374.355 2136.42 372.526 Q2134.98 370.698 2132.11 370.698 Q2128.66 370.698 2126.67 372.897 Q2124.68 375.096 2124.68 378.892 L2124.68 393.545 L2120.4 393.545 L2120.4 367.619 L2124.68 367.619 L2124.68 371.647 Q2126.21 369.309 2128.27 368.151 Q2130.35 366.994 2133.06 366.994 Q2137.53 366.994 2139.82 369.772 Q2142.11 372.526 2142.11 377.897 Z" fill="#000000" fill-rule="nonzero" fill-opacity="1"></path><path clip-path="url(#clip740)" d="M2150.61 367.619 L2154.87 367.619 L2154.87 393.545 L2150.61 393.545 L2150.61 367.619 M2150.61 357.526 L2154.87 357.526 L2154.87 362.92 L2150.61 362.92 L2150.61 357.526 Z" fill="#000000" fill-rule="nonzero" fill-opacity="1"></path><path clip-path="url(#clip740)" d="M2167.99 360.258 L2167.99 367.619 L2176.76 367.619 L2176.76 370.929 L2167.99 370.929 L2167.99 385.003 Q2167.99 388.174 2168.85 389.077 Q2169.73 389.98 2172.39 389.98 L2176.76 389.98 L2176.76 393.545 L2172.39 393.545 Q2167.46 393.545 2165.58 391.716 Q2163.71 389.864 2163.71 385.003 L2163.71 370.929 L2160.58 370.929 L2160.58 367.619 L2163.71 367.619 L2163.71 360.258 L2167.99 360.258 Z" fill="#000000" fill-rule="nonzero" fill-opacity="1"></path><path clip-path="url(#clip740)" d="M2182.37 367.619 L2186.63 367.619 L2186.63 393.545 L2182.37 393.545 L2182.37 367.619 M2182.37 357.526 L2186.63 357.526 L2186.63 362.92 L2182.37 362.92 L2182.37 357.526 Z" fill="#000000" fill-rule="nonzero" fill-opacity="1"></path><path clip-path="url(#clip740)" d="M2207.32 380.512 Q2202.16 380.512 2200.17 381.693 Q2198.18 382.873 2198.18 385.721 Q2198.18 387.989 2199.66 389.332 Q2201.16 390.651 2203.73 390.651 Q2207.27 390.651 2209.4 388.151 Q2211.56 385.628 2211.56 381.461 L2211.56 380.512 L2207.32 380.512 M2215.81 378.753 L2215.81 393.545 L2211.56 393.545 L2211.56 389.609 Q2210.1 391.971 2207.92 393.105 Q2205.75 394.216 2202.6 394.216 Q2198.62 394.216 2196.25 391.994 Q2193.92 389.748 2193.92 385.998 Q2193.92 381.623 2196.83 379.401 Q2199.77 377.179 2205.58 377.179 L2211.56 377.179 L2211.56 376.762 Q2211.56 373.823 2209.61 372.225 Q2207.69 370.605 2204.19 370.605 Q2201.97 370.605 2199.87 371.137 Q2197.76 371.67 2195.82 372.735 L2195.82 368.799 Q2198.15 367.897 2200.35 367.457 Q2202.55 366.994 2204.63 366.994 Q2210.26 366.994 2213.04 369.911 Q2215.81 372.827 2215.81 378.753 Z" fill="#000000" fill-rule="nonzero" fill-opacity="1"></path><path clip-path="url(#clip740)" d="M2224.59 357.526 L2228.85 357.526 L2228.85 393.545 L2224.59 393.545 L2224.59 357.526 Z" fill="#000000" fill-rule="nonzero" fill-opacity="1"></path><path clip-path="url(#clip740)" d="M2259.94 379.517 L2259.94 381.6 L2240.35 381.6 Q2240.63 385.998 2242.99 388.313 Q2245.37 390.605 2249.61 390.605 Q2252.06 390.605 2254.36 390.003 Q2256.67 389.401 2258.94 388.197 L2258.94 392.225 Q2256.65 393.197 2254.24 393.707 Q2251.83 394.216 2249.36 394.216 Q2243.15 394.216 2239.52 390.605 Q2235.91 386.994 2235.91 380.836 Q2235.91 374.471 2239.33 370.744 Q2242.78 366.994 2248.62 366.994 Q2253.85 366.994 2256.88 370.373 Q2259.94 373.73 2259.94 379.517 M2255.68 378.267 Q2255.63 374.772 2253.71 372.688 Q2251.81 370.605 2248.66 370.605 Q2245.1 370.605 2242.94 372.619 Q2240.81 374.633 2240.49 378.29 L2255.68 378.267 Z" fill="#000000" fill-rule="nonzero" fill-opacity="1"></path><polyline clip-path="url(#clip740)" style="stroke:#000000; stroke-linecap:round; stroke-linejoin:round; stroke-width:4; stroke-opacity:1; fill:none" stroke-dasharray="16, 10" points="1752.78,428.105 1892.01,428.105 "></polyline>
<path clip-path="url(#clip740)" d="M1933.64 420.223 L1933.64 424.251 Q1931.83 423.325 1929.89 422.862 Q1927.95 422.399 1925.86 422.399 Q1922.69 422.399 1921.09 423.371 Q1919.52 424.343 1919.52 426.288 Q1919.52 427.769 1920.65 428.625 Q1921.79 429.459 1925.21 430.223 L1926.67 430.547 Q1931.21 431.519 1933.11 433.301 Q1935.03 435.061 1935.03 438.232 Q1935.03 441.843 1932.16 443.949 Q1929.31 446.056 1924.31 446.056 Q1922.23 446.056 1919.96 445.639 Q1917.71 445.246 1915.21 444.436 L1915.21 440.037 Q1917.58 441.264 1919.87 441.889 Q1922.16 442.491 1924.4 442.491 Q1927.41 442.491 1929.03 441.473 Q1930.65 440.431 1930.65 438.556 Q1930.65 436.82 1929.47 435.894 Q1928.32 434.968 1924.36 434.112 L1922.88 433.764 Q1918.92 432.931 1917.16 431.218 Q1915.4 429.482 1915.4 426.473 Q1915.4 422.815 1917.99 420.825 Q1920.59 418.834 1925.35 418.834 Q1927.71 418.834 1929.8 419.181 Q1931.88 419.528 1933.64 420.223 Z" fill="#000000" fill-rule="nonzero" fill-opacity="1"></path><path clip-path="url(#clip740)" d="M1941.37 435.153 L1941.37 419.459 L1945.63 419.459 L1945.63 434.991 Q1945.63 438.672 1947.07 440.524 Q1948.5 442.352 1951.37 442.352 Q1954.82 442.352 1956.81 440.153 Q1958.83 437.954 1958.83 434.158 L1958.83 419.459 L1963.08 419.459 L1963.08 445.385 L1958.83 445.385 L1958.83 441.403 Q1957.27 443.764 1955.21 444.922 Q1953.18 446.056 1950.47 446.056 Q1946 446.056 1943.69 443.278 Q1941.37 440.5 1941.37 435.153 M1952.09 418.834 L1952.09 418.834 Z" fill="#000000" fill-rule="nonzero" fill-opacity="1"></path><path clip-path="url(#clip740)" d="M1986.88 423.44 Q1986.16 423.024 1985.31 422.838 Q1984.47 422.63 1983.46 422.63 Q1979.84 422.63 1977.9 424.991 Q1975.98 427.329 1975.98 431.727 L1975.98 445.385 L1971.7 445.385 L1971.7 419.459 L1975.98 419.459 L1975.98 423.487 Q1977.32 421.126 1979.47 419.991 Q1981.63 418.834 1984.71 418.834 Q1985.14 418.834 1985.68 418.903 Q1986.21 418.95 1986.86 419.065 L1986.88 423.44 Z" fill="#000000" fill-rule="nonzero" fill-opacity="1"></path><path clip-path="url(#clip740)" d="M2004.47 409.366 L2004.47 412.908 L2000.4 412.908 Q1998.11 412.908 1997.21 413.834 Q1996.33 414.76 1996.33 417.167 L1996.33 419.459 L2003.34 419.459 L2003.34 422.769 L1996.33 422.769 L1996.33 445.385 L1992.04 445.385 L1992.04 422.769 L1987.97 422.769 L1987.97 419.459 L1992.04 419.459 L1992.04 417.653 Q1992.04 413.325 1994.06 411.357 Q1996.07 409.366 2000.45 409.366 L2004.47 409.366 Z" fill="#000000" fill-rule="nonzero" fill-opacity="1"></path><path clip-path="url(#clip740)" d="M2019.82 432.352 Q2014.66 432.352 2012.67 433.533 Q2010.68 434.713 2010.68 437.561 Q2010.68 439.829 2012.16 441.172 Q2013.66 442.491 2016.23 442.491 Q2019.77 442.491 2021.9 439.991 Q2024.06 437.468 2024.06 433.301 L2024.06 432.352 L2019.82 432.352 M2028.32 430.593 L2028.32 445.385 L2024.06 445.385 L2024.06 441.449 Q2022.6 443.811 2020.42 444.945 Q2018.25 446.056 2015.1 446.056 Q2011.12 446.056 2008.76 443.834 Q2006.42 441.588 2006.42 437.838 Q2006.42 433.463 2009.33 431.241 Q2012.27 429.019 2018.08 429.019 L2024.06 429.019 L2024.06 428.602 Q2024.06 425.663 2022.11 424.065 Q2020.19 422.445 2016.7 422.445 Q2014.47 422.445 2012.37 422.977 Q2010.26 423.51 2008.32 424.575 L2008.32 420.639 Q2010.65 419.737 2012.85 419.297 Q2015.05 418.834 2017.14 418.834 Q2022.76 418.834 2025.54 421.751 Q2028.32 424.667 2028.32 430.593 Z" fill="#000000" fill-rule="nonzero" fill-opacity="1"></path><path clip-path="url(#clip740)" d="M2055.75 420.454 L2055.75 424.436 Q2053.94 423.44 2052.11 422.954 Q2050.31 422.445 2048.45 422.445 Q2044.31 422.445 2042.02 425.084 Q2039.73 427.7 2039.73 432.445 Q2039.73 437.19 2042.02 439.829 Q2044.31 442.445 2048.45 442.445 Q2050.31 442.445 2052.11 441.959 Q2053.94 441.449 2055.75 440.454 L2055.75 444.389 Q2053.96 445.223 2052.04 445.639 Q2050.14 446.056 2047.99 446.056 Q2042.14 446.056 2038.69 442.375 Q2035.24 438.695 2035.24 432.445 Q2035.24 426.102 2038.71 422.468 Q2042.2 418.834 2048.27 418.834 Q2050.24 418.834 2052.11 419.251 Q2053.99 419.644 2055.75 420.454 Z" fill="#000000" fill-rule="nonzero" fill-opacity="1"></path><path clip-path="url(#clip740)" d="M2085.33 431.357 L2085.33 433.44 L2065.75 433.44 Q2066.02 437.838 2068.39 440.153 Q2070.77 442.445 2075.01 442.445 Q2077.46 442.445 2079.75 441.843 Q2082.07 441.241 2084.33 440.037 L2084.33 444.065 Q2082.04 445.037 2079.64 445.547 Q2077.23 446.056 2074.75 446.056 Q2068.55 446.056 2064.91 442.445 Q2061.3 438.834 2061.3 432.676 Q2061.3 426.311 2064.73 422.584 Q2068.18 418.834 2074.01 418.834 Q2079.24 418.834 2082.27 422.213 Q2085.33 425.57 2085.33 431.357 M2081.07 430.107 Q2081.02 426.612 2079.1 424.528 Q2077.2 422.445 2074.06 422.445 Q2070.49 422.445 2068.34 424.459 Q2066.21 426.473 2065.89 430.13 L2081.07 430.107 Z" fill="#000000" fill-rule="nonzero" fill-opacity="1"></path><path clip-path="url(#clip740)" d="M2117.44 422.445 Q2114.01 422.445 2112.02 425.13 Q2110.03 427.792 2110.03 432.445 Q2110.03 437.098 2112 439.783 Q2113.99 442.445 2117.44 442.445 Q2120.84 442.445 2122.83 439.76 Q2124.82 437.075 2124.82 432.445 Q2124.82 427.838 2122.83 425.153 Q2120.84 422.445 2117.44 422.445 M2117.44 418.834 Q2122.99 418.834 2126.16 422.445 Q2129.33 426.056 2129.33 432.445 Q2129.33 438.811 2126.16 442.445 Q2122.99 446.056 2117.44 446.056 Q2111.86 446.056 2108.69 442.445 Q2105.54 438.811 2105.54 432.445 Q2105.54 426.056 2108.69 422.445 Q2111.86 418.834 2117.44 418.834 Z" fill="#000000" fill-rule="nonzero" fill-opacity="1"></path><path clip-path="url(#clip740)" d="M2153.45 432.121 Q2153.45 427.491 2151.53 424.945 Q2149.63 422.399 2146.19 422.399 Q2142.76 422.399 2140.84 424.945 Q2138.94 427.491 2138.94 432.121 Q2138.94 436.727 2140.84 439.274 Q2142.76 441.82 2146.19 441.82 Q2149.63 441.82 2151.53 439.274 Q2153.45 436.727 2153.45 432.121 M2157.71 442.167 Q2157.71 448.787 2154.77 452.005 Q2151.83 455.246 2145.77 455.246 Q2143.52 455.246 2141.53 454.898 Q2139.54 454.574 2137.67 453.88 L2137.67 449.736 Q2139.54 450.755 2141.37 451.241 Q2143.2 451.727 2145.1 451.727 Q2149.29 451.727 2151.37 449.528 Q2153.45 447.352 2153.45 442.931 L2153.45 440.824 Q2152.13 443.116 2150.07 444.25 Q2148.01 445.385 2145.14 445.385 Q2140.38 445.385 2137.46 441.75 Q2134.54 438.116 2134.54 432.121 Q2134.54 426.102 2137.46 422.468 Q2140.38 418.834 2145.14 418.834 Q2148.01 418.834 2150.07 419.968 Q2152.13 421.102 2153.45 423.394 L2153.45 419.459 L2157.71 419.459 L2157.71 442.167 Z" fill="#000000" fill-rule="nonzero" fill-opacity="1"></path><path clip-path="url(#clip740)" d="M2183.55 432.121 Q2183.55 427.491 2181.63 424.945 Q2179.73 422.399 2176.28 422.399 Q2172.85 422.399 2170.93 424.945 Q2169.03 427.491 2169.03 432.121 Q2169.03 436.727 2170.93 439.274 Q2172.85 441.82 2176.28 441.82 Q2179.73 441.82 2181.63 439.274 Q2183.55 436.727 2183.55 432.121 M2187.81 442.167 Q2187.81 448.787 2184.87 452.005 Q2181.93 455.246 2175.86 455.246 Q2173.62 455.246 2171.63 454.898 Q2169.63 454.574 2167.76 453.88 L2167.76 449.736 Q2169.63 450.755 2171.46 451.241 Q2173.29 451.727 2175.19 451.727 Q2179.38 451.727 2181.46 449.528 Q2183.55 447.352 2183.55 442.931 L2183.55 440.824 Q2182.23 443.116 2180.17 444.25 Q2178.11 445.385 2175.24 445.385 Q2170.47 445.385 2167.55 441.75 Q2164.63 438.116 2164.63 432.121 Q2164.63 426.102 2167.55 422.468 Q2170.47 418.834 2175.24 418.834 Q2178.11 418.834 2180.17 419.968 Q2182.23 421.102 2183.55 423.394 L2183.55 419.459 L2187.81 419.459 L2187.81 442.167 Z" fill="#000000" fill-rule="nonzero" fill-opacity="1"></path><path clip-path="url(#clip740)" d="M2216.76 424.436 Q2218.36 421.565 2220.58 420.2 Q2222.81 418.834 2225.81 418.834 Q2229.87 418.834 2232.06 421.681 Q2234.26 424.505 2234.26 429.737 L2234.26 445.385 L2229.98 445.385 L2229.98 429.875 Q2229.98 426.149 2228.66 424.343 Q2227.34 422.538 2224.63 422.538 Q2221.32 422.538 2219.4 424.737 Q2217.48 426.936 2217.48 430.732 L2217.48 445.385 L2213.2 445.385 L2213.2 429.875 Q2213.2 426.125 2211.88 424.343 Q2210.56 422.538 2207.81 422.538 Q2204.54 422.538 2202.62 424.76 Q2200.7 426.959 2200.7 430.732 L2200.7 445.385 L2196.42 445.385 L2196.42 419.459 L2200.7 419.459 L2200.7 423.487 Q2202.16 421.102 2204.19 419.968 Q2206.23 418.834 2209.03 418.834 Q2211.86 418.834 2213.82 420.269 Q2215.81 421.704 2216.76 424.436 Z" fill="#000000" fill-rule="nonzero" fill-opacity="1"></path></svg>