<svg xmlns="http://www.w3.org/2000/svg" xmlns:xlink="http://www.w3.org/1999/xlink" width="600" height="400" viewBox="0 0 2400 1600">
<defs>
  <clipPath id="clip940">
    <rect x="0" y="0" width="2400" height="1600"></rect>
  </clipPath>
</defs>
<path clip-path="url(#clip940)" d="M0 1600 L2400 1600 L2400 0 L0 0  Z" fill="#f8f8ff" fill-rule="evenodd" fill-opacity="1"></path>
<defs>
  <clipPath id="clip941">
    <rect x="480" y="0" width="1681" height="1600"></rect>
  </clipPath>
</defs>
<path clip-path="url(#clip940)" d="M265.445 1486.45 L2352.76 1486.45 L2352.76 123.472 L265.445 123.472  Z" fill="#f8f8ff" fill-rule="evenodd" fill-opacity="1"></path>
<defs>
  <clipPath id="clip942">
    <rect x="265" y="123" width="2088" height="1364"></rect>
  </clipPath>
</defs>
<polyline clip-path="url(#clip942)" style="stroke:#000000; stroke-linecap:round; stroke-linejoin:round; stroke-width:2; stroke-opacity:0.1; fill:none" points="302.143,1486.45 302.143,123.472 "></polyline>
<polyline clip-path="url(#clip942)" style="stroke:#000000; stroke-linecap:round; stroke-linejoin:round; stroke-width:2; stroke-opacity:0.1; fill:none" points="749.679,1486.45 749.679,123.472 "></polyline>
<polyline clip-path="url(#clip942)" style="stroke:#000000; stroke-linecap:round; stroke-linejoin:round; stroke-width:2; stroke-opacity:0.1; fill:none" points="1197.22,1486.45 1197.22,123.472 "></polyline>
<polyline clip-path="url(#clip942)" style="stroke:#000000; stroke-linecap:round; stroke-linejoin:round; stroke-width:2; stroke-opacity:0.1; fill:none" points="1644.75,1486.45 1644.75,123.472 "></polyline>
<polyline clip-path="url(#clip942)" style="stroke:#000000; stroke-linecap:round; stroke-linejoin:round; stroke-width:2; stroke-opacity:0.1; fill:none" points="2092.29,1486.45 2092.29,123.472 "></polyline>
<polyline clip-path="url(#clip940)" style="stroke:#000000; stroke-linecap:round; stroke-linejoin:round; stroke-width:4; stroke-opacity:1; fill:none" points="265.445,1486.45 2352.76,1486.45 "></polyline>
<polyline clip-path="url(#clip940)" style="stroke:#000000; stroke-linecap:round; stroke-linejoin:round; stroke-width:4; stroke-opacity:1; fill:none" points="302.143,1486.45 302.143,1467.55 "></polyline>
<polyline clip-path="url(#clip940)" style="stroke:#000000; stroke-linecap:round; stroke-linejoin:round; stroke-width:4; stroke-opacity:1; fill:none" points="749.679,1486.45 749.679,1467.55 "></polyline>
<polyline clip-path="url(#clip940)" style="stroke:#000000; stroke-linecap:round; stroke-linejoin:round; stroke-width:4; stroke-opacity:1; fill:none" points="1197.22,1486.45 1197.22,1467.55 "></polyline>
<polyline clip-path="url(#clip940)" style="stroke:#000000; stroke-linecap:round; stroke-linejoin:round; stroke-width:4; stroke-opacity:1; fill:none" points="1644.75,1486.45 1644.75,1467.55 "></polyline>
<polyline clip-path="url(#clip940)" style="stroke:#000000; stroke-linecap:round; stroke-linejoin:round; stroke-width:4; stroke-opacity:1; fill:none" points="2092.29,1486.45 2092.29,1467.55 "></polyline>
<path clip-path="url(#clip940)" d="M302.143 1517.37 Q298.532 1517.37 296.703 1520.93 Q294.897 1524.47 294.897 1531.6 Q294.897 1538.71 296.703 1542.27 Q298.532 1545.82 302.143 1545.82 Q305.777 1545.82 307.583 1542.27 Q309.411 1538.71 309.411 1531.6 Q309.411 1524.47 307.583 1520.93 Q305.777 1517.37 302.143 1517.37 M302.143 1513.66 Q307.953 1513.66 311.008 1518.27 Q314.087 1522.85 314.087 1531.6 Q314.087 1540.33 311.008 1544.94 Q307.953 1549.52 302.143 1549.52 Q296.333 1549.52 293.254 1544.94 Q290.198 1540.33 290.198 1531.6 Q290.198 1522.85 293.254 1518.27 Q296.333 1513.66 302.143 1513.66 Z" fill="#000000" fill-rule="nonzero" fill-opacity="1"></path><path clip-path="url(#clip940)" d="M728.453 1544.91 L744.772 1544.91 L744.772 1548.85 L722.828 1548.85 L722.828 1544.91 Q725.49 1542.16 730.073 1537.53 Q734.68 1532.88 735.86 1531.53 Q738.105 1529.01 738.985 1527.27 Q739.888 1525.51 739.888 1523.82 Q739.888 1521.07 737.943 1519.33 Q736.022 1517.6 732.92 1517.6 Q730.721 1517.6 728.268 1518.36 Q725.837 1519.13 723.059 1520.68 L723.059 1515.95 Q725.883 1514.82 728.337 1514.24 Q730.791 1513.66 732.828 1513.66 Q738.198 1513.66 741.392 1516.35 Q744.587 1519.03 744.587 1523.52 Q744.587 1525.65 743.777 1527.57 Q742.99 1529.47 740.883 1532.07 Q740.304 1532.74 737.203 1535.95 Q734.101 1539.15 728.453 1544.91 Z" fill="#000000" fill-rule="nonzero" fill-opacity="1"></path><path clip-path="url(#clip940)" d="M764.587 1517.37 Q760.976 1517.37 759.147 1520.93 Q757.341 1524.47 757.341 1531.6 Q757.341 1538.71 759.147 1542.27 Q760.976 1545.82 764.587 1545.82 Q768.221 1545.82 770.027 1542.27 Q771.855 1538.71 771.855 1531.6 Q771.855 1524.47 770.027 1520.93 Q768.221 1517.37 764.587 1517.37 M764.587 1513.66 Q770.397 1513.66 773.452 1518.27 Q776.531 1522.85 776.531 1531.6 Q776.531 1540.33 773.452 1544.94 Q770.397 1549.52 764.587 1549.52 Q758.777 1549.52 755.698 1544.94 Q752.642 1540.33 752.642 1531.6 Q752.642 1522.85 755.698 1518.27 Q758.777 1513.66 764.587 1513.66 Z" fill="#000000" fill-rule="nonzero" fill-opacity="1"></path><path clip-path="url(#clip940)" d="M1185.39 1518.36 L1173.58 1536.81 L1185.39 1536.81 L1185.39 1518.36 M1184.16 1514.29 L1190.04 1514.29 L1190.04 1536.81 L1194.97 1536.81 L1194.97 1540.7 L1190.04 1540.7 L1190.04 1548.85 L1185.39 1548.85 L1185.39 1540.7 L1169.79 1540.7 L1169.79 1536.19 L1184.16 1514.29 Z" fill="#000000" fill-rule="nonzero" fill-opacity="1"></path><path clip-path="url(#clip940)" d="M1212.7 1517.37 Q1209.09 1517.37 1207.26 1520.93 Q1205.46 1524.47 1205.46 1531.6 Q1205.46 1538.71 1207.26 1542.27 Q1209.09 1545.82 1212.7 1545.82 Q1216.34 1545.82 1218.14 1542.27 Q1219.97 1538.71 1219.97 1531.6 Q1219.97 1524.47 1218.14 1520.93 Q1216.34 1517.37 1212.7 1517.37 M1212.7 1513.66 Q1218.51 1513.66 1221.57 1518.27 Q1224.65 1522.85 1224.65 1531.6 Q1224.65 1540.33 1221.57 1544.94 Q1218.51 1549.52 1212.7 1549.52 Q1206.89 1549.52 1203.81 1544.94 Q1200.76 1540.33 1200.76 1531.6 Q1200.76 1522.85 1203.81 1518.27 Q1206.89 1513.66 1212.7 1513.66 Z" fill="#000000" fill-rule="nonzero" fill-opacity="1"></path><path clip-path="url(#clip940)" d="M1630.16 1529.7 Q1627.01 1529.7 1625.16 1531.86 Q1623.33 1534.01 1623.33 1537.76 Q1623.33 1541.49 1625.16 1543.66 Q1627.01 1545.82 1630.16 1545.82 Q1633.31 1545.82 1635.13 1543.66 Q1636.99 1541.49 1636.99 1537.76 Q1636.99 1534.01 1635.13 1531.86 Q1633.31 1529.7 1630.16 1529.7 M1639.44 1515.05 L1639.44 1519.31 Q1637.68 1518.48 1635.88 1518.04 Q1634.09 1517.6 1632.33 1517.6 Q1627.7 1517.6 1625.25 1520.72 Q1622.82 1523.85 1622.47 1530.17 Q1623.84 1528.15 1625.9 1527.09 Q1627.96 1526 1630.44 1526 Q1635.64 1526 1638.65 1529.17 Q1641.69 1532.32 1641.69 1537.76 Q1641.69 1543.08 1638.54 1546.3 Q1635.39 1549.52 1630.16 1549.52 Q1624.16 1549.52 1620.99 1544.94 Q1617.82 1540.33 1617.82 1531.6 Q1617.82 1523.41 1621.71 1518.55 Q1625.6 1513.66 1632.15 1513.66 Q1633.91 1513.66 1635.69 1514.01 Q1637.5 1514.36 1639.44 1515.05 Z" fill="#000000" fill-rule="nonzero" fill-opacity="1"></path><path clip-path="url(#clip940)" d="M1659.74 1517.37 Q1656.13 1517.37 1654.3 1520.93 Q1652.5 1524.47 1652.5 1531.6 Q1652.5 1538.71 1654.3 1542.27 Q1656.13 1545.82 1659.74 1545.82 Q1663.38 1545.82 1665.18 1542.27 Q1667.01 1538.71 1667.01 1531.6 Q1667.01 1524.47 1665.18 1520.93 Q1663.38 1517.37 1659.74 1517.37 M1659.74 1513.66 Q1665.55 1513.66 1668.61 1518.27 Q1671.69 1522.85 1671.69 1531.6 Q1671.69 1540.33 1668.61 1544.94 Q1665.55 1549.52 1659.74 1549.52 Q1653.93 1549.52 1650.85 1544.94 Q1647.8 1540.33 1647.8 1531.6 Q1647.8 1522.85 1650.85 1518.27 Q1653.93 1513.66 1659.74 1513.66 Z" fill="#000000" fill-rule="nonzero" fill-opacity="1"></path><path clip-path="url(#clip940)" d="M2077.16 1532.44 Q2073.83 1532.44 2071.91 1534.22 Q2070.01 1536 2070.01 1539.13 Q2070.01 1542.25 2071.91 1544.03 Q2073.83 1545.82 2077.16 1545.82 Q2080.5 1545.82 2082.42 1544.03 Q2084.34 1542.23 2084.34 1539.13 Q2084.34 1536 2082.42 1534.22 Q2080.52 1532.44 2077.16 1532.44 M2072.49 1530.45 Q2069.48 1529.7 2067.79 1527.64 Q2066.12 1525.58 2066.12 1522.62 Q2066.12 1518.48 2069.06 1516.07 Q2072.02 1513.66 2077.16 1513.66 Q2082.32 1513.66 2085.26 1516.07 Q2088.2 1518.48 2088.2 1522.62 Q2088.2 1525.58 2086.51 1527.64 Q2084.85 1529.7 2081.86 1530.45 Q2085.24 1531.23 2087.12 1533.52 Q2089.01 1535.82 2089.01 1539.13 Q2089.01 1544.15 2085.94 1546.83 Q2082.88 1549.52 2077.16 1549.52 Q2071.44 1549.52 2068.37 1546.83 Q2065.31 1544.15 2065.31 1539.13 Q2065.31 1535.82 2067.21 1533.52 Q2069.11 1531.23 2072.49 1530.45 M2070.77 1523.06 Q2070.77 1525.75 2072.44 1527.25 Q2074.13 1528.76 2077.16 1528.76 Q2080.17 1528.76 2081.86 1527.25 Q2083.57 1525.75 2083.57 1523.06 Q2083.57 1520.38 2081.86 1518.87 Q2080.17 1517.37 2077.16 1517.37 Q2074.13 1517.37 2072.44 1518.87 Q2070.77 1520.38 2070.77 1523.06 Z" fill="#000000" fill-rule="nonzero" fill-opacity="1"></path><path clip-path="url(#clip940)" d="M2107.32 1517.37 Q2103.71 1517.37 2101.88 1520.93 Q2100.08 1524.47 2100.08 1531.6 Q2100.08 1538.71 2101.88 1542.27 Q2103.71 1545.82 2107.32 1545.82 Q2110.96 1545.82 2112.76 1542.27 Q2114.59 1538.71 2114.59 1531.6 Q2114.59 1524.47 2112.76 1520.93 Q2110.96 1517.37 2107.32 1517.37 M2107.32 1513.66 Q2113.13 1513.66 2116.19 1518.27 Q2119.27 1522.85 2119.27 1531.6 Q2119.27 1540.33 2116.19 1544.94 Q2113.13 1549.52 2107.32 1549.52 Q2101.51 1549.52 2098.44 1544.94 Q2095.38 1540.33 2095.38 1531.6 Q2095.38 1522.85 2098.44 1518.27 Q2101.51 1513.66 2107.32 1513.66 Z" fill="#000000" fill-rule="nonzero" fill-opacity="1"></path><polyline clip-path="url(#clip942)" style="stroke:#000000; stroke-linecap:round; stroke-linejoin:round; stroke-width:2; stroke-opacity:0.1; fill:none" points="265.445,1287.32 2352.76,1287.32 "></polyline>
<polyline clip-path="url(#clip942)" style="stroke:#000000; stroke-linecap:round; stroke-linejoin:round; stroke-width:2; stroke-opacity:0.1; fill:none" points="265.445,1057.8 2352.76,1057.8 "></polyline>
<polyline clip-path="url(#clip942)" style="stroke:#000000; stroke-linecap:round; stroke-linejoin:round; stroke-width:2; stroke-opacity:0.1; fill:none" points="265.445,828.275 2352.76,828.275 "></polyline>
<polyline clip-path="url(#clip942)" style="stroke:#000000; stroke-linecap:round; stroke-linejoin:round; stroke-width:2; stroke-opacity:0.1; fill:none" points="265.445,598.754 2352.76,598.754 "></polyline>
<polyline clip-path="url(#clip942)" style="stroke:#000000; stroke-linecap:round; stroke-linejoin:round; stroke-width:2; stroke-opacity:0.1; fill:none" points="265.445,369.233 2352.76,369.233 "></polyline>
<polyline clip-path="url(#clip942)" style="stroke:#000000; stroke-linecap:round; stroke-linejoin:round; stroke-width:2; stroke-opacity:0.1; fill:none" points="265.445,139.712 2352.76,139.712 "></polyline>
<polyline clip-path="url(#clip940)" style="stroke:#000000; stroke-linecap:round; stroke-linejoin:round; stroke-width:4; stroke-opacity:1; fill:none" points="265.445,1486.45 265.445,123.472 "></polyline>
<polyline clip-path="url(#clip940)" style="stroke:#000000; stroke-linecap:round; stroke-linejoin:round; stroke-width:4; stroke-opacity:1; fill:none" points="265.445,1287.32 284.342,1287.32 "></polyline>
<polyline clip-path="url(#clip940)" style="stroke:#000000; stroke-linecap:round; stroke-linejoin:round; stroke-width:4; stroke-opacity:1; fill:none" points="265.445,1057.8 284.342,1057.8 "></polyline>
<polyline clip-path="url(#clip940)" style="stroke:#000000; stroke-linecap:round; stroke-linejoin:round; stroke-width:4; stroke-opacity:1; fill:none" points="265.445,828.275 284.342,828.275 "></polyline>
<polyline clip-path="url(#clip940)" style="stroke:#000000; stroke-linecap:round; stroke-linejoin:round; stroke-width:4; stroke-opacity:1; fill:none" points="265.445,598.754 284.342,598.754 "></polyline>
<polyline clip-path="url(#clip940)" style="stroke:#000000; stroke-linecap:round; stroke-linejoin:round; stroke-width:4; stroke-opacity:1; fill:none" points="265.445,369.233 284.342,369.233 "></polyline>
<polyline clip-path="url(#clip940)" style="stroke:#000000; stroke-linecap:round; stroke-linejoin:round; stroke-width:4; stroke-opacity:1; fill:none" points="265.445,139.712 284.342,139.712 "></polyline>
<path clip-path="url(#clip940)" d="M129.862 1274.11 L118.056 1292.56 L129.862 1292.56 L129.862 1274.11 M128.635 1270.04 L134.515 1270.04 L134.515 1292.56 L139.445 1292.56 L139.445 1296.45 L134.515 1296.45 L134.515 1304.6 L129.862 1304.6 L129.862 1296.45 L114.26 1296.45 L114.26 1291.93 L128.635 1270.04 Z" fill="#000000" fill-rule="nonzero" fill-opacity="1"></path><path clip-path="url(#clip940)" d="M145.996 1270.04 L168.218 1270.04 L168.218 1272.03 L155.672 1304.6 L150.788 1304.6 L162.593 1273.97 L145.996 1273.97 L145.996 1270.04 Z" fill="#000000" fill-rule="nonzero" fill-opacity="1"></path><path clip-path="url(#clip940)" d="M177.385 1270.04 L195.741 1270.04 L195.741 1273.97 L181.667 1273.97 L181.667 1282.44 Q182.686 1282.1 183.704 1281.93 Q184.723 1281.75 185.741 1281.75 Q191.528 1281.75 194.908 1284.92 Q198.287 1288.09 198.287 1293.51 Q198.287 1299.09 194.815 1302.19 Q191.343 1305.27 185.024 1305.27 Q182.848 1305.27 180.579 1304.9 Q178.334 1304.53 175.926 1303.79 L175.926 1299.09 Q178.01 1300.22 180.232 1300.78 Q182.454 1301.33 184.931 1301.33 Q188.936 1301.33 191.274 1299.23 Q193.612 1297.12 193.612 1293.51 Q193.612 1289.9 191.274 1287.79 Q188.936 1285.68 184.931 1285.68 Q183.056 1285.68 181.181 1286.1 Q179.329 1286.52 177.385 1287.4 L177.385 1270.04 Z" fill="#000000" fill-rule="nonzero" fill-opacity="1"></path><path clip-path="url(#clip940)" d="M217.5 1273.12 Q213.889 1273.12 212.061 1276.68 Q210.255 1280.22 210.255 1287.35 Q210.255 1294.46 212.061 1298.02 Q213.889 1301.56 217.5 1301.56 Q221.135 1301.56 222.94 1298.02 Q224.769 1294.46 224.769 1287.35 Q224.769 1280.22 222.94 1276.68 Q221.135 1273.12 217.5 1273.12 M217.5 1269.41 Q223.31 1269.41 226.366 1274.02 Q229.445 1278.6 229.445 1287.35 Q229.445 1296.08 226.366 1300.68 Q223.31 1305.27 217.5 1305.27 Q211.69 1305.27 208.612 1300.68 Q205.556 1296.08 205.556 1287.35 Q205.556 1278.6 208.612 1274.02 Q211.69 1269.41 217.5 1269.41 Z" fill="#000000" fill-rule="nonzero" fill-opacity="1"></path><path clip-path="url(#clip940)" d="M117.061 1040.52 L135.417 1040.52 L135.417 1044.45 L121.343 1044.45 L121.343 1052.92 Q122.362 1052.58 123.38 1052.41 Q124.399 1052.23 125.418 1052.23 Q131.205 1052.23 134.584 1055.4 Q137.964 1058.57 137.964 1063.99 Q137.964 1069.57 134.492 1072.67 Q131.019 1075.75 124.7 1075.75 Q122.524 1075.75 120.255 1075.38 Q118.01 1075.01 115.603 1074.27 L115.603 1069.57 Q117.686 1070.7 119.908 1071.26 Q122.13 1071.81 124.607 1071.81 Q128.612 1071.81 130.95 1069.71 Q133.288 1067.6 133.288 1063.99 Q133.288 1060.38 130.95 1058.27 Q128.612 1056.16 124.607 1056.16 Q122.732 1056.16 120.857 1056.58 Q119.006 1057 117.061 1057.88 L117.061 1040.52 Z" fill="#000000" fill-rule="nonzero" fill-opacity="1"></path><path clip-path="url(#clip940)" d="M157.177 1043.59 Q153.566 1043.59 151.737 1047.16 Q149.931 1050.7 149.931 1057.83 Q149.931 1064.94 151.737 1068.5 Q153.566 1072.04 157.177 1072.04 Q160.811 1072.04 162.616 1068.5 Q164.445 1064.94 164.445 1057.83 Q164.445 1050.7 162.616 1047.16 Q160.811 1043.59 157.177 1043.59 M157.177 1039.89 Q162.987 1039.89 166.042 1044.5 Q169.121 1049.08 169.121 1057.83 Q169.121 1066.56 166.042 1071.16 Q162.987 1075.75 157.177 1075.75 Q151.366 1075.75 148.288 1071.16 Q145.232 1066.56 145.232 1057.83 Q145.232 1049.08 148.288 1044.5 Q151.366 1039.89 157.177 1039.89 Z" fill="#000000" fill-rule="nonzero" fill-opacity="1"></path><path clip-path="url(#clip940)" d="M187.338 1043.59 Q183.727 1043.59 181.899 1047.16 Q180.093 1050.7 180.093 1057.83 Q180.093 1064.94 181.899 1068.5 Q183.727 1072.04 187.338 1072.04 Q190.973 1072.04 192.778 1068.5 Q194.607 1064.94 194.607 1057.83 Q194.607 1050.7 192.778 1047.16 Q190.973 1043.59 187.338 1043.59 M187.338 1039.89 Q193.149 1039.89 196.204 1044.5 Q199.283 1049.08 199.283 1057.83 Q199.283 1066.56 196.204 1071.16 Q193.149 1075.75 187.338 1075.75 Q181.528 1075.75 178.45 1071.16 Q175.394 1066.56 175.394 1057.83 Q175.394 1049.08 178.45 1044.5 Q181.528 1039.89 187.338 1039.89 Z" fill="#000000" fill-rule="nonzero" fill-opacity="1"></path><path clip-path="url(#clip940)" d="M217.5 1043.59 Q213.889 1043.59 212.061 1047.16 Q210.255 1050.7 210.255 1057.83 Q210.255 1064.94 212.061 1068.5 Q213.889 1072.04 217.5 1072.04 Q221.135 1072.04 222.94 1068.5 Q224.769 1064.94 224.769 1057.83 Q224.769 1050.7 222.94 1047.16 Q221.135 1043.59 217.5 1043.59 M217.5 1039.89 Q223.31 1039.89 226.366 1044.5 Q229.445 1049.08 229.445 1057.83 Q229.445 1066.56 226.366 1071.16 Q223.31 1075.75 217.5 1075.75 Q211.69 1075.75 208.612 1071.16 Q205.556 1066.56 205.556 1057.83 Q205.556 1049.08 208.612 1044.5 Q211.69 1039.89 217.5 1039.89 Z" fill="#000000" fill-rule="nonzero" fill-opacity="1"></path><path clip-path="url(#clip940)" d="M117.061 810.995 L135.417 810.995 L135.417 814.93 L121.343 814.93 L121.343 823.402 Q122.362 823.055 123.38 822.893 Q124.399 822.708 125.418 822.708 Q131.205 822.708 134.584 825.879 Q137.964 829.05 137.964 834.467 Q137.964 840.046 134.492 843.147 Q131.019 846.226 124.7 846.226 Q122.524 846.226 120.255 845.856 Q118.01 845.485 115.603 844.745 L115.603 840.046 Q117.686 841.18 119.908 841.735 Q122.13 842.291 124.607 842.291 Q128.612 842.291 130.95 840.184 Q133.288 838.078 133.288 834.467 Q133.288 830.856 130.95 828.749 Q128.612 826.643 124.607 826.643 Q122.732 826.643 120.857 827.059 Q119.006 827.476 117.061 828.356 L117.061 810.995 Z" fill="#000000" fill-rule="nonzero" fill-opacity="1"></path><path clip-path="url(#clip940)" d="M151.204 841.62 L167.524 841.62 L167.524 845.555 L145.579 845.555 L145.579 841.62 Q148.241 838.865 152.825 834.235 Q157.431 829.583 158.612 828.24 Q160.857 825.717 161.737 823.981 Q162.64 822.222 162.64 820.532 Q162.64 817.777 160.695 816.041 Q158.774 814.305 155.672 814.305 Q153.473 814.305 151.019 815.069 Q148.589 815.833 145.811 817.384 L145.811 812.661 Q148.635 811.527 151.089 810.948 Q153.542 810.37 155.579 810.37 Q160.95 810.37 164.144 813.055 Q167.339 815.74 167.339 820.231 Q167.339 822.36 166.528 824.282 Q165.741 826.18 163.635 828.772 Q163.056 829.444 159.954 832.661 Q156.853 835.856 151.204 841.62 Z" fill="#000000" fill-rule="nonzero" fill-opacity="1"></path><path clip-path="url(#clip940)" d="M177.385 810.995 L195.741 810.995 L195.741 814.93 L181.667 814.93 L181.667 823.402 Q182.686 823.055 183.704 822.893 Q184.723 822.708 185.741 822.708 Q191.528 822.708 194.908 825.879 Q198.287 829.05 198.287 834.467 Q198.287 840.046 194.815 843.147 Q191.343 846.226 185.024 846.226 Q182.848 846.226 180.579 845.856 Q178.334 845.485 175.926 844.745 L175.926 840.046 Q178.01 841.18 180.232 841.735 Q182.454 842.291 184.931 842.291 Q188.936 842.291 191.274 840.184 Q193.612 838.078 193.612 834.467 Q193.612 830.856 191.274 828.749 Q188.936 826.643 184.931 826.643 Q183.056 826.643 181.181 827.059 Q179.329 827.476 177.385 828.356 L177.385 810.995 Z" fill="#000000" fill-rule="nonzero" fill-opacity="1"></path><path clip-path="url(#clip940)" d="M217.5 814.073 Q213.889 814.073 212.061 817.638 Q210.255 821.18 210.255 828.309 Q210.255 835.416 212.061 838.981 Q213.889 842.522 217.5 842.522 Q221.135 842.522 222.94 838.981 Q224.769 835.416 224.769 828.309 Q224.769 821.18 222.94 817.638 Q221.135 814.073 217.5 814.073 M217.5 810.37 Q223.31 810.37 226.366 814.976 Q229.445 819.56 229.445 828.309 Q229.445 837.036 226.366 841.643 Q223.31 846.226 217.5 846.226 Q211.69 846.226 208.612 841.643 Q205.556 837.036 205.556 828.309 Q205.556 819.56 208.612 814.976 Q211.69 810.37 217.5 810.37 Z" fill="#000000" fill-rule="nonzero" fill-opacity="1"></path><path clip-path="url(#clip940)" d="M117.061 581.474 L135.417 581.474 L135.417 585.409 L121.343 585.409 L121.343 593.881 Q122.362 593.534 123.38 593.372 Q124.399 593.187 125.418 593.187 Q131.205 593.187 134.584 596.358 Q137.964 599.529 137.964 604.946 Q137.964 610.525 134.492 613.626 Q131.019 616.705 124.7 616.705 Q122.524 616.705 120.255 616.335 Q118.01 615.964 115.603 615.224 L115.603 610.525 Q117.686 611.659 119.908 612.214 Q122.13 612.77 124.607 612.77 Q128.612 612.77 130.95 610.663 Q133.288 608.557 133.288 604.946 Q133.288 601.335 130.95 599.228 Q128.612 597.122 124.607 597.122 Q122.732 597.122 120.857 597.538 Q119.006 597.955 117.061 598.835 L117.061 581.474 Z" fill="#000000" fill-rule="nonzero" fill-opacity="1"></path><path clip-path="url(#clip940)" d="M147.223 581.474 L165.579 581.474 L165.579 585.409 L151.505 585.409 L151.505 593.881 Q152.524 593.534 153.542 593.372 Q154.561 593.187 155.579 593.187 Q161.366 593.187 164.746 596.358 Q168.126 599.529 168.126 604.946 Q168.126 610.525 164.653 613.626 Q161.181 616.705 154.862 616.705 Q152.686 616.705 150.417 616.335 Q148.172 615.964 145.765 615.224 L145.765 610.525 Q147.848 611.659 150.07 612.214 Q152.292 612.77 154.769 612.77 Q158.774 612.77 161.112 610.663 Q163.45 608.557 163.45 604.946 Q163.45 601.335 161.112 599.228 Q158.774 597.122 154.769 597.122 Q152.894 597.122 151.019 597.538 Q149.167 597.955 147.223 598.835 L147.223 581.474 Z" fill="#000000" fill-rule="nonzero" fill-opacity="1"></path><path clip-path="url(#clip940)" d="M187.338 584.552 Q183.727 584.552 181.899 588.117 Q180.093 591.659 180.093 598.788 Q180.093 605.895 181.899 609.46 Q183.727 613.001 187.338 613.001 Q190.973 613.001 192.778 609.46 Q194.607 605.895 194.607 598.788 Q194.607 591.659 192.778 588.117 Q190.973 584.552 187.338 584.552 M187.338 580.849 Q193.149 580.849 196.204 585.455 Q199.283 590.039 199.283 598.788 Q199.283 607.515 196.204 612.122 Q193.149 616.705 187.338 616.705 Q181.528 616.705 178.45 612.122 Q175.394 607.515 175.394 598.788 Q175.394 590.039 178.45 585.455 Q181.528 580.849 187.338 580.849 Z" fill="#000000" fill-rule="nonzero" fill-opacity="1"></path><path clip-path="url(#clip940)" d="M217.5 584.552 Q213.889 584.552 212.061 588.117 Q210.255 591.659 210.255 598.788 Q210.255 605.895 212.061 609.46 Q213.889 613.001 217.5 613.001 Q221.135 613.001 222.94 609.46 Q224.769 605.895 224.769 598.788 Q224.769 591.659 222.94 588.117 Q221.135 584.552 217.5 584.552 M217.5 580.849 Q223.31 580.849 226.366 585.455 Q229.445 590.039 229.445 598.788 Q229.445 607.515 226.366 612.122 Q223.31 616.705 217.5 616.705 Q211.69 616.705 208.612 612.122 Q205.556 607.515 205.556 598.788 Q205.556 590.039 208.612 585.455 Q211.69 580.849 217.5 580.849 Z" fill="#000000" fill-rule="nonzero" fill-opacity="1"></path><path clip-path="url(#clip940)" d="M117.061 351.953 L135.417 351.953 L135.417 355.888 L121.343 355.888 L121.343 364.36 Q122.362 364.013 123.38 363.851 Q124.399 363.666 125.418 363.666 Q131.205 363.666 134.584 366.837 Q137.964 370.008 137.964 375.425 Q137.964 381.004 134.492 384.105 Q131.019 387.184 124.7 387.184 Q122.524 387.184 120.255 386.814 Q118.01 386.443 115.603 385.703 L115.603 381.004 Q117.686 382.138 119.908 382.693 Q122.13 383.249 124.607 383.249 Q128.612 383.249 130.95 381.142 Q133.288 379.036 133.288 375.425 Q133.288 371.814 130.95 369.707 Q128.612 367.601 124.607 367.601 Q122.732 367.601 120.857 368.018 Q119.006 368.434 117.061 369.314 L117.061 351.953 Z" fill="#000000" fill-rule="nonzero" fill-opacity="1"></path><path clip-path="url(#clip940)" d="M145.996 351.953 L168.218 351.953 L168.218 353.944 L155.672 386.513 L150.788 386.513 L162.593 355.888 L145.996 355.888 L145.996 351.953 Z" fill="#000000" fill-rule="nonzero" fill-opacity="1"></path><path clip-path="url(#clip940)" d="M177.385 351.953 L195.741 351.953 L195.741 355.888 L181.667 355.888 L181.667 364.36 Q182.686 364.013 183.704 363.851 Q184.723 363.666 185.741 363.666 Q191.528 363.666 194.908 366.837 Q198.287 370.008 198.287 375.425 Q198.287 381.004 194.815 384.105 Q191.343 387.184 185.024 387.184 Q182.848 387.184 180.579 386.814 Q178.334 386.443 175.926 385.703 L175.926 381.004 Q178.01 382.138 180.232 382.693 Q182.454 383.249 184.931 383.249 Q188.936 383.249 191.274 381.142 Q193.612 379.036 193.612 375.425 Q193.612 371.814 191.274 369.707 Q188.936 367.601 184.931 367.601 Q183.056 367.601 181.181 368.018 Q179.329 368.434 177.385 369.314 L177.385 351.953 Z" fill="#000000" fill-rule="nonzero" fill-opacity="1"></path><path clip-path="url(#clip940)" d="M217.5 355.031 Q213.889 355.031 212.061 358.596 Q210.255 362.138 210.255 369.267 Q210.255 376.374 212.061 379.939 Q213.889 383.48 217.5 383.48 Q221.135 383.48 222.94 379.939 Q224.769 376.374 224.769 369.267 Q224.769 362.138 222.94 358.596 Q221.135 355.031 217.5 355.031 M217.5 351.328 Q223.31 351.328 226.366 355.934 Q229.445 360.518 229.445 369.267 Q229.445 377.994 226.366 382.601 Q223.31 387.184 217.5 387.184 Q211.69 387.184 208.612 382.601 Q205.556 377.994 205.556 369.267 Q205.556 360.518 208.612 355.934 Q211.69 351.328 217.5 351.328 Z" fill="#000000" fill-rule="nonzero" fill-opacity="1"></path><path clip-path="url(#clip940)" d="M127.593 137.848 Q124.445 137.848 122.593 140.001 Q120.765 142.154 120.765 145.904 Q120.765 149.631 122.593 151.807 Q124.445 153.959 127.593 153.959 Q130.742 153.959 132.57 151.807 Q134.422 149.631 134.422 145.904 Q134.422 142.154 132.57 140.001 Q130.742 137.848 127.593 137.848 M136.876 123.196 L136.876 127.455 Q135.117 126.622 133.311 126.182 Q131.529 125.742 129.769 125.742 Q125.14 125.742 122.686 128.867 Q120.255 131.992 119.908 138.311 Q121.274 136.297 123.334 135.233 Q125.394 134.145 127.871 134.145 Q133.08 134.145 136.089 137.316 Q139.121 140.464 139.121 145.904 Q139.121 151.228 135.973 154.446 Q132.825 157.663 127.593 157.663 Q121.598 157.663 118.427 153.08 Q115.256 148.473 115.256 139.747 Q115.256 131.552 119.144 126.691 Q123.033 121.807 129.584 121.807 Q131.343 121.807 133.126 122.154 Q134.931 122.501 136.876 123.196 Z" fill="#000000" fill-rule="nonzero" fill-opacity="1"></path><path clip-path="url(#clip940)" d="M157.177 125.51 Q153.566 125.51 151.737 129.075 Q149.931 132.617 149.931 139.747 Q149.931 146.853 151.737 150.418 Q153.566 153.959 157.177 153.959 Q160.811 153.959 162.616 150.418 Q164.445 146.853 164.445 139.747 Q164.445 132.617 162.616 129.075 Q160.811 125.51 157.177 125.51 M157.177 121.807 Q162.987 121.807 166.042 126.413 Q169.121 130.997 169.121 139.747 Q169.121 148.473 166.042 153.08 Q162.987 157.663 157.177 157.663 Q151.366 157.663 148.288 153.08 Q145.232 148.473 145.232 139.747 Q145.232 130.997 148.288 126.413 Q151.366 121.807 157.177 121.807 Z" fill="#000000" fill-rule="nonzero" fill-opacity="1"></path><path clip-path="url(#clip940)" d="M187.338 125.51 Q183.727 125.51 181.899 129.075 Q180.093 132.617 180.093 139.747 Q180.093 146.853 181.899 150.418 Q183.727 153.959 187.338 153.959 Q190.973 153.959 192.778 150.418 Q194.607 146.853 194.607 139.747 Q194.607 132.617 192.778 129.075 Q190.973 125.51 187.338 125.51 M187.338 121.807 Q193.149 121.807 196.204 126.413 Q199.283 130.997 199.283 139.747 Q199.283 148.473 196.204 153.08 Q193.149 157.663 187.338 157.663 Q181.528 157.663 178.45 153.08 Q175.394 148.473 175.394 139.747 Q175.394 130.997 178.45 126.413 Q181.528 121.807 187.338 121.807 Z" fill="#000000" fill-rule="nonzero" fill-opacity="1"></path><path clip-path="url(#clip940)" d="M217.5 125.51 Q213.889 125.51 212.061 129.075 Q210.255 132.617 210.255 139.747 Q210.255 146.853 212.061 150.418 Q213.889 153.959 217.5 153.959 Q221.135 153.959 222.94 150.418 Q224.769 146.853 224.769 139.747 Q224.769 132.617 222.94 129.075 Q221.135 125.51 217.5 125.51 M217.5 121.807 Q223.31 121.807 226.366 126.413 Q229.445 130.997 229.445 139.747 Q229.445 148.473 226.366 153.08 Q223.31 157.663 217.5 157.663 Q211.69 157.663 208.612 153.08 Q205.556 148.473 205.556 139.747 Q205.556 130.997 208.612 126.413 Q211.69 121.807 217.5 121.807 Z" fill="#000000" fill-rule="nonzero" fill-opacity="1"></path><path clip-path="url(#clip940)" d="M16.4842 1105.34 L16.4842 1075.3 L21.895 1075.3 L21.895 1098.91 L35.9632 1098.91 L35.9632 1076.28 L41.3741 1076.28 L41.3741 1098.91 L58.5933 1098.91 L58.5933 1074.72 L64.0042 1074.72 L64.0042 1105.34 L16.4842 1105.34 Z" fill="#000000" fill-rule="nonzero" fill-opacity="1"></path><path clip-path="url(#clip940)" d="M14.479 1064.41 L14.479 1058.55 L64.0042 1058.55 L64.0042 1064.41 L14.479 1064.41 Z" fill="#000000" fill-rule="nonzero" fill-opacity="1"></path><path clip-path="url(#clip940)" d="M44.7161 1015.81 L47.5806 1015.81 L47.5806 1042.74 Q53.6281 1042.35 56.8109 1039.11 Q59.9619 1035.83 59.9619 1030 Q59.9619 1026.63 59.1344 1023.48 Q58.3069 1020.3 56.6518 1017.18 L62.1899 1017.18 Q63.5267 1020.33 64.227 1023.64 Q64.9272 1026.95 64.9272 1030.35 Q64.9272 1038.88 59.9619 1043.88 Q54.9967 1048.85 46.5303 1048.85 Q37.7774 1048.85 32.6531 1044.14 Q27.4968 1039.39 27.4968 1031.37 Q27.4968 1024.18 32.1438 1020.01 Q36.7589 1015.81 44.7161 1015.81 M42.9973 1021.66 Q38.1912 1021.73 35.3266 1024.37 Q32.4621 1026.98 32.4621 1031.31 Q32.4621 1036.21 35.2312 1039.17 Q38.0002 1042.1 43.0292 1042.54 L42.9973 1021.66 Z" fill="#000000" fill-rule="nonzero" fill-opacity="1"></path><path clip-path="url(#clip940)" d="M28.3562 1010.4 L28.3562 1004.19 L58.275 993.051 L28.3562 981.911 L28.3562 975.704 L64.0042 989.072 L64.0042 997.029 L28.3562 1010.4 Z" fill="#000000" fill-rule="nonzero" fill-opacity="1"></path><path clip-path="url(#clip940)" d="M46.0847 951.419 Q46.0847 958.517 47.7079 961.254 Q49.3312 963.991 53.2461 963.991 Q56.3653 963.991 58.2114 961.954 Q60.0256 959.885 60.0256 956.352 Q60.0256 951.483 56.5881 948.554 Q53.1188 945.594 47.3897 945.594 L46.0847 945.594 L46.0847 951.419 M43.6657 939.738 L64.0042 939.738 L64.0042 945.594 L58.5933 945.594 Q61.8398 947.6 63.3994 950.591 Q64.9272 953.583 64.9272 957.912 Q64.9272 963.387 61.8716 966.633 Q58.7843 969.848 53.6281 969.848 Q47.6125 969.848 44.5569 965.837 Q41.5014 961.795 41.5014 953.806 L41.5014 945.594 L40.9285 945.594 Q36.8862 945.594 34.6901 948.268 Q32.4621 950.91 32.4621 955.716 Q32.4621 958.771 33.1941 961.668 Q33.9262 964.564 35.3903 967.238 L29.9795 967.238 Q28.7381 964.023 28.1334 960.999 Q27.4968 957.976 27.4968 955.111 Q27.4968 947.377 31.5072 943.557 Q35.5176 939.738 43.6657 939.738 Z" fill="#000000" fill-rule="nonzero" fill-opacity="1"></path><path clip-path="url(#clip940)" d="M18.2347 921.882 L28.3562 921.882 L28.3562 909.819 L32.9077 909.819 L32.9077 921.882 L52.2594 921.882 Q56.6199 921.882 57.8613 920.704 Q59.1026 919.495 59.1026 915.835 L59.1026 909.819 L64.0042 909.819 L64.0042 915.835 Q64.0042 922.614 61.4897 925.192 Q58.9434 927.77 52.2594 927.77 L32.9077 927.77 L32.9077 932.067 L28.3562 932.067 L28.3562 927.77 L18.2347 927.77 L18.2347 921.882 Z" fill="#000000" fill-rule="nonzero" fill-opacity="1"></path><path clip-path="url(#clip940)" d="M28.3562 902.117 L28.3562 896.26 L64.0042 896.26 L64.0042 902.117 L28.3562 902.117 M14.479 902.117 L14.479 896.26 L21.895 896.26 L21.895 902.117 L14.479 902.117 Z" fill="#000000" fill-rule="nonzero" fill-opacity="1"></path><path clip-path="url(#clip940)" d="M32.4621 870.193 Q32.4621 874.903 36.1542 877.64 Q39.8145 880.378 46.212 880.378 Q52.6095 880.378 56.3017 877.672 Q59.9619 874.935 59.9619 870.193 Q59.9619 865.514 56.2698 862.777 Q52.5777 860.039 46.212 860.039 Q39.8781 860.039 36.186 862.777 Q32.4621 865.514 32.4621 870.193 M27.4968 870.193 Q27.4968 862.554 32.4621 858.193 Q37.4273 853.833 46.212 853.833 Q54.9649 853.833 59.9619 858.193 Q64.9272 862.554 64.9272 870.193 Q64.9272 877.863 59.9619 882.224 Q54.9649 886.552 46.212 886.552 Q37.4273 886.552 32.4621 882.224 Q27.4968 877.863 27.4968 870.193 Z" fill="#000000" fill-rule="nonzero" fill-opacity="1"></path><path clip-path="url(#clip940)" d="M42.4881 814.493 L64.0042 814.493 L64.0042 820.349 L42.679 820.349 Q37.6183 820.349 35.1038 822.322 Q32.5894 824.296 32.5894 828.243 Q32.5894 832.985 35.6131 835.722 Q38.6368 838.46 43.8567 838.46 L64.0042 838.46 L64.0042 844.348 L28.3562 844.348 L28.3562 838.46 L33.8944 838.46 Q30.6797 836.359 29.0883 833.526 Q27.4968 830.662 27.4968 826.938 Q27.4968 820.795 31.3163 817.644 Q35.1038 814.493 42.4881 814.493 Z" fill="#000000" fill-rule="nonzero" fill-opacity="1"></path><path clip-path="url(#clip940)" d="M14.5426 768.023 Q21.8632 772.288 29.0246 774.357 Q36.186 776.426 43.5384 776.426 Q50.8908 776.426 58.1159 774.357 Q65.3091 772.256 72.5979 768.023 L72.5979 773.116 Q65.1182 777.89 57.8931 780.277 Q50.668 782.632 43.5384 782.632 Q36.4406 782.632 29.2474 780.277 Q22.0542 777.922 14.5426 773.116 L14.5426 768.023 Z" fill="#000000" fill-rule="nonzero" fill-opacity="1"></path><path clip-path="url(#clip940)" d="M35.1993 728.906 Q31.2526 726.71 29.3747 723.654 Q27.4968 720.598 27.4968 716.461 Q27.4968 710.891 31.4117 707.867 Q35.2948 704.843 42.4881 704.843 L64.0042 704.843 L64.0042 710.732 L42.679 710.732 Q37.5546 710.732 35.072 712.546 Q32.5894 714.36 32.5894 718.084 Q32.5894 722.635 35.6131 725.277 Q38.6368 727.919 43.8567 727.919 L64.0042 727.919 L64.0042 733.807 L42.679 733.807 Q37.5228 733.807 35.072 735.622 Q32.5894 737.436 32.5894 741.223 Q32.5894 745.711 35.6449 748.353 Q38.6686 750.995 43.8567 750.995 L64.0042 750.995 L64.0042 756.883 L28.3562 756.883 L28.3562 750.995 L33.8944 750.995 Q30.616 748.99 29.0564 746.189 Q27.4968 743.388 27.4968 739.536 Q27.4968 735.653 29.4702 732.948 Q31.4436 730.211 35.1993 728.906 Z" fill="#000000" fill-rule="nonzero" fill-opacity="1"></path><path clip-path="url(#clip940)" d="M55.9197 692.335 L55.9197 685.619 L64.0042 685.619 L64.0042 692.335 L55.9197 692.335 Z" fill="#000000" fill-rule="nonzero" fill-opacity="1"></path><path clip-path="url(#clip940)" d="M46.0847 656.241 Q46.0847 663.339 47.7079 666.076 Q49.3312 668.813 53.2461 668.813 Q56.3653 668.813 58.2114 666.776 Q60.0256 664.708 60.0256 661.175 Q60.0256 656.305 56.5881 653.377 Q53.1188 650.417 47.3897 650.417 L46.0847 650.417 L46.0847 656.241 M43.6657 644.56 L64.0042 644.56 L64.0042 650.417 L58.5933 650.417 Q61.8398 652.422 63.3994 655.414 Q64.9272 658.406 64.9272 662.734 Q64.9272 668.209 61.8716 671.455 Q58.7843 674.67 53.6281 674.67 Q47.6125 674.67 44.5569 670.66 Q41.5014 666.617 41.5014 658.628 L41.5014 650.417 L40.9285 650.417 Q36.8862 650.417 34.6901 653.09 Q32.4621 655.732 32.4621 660.538 Q32.4621 663.594 33.1941 666.49 Q33.9262 669.386 35.3903 672.06 L29.9795 672.06 Q28.7381 668.845 28.1334 665.822 Q27.4968 662.798 27.4968 659.933 Q27.4968 652.199 31.5072 648.38 Q35.5176 644.56 43.6657 644.56 Z" fill="#000000" fill-rule="nonzero" fill-opacity="1"></path><path clip-path="url(#clip940)" d="M55.9197 631.67 L55.9197 624.954 L64.0042 624.954 L64.0042 631.67 L55.9197 631.67 Z" fill="#000000" fill-rule="nonzero" fill-opacity="1"></path><path clip-path="url(#clip940)" d="M29.4065 589.051 L34.9447 589.051 Q33.6716 591.534 33.035 594.207 Q32.3984 596.881 32.3984 599.746 Q32.3984 604.106 33.7352 606.302 Q35.072 608.467 37.7456 608.467 Q39.7826 608.467 40.9603 606.907 Q42.1061 605.347 43.1565 600.637 L43.6021 598.632 Q44.9389 592.393 47.3897 589.783 Q49.8086 587.141 54.1691 587.141 Q59.1344 587.141 62.0308 591.088 Q64.9272 595.003 64.9272 601.878 Q64.9272 604.743 64.3543 607.862 Q63.8132 610.949 62.6992 614.387 L56.6518 614.387 Q58.3387 611.14 59.198 607.989 Q60.0256 604.838 60.0256 601.751 Q60.0256 597.613 58.6251 595.385 Q57.1929 593.157 54.6147 593.157 Q52.2276 593.157 50.9545 594.78 Q49.6813 596.372 48.5037 601.814 L48.0262 603.851 Q46.8804 609.294 44.5251 611.713 Q42.138 614.132 38.0002 614.132 Q32.9713 614.132 30.2341 610.567 Q27.4968 607.002 27.4968 600.446 Q27.4968 597.199 27.9743 594.335 Q28.4517 591.47 29.4065 589.051 Z" fill="#000000" fill-rule="nonzero" fill-opacity="1"></path><path clip-path="url(#clip940)" d="M55.9197 576.988 L55.9197 570.272 L64.0042 570.272 L64.0042 576.988 L55.9197 576.988 Z" fill="#000000" fill-rule="nonzero" fill-opacity="1"></path><path clip-path="url(#clip940)" d="M14.479 557.095 L14.479 551.239 L64.0042 551.239 L64.0042 557.095 L14.479 557.095 Z" fill="#000000" fill-rule="nonzero" fill-opacity="1"></path><path clip-path="url(#clip940)" d="M55.9197 538.157 L55.9197 531.442 L64.0042 531.442 L64.0042 538.157 L55.9197 538.157 Z" fill="#000000" fill-rule="nonzero" fill-opacity="1"></path><path clip-path="url(#clip940)" d="M14.5426 519.188 L14.5426 514.095 Q22.0542 509.321 29.2474 506.965 Q36.4406 504.578 43.5384 504.578 Q50.668 504.578 57.8931 506.965 Q65.1182 509.321 72.5979 514.095 L72.5979 519.188 Q65.3091 514.954 58.1159 512.885 Q50.8908 510.785 43.5384 510.785 Q36.186 510.785 29.0246 512.885 Q21.8632 514.954 14.5426 519.188 Z" fill="#000000" fill-rule="nonzero" fill-opacity="1"></path><path clip-path="url(#clip940)" d="M1002.89 9.62495 Q997.464 18.942 994.831 28.0566 Q992.198 37.1711 992.198 46.5287 Q992.198 55.8863 994.831 65.0818 Q997.505 74.2369 1002.89 83.5134 L996.411 83.5134 Q990.335 73.9938 987.296 64.7983 Q984.299 55.6027 984.299 46.5287 Q984.299 37.4952 987.296 28.3401 Q990.294 19.1851 996.411 9.62495 L1002.89 9.62495 Z" fill="#000000" fill-rule="nonzero" fill-opacity="1"></path><path clip-path="url(#clip940)" d="M1040.32 9.54393 L1040.32 15.7418 L1033.19 15.7418 Q1029.18 15.7418 1027.6 17.3622 Q1026.06 18.9825 1026.06 23.1955 L1026.06 27.2059 L1038.34 27.2059 L1038.34 32.9987 L1026.06 32.9987 L1026.06 72.576 L1018.57 72.576 L1018.57 32.9987 L1011.44 32.9987 L1011.44 27.2059 L1018.57 27.2059 L1018.57 24.0462 Q1018.57 16.471 1022.09 13.0277 Q1025.62 9.54393 1033.27 9.54393 L1040.32 9.54393 Z" fill="#000000" fill-rule="nonzero" fill-opacity="1"></path><path clip-path="url(#clip940)" d="M1064.14 32.4315 Q1058.15 32.4315 1054.66 37.1306 Q1051.18 41.7891 1051.18 49.9314 Q1051.18 58.0738 1054.62 62.7728 Q1058.11 67.4314 1064.14 67.4314 Q1070.1 67.4314 1073.58 62.7323 Q1077.06 58.0333 1077.06 49.9314 Q1077.06 41.8701 1073.58 37.1711 Q1070.1 32.4315 1064.14 32.4315 M1064.14 26.1121 Q1073.86 26.1121 1079.41 32.4315 Q1084.96 38.7509 1084.96 49.9314 Q1084.96 61.0714 1079.41 67.4314 Q1073.86 73.7508 1064.14 73.7508 Q1054.38 73.7508 1048.83 67.4314 Q1043.32 61.0714 1043.32 49.9314 Q1043.32 38.7509 1048.83 32.4315 Q1054.38 26.1121 1064.14 26.1121 Z" fill="#000000" fill-rule="nonzero" fill-opacity="1"></path><path clip-path="url(#clip940)" d="M1123.61 34.1734 Q1122.35 33.4443 1120.85 33.1202 Q1119.4 32.7556 1117.61 32.7556 Q1111.29 32.7556 1107.89 36.8875 Q1104.53 40.9789 1104.53 48.6757 L1104.53 72.576 L1097.04 72.576 L1097.04 27.2059 L1104.53 27.2059 L1104.53 34.2544 Q1106.88 30.1225 1110.65 28.1376 Q1114.41 26.1121 1119.8 26.1121 Q1120.57 26.1121 1121.5 26.2337 Q1122.43 26.3147 1123.57 26.5172 L1123.61 34.1734 Z" fill="#000000" fill-rule="nonzero" fill-opacity="1"></path><path clip-path="url(#clip940)" d="M1160.27 65.6895 L1173.64 65.6895 L1173.64 19.5497 L1159.1 22.4663 L1159.1 15.0127 L1173.56 12.096 L1181.74 12.096 L1181.74 65.6895 L1195.11 65.6895 L1195.11 72.576 L1160.27 72.576 L1160.27 65.6895 Z" fill="#000000" fill-rule="nonzero" fill-opacity="1"></path><path clip-path="url(#clip940)" d="M1229.14 17.4837 Q1222.82 17.4837 1219.62 23.7221 Q1216.46 29.92 1216.46 42.3968 Q1216.46 54.833 1219.62 61.0714 Q1222.82 67.2693 1229.14 67.2693 Q1235.5 67.2693 1238.66 61.0714 Q1241.86 54.833 1241.86 42.3968 Q1241.86 29.92 1238.66 23.7221 Q1235.5 17.4837 1229.14 17.4837 M1229.14 11.0023 Q1239.3 11.0023 1244.65 19.0636 Q1250.04 27.0843 1250.04 42.3968 Q1250.04 57.6687 1244.65 65.73 Q1239.3 73.7508 1229.14 73.7508 Q1218.97 73.7508 1213.58 65.73 Q1208.23 57.6687 1208.23 42.3968 Q1208.23 27.0843 1213.58 19.0636 Q1218.97 11.0023 1229.14 11.0023 Z" fill="#000000" fill-rule="nonzero" fill-opacity="1"></path><path clip-path="url(#clip940)" d="M1281.92 17.4837 Q1275.6 17.4837 1272.4 23.7221 Q1269.24 29.92 1269.24 42.3968 Q1269.24 54.833 1272.4 61.0714 Q1275.6 67.2693 1281.92 67.2693 Q1288.28 67.2693 1291.44 61.0714 Q1294.64 54.833 1294.64 42.3968 Q1294.64 29.92 1291.44 23.7221 Q1288.28 17.4837 1281.92 17.4837 M1281.92 11.0023 Q1292.09 11.0023 1297.43 19.0636 Q1302.82 27.0843 1302.82 42.3968 Q1302.82 57.6687 1297.43 65.73 Q1292.09 73.7508 1281.92 73.7508 Q1271.75 73.7508 1266.36 65.73 Q1261.02 57.6687 1261.02 42.3968 Q1261.02 27.0843 1266.36 19.0636 Q1271.75 11.0023 1281.92 11.0023 Z" fill="#000000" fill-rule="nonzero" fill-opacity="1"></path><path clip-path="url(#clip940)" d="M1317.2 62.2867 L1325.75 62.2867 L1325.75 72.576 L1317.2 72.576 L1317.2 62.2867 Z" fill="#000000" fill-rule="nonzero" fill-opacity="1"></path><path clip-path="url(#clip940)" d="M1361.07 17.4837 Q1354.75 17.4837 1351.55 23.7221 Q1348.39 29.92 1348.39 42.3968 Q1348.39 54.833 1351.55 61.0714 Q1354.75 67.2693 1361.07 67.2693 Q1367.43 67.2693 1370.59 61.0714 Q1373.79 54.833 1373.79 42.3968 Q1373.79 29.92 1370.59 23.7221 Q1367.43 17.4837 1361.07 17.4837 M1361.07 11.0023 Q1371.24 11.0023 1376.59 19.0636 Q1381.98 27.0843 1381.98 42.3968 Q1381.98 57.6687 1376.59 65.73 Q1371.24 73.7508 1361.07 73.7508 Q1350.91 73.7508 1345.52 65.73 Q1340.17 57.6687 1340.17 42.3968 Q1340.17 27.0843 1345.52 19.0636 Q1350.91 11.0023 1361.07 11.0023 Z" fill="#000000" fill-rule="nonzero" fill-opacity="1"></path><path clip-path="url(#clip940)" d="M1440.55 76.7889 Q1437.39 84.8907 1434.39 87.3618 Q1431.4 89.8329 1426.37 89.8329 L1420.42 89.8329 L1420.42 83.5945 L1424.79 83.5945 Q1427.87 83.5945 1429.57 82.1361 Q1431.28 80.6778 1433.34 75.2496 L1434.68 71.8468 L1416.33 27.2059 L1424.23 27.2059 L1438.41 62.6918 L1452.58 27.2059 L1460.48 27.2059 L1440.55 76.7889 Z" fill="#000000" fill-rule="nonzero" fill-opacity="1"></path><path clip-path="url(#clip940)" d="M1509.58 48.0275 L1509.58 51.6733 L1475.31 51.6733 Q1475.8 59.3701 1479.93 63.421 Q1484.1 67.4314 1491.51 67.4314 Q1495.81 67.4314 1499.82 66.3781 Q1503.87 65.3249 1507.84 63.2184 L1507.84 70.267 Q1503.83 71.9684 1499.61 72.8596 Q1495.4 73.7508 1491.07 73.7508 Q1480.21 73.7508 1473.85 67.4314 Q1467.53 61.1119 1467.53 50.3365 Q1467.53 39.1965 1473.53 32.6746 Q1479.56 26.1121 1489.77 26.1121 Q1498.93 26.1121 1504.23 32.0264 Q1509.58 37.9003 1509.58 48.0275 M1502.13 45.84 Q1502.04 39.7232 1498.68 36.0774 Q1495.36 32.4315 1489.85 32.4315 Q1483.61 32.4315 1479.85 35.9558 Q1476.12 39.4801 1475.55 45.8805 L1502.13 45.84 Z" fill="#000000" fill-rule="nonzero" fill-opacity="1"></path><path clip-path="url(#clip940)" d="M1542.43 49.7694 Q1533.4 49.7694 1529.92 51.8354 Q1526.43 53.9013 1526.43 58.8839 Q1526.43 62.8538 1529.02 65.2034 Q1531.66 67.5124 1536.15 67.5124 Q1542.35 67.5124 1546.08 63.1374 Q1549.85 58.7219 1549.85 51.4303 L1549.85 49.7694 L1542.43 49.7694 M1557.3 46.6907 L1557.3 72.576 L1549.85 72.576 L1549.85 65.6895 Q1547.29 69.8214 1543.49 71.8063 Q1539.68 73.7508 1534.17 73.7508 Q1527.2 73.7508 1523.07 69.8619 Q1518.98 65.9325 1518.98 59.3701 Q1518.98 51.7138 1524.08 47.825 Q1529.23 43.9361 1539.39 43.9361 L1549.85 43.9361 L1549.85 43.2069 Q1549.85 38.0623 1546.44 35.2672 Q1543.08 32.4315 1536.96 32.4315 Q1533.07 32.4315 1529.39 33.3632 Q1525.7 34.295 1522.3 36.1584 L1522.3 29.2718 Q1526.39 27.692 1530.24 26.9223 Q1534.09 26.1121 1537.73 26.1121 Q1547.58 26.1121 1552.44 31.2163 Q1557.3 36.3204 1557.3 46.6907 Z" fill="#000000" fill-rule="nonzero" fill-opacity="1"></path><path clip-path="url(#clip940)" d="M1598.94 34.1734 Q1597.69 33.4443 1596.19 33.1202 Q1594.73 32.7556 1592.95 32.7556 Q1586.63 32.7556 1583.23 36.8875 Q1579.86 40.9789 1579.86 48.6757 L1579.86 72.576 L1572.37 72.576 L1572.37 27.2059 L1579.86 27.2059 L1579.86 34.2544 Q1582.21 30.1225 1585.98 28.1376 Q1589.75 26.1121 1595.13 26.1121 Q1595.9 26.1121 1596.84 26.2337 Q1597.77 26.3147 1598.9 26.5172 L1598.94 34.1734 Z" fill="#000000" fill-rule="nonzero" fill-opacity="1"></path><path clip-path="url(#clip940)" d="M1635.68 28.5427 L1635.68 35.5912 Q1632.52 33.9709 1629.12 33.1607 Q1625.72 32.3505 1622.07 32.3505 Q1616.52 32.3505 1613.73 34.0519 Q1610.97 35.7533 1610.97 39.156 Q1610.97 41.7486 1612.96 43.2475 Q1614.94 44.7058 1620.94 46.0426 L1623.49 46.6097 Q1631.43 48.3111 1634.75 51.4303 Q1638.11 54.509 1638.11 60.0587 Q1638.11 66.3781 1633.09 70.0644 Q1628.11 73.7508 1619.36 73.7508 Q1615.71 73.7508 1611.74 73.0216 Q1607.81 72.3329 1603.44 70.9151 L1603.44 63.2184 Q1607.57 65.3654 1611.58 66.4591 Q1615.59 67.5124 1619.52 67.5124 Q1624.79 67.5124 1627.62 65.73 Q1630.46 63.9071 1630.46 60.6258 Q1630.46 57.5877 1628.39 55.9673 Q1626.37 54.3469 1619.44 52.8481 L1616.85 52.2405 Q1609.92 50.7821 1606.84 47.7845 Q1603.76 44.7463 1603.76 39.4801 Q1603.76 33.0797 1608.3 29.5959 Q1612.84 26.1121 1621.18 26.1121 Q1625.31 26.1121 1628.96 26.7198 Q1632.61 27.3274 1635.68 28.5427 Z" fill="#000000" fill-rule="nonzero" fill-opacity="1"></path><path clip-path="url(#clip940)" d="M1648.81 9.62495 L1655.29 9.62495 Q1661.37 19.1851 1664.36 28.3401 Q1667.4 37.4952 1667.4 46.5287 Q1667.4 55.6027 1664.36 64.7983 Q1661.37 73.9938 1655.29 83.5134 L1648.81 83.5134 Q1654.2 74.2369 1656.83 65.0818 Q1659.5 55.8863 1659.5 46.5287 Q1659.5 37.1711 1656.83 28.0566 Q1654.2 18.942 1648.81 9.62495 Z" fill="#000000" fill-rule="nonzero" fill-opacity="1"></path><polyline clip-path="url(#clip942)" style="stroke:#a52a2a; stroke-linecap:round; stroke-linejoin:round; stroke-width:4; stroke-opacity:1; fill:none" points="324.52,210.396 346.896,224.148 369.273,227.064 391.65,235.804 414.027,256.101 436.404,286.738 458.781,323.092 481.157,357.336 503.534,387.281 525.911,414.467 548.288,441.138 570.665,465.577 593.042,488.185 615.418,508.314 637.795,526.486 660.172,542.803 682.549,557.759 704.926,572.585 727.303,592.359 749.679,610.475 772.056,622.015 794.433,632.051 816.81,640.965 839.187,646.96 861.564,655.011 883.94,666.092 906.317,678.811 928.694,693.249 951.071,707.85 973.448,723.758 995.825,737.618 1018.2,749.663 1040.58,761.283 1062.96,768.879 1085.33,777.56 1107.71,790.635 1130.09,797.897 1152.46,807.097 1174.84,817.705 1197.22,834.618 1219.59,847.518 1241.97,861.712 1264.35,883.775 1286.72,910.113 1309.1,939.822 1331.48,970.673 1353.85,999.073 1376.23,1021.61 1398.61,1036.05 1420.98,1042.73 1443.36,1045.13 1465.74,1047.26 1488.11,1051.08 1510.49,1056.5 1532.87,1062.8 1555.25,1069.74 1577.62,1077.44 1600,1085.68 1622.38,1093.89 1644.75,1101.62 1667.13,1108.92 1689.51,1116.04 1711.88,1122.82 1734.26,1128.69 1756.64,1133.35 1779.01,1137.03 1801.39,1140.09 1823.77,1142.58 1846.14,1144.35 1868.52,1145.34 1890.9,1145.87 1913.27,1146.74 1935.65,1148.64 1958.03,1151.66 1980.41,1155.54 2002.78,1160.54 2025.16,1168.07 2047.54,1180.41 2069.91,1199.79 2092.29,1226.94 2114.67,1259.78 2137.04,1294.5 2159.42,1328.08 2181.8,1358.56 2204.17,1384.98 2226.55,1407.46 2248.93,1426.11 2271.3,1440.12 2293.68,1447.87 "></polyline>
<polyline clip-path="url(#clip942)" style="stroke:#0000ff; stroke-linecap:round; stroke-linejoin:round; stroke-width:4; stroke-opacity:1; fill:none" points="324.52,162.047 346.896,171.713 369.273,182.627 391.65,200.316 414.027,225.521 436.404,258.869 458.781,294.199 481.157,325.509 503.534,353.373 525.911,379.879 548.288,404.634 570.665,426.356 593.042,445.207 615.418,462.162 637.795,477.568 660.172,492.101 682.549,506.218 704.926,520.737 727.303,534.086 749.679,544.827 772.056,554.716 794.433,564.868 816.81,575.029 839.187,585.693 861.564,597.732 883.94,610.827 906.317,624.559 928.694,638.378 951.071,651.899 973.448,664.586 995.825,676.045 1018.2,686.774 1040.58,696.784 1062.96,706.62 1085.33,717.22 1107.71,727.493 1130.09,737.532 1152.46,748.893 1174.84,761.189 1197.22,781.164 1219.59,805.058 1241.97,824.089 1264.35,850.169 1286.72,878.393 1309.1,909.429 1331.48,940.01 1353.85,966.37 1376.23,988.323 1398.61,1009.35 1420.98,1041.11 1443.36,1045.13 1465.74,1047.26 1488.11,1051.08 1510.49,1056.5 1532.87,1062.8 1555.25,1069.74 1577.62,1077.44 1600,1085.68 1622.38,1093.89 1644.75,1101.62 1667.13,1108.92 1689.51,1116.04 1711.88,1122.82 1734.26,1128.69 1756.64,1133.35 1779.01,1137.03 1801.39,1140.09 1823.77,1142.58 1846.14,1144.35 1868.52,1145.34 1890.9,1145.87 1913.27,1146.74 1935.65,1148.64 1958.03,1151.66 1980.41,1155.54 2002.78,1160.54 2025.16,1168.07 2047.54,1180.41 2069.91,1199.79 2092.29,1226.94 2114.67,1259.78 2137.04,1294.5 2159.42,1328.08 2181.8,1358.56 2204.17,1384.98 2226.55,1407.46 2248.93,1426.11 2271.3,1440.12 2293.68,1447.87 "></polyline>
<polyline clip-path="url(#clip942)" style="stroke:#ff0000; stroke-linecap:round; stroke-linejoin:round; stroke-width:4; stroke-opacity:1; fill:none" points="324.52,166.06 346.896,175.709 369.273,186.543 391.65,204.044 414.027,228.959 436.404,261.893 458.781,296.778 481.157,327.678 503.534,355.205 525.911,381.488 548.288,406.086 570.665,427.695 593.042,446.445 615.418,463.253 637.795,478.594 660.172,493.056 682.549,507.099 704.926,521.557 727.303,534.85 749.679,545.524 772.056,555.34 794.433,565.416 816.81,575.497 839.187,586.082 861.564,598.035 883.94,611.047 906.317,624.703 928.694,638.457 951.071,651.918 973.448,664.549 995.825,675.945 1018.2,686.609 1040.58,696.551 1062.96,706.314 1085.33,716.846 1107.71,727.041 1130.09,736.991 1152.46,748.253 1174.84,760.43 1197.22,780.196 1219.59,803.933 1241.97,822.822 1264.35,848.749 1286.72,876.862 1309.1,907.757 1331.48,938.367 1353.85,964.436 1376.23,985.946 1398.61,1005.42 1420.98,1034.19 1443.36,1045.13 1465.74,1047.26 1488.11,1051.08 1510.49,1056.5 1532.87,1062.8 1555.25,1069.74 1577.62,1077.44 1600,1085.68 1622.38,1093.89 1644.75,1101.62 1667.13,1108.92 1689.51,1116.04 1711.88,1122.82 1734.26,1128.69 1756.64,1133.35 1779.01,1137.03 1801.39,1140.09 1823.77,1142.58 1846.14,1144.35 1868.52,1145.34 1890.9,1145.87 1913.27,1146.74 1935.65,1148.64 1958.03,1151.66 1980.41,1155.54 2002.78,1160.54 2025.16,1168.07 2047.54,1180.41 2069.91,1199.79 2092.29,1226.94 2114.67,1259.78 2137.04,1294.5 2159.42,1328.08 2181.8,1358.56 2204.17,1384.98 2226.55,1407.46 2248.93,1426.11 2271.3,1440.12 2293.68,1447.87 "></polyline>
<polyline clip-path="url(#clip942)" style="stroke:#008000; stroke-linecap:round; stroke-linejoin:round; stroke-width:4; stroke-opacity:1; fill:none" points="324.52,165.047 346.896,174.607 369.273,185.904 391.65,203.242 414.027,228.032 436.404,260.95 458.781,296.216 481.157,327.56 503.534,355.234 525.911,381.741 548.288,406.745 570.665,428.823 593.042,447.845 615.418,465.022 637.795,480.694 660.172,495.359 682.549,509.734 704.926,524.274 727.303,538.839 749.679,549.262 772.056,559.389 794.433,569.626 816.81,580.088 839.187,590.55 861.564,603.072 883.94,616.52 906.317,630.914 928.694,645.786 951.071,660.4 973.448,674.943 995.825,687.827 1018.2,700.487 1040.58,712.709 1062.96,724.689 1085.33,739.487 1107.71,757.062 1130.09,776.962 1152.46,797.252 1174.84,816.787 1197.22,833.7 1219.59,847.518 1241.97,861.712 1264.35,883.775 1286.72,910.113 1309.1,939.822 1331.48,970.673 1353.85,999.073 1376.23,1021.61 1398.61,1036.05 1420.98,1042.73 1443.36,1045.13 1465.74,1047.26 1488.11,1051.08 1510.49,1056.5 1532.87,1062.8 1555.25,1069.74 1577.62,1077.44 1600,1085.68 1622.38,1093.89 1644.75,1101.62 1667.13,1108.92 1689.51,1116.04 1711.88,1122.82 1734.26,1128.69 1756.64,1133.35 1779.01,1137.03 1801.39,1140.09 1823.77,1142.58 1846.14,1144.35 1868.52,1145.34 1890.9,1145.87 1913.27,1146.74 1935.65,1148.64 1958.03,1151.66 1980.41,1155.54 2002.78,1160.54 2025.16,1168.07 2047.54,1180.41 2069.91,1199.79 2092.29,1226.94 2114.67,1259.78 2137.04,1294.5 2159.42,1328.08 2181.8,1358.56 2204.17,1384.98 2226.55,1407.46 2248.93,1426.11 2271.3,1440.12 2293.68,1447.87 "></polyline>
<polyline clip-path="url(#clip942)" style="stroke:#000000; stroke-linecap:round; stroke-linejoin:round; stroke-width:4; stroke-opacity:1; fill:none" stroke-dasharray="16, 10" points="324.52,167.933 346.896,176.769 369.273,188.165 391.65,204.807 414.027,229.751 436.404,262.333 458.781,296.624 481.157,327.456 503.534,355.4 525.911,381.826 548.288,406.299 570.665,427.777 593.042,446.54 615.418,463.349 637.795,478.738 660.172,493.263 682.549,507.494 704.926,521.727 727.303,534.675 749.679,545.556 772.056,555.592 794.433,565.71 816.81,575.971 839.187,586.819 861.564,598.873 883.94,612.003 906.317,625.797 928.694,639.756 951.071,653.434 973.448,666.312 995.825,678.128 1018.2,689.162 1040.58,699.587 1062.96,709.983 1085.33,720.904 1107.71,731.663 1130.09,742.436 1152.46,754.208 1174.84,767.887 1197.22,786.801 1219.59,806.953 1241.97,827.701 1264.35,853.317 1286.72,881.877 1309.1,908.077 1331.48,966.78 1353.85,999.073 1376.23,1021.61 1398.61,1036.05 1420.98,1042.73 1443.36,1045.13 1465.74,1047.26 1488.11,1051.08 1510.49,1056.5 1532.87,1062.8 1555.25,1069.74 1577.62,1077.44 1600,1085.68 1622.38,1093.89 1644.75,1101.62 1667.13,1108.92 1689.51,1116.04 1711.88,1122.82 1734.26,1128.69 1756.64,1133.35 1779.01,1137.03 1801.39,1140.09 1823.77,1142.58 1846.14,1144.35 1868.52,1145.34 1890.9,1145.87 1913.27,1146.74 1935.65,1148.64 1958.03,1151.66 1980.41,1155.54 2002.78,1160.54 2025.16,1168.07 2047.54,1180.41 2069.91,1199.79 2092.29,1226.94 2114.67,1259.78 2137.04,1294.5 2159.42,1328.08 2181.8,1358.56 2204.17,1384.98 2226.55,1407.46 2248.93,1426.11 2271.3,1440.12 2293.68,1447.87 "></polyline>
<path clip-path="url(#clip940)" d="M1729.73 479.945 L2283.18 479.945 L2283.18 168.905 L1729.73 168.905  Z" fill="#f8f8ff" fill-rule="evenodd" fill-opacity="1"></path>
<polyline clip-path="url(#clip940)" style="stroke:#000000; stroke-linecap:round; stroke-linejoin:round; stroke-width:4; stroke-opacity:1; fill:none" points="1729.73,479.945 2283.18,479.945 2283.18,168.905 1729.73,168.905 1729.73,479.945 "></polyline>
<polyline clip-path="url(#clip940)" style="stroke:#a52a2a; stroke-linecap:round; stroke-linejoin:round; stroke-width:4; stroke-opacity:1; fill:none" points="1752.92,220.745 1892.07,220.745 "></polyline>
<path clip-path="url(#clip940)" d="M1934.04 225.085 Q1934.04 220.386 1932.09 217.724 Q1930.17 215.039 1926.79 215.039 Q1923.41 215.039 1921.47 217.724 Q1919.55 220.386 1919.55 225.085 Q1919.55 229.784 1921.47 232.469 Q1923.41 235.131 1926.79 235.131 Q1930.17 235.131 1932.09 232.469 Q1934.04 229.784 1934.04 225.085 M1919.55 216.034 Q1920.89 213.719 1922.93 212.608 Q1924.99 211.474 1927.84 211.474 Q1932.56 211.474 1935.5 215.224 Q1938.46 218.974 1938.46 225.085 Q1938.46 231.196 1935.5 234.946 Q1932.56 238.696 1927.84 238.696 Q1924.99 238.696 1922.93 237.585 Q1920.89 236.451 1919.55 234.136 L1919.55 238.025 L1915.27 238.025 L1915.27 202.006 L1919.55 202.006 L1919.55 216.034 Z" fill="#000000" fill-rule="nonzero" fill-opacity="1"></path><path clip-path="url(#clip940)" d="M1967.7 223.997 L1967.7 226.08 L1948.11 226.08 Q1948.39 230.478 1950.75 232.793 Q1953.14 235.085 1957.37 235.085 Q1959.83 235.085 1962.12 234.483 Q1964.43 233.881 1966.7 232.677 L1966.7 236.705 Q1964.41 237.677 1962 238.187 Q1959.59 238.696 1957.12 238.696 Q1950.91 238.696 1947.28 235.085 Q1943.67 231.474 1943.67 225.316 Q1943.67 218.951 1947.09 215.224 Q1950.54 211.474 1956.38 211.474 Q1961.61 211.474 1964.64 214.853 Q1967.7 218.21 1967.7 223.997 M1963.44 222.747 Q1963.39 219.252 1961.47 217.168 Q1959.57 215.085 1956.42 215.085 Q1952.86 215.085 1950.71 217.099 Q1948.58 219.113 1948.25 222.77 L1963.44 222.747 Z" fill="#000000" fill-rule="nonzero" fill-opacity="1"></path><path clip-path="url(#clip940)" d="M1991.75 216.034 L1991.75 202.006 L1996.01 202.006 L1996.01 238.025 L1991.75 238.025 L1991.75 234.136 Q1990.4 236.451 1988.34 237.585 Q1986.31 238.696 1983.44 238.696 Q1978.74 238.696 1975.78 234.946 Q1972.84 231.196 1972.84 225.085 Q1972.84 218.974 1975.78 215.224 Q1978.74 211.474 1983.44 211.474 Q1986.31 211.474 1988.34 212.608 Q1990.4 213.719 1991.75 216.034 M1977.23 225.085 Q1977.23 229.784 1979.15 232.469 Q1981.1 235.131 1984.48 235.131 Q1987.86 235.131 1989.8 232.469 Q1991.75 229.784 1991.75 225.085 Q1991.75 220.386 1989.8 217.724 Q1987.86 215.039 1984.48 215.039 Q1981.1 215.039 1979.15 217.724 Q1977.23 220.386 1977.23 225.085 Z" fill="#000000" fill-rule="nonzero" fill-opacity="1"></path><polyline clip-path="url(#clip940)" style="stroke:#0000ff; stroke-linecap:round; stroke-linejoin:round; stroke-width:4; stroke-opacity:1; fill:none" points="1752.92,272.585 1892.07,272.585 "></polyline>
<path clip-path="url(#clip940)" d="M1933.69 264.703 L1933.69 268.731 Q1931.89 267.805 1929.94 267.342 Q1928 266.879 1925.91 266.879 Q1922.74 266.879 1921.15 267.851 Q1919.57 268.823 1919.57 270.768 Q1919.57 272.249 1920.71 273.105 Q1921.84 273.939 1925.27 274.703 L1926.72 275.027 Q1931.26 275.999 1933.16 277.781 Q1935.08 279.541 1935.08 282.712 Q1935.08 286.323 1932.21 288.429 Q1929.36 290.536 1924.36 290.536 Q1922.28 290.536 1920.01 290.119 Q1917.77 289.726 1915.27 288.916 L1915.27 284.517 Q1917.63 285.744 1919.92 286.369 Q1922.21 286.971 1924.46 286.971 Q1927.47 286.971 1929.09 285.953 Q1930.71 284.911 1930.71 283.036 Q1930.71 281.3 1929.53 280.374 Q1928.37 279.448 1924.41 278.592 L1922.93 278.244 Q1918.97 277.411 1917.21 275.698 Q1915.45 273.962 1915.45 270.953 Q1915.45 267.295 1918.04 265.305 Q1920.64 263.314 1925.4 263.314 Q1927.77 263.314 1929.85 263.661 Q1931.93 264.008 1933.69 264.703 Z" fill="#000000" fill-rule="nonzero" fill-opacity="1"></path><path clip-path="url(#clip940)" d="M1941.42 279.633 L1941.42 263.939 L1945.68 263.939 L1945.68 279.471 Q1945.68 283.152 1947.12 285.004 Q1948.55 286.832 1951.42 286.832 Q1954.87 286.832 1956.86 284.633 Q1958.88 282.434 1958.88 278.638 L1958.88 263.939 L1963.14 263.939 L1963.14 289.865 L1958.88 289.865 L1958.88 285.883 Q1957.33 288.244 1955.27 289.402 Q1953.23 290.536 1950.52 290.536 Q1946.05 290.536 1943.74 287.758 Q1941.42 284.98 1941.42 279.633 M1952.14 263.314 L1952.14 263.314 Z" fill="#000000" fill-rule="nonzero" fill-opacity="1"></path><path clip-path="url(#clip940)" d="M1986.93 267.92 Q1986.21 267.504 1985.36 267.318 Q1984.53 267.11 1983.51 267.11 Q1979.9 267.11 1977.95 269.471 Q1976.03 271.809 1976.03 276.207 L1976.03 289.865 L1971.75 289.865 L1971.75 263.939 L1976.03 263.939 L1976.03 267.967 Q1977.37 265.606 1979.53 264.471 Q1981.68 263.314 1984.76 263.314 Q1985.2 263.314 1985.73 263.383 Q1986.26 263.43 1986.91 263.545 L1986.93 267.92 Z" fill="#000000" fill-rule="nonzero" fill-opacity="1"></path><path clip-path="url(#clip940)" d="M2004.52 253.846 L2004.52 257.388 L2000.45 257.388 Q1998.16 257.388 1997.26 258.314 Q1996.38 259.24 1996.38 261.647 L1996.38 263.939 L2003.39 263.939 L2003.39 267.249 L1996.38 267.249 L1996.38 289.865 L1992.09 289.865 L1992.09 267.249 L1988.02 267.249 L1988.02 263.939 L1992.09 263.939 L1992.09 262.133 Q1992.09 257.805 1994.11 255.837 Q1996.12 253.846 2000.5 253.846 L2004.52 253.846 Z" fill="#000000" fill-rule="nonzero" fill-opacity="1"></path><path clip-path="url(#clip940)" d="M2019.87 276.832 Q2014.71 276.832 2012.72 278.013 Q2010.73 279.193 2010.73 282.041 Q2010.73 284.309 2012.21 285.652 Q2013.71 286.971 2016.28 286.971 Q2019.83 286.971 2021.96 284.471 Q2024.11 281.948 2024.11 277.781 L2024.11 276.832 L2019.87 276.832 M2028.37 275.073 L2028.37 289.865 L2024.11 289.865 L2024.11 285.929 Q2022.65 288.291 2020.47 289.425 Q2018.3 290.536 2015.15 290.536 Q2011.17 290.536 2008.81 288.314 Q2006.47 286.068 2006.47 282.318 Q2006.47 277.943 2009.39 275.721 Q2012.33 273.499 2018.14 273.499 L2024.11 273.499 L2024.11 273.082 Q2024.11 270.143 2022.16 268.545 Q2020.24 266.925 2016.75 266.925 Q2014.52 266.925 2012.42 267.457 Q2010.31 267.99 2008.37 269.055 L2008.37 265.119 Q2010.71 264.217 2012.9 263.777 Q2015.1 263.314 2017.19 263.314 Q2022.81 263.314 2025.59 266.231 Q2028.37 269.147 2028.37 275.073 Z" fill="#000000" fill-rule="nonzero" fill-opacity="1"></path><path clip-path="url(#clip940)" d="M2055.8 264.934 L2055.8 268.916 Q2053.99 267.92 2052.16 267.434 Q2050.36 266.925 2048.51 266.925 Q2044.36 266.925 2042.07 269.564 Q2039.78 272.18 2039.78 276.925 Q2039.78 281.67 2042.07 284.309 Q2044.36 286.925 2048.51 286.925 Q2050.36 286.925 2052.16 286.439 Q2053.99 285.929 2055.8 284.934 L2055.8 288.869 Q2054.02 289.703 2052.09 290.119 Q2050.2 290.536 2048.04 290.536 Q2042.19 290.536 2038.74 286.855 Q2035.29 283.175 2035.29 276.925 Q2035.29 270.582 2038.76 266.948 Q2042.26 263.314 2048.32 263.314 Q2050.29 263.314 2052.16 263.731 Q2054.04 264.124 2055.8 264.934 Z" fill="#000000" fill-rule="nonzero" fill-opacity="1"></path><path clip-path="url(#clip940)" d="M2085.38 275.837 L2085.38 277.92 L2065.8 277.92 Q2066.08 282.318 2068.44 284.633 Q2070.82 286.925 2075.06 286.925 Q2077.51 286.925 2079.8 286.323 Q2082.12 285.721 2084.39 284.517 L2084.39 288.545 Q2082.09 289.517 2079.69 290.027 Q2077.28 290.536 2074.8 290.536 Q2068.6 290.536 2064.96 286.925 Q2061.35 283.314 2061.35 277.156 Q2061.35 270.791 2064.78 267.064 Q2068.23 263.314 2074.06 263.314 Q2079.29 263.314 2082.33 266.693 Q2085.38 270.05 2085.38 275.837 M2081.12 274.587 Q2081.08 271.092 2079.15 269.008 Q2077.26 266.925 2074.11 266.925 Q2070.54 266.925 2068.39 268.939 Q2066.26 270.953 2065.94 274.61 L2081.12 274.587 Z" fill="#000000" fill-rule="nonzero" fill-opacity="1"></path><path clip-path="url(#clip940)" d="M2123.97 264.703 L2123.97 268.731 Q2122.16 267.805 2120.22 267.342 Q2118.27 266.879 2116.19 266.879 Q2113.02 266.879 2111.42 267.851 Q2109.85 268.823 2109.85 270.768 Q2109.85 272.249 2110.98 273.105 Q2112.12 273.939 2115.54 274.703 L2117 275.027 Q2121.54 275.999 2123.44 277.781 Q2125.36 279.541 2125.36 282.712 Q2125.36 286.323 2122.49 288.429 Q2119.64 290.536 2114.64 290.536 Q2112.56 290.536 2110.29 290.119 Q2108.04 289.726 2105.54 288.916 L2105.54 284.517 Q2107.9 285.744 2110.2 286.369 Q2112.49 286.971 2114.73 286.971 Q2117.74 286.971 2119.36 285.953 Q2120.98 284.911 2120.98 283.036 Q2120.98 281.3 2119.8 280.374 Q2118.64 279.448 2114.69 278.592 L2113.2 278.244 Q2109.25 277.411 2107.49 275.698 Q2105.73 273.962 2105.73 270.953 Q2105.73 267.295 2108.32 265.305 Q2110.91 263.314 2115.68 263.314 Q2118.04 263.314 2120.13 263.661 Q2122.21 264.008 2123.97 264.703 Z" fill="#000000" fill-rule="nonzero" fill-opacity="1"></path><path clip-path="url(#clip940)" d="M2142.19 266.925 Q2138.76 266.925 2136.77 269.61 Q2134.78 272.272 2134.78 276.925 Q2134.78 281.578 2136.75 284.263 Q2138.74 286.925 2142.19 286.925 Q2145.59 286.925 2147.58 284.24 Q2149.57 281.555 2149.57 276.925 Q2149.57 272.318 2147.58 269.633 Q2145.59 266.925 2142.19 266.925 M2142.19 263.314 Q2147.74 263.314 2150.91 266.925 Q2154.08 270.536 2154.08 276.925 Q2154.08 283.291 2150.91 286.925 Q2147.74 290.536 2142.19 290.536 Q2136.61 290.536 2133.44 286.925 Q2130.29 283.291 2130.29 276.925 Q2130.29 270.536 2133.44 266.925 Q2136.61 263.314 2142.19 263.314 Z" fill="#000000" fill-rule="nonzero" fill-opacity="1"></path><path clip-path="url(#clip940)" d="M2161.14 253.846 L2165.4 253.846 L2165.4 289.865 L2161.14 289.865 L2161.14 253.846 Z" fill="#000000" fill-rule="nonzero" fill-opacity="1"></path><path clip-path="url(#clip940)" d="M2171.26 263.939 L2175.77 263.939 L2183.88 285.698 L2191.98 263.939 L2196.49 263.939 L2186.77 289.865 L2180.98 289.865 L2171.26 263.939 Z" fill="#000000" fill-rule="nonzero" fill-opacity="1"></path><path clip-path="url(#clip940)" d="M2224.55 275.837 L2224.55 277.92 L2204.96 277.92 Q2205.24 282.318 2207.6 284.633 Q2209.99 286.925 2214.22 286.925 Q2216.68 286.925 2218.97 286.323 Q2221.28 285.721 2223.55 284.517 L2223.55 288.545 Q2221.26 289.517 2218.85 290.027 Q2216.45 290.536 2213.97 290.536 Q2207.76 290.536 2204.13 286.925 Q2200.52 283.314 2200.52 277.156 Q2200.52 270.791 2203.95 267.064 Q2207.39 263.314 2213.23 263.314 Q2218.46 263.314 2221.49 266.693 Q2224.55 270.05 2224.55 275.837 M2220.29 274.587 Q2220.24 271.092 2218.32 269.008 Q2216.42 266.925 2213.27 266.925 Q2209.71 266.925 2207.56 268.939 Q2205.43 270.953 2205.1 274.61 L2220.29 274.587 Z" fill="#000000" fill-rule="nonzero" fill-opacity="1"></path><path clip-path="url(#clip940)" d="M2246.56 267.92 Q2245.84 267.504 2244.99 267.318 Q2244.15 267.11 2243.13 267.11 Q2239.52 267.11 2237.58 269.471 Q2235.66 271.809 2235.66 276.207 L2235.66 289.865 L2231.38 289.865 L2231.38 263.939 L2235.66 263.939 L2235.66 267.967 Q2237 265.606 2239.15 264.471 Q2241.31 263.314 2244.38 263.314 Q2244.82 263.314 2245.36 263.383 Q2245.89 263.43 2246.54 263.545 L2246.56 267.92 Z" fill="#000000" fill-rule="nonzero" fill-opacity="1"></path><polyline clip-path="url(#clip940)" style="stroke:#ff0000; stroke-linecap:round; stroke-linejoin:round; stroke-width:4; stroke-opacity:1; fill:none" points="1752.92,324.425 1892.07,324.425 "></polyline>
<path clip-path="url(#clip940)" d="M1933.69 316.543 L1933.69 320.571 Q1931.89 319.645 1929.94 319.182 Q1928 318.719 1925.91 318.719 Q1922.74 318.719 1921.15 319.691 Q1919.57 320.663 1919.57 322.608 Q1919.57 324.089 1920.71 324.945 Q1921.84 325.779 1925.27 326.543 L1926.72 326.867 Q1931.26 327.839 1933.16 329.621 Q1935.08 331.381 1935.08 334.552 Q1935.08 338.163 1932.21 340.269 Q1929.36 342.376 1924.36 342.376 Q1922.28 342.376 1920.01 341.959 Q1917.77 341.566 1915.27 340.756 L1915.27 336.357 Q1917.63 337.584 1919.92 338.209 Q1922.21 338.811 1924.46 338.811 Q1927.47 338.811 1929.09 337.793 Q1930.71 336.751 1930.71 334.876 Q1930.71 333.14 1929.53 332.214 Q1928.37 331.288 1924.41 330.432 L1922.93 330.084 Q1918.97 329.251 1917.21 327.538 Q1915.45 325.802 1915.45 322.793 Q1915.45 319.135 1918.04 317.145 Q1920.64 315.154 1925.4 315.154 Q1927.77 315.154 1929.85 315.501 Q1931.93 315.848 1933.69 316.543 Z" fill="#000000" fill-rule="nonzero" fill-opacity="1"></path><path clip-path="url(#clip940)" d="M1941.42 331.473 L1941.42 315.779 L1945.68 315.779 L1945.68 331.311 Q1945.68 334.992 1947.12 336.844 Q1948.55 338.672 1951.42 338.672 Q1954.87 338.672 1956.86 336.473 Q1958.88 334.274 1958.88 330.478 L1958.88 315.779 L1963.14 315.779 L1963.14 341.705 L1958.88 341.705 L1958.88 337.723 Q1957.33 340.084 1955.27 341.242 Q1953.23 342.376 1950.52 342.376 Q1946.05 342.376 1943.74 339.598 Q1941.42 336.82 1941.42 331.473 M1952.14 315.154 L1952.14 315.154 Z" fill="#000000" fill-rule="nonzero" fill-opacity="1"></path><path clip-path="url(#clip940)" d="M1986.93 319.76 Q1986.21 319.344 1985.36 319.158 Q1984.53 318.95 1983.51 318.95 Q1979.9 318.95 1977.95 321.311 Q1976.03 323.649 1976.03 328.047 L1976.03 341.705 L1971.75 341.705 L1971.75 315.779 L1976.03 315.779 L1976.03 319.807 Q1977.37 317.446 1979.53 316.311 Q1981.68 315.154 1984.76 315.154 Q1985.2 315.154 1985.73 315.223 Q1986.26 315.27 1986.91 315.385 L1986.93 319.76 Z" fill="#000000" fill-rule="nonzero" fill-opacity="1"></path><path clip-path="url(#clip940)" d="M2004.52 305.686 L2004.52 309.228 L2000.45 309.228 Q1998.16 309.228 1997.26 310.154 Q1996.38 311.08 1996.38 313.487 L1996.38 315.779 L2003.39 315.779 L2003.39 319.089 L1996.38 319.089 L1996.38 341.705 L1992.09 341.705 L1992.09 319.089 L1988.02 319.089 L1988.02 315.779 L1992.09 315.779 L1992.09 313.973 Q1992.09 309.645 1994.11 307.677 Q1996.12 305.686 2000.5 305.686 L2004.52 305.686 Z" fill="#000000" fill-rule="nonzero" fill-opacity="1"></path><path clip-path="url(#clip940)" d="M2019.87 328.672 Q2014.71 328.672 2012.72 329.853 Q2010.73 331.033 2010.73 333.881 Q2010.73 336.149 2012.21 337.492 Q2013.71 338.811 2016.28 338.811 Q2019.83 338.811 2021.96 336.311 Q2024.11 333.788 2024.11 329.621 L2024.11 328.672 L2019.87 328.672 M2028.37 326.913 L2028.37 341.705 L2024.11 341.705 L2024.11 337.769 Q2022.65 340.131 2020.47 341.265 Q2018.3 342.376 2015.15 342.376 Q2011.17 342.376 2008.81 340.154 Q2006.47 337.908 2006.47 334.158 Q2006.47 329.783 2009.39 327.561 Q2012.33 325.339 2018.14 325.339 L2024.11 325.339 L2024.11 324.922 Q2024.11 321.983 2022.16 320.385 Q2020.24 318.765 2016.75 318.765 Q2014.52 318.765 2012.42 319.297 Q2010.31 319.83 2008.37 320.895 L2008.37 316.959 Q2010.71 316.057 2012.9 315.617 Q2015.1 315.154 2017.19 315.154 Q2022.81 315.154 2025.59 318.071 Q2028.37 320.987 2028.37 326.913 Z" fill="#000000" fill-rule="nonzero" fill-opacity="1"></path><path clip-path="url(#clip940)" d="M2055.8 316.774 L2055.8 320.756 Q2053.99 319.76 2052.16 319.274 Q2050.36 318.765 2048.51 318.765 Q2044.36 318.765 2042.07 321.404 Q2039.78 324.02 2039.78 328.765 Q2039.78 333.51 2042.07 336.149 Q2044.36 338.765 2048.51 338.765 Q2050.36 338.765 2052.16 338.279 Q2053.99 337.769 2055.8 336.774 L2055.8 340.709 Q2054.02 341.543 2052.09 341.959 Q2050.2 342.376 2048.04 342.376 Q2042.19 342.376 2038.74 338.695 Q2035.29 335.015 2035.29 328.765 Q2035.29 322.422 2038.76 318.788 Q2042.26 315.154 2048.32 315.154 Q2050.29 315.154 2052.16 315.571 Q2054.04 315.964 2055.8 316.774 Z" fill="#000000" fill-rule="nonzero" fill-opacity="1"></path><path clip-path="url(#clip940)" d="M2085.38 327.677 L2085.38 329.76 L2065.8 329.76 Q2066.08 334.158 2068.44 336.473 Q2070.82 338.765 2075.06 338.765 Q2077.51 338.765 2079.8 338.163 Q2082.12 337.561 2084.39 336.357 L2084.39 340.385 Q2082.09 341.357 2079.69 341.867 Q2077.28 342.376 2074.8 342.376 Q2068.6 342.376 2064.96 338.765 Q2061.35 335.154 2061.35 328.996 Q2061.35 322.631 2064.78 318.904 Q2068.23 315.154 2074.06 315.154 Q2079.29 315.154 2082.33 318.533 Q2085.38 321.89 2085.38 327.677 M2081.12 326.427 Q2081.08 322.932 2079.15 320.848 Q2077.26 318.765 2074.11 318.765 Q2070.54 318.765 2068.39 320.779 Q2066.26 322.793 2065.94 326.45 L2081.12 326.427 Z" fill="#000000" fill-rule="nonzero" fill-opacity="1"></path><path clip-path="url(#clip940)" d="M2122.46 319.76 Q2121.75 319.344 2120.89 319.158 Q2120.06 318.95 2119.04 318.95 Q2115.43 318.95 2113.48 321.311 Q2111.56 323.649 2111.56 328.047 L2111.56 341.705 L2107.28 341.705 L2107.28 315.779 L2111.56 315.779 L2111.56 319.807 Q2112.9 317.446 2115.06 316.311 Q2117.21 315.154 2120.29 315.154 Q2120.73 315.154 2121.26 315.223 Q2121.79 315.27 2122.44 315.385 L2122.46 319.76 Z" fill="#000000" fill-rule="nonzero" fill-opacity="1"></path><path clip-path="url(#clip940)" d="M2138.71 328.672 Q2133.55 328.672 2131.56 329.853 Q2129.57 331.033 2129.57 333.881 Q2129.57 336.149 2131.05 337.492 Q2132.56 338.811 2135.13 338.811 Q2138.67 338.811 2140.8 336.311 Q2142.95 333.788 2142.95 329.621 L2142.95 328.672 L2138.71 328.672 M2147.21 326.913 L2147.21 341.705 L2142.95 341.705 L2142.95 337.769 Q2141.49 340.131 2139.32 341.265 Q2137.14 342.376 2133.99 342.376 Q2130.01 342.376 2127.65 340.154 Q2125.31 337.908 2125.31 334.158 Q2125.31 329.783 2128.23 327.561 Q2131.17 325.339 2136.98 325.339 L2142.95 325.339 L2142.95 324.922 Q2142.95 321.983 2141.01 320.385 Q2139.08 318.765 2135.59 318.765 Q2133.37 318.765 2131.26 319.297 Q2129.15 319.83 2127.21 320.895 L2127.21 316.959 Q2129.55 316.057 2131.75 315.617 Q2133.95 315.154 2136.03 315.154 Q2141.65 315.154 2144.43 318.071 Q2147.21 320.987 2147.21 326.913 Z" fill="#000000" fill-rule="nonzero" fill-opacity="1"></path><path clip-path="url(#clip940)" d="M2153.51 315.779 L2157.76 315.779 L2163.09 336.01 L2168.39 315.779 L2173.41 315.779 L2178.74 336.01 L2184.04 315.779 L2188.3 315.779 L2181.51 341.705 L2176.49 341.705 L2170.91 320.455 L2165.31 341.705 L2160.29 341.705 L2153.51 315.779 Z" fill="#000000" fill-rule="nonzero" fill-opacity="1"></path><polyline clip-path="url(#clip940)" style="stroke:#008000; stroke-linecap:round; stroke-linejoin:round; stroke-width:4; stroke-opacity:1; fill:none" points="1752.92,376.265 1892.07,376.265 "></polyline>
<path clip-path="url(#clip940)" d="M1933.69 368.383 L1933.69 372.411 Q1931.89 371.485 1929.94 371.022 Q1928 370.559 1925.91 370.559 Q1922.74 370.559 1921.15 371.531 Q1919.57 372.503 1919.57 374.448 Q1919.57 375.929 1920.71 376.785 Q1921.84 377.619 1925.27 378.383 L1926.72 378.707 Q1931.26 379.679 1933.16 381.461 Q1935.08 383.221 1935.08 386.392 Q1935.08 390.003 1932.21 392.109 Q1929.36 394.216 1924.36 394.216 Q1922.28 394.216 1920.01 393.799 Q1917.77 393.406 1915.27 392.596 L1915.27 388.197 Q1917.63 389.424 1919.92 390.049 Q1922.21 390.651 1924.46 390.651 Q1927.47 390.651 1929.09 389.633 Q1930.71 388.591 1930.71 386.716 Q1930.71 384.98 1929.53 384.054 Q1928.37 383.128 1924.41 382.272 L1922.93 381.924 Q1918.97 381.091 1917.21 379.378 Q1915.45 377.642 1915.45 374.633 Q1915.45 370.975 1918.04 368.985 Q1920.64 366.994 1925.4 366.994 Q1927.77 366.994 1929.85 367.341 Q1931.93 367.688 1933.69 368.383 Z" fill="#000000" fill-rule="nonzero" fill-opacity="1"></path><path clip-path="url(#clip940)" d="M1941.42 383.313 L1941.42 367.619 L1945.68 367.619 L1945.68 383.151 Q1945.68 386.832 1947.12 388.684 Q1948.55 390.512 1951.42 390.512 Q1954.87 390.512 1956.86 388.313 Q1958.88 386.114 1958.88 382.318 L1958.88 367.619 L1963.14 367.619 L1963.14 393.545 L1958.88 393.545 L1958.88 389.563 Q1957.33 391.924 1955.27 393.082 Q1953.23 394.216 1950.52 394.216 Q1946.05 394.216 1943.74 391.438 Q1941.42 388.66 1941.42 383.313 M1952.14 366.994 L1952.14 366.994 Z" fill="#000000" fill-rule="nonzero" fill-opacity="1"></path><path clip-path="url(#clip940)" d="M1986.93 371.6 Q1986.21 371.184 1985.36 370.998 Q1984.53 370.79 1983.51 370.79 Q1979.9 370.79 1977.95 373.151 Q1976.03 375.489 1976.03 379.887 L1976.03 393.545 L1971.75 393.545 L1971.75 367.619 L1976.03 367.619 L1976.03 371.647 Q1977.37 369.286 1979.53 368.151 Q1981.68 366.994 1984.76 366.994 Q1985.2 366.994 1985.73 367.063 Q1986.26 367.11 1986.91 367.225 L1986.93 371.6 Z" fill="#000000" fill-rule="nonzero" fill-opacity="1"></path><path clip-path="url(#clip940)" d="M2004.52 357.526 L2004.52 361.068 L2000.45 361.068 Q1998.16 361.068 1997.26 361.994 Q1996.38 362.92 1996.38 365.327 L1996.38 367.619 L2003.39 367.619 L2003.39 370.929 L1996.38 370.929 L1996.38 393.545 L1992.09 393.545 L1992.09 370.929 L1988.02 370.929 L1988.02 367.619 L1992.09 367.619 L1992.09 365.813 Q1992.09 361.485 1994.11 359.517 Q1996.12 357.526 2000.5 357.526 L2004.52 357.526 Z" fill="#000000" fill-rule="nonzero" fill-opacity="1"></path><path clip-path="url(#clip940)" d="M2019.87 380.512 Q2014.71 380.512 2012.72 381.693 Q2010.73 382.873 2010.73 385.721 Q2010.73 387.989 2012.21 389.332 Q2013.71 390.651 2016.28 390.651 Q2019.83 390.651 2021.96 388.151 Q2024.11 385.628 2024.11 381.461 L2024.11 380.512 L2019.87 380.512 M2028.37 378.753 L2028.37 393.545 L2024.11 393.545 L2024.11 389.609 Q2022.65 391.971 2020.47 393.105 Q2018.3 394.216 2015.15 394.216 Q2011.17 394.216 2008.81 391.994 Q2006.47 389.748 2006.47 385.998 Q2006.47 381.623 2009.39 379.401 Q2012.33 377.179 2018.14 377.179 L2024.11 377.179 L2024.11 376.762 Q2024.11 373.823 2022.16 372.225 Q2020.24 370.605 2016.75 370.605 Q2014.52 370.605 2012.42 371.137 Q2010.31 371.67 2008.37 372.735 L2008.37 368.799 Q2010.71 367.897 2012.9 367.457 Q2015.1 366.994 2017.19 366.994 Q2022.81 366.994 2025.59 369.911 Q2028.37 372.827 2028.37 378.753 Z" fill="#000000" fill-rule="nonzero" fill-opacity="1"></path><path clip-path="url(#clip940)" d="M2055.8 368.614 L2055.8 372.596 Q2053.99 371.6 2052.16 371.114 Q2050.36 370.605 2048.51 370.605 Q2044.36 370.605 2042.07 373.244 Q2039.78 375.86 2039.78 380.605 Q2039.78 385.35 2042.07 387.989 Q2044.36 390.605 2048.51 390.605 Q2050.36 390.605 2052.16 390.119 Q2053.99 389.609 2055.8 388.614 L2055.8 392.549 Q2054.02 393.383 2052.09 393.799 Q2050.2 394.216 2048.04 394.216 Q2042.19 394.216 2038.74 390.535 Q2035.29 386.855 2035.29 380.605 Q2035.29 374.262 2038.76 370.628 Q2042.26 366.994 2048.32 366.994 Q2050.29 366.994 2052.16 367.411 Q2054.04 367.804 2055.8 368.614 Z" fill="#000000" fill-rule="nonzero" fill-opacity="1"></path><path clip-path="url(#clip940)" d="M2085.38 379.517 L2085.38 381.6 L2065.8 381.6 Q2066.08 385.998 2068.44 388.313 Q2070.82 390.605 2075.06 390.605 Q2077.51 390.605 2079.8 390.003 Q2082.12 389.401 2084.39 388.197 L2084.39 392.225 Q2082.09 393.197 2079.69 393.707 Q2077.28 394.216 2074.8 394.216 Q2068.6 394.216 2064.96 390.605 Q2061.35 386.994 2061.35 380.836 Q2061.35 374.471 2064.78 370.744 Q2068.23 366.994 2074.06 366.994 Q2079.29 366.994 2082.33 370.373 Q2085.38 373.73 2085.38 379.517 M2081.12 378.267 Q2081.08 374.772 2079.15 372.688 Q2077.26 370.605 2074.11 370.605 Q2070.54 370.605 2068.39 372.619 Q2066.26 374.633 2065.94 378.29 L2081.12 378.267 Z" fill="#000000" fill-rule="nonzero" fill-opacity="1"></path><path clip-path="url(#clip940)" d="M2107.44 367.619 L2111.7 367.619 L2111.7 393.545 L2107.44 393.545 L2107.44 367.619 M2107.44 357.526 L2111.7 357.526 L2111.7 362.92 L2107.44 362.92 L2107.44 357.526 Z" fill="#000000" fill-rule="nonzero" fill-opacity="1"></path><path clip-path="url(#clip940)" d="M2142.16 377.897 L2142.16 393.545 L2137.9 393.545 L2137.9 378.035 Q2137.9 374.355 2136.47 372.526 Q2135.03 370.698 2132.16 370.698 Q2128.71 370.698 2126.72 372.897 Q2124.73 375.096 2124.73 378.892 L2124.73 393.545 L2120.45 393.545 L2120.45 367.619 L2124.73 367.619 L2124.73 371.647 Q2126.26 369.309 2128.32 368.151 Q2130.4 366.994 2133.11 366.994 Q2137.58 366.994 2139.87 369.772 Q2142.16 372.526 2142.16 377.897 Z" fill="#000000" fill-rule="nonzero" fill-opacity="1"></path><path clip-path="url(#clip940)" d="M2150.66 367.619 L2154.92 367.619 L2154.92 393.545 L2150.66 393.545 L2150.66 367.619 M2150.66 357.526 L2154.92 357.526 L2154.92 362.92 L2150.66 362.92 L2150.66 357.526 Z" fill="#000000" fill-rule="nonzero" fill-opacity="1"></path><path clip-path="url(#clip940)" d="M2168.04 360.258 L2168.04 367.619 L2176.82 367.619 L2176.82 370.929 L2168.04 370.929 L2168.04 385.003 Q2168.04 388.174 2168.9 389.077 Q2169.78 389.98 2172.44 389.98 L2176.82 389.98 L2176.82 393.545 L2172.44 393.545 Q2167.51 393.545 2165.64 391.716 Q2163.76 389.864 2163.76 385.003 L2163.76 370.929 L2160.64 370.929 L2160.64 367.619 L2163.76 367.619 L2163.76 360.258 L2168.04 360.258 Z" fill="#000000" fill-rule="nonzero" fill-opacity="1"></path><path clip-path="url(#clip940)" d="M2182.42 367.619 L2186.68 367.619 L2186.68 393.545 L2182.42 393.545 L2182.42 367.619 M2182.42 357.526 L2186.68 357.526 L2186.68 362.92 L2182.42 362.92 L2182.42 357.526 Z" fill="#000000" fill-rule="nonzero" fill-opacity="1"></path><path clip-path="url(#clip940)" d="M2207.37 380.512 Q2202.21 380.512 2200.22 381.693 Q2198.23 382.873 2198.23 385.721 Q2198.23 387.989 2199.71 389.332 Q2201.21 390.651 2203.78 390.651 Q2207.32 390.651 2209.45 388.151 Q2211.61 385.628 2211.61 381.461 L2211.61 380.512 L2207.37 380.512 M2215.87 378.753 L2215.87 393.545 L2211.61 393.545 L2211.61 389.609 Q2210.15 391.971 2207.97 393.105 Q2205.8 394.216 2202.65 394.216 Q2198.67 394.216 2196.31 391.994 Q2193.97 389.748 2193.97 385.998 Q2193.97 381.623 2196.89 379.401 Q2199.82 377.179 2205.63 377.179 L2211.61 377.179 L2211.61 376.762 Q2211.61 373.823 2209.66 372.225 Q2207.74 370.605 2204.25 370.605 Q2202.02 370.605 2199.92 371.137 Q2197.81 371.67 2195.87 372.735 L2195.87 368.799 Q2198.2 367.897 2200.4 367.457 Q2202.6 366.994 2204.69 366.994 Q2210.31 366.994 2213.09 369.911 Q2215.87 372.827 2215.87 378.753 Z" fill="#000000" fill-rule="nonzero" fill-opacity="1"></path><path clip-path="url(#clip940)" d="M2224.64 357.526 L2228.9 357.526 L2228.9 393.545 L2224.64 393.545 L2224.64 357.526 Z" fill="#000000" fill-rule="nonzero" fill-opacity="1"></path><path clip-path="url(#clip940)" d="M2259.99 379.517 L2259.99 381.6 L2240.4 381.6 Q2240.68 385.998 2243.04 388.313 Q2245.43 390.605 2249.66 390.605 Q2252.12 390.605 2254.41 390.003 Q2256.72 389.401 2258.99 388.197 L2258.99 392.225 Q2256.7 393.197 2254.29 393.707 Q2251.88 394.216 2249.41 394.216 Q2243.2 394.216 2239.57 390.605 Q2235.96 386.994 2235.96 380.836 Q2235.96 374.471 2239.38 370.744 Q2242.83 366.994 2248.67 366.994 Q2253.9 366.994 2256.93 370.373 Q2259.99 373.73 2259.99 379.517 M2255.73 378.267 Q2255.68 374.772 2253.76 372.688 Q2251.86 370.605 2248.71 370.605 Q2245.15 370.605 2243 372.619 Q2240.87 374.633 2240.54 378.29 L2255.73 378.267 Z" fill="#000000" fill-rule="nonzero" fill-opacity="1"></path><polyline clip-path="url(#clip940)" style="stroke:#000000; stroke-linecap:round; stroke-linejoin:round; stroke-width:4; stroke-opacity:1; fill:none" stroke-dasharray="16, 10" points="1752.92,428.105 1892.07,428.105 "></polyline>
<path clip-path="url(#clip940)" d="M1933.69 420.223 L1933.69 424.251 Q1931.89 423.325 1929.94 422.862 Q1928 422.399 1925.91 422.399 Q1922.74 422.399 1921.15 423.371 Q1919.57 424.343 1919.57 426.288 Q1919.57 427.769 1920.71 428.625 Q1921.84 429.459 1925.27 430.223 L1926.72 430.547 Q1931.26 431.519 1933.16 433.301 Q1935.08 435.061 1935.08 438.232 Q1935.08 441.843 1932.21 443.949 Q1929.36 446.056 1924.36 446.056 Q1922.28 446.056 1920.01 445.639 Q1917.77 445.246 1915.27 444.436 L1915.27 440.037 Q1917.63 441.264 1919.92 441.889 Q1922.21 442.491 1924.46 442.491 Q1927.47 442.491 1929.09 441.473 Q1930.71 440.431 1930.71 438.556 Q1930.71 436.82 1929.53 435.894 Q1928.37 434.968 1924.41 434.112 L1922.93 433.764 Q1918.97 432.931 1917.21 431.218 Q1915.45 429.482 1915.45 426.473 Q1915.45 422.815 1918.04 420.825 Q1920.64 418.834 1925.4 418.834 Q1927.77 418.834 1929.85 419.181 Q1931.93 419.528 1933.69 420.223 Z" fill="#000000" fill-rule="nonzero" fill-opacity="1"></path><path clip-path="url(#clip940)" d="M1941.42 435.153 L1941.42 419.459 L1945.68 419.459 L1945.68 434.991 Q1945.68 438.672 1947.12 440.524 Q1948.55 442.352 1951.42 442.352 Q1954.87 442.352 1956.86 440.153 Q1958.88 437.954 1958.88 434.158 L1958.88 419.459 L1963.14 419.459 L1963.14 445.385 L1958.88 445.385 L1958.88 441.403 Q1957.33 443.764 1955.27 444.922 Q1953.23 446.056 1950.52 446.056 Q1946.05 446.056 1943.74 443.278 Q1941.42 440.5 1941.42 435.153 M1952.14 418.834 L1952.14 418.834 Z" fill="#000000" fill-rule="nonzero" fill-opacity="1"></path><path clip-path="url(#clip940)" d="M1986.93 423.44 Q1986.21 423.024 1985.36 422.838 Q1984.53 422.63 1983.51 422.63 Q1979.9 422.63 1977.95 424.991 Q1976.03 427.329 1976.03 431.727 L1976.03 445.385 L1971.75 445.385 L1971.75 419.459 L1976.03 419.459 L1976.03 423.487 Q1977.37 421.126 1979.53 419.991 Q1981.68 418.834 1984.76 418.834 Q1985.2 418.834 1985.73 418.903 Q1986.26 418.95 1986.91 419.065 L1986.93 423.44 Z" fill="#000000" fill-rule="nonzero" fill-opacity="1"></path><path clip-path="url(#clip940)" d="M2004.52 409.366 L2004.52 412.908 L2000.45 412.908 Q1998.16 412.908 1997.26 413.834 Q1996.38 414.76 1996.38 417.167 L1996.38 419.459 L2003.39 419.459 L2003.39 422.769 L1996.38 422.769 L1996.38 445.385 L1992.09 445.385 L1992.09 422.769 L1988.02 422.769 L1988.02 419.459 L1992.09 419.459 L1992.09 417.653 Q1992.09 413.325 1994.11 411.357 Q1996.12 409.366 2000.5 409.366 L2004.52 409.366 Z" fill="#000000" fill-rule="nonzero" fill-opacity="1"></path><path clip-path="url(#clip940)" d="M2019.87 432.352 Q2014.71 432.352 2012.72 433.533 Q2010.73 434.713 2010.73 437.561 Q2010.73 439.829 2012.21 441.172 Q2013.71 442.491 2016.28 442.491 Q2019.83 442.491 2021.96 439.991 Q2024.11 437.468 2024.11 433.301 L2024.11 432.352 L2019.87 432.352 M2028.37 430.593 L2028.37 445.385 L2024.11 445.385 L2024.11 441.449 Q2022.65 443.811 2020.47 444.945 Q2018.3 446.056 2015.15 446.056 Q2011.17 446.056 2008.81 443.834 Q2006.47 441.588 2006.47 437.838 Q2006.47 433.463 2009.39 431.241 Q2012.33 429.019 2018.14 429.019 L2024.11 429.019 L2024.11 428.602 Q2024.11 425.663 2022.16 424.065 Q2020.24 422.445 2016.75 422.445 Q2014.52 422.445 2012.42 422.977 Q2010.31 423.51 2008.37 424.575 L2008.37 420.639 Q2010.71 419.737 2012.9 419.297 Q2015.1 418.834 2017.19 418.834 Q2022.81 418.834 2025.59 421.751 Q2028.37 424.667 2028.37 430.593 Z" fill="#000000" fill-rule="nonzero" fill-opacity="1"></path><path clip-path="url(#clip940)" d="M2055.8 420.454 L2055.8 424.436 Q2053.99 423.44 2052.16 422.954 Q2050.36 422.445 2048.51 422.445 Q2044.36 422.445 2042.07 425.084 Q2039.78 427.7 2039.78 432.445 Q2039.78 437.19 2042.07 439.829 Q2044.36 442.445 2048.51 442.445 Q2050.36 442.445 2052.16 441.959 Q2053.99 441.449 2055.8 440.454 L2055.8 444.389 Q2054.02 445.223 2052.09 445.639 Q2050.2 446.056 2048.04 446.056 Q2042.19 446.056 2038.74 442.375 Q2035.29 438.695 2035.29 432.445 Q2035.29 426.102 2038.76 422.468 Q2042.26 418.834 2048.32 418.834 Q2050.29 418.834 2052.16 419.251 Q2054.04 419.644 2055.8 420.454 Z" fill="#000000" fill-rule="nonzero" fill-opacity="1"></path><path clip-path="url(#clip940)" d="M2085.38 431.357 L2085.38 433.44 L2065.8 433.44 Q2066.08 437.838 2068.44 440.153 Q2070.82 442.445 2075.06 442.445 Q2077.51 442.445 2079.8 441.843 Q2082.12 441.241 2084.39 440.037 L2084.39 444.065 Q2082.09 445.037 2079.69 445.547 Q2077.28 446.056 2074.8 446.056 Q2068.6 446.056 2064.96 442.445 Q2061.35 438.834 2061.35 432.676 Q2061.35 426.311 2064.78 422.584 Q2068.23 418.834 2074.06 418.834 Q2079.29 418.834 2082.33 422.213 Q2085.38 425.57 2085.38 431.357 M2081.12 430.107 Q2081.08 426.612 2079.15 424.528 Q2077.26 422.445 2074.11 422.445 Q2070.54 422.445 2068.39 424.459 Q2066.26 426.473 2065.94 430.13 L2081.12 430.107 Z" fill="#000000" fill-rule="nonzero" fill-opacity="1"></path><path clip-path="url(#clip940)" d="M2117.49 422.445 Q2114.06 422.445 2112.07 425.13 Q2110.08 427.792 2110.08 432.445 Q2110.08 437.098 2112.05 439.783 Q2114.04 442.445 2117.49 442.445 Q2120.89 442.445 2122.88 439.76 Q2124.87 437.075 2124.87 432.445 Q2124.87 427.838 2122.88 425.153 Q2120.89 422.445 2117.49 422.445 M2117.49 418.834 Q2123.04 418.834 2126.21 422.445 Q2129.39 426.056 2129.39 432.445 Q2129.39 438.811 2126.21 442.445 Q2123.04 446.056 2117.49 446.056 Q2111.91 446.056 2108.74 442.445 Q2105.59 438.811 2105.59 432.445 Q2105.59 426.056 2108.74 422.445 Q2111.91 418.834 2117.49 418.834 Z" fill="#000000" fill-rule="nonzero" fill-opacity="1"></path><path clip-path="url(#clip940)" d="M2153.51 432.121 Q2153.51 427.491 2151.58 424.945 Q2149.69 422.399 2146.24 422.399 Q2142.81 422.399 2140.89 424.945 Q2138.99 427.491 2138.99 432.121 Q2138.99 436.727 2140.89 439.274 Q2142.81 441.82 2146.24 441.82 Q2149.69 441.82 2151.58 439.274 Q2153.51 436.727 2153.51 432.121 M2157.76 442.167 Q2157.76 448.787 2154.83 452.005 Q2151.89 455.246 2145.82 455.246 Q2143.58 455.246 2141.58 454.898 Q2139.59 454.574 2137.72 453.88 L2137.72 449.736 Q2139.59 450.755 2141.42 451.241 Q2143.25 451.727 2145.15 451.727 Q2149.34 451.727 2151.42 449.528 Q2153.51 447.352 2153.51 442.931 L2153.51 440.824 Q2152.19 443.116 2150.13 444.25 Q2148.07 445.385 2145.2 445.385 Q2140.43 445.385 2137.51 441.75 Q2134.59 438.116 2134.59 432.121 Q2134.59 426.102 2137.51 422.468 Q2140.43 418.834 2145.2 418.834 Q2148.07 418.834 2150.13 419.968 Q2152.19 421.102 2153.51 423.394 L2153.51 419.459 L2157.76 419.459 L2157.76 442.167 Z" fill="#000000" fill-rule="nonzero" fill-opacity="1"></path><path clip-path="url(#clip940)" d="M2183.6 432.121 Q2183.6 427.491 2181.68 424.945 Q2179.78 422.399 2176.33 422.399 Q2172.9 422.399 2170.98 424.945 Q2169.08 427.491 2169.08 432.121 Q2169.08 436.727 2170.98 439.274 Q2172.9 441.82 2176.33 441.82 Q2179.78 441.82 2181.68 439.274 Q2183.6 436.727 2183.6 432.121 M2187.86 442.167 Q2187.86 448.787 2184.92 452.005 Q2181.98 455.246 2175.91 455.246 Q2173.67 455.246 2171.68 454.898 Q2169.69 454.574 2167.81 453.88 L2167.81 449.736 Q2169.69 450.755 2171.51 451.241 Q2173.34 451.727 2175.24 451.727 Q2179.43 451.727 2181.51 449.528 Q2183.6 447.352 2183.6 442.931 L2183.6 440.824 Q2182.28 443.116 2180.22 444.25 Q2178.16 445.385 2175.29 445.385 Q2170.52 445.385 2167.6 441.75 Q2164.69 438.116 2164.69 432.121 Q2164.69 426.102 2167.6 422.468 Q2170.52 418.834 2175.29 418.834 Q2178.16 418.834 2180.22 419.968 Q2182.28 421.102 2183.6 423.394 L2183.6 419.459 L2187.86 419.459 L2187.86 442.167 Z" fill="#000000" fill-rule="nonzero" fill-opacity="1"></path><path clip-path="url(#clip940)" d="M2216.82 424.436 Q2218.41 421.565 2220.63 420.2 Q2222.86 418.834 2225.87 418.834 Q2229.92 418.834 2232.12 421.681 Q2234.32 424.505 2234.32 429.737 L2234.32 445.385 L2230.03 445.385 L2230.03 429.875 Q2230.03 426.149 2228.71 424.343 Q2227.39 422.538 2224.69 422.538 Q2221.38 422.538 2219.45 424.737 Q2217.53 426.936 2217.53 430.732 L2217.53 445.385 L2213.25 445.385 L2213.25 429.875 Q2213.25 426.125 2211.93 424.343 Q2210.61 422.538 2207.86 422.538 Q2204.59 422.538 2202.67 424.76 Q2200.75 426.959 2200.75 430.732 L2200.75 445.385 L2196.47 445.385 L2196.47 419.459 L2200.75 419.459 L2200.75 423.487 Q2202.21 421.102 2204.25 419.968 Q2206.28 418.834 2209.08 418.834 Q2211.91 418.834 2213.88 420.269 Q2215.87 421.704 2216.82 424.436 Z" fill="#000000" fill-rule="nonzero" fill-opacity="1"></path></svg>