<svg xmlns="http://www.w3.org/2000/svg" xmlns:xlink="http://www.w3.org/1999/xlink" width="600" height="400" viewBox="0 0 2400 1600">
<defs>
  <clipPath id="clip160">
    <rect x="0" y="0" width="2400" height="1600"></rect>
  </clipPath>
</defs>
<path clip-path="url(#clip160)" d="M0 1600 L2400 1600 L2400 0 L0 0  Z" fill="#ffffff" fill-rule="evenodd" fill-opacity="1"></path>
<defs>
  <clipPath id="clip161">
    <rect x="480" y="0" width="1681" height="1600"></rect>
  </clipPath>
</defs>
<path clip-path="url(#clip160)" d="M264.287 1486.45 L2352.76 1486.45 L2352.76 123.472 L264.287 123.472  Z" fill="#ffffff" fill-rule="evenodd" fill-opacity="1"></path>
<defs>
  <clipPath id="clip162">
    <rect x="264" y="123" width="2089" height="1364"></rect>
  </clipPath>
</defs>
<polyline clip-path="url(#clip162)" style="stroke:#000000; stroke-linecap:round; stroke-linejoin:round; stroke-width:2; stroke-opacity:0.1; fill:none" points="290.557,1486.45 290.557,123.472 "></polyline>
<polyline clip-path="url(#clip162)" style="stroke:#000000; stroke-linecap:round; stroke-linejoin:round; stroke-width:2; stroke-opacity:0.1; fill:none" points="618.933,1486.45 618.933,123.472 "></polyline>
<polyline clip-path="url(#clip162)" style="stroke:#000000; stroke-linecap:round; stroke-linejoin:round; stroke-width:2; stroke-opacity:0.1; fill:none" points="947.308,1486.45 947.308,123.472 "></polyline>
<polyline clip-path="url(#clip162)" style="stroke:#000000; stroke-linecap:round; stroke-linejoin:round; stroke-width:2; stroke-opacity:0.1; fill:none" points="1275.68,1486.45 1275.68,123.472 "></polyline>
<polyline clip-path="url(#clip162)" style="stroke:#000000; stroke-linecap:round; stroke-linejoin:round; stroke-width:2; stroke-opacity:0.1; fill:none" points="1604.06,1486.45 1604.06,123.472 "></polyline>
<polyline clip-path="url(#clip162)" style="stroke:#000000; stroke-linecap:round; stroke-linejoin:round; stroke-width:2; stroke-opacity:0.1; fill:none" points="1932.44,1486.45 1932.44,123.472 "></polyline>
<polyline clip-path="url(#clip162)" style="stroke:#000000; stroke-linecap:round; stroke-linejoin:round; stroke-width:2; stroke-opacity:0.1; fill:none" points="2260.81,1486.45 2260.81,123.472 "></polyline>
<polyline clip-path="url(#clip160)" style="stroke:#000000; stroke-linecap:round; stroke-linejoin:round; stroke-width:4; stroke-opacity:1; fill:none" points="264.287,1486.45 2352.76,1486.45 "></polyline>
<polyline clip-path="url(#clip160)" style="stroke:#000000; stroke-linecap:round; stroke-linejoin:round; stroke-width:4; stroke-opacity:1; fill:none" points="290.557,1486.45 290.557,1467.55 "></polyline>
<polyline clip-path="url(#clip160)" style="stroke:#000000; stroke-linecap:round; stroke-linejoin:round; stroke-width:4; stroke-opacity:1; fill:none" points="618.933,1486.45 618.933,1467.55 "></polyline>
<polyline clip-path="url(#clip160)" style="stroke:#000000; stroke-linecap:round; stroke-linejoin:round; stroke-width:4; stroke-opacity:1; fill:none" points="947.308,1486.45 947.308,1467.55 "></polyline>
<polyline clip-path="url(#clip160)" style="stroke:#000000; stroke-linecap:round; stroke-linejoin:round; stroke-width:4; stroke-opacity:1; fill:none" points="1275.68,1486.45 1275.68,1467.55 "></polyline>
<polyline clip-path="url(#clip160)" style="stroke:#000000; stroke-linecap:round; stroke-linejoin:round; stroke-width:4; stroke-opacity:1; fill:none" points="1604.06,1486.45 1604.06,1467.55 "></polyline>
<polyline clip-path="url(#clip160)" style="stroke:#000000; stroke-linecap:round; stroke-linejoin:round; stroke-width:4; stroke-opacity:1; fill:none" points="1932.44,1486.45 1932.44,1467.55 "></polyline>
<polyline clip-path="url(#clip160)" style="stroke:#000000; stroke-linecap:round; stroke-linejoin:round; stroke-width:4; stroke-opacity:1; fill:none" points="2260.81,1486.45 2260.81,1467.55 "></polyline>
<path clip-path="url(#clip160)" d="M290.557 1517.37 Q286.946 1517.37 285.118 1520.93 Q283.312 1524.47 283.312 1531.6 Q283.312 1538.71 285.118 1542.27 Q286.946 1545.82 290.557 1545.82 Q294.192 1545.82 295.997 1542.27 Q297.826 1538.71 297.826 1531.6 Q297.826 1524.47 295.997 1520.93 Q294.192 1517.37 290.557 1517.37 M290.557 1513.66 Q296.368 1513.66 299.423 1518.27 Q302.502 1522.85 302.502 1531.6 Q302.502 1540.33 299.423 1544.94 Q296.368 1549.52 290.557 1549.52 Q284.747 1549.52 281.669 1544.94 Q278.613 1540.33 278.613 1531.6 Q278.613 1522.85 281.669 1518.27 Q284.747 1513.66 290.557 1513.66 Z" fill="#000000" fill-rule="nonzero" fill-opacity="1"></path><path clip-path="url(#clip160)" d="M593.621 1544.91 L601.259 1544.91 L601.259 1518.55 L592.949 1520.21 L592.949 1515.95 L601.213 1514.29 L605.889 1514.29 L605.889 1544.91 L613.528 1544.91 L613.528 1548.85 L593.621 1548.85 L593.621 1544.91 Z" fill="#000000" fill-rule="nonzero" fill-opacity="1"></path><path clip-path="url(#clip160)" d="M632.972 1517.37 Q629.361 1517.37 627.532 1520.93 Q625.727 1524.47 625.727 1531.6 Q625.727 1538.71 627.532 1542.27 Q629.361 1545.82 632.972 1545.82 Q636.606 1545.82 638.412 1542.27 Q640.241 1538.71 640.241 1531.6 Q640.241 1524.47 638.412 1520.93 Q636.606 1517.37 632.972 1517.37 M632.972 1513.66 Q638.782 1513.66 641.838 1518.27 Q644.917 1522.85 644.917 1531.6 Q644.917 1540.33 641.838 1544.94 Q638.782 1549.52 632.972 1549.52 Q627.162 1549.52 624.083 1544.94 Q621.028 1540.33 621.028 1531.6 Q621.028 1522.85 624.083 1518.27 Q627.162 1513.66 632.972 1513.66 Z" fill="#000000" fill-rule="nonzero" fill-opacity="1"></path><path clip-path="url(#clip160)" d="M926.082 1544.91 L942.401 1544.91 L942.401 1548.85 L920.457 1548.85 L920.457 1544.91 Q923.119 1542.16 927.702 1537.53 Q932.309 1532.88 933.489 1531.53 Q935.734 1529.01 936.614 1527.27 Q937.517 1525.51 937.517 1523.82 Q937.517 1521.07 935.572 1519.33 Q933.651 1517.6 930.549 1517.6 Q928.35 1517.6 925.897 1518.36 Q923.466 1519.13 920.688 1520.68 L920.688 1515.95 Q923.512 1514.82 925.966 1514.24 Q928.42 1513.66 930.457 1513.66 Q935.827 1513.66 939.022 1516.35 Q942.216 1519.03 942.216 1523.52 Q942.216 1525.65 941.406 1527.57 Q940.619 1529.47 938.512 1532.07 Q937.934 1532.74 934.832 1535.95 Q931.73 1539.15 926.082 1544.91 Z" fill="#000000" fill-rule="nonzero" fill-opacity="1"></path><path clip-path="url(#clip160)" d="M962.216 1517.37 Q958.605 1517.37 956.776 1520.93 Q954.97 1524.47 954.97 1531.6 Q954.97 1538.71 956.776 1542.27 Q958.605 1545.82 962.216 1545.82 Q965.85 1545.82 967.656 1542.27 Q969.484 1538.71 969.484 1531.6 Q969.484 1524.47 967.656 1520.93 Q965.85 1517.37 962.216 1517.37 M962.216 1513.66 Q968.026 1513.66 971.082 1518.27 Q974.16 1522.85 974.16 1531.6 Q974.16 1540.33 971.082 1544.94 Q968.026 1549.52 962.216 1549.52 Q956.406 1549.52 953.327 1544.94 Q950.271 1540.33 950.271 1531.6 Q950.271 1522.85 953.327 1518.27 Q956.406 1513.66 962.216 1513.66 Z" fill="#000000" fill-rule="nonzero" fill-opacity="1"></path><path clip-path="url(#clip160)" d="M1264.53 1530.21 Q1267.88 1530.93 1269.76 1533.2 Q1271.66 1535.47 1271.66 1538.8 Q1271.66 1543.92 1268.14 1546.72 Q1264.62 1549.52 1258.14 1549.52 Q1255.96 1549.52 1253.65 1549.08 Q1251.36 1548.66 1248.9 1547.81 L1248.9 1543.29 Q1250.85 1544.43 1253.16 1545.01 Q1255.48 1545.58 1258 1545.58 Q1262.4 1545.58 1264.69 1543.85 Q1267 1542.11 1267 1538.8 Q1267 1535.75 1264.85 1534.03 Q1262.72 1532.3 1258.9 1532.3 L1254.87 1532.3 L1254.87 1528.45 L1259.09 1528.45 Q1262.54 1528.45 1264.36 1527.09 Q1266.19 1525.7 1266.19 1523.11 Q1266.19 1520.45 1264.3 1519.03 Q1262.42 1517.6 1258.9 1517.6 Q1256.98 1517.6 1254.78 1518.01 Q1252.58 1518.43 1249.94 1519.31 L1249.94 1515.14 Q1252.61 1514.4 1254.92 1514.03 Q1257.26 1513.66 1259.32 1513.66 Q1264.64 1513.66 1267.74 1516.09 Q1270.85 1518.5 1270.85 1522.62 Q1270.85 1525.49 1269.2 1527.48 Q1267.56 1529.45 1264.53 1530.21 Z" fill="#000000" fill-rule="nonzero" fill-opacity="1"></path><path clip-path="url(#clip160)" d="M1290.52 1517.37 Q1286.91 1517.37 1285.08 1520.93 Q1283.28 1524.47 1283.28 1531.6 Q1283.28 1538.71 1285.08 1542.27 Q1286.91 1545.82 1290.52 1545.82 Q1294.16 1545.82 1295.96 1542.27 Q1297.79 1538.71 1297.79 1531.6 Q1297.79 1524.47 1295.96 1520.93 Q1294.16 1517.37 1290.52 1517.37 M1290.52 1513.66 Q1296.33 1513.66 1299.39 1518.27 Q1302.47 1522.85 1302.47 1531.6 Q1302.47 1540.33 1299.39 1544.94 Q1296.33 1549.52 1290.52 1549.52 Q1284.71 1549.52 1281.63 1544.94 Q1278.58 1540.33 1278.58 1531.6 Q1278.58 1522.85 1281.63 1518.27 Q1284.71 1513.66 1290.52 1513.66 Z" fill="#000000" fill-rule="nonzero" fill-opacity="1"></path><path clip-path="url(#clip160)" d="M1592.23 1518.36 L1580.43 1536.81 L1592.23 1536.81 L1592.23 1518.36 M1591 1514.29 L1596.88 1514.29 L1596.88 1536.81 L1601.81 1536.81 L1601.81 1540.7 L1596.88 1540.7 L1596.88 1548.85 L1592.23 1548.85 L1592.23 1540.7 L1576.63 1540.7 L1576.63 1536.19 L1591 1514.29 Z" fill="#000000" fill-rule="nonzero" fill-opacity="1"></path><path clip-path="url(#clip160)" d="M1619.55 1517.37 Q1615.93 1517.37 1614.11 1520.93 Q1612.3 1524.47 1612.3 1531.6 Q1612.3 1538.71 1614.11 1542.27 Q1615.93 1545.82 1619.55 1545.82 Q1623.18 1545.82 1624.99 1542.27 Q1626.81 1538.71 1626.81 1531.6 Q1626.81 1524.47 1624.99 1520.93 Q1623.18 1517.37 1619.55 1517.37 M1619.55 1513.66 Q1625.36 1513.66 1628.41 1518.27 Q1631.49 1522.85 1631.49 1531.6 Q1631.49 1540.33 1628.41 1544.94 Q1625.36 1549.52 1619.55 1549.52 Q1613.74 1549.52 1610.66 1544.94 Q1607.6 1540.33 1607.6 1531.6 Q1607.6 1522.85 1610.66 1518.27 Q1613.74 1513.66 1619.55 1513.66 Z" fill="#000000" fill-rule="nonzero" fill-opacity="1"></path><path clip-path="url(#clip160)" d="M1907.13 1514.29 L1925.49 1514.29 L1925.49 1518.22 L1911.42 1518.22 L1911.42 1526.7 Q1912.44 1526.35 1913.45 1526.19 Q1914.47 1526 1915.49 1526 Q1921.28 1526 1924.66 1529.17 Q1928.04 1532.34 1928.04 1537.76 Q1928.04 1543.34 1924.56 1546.44 Q1921.09 1549.52 1914.77 1549.52 Q1912.6 1549.52 1910.33 1549.15 Q1908.08 1548.78 1905.68 1548.04 L1905.68 1543.34 Q1907.76 1544.47 1909.98 1545.03 Q1912.2 1545.58 1914.68 1545.58 Q1918.69 1545.58 1921.02 1543.48 Q1923.36 1541.37 1923.36 1537.76 Q1923.36 1534.15 1921.02 1532.04 Q1918.69 1529.94 1914.68 1529.94 Q1912.81 1529.94 1910.93 1530.35 Q1909.08 1530.77 1907.13 1531.65 L1907.13 1514.29 Z" fill="#000000" fill-rule="nonzero" fill-opacity="1"></path><path clip-path="url(#clip160)" d="M1947.25 1517.37 Q1943.64 1517.37 1941.81 1520.93 Q1940 1524.47 1940 1531.6 Q1940 1538.71 1941.81 1542.27 Q1943.64 1545.82 1947.25 1545.82 Q1950.88 1545.82 1952.69 1542.27 Q1954.52 1538.71 1954.52 1531.6 Q1954.52 1524.47 1952.69 1520.93 Q1950.88 1517.37 1947.25 1517.37 M1947.25 1513.66 Q1953.06 1513.66 1956.12 1518.27 Q1959.19 1522.85 1959.19 1531.6 Q1959.19 1540.33 1956.12 1544.94 Q1953.06 1549.52 1947.25 1549.52 Q1941.44 1549.52 1938.36 1544.94 Q1935.31 1540.33 1935.31 1531.6 Q1935.31 1522.85 1938.36 1518.27 Q1941.44 1513.66 1947.25 1513.66 Z" fill="#000000" fill-rule="nonzero" fill-opacity="1"></path><path clip-path="url(#clip160)" d="M2246.22 1529.7 Q2243.07 1529.7 2241.22 1531.86 Q2239.39 1534.01 2239.39 1537.76 Q2239.39 1541.49 2241.22 1543.66 Q2243.07 1545.82 2246.22 1545.82 Q2249.36 1545.82 2251.19 1543.66 Q2253.04 1541.49 2253.04 1537.76 Q2253.04 1534.01 2251.19 1531.86 Q2249.36 1529.7 2246.22 1529.7 M2255.5 1515.05 L2255.5 1519.31 Q2253.74 1518.48 2251.93 1518.04 Q2250.15 1517.6 2248.39 1517.6 Q2243.76 1517.6 2241.31 1520.72 Q2238.88 1523.85 2238.53 1530.17 Q2239.9 1528.15 2241.96 1527.09 Q2244.02 1526 2246.49 1526 Q2251.7 1526 2254.71 1529.17 Q2257.74 1532.32 2257.74 1537.76 Q2257.74 1543.08 2254.6 1546.3 Q2251.45 1549.52 2246.22 1549.52 Q2240.22 1549.52 2237.05 1544.94 Q2233.88 1540.33 2233.88 1531.6 Q2233.88 1523.41 2237.77 1518.55 Q2241.66 1513.66 2248.21 1513.66 Q2249.97 1513.66 2251.75 1514.01 Q2253.55 1514.36 2255.5 1515.05 Z" fill="#000000" fill-rule="nonzero" fill-opacity="1"></path><path clip-path="url(#clip160)" d="M2275.8 1517.37 Q2272.19 1517.37 2270.36 1520.93 Q2268.55 1524.47 2268.55 1531.6 Q2268.55 1538.71 2270.36 1542.27 Q2272.19 1545.82 2275.8 1545.82 Q2279.43 1545.82 2281.24 1542.27 Q2283.07 1538.71 2283.07 1531.6 Q2283.07 1524.47 2281.24 1520.93 Q2279.43 1517.37 2275.8 1517.37 M2275.8 1513.66 Q2281.61 1513.66 2284.66 1518.27 Q2287.74 1522.85 2287.74 1531.6 Q2287.74 1540.33 2284.66 1544.94 Q2281.61 1549.52 2275.8 1549.52 Q2269.99 1549.52 2266.91 1544.94 Q2263.85 1540.33 2263.85 1531.6 Q2263.85 1522.85 2266.91 1518.27 Q2269.99 1513.66 2275.8 1513.66 Z" fill="#000000" fill-rule="nonzero" fill-opacity="1"></path><polyline clip-path="url(#clip162)" style="stroke:#000000; stroke-linecap:round; stroke-linejoin:round; stroke-width:2; stroke-opacity:0.1; fill:none" points="264.287,1305.72 2352.76,1305.72 "></polyline>
<polyline clip-path="url(#clip162)" style="stroke:#000000; stroke-linecap:round; stroke-linejoin:round; stroke-width:2; stroke-opacity:0.1; fill:none" points="264.287,1040.09 2352.76,1040.09 "></polyline>
<polyline clip-path="url(#clip162)" style="stroke:#000000; stroke-linecap:round; stroke-linejoin:round; stroke-width:2; stroke-opacity:0.1; fill:none" points="264.287,774.46 2352.76,774.46 "></polyline>
<polyline clip-path="url(#clip162)" style="stroke:#000000; stroke-linecap:round; stroke-linejoin:round; stroke-width:2; stroke-opacity:0.1; fill:none" points="264.287,508.83 2352.76,508.83 "></polyline>
<polyline clip-path="url(#clip162)" style="stroke:#000000; stroke-linecap:round; stroke-linejoin:round; stroke-width:2; stroke-opacity:0.1; fill:none" points="264.287,243.199 2352.76,243.199 "></polyline>
<polyline clip-path="url(#clip160)" style="stroke:#000000; stroke-linecap:round; stroke-linejoin:round; stroke-width:4; stroke-opacity:1; fill:none" points="264.287,1486.45 264.287,123.472 "></polyline>
<polyline clip-path="url(#clip160)" style="stroke:#000000; stroke-linecap:round; stroke-linejoin:round; stroke-width:4; stroke-opacity:1; fill:none" points="264.287,1305.72 283.185,1305.72 "></polyline>
<polyline clip-path="url(#clip160)" style="stroke:#000000; stroke-linecap:round; stroke-linejoin:round; stroke-width:4; stroke-opacity:1; fill:none" points="264.287,1040.09 283.185,1040.09 "></polyline>
<polyline clip-path="url(#clip160)" style="stroke:#000000; stroke-linecap:round; stroke-linejoin:round; stroke-width:4; stroke-opacity:1; fill:none" points="264.287,774.46 283.185,774.46 "></polyline>
<polyline clip-path="url(#clip160)" style="stroke:#000000; stroke-linecap:round; stroke-linejoin:round; stroke-width:4; stroke-opacity:1; fill:none" points="264.287,508.83 283.185,508.83 "></polyline>
<polyline clip-path="url(#clip160)" style="stroke:#000000; stroke-linecap:round; stroke-linejoin:round; stroke-width:4; stroke-opacity:1; fill:none" points="264.287,243.199 283.185,243.199 "></polyline>
<path clip-path="url(#clip160)" d="M119.885 1319.07 L136.204 1319.07 L136.204 1323 L114.26 1323 L114.26 1319.07 Q116.922 1316.31 121.505 1311.68 Q126.112 1307.03 127.292 1305.69 Q129.538 1303.16 130.417 1301.43 Q131.32 1299.67 131.32 1297.98 Q131.32 1295.22 129.376 1293.49 Q127.455 1291.75 124.353 1291.75 Q122.154 1291.75 119.7 1292.52 Q117.269 1293.28 114.492 1294.83 L114.492 1290.11 Q117.316 1288.97 119.769 1288.4 Q122.223 1287.82 124.26 1287.82 Q129.63 1287.82 132.825 1290.5 Q136.019 1293.19 136.019 1297.68 Q136.019 1299.81 135.209 1301.73 Q134.422 1303.63 132.316 1306.22 Q131.737 1306.89 128.635 1310.11 Q125.533 1313.3 119.885 1319.07 Z" fill="#000000" fill-rule="nonzero" fill-opacity="1"></path><path clip-path="url(#clip160)" d="M156.598 1303.86 Q153.45 1303.86 151.598 1306.01 Q149.769 1308.16 149.769 1311.91 Q149.769 1315.64 151.598 1317.82 Q153.45 1319.97 156.598 1319.97 Q159.746 1319.97 161.575 1317.82 Q163.427 1315.64 163.427 1311.91 Q163.427 1308.16 161.575 1306.01 Q159.746 1303.86 156.598 1303.86 M165.88 1289.21 L165.88 1293.46 Q164.121 1292.63 162.315 1292.19 Q160.533 1291.75 158.774 1291.75 Q154.144 1291.75 151.691 1294.88 Q149.26 1298 148.913 1304.32 Q150.278 1302.31 152.339 1301.24 Q154.399 1300.15 156.876 1300.15 Q162.084 1300.15 165.093 1303.33 Q168.126 1306.47 168.126 1311.91 Q168.126 1317.24 164.977 1320.46 Q161.829 1323.67 156.598 1323.67 Q150.603 1323.67 147.431 1319.09 Q144.26 1314.48 144.26 1305.76 Q144.26 1297.56 148.149 1292.7 Q152.038 1287.82 158.589 1287.82 Q160.348 1287.82 162.13 1288.16 Q163.936 1288.51 165.88 1289.21 Z" fill="#000000" fill-rule="nonzero" fill-opacity="1"></path><path clip-path="url(#clip160)" d="M186.181 1291.52 Q182.57 1291.52 180.741 1295.08 Q178.936 1298.63 178.936 1305.76 Q178.936 1312.86 180.741 1316.43 Q182.57 1319.97 186.181 1319.97 Q189.815 1319.97 191.621 1316.43 Q193.45 1312.86 193.45 1305.76 Q193.45 1298.63 191.621 1295.08 Q189.815 1291.52 186.181 1291.52 M186.181 1287.82 Q191.991 1287.82 195.047 1292.42 Q198.125 1297.01 198.125 1305.76 Q198.125 1314.48 195.047 1319.09 Q191.991 1323.67 186.181 1323.67 Q180.371 1323.67 177.292 1319.09 Q174.237 1314.48 174.237 1305.76 Q174.237 1297.01 177.292 1292.42 Q180.371 1287.82 186.181 1287.82 Z" fill="#000000" fill-rule="nonzero" fill-opacity="1"></path><path clip-path="url(#clip160)" d="M216.343 1291.52 Q212.732 1291.52 210.903 1295.08 Q209.098 1298.63 209.098 1305.76 Q209.098 1312.86 210.903 1316.43 Q212.732 1319.97 216.343 1319.97 Q219.977 1319.97 221.783 1316.43 Q223.611 1312.86 223.611 1305.76 Q223.611 1298.63 221.783 1295.08 Q219.977 1291.52 216.343 1291.52 M216.343 1287.82 Q222.153 1287.82 225.209 1292.42 Q228.287 1297.01 228.287 1305.76 Q228.287 1314.48 225.209 1319.09 Q222.153 1323.67 216.343 1323.67 Q210.533 1323.67 207.454 1319.09 Q204.399 1314.48 204.399 1305.76 Q204.399 1297.01 207.454 1292.42 Q210.533 1287.82 216.343 1287.82 Z" fill="#000000" fill-rule="nonzero" fill-opacity="1"></path><path clip-path="url(#clip160)" d="M119.885 1053.44 L136.204 1053.44 L136.204 1057.37 L114.26 1057.37 L114.26 1053.44 Q116.922 1050.68 121.505 1046.05 Q126.112 1041.4 127.292 1040.06 Q129.538 1037.53 130.417 1035.8 Q131.32 1034.04 131.32 1032.35 Q131.32 1029.59 129.376 1027.86 Q127.455 1026.12 124.353 1026.12 Q122.154 1026.12 119.7 1026.89 Q117.269 1027.65 114.492 1029.2 L114.492 1024.48 Q117.316 1023.34 119.769 1022.76 Q122.223 1022.19 124.26 1022.19 Q129.63 1022.19 132.825 1024.87 Q136.019 1027.56 136.019 1032.05 Q136.019 1034.18 135.209 1036.1 Q134.422 1038 132.316 1040.59 Q131.737 1041.26 128.635 1044.48 Q125.533 1047.67 119.885 1053.44 Z" fill="#000000" fill-rule="nonzero" fill-opacity="1"></path><path clip-path="url(#clip160)" d="M144.839 1022.81 L167.061 1022.81 L167.061 1024.8 L154.515 1057.37 L149.63 1057.37 L161.436 1026.75 L144.839 1026.75 L144.839 1022.81 Z" fill="#000000" fill-rule="nonzero" fill-opacity="1"></path><path clip-path="url(#clip160)" d="M186.181 1025.89 Q182.57 1025.89 180.741 1029.45 Q178.936 1033 178.936 1040.13 Q178.936 1047.23 180.741 1050.8 Q182.57 1054.34 186.181 1054.34 Q189.815 1054.34 191.621 1050.8 Q193.45 1047.23 193.45 1040.13 Q193.45 1033 191.621 1029.45 Q189.815 1025.89 186.181 1025.89 M186.181 1022.19 Q191.991 1022.19 195.047 1026.79 Q198.125 1031.38 198.125 1040.13 Q198.125 1048.85 195.047 1053.46 Q191.991 1058.04 186.181 1058.04 Q180.371 1058.04 177.292 1053.46 Q174.237 1048.85 174.237 1040.13 Q174.237 1031.38 177.292 1026.79 Q180.371 1022.19 186.181 1022.19 Z" fill="#000000" fill-rule="nonzero" fill-opacity="1"></path><path clip-path="url(#clip160)" d="M216.343 1025.89 Q212.732 1025.89 210.903 1029.45 Q209.098 1033 209.098 1040.13 Q209.098 1047.23 210.903 1050.8 Q212.732 1054.34 216.343 1054.34 Q219.977 1054.34 221.783 1050.8 Q223.611 1047.23 223.611 1040.13 Q223.611 1033 221.783 1029.45 Q219.977 1025.89 216.343 1025.89 M216.343 1022.19 Q222.153 1022.19 225.209 1026.79 Q228.287 1031.38 228.287 1040.13 Q228.287 1048.85 225.209 1053.46 Q222.153 1058.04 216.343 1058.04 Q210.533 1058.04 207.454 1053.46 Q204.399 1048.85 204.399 1040.13 Q204.399 1031.38 207.454 1026.79 Q210.533 1022.19 216.343 1022.19 Z" fill="#000000" fill-rule="nonzero" fill-opacity="1"></path><path clip-path="url(#clip160)" d="M119.885 787.805 L136.204 787.805 L136.204 791.74 L114.26 791.74 L114.26 787.805 Q116.922 785.051 121.505 780.421 Q126.112 775.768 127.292 774.426 Q129.538 771.903 130.417 770.166 Q131.32 768.407 131.32 766.717 Q131.32 763.963 129.376 762.227 Q127.455 760.491 124.353 760.491 Q122.154 760.491 119.7 761.254 Q117.269 762.018 114.492 763.569 L114.492 758.847 Q117.316 757.713 119.769 757.134 Q122.223 756.555 124.26 756.555 Q129.63 756.555 132.825 759.241 Q136.019 761.926 136.019 766.416 Q136.019 768.546 135.209 770.467 Q134.422 772.366 132.316 774.958 Q131.737 775.629 128.635 778.847 Q125.533 782.041 119.885 787.805 Z" fill="#000000" fill-rule="nonzero" fill-opacity="1"></path><path clip-path="url(#clip160)" d="M156.019 775.328 Q152.686 775.328 150.765 777.111 Q148.866 778.893 148.866 782.018 Q148.866 785.143 150.765 786.926 Q152.686 788.708 156.019 788.708 Q159.353 788.708 161.274 786.926 Q163.195 785.12 163.195 782.018 Q163.195 778.893 161.274 777.111 Q159.376 775.328 156.019 775.328 M151.343 773.338 Q148.334 772.597 146.644 770.537 Q144.978 768.477 144.978 765.514 Q144.978 761.37 147.917 758.963 Q150.88 756.555 156.019 756.555 Q161.181 756.555 164.121 758.963 Q167.061 761.37 167.061 765.514 Q167.061 768.477 165.371 770.537 Q163.704 772.597 160.718 773.338 Q164.098 774.125 165.973 776.416 Q167.871 778.708 167.871 782.018 Q167.871 787.041 164.792 789.727 Q161.737 792.412 156.019 792.412 Q150.302 792.412 147.223 789.727 Q144.167 787.041 144.167 782.018 Q144.167 778.708 146.066 776.416 Q147.964 774.125 151.343 773.338 M149.63 765.954 Q149.63 768.639 151.297 770.143 Q152.987 771.648 156.019 771.648 Q159.028 771.648 160.718 770.143 Q162.431 768.639 162.431 765.954 Q162.431 763.268 160.718 761.764 Q159.028 760.259 156.019 760.259 Q152.987 760.259 151.297 761.764 Q149.63 763.268 149.63 765.954 Z" fill="#000000" fill-rule="nonzero" fill-opacity="1"></path><path clip-path="url(#clip160)" d="M186.181 760.259 Q182.57 760.259 180.741 763.824 Q178.936 767.366 178.936 774.495 Q178.936 781.602 180.741 785.166 Q182.57 788.708 186.181 788.708 Q189.815 788.708 191.621 785.166 Q193.45 781.602 193.45 774.495 Q193.45 767.366 191.621 763.824 Q189.815 760.259 186.181 760.259 M186.181 756.555 Q191.991 756.555 195.047 761.162 Q198.125 765.745 198.125 774.495 Q198.125 783.222 195.047 787.828 Q191.991 792.412 186.181 792.412 Q180.371 792.412 177.292 787.828 Q174.237 783.222 174.237 774.495 Q174.237 765.745 177.292 761.162 Q180.371 756.555 186.181 756.555 Z" fill="#000000" fill-rule="nonzero" fill-opacity="1"></path><path clip-path="url(#clip160)" d="M216.343 760.259 Q212.732 760.259 210.903 763.824 Q209.098 767.366 209.098 774.495 Q209.098 781.602 210.903 785.166 Q212.732 788.708 216.343 788.708 Q219.977 788.708 221.783 785.166 Q223.611 781.602 223.611 774.495 Q223.611 767.366 221.783 763.824 Q219.977 760.259 216.343 760.259 M216.343 756.555 Q222.153 756.555 225.209 761.162 Q228.287 765.745 228.287 774.495 Q228.287 783.222 225.209 787.828 Q222.153 792.412 216.343 792.412 Q210.533 792.412 207.454 787.828 Q204.399 783.222 204.399 774.495 Q204.399 765.745 207.454 761.162 Q210.533 756.555 216.343 756.555 Z" fill="#000000" fill-rule="nonzero" fill-opacity="1"></path><path clip-path="url(#clip160)" d="M119.885 522.175 L136.204 522.175 L136.204 526.11 L114.26 526.11 L114.26 522.175 Q116.922 519.42 121.505 514.791 Q126.112 510.138 127.292 508.795 Q129.538 506.272 130.417 504.536 Q131.32 502.777 131.32 501.087 Q131.32 498.332 129.376 496.596 Q127.455 494.86 124.353 494.86 Q122.154 494.86 119.7 495.624 Q117.269 496.388 114.492 497.939 L114.492 493.217 Q117.316 492.082 119.769 491.504 Q122.223 490.925 124.26 490.925 Q129.63 490.925 132.825 493.61 Q136.019 496.295 136.019 500.786 Q136.019 502.916 135.209 504.837 Q134.422 506.735 132.316 509.328 Q131.737 509.999 128.635 513.216 Q125.533 516.411 119.885 522.175 Z" fill="#000000" fill-rule="nonzero" fill-opacity="1"></path><path clip-path="url(#clip160)" d="M146.158 525.392 L146.158 521.133 Q147.917 521.966 149.723 522.406 Q151.528 522.846 153.265 522.846 Q157.894 522.846 160.325 519.744 Q162.778 516.619 163.126 510.277 Q161.783 512.267 159.723 513.332 Q157.663 514.397 155.163 514.397 Q149.978 514.397 146.945 511.272 Q143.936 508.124 143.936 502.684 Q143.936 497.36 147.084 494.142 Q150.232 490.925 155.464 490.925 Q161.459 490.925 164.607 495.531 Q167.778 500.115 167.778 508.865 Q167.778 517.036 163.89 521.92 Q160.024 526.781 153.473 526.781 Q151.714 526.781 149.908 526.434 Q148.103 526.087 146.158 525.392 M155.464 510.74 Q158.612 510.74 160.44 508.587 Q162.292 506.434 162.292 502.684 Q162.292 498.957 160.44 496.804 Q158.612 494.629 155.464 494.629 Q152.316 494.629 150.464 496.804 Q148.635 498.957 148.635 502.684 Q148.635 506.434 150.464 508.587 Q152.316 510.74 155.464 510.74 Z" fill="#000000" fill-rule="nonzero" fill-opacity="1"></path><path clip-path="url(#clip160)" d="M186.181 494.629 Q182.57 494.629 180.741 498.193 Q178.936 501.735 178.936 508.865 Q178.936 515.971 180.741 519.536 Q182.57 523.078 186.181 523.078 Q189.815 523.078 191.621 519.536 Q193.45 515.971 193.45 508.865 Q193.45 501.735 191.621 498.193 Q189.815 494.629 186.181 494.629 M186.181 490.925 Q191.991 490.925 195.047 495.531 Q198.125 500.115 198.125 508.865 Q198.125 517.591 195.047 522.198 Q191.991 526.781 186.181 526.781 Q180.371 526.781 177.292 522.198 Q174.237 517.591 174.237 508.865 Q174.237 500.115 177.292 495.531 Q180.371 490.925 186.181 490.925 Z" fill="#000000" fill-rule="nonzero" fill-opacity="1"></path><path clip-path="url(#clip160)" d="M216.343 494.629 Q212.732 494.629 210.903 498.193 Q209.098 501.735 209.098 508.865 Q209.098 515.971 210.903 519.536 Q212.732 523.078 216.343 523.078 Q219.977 523.078 221.783 519.536 Q223.611 515.971 223.611 508.865 Q223.611 501.735 221.783 498.193 Q219.977 494.629 216.343 494.629 M216.343 490.925 Q222.153 490.925 225.209 495.531 Q228.287 500.115 228.287 508.865 Q228.287 517.591 225.209 522.198 Q222.153 526.781 216.343 526.781 Q210.533 526.781 207.454 522.198 Q204.399 517.591 204.399 508.865 Q204.399 500.115 207.454 495.531 Q210.533 490.925 216.343 490.925 Z" fill="#000000" fill-rule="nonzero" fill-opacity="1"></path><path clip-path="url(#clip160)" d="M130.024 241.845 Q133.38 242.563 135.255 244.831 Q137.154 247.1 137.154 250.433 Q137.154 255.549 133.635 258.35 Q130.117 261.151 123.635 261.151 Q121.459 261.151 119.144 260.711 Q116.853 260.294 114.399 259.438 L114.399 254.924 Q116.343 256.058 118.658 256.637 Q120.973 257.215 123.496 257.215 Q127.894 257.215 130.186 255.479 Q132.501 253.743 132.501 250.433 Q132.501 247.378 130.348 245.665 Q128.218 243.929 124.399 243.929 L120.371 243.929 L120.371 240.086 L124.584 240.086 Q128.033 240.086 129.862 238.72 Q131.691 237.331 131.691 234.739 Q131.691 232.077 129.792 230.665 Q127.917 229.23 124.399 229.23 Q122.478 229.23 120.279 229.646 Q118.08 230.063 115.441 230.942 L115.441 226.776 Q118.103 226.035 120.418 225.665 Q122.755 225.294 124.816 225.294 Q130.14 225.294 133.242 227.725 Q136.343 230.132 136.343 234.253 Q136.343 237.123 134.7 239.114 Q133.056 241.081 130.024 241.845 Z" fill="#000000" fill-rule="nonzero" fill-opacity="1"></path><path clip-path="url(#clip160)" d="M156.019 228.998 Q152.408 228.998 150.579 232.563 Q148.774 236.104 148.774 243.234 Q148.774 250.341 150.579 253.905 Q152.408 257.447 156.019 257.447 Q159.653 257.447 161.459 253.905 Q163.288 250.341 163.288 243.234 Q163.288 236.104 161.459 232.563 Q159.653 228.998 156.019 228.998 M156.019 225.294 Q161.829 225.294 164.885 229.901 Q167.964 234.484 167.964 243.234 Q167.964 251.961 164.885 256.567 Q161.829 261.151 156.019 261.151 Q150.209 261.151 147.13 256.567 Q144.075 251.961 144.075 243.234 Q144.075 234.484 147.13 229.901 Q150.209 225.294 156.019 225.294 Z" fill="#000000" fill-rule="nonzero" fill-opacity="1"></path><path clip-path="url(#clip160)" d="M186.181 228.998 Q182.57 228.998 180.741 232.563 Q178.936 236.104 178.936 243.234 Q178.936 250.341 180.741 253.905 Q182.57 257.447 186.181 257.447 Q189.815 257.447 191.621 253.905 Q193.45 250.341 193.45 243.234 Q193.45 236.104 191.621 232.563 Q189.815 228.998 186.181 228.998 M186.181 225.294 Q191.991 225.294 195.047 229.901 Q198.125 234.484 198.125 243.234 Q198.125 251.961 195.047 256.567 Q191.991 261.151 186.181 261.151 Q180.371 261.151 177.292 256.567 Q174.237 251.961 174.237 243.234 Q174.237 234.484 177.292 229.901 Q180.371 225.294 186.181 225.294 Z" fill="#000000" fill-rule="nonzero" fill-opacity="1"></path><path clip-path="url(#clip160)" d="M216.343 228.998 Q212.732 228.998 210.903 232.563 Q209.098 236.104 209.098 243.234 Q209.098 250.341 210.903 253.905 Q212.732 257.447 216.343 257.447 Q219.977 257.447 221.783 253.905 Q223.611 250.341 223.611 243.234 Q223.611 236.104 221.783 232.563 Q219.977 228.998 216.343 228.998 M216.343 225.294 Q222.153 225.294 225.209 229.901 Q228.287 234.484 228.287 243.234 Q228.287 251.961 225.209 256.567 Q222.153 261.151 216.343 261.151 Q210.533 261.151 207.454 256.567 Q204.399 251.961 204.399 243.234 Q204.399 234.484 207.454 229.901 Q210.533 225.294 216.343 225.294 Z" fill="#000000" fill-rule="nonzero" fill-opacity="1"></path><path clip-path="url(#clip160)" d="M16.4842 1105.34 L16.4842 1075.3 L21.895 1075.3 L21.895 1098.91 L35.9632 1098.91 L35.9632 1076.28 L41.3741 1076.28 L41.3741 1098.91 L58.5933 1098.91 L58.5933 1074.72 L64.0042 1074.72 L64.0042 1105.34 L16.4842 1105.34 Z" fill="#000000" fill-rule="nonzero" fill-opacity="1"></path><path clip-path="url(#clip160)" d="M14.479 1064.41 L14.479 1058.55 L64.0042 1058.55 L64.0042 1064.41 L14.479 1064.41 Z" fill="#000000" fill-rule="nonzero" fill-opacity="1"></path><path clip-path="url(#clip160)" d="M44.7161 1015.81 L47.5806 1015.81 L47.5806 1042.74 Q53.6281 1042.35 56.8109 1039.11 Q59.9619 1035.83 59.9619 1030 Q59.9619 1026.63 59.1344 1023.48 Q58.3069 1020.3 56.6518 1017.18 L62.1899 1017.18 Q63.5267 1020.33 64.227 1023.64 Q64.9272 1026.95 64.9272 1030.35 Q64.9272 1038.88 59.9619 1043.88 Q54.9967 1048.85 46.5303 1048.85 Q37.7774 1048.85 32.6531 1044.14 Q27.4968 1039.39 27.4968 1031.37 Q27.4968 1024.18 32.1438 1020.01 Q36.7589 1015.81 44.7161 1015.81 M42.9973 1021.66 Q38.1912 1021.73 35.3266 1024.37 Q32.4621 1026.98 32.4621 1031.31 Q32.4621 1036.21 35.2312 1039.17 Q38.0002 1042.1 43.0292 1042.54 L42.9973 1021.66 Z" fill="#000000" fill-rule="nonzero" fill-opacity="1"></path><path clip-path="url(#clip160)" d="M28.3562 1010.4 L28.3562 1004.19 L58.275 993.051 L28.3562 981.911 L28.3562 975.704 L64.0042 989.072 L64.0042 997.029 L28.3562 1010.4 Z" fill="#000000" fill-rule="nonzero" fill-opacity="1"></path><path clip-path="url(#clip160)" d="M46.0847 951.419 Q46.0847 958.517 47.7079 961.254 Q49.3312 963.991 53.2461 963.991 Q56.3653 963.991 58.2114 961.954 Q60.0256 959.885 60.0256 956.352 Q60.0256 951.483 56.5881 948.554 Q53.1188 945.594 47.3897 945.594 L46.0847 945.594 L46.0847 951.419 M43.6657 939.738 L64.0042 939.738 L64.0042 945.594 L58.5933 945.594 Q61.8398 947.6 63.3994 950.591 Q64.9272 953.583 64.9272 957.912 Q64.9272 963.387 61.8716 966.633 Q58.7843 969.848 53.6281 969.848 Q47.6125 969.848 44.5569 965.837 Q41.5014 961.795 41.5014 953.806 L41.5014 945.594 L40.9285 945.594 Q36.8862 945.594 34.6901 948.268 Q32.4621 950.91 32.4621 955.716 Q32.4621 958.771 33.1941 961.668 Q33.9262 964.564 35.3903 967.238 L29.9795 967.238 Q28.7381 964.023 28.1334 960.999 Q27.4968 957.976 27.4968 955.111 Q27.4968 947.377 31.5072 943.557 Q35.5176 939.738 43.6657 939.738 Z" fill="#000000" fill-rule="nonzero" fill-opacity="1"></path><path clip-path="url(#clip160)" d="M18.2347 921.882 L28.3562 921.882 L28.3562 909.819 L32.9077 909.819 L32.9077 921.882 L52.2594 921.882 Q56.6199 921.882 57.8613 920.704 Q59.1026 919.495 59.1026 915.835 L59.1026 909.819 L64.0042 909.819 L64.0042 915.835 Q64.0042 922.614 61.4897 925.192 Q58.9434 927.77 52.2594 927.77 L32.9077 927.77 L32.9077 932.067 L28.3562 932.067 L28.3562 927.77 L18.2347 927.77 L18.2347 921.882 Z" fill="#000000" fill-rule="nonzero" fill-opacity="1"></path><path clip-path="url(#clip160)" d="M28.3562 902.117 L28.3562 896.26 L64.0042 896.26 L64.0042 902.117 L28.3562 902.117 M14.479 902.117 L14.479 896.26 L21.895 896.26 L21.895 902.117 L14.479 902.117 Z" fill="#000000" fill-rule="nonzero" fill-opacity="1"></path><path clip-path="url(#clip160)" d="M32.4621 870.193 Q32.4621 874.903 36.1542 877.64 Q39.8145 880.378 46.212 880.378 Q52.6095 880.378 56.3017 877.672 Q59.9619 874.935 59.9619 870.193 Q59.9619 865.514 56.2698 862.777 Q52.5777 860.039 46.212 860.039 Q39.8781 860.039 36.186 862.777 Q32.4621 865.514 32.4621 870.193 M27.4968 870.193 Q27.4968 862.554 32.4621 858.193 Q37.4273 853.833 46.212 853.833 Q54.9649 853.833 59.9619 858.193 Q64.9272 862.554 64.9272 870.193 Q64.9272 877.863 59.9619 882.224 Q54.9649 886.552 46.212 886.552 Q37.4273 886.552 32.4621 882.224 Q27.4968 877.863 27.4968 870.193 Z" fill="#000000" fill-rule="nonzero" fill-opacity="1"></path><path clip-path="url(#clip160)" d="M42.4881 814.493 L64.0042 814.493 L64.0042 820.349 L42.679 820.349 Q37.6183 820.349 35.1038 822.322 Q32.5894 824.296 32.5894 828.243 Q32.5894 832.985 35.6131 835.722 Q38.6368 838.46 43.8567 838.46 L64.0042 838.46 L64.0042 844.348 L28.3562 844.348 L28.3562 838.46 L33.8944 838.46 Q30.6797 836.359 29.0883 833.526 Q27.4968 830.662 27.4968 826.938 Q27.4968 820.795 31.3163 817.644 Q35.1038 814.493 42.4881 814.493 Z" fill="#000000" fill-rule="nonzero" fill-opacity="1"></path><path clip-path="url(#clip160)" d="M14.5426 768.023 Q21.8632 772.288 29.0246 774.357 Q36.186 776.426 43.5384 776.426 Q50.8908 776.426 58.1159 774.357 Q65.3091 772.256 72.5979 768.023 L72.5979 773.116 Q65.1182 777.89 57.8931 780.277 Q50.668 782.632 43.5384 782.632 Q36.4406 782.632 29.2474 780.277 Q22.0542 777.922 14.5426 773.116 L14.5426 768.023 Z" fill="#000000" fill-rule="nonzero" fill-opacity="1"></path><path clip-path="url(#clip160)" d="M35.1993 728.906 Q31.2526 726.71 29.3747 723.654 Q27.4968 720.598 27.4968 716.461 Q27.4968 710.891 31.4117 707.867 Q35.2948 704.843 42.4881 704.843 L64.0042 704.843 L64.0042 710.732 L42.679 710.732 Q37.5546 710.732 35.072 712.546 Q32.5894 714.36 32.5894 718.084 Q32.5894 722.635 35.6131 725.277 Q38.6368 727.919 43.8567 727.919 L64.0042 727.919 L64.0042 733.807 L42.679 733.807 Q37.5228 733.807 35.072 735.622 Q32.5894 737.436 32.5894 741.223 Q32.5894 745.711 35.6449 748.353 Q38.6686 750.995 43.8567 750.995 L64.0042 750.995 L64.0042 756.883 L28.3562 756.883 L28.3562 750.995 L33.8944 750.995 Q30.616 748.99 29.0564 746.189 Q27.4968 743.388 27.4968 739.536 Q27.4968 735.653 29.4702 732.948 Q31.4436 730.211 35.1993 728.906 Z" fill="#000000" fill-rule="nonzero" fill-opacity="1"></path><path clip-path="url(#clip160)" d="M55.9197 692.335 L55.9197 685.619 L64.0042 685.619 L64.0042 692.335 L55.9197 692.335 Z" fill="#000000" fill-rule="nonzero" fill-opacity="1"></path><path clip-path="url(#clip160)" d="M46.0847 656.241 Q46.0847 663.339 47.7079 666.076 Q49.3312 668.813 53.2461 668.813 Q56.3653 668.813 58.2114 666.776 Q60.0256 664.708 60.0256 661.175 Q60.0256 656.305 56.5881 653.377 Q53.1188 650.417 47.3897 650.417 L46.0847 650.417 L46.0847 656.241 M43.6657 644.56 L64.0042 644.56 L64.0042 650.417 L58.5933 650.417 Q61.8398 652.422 63.3994 655.414 Q64.9272 658.406 64.9272 662.734 Q64.9272 668.209 61.8716 671.455 Q58.7843 674.67 53.6281 674.67 Q47.6125 674.67 44.5569 670.66 Q41.5014 666.617 41.5014 658.628 L41.5014 650.417 L40.9285 650.417 Q36.8862 650.417 34.6901 653.09 Q32.4621 655.732 32.4621 660.538 Q32.4621 663.594 33.1941 666.49 Q33.9262 669.386 35.3903 672.06 L29.9795 672.06 Q28.7381 668.845 28.1334 665.822 Q27.4968 662.798 27.4968 659.933 Q27.4968 652.199 31.5072 648.38 Q35.5176 644.56 43.6657 644.56 Z" fill="#000000" fill-rule="nonzero" fill-opacity="1"></path><path clip-path="url(#clip160)" d="M55.9197 631.67 L55.9197 624.954 L64.0042 624.954 L64.0042 631.67 L55.9197 631.67 Z" fill="#000000" fill-rule="nonzero" fill-opacity="1"></path><path clip-path="url(#clip160)" d="M29.4065 589.051 L34.9447 589.051 Q33.6716 591.534 33.035 594.207 Q32.3984 596.881 32.3984 599.746 Q32.3984 604.106 33.7352 606.302 Q35.072 608.467 37.7456 608.467 Q39.7826 608.467 40.9603 606.907 Q42.1061 605.347 43.1565 600.637 L43.6021 598.632 Q44.9389 592.393 47.3897 589.783 Q49.8086 587.141 54.1691 587.141 Q59.1344 587.141 62.0308 591.088 Q64.9272 595.003 64.9272 601.878 Q64.9272 604.743 64.3543 607.862 Q63.8132 610.949 62.6992 614.387 L56.6518 614.387 Q58.3387 611.14 59.198 607.989 Q60.0256 604.838 60.0256 601.751 Q60.0256 597.613 58.6251 595.385 Q57.1929 593.157 54.6147 593.157 Q52.2276 593.157 50.9545 594.78 Q49.6813 596.372 48.5037 601.814 L48.0262 603.851 Q46.8804 609.294 44.5251 611.713 Q42.138 614.132 38.0002 614.132 Q32.9713 614.132 30.2341 610.567 Q27.4968 607.002 27.4968 600.446 Q27.4968 597.199 27.9743 594.335 Q28.4517 591.47 29.4065 589.051 Z" fill="#000000" fill-rule="nonzero" fill-opacity="1"></path><path clip-path="url(#clip160)" d="M55.9197 576.988 L55.9197 570.272 L64.0042 570.272 L64.0042 576.988 L55.9197 576.988 Z" fill="#000000" fill-rule="nonzero" fill-opacity="1"></path><path clip-path="url(#clip160)" d="M14.479 557.095 L14.479 551.239 L64.0042 551.239 L64.0042 557.095 L14.479 557.095 Z" fill="#000000" fill-rule="nonzero" fill-opacity="1"></path><path clip-path="url(#clip160)" d="M55.9197 538.157 L55.9197 531.442 L64.0042 531.442 L64.0042 538.157 L55.9197 538.157 Z" fill="#000000" fill-rule="nonzero" fill-opacity="1"></path><path clip-path="url(#clip160)" d="M14.5426 519.188 L14.5426 514.095 Q22.0542 509.321 29.2474 506.965 Q36.4406 504.578 43.5384 504.578 Q50.668 504.578 57.8931 506.965 Q65.1182 509.321 72.5979 514.095 L72.5979 519.188 Q65.3091 514.954 58.1159 512.885 Q50.8908 510.785 43.5384 510.785 Q36.186 510.785 29.0246 512.885 Q21.8632 514.954 14.5426 519.188 Z" fill="#000000" fill-rule="nonzero" fill-opacity="1"></path><path clip-path="url(#clip160)" d="M691.447 12.096 L726.204 12.096 L726.204 18.9825 L699.63 18.9825 L699.63 36.8065 L723.612 36.8065 L723.612 43.6931 L699.63 43.6931 L699.63 72.576 L691.447 72.576 L691.447 12.096 Z" fill="#000000" fill-rule="nonzero" fill-opacity="1"></path><path clip-path="url(#clip160)" d="M759.097 34.1734 Q757.842 33.4443 756.343 33.1202 Q754.885 32.7556 753.102 32.7556 Q746.783 32.7556 743.38 36.8875 Q740.018 40.9789 740.018 48.6757 L740.018 72.576 L732.524 72.576 L732.524 27.2059 L740.018 27.2059 L740.018 34.2544 Q742.367 30.1225 746.135 28.1376 Q749.902 26.1121 755.29 26.1121 Q756.059 26.1121 756.991 26.2337 Q757.923 26.3147 759.057 26.5172 L759.097 34.1734 Z" fill="#000000" fill-rule="nonzero" fill-opacity="1"></path><path clip-path="url(#clip160)" d="M790.451 19.2256 L769.792 51.5113 L790.451 51.5113 L790.451 19.2256 M788.304 12.096 L798.594 12.096 L798.594 51.5113 L807.222 51.5113 L807.222 58.3168 L798.594 58.3168 L798.594 72.576 L790.451 72.576 L790.451 58.3168 L763.148 58.3168 L763.148 50.4176 L788.304 12.096 Z" fill="#000000" fill-rule="nonzero" fill-opacity="1"></path><path clip-path="url(#clip160)" d="M820.023 12.096 L831.042 12.096 L857.859 62.6918 L857.859 12.096 L865.798 12.096 L865.798 72.576 L854.78 72.576 L827.963 21.9802 L827.963 72.576 L820.023 72.576 L820.023 12.096 Z" fill="#000000" fill-rule="nonzero" fill-opacity="1"></path><path clip-path="url(#clip160)" d="M900.312 17.4837 Q893.993 17.4837 890.792 23.7221 Q887.633 29.92 887.633 42.3968 Q887.633 54.833 890.792 61.0714 Q893.993 67.2693 900.312 67.2693 Q906.672 67.2693 909.832 61.0714 Q913.032 54.833 913.032 42.3968 Q913.032 29.92 909.832 23.7221 Q906.672 17.4837 900.312 17.4837 M900.312 11.0023 Q910.48 11.0023 915.827 19.0636 Q921.215 27.0843 921.215 42.3968 Q921.215 57.6687 915.827 65.73 Q910.48 73.7508 900.312 73.7508 Q890.144 73.7508 884.757 65.73 Q879.409 57.6687 879.409 42.3968 Q879.409 27.0843 884.757 19.0636 Q890.144 11.0023 900.312 11.0023 Z" fill="#000000" fill-rule="nonzero" fill-opacity="1"></path><path clip-path="url(#clip160)" d="M937.013 65.6895 L950.381 65.6895 L950.381 19.5497 L935.838 22.4663 L935.838 15.0127 L950.3 12.096 L958.483 12.096 L958.483 65.6895 L971.851 65.6895 L971.851 72.576 L937.013 72.576 L937.013 65.6895 Z" fill="#000000" fill-rule="nonzero" fill-opacity="1"></path><path clip-path="url(#clip160)" d="M989.796 65.6895 L1003.16 65.6895 L1003.16 19.5497 L988.622 22.4663 L988.622 15.0127 L1003.08 12.096 L1011.27 12.096 L1011.27 65.6895 L1024.63 65.6895 L1024.63 72.576 L989.796 72.576 L989.796 65.6895 Z" fill="#000000" fill-rule="nonzero" fill-opacity="1"></path><path clip-path="url(#clip160)" d="M1059.67 39.075 Q1054.17 39.075 1050.92 42.8424 Q1047.72 46.6097 1047.72 53.1722 Q1047.72 59.6941 1050.92 63.502 Q1054.17 67.2693 1059.67 67.2693 Q1065.18 67.2693 1068.38 63.502 Q1071.62 59.6941 1071.62 53.1722 Q1071.62 46.6097 1068.38 42.8424 Q1065.18 39.075 1059.67 39.075 M1075.92 13.4328 L1075.92 20.8865 Q1072.84 19.4281 1069.68 18.6585 Q1066.56 17.8888 1063.48 17.8888 Q1055.38 17.8888 1051.09 23.3575 Q1046.83 28.8262 1046.23 39.8852 Q1048.62 36.3609 1052.22 34.4975 Q1055.83 32.5936 1060.16 32.5936 Q1069.28 32.5936 1074.54 38.1433 Q1079.85 43.6525 1079.85 53.1722 Q1079.85 62.4892 1074.34 68.12 Q1068.83 73.7508 1059.67 73.7508 Q1049.18 73.7508 1043.63 65.73 Q1038.08 57.6687 1038.08 42.3968 Q1038.08 28.0566 1044.89 19.5497 Q1051.69 11.0023 1063.16 11.0023 Q1066.24 11.0023 1069.36 11.6099 Q1072.52 12.2175 1075.92 13.4328 Z" fill="#000000" fill-rule="nonzero" fill-opacity="1"></path><path clip-path="url(#clip160)" d="M1118.74 39.9662 Q1124.61 41.222 1127.89 45.1919 Q1131.21 49.1618 1131.21 54.9951 Q1131.21 63.9476 1125.06 68.8492 Q1118.9 73.7508 1107.56 73.7508 Q1103.75 73.7508 1099.7 72.9811 Q1095.69 72.2519 1091.39 70.7531 L1091.39 62.8538 Q1094.8 64.8388 1098.85 65.8515 Q1102.9 66.8642 1107.31 66.8642 Q1115.01 66.8642 1119.02 63.826 Q1123.07 60.7879 1123.07 54.9951 Q1123.07 49.6479 1119.3 46.6502 Q1115.58 43.612 1108.89 43.612 L1101.84 43.612 L1101.84 36.8875 L1109.22 36.8875 Q1115.25 36.8875 1118.45 34.4975 Q1121.65 32.067 1121.65 27.5299 Q1121.65 22.8714 1118.33 20.4004 Q1115.05 17.8888 1108.89 17.8888 Q1105.53 17.8888 1101.68 18.618 Q1097.83 19.3471 1093.22 20.8865 L1093.22 13.5948 Q1097.87 12.2985 1101.93 11.6504 Q1106.02 11.0023 1109.62 11.0023 Q1118.94 11.0023 1124.37 15.2557 Q1129.8 19.4686 1129.8 26.6793 Q1129.8 31.7024 1126.92 35.1862 Q1124.04 38.6294 1118.74 39.9662 Z" fill="#000000" fill-rule="nonzero" fill-opacity="1"></path><path clip-path="url(#clip160)" d="M1166.21 20.1573 L1155.11 50.2555 L1177.35 50.2555 L1166.21 20.1573 M1161.6 12.096 L1170.87 12.096 L1193.92 72.576 L1185.41 72.576 L1179.91 57.061 L1152.64 57.061 L1147.13 72.576 L1138.51 72.576 L1161.6 12.096 Z" fill="#000000" fill-rule="nonzero" fill-opacity="1"></path><path clip-path="url(#clip160)" d="M1220.98 17.4837 Q1214.66 17.4837 1211.46 23.7221 Q1208.3 29.92 1208.3 42.3968 Q1208.3 54.833 1211.46 61.0714 Q1214.66 67.2693 1220.98 67.2693 Q1227.34 67.2693 1230.5 61.0714 Q1233.7 54.833 1233.7 42.3968 Q1233.7 29.92 1230.5 23.7221 Q1227.34 17.4837 1220.98 17.4837 M1220.98 11.0023 Q1231.15 11.0023 1236.5 19.0636 Q1241.88 27.0843 1241.88 42.3968 Q1241.88 57.6687 1236.5 65.73 Q1231.15 73.7508 1220.98 73.7508 Q1210.81 73.7508 1205.43 65.73 Q1200.08 57.6687 1200.08 42.3968 Q1200.08 27.0843 1205.43 19.0636 Q1210.81 11.0023 1220.98 11.0023 Z" fill="#000000" fill-rule="nonzero" fill-opacity="1"></path><path clip-path="url(#clip160)" d="M1263.31 65.6895 L1291.87 65.6895 L1291.87 72.576 L1253.47 72.576 L1253.47 65.6895 Q1258.13 60.8689 1266.15 52.7671 Q1274.21 44.6248 1276.28 42.2752 Q1280.21 37.8598 1281.75 34.8216 Q1283.32 31.7429 1283.32 28.7857 Q1283.32 23.9651 1279.92 20.927 Q1276.56 17.8888 1271.13 17.8888 Q1267.28 17.8888 1262.99 19.2256 Q1258.74 20.5624 1253.87 23.2765 L1253.87 15.0127 Q1258.82 13.0277 1263.11 12.015 Q1267.4 11.0023 1270.97 11.0023 Q1280.37 11.0023 1285.96 15.7013 Q1291.55 20.4004 1291.55 28.2591 Q1291.55 31.9859 1290.13 35.3482 Q1288.75 38.6699 1285.07 43.2069 Q1284.05 44.3817 1278.63 50.0125 Q1273.2 55.6027 1263.31 65.6895 Z" fill="#000000" fill-rule="nonzero" fill-opacity="1"></path><path clip-path="url(#clip160)" d="M1342.87 18.8205 L1342.87 65.8515 L1352.76 65.8515 Q1365.27 65.8515 1371.07 60.1802 Q1376.9 54.509 1376.9 42.2752 Q1376.9 30.1225 1371.07 24.4918 Q1365.27 18.8205 1352.76 18.8205 L1342.87 18.8205 M1334.69 12.096 L1351.5 12.096 Q1369.08 12.096 1377.31 19.4281 Q1385.53 26.7198 1385.53 42.2752 Q1385.53 57.9117 1377.27 65.2439 Q1369 72.576 1351.5 72.576 L1334.69 72.576 L1334.69 12.096 Z" fill="#000000" fill-rule="nonzero" fill-opacity="1"></path><path clip-path="url(#clip160)" d="M1437.06 48.0275 L1437.06 51.6733 L1402.79 51.6733 Q1403.27 59.3701 1407.4 63.421 Q1411.58 67.4314 1418.99 67.4314 Q1423.28 67.4314 1427.29 66.3781 Q1431.35 65.3249 1435.31 63.2184 L1435.31 70.267 Q1431.3 71.9684 1427.09 72.8596 Q1422.88 73.7508 1418.54 73.7508 Q1407.69 73.7508 1401.33 67.4314 Q1395.01 61.1119 1395.01 50.3365 Q1395.01 39.1965 1401 32.6746 Q1407.04 26.1121 1417.25 26.1121 Q1426.4 26.1121 1431.71 32.0264 Q1437.06 37.9003 1437.06 48.0275 M1429.6 45.84 Q1429.52 39.7232 1426.16 36.0774 Q1422.84 32.4315 1417.33 32.4315 Q1411.09 32.4315 1407.32 35.9558 Q1403.6 39.4801 1403.03 45.8805 L1429.6 45.84 Z" fill="#000000" fill-rule="nonzero" fill-opacity="1"></path><path clip-path="url(#clip160)" d="M1512.24 14.0809 L1512.24 22.0612 Q1507.58 19.8332 1503.45 18.7395 Q1499.32 17.6457 1495.47 17.6457 Q1488.79 17.6457 1485.14 20.2383 Q1481.54 22.8309 1481.54 27.611 Q1481.54 31.6214 1483.93 33.6873 Q1486.36 35.7128 1493.08 36.9686 L1498.02 37.9813 Q1507.18 39.7232 1511.51 44.1387 Q1515.89 48.5136 1515.89 55.8863 Q1515.89 64.6767 1509.97 69.2137 Q1504.1 73.7508 1492.72 73.7508 Q1488.42 73.7508 1483.56 72.7785 Q1478.74 71.8063 1473.56 69.9024 L1473.56 61.4765 Q1478.54 64.2716 1483.32 65.6895 Q1488.1 67.1073 1492.72 67.1073 Q1499.72 67.1073 1503.53 64.3527 Q1507.34 61.598 1507.34 56.4939 Q1507.34 52.0379 1504.59 49.5264 Q1501.87 47.0148 1495.63 45.759 L1490.65 44.7868 Q1481.5 42.9639 1477.4 39.075 Q1473.31 35.1862 1473.31 28.2591 Q1473.31 20.2383 1478.94 15.6203 Q1484.61 11.0023 1494.54 11.0023 Q1498.79 11.0023 1503.21 11.7719 Q1507.62 12.5416 1512.24 14.0809 Z" fill="#000000" fill-rule="nonzero" fill-opacity="1"></path><path clip-path="url(#clip160)" d="M1548.94 49.7694 Q1539.91 49.7694 1536.43 51.8354 Q1532.94 53.9013 1532.94 58.8839 Q1532.94 62.8538 1535.53 65.2034 Q1538.17 67.5124 1542.66 67.5124 Q1548.86 67.5124 1552.59 63.1374 Q1556.36 58.7219 1556.36 51.4303 L1556.36 49.7694 L1548.94 49.7694 M1563.81 46.6907 L1563.81 72.576 L1556.36 72.576 L1556.36 65.6895 Q1553.8 69.8214 1550 71.8063 Q1546.19 73.7508 1540.68 73.7508 Q1533.71 73.7508 1529.58 69.8619 Q1525.49 65.9325 1525.49 59.3701 Q1525.49 51.7138 1530.59 47.825 Q1535.74 43.9361 1545.9 43.9361 L1556.36 43.9361 L1556.36 43.2069 Q1556.36 38.0623 1552.95 35.2672 Q1549.59 32.4315 1543.47 32.4315 Q1539.59 32.4315 1535.9 33.3632 Q1532.21 34.295 1528.81 36.1584 L1528.81 29.2718 Q1532.9 27.692 1536.75 26.9223 Q1540.6 26.1121 1544.24 26.1121 Q1554.09 26.1121 1558.95 31.2163 Q1563.81 36.3204 1563.81 46.6907 Z" fill="#000000" fill-rule="nonzero" fill-opacity="1"></path><path clip-path="url(#clip160)" d="M1605.45 34.1734 Q1604.2 33.4443 1602.7 33.1202 Q1601.24 32.7556 1599.46 32.7556 Q1593.14 32.7556 1589.74 36.8875 Q1586.37 40.9789 1586.37 48.6757 L1586.37 72.576 L1578.88 72.576 L1578.88 27.2059 L1586.37 27.2059 L1586.37 34.2544 Q1588.72 30.1225 1592.49 28.1376 Q1596.26 26.1121 1601.65 26.1121 Q1602.41 26.1121 1603.35 26.2337 Q1604.28 26.3147 1605.41 26.5172 L1605.45 34.1734 Z" fill="#000000" fill-rule="nonzero" fill-opacity="1"></path><path clip-path="url(#clip160)" d="M1650.26 48.0275 L1650.26 51.6733 L1615.99 51.6733 Q1616.47 59.3701 1620.6 63.421 Q1624.78 67.4314 1632.19 67.4314 Q1636.48 67.4314 1640.49 66.3781 Q1644.54 65.3249 1648.51 63.2184 L1648.51 70.267 Q1644.5 71.9684 1640.29 72.8596 Q1636.08 73.7508 1631.74 73.7508 Q1620.89 73.7508 1614.53 67.4314 Q1608.21 61.1119 1608.21 50.3365 Q1608.21 39.1965 1614.2 32.6746 Q1620.24 26.1121 1630.45 26.1121 Q1639.6 26.1121 1644.91 32.0264 Q1650.26 37.9003 1650.26 48.0275 M1642.8 45.84 Q1642.72 39.7232 1639.36 36.0774 Q1636.04 32.4315 1630.53 32.4315 Q1624.29 32.4315 1620.52 35.9558 Q1616.8 39.4801 1616.23 45.8805 L1642.8 45.84 Z" fill="#000000" fill-rule="nonzero" fill-opacity="1"></path><path clip-path="url(#clip160)" d="M1700.2 45.1919 L1700.2 72.576 L1692.75 72.576 L1692.75 45.4349 Q1692.75 38.994 1690.24 35.7938 Q1687.73 32.5936 1682.7 32.5936 Q1676.67 32.5936 1673.18 36.4419 Q1669.7 40.2903 1669.7 46.9338 L1669.7 72.576 L1662.21 72.576 L1662.21 27.2059 L1669.7 27.2059 L1669.7 34.2544 Q1672.37 30.163 1675.98 28.1376 Q1679.62 26.1121 1684.36 26.1121 Q1692.18 26.1121 1696.19 30.9732 Q1700.2 35.7938 1700.2 45.1919 Z" fill="#000000" fill-rule="nonzero" fill-opacity="1"></path><path clip-path="url(#clip160)" d="M1752.78 45.1919 L1752.78 72.576 L1745.33 72.576 L1745.33 45.4349 Q1745.33 38.994 1742.82 35.7938 Q1740.31 32.5936 1735.28 32.5936 Q1729.25 32.5936 1725.76 36.4419 Q1722.28 40.2903 1722.28 46.9338 L1722.28 72.576 L1714.79 72.576 L1714.79 27.2059 L1722.28 27.2059 L1722.28 34.2544 Q1724.95 30.163 1728.56 28.1376 Q1732.21 26.1121 1736.95 26.1121 Q1744.76 26.1121 1748.77 30.9732 Q1752.78 35.7938 1752.78 45.1919 Z" fill="#000000" fill-rule="nonzero" fill-opacity="1"></path><path clip-path="url(#clip160)" d="M1806.46 48.0275 L1806.46 51.6733 L1772.19 51.6733 Q1772.67 59.3701 1776.81 63.421 Q1780.98 67.4314 1788.39 67.4314 Q1792.69 67.4314 1796.7 66.3781 Q1800.75 65.3249 1804.72 63.2184 L1804.72 70.267 Q1800.71 71.9684 1796.49 72.8596 Q1792.28 73.7508 1787.95 73.7508 Q1777.09 73.7508 1770.73 67.4314 Q1764.41 61.1119 1764.41 50.3365 Q1764.41 39.1965 1770.41 32.6746 Q1776.44 26.1121 1786.65 26.1121 Q1795.8 26.1121 1801.11 32.0264 Q1806.46 37.9003 1806.46 48.0275 M1799.01 45.84 Q1798.92 39.7232 1795.56 36.0774 Q1792.24 32.4315 1786.73 32.4315 Q1780.49 32.4315 1776.73 35.9558 Q1773 39.4801 1772.43 45.8805 L1799.01 45.84 Z" fill="#000000" fill-rule="nonzero" fill-opacity="1"></path><path clip-path="url(#clip160)" d="M1847.62 28.5427 L1847.62 35.5912 Q1844.46 33.9709 1841.05 33.1607 Q1837.65 32.3505 1834 32.3505 Q1828.46 32.3505 1825.66 34.0519 Q1822.91 35.7533 1822.91 39.156 Q1822.91 41.7486 1824.89 43.2475 Q1826.88 44.7058 1832.87 46.0426 L1835.42 46.6097 Q1843.36 48.3111 1846.68 51.4303 Q1850.05 54.509 1850.05 60.0587 Q1850.05 66.3781 1845.02 70.0644 Q1840.04 73.7508 1831.29 73.7508 Q1827.64 73.7508 1823.68 73.0216 Q1819.75 72.3329 1815.37 70.9151 L1815.37 63.2184 Q1819.5 65.3654 1823.51 66.4591 Q1827.52 67.5124 1831.45 67.5124 Q1836.72 67.5124 1839.55 65.73 Q1842.39 63.9071 1842.39 60.6258 Q1842.39 57.5877 1840.32 55.9673 Q1838.3 54.3469 1831.37 52.8481 L1828.78 52.2405 Q1821.85 50.7821 1818.77 47.7845 Q1815.69 44.7463 1815.69 39.4801 Q1815.69 33.0797 1820.23 29.5959 Q1824.77 26.1121 1833.11 26.1121 Q1837.25 26.1121 1840.89 26.7198 Q1844.54 27.3274 1847.62 28.5427 Z" fill="#000000" fill-rule="nonzero" fill-opacity="1"></path><path clip-path="url(#clip160)" d="M1890.76 65.6895 L1904.13 65.6895 L1904.13 19.5497 L1889.58 22.4663 L1889.58 15.0127 L1904.05 12.096 L1912.23 12.096 L1912.23 65.6895 L1925.6 65.6895 L1925.6 72.576 L1890.76 72.576 L1890.76 65.6895 Z" fill="#000000" fill-rule="nonzero" fill-opacity="1"></path><polyline clip-path="url(#clip162)" style="stroke:#a52a2a; stroke-linecap:round; stroke-linejoin:round; stroke-width:4; stroke-opacity:1; fill:none" points="323.395,240.257 356.232,265.54 389.07,291.026 421.908,325.196 454.745,364.451 487.583,399.652 520.42,436.491 553.258,472.677 586.095,499.482 618.933,521.454 651.77,548.414 684.608,573.209 717.446,590.432 750.283,607.665 783.121,628.527 815.958,629.312 848.796,624.317 881.633,616.554 914.471,606.67 947.308,616.361 980.146,623.525 1012.98,633.879 1045.82,644.783 1078.66,655.123 1111.5,664.22 1144.33,671.482 1177.17,676.439 1210.01,679.715 1242.85,683.346 1275.68,690.242 1308.52,702.866 1341.36,722.318 1374.2,748.3 1407.03,779.17 1439.87,812.179 1472.71,844.456 1505.55,874.062 1538.38,899.758 1571.22,920.678 1604.06,937.245 1636.9,950.742 1669.73,962.605 1702.57,973.767 1735.41,984.608 1768.25,995.617 1801.08,1007.95 1833.92,1023.21 1866.76,1042.25 1899.6,1064.43 1932.44,1088.02 1965.27,1111.81 1998.11,1136.28 2030.95,1162.99 2063.79,1193.38 2096.62,1228.44 2129.46,1268.57 2162.3,1312.87 2195.14,1358.42 2227.97,1399.88 2260.81,1431.09 2293.65,1447.87 "></polyline>
<polyline clip-path="url(#clip162)" style="stroke:#0000ff; stroke-linecap:round; stroke-linejoin:round; stroke-width:4; stroke-opacity:1; fill:none" points="323.395,235.705 356.232,265.54 389.07,291.026 421.908,325.196 454.745,364.451 487.583,399.652 520.42,436.491 553.258,472.677 586.095,499.482 618.933,521.454 651.77,548.414 684.608,573.209 717.446,590.432 750.283,607.665 783.121,628.527 815.958,629.312 848.796,624.317 881.633,616.554 914.471,606.67 947.308,616.361 980.146,623.525 1012.98,633.879 1045.82,644.783 1078.66,655.123 1111.5,664.22 1144.33,671.482 1177.17,676.439 1210.01,679.715 1242.85,683.346 1275.68,690.242 1308.52,702.866 1341.36,722.318 1374.2,748.3 1407.03,779.17 1439.87,812.179 1472.71,844.456 1505.55,874.062 1538.38,899.758 1571.22,920.678 1604.06,937.245 1636.9,950.742 1669.73,962.605 1702.57,973.767 1735.41,984.608 1768.25,995.617 1801.08,1007.95 1833.92,1023.21 1866.76,1042.25 1899.6,1064.43 1932.44,1088.02 1965.27,1111.81 1998.11,1136.28 2030.95,1162.99 2063.79,1193.38 2096.62,1228.44 2129.46,1268.57 2162.3,1312.87 2195.14,1358.42 2227.97,1399.88 2260.81,1431.09 2293.65,1447.87 "></polyline>
<polyline clip-path="url(#clip162)" style="stroke:#ff0000; stroke-linecap:round; stroke-linejoin:round; stroke-width:4; stroke-opacity:1; fill:none" points="323.395,240.257 356.232,265.54 389.07,291.026 421.908,325.196 454.745,364.451 487.583,399.652 520.42,436.491 553.258,472.677 586.095,499.482 618.933,521.454 651.77,548.414 684.608,573.209 717.446,590.432 750.283,607.665 783.121,628.527 815.958,629.312 848.796,624.317 881.633,616.554 914.471,606.67 947.308,616.361 980.146,623.525 1012.98,633.879 1045.82,644.783 1078.66,655.123 1111.5,664.22 1144.33,671.482 1177.17,676.439 1210.01,679.715 1242.85,683.346 1275.68,690.242 1308.52,702.866 1341.36,722.318 1374.2,748.3 1407.03,779.17 1439.87,812.179 1472.71,844.456 1505.55,874.062 1538.38,899.758 1571.22,920.678 1604.06,937.245 1636.9,950.742 1669.73,962.605 1702.57,973.767 1735.41,984.608 1768.25,995.617 1801.08,1007.95 1833.92,1023.21 1866.76,1042.25 1899.6,1064.43 1932.44,1088.02 1965.27,1111.81 1998.11,1136.28 2030.95,1162.99 2063.79,1193.38 2096.62,1228.44 2129.46,1268.57 2162.3,1312.87 2195.14,1358.42 2227.97,1399.88 2260.81,1431.09 2293.65,1447.87 "></polyline>
<polyline clip-path="url(#clip162)" style="stroke:#008000; stroke-linecap:round; stroke-linejoin:round; stroke-width:4; stroke-opacity:1; fill:none" points="323.395,162.047 356.232,189.494 389.07,219.365 421.908,255.784 454.745,291.53 487.583,323.331 520.42,355.133 553.258,380.155 586.095,401.215 618.933,422.275 651.77,442.842 684.608,459.522 717.446,476.201 750.283,492.88 783.121,509.559 815.958,524.87 848.796,539.516 881.633,554.163 914.471,568.809 947.308,616.361 980.146,623.525 1012.98,633.879 1045.82,644.783 1078.66,655.123 1111.5,664.22 1144.33,671.482 1177.17,676.439 1210.01,679.715 1242.85,683.346 1275.68,690.242 1308.52,702.866 1341.36,722.318 1374.2,748.3 1407.03,779.17 1439.87,812.179 1472.71,844.456 1505.55,874.062 1538.38,899.758 1571.22,920.678 1604.06,937.245 1636.9,950.742 1669.73,962.605 1702.57,973.767 1735.41,984.608 1768.25,995.617 1801.08,1007.95 1833.92,1023.21 1866.76,1042.25 1899.6,1064.43 1932.44,1088.02 1965.27,1111.81 1998.11,1136.28 2030.95,1162.99 2063.79,1193.38 2096.62,1228.44 2129.46,1268.57 2162.3,1312.87 2195.14,1358.42 2227.97,1399.88 2260.81,1431.09 2293.65,1447.87 "></polyline>
<polyline clip-path="url(#clip162)" style="stroke:#000000; stroke-linecap:round; stroke-linejoin:round; stroke-width:4; stroke-opacity:1; fill:none" stroke-dasharray="16, 10" points="323.395,240.257 356.232,265.54 389.07,291.026 421.908,325.196 454.745,364.451 487.583,399.652 520.42,436.491 553.258,472.677 586.095,499.482 618.933,521.454 651.77,548.414 684.608,573.209 717.446,590.432 750.283,607.665 783.121,628.527 815.958,629.312 848.796,624.317 881.633,616.554 914.471,606.67 947.308,616.361 980.146,623.525 1012.98,633.879 1045.82,644.783 1078.66,655.123 1111.5,664.22 1144.33,671.482 1177.17,676.439 1210.01,679.715 1242.85,683.346 1275.68,690.242 1308.52,702.866 1341.36,722.318 1374.2,748.3 1407.03,779.17 1439.87,812.179 1472.71,844.456 1505.55,874.062 1538.38,899.758 1571.22,920.678 1604.06,937.245 1636.9,950.742 1669.73,962.605 1702.57,973.767 1735.41,984.608 1768.25,995.617 1801.08,1007.95 1833.92,1023.21 1866.76,1042.25 1899.6,1064.43 1932.44,1088.02 1965.27,1111.81 1998.11,1136.28 2030.95,1162.99 2063.79,1193.38 2096.62,1228.44 2129.46,1268.57 2162.3,1312.87 2195.14,1358.42 2227.97,1399.88 2260.81,1431.09 2293.65,1447.87 "></polyline>
<path clip-path="url(#clip160)" d="M1729.57 479.945 L2283.14 479.945 L2283.14 168.905 L1729.57 168.905  Z" fill="#ffffff" fill-rule="evenodd" fill-opacity="1"></path>
<polyline clip-path="url(#clip160)" style="stroke:#000000; stroke-linecap:round; stroke-linejoin:round; stroke-width:4; stroke-opacity:1; fill:none" points="1729.57,479.945 2283.14,479.945 2283.14,168.905 1729.57,168.905 1729.57,479.945 "></polyline>
<polyline clip-path="url(#clip160)" style="stroke:#a52a2a; stroke-linecap:round; stroke-linejoin:round; stroke-width:4; stroke-opacity:1; fill:none" points="1752.78,220.745 1892.01,220.745 "></polyline>
<path clip-path="url(#clip160)" d="M1933.99 225.085 Q1933.99 220.386 1932.04 217.724 Q1930.12 215.039 1926.74 215.039 Q1923.36 215.039 1921.42 217.724 Q1919.5 220.386 1919.5 225.085 Q1919.5 229.784 1921.42 232.469 Q1923.36 235.131 1926.74 235.131 Q1930.12 235.131 1932.04 232.469 Q1933.99 229.784 1933.99 225.085 M1919.5 216.034 Q1920.84 213.719 1922.88 212.608 Q1924.94 211.474 1927.78 211.474 Q1932.51 211.474 1935.45 215.224 Q1938.41 218.974 1938.41 225.085 Q1938.41 231.196 1935.45 234.946 Q1932.51 238.696 1927.78 238.696 Q1924.94 238.696 1922.88 237.585 Q1920.84 236.451 1919.5 234.136 L1919.5 238.025 L1915.21 238.025 L1915.21 202.006 L1919.5 202.006 L1919.5 216.034 Z" fill="#000000" fill-rule="nonzero" fill-opacity="1"></path><path clip-path="url(#clip160)" d="M1967.64 223.997 L1967.64 226.08 L1948.06 226.08 Q1948.34 230.478 1950.7 232.793 Q1953.08 235.085 1957.32 235.085 Q1959.77 235.085 1962.07 234.483 Q1964.38 233.881 1966.65 232.677 L1966.65 236.705 Q1964.36 237.677 1961.95 238.187 Q1959.54 238.696 1957.07 238.696 Q1950.86 238.696 1947.23 235.085 Q1943.62 231.474 1943.62 225.316 Q1943.62 218.951 1947.04 215.224 Q1950.49 211.474 1956.33 211.474 Q1961.56 211.474 1964.59 214.853 Q1967.64 218.21 1967.64 223.997 M1963.39 222.747 Q1963.34 219.252 1961.42 217.168 Q1959.52 215.085 1956.37 215.085 Q1952.81 215.085 1950.65 217.099 Q1948.52 219.113 1948.2 222.77 L1963.39 222.747 Z" fill="#000000" fill-rule="nonzero" fill-opacity="1"></path><path clip-path="url(#clip160)" d="M1991.7 216.034 L1991.7 202.006 L1995.96 202.006 L1995.96 238.025 L1991.7 238.025 L1991.7 234.136 Q1990.35 236.451 1988.29 237.585 Q1986.26 238.696 1983.39 238.696 Q1978.69 238.696 1975.72 234.946 Q1972.78 231.196 1972.78 225.085 Q1972.78 218.974 1975.72 215.224 Q1978.69 211.474 1983.39 211.474 Q1986.26 211.474 1988.29 212.608 Q1990.35 213.719 1991.7 216.034 M1977.18 225.085 Q1977.18 229.784 1979.1 232.469 Q1981.05 235.131 1984.43 235.131 Q1987.81 235.131 1989.75 232.469 Q1991.7 229.784 1991.7 225.085 Q1991.7 220.386 1989.75 217.724 Q1987.81 215.039 1984.43 215.039 Q1981.05 215.039 1979.1 217.724 Q1977.18 220.386 1977.18 225.085 Z" fill="#000000" fill-rule="nonzero" fill-opacity="1"></path><polyline clip-path="url(#clip160)" style="stroke:#0000ff; stroke-linecap:round; stroke-linejoin:round; stroke-width:4; stroke-opacity:1; fill:none" points="1752.78,272.585 1892.01,272.585 "></polyline>
<path clip-path="url(#clip160)" d="M1933.64 264.703 L1933.64 268.731 Q1931.83 267.805 1929.89 267.342 Q1927.95 266.879 1925.86 266.879 Q1922.69 266.879 1921.09 267.851 Q1919.52 268.823 1919.52 270.768 Q1919.52 272.249 1920.65 273.105 Q1921.79 273.939 1925.21 274.703 L1926.67 275.027 Q1931.21 275.999 1933.11 277.781 Q1935.03 279.541 1935.03 282.712 Q1935.03 286.323 1932.16 288.429 Q1929.31 290.536 1924.31 290.536 Q1922.23 290.536 1919.96 290.119 Q1917.71 289.726 1915.21 288.916 L1915.21 284.517 Q1917.58 285.744 1919.87 286.369 Q1922.16 286.971 1924.4 286.971 Q1927.41 286.971 1929.03 285.953 Q1930.65 284.911 1930.65 283.036 Q1930.65 281.3 1929.47 280.374 Q1928.32 279.448 1924.36 278.592 L1922.88 278.244 Q1918.92 277.411 1917.16 275.698 Q1915.4 273.962 1915.4 270.953 Q1915.4 267.295 1917.99 265.305 Q1920.59 263.314 1925.35 263.314 Q1927.71 263.314 1929.8 263.661 Q1931.88 264.008 1933.64 264.703 Z" fill="#000000" fill-rule="nonzero" fill-opacity="1"></path><path clip-path="url(#clip160)" d="M1941.37 279.633 L1941.37 263.939 L1945.63 263.939 L1945.63 279.471 Q1945.63 283.152 1947.07 285.004 Q1948.5 286.832 1951.37 286.832 Q1954.82 286.832 1956.81 284.633 Q1958.83 282.434 1958.83 278.638 L1958.83 263.939 L1963.08 263.939 L1963.08 289.865 L1958.83 289.865 L1958.83 285.883 Q1957.27 288.244 1955.21 289.402 Q1953.18 290.536 1950.47 290.536 Q1946 290.536 1943.69 287.758 Q1941.37 284.98 1941.37 279.633 M1952.09 263.314 L1952.09 263.314 Z" fill="#000000" fill-rule="nonzero" fill-opacity="1"></path><path clip-path="url(#clip160)" d="M1986.88 267.92 Q1986.16 267.504 1985.31 267.318 Q1984.47 267.11 1983.46 267.11 Q1979.84 267.11 1977.9 269.471 Q1975.98 271.809 1975.98 276.207 L1975.98 289.865 L1971.7 289.865 L1971.7 263.939 L1975.98 263.939 L1975.98 267.967 Q1977.32 265.606 1979.47 264.471 Q1981.63 263.314 1984.71 263.314 Q1985.14 263.314 1985.68 263.383 Q1986.21 263.43 1986.86 263.545 L1986.88 267.92 Z" fill="#000000" fill-rule="nonzero" fill-opacity="1"></path><path clip-path="url(#clip160)" d="M2004.47 253.846 L2004.47 257.388 L2000.4 257.388 Q1998.11 257.388 1997.21 258.314 Q1996.33 259.24 1996.33 261.647 L1996.33 263.939 L2003.34 263.939 L2003.34 267.249 L1996.33 267.249 L1996.33 289.865 L1992.04 289.865 L1992.04 267.249 L1987.97 267.249 L1987.97 263.939 L1992.04 263.939 L1992.04 262.133 Q1992.04 257.805 1994.06 255.837 Q1996.07 253.846 2000.45 253.846 L2004.47 253.846 Z" fill="#000000" fill-rule="nonzero" fill-opacity="1"></path><path clip-path="url(#clip160)" d="M2019.82 276.832 Q2014.66 276.832 2012.67 278.013 Q2010.68 279.193 2010.68 282.041 Q2010.68 284.309 2012.16 285.652 Q2013.66 286.971 2016.23 286.971 Q2019.77 286.971 2021.9 284.471 Q2024.06 281.948 2024.06 277.781 L2024.06 276.832 L2019.82 276.832 M2028.32 275.073 L2028.32 289.865 L2024.06 289.865 L2024.06 285.929 Q2022.6 288.291 2020.42 289.425 Q2018.25 290.536 2015.1 290.536 Q2011.12 290.536 2008.76 288.314 Q2006.42 286.068 2006.42 282.318 Q2006.42 277.943 2009.33 275.721 Q2012.27 273.499 2018.08 273.499 L2024.06 273.499 L2024.06 273.082 Q2024.06 270.143 2022.11 268.545 Q2020.19 266.925 2016.7 266.925 Q2014.47 266.925 2012.37 267.457 Q2010.26 267.99 2008.32 269.055 L2008.32 265.119 Q2010.65 264.217 2012.85 263.777 Q2015.05 263.314 2017.14 263.314 Q2022.76 263.314 2025.54 266.231 Q2028.32 269.147 2028.32 275.073 Z" fill="#000000" fill-rule="nonzero" fill-opacity="1"></path><path clip-path="url(#clip160)" d="M2055.75 264.934 L2055.75 268.916 Q2053.94 267.92 2052.11 267.434 Q2050.31 266.925 2048.45 266.925 Q2044.31 266.925 2042.02 269.564 Q2039.73 272.18 2039.73 276.925 Q2039.73 281.67 2042.02 284.309 Q2044.31 286.925 2048.45 286.925 Q2050.31 286.925 2052.11 286.439 Q2053.94 285.929 2055.75 284.934 L2055.75 288.869 Q2053.96 289.703 2052.04 290.119 Q2050.14 290.536 2047.99 290.536 Q2042.14 290.536 2038.69 286.855 Q2035.24 283.175 2035.24 276.925 Q2035.24 270.582 2038.71 266.948 Q2042.2 263.314 2048.27 263.314 Q2050.24 263.314 2052.11 263.731 Q2053.99 264.124 2055.75 264.934 Z" fill="#000000" fill-rule="nonzero" fill-opacity="1"></path><path clip-path="url(#clip160)" d="M2085.33 275.837 L2085.33 277.92 L2065.75 277.92 Q2066.02 282.318 2068.39 284.633 Q2070.77 286.925 2075.01 286.925 Q2077.46 286.925 2079.75 286.323 Q2082.07 285.721 2084.33 284.517 L2084.33 288.545 Q2082.04 289.517 2079.64 290.027 Q2077.23 290.536 2074.75 290.536 Q2068.55 290.536 2064.91 286.925 Q2061.3 283.314 2061.3 277.156 Q2061.3 270.791 2064.73 267.064 Q2068.18 263.314 2074.01 263.314 Q2079.24 263.314 2082.27 266.693 Q2085.33 270.05 2085.33 275.837 M2081.07 274.587 Q2081.02 271.092 2079.1 269.008 Q2077.2 266.925 2074.06 266.925 Q2070.49 266.925 2068.34 268.939 Q2066.21 270.953 2065.89 274.61 L2081.07 274.587 Z" fill="#000000" fill-rule="nonzero" fill-opacity="1"></path><path clip-path="url(#clip160)" d="M2123.92 264.703 L2123.92 268.731 Q2122.11 267.805 2120.17 267.342 Q2118.22 266.879 2116.14 266.879 Q2112.97 266.879 2111.37 267.851 Q2109.8 268.823 2109.8 270.768 Q2109.8 272.249 2110.93 273.105 Q2112.07 273.939 2115.49 274.703 L2116.95 275.027 Q2121.49 275.999 2123.38 277.781 Q2125.31 279.541 2125.31 282.712 Q2125.31 286.323 2122.44 288.429 Q2119.59 290.536 2114.59 290.536 Q2112.51 290.536 2110.24 290.119 Q2107.99 289.726 2105.49 288.916 L2105.49 284.517 Q2107.85 285.744 2110.14 286.369 Q2112.44 286.971 2114.68 286.971 Q2117.69 286.971 2119.31 285.953 Q2120.93 284.911 2120.93 283.036 Q2120.93 281.3 2119.75 280.374 Q2118.59 279.448 2114.63 278.592 L2113.15 278.244 Q2109.2 277.411 2107.44 275.698 Q2105.68 273.962 2105.68 270.953 Q2105.68 267.295 2108.27 265.305 Q2110.86 263.314 2115.63 263.314 Q2117.99 263.314 2120.07 263.661 Q2122.16 264.008 2123.92 264.703 Z" fill="#000000" fill-rule="nonzero" fill-opacity="1"></path><path clip-path="url(#clip160)" d="M2142.13 266.925 Q2138.71 266.925 2136.72 269.61 Q2134.73 272.272 2134.73 276.925 Q2134.73 281.578 2136.69 284.263 Q2138.69 286.925 2142.13 286.925 Q2145.54 286.925 2147.53 284.24 Q2149.52 281.555 2149.52 276.925 Q2149.52 272.318 2147.53 269.633 Q2145.54 266.925 2142.13 266.925 M2142.13 263.314 Q2147.69 263.314 2150.86 266.925 Q2154.03 270.536 2154.03 276.925 Q2154.03 283.291 2150.86 286.925 Q2147.69 290.536 2142.13 290.536 Q2136.56 290.536 2133.38 286.925 Q2130.24 283.291 2130.24 276.925 Q2130.24 270.536 2133.38 266.925 Q2136.56 263.314 2142.13 263.314 Z" fill="#000000" fill-rule="nonzero" fill-opacity="1"></path><path clip-path="url(#clip160)" d="M2161.09 253.846 L2165.35 253.846 L2165.35 289.865 L2161.09 289.865 L2161.09 253.846 Z" fill="#000000" fill-rule="nonzero" fill-opacity="1"></path><path clip-path="url(#clip160)" d="M2171.21 263.939 L2175.72 263.939 L2183.82 285.698 L2191.93 263.939 L2196.44 263.939 L2186.72 289.865 L2180.93 289.865 L2171.21 263.939 Z" fill="#000000" fill-rule="nonzero" fill-opacity="1"></path><path clip-path="url(#clip160)" d="M2224.5 275.837 L2224.5 277.92 L2204.91 277.92 Q2205.19 282.318 2207.55 284.633 Q2209.94 286.925 2214.17 286.925 Q2216.63 286.925 2218.92 286.323 Q2221.23 285.721 2223.5 284.517 L2223.5 288.545 Q2221.21 289.517 2218.8 290.027 Q2216.39 290.536 2213.92 290.536 Q2207.71 290.536 2204.08 286.925 Q2200.47 283.314 2200.47 277.156 Q2200.47 270.791 2203.89 267.064 Q2207.34 263.314 2213.18 263.314 Q2218.41 263.314 2221.44 266.693 Q2224.5 270.05 2224.5 275.837 M2220.24 274.587 Q2220.19 271.092 2218.27 269.008 Q2216.37 266.925 2213.22 266.925 Q2209.66 266.925 2207.5 268.939 Q2205.38 270.953 2205.05 274.61 L2220.24 274.587 Z" fill="#000000" fill-rule="nonzero" fill-opacity="1"></path><path clip-path="url(#clip160)" d="M2246.51 267.92 Q2245.79 267.504 2244.94 267.318 Q2244.1 267.11 2243.08 267.11 Q2239.47 267.11 2237.53 269.471 Q2235.61 271.809 2235.61 276.207 L2235.61 289.865 L2231.32 289.865 L2231.32 263.939 L2235.61 263.939 L2235.61 267.967 Q2236.95 265.606 2239.1 264.471 Q2241.25 263.314 2244.33 263.314 Q2244.77 263.314 2245.31 263.383 Q2245.84 263.43 2246.49 263.545 L2246.51 267.92 Z" fill="#000000" fill-rule="nonzero" fill-opacity="1"></path><polyline clip-path="url(#clip160)" style="stroke:#ff0000; stroke-linecap:round; stroke-linejoin:round; stroke-width:4; stroke-opacity:1; fill:none" points="1752.78,324.425 1892.01,324.425 "></polyline>
<path clip-path="url(#clip160)" d="M1933.64 316.543 L1933.64 320.571 Q1931.83 319.645 1929.89 319.182 Q1927.95 318.719 1925.86 318.719 Q1922.69 318.719 1921.09 319.691 Q1919.52 320.663 1919.52 322.608 Q1919.52 324.089 1920.65 324.945 Q1921.79 325.779 1925.21 326.543 L1926.67 326.867 Q1931.21 327.839 1933.11 329.621 Q1935.03 331.381 1935.03 334.552 Q1935.03 338.163 1932.16 340.269 Q1929.31 342.376 1924.31 342.376 Q1922.23 342.376 1919.96 341.959 Q1917.71 341.566 1915.21 340.756 L1915.21 336.357 Q1917.58 337.584 1919.87 338.209 Q1922.16 338.811 1924.4 338.811 Q1927.41 338.811 1929.03 337.793 Q1930.65 336.751 1930.65 334.876 Q1930.65 333.14 1929.47 332.214 Q1928.32 331.288 1924.36 330.432 L1922.88 330.084 Q1918.92 329.251 1917.16 327.538 Q1915.4 325.802 1915.4 322.793 Q1915.4 319.135 1917.99 317.145 Q1920.59 315.154 1925.35 315.154 Q1927.71 315.154 1929.8 315.501 Q1931.88 315.848 1933.64 316.543 Z" fill="#000000" fill-rule="nonzero" fill-opacity="1"></path><path clip-path="url(#clip160)" d="M1941.37 331.473 L1941.37 315.779 L1945.63 315.779 L1945.63 331.311 Q1945.63 334.992 1947.07 336.844 Q1948.5 338.672 1951.37 338.672 Q1954.82 338.672 1956.81 336.473 Q1958.83 334.274 1958.83 330.478 L1958.83 315.779 L1963.08 315.779 L1963.08 341.705 L1958.83 341.705 L1958.83 337.723 Q1957.27 340.084 1955.21 341.242 Q1953.18 342.376 1950.47 342.376 Q1946 342.376 1943.69 339.598 Q1941.37 336.82 1941.37 331.473 M1952.09 315.154 L1952.09 315.154 Z" fill="#000000" fill-rule="nonzero" fill-opacity="1"></path><path clip-path="url(#clip160)" d="M1986.88 319.76 Q1986.16 319.344 1985.31 319.158 Q1984.47 318.95 1983.46 318.95 Q1979.84 318.95 1977.9 321.311 Q1975.98 323.649 1975.98 328.047 L1975.98 341.705 L1971.7 341.705 L1971.7 315.779 L1975.98 315.779 L1975.98 319.807 Q1977.32 317.446 1979.47 316.311 Q1981.63 315.154 1984.71 315.154 Q1985.14 315.154 1985.68 315.223 Q1986.21 315.27 1986.86 315.385 L1986.88 319.76 Z" fill="#000000" fill-rule="nonzero" fill-opacity="1"></path><path clip-path="url(#clip160)" d="M2004.47 305.686 L2004.47 309.228 L2000.4 309.228 Q1998.11 309.228 1997.21 310.154 Q1996.33 311.08 1996.33 313.487 L1996.33 315.779 L2003.34 315.779 L2003.34 319.089 L1996.33 319.089 L1996.33 341.705 L1992.04 341.705 L1992.04 319.089 L1987.97 319.089 L1987.97 315.779 L1992.04 315.779 L1992.04 313.973 Q1992.04 309.645 1994.06 307.677 Q1996.07 305.686 2000.45 305.686 L2004.47 305.686 Z" fill="#000000" fill-rule="nonzero" fill-opacity="1"></path><path clip-path="url(#clip160)" d="M2019.82 328.672 Q2014.66 328.672 2012.67 329.853 Q2010.68 331.033 2010.68 333.881 Q2010.68 336.149 2012.16 337.492 Q2013.66 338.811 2016.23 338.811 Q2019.77 338.811 2021.9 336.311 Q2024.06 333.788 2024.06 329.621 L2024.06 328.672 L2019.82 328.672 M2028.32 326.913 L2028.32 341.705 L2024.06 341.705 L2024.06 337.769 Q2022.6 340.131 2020.42 341.265 Q2018.25 342.376 2015.1 342.376 Q2011.12 342.376 2008.76 340.154 Q2006.42 337.908 2006.42 334.158 Q2006.42 329.783 2009.33 327.561 Q2012.27 325.339 2018.08 325.339 L2024.06 325.339 L2024.06 324.922 Q2024.06 321.983 2022.11 320.385 Q2020.19 318.765 2016.7 318.765 Q2014.47 318.765 2012.37 319.297 Q2010.26 319.83 2008.32 320.895 L2008.32 316.959 Q2010.65 316.057 2012.85 315.617 Q2015.05 315.154 2017.14 315.154 Q2022.76 315.154 2025.54 318.071 Q2028.32 320.987 2028.32 326.913 Z" fill="#000000" fill-rule="nonzero" fill-opacity="1"></path><path clip-path="url(#clip160)" d="M2055.75 316.774 L2055.75 320.756 Q2053.94 319.76 2052.11 319.274 Q2050.31 318.765 2048.45 318.765 Q2044.31 318.765 2042.02 321.404 Q2039.73 324.02 2039.73 328.765 Q2039.73 333.51 2042.02 336.149 Q2044.31 338.765 2048.45 338.765 Q2050.31 338.765 2052.11 338.279 Q2053.94 337.769 2055.75 336.774 L2055.75 340.709 Q2053.96 341.543 2052.04 341.959 Q2050.14 342.376 2047.99 342.376 Q2042.14 342.376 2038.69 338.695 Q2035.24 335.015 2035.24 328.765 Q2035.24 322.422 2038.71 318.788 Q2042.2 315.154 2048.27 315.154 Q2050.24 315.154 2052.11 315.571 Q2053.99 315.964 2055.75 316.774 Z" fill="#000000" fill-rule="nonzero" fill-opacity="1"></path><path clip-path="url(#clip160)" d="M2085.33 327.677 L2085.33 329.76 L2065.75 329.76 Q2066.02 334.158 2068.39 336.473 Q2070.77 338.765 2075.01 338.765 Q2077.46 338.765 2079.75 338.163 Q2082.07 337.561 2084.33 336.357 L2084.33 340.385 Q2082.04 341.357 2079.64 341.867 Q2077.23 342.376 2074.75 342.376 Q2068.55 342.376 2064.91 338.765 Q2061.3 335.154 2061.3 328.996 Q2061.3 322.631 2064.73 318.904 Q2068.18 315.154 2074.01 315.154 Q2079.24 315.154 2082.27 318.533 Q2085.33 321.89 2085.33 327.677 M2081.07 326.427 Q2081.02 322.932 2079.1 320.848 Q2077.2 318.765 2074.06 318.765 Q2070.49 318.765 2068.34 320.779 Q2066.21 322.793 2065.89 326.45 L2081.07 326.427 Z" fill="#000000" fill-rule="nonzero" fill-opacity="1"></path><path clip-path="url(#clip160)" d="M2122.41 319.76 Q2121.7 319.344 2120.84 319.158 Q2120.01 318.95 2118.99 318.95 Q2115.38 318.95 2113.43 321.311 Q2111.51 323.649 2111.51 328.047 L2111.51 341.705 L2107.23 341.705 L2107.23 315.779 L2111.51 315.779 L2111.51 319.807 Q2112.85 317.446 2115.01 316.311 Q2117.16 315.154 2120.24 315.154 Q2120.68 315.154 2121.21 315.223 Q2121.74 315.27 2122.39 315.385 L2122.41 319.76 Z" fill="#000000" fill-rule="nonzero" fill-opacity="1"></path><path clip-path="url(#clip160)" d="M2138.66 328.672 Q2133.5 328.672 2131.51 329.853 Q2129.52 331.033 2129.52 333.881 Q2129.52 336.149 2131 337.492 Q2132.51 338.811 2135.07 338.811 Q2138.62 338.811 2140.75 336.311 Q2142.9 333.788 2142.9 329.621 L2142.9 328.672 L2138.66 328.672 M2147.16 326.913 L2147.16 341.705 L2142.9 341.705 L2142.9 337.769 Q2141.44 340.131 2139.26 341.265 Q2137.09 342.376 2133.94 342.376 Q2129.96 342.376 2127.6 340.154 Q2125.26 337.908 2125.26 334.158 Q2125.26 329.783 2128.18 327.561 Q2131.12 325.339 2136.93 325.339 L2142.9 325.339 L2142.9 324.922 Q2142.9 321.983 2140.95 320.385 Q2139.03 318.765 2135.54 318.765 Q2133.32 318.765 2131.21 319.297 Q2129.1 319.83 2127.16 320.895 L2127.16 316.959 Q2129.5 316.057 2131.7 315.617 Q2133.89 315.154 2135.98 315.154 Q2141.6 315.154 2144.38 318.071 Q2147.16 320.987 2147.16 326.913 Z" fill="#000000" fill-rule="nonzero" fill-opacity="1"></path><path clip-path="url(#clip160)" d="M2153.45 315.779 L2157.71 315.779 L2163.04 336.01 L2168.34 315.779 L2173.36 315.779 L2178.69 336.01 L2183.99 315.779 L2188.25 315.779 L2181.46 341.705 L2176.44 341.705 L2170.86 320.455 L2165.26 341.705 L2160.24 341.705 L2153.45 315.779 Z" fill="#000000" fill-rule="nonzero" fill-opacity="1"></path><polyline clip-path="url(#clip160)" style="stroke:#008000; stroke-linecap:round; stroke-linejoin:round; stroke-width:4; stroke-opacity:1; fill:none" points="1752.78,376.265 1892.01,376.265 "></polyline>
<path clip-path="url(#clip160)" d="M1933.64 368.383 L1933.64 372.411 Q1931.83 371.485 1929.89 371.022 Q1927.95 370.559 1925.86 370.559 Q1922.69 370.559 1921.09 371.531 Q1919.52 372.503 1919.52 374.448 Q1919.52 375.929 1920.65 376.785 Q1921.79 377.619 1925.21 378.383 L1926.67 378.707 Q1931.21 379.679 1933.11 381.461 Q1935.03 383.221 1935.03 386.392 Q1935.03 390.003 1932.16 392.109 Q1929.31 394.216 1924.31 394.216 Q1922.23 394.216 1919.96 393.799 Q1917.71 393.406 1915.21 392.596 L1915.21 388.197 Q1917.58 389.424 1919.87 390.049 Q1922.16 390.651 1924.4 390.651 Q1927.41 390.651 1929.03 389.633 Q1930.65 388.591 1930.65 386.716 Q1930.65 384.98 1929.47 384.054 Q1928.32 383.128 1924.36 382.272 L1922.88 381.924 Q1918.92 381.091 1917.16 379.378 Q1915.4 377.642 1915.4 374.633 Q1915.4 370.975 1917.99 368.985 Q1920.59 366.994 1925.35 366.994 Q1927.71 366.994 1929.8 367.341 Q1931.88 367.688 1933.64 368.383 Z" fill="#000000" fill-rule="nonzero" fill-opacity="1"></path><path clip-path="url(#clip160)" d="M1941.37 383.313 L1941.37 367.619 L1945.63 367.619 L1945.63 383.151 Q1945.63 386.832 1947.07 388.684 Q1948.5 390.512 1951.37 390.512 Q1954.82 390.512 1956.81 388.313 Q1958.83 386.114 1958.83 382.318 L1958.83 367.619 L1963.08 367.619 L1963.08 393.545 L1958.83 393.545 L1958.83 389.563 Q1957.27 391.924 1955.21 393.082 Q1953.18 394.216 1950.47 394.216 Q1946 394.216 1943.69 391.438 Q1941.37 388.66 1941.37 383.313 M1952.09 366.994 L1952.09 366.994 Z" fill="#000000" fill-rule="nonzero" fill-opacity="1"></path><path clip-path="url(#clip160)" d="M1986.88 371.6 Q1986.16 371.184 1985.31 370.998 Q1984.47 370.79 1983.46 370.79 Q1979.84 370.79 1977.9 373.151 Q1975.98 375.489 1975.98 379.887 L1975.98 393.545 L1971.7 393.545 L1971.7 367.619 L1975.98 367.619 L1975.98 371.647 Q1977.32 369.286 1979.47 368.151 Q1981.63 366.994 1984.71 366.994 Q1985.14 366.994 1985.68 367.063 Q1986.21 367.11 1986.86 367.225 L1986.88 371.6 Z" fill="#000000" fill-rule="nonzero" fill-opacity="1"></path><path clip-path="url(#clip160)" d="M2004.47 357.526 L2004.47 361.068 L2000.4 361.068 Q1998.11 361.068 1997.21 361.994 Q1996.33 362.92 1996.33 365.327 L1996.33 367.619 L2003.34 367.619 L2003.34 370.929 L1996.33 370.929 L1996.33 393.545 L1992.04 393.545 L1992.04 370.929 L1987.97 370.929 L1987.97 367.619 L1992.04 367.619 L1992.04 365.813 Q1992.04 361.485 1994.06 359.517 Q1996.07 357.526 2000.45 357.526 L2004.47 357.526 Z" fill="#000000" fill-rule="nonzero" fill-opacity="1"></path><path clip-path="url(#clip160)" d="M2019.82 380.512 Q2014.66 380.512 2012.67 381.693 Q2010.68 382.873 2010.68 385.721 Q2010.68 387.989 2012.16 389.332 Q2013.66 390.651 2016.23 390.651 Q2019.77 390.651 2021.9 388.151 Q2024.06 385.628 2024.06 381.461 L2024.06 380.512 L2019.82 380.512 M2028.32 378.753 L2028.32 393.545 L2024.06 393.545 L2024.06 389.609 Q2022.6 391.971 2020.42 393.105 Q2018.25 394.216 2015.1 394.216 Q2011.12 394.216 2008.76 391.994 Q2006.42 389.748 2006.42 385.998 Q2006.42 381.623 2009.33 379.401 Q2012.27 377.179 2018.08 377.179 L2024.06 377.179 L2024.06 376.762 Q2024.06 373.823 2022.11 372.225 Q2020.19 370.605 2016.7 370.605 Q2014.47 370.605 2012.37 371.137 Q2010.26 371.67 2008.32 372.735 L2008.32 368.799 Q2010.65 367.897 2012.85 367.457 Q2015.05 366.994 2017.14 366.994 Q2022.76 366.994 2025.54 369.911 Q2028.32 372.827 2028.32 378.753 Z" fill="#000000" fill-rule="nonzero" fill-opacity="1"></path><path clip-path="url(#clip160)" d="M2055.75 368.614 L2055.75 372.596 Q2053.94 371.6 2052.11 371.114 Q2050.31 370.605 2048.45 370.605 Q2044.31 370.605 2042.02 373.244 Q2039.73 375.86 2039.73 380.605 Q2039.73 385.35 2042.02 387.989 Q2044.31 390.605 2048.45 390.605 Q2050.31 390.605 2052.11 390.119 Q2053.94 389.609 2055.75 388.614 L2055.75 392.549 Q2053.96 393.383 2052.04 393.799 Q2050.14 394.216 2047.99 394.216 Q2042.14 394.216 2038.69 390.535 Q2035.24 386.855 2035.24 380.605 Q2035.24 374.262 2038.71 370.628 Q2042.2 366.994 2048.27 366.994 Q2050.24 366.994 2052.11 367.411 Q2053.99 367.804 2055.75 368.614 Z" fill="#000000" fill-rule="nonzero" fill-opacity="1"></path><path clip-path="url(#clip160)" d="M2085.33 379.517 L2085.33 381.6 L2065.75 381.6 Q2066.02 385.998 2068.39 388.313 Q2070.77 390.605 2075.01 390.605 Q2077.46 390.605 2079.75 390.003 Q2082.07 389.401 2084.33 388.197 L2084.33 392.225 Q2082.04 393.197 2079.64 393.707 Q2077.23 394.216 2074.75 394.216 Q2068.55 394.216 2064.91 390.605 Q2061.3 386.994 2061.3 380.836 Q2061.3 374.471 2064.73 370.744 Q2068.18 366.994 2074.01 366.994 Q2079.24 366.994 2082.27 370.373 Q2085.33 373.73 2085.33 379.517 M2081.07 378.267 Q2081.02 374.772 2079.1 372.688 Q2077.2 370.605 2074.06 370.605 Q2070.49 370.605 2068.34 372.619 Q2066.21 374.633 2065.89 378.29 L2081.07 378.267 Z" fill="#000000" fill-rule="nonzero" fill-opacity="1"></path><path clip-path="url(#clip160)" d="M2107.39 367.619 L2111.65 367.619 L2111.65 393.545 L2107.39 393.545 L2107.39 367.619 M2107.39 357.526 L2111.65 357.526 L2111.65 362.92 L2107.39 362.92 L2107.39 357.526 Z" fill="#000000" fill-rule="nonzero" fill-opacity="1"></path><path clip-path="url(#clip160)" d="M2142.11 377.897 L2142.11 393.545 L2137.85 393.545 L2137.85 378.035 Q2137.85 374.355 2136.42 372.526 Q2134.98 370.698 2132.11 370.698 Q2128.66 370.698 2126.67 372.897 Q2124.68 375.096 2124.68 378.892 L2124.68 393.545 L2120.4 393.545 L2120.4 367.619 L2124.68 367.619 L2124.68 371.647 Q2126.21 369.309 2128.27 368.151 Q2130.35 366.994 2133.06 366.994 Q2137.53 366.994 2139.82 369.772 Q2142.11 372.526 2142.11 377.897 Z" fill="#000000" fill-rule="nonzero" fill-opacity="1"></path><path clip-path="url(#clip160)" d="M2150.61 367.619 L2154.87 367.619 L2154.87 393.545 L2150.61 393.545 L2150.61 367.619 M2150.61 357.526 L2154.87 357.526 L2154.87 362.92 L2150.61 362.92 L2150.61 357.526 Z" fill="#000000" fill-rule="nonzero" fill-opacity="1"></path><path clip-path="url(#clip160)" d="M2167.99 360.258 L2167.99 367.619 L2176.76 367.619 L2176.76 370.929 L2167.99 370.929 L2167.99 385.003 Q2167.99 388.174 2168.85 389.077 Q2169.73 389.98 2172.39 389.98 L2176.76 389.98 L2176.76 393.545 L2172.39 393.545 Q2167.46 393.545 2165.58 391.716 Q2163.71 389.864 2163.71 385.003 L2163.71 370.929 L2160.58 370.929 L2160.58 367.619 L2163.71 367.619 L2163.71 360.258 L2167.99 360.258 Z" fill="#000000" fill-rule="nonzero" fill-opacity="1"></path><path clip-path="url(#clip160)" d="M2182.37 367.619 L2186.63 367.619 L2186.63 393.545 L2182.37 393.545 L2182.37 367.619 M2182.37 357.526 L2186.63 357.526 L2186.63 362.92 L2182.37 362.92 L2182.37 357.526 Z" fill="#000000" fill-rule="nonzero" fill-opacity="1"></path><path clip-path="url(#clip160)" d="M2207.32 380.512 Q2202.16 380.512 2200.17 381.693 Q2198.18 382.873 2198.18 385.721 Q2198.18 387.989 2199.66 389.332 Q2201.16 390.651 2203.73 390.651 Q2207.27 390.651 2209.4 388.151 Q2211.56 385.628 2211.56 381.461 L2211.56 380.512 L2207.32 380.512 M2215.81 378.753 L2215.81 393.545 L2211.56 393.545 L2211.56 389.609 Q2210.1 391.971 2207.92 393.105 Q2205.75 394.216 2202.6 394.216 Q2198.62 394.216 2196.25 391.994 Q2193.92 389.748 2193.92 385.998 Q2193.92 381.623 2196.83 379.401 Q2199.77 377.179 2205.58 377.179 L2211.56 377.179 L2211.56 376.762 Q2211.56 373.823 2209.61 372.225 Q2207.69 370.605 2204.19 370.605 Q2201.97 370.605 2199.87 371.137 Q2197.76 371.67 2195.82 372.735 L2195.82 368.799 Q2198.15 367.897 2200.35 367.457 Q2202.55 366.994 2204.63 366.994 Q2210.26 366.994 2213.04 369.911 Q2215.81 372.827 2215.81 378.753 Z" fill="#000000" fill-rule="nonzero" fill-opacity="1"></path><path clip-path="url(#clip160)" d="M2224.59 357.526 L2228.85 357.526 L2228.85 393.545 L2224.59 393.545 L2224.59 357.526 Z" fill="#000000" fill-rule="nonzero" fill-opacity="1"></path><path clip-path="url(#clip160)" d="M2259.94 379.517 L2259.94 381.6 L2240.35 381.6 Q2240.63 385.998 2242.99 388.313 Q2245.37 390.605 2249.61 390.605 Q2252.06 390.605 2254.36 390.003 Q2256.67 389.401 2258.94 388.197 L2258.94 392.225 Q2256.65 393.197 2254.24 393.707 Q2251.83 394.216 2249.36 394.216 Q2243.15 394.216 2239.52 390.605 Q2235.91 386.994 2235.91 380.836 Q2235.91 374.471 2239.33 370.744 Q2242.78 366.994 2248.62 366.994 Q2253.85 366.994 2256.88 370.373 Q2259.94 373.73 2259.94 379.517 M2255.68 378.267 Q2255.63 374.772 2253.71 372.688 Q2251.81 370.605 2248.66 370.605 Q2245.1 370.605 2242.94 372.619 Q2240.81 374.633 2240.49 378.29 L2255.68 378.267 Z" fill="#000000" fill-rule="nonzero" fill-opacity="1"></path><polyline clip-path="url(#clip160)" style="stroke:#000000; stroke-linecap:round; stroke-linejoin:round; stroke-width:4; stroke-opacity:1; fill:none" stroke-dasharray="16, 10" points="1752.78,428.105 1892.01,428.105 "></polyline>
<path clip-path="url(#clip160)" d="M1933.64 420.223 L1933.64 424.251 Q1931.83 423.325 1929.89 422.862 Q1927.95 422.399 1925.86 422.399 Q1922.69 422.399 1921.09 423.371 Q1919.52 424.343 1919.52 426.288 Q1919.52 427.769 1920.65 428.625 Q1921.79 429.459 1925.21 430.223 L1926.67 430.547 Q1931.21 431.519 1933.11 433.301 Q1935.03 435.061 1935.03 438.232 Q1935.03 441.843 1932.16 443.949 Q1929.31 446.056 1924.31 446.056 Q1922.23 446.056 1919.96 445.639 Q1917.71 445.246 1915.21 444.436 L1915.21 440.037 Q1917.58 441.264 1919.87 441.889 Q1922.16 442.491 1924.4 442.491 Q1927.41 442.491 1929.03 441.473 Q1930.65 440.431 1930.65 438.556 Q1930.65 436.82 1929.47 435.894 Q1928.32 434.968 1924.36 434.112 L1922.88 433.764 Q1918.92 432.931 1917.16 431.218 Q1915.4 429.482 1915.4 426.473 Q1915.4 422.815 1917.99 420.825 Q1920.59 418.834 1925.35 418.834 Q1927.71 418.834 1929.8 419.181 Q1931.88 419.528 1933.64 420.223 Z" fill="#000000" fill-rule="nonzero" fill-opacity="1"></path><path clip-path="url(#clip160)" d="M1941.37 435.153 L1941.37 419.459 L1945.63 419.459 L1945.63 434.991 Q1945.63 438.672 1947.07 440.524 Q1948.5 442.352 1951.37 442.352 Q1954.82 442.352 1956.81 440.153 Q1958.83 437.954 1958.83 434.158 L1958.83 419.459 L1963.08 419.459 L1963.08 445.385 L1958.83 445.385 L1958.83 441.403 Q1957.27 443.764 1955.21 444.922 Q1953.18 446.056 1950.47 446.056 Q1946 446.056 1943.69 443.278 Q1941.37 440.5 1941.37 435.153 M1952.09 418.834 L1952.09 418.834 Z" fill="#000000" fill-rule="nonzero" fill-opacity="1"></path><path clip-path="url(#clip160)" d="M1986.88 423.44 Q1986.16 423.024 1985.31 422.838 Q1984.47 422.63 1983.46 422.63 Q1979.84 422.63 1977.9 424.991 Q1975.98 427.329 1975.98 431.727 L1975.98 445.385 L1971.7 445.385 L1971.7 419.459 L1975.98 419.459 L1975.98 423.487 Q1977.32 421.126 1979.47 419.991 Q1981.63 418.834 1984.71 418.834 Q1985.14 418.834 1985.68 418.903 Q1986.21 418.95 1986.86 419.065 L1986.88 423.44 Z" fill="#000000" fill-rule="nonzero" fill-opacity="1"></path><path clip-path="url(#clip160)" d="M2004.47 409.366 L2004.47 412.908 L2000.4 412.908 Q1998.11 412.908 1997.21 413.834 Q1996.33 414.76 1996.33 417.167 L1996.33 419.459 L2003.34 419.459 L2003.34 422.769 L1996.33 422.769 L1996.33 445.385 L1992.04 445.385 L1992.04 422.769 L1987.97 422.769 L1987.97 419.459 L1992.04 419.459 L1992.04 417.653 Q1992.04 413.325 1994.06 411.357 Q1996.07 409.366 2000.45 409.366 L2004.47 409.366 Z" fill="#000000" fill-rule="nonzero" fill-opacity="1"></path><path clip-path="url(#clip160)" d="M2019.82 432.352 Q2014.66 432.352 2012.67 433.533 Q2010.68 434.713 2010.68 437.561 Q2010.68 439.829 2012.16 441.172 Q2013.66 442.491 2016.23 442.491 Q2019.77 442.491 2021.9 439.991 Q2024.06 437.468 2024.06 433.301 L2024.06 432.352 L2019.82 432.352 M2028.32 430.593 L2028.32 445.385 L2024.06 445.385 L2024.06 441.449 Q2022.6 443.811 2020.42 444.945 Q2018.25 446.056 2015.1 446.056 Q2011.12 446.056 2008.76 443.834 Q2006.42 441.588 2006.42 437.838 Q2006.42 433.463 2009.33 431.241 Q2012.27 429.019 2018.08 429.019 L2024.06 429.019 L2024.06 428.602 Q2024.06 425.663 2022.11 424.065 Q2020.19 422.445 2016.7 422.445 Q2014.47 422.445 2012.37 422.977 Q2010.26 423.51 2008.32 424.575 L2008.32 420.639 Q2010.65 419.737 2012.85 419.297 Q2015.05 418.834 2017.14 418.834 Q2022.76 418.834 2025.54 421.751 Q2028.32 424.667 2028.32 430.593 Z" fill="#000000" fill-rule="nonzero" fill-opacity="1"></path><path clip-path="url(#clip160)" d="M2055.75 420.454 L2055.75 424.436 Q2053.94 423.44 2052.11 422.954 Q2050.31 422.445 2048.45 422.445 Q2044.31 422.445 2042.02 425.084 Q2039.73 427.7 2039.73 432.445 Q2039.73 437.19 2042.02 439.829 Q2044.31 442.445 2048.45 442.445 Q2050.31 442.445 2052.11 441.959 Q2053.94 441.449 2055.75 440.454 L2055.75 444.389 Q2053.96 445.223 2052.04 445.639 Q2050.14 446.056 2047.99 446.056 Q2042.14 446.056 2038.69 442.375 Q2035.24 438.695 2035.24 432.445 Q2035.24 426.102 2038.71 422.468 Q2042.2 418.834 2048.27 418.834 Q2050.24 418.834 2052.11 419.251 Q2053.99 419.644 2055.75 420.454 Z" fill="#000000" fill-rule="nonzero" fill-opacity="1"></path><path clip-path="url(#clip160)" d="M2085.33 431.357 L2085.33 433.44 L2065.75 433.44 Q2066.02 437.838 2068.39 440.153 Q2070.77 442.445 2075.01 442.445 Q2077.46 442.445 2079.75 441.843 Q2082.07 441.241 2084.33 440.037 L2084.33 444.065 Q2082.04 445.037 2079.64 445.547 Q2077.23 446.056 2074.75 446.056 Q2068.55 446.056 2064.91 442.445 Q2061.3 438.834 2061.3 432.676 Q2061.3 426.311 2064.73 422.584 Q2068.18 418.834 2074.01 418.834 Q2079.24 418.834 2082.27 422.213 Q2085.33 425.57 2085.33 431.357 M2081.07 430.107 Q2081.02 426.612 2079.1 424.528 Q2077.2 422.445 2074.06 422.445 Q2070.49 422.445 2068.34 424.459 Q2066.21 426.473 2065.89 430.13 L2081.07 430.107 Z" fill="#000000" fill-rule="nonzero" fill-opacity="1"></path><path clip-path="url(#clip160)" d="M2117.44 422.445 Q2114.01 422.445 2112.02 425.13 Q2110.03 427.792 2110.03 432.445 Q2110.03 437.098 2112 439.783 Q2113.99 442.445 2117.44 442.445 Q2120.84 442.445 2122.83 439.76 Q2124.82 437.075 2124.82 432.445 Q2124.82 427.838 2122.83 425.153 Q2120.84 422.445 2117.44 422.445 M2117.44 418.834 Q2122.99 418.834 2126.16 422.445 Q2129.33 426.056 2129.33 432.445 Q2129.33 438.811 2126.16 442.445 Q2122.99 446.056 2117.44 446.056 Q2111.86 446.056 2108.69 442.445 Q2105.54 438.811 2105.54 432.445 Q2105.54 426.056 2108.69 422.445 Q2111.86 418.834 2117.44 418.834 Z" fill="#000000" fill-rule="nonzero" fill-opacity="1"></path><path clip-path="url(#clip160)" d="M2153.45 432.121 Q2153.45 427.491 2151.53 424.945 Q2149.63 422.399 2146.19 422.399 Q2142.76 422.399 2140.84 424.945 Q2138.94 427.491 2138.94 432.121 Q2138.94 436.727 2140.84 439.274 Q2142.76 441.82 2146.19 441.82 Q2149.63 441.82 2151.53 439.274 Q2153.45 436.727 2153.45 432.121 M2157.71 442.167 Q2157.71 448.787 2154.77 452.005 Q2151.83 455.246 2145.77 455.246 Q2143.52 455.246 2141.53 454.898 Q2139.54 454.574 2137.67 453.88 L2137.67 449.736 Q2139.54 450.755 2141.37 451.241 Q2143.2 451.727 2145.1 451.727 Q2149.29 451.727 2151.37 449.528 Q2153.45 447.352 2153.45 442.931 L2153.45 440.824 Q2152.13 443.116 2150.07 444.25 Q2148.01 445.385 2145.14 445.385 Q2140.38 445.385 2137.46 441.75 Q2134.54 438.116 2134.54 432.121 Q2134.54 426.102 2137.46 422.468 Q2140.38 418.834 2145.14 418.834 Q2148.01 418.834 2150.07 419.968 Q2152.13 421.102 2153.45 423.394 L2153.45 419.459 L2157.71 419.459 L2157.71 442.167 Z" fill="#000000" fill-rule="nonzero" fill-opacity="1"></path><path clip-path="url(#clip160)" d="M2183.55 432.121 Q2183.55 427.491 2181.63 424.945 Q2179.73 422.399 2176.28 422.399 Q2172.85 422.399 2170.93 424.945 Q2169.03 427.491 2169.03 432.121 Q2169.03 436.727 2170.93 439.274 Q2172.85 441.82 2176.28 441.82 Q2179.73 441.82 2181.63 439.274 Q2183.55 436.727 2183.55 432.121 M2187.81 442.167 Q2187.81 448.787 2184.87 452.005 Q2181.93 455.246 2175.86 455.246 Q2173.62 455.246 2171.63 454.898 Q2169.63 454.574 2167.76 453.88 L2167.76 449.736 Q2169.63 450.755 2171.46 451.241 Q2173.29 451.727 2175.19 451.727 Q2179.38 451.727 2181.46 449.528 Q2183.55 447.352 2183.55 442.931 L2183.55 440.824 Q2182.23 443.116 2180.17 444.25 Q2178.11 445.385 2175.24 445.385 Q2170.47 445.385 2167.55 441.75 Q2164.63 438.116 2164.63 432.121 Q2164.63 426.102 2167.55 422.468 Q2170.47 418.834 2175.24 418.834 Q2178.11 418.834 2180.17 419.968 Q2182.23 421.102 2183.55 423.394 L2183.55 419.459 L2187.81 419.459 L2187.81 442.167 Z" fill="#000000" fill-rule="nonzero" fill-opacity="1"></path><path clip-path="url(#clip160)" d="M2216.76 424.436 Q2218.36 421.565 2220.58 420.2 Q2222.81 418.834 2225.81 418.834 Q2229.87 418.834 2232.06 421.681 Q2234.26 424.505 2234.26 429.737 L2234.26 445.385 L2229.98 445.385 L2229.98 429.875 Q2229.98 426.149 2228.66 424.343 Q2227.34 422.538 2224.63 422.538 Q2221.32 422.538 2219.4 424.737 Q2217.48 426.936 2217.48 430.732 L2217.48 445.385 L2213.2 445.385 L2213.2 429.875 Q2213.2 426.125 2211.88 424.343 Q2210.56 422.538 2207.81 422.538 Q2204.54 422.538 2202.62 424.76 Q2200.7 426.959 2200.7 430.732 L2200.7 445.385 L2196.42 445.385 L2196.42 419.459 L2200.7 419.459 L2200.7 423.487 Q2202.16 421.102 2204.19 419.968 Q2206.23 418.834 2209.03 418.834 Q2211.86 418.834 2213.82 420.269 Q2215.81 421.704 2216.76 424.436 Z" fill="#000000" fill-rule="nonzero" fill-opacity="1"></path></svg>