<svg xmlns="http://www.w3.org/2000/svg" xmlns:xlink="http://www.w3.org/1999/xlink" width="600" height="400" viewBox="0 0 2400 1600">
<defs>
  <clipPath id="clip520">
    <rect x="0" y="0" width="2400" height="1600"></rect>
  </clipPath>
</defs>
<path clip-path="url(#clip520)" d="M0 1600 L2400 1600 L2400 0 L0 0  Z" fill="#ffffff" fill-rule="evenodd" fill-opacity="1"></path>
<defs>
  <clipPath id="clip521">
    <rect x="480" y="0" width="1681" height="1600"></rect>
  </clipPath>
</defs>
<path clip-path="url(#clip520)" d="M265.445 1486.45 L2352.76 1486.45 L2352.76 47.2441 L265.445 47.2441  Z" fill="#ffffff" fill-rule="evenodd" fill-opacity="1"></path>
<defs>
  <clipPath id="clip522">
    <rect x="265" y="47" width="2088" height="1440"></rect>
  </clipPath>
</defs>
<polyline clip-path="url(#clip522)" style="stroke:#000000; stroke-linecap:round; stroke-linejoin:round; stroke-width:2; stroke-opacity:0.1; fill:none" points="302.143,1486.45 302.143,47.2441 "></polyline>
<polyline clip-path="url(#clip522)" style="stroke:#000000; stroke-linecap:round; stroke-linejoin:round; stroke-width:2; stroke-opacity:0.1; fill:none" points="749.679,1486.45 749.679,47.2441 "></polyline>
<polyline clip-path="url(#clip522)" style="stroke:#000000; stroke-linecap:round; stroke-linejoin:round; stroke-width:2; stroke-opacity:0.1; fill:none" points="1197.22,1486.45 1197.22,47.2441 "></polyline>
<polyline clip-path="url(#clip522)" style="stroke:#000000; stroke-linecap:round; stroke-linejoin:round; stroke-width:2; stroke-opacity:0.1; fill:none" points="1644.75,1486.45 1644.75,47.2441 "></polyline>
<polyline clip-path="url(#clip522)" style="stroke:#000000; stroke-linecap:round; stroke-linejoin:round; stroke-width:2; stroke-opacity:0.1; fill:none" points="2092.29,1486.45 2092.29,47.2441 "></polyline>
<polyline clip-path="url(#clip520)" style="stroke:#000000; stroke-linecap:round; stroke-linejoin:round; stroke-width:4; stroke-opacity:1; fill:none" points="265.445,1486.45 2352.76,1486.45 "></polyline>
<polyline clip-path="url(#clip520)" style="stroke:#000000; stroke-linecap:round; stroke-linejoin:round; stroke-width:4; stroke-opacity:1; fill:none" points="302.143,1486.45 302.143,1467.55 "></polyline>
<polyline clip-path="url(#clip520)" style="stroke:#000000; stroke-linecap:round; stroke-linejoin:round; stroke-width:4; stroke-opacity:1; fill:none" points="749.679,1486.45 749.679,1467.55 "></polyline>
<polyline clip-path="url(#clip520)" style="stroke:#000000; stroke-linecap:round; stroke-linejoin:round; stroke-width:4; stroke-opacity:1; fill:none" points="1197.22,1486.45 1197.22,1467.55 "></polyline>
<polyline clip-path="url(#clip520)" style="stroke:#000000; stroke-linecap:round; stroke-linejoin:round; stroke-width:4; stroke-opacity:1; fill:none" points="1644.75,1486.45 1644.75,1467.55 "></polyline>
<polyline clip-path="url(#clip520)" style="stroke:#000000; stroke-linecap:round; stroke-linejoin:round; stroke-width:4; stroke-opacity:1; fill:none" points="2092.29,1486.45 2092.29,1467.55 "></polyline>
<path clip-path="url(#clip520)" d="M302.143 1517.37 Q298.532 1517.37 296.703 1520.93 Q294.897 1524.47 294.897 1531.6 Q294.897 1538.71 296.703 1542.27 Q298.532 1545.82 302.143 1545.82 Q305.777 1545.82 307.583 1542.27 Q309.411 1538.71 309.411 1531.6 Q309.411 1524.47 307.583 1520.93 Q305.777 1517.37 302.143 1517.37 M302.143 1513.66 Q307.953 1513.66 311.008 1518.27 Q314.087 1522.85 314.087 1531.6 Q314.087 1540.33 311.008 1544.94 Q307.953 1549.52 302.143 1549.52 Q296.333 1549.52 293.254 1544.94 Q290.198 1540.33 290.198 1531.6 Q290.198 1522.85 293.254 1518.27 Q296.333 1513.66 302.143 1513.66 Z" fill="#000000" fill-rule="nonzero" fill-opacity="1"></path><path clip-path="url(#clip520)" d="M728.453 1544.91 L744.772 1544.91 L744.772 1548.85 L722.828 1548.85 L722.828 1544.91 Q725.49 1542.16 730.073 1537.53 Q734.68 1532.88 735.86 1531.53 Q738.105 1529.01 738.985 1527.27 Q739.888 1525.51 739.888 1523.82 Q739.888 1521.07 737.943 1519.33 Q736.022 1517.6 732.92 1517.6 Q730.721 1517.6 728.268 1518.36 Q725.837 1519.13 723.059 1520.68 L723.059 1515.95 Q725.883 1514.82 728.337 1514.24 Q730.791 1513.66 732.828 1513.66 Q738.198 1513.66 741.392 1516.35 Q744.587 1519.03 744.587 1523.52 Q744.587 1525.65 743.777 1527.57 Q742.99 1529.47 740.883 1532.07 Q740.304 1532.74 737.203 1535.95 Q734.101 1539.15 728.453 1544.91 Z" fill="#000000" fill-rule="nonzero" fill-opacity="1"></path><path clip-path="url(#clip520)" d="M764.587 1517.37 Q760.976 1517.37 759.147 1520.93 Q757.341 1524.47 757.341 1531.6 Q757.341 1538.71 759.147 1542.27 Q760.976 1545.82 764.587 1545.82 Q768.221 1545.82 770.027 1542.27 Q771.855 1538.71 771.855 1531.6 Q771.855 1524.47 770.027 1520.93 Q768.221 1517.37 764.587 1517.37 M764.587 1513.66 Q770.397 1513.66 773.452 1518.27 Q776.531 1522.85 776.531 1531.6 Q776.531 1540.33 773.452 1544.94 Q770.397 1549.52 764.587 1549.52 Q758.777 1549.52 755.698 1544.94 Q752.642 1540.33 752.642 1531.6 Q752.642 1522.85 755.698 1518.27 Q758.777 1513.66 764.587 1513.66 Z" fill="#000000" fill-rule="nonzero" fill-opacity="1"></path><path clip-path="url(#clip520)" d="M1185.39 1518.36 L1173.58 1536.81 L1185.39 1536.81 L1185.39 1518.36 M1184.16 1514.29 L1190.04 1514.29 L1190.04 1536.81 L1194.97 1536.81 L1194.97 1540.7 L1190.04 1540.7 L1190.04 1548.85 L1185.39 1548.85 L1185.39 1540.7 L1169.79 1540.7 L1169.79 1536.19 L1184.16 1514.29 Z" fill="#000000" fill-rule="nonzero" fill-opacity="1"></path><path clip-path="url(#clip520)" d="M1212.7 1517.37 Q1209.09 1517.37 1207.26 1520.93 Q1205.46 1524.47 1205.46 1531.6 Q1205.46 1538.71 1207.26 1542.27 Q1209.09 1545.82 1212.7 1545.82 Q1216.34 1545.82 1218.14 1542.27 Q1219.97 1538.71 1219.97 1531.6 Q1219.97 1524.47 1218.14 1520.93 Q1216.34 1517.37 1212.7 1517.37 M1212.7 1513.66 Q1218.51 1513.66 1221.57 1518.27 Q1224.65 1522.85 1224.65 1531.6 Q1224.65 1540.33 1221.57 1544.94 Q1218.51 1549.52 1212.7 1549.52 Q1206.89 1549.52 1203.81 1544.94 Q1200.76 1540.33 1200.76 1531.6 Q1200.76 1522.85 1203.81 1518.27 Q1206.89 1513.66 1212.7 1513.66 Z" fill="#000000" fill-rule="nonzero" fill-opacity="1"></path><path clip-path="url(#clip520)" d="M1630.16 1529.7 Q1627.01 1529.7 1625.16 1531.86 Q1623.33 1534.01 1623.33 1537.76 Q1623.33 1541.49 1625.16 1543.66 Q1627.01 1545.82 1630.16 1545.82 Q1633.31 1545.82 1635.13 1543.66 Q1636.99 1541.49 1636.99 1537.76 Q1636.99 1534.01 1635.13 1531.86 Q1633.31 1529.7 1630.16 1529.7 M1639.44 1515.05 L1639.44 1519.31 Q1637.68 1518.48 1635.88 1518.04 Q1634.09 1517.6 1632.33 1517.6 Q1627.7 1517.6 1625.25 1520.72 Q1622.82 1523.85 1622.47 1530.17 Q1623.84 1528.15 1625.9 1527.09 Q1627.96 1526 1630.44 1526 Q1635.64 1526 1638.65 1529.17 Q1641.69 1532.32 1641.69 1537.76 Q1641.69 1543.08 1638.54 1546.3 Q1635.39 1549.52 1630.16 1549.52 Q1624.16 1549.52 1620.99 1544.94 Q1617.82 1540.33 1617.82 1531.6 Q1617.82 1523.41 1621.71 1518.55 Q1625.6 1513.66 1632.15 1513.66 Q1633.91 1513.66 1635.69 1514.01 Q1637.5 1514.36 1639.44 1515.05 Z" fill="#000000" fill-rule="nonzero" fill-opacity="1"></path><path clip-path="url(#clip520)" d="M1659.74 1517.37 Q1656.13 1517.37 1654.3 1520.93 Q1652.5 1524.47 1652.5 1531.6 Q1652.5 1538.71 1654.3 1542.27 Q1656.13 1545.82 1659.74 1545.82 Q1663.38 1545.82 1665.18 1542.27 Q1667.01 1538.71 1667.01 1531.6 Q1667.01 1524.47 1665.18 1520.93 Q1663.38 1517.37 1659.74 1517.37 M1659.74 1513.66 Q1665.55 1513.66 1668.61 1518.27 Q1671.69 1522.85 1671.69 1531.6 Q1671.69 1540.33 1668.61 1544.94 Q1665.55 1549.52 1659.74 1549.52 Q1653.93 1549.52 1650.85 1544.94 Q1647.8 1540.33 1647.8 1531.6 Q1647.8 1522.85 1650.85 1518.27 Q1653.93 1513.66 1659.74 1513.66 Z" fill="#000000" fill-rule="nonzero" fill-opacity="1"></path><path clip-path="url(#clip520)" d="M2077.16 1532.44 Q2073.83 1532.44 2071.91 1534.22 Q2070.01 1536 2070.01 1539.13 Q2070.01 1542.25 2071.91 1544.03 Q2073.83 1545.82 2077.16 1545.82 Q2080.5 1545.82 2082.42 1544.03 Q2084.34 1542.23 2084.34 1539.13 Q2084.34 1536 2082.42 1534.22 Q2080.52 1532.44 2077.16 1532.44 M2072.49 1530.45 Q2069.48 1529.7 2067.79 1527.64 Q2066.12 1525.58 2066.12 1522.62 Q2066.12 1518.48 2069.06 1516.07 Q2072.02 1513.66 2077.16 1513.66 Q2082.32 1513.66 2085.26 1516.07 Q2088.2 1518.48 2088.2 1522.62 Q2088.2 1525.58 2086.51 1527.64 Q2084.85 1529.7 2081.86 1530.45 Q2085.24 1531.23 2087.12 1533.52 Q2089.01 1535.82 2089.01 1539.13 Q2089.01 1544.15 2085.94 1546.83 Q2082.88 1549.52 2077.16 1549.52 Q2071.44 1549.52 2068.37 1546.83 Q2065.31 1544.15 2065.31 1539.13 Q2065.31 1535.82 2067.21 1533.52 Q2069.11 1531.23 2072.49 1530.45 M2070.77 1523.06 Q2070.77 1525.75 2072.44 1527.25 Q2074.13 1528.76 2077.16 1528.76 Q2080.17 1528.76 2081.86 1527.25 Q2083.57 1525.75 2083.57 1523.06 Q2083.57 1520.38 2081.86 1518.87 Q2080.17 1517.37 2077.16 1517.37 Q2074.13 1517.37 2072.44 1518.87 Q2070.77 1520.38 2070.77 1523.06 Z" fill="#000000" fill-rule="nonzero" fill-opacity="1"></path><path clip-path="url(#clip520)" d="M2107.32 1517.37 Q2103.71 1517.37 2101.88 1520.93 Q2100.08 1524.47 2100.08 1531.6 Q2100.08 1538.71 2101.88 1542.27 Q2103.71 1545.82 2107.32 1545.82 Q2110.96 1545.82 2112.76 1542.27 Q2114.59 1538.71 2114.59 1531.6 Q2114.59 1524.47 2112.76 1520.93 Q2110.96 1517.37 2107.32 1517.37 M2107.32 1513.66 Q2113.13 1513.66 2116.19 1518.27 Q2119.27 1522.85 2119.27 1531.6 Q2119.27 1540.33 2116.19 1544.94 Q2113.13 1549.52 2107.32 1549.52 Q2101.51 1549.52 2098.44 1544.94 Q2095.38 1540.33 2095.38 1531.6 Q2095.38 1522.85 2098.44 1518.27 Q2101.51 1513.66 2107.32 1513.66 Z" fill="#000000" fill-rule="nonzero" fill-opacity="1"></path><polyline clip-path="url(#clip522)" style="stroke:#000000; stroke-linecap:round; stroke-linejoin:round; stroke-width:2; stroke-opacity:0.1; fill:none" points="265.445,1230.6 2352.76,1230.6 "></polyline>
<polyline clip-path="url(#clip522)" style="stroke:#000000; stroke-linecap:round; stroke-linejoin:round; stroke-width:2; stroke-opacity:0.1; fill:none" points="265.445,943.622 2352.76,943.622 "></polyline>
<polyline clip-path="url(#clip522)" style="stroke:#000000; stroke-linecap:round; stroke-linejoin:round; stroke-width:2; stroke-opacity:0.1; fill:none" points="265.445,656.647 2352.76,656.647 "></polyline>
<polyline clip-path="url(#clip522)" style="stroke:#000000; stroke-linecap:round; stroke-linejoin:round; stroke-width:2; stroke-opacity:0.1; fill:none" points="265.445,369.672 2352.76,369.672 "></polyline>
<polyline clip-path="url(#clip522)" style="stroke:#000000; stroke-linecap:round; stroke-linejoin:round; stroke-width:2; stroke-opacity:0.1; fill:none" points="265.445,82.6964 2352.76,82.6964 "></polyline>
<polyline clip-path="url(#clip520)" style="stroke:#000000; stroke-linecap:round; stroke-linejoin:round; stroke-width:4; stroke-opacity:1; fill:none" points="265.445,1486.45 265.445,47.2441 "></polyline>
<polyline clip-path="url(#clip520)" style="stroke:#000000; stroke-linecap:round; stroke-linejoin:round; stroke-width:4; stroke-opacity:1; fill:none" points="265.445,1230.6 284.342,1230.6 "></polyline>
<polyline clip-path="url(#clip520)" style="stroke:#000000; stroke-linecap:round; stroke-linejoin:round; stroke-width:4; stroke-opacity:1; fill:none" points="265.445,943.622 284.342,943.622 "></polyline>
<polyline clip-path="url(#clip520)" style="stroke:#000000; stroke-linecap:round; stroke-linejoin:round; stroke-width:4; stroke-opacity:1; fill:none" points="265.445,656.647 284.342,656.647 "></polyline>
<polyline clip-path="url(#clip520)" style="stroke:#000000; stroke-linecap:round; stroke-linejoin:round; stroke-width:4; stroke-opacity:1; fill:none" points="265.445,369.672 284.342,369.672 "></polyline>
<polyline clip-path="url(#clip520)" style="stroke:#000000; stroke-linecap:round; stroke-linejoin:round; stroke-width:4; stroke-opacity:1; fill:none" points="265.445,82.6964 284.342,82.6964 "></polyline>
<path clip-path="url(#clip520)" d="M129.862 1217.39 L118.056 1235.84 L129.862 1235.84 L129.862 1217.39 M128.635 1213.32 L134.515 1213.32 L134.515 1235.84 L139.445 1235.84 L139.445 1239.73 L134.515 1239.73 L134.515 1247.88 L129.862 1247.88 L129.862 1239.73 L114.26 1239.73 L114.26 1235.22 L128.635 1213.32 Z" fill="#000000" fill-rule="nonzero" fill-opacity="1"></path><path clip-path="url(#clip520)" d="M157.177 1231.47 Q153.843 1231.47 151.922 1233.25 Q150.024 1235.03 150.024 1238.15 Q150.024 1241.28 151.922 1243.06 Q153.843 1244.84 157.177 1244.84 Q160.51 1244.84 162.431 1243.06 Q164.352 1241.26 164.352 1238.15 Q164.352 1235.03 162.431 1233.25 Q160.533 1231.47 157.177 1231.47 M152.501 1229.47 Q149.491 1228.73 147.802 1226.67 Q146.135 1224.61 146.135 1221.65 Q146.135 1217.51 149.075 1215.1 Q152.038 1212.69 157.177 1212.69 Q162.339 1212.69 165.278 1215.1 Q168.218 1217.51 168.218 1221.65 Q168.218 1224.61 166.528 1226.67 Q164.862 1228.73 161.876 1229.47 Q165.255 1230.26 167.13 1232.55 Q169.028 1234.84 169.028 1238.15 Q169.028 1243.18 165.95 1245.86 Q162.894 1248.55 157.177 1248.55 Q151.459 1248.55 148.38 1245.86 Q145.325 1243.18 145.325 1238.15 Q145.325 1234.84 147.223 1232.55 Q149.121 1230.26 152.501 1229.47 M150.788 1222.09 Q150.788 1224.78 152.454 1226.28 Q154.144 1227.78 157.177 1227.78 Q160.186 1227.78 161.876 1226.28 Q163.589 1224.78 163.589 1222.09 Q163.589 1219.41 161.876 1217.9 Q160.186 1216.4 157.177 1216.4 Q154.144 1216.4 152.454 1217.9 Q150.788 1219.41 150.788 1222.09 Z" fill="#000000" fill-rule="nonzero" fill-opacity="1"></path><path clip-path="url(#clip520)" d="M187.338 1216.4 Q183.727 1216.4 181.899 1219.96 Q180.093 1223.5 180.093 1230.63 Q180.093 1237.74 181.899 1241.3 Q183.727 1244.84 187.338 1244.84 Q190.973 1244.84 192.778 1241.3 Q194.607 1237.74 194.607 1230.63 Q194.607 1223.5 192.778 1219.96 Q190.973 1216.4 187.338 1216.4 M187.338 1212.69 Q193.149 1212.69 196.204 1217.3 Q199.283 1221.88 199.283 1230.63 Q199.283 1239.36 196.204 1243.97 Q193.149 1248.55 187.338 1248.55 Q181.528 1248.55 178.45 1243.97 Q175.394 1239.36 175.394 1230.63 Q175.394 1221.88 178.45 1217.3 Q181.528 1212.69 187.338 1212.69 Z" fill="#000000" fill-rule="nonzero" fill-opacity="1"></path><path clip-path="url(#clip520)" d="M217.5 1216.4 Q213.889 1216.4 212.061 1219.96 Q210.255 1223.5 210.255 1230.63 Q210.255 1237.74 212.061 1241.3 Q213.889 1244.84 217.5 1244.84 Q221.135 1244.84 222.94 1241.3 Q224.769 1237.74 224.769 1230.63 Q224.769 1223.5 222.94 1219.96 Q221.135 1216.4 217.5 1216.4 M217.5 1212.69 Q223.31 1212.69 226.366 1217.3 Q229.445 1221.88 229.445 1230.63 Q229.445 1239.36 226.366 1243.97 Q223.31 1248.55 217.5 1248.55 Q211.69 1248.55 208.612 1243.97 Q205.556 1239.36 205.556 1230.63 Q205.556 1221.88 208.612 1217.3 Q211.69 1212.69 217.5 1212.69 Z" fill="#000000" fill-rule="nonzero" fill-opacity="1"></path><path clip-path="url(#clip520)" d="M117.061 926.342 L135.417 926.342 L135.417 930.277 L121.343 930.277 L121.343 938.749 Q122.362 938.402 123.38 938.24 Q124.399 938.055 125.418 938.055 Q131.205 938.055 134.584 941.226 Q137.964 944.397 137.964 949.814 Q137.964 955.393 134.492 958.495 Q131.019 961.573 124.7 961.573 Q122.524 961.573 120.255 961.203 Q118.01 960.833 115.603 960.092 L115.603 955.393 Q117.686 956.527 119.908 957.083 Q122.13 957.638 124.607 957.638 Q128.612 957.638 130.95 955.532 Q133.288 953.425 133.288 949.814 Q133.288 946.203 130.95 944.096 Q128.612 941.99 124.607 941.99 Q122.732 941.99 120.857 942.407 Q119.006 942.823 117.061 943.703 L117.061 926.342 Z" fill="#000000" fill-rule="nonzero" fill-opacity="1"></path><path clip-path="url(#clip520)" d="M147.987 956.967 L155.626 956.967 L155.626 930.601 L147.316 932.268 L147.316 928.009 L155.579 926.342 L160.255 926.342 L160.255 956.967 L167.894 956.967 L167.894 960.902 L147.987 960.902 L147.987 956.967 Z" fill="#000000" fill-rule="nonzero" fill-opacity="1"></path><path clip-path="url(#clip520)" d="M187.338 929.421 Q183.727 929.421 181.899 932.985 Q180.093 936.527 180.093 943.657 Q180.093 950.763 181.899 954.328 Q183.727 957.87 187.338 957.87 Q190.973 957.87 192.778 954.328 Q194.607 950.763 194.607 943.657 Q194.607 936.527 192.778 932.985 Q190.973 929.421 187.338 929.421 M187.338 925.717 Q193.149 925.717 196.204 930.323 Q199.283 934.907 199.283 943.657 Q199.283 952.383 196.204 956.99 Q193.149 961.573 187.338 961.573 Q181.528 961.573 178.45 956.99 Q175.394 952.383 175.394 943.657 Q175.394 934.907 178.45 930.323 Q181.528 925.717 187.338 925.717 Z" fill="#000000" fill-rule="nonzero" fill-opacity="1"></path><path clip-path="url(#clip520)" d="M217.5 929.421 Q213.889 929.421 212.061 932.985 Q210.255 936.527 210.255 943.657 Q210.255 950.763 212.061 954.328 Q213.889 957.87 217.5 957.87 Q221.135 957.87 222.94 954.328 Q224.769 950.763 224.769 943.657 Q224.769 936.527 222.94 932.985 Q221.135 929.421 217.5 929.421 M217.5 925.717 Q223.31 925.717 226.366 930.323 Q229.445 934.907 229.445 943.657 Q229.445 952.383 226.366 956.99 Q223.31 961.573 217.5 961.573 Q211.69 961.573 208.612 956.99 Q205.556 952.383 205.556 943.657 Q205.556 934.907 208.612 930.323 Q211.69 925.717 217.5 925.717 Z" fill="#000000" fill-rule="nonzero" fill-opacity="1"></path><path clip-path="url(#clip520)" d="M117.061 639.367 L135.417 639.367 L135.417 643.302 L121.343 643.302 L121.343 651.774 Q122.362 651.427 123.38 651.265 Q124.399 651.08 125.418 651.08 Q131.205 651.08 134.584 654.251 Q137.964 657.422 137.964 662.839 Q137.964 668.418 134.492 671.519 Q131.019 674.598 124.7 674.598 Q122.524 674.598 120.255 674.228 Q118.01 673.857 115.603 673.117 L115.603 668.418 Q117.686 669.552 119.908 670.107 Q122.13 670.663 124.607 670.663 Q128.612 670.663 130.95 668.556 Q133.288 666.45 133.288 662.839 Q133.288 659.228 130.95 657.121 Q128.612 655.015 124.607 655.015 Q122.732 655.015 120.857 655.431 Q119.006 655.848 117.061 656.728 L117.061 639.367 Z" fill="#000000" fill-rule="nonzero" fill-opacity="1"></path><path clip-path="url(#clip520)" d="M160.024 643.441 L148.218 661.89 L160.024 661.89 L160.024 643.441 M158.797 639.367 L164.677 639.367 L164.677 661.89 L169.607 661.89 L169.607 665.779 L164.677 665.779 L164.677 673.927 L160.024 673.927 L160.024 665.779 L144.422 665.779 L144.422 661.265 L158.797 639.367 Z" fill="#000000" fill-rule="nonzero" fill-opacity="1"></path><path clip-path="url(#clip520)" d="M187.338 642.445 Q183.727 642.445 181.899 646.01 Q180.093 649.552 180.093 656.681 Q180.093 663.788 181.899 667.353 Q183.727 670.894 187.338 670.894 Q190.973 670.894 192.778 667.353 Q194.607 663.788 194.607 656.681 Q194.607 649.552 192.778 646.01 Q190.973 642.445 187.338 642.445 M187.338 638.742 Q193.149 638.742 196.204 643.348 Q199.283 647.932 199.283 656.681 Q199.283 665.408 196.204 670.015 Q193.149 674.598 187.338 674.598 Q181.528 674.598 178.45 670.015 Q175.394 665.408 175.394 656.681 Q175.394 647.932 178.45 643.348 Q181.528 638.742 187.338 638.742 Z" fill="#000000" fill-rule="nonzero" fill-opacity="1"></path><path clip-path="url(#clip520)" d="M217.5 642.445 Q213.889 642.445 212.061 646.01 Q210.255 649.552 210.255 656.681 Q210.255 663.788 212.061 667.353 Q213.889 670.894 217.5 670.894 Q221.135 670.894 222.94 667.353 Q224.769 663.788 224.769 656.681 Q224.769 649.552 222.94 646.01 Q221.135 642.445 217.5 642.445 M217.5 638.742 Q223.31 638.742 226.366 643.348 Q229.445 647.932 229.445 656.681 Q229.445 665.408 226.366 670.015 Q223.31 674.598 217.5 674.598 Q211.69 674.598 208.612 670.015 Q205.556 665.408 205.556 656.681 Q205.556 647.932 208.612 643.348 Q211.69 638.742 217.5 638.742 Z" fill="#000000" fill-rule="nonzero" fill-opacity="1"></path><path clip-path="url(#clip520)" d="M117.061 352.392 L135.417 352.392 L135.417 356.327 L121.343 356.327 L121.343 364.799 Q122.362 364.452 123.38 364.29 Q124.399 364.104 125.418 364.104 Q131.205 364.104 134.584 367.276 Q137.964 370.447 137.964 375.864 Q137.964 381.442 134.492 384.544 Q131.019 387.623 124.7 387.623 Q122.524 387.623 120.255 387.253 Q118.01 386.882 115.603 386.141 L115.603 381.442 Q117.686 382.577 119.908 383.132 Q122.13 383.688 124.607 383.688 Q128.612 383.688 130.95 381.581 Q133.288 379.475 133.288 375.864 Q133.288 372.253 130.95 370.146 Q128.612 368.04 124.607 368.04 Q122.732 368.04 120.857 368.456 Q119.006 368.873 117.061 369.753 L117.061 352.392 Z" fill="#000000" fill-rule="nonzero" fill-opacity="1"></path><path clip-path="url(#clip520)" d="M145.996 352.392 L168.218 352.392 L168.218 354.382 L155.672 386.952 L150.788 386.952 L162.593 356.327 L145.996 356.327 L145.996 352.392 Z" fill="#000000" fill-rule="nonzero" fill-opacity="1"></path><path clip-path="url(#clip520)" d="M187.338 355.47 Q183.727 355.47 181.899 359.035 Q180.093 362.577 180.093 369.706 Q180.093 376.813 181.899 380.378 Q183.727 383.919 187.338 383.919 Q190.973 383.919 192.778 380.378 Q194.607 376.813 194.607 369.706 Q194.607 362.577 192.778 359.035 Q190.973 355.47 187.338 355.47 M187.338 351.767 Q193.149 351.767 196.204 356.373 Q199.283 360.956 199.283 369.706 Q199.283 378.433 196.204 383.04 Q193.149 387.623 187.338 387.623 Q181.528 387.623 178.45 383.04 Q175.394 378.433 175.394 369.706 Q175.394 360.956 178.45 356.373 Q181.528 351.767 187.338 351.767 Z" fill="#000000" fill-rule="nonzero" fill-opacity="1"></path><path clip-path="url(#clip520)" d="M217.5 355.47 Q213.889 355.47 212.061 359.035 Q210.255 362.577 210.255 369.706 Q210.255 376.813 212.061 380.378 Q213.889 383.919 217.5 383.919 Q221.135 383.919 222.94 380.378 Q224.769 376.813 224.769 369.706 Q224.769 362.577 222.94 359.035 Q221.135 355.47 217.5 355.47 M217.5 351.767 Q223.31 351.767 226.366 356.373 Q229.445 360.956 229.445 369.706 Q229.445 378.433 226.366 383.04 Q223.31 387.623 217.5 387.623 Q211.69 387.623 208.612 383.04 Q205.556 378.433 205.556 369.706 Q205.556 360.956 208.612 356.373 Q211.69 351.767 217.5 351.767 Z" fill="#000000" fill-rule="nonzero" fill-opacity="1"></path><path clip-path="url(#clip520)" d="M127.593 80.833 Q124.445 80.833 122.593 82.9857 Q120.765 85.1385 120.765 88.8885 Q120.765 92.6153 122.593 94.7912 Q124.445 96.944 127.593 96.944 Q130.742 96.944 132.57 94.7912 Q134.422 92.6153 134.422 88.8885 Q134.422 85.1385 132.57 82.9857 Q130.742 80.833 127.593 80.833 M136.876 66.1803 L136.876 70.4395 Q135.117 69.6062 133.311 69.1664 Q131.529 68.7266 129.769 68.7266 Q125.14 68.7266 122.686 71.8515 Q120.255 74.9765 119.908 81.2959 Q121.274 79.2821 123.334 78.2173 Q125.394 77.1293 127.871 77.1293 Q133.08 77.1293 136.089 80.3006 Q139.121 83.4487 139.121 88.8885 Q139.121 94.2125 135.973 97.4301 Q132.825 100.648 127.593 100.648 Q121.598 100.648 118.427 96.0644 Q115.256 91.4579 115.256 82.7311 Q115.256 74.5367 119.144 69.6756 Q123.033 64.7914 129.584 64.7914 Q131.343 64.7914 133.126 65.1386 Q134.931 65.4858 136.876 66.1803 Z" fill="#000000" fill-rule="nonzero" fill-opacity="1"></path><path clip-path="url(#clip520)" d="M157.177 68.4951 Q153.566 68.4951 151.737 72.0599 Q149.931 75.6015 149.931 82.7311 Q149.931 89.8376 151.737 93.4024 Q153.566 96.944 157.177 96.944 Q160.811 96.944 162.616 93.4024 Q164.445 89.8376 164.445 82.7311 Q164.445 75.6015 162.616 72.0599 Q160.811 68.4951 157.177 68.4951 M157.177 64.7914 Q162.987 64.7914 166.042 69.3979 Q169.121 73.9812 169.121 82.7311 Q169.121 91.4579 166.042 96.0644 Q162.987 100.648 157.177 100.648 Q151.366 100.648 148.288 96.0644 Q145.232 91.4579 145.232 82.7311 Q145.232 73.9812 148.288 69.3979 Q151.366 64.7914 157.177 64.7914 Z" fill="#000000" fill-rule="nonzero" fill-opacity="1"></path><path clip-path="url(#clip520)" d="M187.338 68.4951 Q183.727 68.4951 181.899 72.0599 Q180.093 75.6015 180.093 82.7311 Q180.093 89.8376 181.899 93.4024 Q183.727 96.944 187.338 96.944 Q190.973 96.944 192.778 93.4024 Q194.607 89.8376 194.607 82.7311 Q194.607 75.6015 192.778 72.0599 Q190.973 68.4951 187.338 68.4951 M187.338 64.7914 Q193.149 64.7914 196.204 69.3979 Q199.283 73.9812 199.283 82.7311 Q199.283 91.4579 196.204 96.0644 Q193.149 100.648 187.338 100.648 Q181.528 100.648 178.45 96.0644 Q175.394 91.4579 175.394 82.7311 Q175.394 73.9812 178.45 69.3979 Q181.528 64.7914 187.338 64.7914 Z" fill="#000000" fill-rule="nonzero" fill-opacity="1"></path><path clip-path="url(#clip520)" d="M217.5 68.4951 Q213.889 68.4951 212.061 72.0599 Q210.255 75.6015 210.255 82.7311 Q210.255 89.8376 212.061 93.4024 Q213.889 96.944 217.5 96.944 Q221.135 96.944 222.94 93.4024 Q224.769 89.8376 224.769 82.7311 Q224.769 75.6015 222.94 72.0599 Q221.135 68.4951 217.5 68.4951 M217.5 64.7914 Q223.31 64.7914 226.366 69.3979 Q229.445 73.9812 229.445 82.7311 Q229.445 91.4579 226.366 96.0644 Q223.31 100.648 217.5 100.648 Q211.69 100.648 208.612 96.0644 Q205.556 91.4579 205.556 82.7311 Q205.556 73.9812 208.612 69.3979 Q211.69 64.7914 217.5 64.7914 Z" fill="#000000" fill-rule="nonzero" fill-opacity="1"></path><path clip-path="url(#clip520)" d="M16.4842 1067.23 L16.4842 1037.18 L21.895 1037.18 L21.895 1060.8 L35.9632 1060.8 L35.9632 1038.17 L41.3741 1038.17 L41.3741 1060.8 L58.5933 1060.8 L58.5933 1036.61 L64.0042 1036.61 L64.0042 1067.23 L16.4842 1067.23 Z" fill="#000000" fill-rule="nonzero" fill-opacity="1"></path><path clip-path="url(#clip520)" d="M14.479 1026.3 L14.479 1020.44 L64.0042 1020.44 L64.0042 1026.3 L14.479 1026.3 Z" fill="#000000" fill-rule="nonzero" fill-opacity="1"></path><path clip-path="url(#clip520)" d="M44.7161 977.694 L47.5806 977.694 L47.5806 1004.62 Q53.6281 1004.24 56.8109 1000.99 Q59.9619 997.714 59.9619 991.89 Q59.9619 988.516 59.1344 985.365 Q58.3069 982.182 56.6518 979.063 L62.1899 979.063 Q63.5267 982.214 64.227 985.524 Q64.9272 988.834 64.9272 992.24 Q64.9272 1000.77 59.9619 1005.77 Q54.9967 1010.73 46.5303 1010.73 Q37.7774 1010.73 32.6531 1006.02 Q27.4968 1001.28 27.4968 993.258 Q27.4968 986.065 32.1438 981.895 Q36.7589 977.694 44.7161 977.694 M42.9973 983.551 Q38.1912 983.614 35.3266 986.256 Q32.4621 988.866 32.4621 993.195 Q32.4621 998.096 35.2312 1001.06 Q38.0002 1003.98 43.0292 1004.43 L42.9973 983.551 Z" fill="#000000" fill-rule="nonzero" fill-opacity="1"></path><path clip-path="url(#clip520)" d="M28.3562 972.283 L28.3562 966.077 L58.275 954.937 L28.3562 943.797 L28.3562 937.59 L64.0042 950.958 L64.0042 958.915 L28.3562 972.283 Z" fill="#000000" fill-rule="nonzero" fill-opacity="1"></path><path clip-path="url(#clip520)" d="M46.0847 913.305 Q46.0847 920.403 47.7079 923.14 Q49.3312 925.877 53.2461 925.877 Q56.3653 925.877 58.2114 923.84 Q60.0256 921.771 60.0256 918.238 Q60.0256 913.369 56.5881 910.44 Q53.1188 907.48 47.3897 907.48 L46.0847 907.48 L46.0847 913.305 M43.6657 901.624 L64.0042 901.624 L64.0042 907.48 L58.5933 907.48 Q61.8398 909.486 63.3994 912.477 Q64.9272 915.469 64.9272 919.798 Q64.9272 925.273 61.8716 928.519 Q58.7843 931.734 53.6281 931.734 Q47.6125 931.734 44.5569 927.723 Q41.5014 923.681 41.5014 915.692 L41.5014 907.48 L40.9285 907.48 Q36.8862 907.48 34.6901 910.154 Q32.4621 912.796 32.4621 917.602 Q32.4621 920.657 33.1941 923.554 Q33.9262 926.45 35.3903 929.124 L29.9795 929.124 Q28.7381 925.909 28.1334 922.885 Q27.4968 919.862 27.4968 916.997 Q27.4968 909.263 31.5072 905.443 Q35.5176 901.624 43.6657 901.624 Z" fill="#000000" fill-rule="nonzero" fill-opacity="1"></path><path clip-path="url(#clip520)" d="M18.2347 883.768 L28.3562 883.768 L28.3562 871.705 L32.9077 871.705 L32.9077 883.768 L52.2594 883.768 Q56.6199 883.768 57.8613 882.59 Q59.1026 881.381 59.1026 877.721 L59.1026 871.705 L64.0042 871.705 L64.0042 877.721 Q64.0042 884.5 61.4897 887.078 Q58.9434 889.656 52.2594 889.656 L32.9077 889.656 L32.9077 893.953 L28.3562 893.953 L28.3562 889.656 L18.2347 889.656 L18.2347 883.768 Z" fill="#000000" fill-rule="nonzero" fill-opacity="1"></path><path clip-path="url(#clip520)" d="M28.3562 864.003 L28.3562 858.146 L64.0042 858.146 L64.0042 864.003 L28.3562 864.003 M14.479 864.003 L14.479 858.146 L21.895 858.146 L21.895 864.003 L14.479 864.003 Z" fill="#000000" fill-rule="nonzero" fill-opacity="1"></path><path clip-path="url(#clip520)" d="M32.4621 832.079 Q32.4621 836.789 36.1542 839.526 Q39.8145 842.264 46.212 842.264 Q52.6095 842.264 56.3017 839.558 Q59.9619 836.821 59.9619 832.079 Q59.9619 827.4 56.2698 824.663 Q52.5777 821.925 46.212 821.925 Q39.8781 821.925 36.186 824.663 Q32.4621 827.4 32.4621 832.079 M27.4968 832.079 Q27.4968 824.44 32.4621 820.079 Q37.4273 815.719 46.212 815.719 Q54.9649 815.719 59.9619 820.079 Q64.9272 824.44 64.9272 832.079 Q64.9272 839.749 59.9619 844.11 Q54.9649 848.438 46.212 848.438 Q37.4273 848.438 32.4621 844.11 Q27.4968 839.749 27.4968 832.079 Z" fill="#000000" fill-rule="nonzero" fill-opacity="1"></path><path clip-path="url(#clip520)" d="M42.4881 776.379 L64.0042 776.379 L64.0042 782.235 L42.679 782.235 Q37.6183 782.235 35.1038 784.208 Q32.5894 786.182 32.5894 790.129 Q32.5894 794.871 35.6131 797.608 Q38.6368 800.346 43.8567 800.346 L64.0042 800.346 L64.0042 806.234 L28.3562 806.234 L28.3562 800.346 L33.8944 800.346 Q30.6797 798.245 29.0883 795.412 Q27.4968 792.548 27.4968 788.824 Q27.4968 782.681 31.3163 779.53 Q35.1038 776.379 42.4881 776.379 Z" fill="#000000" fill-rule="nonzero" fill-opacity="1"></path><path clip-path="url(#clip520)" d="M14.5426 729.909 Q21.8632 734.174 29.0246 736.243 Q36.186 738.312 43.5384 738.312 Q50.8908 738.312 58.1159 736.243 Q65.3091 734.142 72.5979 729.909 L72.5979 735.002 Q65.1182 739.776 57.8931 742.163 Q50.668 744.518 43.5384 744.518 Q36.4406 744.518 29.2474 742.163 Q22.0542 739.808 14.5426 735.002 L14.5426 729.909 Z" fill="#000000" fill-rule="nonzero" fill-opacity="1"></path><path clip-path="url(#clip520)" d="M35.1993 690.792 Q31.2526 688.596 29.3747 685.54 Q27.4968 682.484 27.4968 678.347 Q27.4968 672.777 31.4117 669.753 Q35.2948 666.729 42.4881 666.729 L64.0042 666.729 L64.0042 672.618 L42.679 672.618 Q37.5546 672.618 35.072 674.432 Q32.5894 676.246 32.5894 679.97 Q32.5894 684.521 35.6131 687.163 Q38.6368 689.805 43.8567 689.805 L64.0042 689.805 L64.0042 695.693 L42.679 695.693 Q37.5228 695.693 35.072 697.508 Q32.5894 699.322 32.5894 703.109 Q32.5894 707.597 35.6449 710.239 Q38.6686 712.881 43.8567 712.881 L64.0042 712.881 L64.0042 718.769 L28.3562 718.769 L28.3562 712.881 L33.8944 712.881 Q30.616 710.876 29.0564 708.075 Q27.4968 705.274 27.4968 701.422 Q27.4968 697.539 29.4702 694.834 Q31.4436 692.097 35.1993 690.792 Z" fill="#000000" fill-rule="nonzero" fill-opacity="1"></path><path clip-path="url(#clip520)" d="M55.9197 654.221 L55.9197 647.505 L64.0042 647.505 L64.0042 654.221 L55.9197 654.221 Z" fill="#000000" fill-rule="nonzero" fill-opacity="1"></path><path clip-path="url(#clip520)" d="M46.0847 618.127 Q46.0847 625.225 47.7079 627.962 Q49.3312 630.699 53.2461 630.699 Q56.3653 630.699 58.2114 628.662 Q60.0256 626.594 60.0256 623.061 Q60.0256 618.191 56.5881 615.263 Q53.1188 612.303 47.3897 612.303 L46.0847 612.303 L46.0847 618.127 M43.6657 606.446 L64.0042 606.446 L64.0042 612.303 L58.5933 612.303 Q61.8398 614.308 63.3994 617.3 Q64.9272 620.292 64.9272 624.62 Q64.9272 630.095 61.8716 633.341 Q58.7843 636.556 53.6281 636.556 Q47.6125 636.556 44.5569 632.545 Q41.5014 628.503 41.5014 620.514 L41.5014 612.303 L40.9285 612.303 Q36.8862 612.303 34.6901 614.976 Q32.4621 617.618 32.4621 622.424 Q32.4621 625.48 33.1941 628.376 Q33.9262 631.272 35.3903 633.946 L29.9795 633.946 Q28.7381 630.731 28.1334 627.708 Q27.4968 624.684 27.4968 621.819 Q27.4968 614.085 31.5072 610.266 Q35.5176 606.446 43.6657 606.446 Z" fill="#000000" fill-rule="nonzero" fill-opacity="1"></path><path clip-path="url(#clip520)" d="M55.9197 593.556 L55.9197 586.84 L64.0042 586.84 L64.0042 593.556 L55.9197 593.556 Z" fill="#000000" fill-rule="nonzero" fill-opacity="1"></path><path clip-path="url(#clip520)" d="M29.4065 550.937 L34.9447 550.937 Q33.6716 553.42 33.035 556.093 Q32.3984 558.767 32.3984 561.632 Q32.3984 565.992 33.7352 568.188 Q35.072 570.353 37.7456 570.353 Q39.7826 570.353 40.9603 568.793 Q42.1061 567.233 43.1565 562.523 L43.6021 560.518 Q44.9389 554.279 47.3897 551.669 Q49.8086 549.027 54.1691 549.027 Q59.1344 549.027 62.0308 552.974 Q64.9272 556.889 64.9272 563.764 Q64.9272 566.629 64.3543 569.748 Q63.8132 572.835 62.6992 576.273 L56.6518 576.273 Q58.3387 573.026 59.198 569.875 Q60.0256 566.724 60.0256 563.637 Q60.0256 559.499 58.6251 557.271 Q57.1929 555.043 54.6147 555.043 Q52.2276 555.043 50.9545 556.666 Q49.6813 558.258 48.5037 563.7 L48.0262 565.737 Q46.8804 571.18 44.5251 573.599 Q42.138 576.018 38.0002 576.018 Q32.9713 576.018 30.2341 572.453 Q27.4968 568.888 27.4968 562.332 Q27.4968 559.085 27.9743 556.221 Q28.4517 553.356 29.4065 550.937 Z" fill="#000000" fill-rule="nonzero" fill-opacity="1"></path><path clip-path="url(#clip520)" d="M55.9197 538.874 L55.9197 532.158 L64.0042 532.158 L64.0042 538.874 L55.9197 538.874 Z" fill="#000000" fill-rule="nonzero" fill-opacity="1"></path><path clip-path="url(#clip520)" d="M14.479 518.981 L14.479 513.125 L64.0042 513.125 L64.0042 518.981 L14.479 518.981 Z" fill="#000000" fill-rule="nonzero" fill-opacity="1"></path><path clip-path="url(#clip520)" d="M55.9197 500.043 L55.9197 493.327 L64.0042 493.327 L64.0042 500.043 L55.9197 500.043 Z" fill="#000000" fill-rule="nonzero" fill-opacity="1"></path><path clip-path="url(#clip520)" d="M14.5426 481.073 L14.5426 475.981 Q22.0542 471.207 29.2474 468.851 Q36.4406 466.464 43.5384 466.464 Q50.668 466.464 57.8931 468.851 Q65.1182 471.207 72.5979 475.981 L72.5979 481.073 Q65.3091 476.84 58.1159 474.771 Q50.8908 472.671 43.5384 472.671 Q36.186 472.671 29.0246 474.771 Q21.8632 476.84 14.5426 481.073 Z" fill="#000000" fill-rule="nonzero" fill-opacity="1"></path><polyline clip-path="url(#clip522)" style="stroke:#a52a2a; stroke-linecap:round; stroke-linejoin:round; stroke-width:4; stroke-opacity:1; fill:none" points="324.52,156.345 346.896,170.673 369.273,173.712 391.65,182.818 414.027,203.966 436.404,235.888 458.781,273.766 481.157,309.447 503.534,340.648 525.911,368.973 548.288,396.763 570.665,422.227 593.042,445.783 615.418,466.756 637.795,485.69 660.172,502.691 682.549,518.275 704.926,533.723 727.303,554.326 749.679,573.201 772.056,585.225 794.433,595.682 816.81,604.97 839.187,611.217 861.564,619.605 883.94,631.151 906.317,644.403 928.694,659.446 951.071,674.66 973.448,691.234 995.825,705.676 1018.2,718.226 1040.58,730.333 1062.96,738.248 1085.33,747.293 1107.71,760.917 1130.09,768.483 1152.46,778.068 1174.84,789.122 1197.22,806.744 1219.59,820.185 1241.97,834.974 1264.35,857.962 1286.72,885.405 1309.1,916.359 1331.48,948.504 1353.85,978.095 1376.23,1001.57 1398.61,1016.62 1420.98,1023.59 1443.36,1026.08 1465.74,1028.3 1488.11,1032.28 1510.49,1037.93 1532.87,1044.49 1555.25,1051.72 1577.62,1059.74 1600,1068.33 1622.38,1076.89 1644.75,1084.94 1667.13,1092.55 1689.51,1099.97 1711.88,1107.03 1734.26,1113.15 1756.64,1118.01 1779.01,1121.83 1801.39,1125.02 1823.77,1127.62 1846.14,1129.47 1868.52,1130.5 1890.9,1131.05 1913.27,1131.95 1935.65,1133.94 1958.03,1137.08 1980.41,1141.12 2002.78,1146.33 2025.16,1154.18 2047.54,1167.04 2069.91,1187.22 2092.29,1215.52 2114.67,1249.73 2137.04,1285.91 2159.42,1320.9 2181.8,1352.66 2204.17,1380.19 2226.55,1403.61 2248.93,1423.04 2271.3,1437.64 2293.68,1445.72 "></polyline>
<polyline clip-path="url(#clip522)" style="stroke:#0000ff; stroke-linecap:round; stroke-linejoin:round; stroke-width:4; stroke-opacity:1; fill:none" points="324.52,108.247 346.896,118.312 369.273,129.661 391.65,148.004 414.027,174.075 436.404,208.507 458.781,244.975 481.157,277.323 503.534,306.176 525.911,333.657 548.288,359.318 570.665,381.838 593.042,401.383 615.418,418.929 637.795,434.939 660.172,450.027 682.549,464.675 704.926,479.733 727.303,493.579 749.679,504.725 772.056,514.989 794.433,525.527 816.81,536.074 839.187,547.143 861.564,559.633 883.94,573.219 906.317,587.469 928.694,601.818 951.071,615.862 973.448,629.045 995.825,640.953 1018.2,652.102 1040.58,662.502 1062.96,672.719 1085.33,683.735 1107.71,694.402 1130.09,704.815 1152.46,716.595 1174.84,729.325 1197.22,750.013 1219.59,774.886 1241.97,794.624 1264.35,821.707 1286.72,851.047 1309.1,883.262 1331.48,915.094 1353.85,942.111 1376.23,964.484 1398.61,984.739 1420.98,1014.79 1443.36,1026.08 1465.74,1028.3 1488.11,1032.28 1510.49,1037.93 1532.87,1044.49 1555.25,1051.72 1577.62,1059.74 1600,1068.33 1622.38,1076.89 1644.75,1084.94 1667.13,1092.55 1689.51,1099.97 1711.88,1107.03 1734.26,1113.15 1756.64,1118.01 1779.01,1121.83 1801.39,1125.02 1823.77,1127.62 1846.14,1129.47 1868.52,1130.5 1890.9,1131.05 1913.27,1131.95 1935.65,1133.94 1958.03,1137.08 1980.41,1141.12 2002.78,1146.33 2025.16,1154.18 2047.54,1167.04 2069.91,1187.22 2092.29,1215.52 2114.67,1249.73 2137.04,1285.91 2159.42,1320.9 2181.8,1352.66 2204.17,1380.19 2226.55,1403.61 2248.93,1423.04 2271.3,1437.64 2293.68,1445.72 "></polyline>
<polyline clip-path="url(#clip522)" style="stroke:#ff0000; stroke-linecap:round; stroke-linejoin:round; stroke-width:4; stroke-opacity:1; fill:none" points="324.52,87.9763 346.896,99.7954 369.273,112.931 391.65,133.032 414.027,160.231 436.404,194.763 458.781,229.753 481.157,260.459 503.534,288.193 525.911,314.22 548.288,337.74 570.665,357.883 593.042,375.367 615.418,391.269 637.795,405.973 660.172,419.935 682.549,433.503 704.926,447.117 727.303,459.822 749.679,470.883 772.056,481.521 794.433,492.553 816.81,503.703 839.187,515.268 861.564,527.853 883.94,541.161 906.317,554.826 928.694,568.442 951.071,581.749 973.448,594.449 995.825,606.301 1018.2,617.624 1040.58,628.473 1062.96,639.29 1085.33,650.776 1107.71,662.208 1130.09,673.69 1152.46,686.612 1174.84,700.708 1197.22,724.04 1219.59,751.261 1241.97,772.194 1264.35,799.956 1286.72,828.921 1309.1,859.428 1331.48,886.709 1353.85,907.845 1376.23,924.255 1398.61,937.828 1420.98,951.155 1443.36,967.269 1465.74,986.111 1488.11,1022.49 1510.49,1037.93 1532.87,1044.49 1555.25,1051.72 1577.62,1059.74 1600,1068.33 1622.38,1076.89 1644.75,1084.94 1667.13,1092.55 1689.51,1099.97 1711.88,1107.03 1734.26,1113.15 1756.64,1118.01 1779.01,1121.83 1801.39,1125.02 1823.77,1127.62 1846.14,1129.47 1868.52,1130.5 1890.9,1131.05 1913.27,1131.95 1935.65,1133.94 1958.03,1137.08 1980.41,1141.12 2002.78,1146.33 2025.16,1154.18 2047.54,1167.04 2069.91,1187.22 2092.29,1215.52 2114.67,1249.73 2137.04,1285.91 2159.42,1320.9 2181.8,1352.66 2204.17,1380.19 2226.55,1403.61 2248.93,1423.04 2271.3,1437.64 2293.68,1445.72 "></polyline>
<polyline clip-path="url(#clip522)" style="stroke:#008000; stroke-linecap:round; stroke-linejoin:round; stroke-width:4; stroke-opacity:1; fill:none" points="324.52,109.094 346.896,119.055 369.273,130.826 391.65,148.891 414.027,174.721 436.404,209.019 458.781,245.763 481.157,278.422 503.534,307.256 525.911,334.875 548.288,360.928 570.665,383.932 593.042,403.751 615.418,421.649 637.795,437.977 660.172,453.258 682.549,468.235 704.926,483.385 727.303,498.562 749.679,509.421 772.056,519.973 794.433,530.639 816.81,541.54 839.187,552.44 861.564,565.488 883.94,579.5 906.317,594.497 928.694,609.993 951.071,625.22 973.448,640.373 995.825,653.796 1018.2,666.988 1040.58,679.723 1062.96,692.205 1085.33,707.623 1107.71,725.935 1130.09,746.67 1152.46,767.811 1174.84,788.165 1197.22,805.787 1219.59,820.185 1241.97,834.974 1264.35,857.962 1286.72,885.405 1309.1,916.359 1331.48,948.504 1353.85,978.095 1376.23,1001.57 1398.61,1016.62 1420.98,1023.59 1443.36,1026.08 1465.74,1028.3 1488.11,1032.28 1510.49,1037.93 1532.87,1044.49 1555.25,1051.72 1577.62,1059.74 1600,1068.33 1622.38,1076.89 1644.75,1084.94 1667.13,1092.55 1689.51,1099.97 1711.88,1107.03 1734.26,1113.15 1756.64,1118.01 1779.01,1121.83 1801.39,1125.02 1823.77,1127.62 1846.14,1129.47 1868.52,1130.5 1890.9,1131.05 1913.27,1131.95 1935.65,1133.94 1958.03,1137.08 1980.41,1141.12 2002.78,1146.33 2025.16,1154.18 2047.54,1167.04 2069.91,1187.22 2092.29,1215.52 2114.67,1249.73 2137.04,1285.91 2159.42,1320.9 2181.8,1352.66 2204.17,1380.19 2226.55,1403.61 2248.93,1423.04 2271.3,1437.64 2293.68,1445.72 "></polyline>
<polyline clip-path="url(#clip522)" style="stroke:#000000; stroke-linecap:round; stroke-linejoin:round; stroke-width:4; stroke-opacity:1; fill:none" stroke-dasharray="16, 10" points="324.52,112.101 346.896,121.308 369.273,133.182 391.65,150.521 414.027,176.511 436.404,210.46 458.781,246.188 481.157,278.313 503.534,307.43 525.911,334.964 548.288,360.463 570.665,382.842 593.042,402.392 615.418,419.905 637.795,435.94 660.172,451.073 682.549,465.902 704.926,480.732 727.303,494.223 749.679,505.56 772.056,516.017 794.433,526.559 816.81,537.25 839.187,548.553 861.564,561.113 883.94,574.793 906.317,589.166 928.694,603.71 951.071,617.962 973.448,631.379 995.825,643.692 1018.2,655.188 1040.58,666.05 1062.96,676.883 1085.33,688.261 1107.71,699.471 1130.09,710.696 1152.46,722.961 1174.84,737.214 1197.22,756.922 1219.59,777.919 1241.97,799.537 1264.35,826.226 1286.72,855.985 1309.1,883.283 1331.48,944.448 1353.85,978.095 1376.23,1001.57 1398.61,1016.62 1420.98,1023.59 1443.36,1026.08 1465.74,1028.3 1488.11,1032.28 1510.49,1037.93 1532.87,1044.49 1555.25,1051.72 1577.62,1059.74 1600,1068.33 1622.38,1076.89 1644.75,1084.94 1667.13,1092.55 1689.51,1099.97 1711.88,1107.03 1734.26,1113.15 1756.64,1118.01 1779.01,1121.83 1801.39,1125.02 1823.77,1127.62 1846.14,1129.47 1868.52,1130.5 1890.9,1131.05 1913.27,1131.95 1935.65,1133.94 1958.03,1137.08 1980.41,1141.12 2002.78,1146.33 2025.16,1154.18 2047.54,1167.04 2069.91,1187.22 2092.29,1215.52 2114.67,1249.73 2137.04,1285.91 2159.42,1320.9 2181.8,1352.66 2204.17,1380.19 2226.55,1403.61 2248.93,1423.04 2271.3,1437.64 2293.68,1445.72 "></polyline>
<path clip-path="url(#clip520)" d="M1729.73 406.258 L2283.18 406.258 L2283.18 95.2176 L1729.73 95.2176  Z" fill="#ffffff" fill-rule="evenodd" fill-opacity="1"></path>
<polyline clip-path="url(#clip520)" style="stroke:#000000; stroke-linecap:round; stroke-linejoin:round; stroke-width:4; stroke-opacity:1; fill:none" points="1729.73,406.258 2283.18,406.258 2283.18,95.2176 1729.73,95.2176 1729.73,406.258 "></polyline>
<polyline clip-path="url(#clip520)" style="stroke:#a52a2a; stroke-linecap:round; stroke-linejoin:round; stroke-width:4; stroke-opacity:1; fill:none" points="1752.92,147.058 1892.07,147.058 "></polyline>
<path clip-path="url(#clip520)" d="M1934.04 151.398 Q1934.04 146.699 1932.09 144.037 Q1930.17 141.352 1926.79 141.352 Q1923.41 141.352 1921.47 144.037 Q1919.55 146.699 1919.55 151.398 Q1919.55 156.097 1921.47 158.782 Q1923.41 161.444 1926.79 161.444 Q1930.17 161.444 1932.09 158.782 Q1934.04 156.097 1934.04 151.398 M1919.55 142.347 Q1920.89 140.032 1922.93 138.921 Q1924.99 137.787 1927.84 137.787 Q1932.56 137.787 1935.5 141.537 Q1938.46 145.287 1938.46 151.398 Q1938.46 157.509 1935.5 161.259 Q1932.56 165.009 1927.84 165.009 Q1924.99 165.009 1922.93 163.898 Q1920.89 162.763 1919.55 160.449 L1919.55 164.338 L1915.27 164.338 L1915.27 128.319 L1919.55 128.319 L1919.55 142.347 Z" fill="#000000" fill-rule="nonzero" fill-opacity="1"></path><path clip-path="url(#clip520)" d="M1967.7 150.31 L1967.7 152.393 L1948.11 152.393 Q1948.39 156.791 1950.75 159.106 Q1953.14 161.398 1957.37 161.398 Q1959.83 161.398 1962.12 160.796 Q1964.43 160.194 1966.7 158.99 L1966.7 163.018 Q1964.41 163.99 1962 164.5 Q1959.59 165.009 1957.12 165.009 Q1950.91 165.009 1947.28 161.398 Q1943.67 157.787 1943.67 151.629 Q1943.67 145.264 1947.09 141.537 Q1950.54 137.787 1956.38 137.787 Q1961.61 137.787 1964.64 141.166 Q1967.7 144.523 1967.7 150.31 M1963.44 149.06 Q1963.39 145.565 1961.47 143.481 Q1959.57 141.398 1956.42 141.398 Q1952.86 141.398 1950.71 143.412 Q1948.58 145.426 1948.25 149.083 L1963.44 149.06 Z" fill="#000000" fill-rule="nonzero" fill-opacity="1"></path><path clip-path="url(#clip520)" d="M1991.75 142.347 L1991.75 128.319 L1996.01 128.319 L1996.01 164.338 L1991.75 164.338 L1991.75 160.449 Q1990.4 162.763 1988.34 163.898 Q1986.31 165.009 1983.44 165.009 Q1978.74 165.009 1975.78 161.259 Q1972.84 157.509 1972.84 151.398 Q1972.84 145.287 1975.78 141.537 Q1978.74 137.787 1983.44 137.787 Q1986.31 137.787 1988.34 138.921 Q1990.4 140.032 1991.75 142.347 M1977.23 151.398 Q1977.23 156.097 1979.15 158.782 Q1981.1 161.444 1984.48 161.444 Q1987.86 161.444 1989.8 158.782 Q1991.75 156.097 1991.75 151.398 Q1991.75 146.699 1989.8 144.037 Q1987.86 141.352 1984.48 141.352 Q1981.1 141.352 1979.15 144.037 Q1977.23 146.699 1977.23 151.398 Z" fill="#000000" fill-rule="nonzero" fill-opacity="1"></path><polyline clip-path="url(#clip520)" style="stroke:#0000ff; stroke-linecap:round; stroke-linejoin:round; stroke-width:4; stroke-opacity:1; fill:none" points="1752.92,198.898 1892.07,198.898 "></polyline>
<path clip-path="url(#clip520)" d="M1933.69 191.016 L1933.69 195.043 Q1931.89 194.117 1929.94 193.655 Q1928 193.192 1925.91 193.192 Q1922.74 193.192 1921.15 194.164 Q1919.57 195.136 1919.57 197.08 Q1919.57 198.562 1920.71 199.418 Q1921.84 200.252 1925.27 201.016 L1926.72 201.34 Q1931.26 202.312 1933.16 204.094 Q1935.08 205.854 1935.08 209.025 Q1935.08 212.636 1932.21 214.742 Q1929.36 216.849 1924.36 216.849 Q1922.28 216.849 1920.01 216.432 Q1917.77 216.039 1915.27 215.228 L1915.27 210.83 Q1917.63 212.057 1919.92 212.682 Q1922.21 213.284 1924.46 213.284 Q1927.47 213.284 1929.09 212.266 Q1930.71 211.224 1930.71 209.349 Q1930.71 207.613 1929.53 206.687 Q1928.37 205.761 1924.41 204.904 L1922.93 204.557 Q1918.97 203.724 1917.21 202.011 Q1915.45 200.275 1915.45 197.266 Q1915.45 193.608 1918.04 191.618 Q1920.64 189.627 1925.4 189.627 Q1927.77 189.627 1929.85 189.974 Q1931.93 190.321 1933.69 191.016 Z" fill="#000000" fill-rule="nonzero" fill-opacity="1"></path><path clip-path="url(#clip520)" d="M1941.42 205.946 L1941.42 190.252 L1945.68 190.252 L1945.68 205.784 Q1945.68 209.465 1947.12 211.316 Q1948.55 213.145 1951.42 213.145 Q1954.87 213.145 1956.86 210.946 Q1958.88 208.747 1958.88 204.951 L1958.88 190.252 L1963.14 190.252 L1963.14 216.178 L1958.88 216.178 L1958.88 212.196 Q1957.33 214.557 1955.27 215.715 Q1953.23 216.849 1950.52 216.849 Q1946.05 216.849 1943.74 214.071 Q1941.42 211.293 1941.42 205.946 M1952.14 189.627 L1952.14 189.627 Z" fill="#000000" fill-rule="nonzero" fill-opacity="1"></path><path clip-path="url(#clip520)" d="M1986.93 194.233 Q1986.21 193.817 1985.36 193.631 Q1984.53 193.423 1983.51 193.423 Q1979.9 193.423 1977.95 195.784 Q1976.03 198.122 1976.03 202.52 L1976.03 216.178 L1971.75 216.178 L1971.75 190.252 L1976.03 190.252 L1976.03 194.28 Q1977.37 191.918 1979.53 190.784 Q1981.68 189.627 1984.76 189.627 Q1985.2 189.627 1985.73 189.696 Q1986.26 189.743 1986.91 189.858 L1986.93 194.233 Z" fill="#000000" fill-rule="nonzero" fill-opacity="1"></path><path clip-path="url(#clip520)" d="M2004.52 180.159 L2004.52 183.701 L2000.45 183.701 Q1998.16 183.701 1997.26 184.627 Q1996.38 185.553 1996.38 187.96 L1996.38 190.252 L2003.39 190.252 L2003.39 193.562 L1996.38 193.562 L1996.38 216.178 L1992.09 216.178 L1992.09 193.562 L1988.02 193.562 L1988.02 190.252 L1992.09 190.252 L1992.09 188.446 Q1992.09 184.118 1994.11 182.15 Q1996.12 180.159 2000.5 180.159 L2004.52 180.159 Z" fill="#000000" fill-rule="nonzero" fill-opacity="1"></path><path clip-path="url(#clip520)" d="M2019.87 203.145 Q2014.71 203.145 2012.72 204.326 Q2010.73 205.506 2010.73 208.354 Q2010.73 210.622 2012.21 211.965 Q2013.71 213.284 2016.28 213.284 Q2019.83 213.284 2021.96 210.784 Q2024.11 208.261 2024.11 204.094 L2024.11 203.145 L2019.87 203.145 M2028.37 201.386 L2028.37 216.178 L2024.11 216.178 L2024.11 212.242 Q2022.65 214.603 2020.47 215.738 Q2018.3 216.849 2015.15 216.849 Q2011.17 216.849 2008.81 214.627 Q2006.47 212.381 2006.47 208.631 Q2006.47 204.256 2009.39 202.034 Q2012.33 199.812 2018.14 199.812 L2024.11 199.812 L2024.11 199.395 Q2024.11 196.455 2022.16 194.858 Q2020.24 193.238 2016.75 193.238 Q2014.52 193.238 2012.42 193.77 Q2010.31 194.303 2008.37 195.367 L2008.37 191.432 Q2010.71 190.53 2012.9 190.09 Q2015.1 189.627 2017.19 189.627 Q2022.81 189.627 2025.59 192.543 Q2028.37 195.46 2028.37 201.386 Z" fill="#000000" fill-rule="nonzero" fill-opacity="1"></path><path clip-path="url(#clip520)" d="M2055.8 191.247 L2055.8 195.229 Q2053.99 194.233 2052.16 193.747 Q2050.36 193.238 2048.51 193.238 Q2044.36 193.238 2042.07 195.877 Q2039.78 198.492 2039.78 203.238 Q2039.78 207.983 2042.07 210.622 Q2044.36 213.238 2048.51 213.238 Q2050.36 213.238 2052.16 212.752 Q2053.99 212.242 2055.8 211.247 L2055.8 215.182 Q2054.02 216.016 2052.09 216.432 Q2050.2 216.849 2048.04 216.849 Q2042.19 216.849 2038.74 213.168 Q2035.29 209.488 2035.29 203.238 Q2035.29 196.895 2038.76 193.261 Q2042.26 189.627 2048.32 189.627 Q2050.29 189.627 2052.16 190.043 Q2054.04 190.437 2055.8 191.247 Z" fill="#000000" fill-rule="nonzero" fill-opacity="1"></path><path clip-path="url(#clip520)" d="M2085.38 202.15 L2085.38 204.233 L2065.8 204.233 Q2066.08 208.631 2068.44 210.946 Q2070.82 213.238 2075.06 213.238 Q2077.51 213.238 2079.8 212.636 Q2082.12 212.034 2084.39 210.83 L2084.39 214.858 Q2082.09 215.83 2079.69 216.34 Q2077.28 216.849 2074.8 216.849 Q2068.6 216.849 2064.96 213.238 Q2061.35 209.627 2061.35 203.469 Q2061.35 197.104 2064.78 193.377 Q2068.23 189.627 2074.06 189.627 Q2079.29 189.627 2082.33 193.006 Q2085.38 196.363 2085.38 202.15 M2081.12 200.9 Q2081.08 197.405 2079.15 195.321 Q2077.26 193.238 2074.11 193.238 Q2070.54 193.238 2068.39 195.252 Q2066.26 197.266 2065.94 200.923 L2081.12 200.9 Z" fill="#000000" fill-rule="nonzero" fill-opacity="1"></path><path clip-path="url(#clip520)" d="M2123.97 191.016 L2123.97 195.043 Q2122.16 194.117 2120.22 193.655 Q2118.27 193.192 2116.19 193.192 Q2113.02 193.192 2111.42 194.164 Q2109.85 195.136 2109.85 197.08 Q2109.85 198.562 2110.98 199.418 Q2112.12 200.252 2115.54 201.016 L2117 201.34 Q2121.54 202.312 2123.44 204.094 Q2125.36 205.854 2125.36 209.025 Q2125.36 212.636 2122.49 214.742 Q2119.64 216.849 2114.64 216.849 Q2112.56 216.849 2110.29 216.432 Q2108.04 216.039 2105.54 215.228 L2105.54 210.83 Q2107.9 212.057 2110.2 212.682 Q2112.49 213.284 2114.73 213.284 Q2117.74 213.284 2119.36 212.266 Q2120.98 211.224 2120.98 209.349 Q2120.98 207.613 2119.8 206.687 Q2118.64 205.761 2114.69 204.904 L2113.2 204.557 Q2109.25 203.724 2107.49 202.011 Q2105.73 200.275 2105.73 197.266 Q2105.73 193.608 2108.32 191.618 Q2110.91 189.627 2115.68 189.627 Q2118.04 189.627 2120.13 189.974 Q2122.21 190.321 2123.97 191.016 Z" fill="#000000" fill-rule="nonzero" fill-opacity="1"></path><path clip-path="url(#clip520)" d="M2142.19 193.238 Q2138.76 193.238 2136.77 195.923 Q2134.78 198.585 2134.78 203.238 Q2134.78 207.891 2136.75 210.576 Q2138.74 213.238 2142.19 213.238 Q2145.59 213.238 2147.58 210.553 Q2149.57 207.867 2149.57 203.238 Q2149.57 198.631 2147.58 195.946 Q2145.59 193.238 2142.19 193.238 M2142.19 189.627 Q2147.74 189.627 2150.91 193.238 Q2154.08 196.849 2154.08 203.238 Q2154.08 209.604 2150.91 213.238 Q2147.74 216.849 2142.19 216.849 Q2136.61 216.849 2133.44 213.238 Q2130.29 209.604 2130.29 203.238 Q2130.29 196.849 2133.44 193.238 Q2136.61 189.627 2142.19 189.627 Z" fill="#000000" fill-rule="nonzero" fill-opacity="1"></path><path clip-path="url(#clip520)" d="M2161.14 180.159 L2165.4 180.159 L2165.4 216.178 L2161.14 216.178 L2161.14 180.159 Z" fill="#000000" fill-rule="nonzero" fill-opacity="1"></path><path clip-path="url(#clip520)" d="M2171.26 190.252 L2175.77 190.252 L2183.88 212.011 L2191.98 190.252 L2196.49 190.252 L2186.77 216.178 L2180.98 216.178 L2171.26 190.252 Z" fill="#000000" fill-rule="nonzero" fill-opacity="1"></path><path clip-path="url(#clip520)" d="M2224.55 202.15 L2224.55 204.233 L2204.96 204.233 Q2205.24 208.631 2207.6 210.946 Q2209.99 213.238 2214.22 213.238 Q2216.68 213.238 2218.97 212.636 Q2221.28 212.034 2223.55 210.83 L2223.55 214.858 Q2221.26 215.83 2218.85 216.34 Q2216.45 216.849 2213.97 216.849 Q2207.76 216.849 2204.13 213.238 Q2200.52 209.627 2200.52 203.469 Q2200.52 197.104 2203.95 193.377 Q2207.39 189.627 2213.23 189.627 Q2218.46 189.627 2221.49 193.006 Q2224.55 196.363 2224.55 202.15 M2220.29 200.9 Q2220.24 197.405 2218.32 195.321 Q2216.42 193.238 2213.27 193.238 Q2209.71 193.238 2207.56 195.252 Q2205.43 197.266 2205.1 200.923 L2220.29 200.9 Z" fill="#000000" fill-rule="nonzero" fill-opacity="1"></path><path clip-path="url(#clip520)" d="M2246.56 194.233 Q2245.84 193.817 2244.99 193.631 Q2244.15 193.423 2243.13 193.423 Q2239.52 193.423 2237.58 195.784 Q2235.66 198.122 2235.66 202.52 L2235.66 216.178 L2231.38 216.178 L2231.38 190.252 L2235.66 190.252 L2235.66 194.28 Q2237 191.918 2239.15 190.784 Q2241.31 189.627 2244.38 189.627 Q2244.82 189.627 2245.36 189.696 Q2245.89 189.743 2246.54 189.858 L2246.56 194.233 Z" fill="#000000" fill-rule="nonzero" fill-opacity="1"></path><polyline clip-path="url(#clip520)" style="stroke:#ff0000; stroke-linecap:round; stroke-linejoin:round; stroke-width:4; stroke-opacity:1; fill:none" points="1752.92,250.738 1892.07,250.738 "></polyline>
<path clip-path="url(#clip520)" d="M1933.69 242.856 L1933.69 246.883 Q1931.89 245.957 1929.94 245.495 Q1928 245.032 1925.91 245.032 Q1922.74 245.032 1921.15 246.004 Q1919.57 246.976 1919.57 248.92 Q1919.57 250.402 1920.71 251.258 Q1921.84 252.092 1925.27 252.856 L1926.72 253.18 Q1931.26 254.152 1933.16 255.934 Q1935.08 257.694 1935.08 260.865 Q1935.08 264.476 1932.21 266.582 Q1929.36 268.689 1924.36 268.689 Q1922.28 268.689 1920.01 268.272 Q1917.77 267.879 1915.27 267.068 L1915.27 262.67 Q1917.63 263.897 1919.92 264.522 Q1922.21 265.124 1924.46 265.124 Q1927.47 265.124 1929.09 264.106 Q1930.71 263.064 1930.71 261.189 Q1930.71 259.453 1929.53 258.527 Q1928.37 257.601 1924.41 256.744 L1922.93 256.397 Q1918.97 255.564 1917.21 253.851 Q1915.45 252.115 1915.45 249.106 Q1915.45 245.448 1918.04 243.458 Q1920.64 241.467 1925.4 241.467 Q1927.77 241.467 1929.85 241.814 Q1931.93 242.161 1933.69 242.856 Z" fill="#000000" fill-rule="nonzero" fill-opacity="1"></path><path clip-path="url(#clip520)" d="M1941.42 257.786 L1941.42 242.092 L1945.68 242.092 L1945.68 257.624 Q1945.68 261.305 1947.12 263.156 Q1948.55 264.985 1951.42 264.985 Q1954.87 264.985 1956.86 262.786 Q1958.88 260.587 1958.88 256.791 L1958.88 242.092 L1963.14 242.092 L1963.14 268.018 L1958.88 268.018 L1958.88 264.036 Q1957.33 266.397 1955.27 267.555 Q1953.23 268.689 1950.52 268.689 Q1946.05 268.689 1943.74 265.911 Q1941.42 263.133 1941.42 257.786 M1952.14 241.467 L1952.14 241.467 Z" fill="#000000" fill-rule="nonzero" fill-opacity="1"></path><path clip-path="url(#clip520)" d="M1986.93 246.073 Q1986.21 245.657 1985.36 245.471 Q1984.53 245.263 1983.51 245.263 Q1979.9 245.263 1977.95 247.624 Q1976.03 249.962 1976.03 254.36 L1976.03 268.018 L1971.75 268.018 L1971.75 242.092 L1976.03 242.092 L1976.03 246.12 Q1977.37 243.758 1979.53 242.624 Q1981.68 241.467 1984.76 241.467 Q1985.2 241.467 1985.73 241.536 Q1986.26 241.583 1986.91 241.698 L1986.93 246.073 Z" fill="#000000" fill-rule="nonzero" fill-opacity="1"></path><path clip-path="url(#clip520)" d="M2004.52 231.999 L2004.52 235.541 L2000.45 235.541 Q1998.16 235.541 1997.26 236.467 Q1996.38 237.393 1996.38 239.8 L1996.38 242.092 L2003.39 242.092 L2003.39 245.402 L1996.38 245.402 L1996.38 268.018 L1992.09 268.018 L1992.09 245.402 L1988.02 245.402 L1988.02 242.092 L1992.09 242.092 L1992.09 240.286 Q1992.09 235.958 1994.11 233.99 Q1996.12 231.999 2000.5 231.999 L2004.52 231.999 Z" fill="#000000" fill-rule="nonzero" fill-opacity="1"></path><path clip-path="url(#clip520)" d="M2019.87 254.985 Q2014.71 254.985 2012.72 256.166 Q2010.73 257.346 2010.73 260.194 Q2010.73 262.462 2012.21 263.805 Q2013.71 265.124 2016.28 265.124 Q2019.83 265.124 2021.96 262.624 Q2024.11 260.101 2024.11 255.934 L2024.11 254.985 L2019.87 254.985 M2028.37 253.226 L2028.37 268.018 L2024.11 268.018 L2024.11 264.082 Q2022.65 266.443 2020.47 267.578 Q2018.3 268.689 2015.15 268.689 Q2011.17 268.689 2008.81 266.467 Q2006.47 264.221 2006.47 260.471 Q2006.47 256.096 2009.39 253.874 Q2012.33 251.652 2018.14 251.652 L2024.11 251.652 L2024.11 251.235 Q2024.11 248.295 2022.16 246.698 Q2020.24 245.078 2016.75 245.078 Q2014.52 245.078 2012.42 245.61 Q2010.31 246.143 2008.37 247.207 L2008.37 243.272 Q2010.71 242.37 2012.9 241.93 Q2015.1 241.467 2017.19 241.467 Q2022.81 241.467 2025.59 244.383 Q2028.37 247.3 2028.37 253.226 Z" fill="#000000" fill-rule="nonzero" fill-opacity="1"></path><path clip-path="url(#clip520)" d="M2055.8 243.087 L2055.8 247.069 Q2053.99 246.073 2052.16 245.587 Q2050.36 245.078 2048.51 245.078 Q2044.36 245.078 2042.07 247.717 Q2039.78 250.332 2039.78 255.078 Q2039.78 259.823 2042.07 262.462 Q2044.36 265.078 2048.51 265.078 Q2050.36 265.078 2052.16 264.592 Q2053.99 264.082 2055.8 263.087 L2055.8 267.022 Q2054.02 267.856 2052.09 268.272 Q2050.2 268.689 2048.04 268.689 Q2042.19 268.689 2038.74 265.008 Q2035.29 261.328 2035.29 255.078 Q2035.29 248.735 2038.76 245.101 Q2042.26 241.467 2048.32 241.467 Q2050.29 241.467 2052.16 241.883 Q2054.04 242.277 2055.8 243.087 Z" fill="#000000" fill-rule="nonzero" fill-opacity="1"></path><path clip-path="url(#clip520)" d="M2085.38 253.99 L2085.38 256.073 L2065.8 256.073 Q2066.08 260.471 2068.44 262.786 Q2070.82 265.078 2075.06 265.078 Q2077.51 265.078 2079.8 264.476 Q2082.12 263.874 2084.39 262.67 L2084.39 266.698 Q2082.09 267.67 2079.69 268.18 Q2077.28 268.689 2074.8 268.689 Q2068.6 268.689 2064.96 265.078 Q2061.35 261.467 2061.35 255.309 Q2061.35 248.944 2064.78 245.217 Q2068.23 241.467 2074.06 241.467 Q2079.29 241.467 2082.33 244.846 Q2085.38 248.203 2085.38 253.99 M2081.12 252.74 Q2081.08 249.245 2079.15 247.161 Q2077.26 245.078 2074.11 245.078 Q2070.54 245.078 2068.39 247.092 Q2066.26 249.106 2065.94 252.763 L2081.12 252.74 Z" fill="#000000" fill-rule="nonzero" fill-opacity="1"></path><path clip-path="url(#clip520)" d="M2122.46 246.073 Q2121.75 245.657 2120.89 245.471 Q2120.06 245.263 2119.04 245.263 Q2115.43 245.263 2113.48 247.624 Q2111.56 249.962 2111.56 254.36 L2111.56 268.018 L2107.28 268.018 L2107.28 242.092 L2111.56 242.092 L2111.56 246.12 Q2112.9 243.758 2115.06 242.624 Q2117.21 241.467 2120.29 241.467 Q2120.73 241.467 2121.26 241.536 Q2121.79 241.583 2122.44 241.698 L2122.46 246.073 Z" fill="#000000" fill-rule="nonzero" fill-opacity="1"></path><path clip-path="url(#clip520)" d="M2138.71 254.985 Q2133.55 254.985 2131.56 256.166 Q2129.57 257.346 2129.57 260.194 Q2129.57 262.462 2131.05 263.805 Q2132.56 265.124 2135.13 265.124 Q2138.67 265.124 2140.8 262.624 Q2142.95 260.101 2142.95 255.934 L2142.95 254.985 L2138.71 254.985 M2147.21 253.226 L2147.21 268.018 L2142.95 268.018 L2142.95 264.082 Q2141.49 266.443 2139.32 267.578 Q2137.14 268.689 2133.99 268.689 Q2130.01 268.689 2127.65 266.467 Q2125.31 264.221 2125.31 260.471 Q2125.31 256.096 2128.23 253.874 Q2131.17 251.652 2136.98 251.652 L2142.95 251.652 L2142.95 251.235 Q2142.95 248.295 2141.01 246.698 Q2139.08 245.078 2135.59 245.078 Q2133.37 245.078 2131.26 245.61 Q2129.15 246.143 2127.21 247.207 L2127.21 243.272 Q2129.55 242.37 2131.75 241.93 Q2133.95 241.467 2136.03 241.467 Q2141.65 241.467 2144.43 244.383 Q2147.21 247.3 2147.21 253.226 Z" fill="#000000" fill-rule="nonzero" fill-opacity="1"></path><path clip-path="url(#clip520)" d="M2153.51 242.092 L2157.76 242.092 L2163.09 262.323 L2168.39 242.092 L2173.41 242.092 L2178.74 262.323 L2184.04 242.092 L2188.3 242.092 L2181.51 268.018 L2176.49 268.018 L2170.91 246.768 L2165.31 268.018 L2160.29 268.018 L2153.51 242.092 Z" fill="#000000" fill-rule="nonzero" fill-opacity="1"></path><polyline clip-path="url(#clip520)" style="stroke:#008000; stroke-linecap:round; stroke-linejoin:round; stroke-width:4; stroke-opacity:1; fill:none" points="1752.92,302.578 1892.07,302.578 "></polyline>
<path clip-path="url(#clip520)" d="M1933.69 294.696 L1933.69 298.723 Q1931.89 297.797 1929.94 297.335 Q1928 296.872 1925.91 296.872 Q1922.74 296.872 1921.15 297.844 Q1919.57 298.816 1919.57 300.76 Q1919.57 302.242 1920.71 303.098 Q1921.84 303.932 1925.27 304.696 L1926.72 305.02 Q1931.26 305.992 1933.16 307.774 Q1935.08 309.534 1935.08 312.705 Q1935.08 316.316 1932.21 318.422 Q1929.36 320.529 1924.36 320.529 Q1922.28 320.529 1920.01 320.112 Q1917.77 319.719 1915.27 318.908 L1915.27 314.51 Q1917.63 315.737 1919.92 316.362 Q1922.21 316.964 1924.46 316.964 Q1927.47 316.964 1929.09 315.946 Q1930.71 314.904 1930.71 313.029 Q1930.71 311.293 1929.53 310.367 Q1928.37 309.441 1924.41 308.584 L1922.93 308.237 Q1918.97 307.404 1917.21 305.691 Q1915.45 303.955 1915.45 300.946 Q1915.45 297.288 1918.04 295.298 Q1920.64 293.307 1925.4 293.307 Q1927.77 293.307 1929.85 293.654 Q1931.93 294.001 1933.69 294.696 Z" fill="#000000" fill-rule="nonzero" fill-opacity="1"></path><path clip-path="url(#clip520)" d="M1941.42 309.626 L1941.42 293.932 L1945.68 293.932 L1945.68 309.464 Q1945.68 313.145 1947.12 314.996 Q1948.55 316.825 1951.42 316.825 Q1954.87 316.825 1956.86 314.626 Q1958.88 312.427 1958.88 308.631 L1958.88 293.932 L1963.14 293.932 L1963.14 319.858 L1958.88 319.858 L1958.88 315.876 Q1957.33 318.237 1955.27 319.395 Q1953.23 320.529 1950.52 320.529 Q1946.05 320.529 1943.74 317.751 Q1941.42 314.973 1941.42 309.626 M1952.14 293.307 L1952.14 293.307 Z" fill="#000000" fill-rule="nonzero" fill-opacity="1"></path><path clip-path="url(#clip520)" d="M1986.93 297.913 Q1986.21 297.497 1985.36 297.311 Q1984.53 297.103 1983.51 297.103 Q1979.9 297.103 1977.95 299.464 Q1976.03 301.802 1976.03 306.2 L1976.03 319.858 L1971.75 319.858 L1971.75 293.932 L1976.03 293.932 L1976.03 297.96 Q1977.37 295.598 1979.53 294.464 Q1981.68 293.307 1984.76 293.307 Q1985.2 293.307 1985.73 293.376 Q1986.26 293.423 1986.91 293.538 L1986.93 297.913 Z" fill="#000000" fill-rule="nonzero" fill-opacity="1"></path><path clip-path="url(#clip520)" d="M2004.52 283.839 L2004.52 287.381 L2000.45 287.381 Q1998.16 287.381 1997.26 288.307 Q1996.38 289.233 1996.38 291.64 L1996.38 293.932 L2003.39 293.932 L2003.39 297.242 L1996.38 297.242 L1996.38 319.858 L1992.09 319.858 L1992.09 297.242 L1988.02 297.242 L1988.02 293.932 L1992.09 293.932 L1992.09 292.126 Q1992.09 287.798 1994.11 285.83 Q1996.12 283.839 2000.5 283.839 L2004.52 283.839 Z" fill="#000000" fill-rule="nonzero" fill-opacity="1"></path><path clip-path="url(#clip520)" d="M2019.87 306.825 Q2014.71 306.825 2012.72 308.006 Q2010.73 309.186 2010.73 312.034 Q2010.73 314.302 2012.21 315.645 Q2013.71 316.964 2016.28 316.964 Q2019.83 316.964 2021.96 314.464 Q2024.11 311.941 2024.11 307.774 L2024.11 306.825 L2019.87 306.825 M2028.37 305.066 L2028.37 319.858 L2024.11 319.858 L2024.11 315.922 Q2022.65 318.283 2020.47 319.418 Q2018.3 320.529 2015.15 320.529 Q2011.17 320.529 2008.81 318.307 Q2006.47 316.061 2006.47 312.311 Q2006.47 307.936 2009.39 305.714 Q2012.33 303.492 2018.14 303.492 L2024.11 303.492 L2024.11 303.075 Q2024.11 300.135 2022.16 298.538 Q2020.24 296.918 2016.75 296.918 Q2014.52 296.918 2012.42 297.45 Q2010.31 297.983 2008.37 299.047 L2008.37 295.112 Q2010.71 294.21 2012.9 293.77 Q2015.1 293.307 2017.19 293.307 Q2022.81 293.307 2025.59 296.223 Q2028.37 299.14 2028.37 305.066 Z" fill="#000000" fill-rule="nonzero" fill-opacity="1"></path><path clip-path="url(#clip520)" d="M2055.8 294.927 L2055.8 298.909 Q2053.99 297.913 2052.16 297.427 Q2050.36 296.918 2048.51 296.918 Q2044.36 296.918 2042.07 299.557 Q2039.78 302.172 2039.78 306.918 Q2039.78 311.663 2042.07 314.302 Q2044.36 316.918 2048.51 316.918 Q2050.36 316.918 2052.16 316.432 Q2053.99 315.922 2055.8 314.927 L2055.8 318.862 Q2054.02 319.696 2052.09 320.112 Q2050.2 320.529 2048.04 320.529 Q2042.19 320.529 2038.74 316.848 Q2035.29 313.168 2035.29 306.918 Q2035.29 300.575 2038.76 296.941 Q2042.26 293.307 2048.32 293.307 Q2050.29 293.307 2052.16 293.723 Q2054.04 294.117 2055.8 294.927 Z" fill="#000000" fill-rule="nonzero" fill-opacity="1"></path><path clip-path="url(#clip520)" d="M2085.38 305.83 L2085.38 307.913 L2065.8 307.913 Q2066.08 312.311 2068.44 314.626 Q2070.82 316.918 2075.06 316.918 Q2077.51 316.918 2079.8 316.316 Q2082.12 315.714 2084.39 314.51 L2084.39 318.538 Q2082.09 319.51 2079.69 320.02 Q2077.28 320.529 2074.8 320.529 Q2068.6 320.529 2064.96 316.918 Q2061.35 313.307 2061.35 307.149 Q2061.35 300.784 2064.78 297.057 Q2068.23 293.307 2074.06 293.307 Q2079.29 293.307 2082.33 296.686 Q2085.38 300.043 2085.38 305.83 M2081.12 304.58 Q2081.08 301.085 2079.15 299.001 Q2077.26 296.918 2074.11 296.918 Q2070.54 296.918 2068.39 298.932 Q2066.26 300.946 2065.94 304.603 L2081.12 304.58 Z" fill="#000000" fill-rule="nonzero" fill-opacity="1"></path><path clip-path="url(#clip520)" d="M2107.44 293.932 L2111.7 293.932 L2111.7 319.858 L2107.44 319.858 L2107.44 293.932 M2107.44 283.839 L2111.7 283.839 L2111.7 289.233 L2107.44 289.233 L2107.44 283.839 Z" fill="#000000" fill-rule="nonzero" fill-opacity="1"></path><path clip-path="url(#clip520)" d="M2142.16 304.209 L2142.16 319.858 L2137.9 319.858 L2137.9 304.348 Q2137.9 300.668 2136.47 298.839 Q2135.03 297.01 2132.16 297.01 Q2128.71 297.01 2126.72 299.21 Q2124.73 301.409 2124.73 305.205 L2124.73 319.858 L2120.45 319.858 L2120.45 293.932 L2124.73 293.932 L2124.73 297.96 Q2126.26 295.622 2128.32 294.464 Q2130.4 293.307 2133.11 293.307 Q2137.58 293.307 2139.87 296.085 Q2142.16 298.839 2142.16 304.209 Z" fill="#000000" fill-rule="nonzero" fill-opacity="1"></path><path clip-path="url(#clip520)" d="M2150.66 293.932 L2154.92 293.932 L2154.92 319.858 L2150.66 319.858 L2150.66 293.932 M2150.66 283.839 L2154.92 283.839 L2154.92 289.233 L2150.66 289.233 L2150.66 283.839 Z" fill="#000000" fill-rule="nonzero" fill-opacity="1"></path><path clip-path="url(#clip520)" d="M2168.04 286.571 L2168.04 293.932 L2176.82 293.932 L2176.82 297.242 L2168.04 297.242 L2168.04 311.316 Q2168.04 314.487 2168.9 315.39 Q2169.78 316.293 2172.44 316.293 L2176.82 316.293 L2176.82 319.858 L2172.44 319.858 Q2167.51 319.858 2165.64 318.029 Q2163.76 316.177 2163.76 311.316 L2163.76 297.242 L2160.64 297.242 L2160.64 293.932 L2163.76 293.932 L2163.76 286.571 L2168.04 286.571 Z" fill="#000000" fill-rule="nonzero" fill-opacity="1"></path><path clip-path="url(#clip520)" d="M2182.42 293.932 L2186.68 293.932 L2186.68 319.858 L2182.42 319.858 L2182.42 293.932 M2182.42 283.839 L2186.68 283.839 L2186.68 289.233 L2182.42 289.233 L2182.42 283.839 Z" fill="#000000" fill-rule="nonzero" fill-opacity="1"></path><path clip-path="url(#clip520)" d="M2207.37 306.825 Q2202.21 306.825 2200.22 308.006 Q2198.23 309.186 2198.23 312.034 Q2198.23 314.302 2199.71 315.645 Q2201.21 316.964 2203.78 316.964 Q2207.32 316.964 2209.45 314.464 Q2211.61 311.941 2211.61 307.774 L2211.61 306.825 L2207.37 306.825 M2215.87 305.066 L2215.87 319.858 L2211.61 319.858 L2211.61 315.922 Q2210.15 318.283 2207.97 319.418 Q2205.8 320.529 2202.65 320.529 Q2198.67 320.529 2196.31 318.307 Q2193.97 316.061 2193.97 312.311 Q2193.97 307.936 2196.89 305.714 Q2199.82 303.492 2205.63 303.492 L2211.61 303.492 L2211.61 303.075 Q2211.61 300.135 2209.66 298.538 Q2207.74 296.918 2204.25 296.918 Q2202.02 296.918 2199.92 297.45 Q2197.81 297.983 2195.87 299.047 L2195.87 295.112 Q2198.2 294.21 2200.4 293.77 Q2202.6 293.307 2204.69 293.307 Q2210.31 293.307 2213.09 296.223 Q2215.87 299.14 2215.87 305.066 Z" fill="#000000" fill-rule="nonzero" fill-opacity="1"></path><path clip-path="url(#clip520)" d="M2224.64 283.839 L2228.9 283.839 L2228.9 319.858 L2224.64 319.858 L2224.64 283.839 Z" fill="#000000" fill-rule="nonzero" fill-opacity="1"></path><path clip-path="url(#clip520)" d="M2259.99 305.83 L2259.99 307.913 L2240.4 307.913 Q2240.68 312.311 2243.04 314.626 Q2245.43 316.918 2249.66 316.918 Q2252.12 316.918 2254.41 316.316 Q2256.72 315.714 2258.99 314.51 L2258.99 318.538 Q2256.7 319.51 2254.29 320.02 Q2251.88 320.529 2249.41 320.529 Q2243.2 320.529 2239.57 316.918 Q2235.96 313.307 2235.96 307.149 Q2235.96 300.784 2239.38 297.057 Q2242.83 293.307 2248.67 293.307 Q2253.9 293.307 2256.93 296.686 Q2259.99 300.043 2259.99 305.83 M2255.73 304.58 Q2255.68 301.085 2253.76 299.001 Q2251.86 296.918 2248.71 296.918 Q2245.15 296.918 2243 298.932 Q2240.87 300.946 2240.54 304.603 L2255.73 304.58 Z" fill="#000000" fill-rule="nonzero" fill-opacity="1"></path><polyline clip-path="url(#clip520)" style="stroke:#000000; stroke-linecap:round; stroke-linejoin:round; stroke-width:4; stroke-opacity:1; fill:none" stroke-dasharray="16, 10" points="1752.92,354.418 1892.07,354.418 "></polyline>
<path clip-path="url(#clip520)" d="M1933.69 346.536 L1933.69 350.563 Q1931.89 349.637 1929.94 349.175 Q1928 348.712 1925.91 348.712 Q1922.74 348.712 1921.15 349.684 Q1919.57 350.656 1919.57 352.6 Q1919.57 354.082 1920.71 354.938 Q1921.84 355.772 1925.27 356.536 L1926.72 356.86 Q1931.26 357.832 1933.16 359.614 Q1935.08 361.374 1935.08 364.545 Q1935.08 368.156 1932.21 370.262 Q1929.36 372.369 1924.36 372.369 Q1922.28 372.369 1920.01 371.952 Q1917.77 371.559 1915.27 370.748 L1915.27 366.35 Q1917.63 367.577 1919.92 368.202 Q1922.21 368.804 1924.46 368.804 Q1927.47 368.804 1929.09 367.786 Q1930.71 366.744 1930.71 364.869 Q1930.71 363.133 1929.53 362.207 Q1928.37 361.281 1924.41 360.424 L1922.93 360.077 Q1918.97 359.244 1917.21 357.531 Q1915.45 355.795 1915.45 352.786 Q1915.45 349.128 1918.04 347.138 Q1920.64 345.147 1925.4 345.147 Q1927.77 345.147 1929.85 345.494 Q1931.93 345.841 1933.69 346.536 Z" fill="#000000" fill-rule="nonzero" fill-opacity="1"></path><path clip-path="url(#clip520)" d="M1941.42 361.466 L1941.42 345.772 L1945.68 345.772 L1945.68 361.304 Q1945.68 364.985 1947.12 366.836 Q1948.55 368.665 1951.42 368.665 Q1954.87 368.665 1956.86 366.466 Q1958.88 364.267 1958.88 360.471 L1958.88 345.772 L1963.14 345.772 L1963.14 371.698 L1958.88 371.698 L1958.88 367.716 Q1957.33 370.077 1955.27 371.235 Q1953.23 372.369 1950.52 372.369 Q1946.05 372.369 1943.74 369.591 Q1941.42 366.813 1941.42 361.466 M1952.14 345.147 L1952.14 345.147 Z" fill="#000000" fill-rule="nonzero" fill-opacity="1"></path><path clip-path="url(#clip520)" d="M1986.93 349.753 Q1986.21 349.337 1985.36 349.151 Q1984.53 348.943 1983.51 348.943 Q1979.9 348.943 1977.95 351.304 Q1976.03 353.642 1976.03 358.04 L1976.03 371.698 L1971.75 371.698 L1971.75 345.772 L1976.03 345.772 L1976.03 349.8 Q1977.37 347.438 1979.53 346.304 Q1981.68 345.147 1984.76 345.147 Q1985.2 345.147 1985.73 345.216 Q1986.26 345.263 1986.91 345.378 L1986.93 349.753 Z" fill="#000000" fill-rule="nonzero" fill-opacity="1"></path><path clip-path="url(#clip520)" d="M2004.52 335.679 L2004.52 339.221 L2000.45 339.221 Q1998.16 339.221 1997.26 340.147 Q1996.38 341.073 1996.38 343.48 L1996.38 345.772 L2003.39 345.772 L2003.39 349.082 L1996.38 349.082 L1996.38 371.698 L1992.09 371.698 L1992.09 349.082 L1988.02 349.082 L1988.02 345.772 L1992.09 345.772 L1992.09 343.966 Q1992.09 339.638 1994.11 337.67 Q1996.12 335.679 2000.5 335.679 L2004.52 335.679 Z" fill="#000000" fill-rule="nonzero" fill-opacity="1"></path><path clip-path="url(#clip520)" d="M2019.87 358.665 Q2014.71 358.665 2012.72 359.846 Q2010.73 361.026 2010.73 363.874 Q2010.73 366.142 2012.21 367.485 Q2013.71 368.804 2016.28 368.804 Q2019.83 368.804 2021.96 366.304 Q2024.11 363.781 2024.11 359.614 L2024.11 358.665 L2019.87 358.665 M2028.37 356.906 L2028.37 371.698 L2024.11 371.698 L2024.11 367.762 Q2022.65 370.123 2020.47 371.258 Q2018.3 372.369 2015.15 372.369 Q2011.17 372.369 2008.81 370.147 Q2006.47 367.901 2006.47 364.151 Q2006.47 359.776 2009.39 357.554 Q2012.33 355.332 2018.14 355.332 L2024.11 355.332 L2024.11 354.915 Q2024.11 351.975 2022.16 350.378 Q2020.24 348.758 2016.75 348.758 Q2014.52 348.758 2012.42 349.29 Q2010.31 349.823 2008.37 350.887 L2008.37 346.952 Q2010.71 346.05 2012.9 345.61 Q2015.1 345.147 2017.19 345.147 Q2022.81 345.147 2025.59 348.063 Q2028.37 350.98 2028.37 356.906 Z" fill="#000000" fill-rule="nonzero" fill-opacity="1"></path><path clip-path="url(#clip520)" d="M2055.8 346.767 L2055.8 350.749 Q2053.99 349.753 2052.16 349.267 Q2050.36 348.758 2048.51 348.758 Q2044.36 348.758 2042.07 351.397 Q2039.78 354.012 2039.78 358.758 Q2039.78 363.503 2042.07 366.142 Q2044.36 368.758 2048.51 368.758 Q2050.36 368.758 2052.16 368.272 Q2053.99 367.762 2055.8 366.767 L2055.8 370.702 Q2054.02 371.536 2052.09 371.952 Q2050.2 372.369 2048.04 372.369 Q2042.19 372.369 2038.74 368.688 Q2035.29 365.008 2035.29 358.758 Q2035.29 352.415 2038.76 348.781 Q2042.26 345.147 2048.32 345.147 Q2050.29 345.147 2052.16 345.563 Q2054.04 345.957 2055.8 346.767 Z" fill="#000000" fill-rule="nonzero" fill-opacity="1"></path><path clip-path="url(#clip520)" d="M2085.38 357.67 L2085.38 359.753 L2065.8 359.753 Q2066.08 364.151 2068.44 366.466 Q2070.82 368.758 2075.06 368.758 Q2077.51 368.758 2079.8 368.156 Q2082.12 367.554 2084.39 366.35 L2084.39 370.378 Q2082.09 371.35 2079.69 371.86 Q2077.28 372.369 2074.8 372.369 Q2068.6 372.369 2064.96 368.758 Q2061.35 365.147 2061.35 358.989 Q2061.35 352.624 2064.78 348.897 Q2068.23 345.147 2074.06 345.147 Q2079.29 345.147 2082.33 348.526 Q2085.38 351.883 2085.38 357.67 M2081.12 356.42 Q2081.08 352.925 2079.15 350.841 Q2077.26 348.758 2074.11 348.758 Q2070.54 348.758 2068.39 350.772 Q2066.26 352.786 2065.94 356.443 L2081.12 356.42 Z" fill="#000000" fill-rule="nonzero" fill-opacity="1"></path><path clip-path="url(#clip520)" d="M2117.49 348.758 Q2114.06 348.758 2112.07 351.443 Q2110.08 354.105 2110.08 358.758 Q2110.08 363.411 2112.05 366.096 Q2114.04 368.758 2117.49 368.758 Q2120.89 368.758 2122.88 366.073 Q2124.87 363.387 2124.87 358.758 Q2124.87 354.151 2122.88 351.466 Q2120.89 348.758 2117.49 348.758 M2117.49 345.147 Q2123.04 345.147 2126.21 348.758 Q2129.39 352.369 2129.39 358.758 Q2129.39 365.124 2126.21 368.758 Q2123.04 372.369 2117.49 372.369 Q2111.91 372.369 2108.74 368.758 Q2105.59 365.124 2105.59 358.758 Q2105.59 352.369 2108.74 348.758 Q2111.91 345.147 2117.49 345.147 Z" fill="#000000" fill-rule="nonzero" fill-opacity="1"></path><path clip-path="url(#clip520)" d="M2153.51 358.434 Q2153.51 353.804 2151.58 351.258 Q2149.69 348.712 2146.24 348.712 Q2142.81 348.712 2140.89 351.258 Q2138.99 353.804 2138.99 358.434 Q2138.99 363.04 2140.89 365.586 Q2142.81 368.133 2146.24 368.133 Q2149.69 368.133 2151.58 365.586 Q2153.51 363.04 2153.51 358.434 M2157.76 368.48 Q2157.76 375.1 2154.83 378.318 Q2151.89 381.559 2145.82 381.559 Q2143.58 381.559 2141.58 381.211 Q2139.59 380.887 2137.72 380.193 L2137.72 376.049 Q2139.59 377.068 2141.42 377.554 Q2143.25 378.04 2145.15 378.04 Q2149.34 378.04 2151.42 375.841 Q2153.51 373.665 2153.51 369.244 L2153.51 367.137 Q2152.19 369.429 2150.13 370.563 Q2148.07 371.698 2145.2 371.698 Q2140.43 371.698 2137.51 368.063 Q2134.59 364.429 2134.59 358.434 Q2134.59 352.415 2137.51 348.781 Q2140.43 345.147 2145.2 345.147 Q2148.07 345.147 2150.13 346.281 Q2152.19 347.415 2153.51 349.707 L2153.51 345.772 L2157.76 345.772 L2157.76 368.48 Z" fill="#000000" fill-rule="nonzero" fill-opacity="1"></path><path clip-path="url(#clip520)" d="M2183.6 358.434 Q2183.6 353.804 2181.68 351.258 Q2179.78 348.712 2176.33 348.712 Q2172.9 348.712 2170.98 351.258 Q2169.08 353.804 2169.08 358.434 Q2169.08 363.04 2170.98 365.586 Q2172.9 368.133 2176.33 368.133 Q2179.78 368.133 2181.68 365.586 Q2183.6 363.04 2183.6 358.434 M2187.86 368.48 Q2187.86 375.1 2184.92 378.318 Q2181.98 381.559 2175.91 381.559 Q2173.67 381.559 2171.68 381.211 Q2169.69 380.887 2167.81 380.193 L2167.81 376.049 Q2169.69 377.068 2171.51 377.554 Q2173.34 378.04 2175.24 378.04 Q2179.43 378.04 2181.51 375.841 Q2183.6 373.665 2183.6 369.244 L2183.6 367.137 Q2182.28 369.429 2180.22 370.563 Q2178.16 371.698 2175.29 371.698 Q2170.52 371.698 2167.6 368.063 Q2164.69 364.429 2164.69 358.434 Q2164.69 352.415 2167.6 348.781 Q2170.52 345.147 2175.29 345.147 Q2178.16 345.147 2180.22 346.281 Q2182.28 347.415 2183.6 349.707 L2183.6 345.772 L2187.86 345.772 L2187.86 368.48 Z" fill="#000000" fill-rule="nonzero" fill-opacity="1"></path><path clip-path="url(#clip520)" d="M2216.82 350.749 Q2218.41 347.878 2220.63 346.513 Q2222.86 345.147 2225.87 345.147 Q2229.92 345.147 2232.12 347.994 Q2234.32 350.818 2234.32 356.049 L2234.32 371.698 L2230.03 371.698 L2230.03 356.188 Q2230.03 352.462 2228.71 350.656 Q2227.39 348.85 2224.69 348.85 Q2221.38 348.85 2219.45 351.05 Q2217.53 353.249 2217.53 357.045 L2217.53 371.698 L2213.25 371.698 L2213.25 356.188 Q2213.25 352.438 2211.93 350.656 Q2210.61 348.85 2207.86 348.85 Q2204.59 348.85 2202.67 351.073 Q2200.75 353.272 2200.75 357.045 L2200.75 371.698 L2196.47 371.698 L2196.47 345.772 L2200.75 345.772 L2200.75 349.8 Q2202.21 347.415 2204.25 346.281 Q2206.28 345.147 2209.08 345.147 Q2211.91 345.147 2213.88 346.582 Q2215.87 348.017 2216.82 350.749 Z" fill="#000000" fill-rule="nonzero" fill-opacity="1"></path></svg>