<svg xmlns="http://www.w3.org/2000/svg" xmlns:xlink="http://www.w3.org/1999/xlink" width="600" height="400" viewBox="0 0 2400 1600">
<defs>
  <clipPath id="clip320">
    <rect x="0" y="0" width="2400" height="1600"></rect>
  </clipPath>
</defs>
<path clip-path="url(#clip320)" d="M0 1600 L2400 1600 L2400 0 L0 0  Z" fill="#ffffff" fill-rule="evenodd" fill-opacity="1"></path>
<defs>
  <clipPath id="clip321">
    <rect x="480" y="0" width="1681" height="1600"></rect>
  </clipPath>
</defs>
<path clip-path="url(#clip320)" d="M265.445 1486.45 L2352.76 1486.45 L2352.76 47.2441 L265.445 47.2441  Z" fill="#ffffff" fill-rule="evenodd" fill-opacity="1"></path>
<defs>
  <clipPath id="clip322">
    <rect x="265" y="47" width="2088" height="1440"></rect>
  </clipPath>
</defs>
<polyline clip-path="url(#clip322)" style="stroke:#000000; stroke-linecap:round; stroke-linejoin:round; stroke-width:2; stroke-opacity:0.1; fill:none" points="297.909,1486.45 297.909,47.2441 "></polyline>
<polyline clip-path="url(#clip322)" style="stroke:#000000; stroke-linecap:round; stroke-linejoin:round; stroke-width:2; stroke-opacity:0.1; fill:none" points="830.115,1486.45 830.115,47.2441 "></polyline>
<polyline clip-path="url(#clip322)" style="stroke:#000000; stroke-linecap:round; stroke-linejoin:round; stroke-width:2; stroke-opacity:0.1; fill:none" points="1362.32,1486.45 1362.32,47.2441 "></polyline>
<polyline clip-path="url(#clip322)" style="stroke:#000000; stroke-linecap:round; stroke-linejoin:round; stroke-width:2; stroke-opacity:0.1; fill:none" points="1894.53,1486.45 1894.53,47.2441 "></polyline>
<polyline clip-path="url(#clip320)" style="stroke:#000000; stroke-linecap:round; stroke-linejoin:round; stroke-width:4; stroke-opacity:1; fill:none" points="265.445,1486.45 2352.76,1486.45 "></polyline>
<polyline clip-path="url(#clip320)" style="stroke:#000000; stroke-linecap:round; stroke-linejoin:round; stroke-width:4; stroke-opacity:1; fill:none" points="297.909,1486.45 297.909,1467.55 "></polyline>
<polyline clip-path="url(#clip320)" style="stroke:#000000; stroke-linecap:round; stroke-linejoin:round; stroke-width:4; stroke-opacity:1; fill:none" points="830.115,1486.45 830.115,1467.55 "></polyline>
<polyline clip-path="url(#clip320)" style="stroke:#000000; stroke-linecap:round; stroke-linejoin:round; stroke-width:4; stroke-opacity:1; fill:none" points="1362.32,1486.45 1362.32,1467.55 "></polyline>
<polyline clip-path="url(#clip320)" style="stroke:#000000; stroke-linecap:round; stroke-linejoin:round; stroke-width:4; stroke-opacity:1; fill:none" points="1894.53,1486.45 1894.53,1467.55 "></polyline>
<path clip-path="url(#clip320)" d="M297.909 1517.37 Q294.298 1517.37 292.469 1520.93 Q290.664 1524.47 290.664 1531.6 Q290.664 1538.71 292.469 1542.27 Q294.298 1545.82 297.909 1545.82 Q301.544 1545.82 303.349 1542.27 Q305.178 1538.71 305.178 1531.6 Q305.178 1524.47 303.349 1520.93 Q301.544 1517.37 297.909 1517.37 M297.909 1513.66 Q303.719 1513.66 306.775 1518.27 Q309.854 1522.85 309.854 1531.6 Q309.854 1540.33 306.775 1544.94 Q303.719 1549.52 297.909 1549.52 Q292.099 1549.52 289.02 1544.94 Q285.965 1540.33 285.965 1531.6 Q285.965 1522.85 289.02 1518.27 Q292.099 1513.66 297.909 1513.66 Z" fill="#000000" fill-rule="nonzero" fill-opacity="1"></path><path clip-path="url(#clip320)" d="M808.888 1544.91 L825.208 1544.91 L825.208 1548.85 L803.263 1548.85 L803.263 1544.91 Q805.925 1542.16 810.509 1537.53 Q815.115 1532.88 816.296 1531.53 Q818.541 1529.01 819.421 1527.27 Q820.323 1525.51 820.323 1523.82 Q820.323 1521.07 818.379 1519.33 Q816.458 1517.6 813.356 1517.6 Q811.157 1517.6 808.703 1518.36 Q806.273 1519.13 803.495 1520.68 L803.495 1515.95 Q806.319 1514.82 808.773 1514.24 Q811.226 1513.66 813.263 1513.66 Q818.634 1513.66 821.828 1516.35 Q825.023 1519.03 825.023 1523.52 Q825.023 1525.65 824.212 1527.57 Q823.425 1529.47 821.319 1532.07 Q820.74 1532.74 817.638 1535.95 Q814.536 1539.15 808.888 1544.91 Z" fill="#000000" fill-rule="nonzero" fill-opacity="1"></path><path clip-path="url(#clip320)" d="M845.022 1517.37 Q841.411 1517.37 839.583 1520.93 Q837.777 1524.47 837.777 1531.6 Q837.777 1538.71 839.583 1542.27 Q841.411 1545.82 845.022 1545.82 Q848.657 1545.82 850.462 1542.27 Q852.291 1538.71 852.291 1531.6 Q852.291 1524.47 850.462 1520.93 Q848.657 1517.37 845.022 1517.37 M845.022 1513.66 Q850.833 1513.66 853.888 1518.27 Q856.967 1522.85 856.967 1531.6 Q856.967 1540.33 853.888 1544.94 Q850.833 1549.52 845.022 1549.52 Q839.212 1549.52 836.134 1544.94 Q833.078 1540.33 833.078 1531.6 Q833.078 1522.85 836.134 1518.27 Q839.212 1513.66 845.022 1513.66 Z" fill="#000000" fill-rule="nonzero" fill-opacity="1"></path><path clip-path="url(#clip320)" d="M1350.49 1518.36 L1338.69 1536.81 L1350.49 1536.81 L1350.49 1518.36 M1349.27 1514.29 L1355.15 1514.29 L1355.15 1536.81 L1360.08 1536.81 L1360.08 1540.7 L1355.15 1540.7 L1355.15 1548.85 L1350.49 1548.85 L1350.49 1540.7 L1334.89 1540.7 L1334.89 1536.19 L1349.27 1514.29 Z" fill="#000000" fill-rule="nonzero" fill-opacity="1"></path><path clip-path="url(#clip320)" d="M1377.81 1517.37 Q1374.2 1517.37 1372.37 1520.93 Q1370.56 1524.47 1370.56 1531.6 Q1370.56 1538.71 1372.37 1542.27 Q1374.2 1545.82 1377.81 1545.82 Q1381.44 1545.82 1383.25 1542.27 Q1385.08 1538.71 1385.08 1531.6 Q1385.08 1524.47 1383.25 1520.93 Q1381.44 1517.37 1377.81 1517.37 M1377.81 1513.66 Q1383.62 1513.66 1386.67 1518.27 Q1389.75 1522.85 1389.75 1531.6 Q1389.75 1540.33 1386.67 1544.94 Q1383.62 1549.52 1377.81 1549.52 Q1372 1549.52 1368.92 1544.94 Q1365.86 1540.33 1365.86 1531.6 Q1365.86 1522.85 1368.92 1518.27 Q1372 1513.66 1377.81 1513.66 Z" fill="#000000" fill-rule="nonzero" fill-opacity="1"></path><path clip-path="url(#clip320)" d="M1879.93 1529.7 Q1876.78 1529.7 1874.93 1531.86 Q1873.1 1534.01 1873.1 1537.76 Q1873.1 1541.49 1874.93 1543.66 Q1876.78 1545.82 1879.93 1545.82 Q1883.08 1545.82 1884.91 1543.66 Q1886.76 1541.49 1886.76 1537.76 Q1886.76 1534.01 1884.91 1531.86 Q1883.08 1529.7 1879.93 1529.7 M1889.21 1515.05 L1889.21 1519.31 Q1887.45 1518.48 1885.65 1518.04 Q1883.87 1517.6 1882.11 1517.6 Q1877.48 1517.6 1875.02 1520.72 Q1872.59 1523.85 1872.25 1530.17 Q1873.61 1528.15 1875.67 1527.09 Q1877.73 1526 1880.21 1526 Q1885.42 1526 1888.43 1529.17 Q1891.46 1532.32 1891.46 1537.76 Q1891.46 1543.08 1888.31 1546.3 Q1885.16 1549.52 1879.93 1549.52 Q1873.94 1549.52 1870.77 1544.94 Q1867.59 1540.33 1867.59 1531.6 Q1867.59 1523.41 1871.48 1518.55 Q1875.37 1513.66 1881.92 1513.66 Q1883.68 1513.66 1885.46 1514.01 Q1887.27 1514.36 1889.21 1515.05 Z" fill="#000000" fill-rule="nonzero" fill-opacity="1"></path><path clip-path="url(#clip320)" d="M1909.52 1517.37 Q1905.9 1517.37 1904.08 1520.93 Q1902.27 1524.47 1902.27 1531.6 Q1902.27 1538.71 1904.08 1542.27 Q1905.9 1545.82 1909.52 1545.82 Q1913.15 1545.82 1914.95 1542.27 Q1916.78 1538.71 1916.78 1531.6 Q1916.78 1524.47 1914.95 1520.93 Q1913.15 1517.37 1909.52 1517.37 M1909.52 1513.66 Q1915.33 1513.66 1918.38 1518.27 Q1921.46 1522.85 1921.46 1531.6 Q1921.46 1540.33 1918.38 1544.94 Q1915.33 1549.52 1909.52 1549.52 Q1903.7 1549.52 1900.63 1544.94 Q1897.57 1540.33 1897.57 1531.6 Q1897.57 1522.85 1900.63 1518.27 Q1903.7 1513.66 1909.52 1513.66 Z" fill="#000000" fill-rule="nonzero" fill-opacity="1"></path><polyline clip-path="url(#clip322)" style="stroke:#000000; stroke-linecap:round; stroke-linejoin:round; stroke-width:2; stroke-opacity:0.1; fill:none" points="265.445,1451.85 2352.76,1451.85 "></polyline>
<polyline clip-path="url(#clip322)" style="stroke:#000000; stroke-linecap:round; stroke-linejoin:round; stroke-width:2; stroke-opacity:0.1; fill:none" points="265.445,1141.2 2352.76,1141.2 "></polyline>
<polyline clip-path="url(#clip322)" style="stroke:#000000; stroke-linecap:round; stroke-linejoin:round; stroke-width:2; stroke-opacity:0.1; fill:none" points="265.445,830.56 2352.76,830.56 "></polyline>
<polyline clip-path="url(#clip322)" style="stroke:#000000; stroke-linecap:round; stroke-linejoin:round; stroke-width:2; stroke-opacity:0.1; fill:none" points="265.445,519.917 2352.76,519.917 "></polyline>
<polyline clip-path="url(#clip322)" style="stroke:#000000; stroke-linecap:round; stroke-linejoin:round; stroke-width:2; stroke-opacity:0.1; fill:none" points="265.445,209.275 2352.76,209.275 "></polyline>
<polyline clip-path="url(#clip320)" style="stroke:#000000; stroke-linecap:round; stroke-linejoin:round; stroke-width:4; stroke-opacity:1; fill:none" points="265.445,1486.45 265.445,47.2441 "></polyline>
<polyline clip-path="url(#clip320)" style="stroke:#000000; stroke-linecap:round; stroke-linejoin:round; stroke-width:4; stroke-opacity:1; fill:none" points="265.445,1451.85 284.342,1451.85 "></polyline>
<polyline clip-path="url(#clip320)" style="stroke:#000000; stroke-linecap:round; stroke-linejoin:round; stroke-width:4; stroke-opacity:1; fill:none" points="265.445,1141.2 284.342,1141.2 "></polyline>
<polyline clip-path="url(#clip320)" style="stroke:#000000; stroke-linecap:round; stroke-linejoin:round; stroke-width:4; stroke-opacity:1; fill:none" points="265.445,830.56 284.342,830.56 "></polyline>
<polyline clip-path="url(#clip320)" style="stroke:#000000; stroke-linecap:round; stroke-linejoin:round; stroke-width:4; stroke-opacity:1; fill:none" points="265.445,519.917 284.342,519.917 "></polyline>
<polyline clip-path="url(#clip320)" style="stroke:#000000; stroke-linecap:round; stroke-linejoin:round; stroke-width:4; stroke-opacity:1; fill:none" points="265.445,209.275 284.342,209.275 "></polyline>
<path clip-path="url(#clip320)" d="M131.181 1450.49 Q134.538 1451.21 136.413 1453.48 Q138.311 1455.75 138.311 1459.08 Q138.311 1464.2 134.792 1467 Q131.274 1469.8 124.793 1469.8 Q122.617 1469.8 120.302 1469.36 Q118.01 1468.94 115.556 1468.08 L115.556 1463.57 Q117.501 1464.7 119.816 1465.28 Q122.13 1465.86 124.654 1465.86 Q129.052 1465.86 131.343 1464.13 Q133.658 1462.39 133.658 1459.08 Q133.658 1456.02 131.505 1454.31 Q129.376 1452.57 125.556 1452.57 L121.529 1452.57 L121.529 1448.73 L125.742 1448.73 Q129.191 1448.73 131.019 1447.37 Q132.848 1445.98 132.848 1443.39 Q132.848 1440.72 130.95 1439.31 Q129.075 1437.88 125.556 1437.88 Q123.635 1437.88 121.436 1438.29 Q119.237 1438.71 116.598 1439.59 L116.598 1435.42 Q119.26 1434.68 121.575 1434.31 Q123.913 1433.94 125.973 1433.94 Q131.297 1433.94 134.399 1436.37 Q137.501 1438.78 137.501 1442.9 Q137.501 1445.77 135.857 1447.76 Q134.214 1449.73 131.181 1450.49 Z" fill="#000000" fill-rule="nonzero" fill-opacity="1"></path><path clip-path="url(#clip320)" d="M147.223 1434.57 L165.579 1434.57 L165.579 1438.5 L151.505 1438.5 L151.505 1446.97 Q152.524 1446.63 153.542 1446.46 Q154.561 1446.28 155.579 1446.28 Q161.366 1446.28 164.746 1449.45 Q168.126 1452.62 168.126 1458.04 Q168.126 1463.62 164.653 1466.72 Q161.181 1469.8 154.862 1469.8 Q152.686 1469.8 150.417 1469.43 Q148.172 1469.06 145.765 1468.32 L145.765 1463.62 Q147.848 1464.75 150.07 1465.31 Q152.292 1465.86 154.769 1465.86 Q158.774 1465.86 161.112 1463.76 Q163.45 1461.65 163.45 1458.04 Q163.45 1454.43 161.112 1452.32 Q158.774 1450.21 154.769 1450.21 Q152.894 1450.21 151.019 1450.63 Q149.167 1451.05 147.223 1451.93 L147.223 1434.57 Z" fill="#000000" fill-rule="nonzero" fill-opacity="1"></path><path clip-path="url(#clip320)" d="M187.338 1437.64 Q183.727 1437.64 181.899 1441.21 Q180.093 1444.75 180.093 1451.88 Q180.093 1458.99 181.899 1462.55 Q183.727 1466.09 187.338 1466.09 Q190.973 1466.09 192.778 1462.55 Q194.607 1458.99 194.607 1451.88 Q194.607 1444.75 192.778 1441.21 Q190.973 1437.64 187.338 1437.64 M187.338 1433.94 Q193.149 1433.94 196.204 1438.55 Q199.283 1443.13 199.283 1451.88 Q199.283 1460.61 196.204 1465.21 Q193.149 1469.8 187.338 1469.8 Q181.528 1469.8 178.45 1465.21 Q175.394 1460.61 175.394 1451.88 Q175.394 1443.13 178.45 1438.55 Q181.528 1433.94 187.338 1433.94 Z" fill="#000000" fill-rule="nonzero" fill-opacity="1"></path><path clip-path="url(#clip320)" d="M217.5 1437.64 Q213.889 1437.64 212.061 1441.21 Q210.255 1444.75 210.255 1451.88 Q210.255 1458.99 212.061 1462.55 Q213.889 1466.09 217.5 1466.09 Q221.135 1466.09 222.94 1462.55 Q224.769 1458.99 224.769 1451.88 Q224.769 1444.75 222.94 1441.21 Q221.135 1437.64 217.5 1437.64 M217.5 1433.94 Q223.31 1433.94 226.366 1438.55 Q229.445 1443.13 229.445 1451.88 Q229.445 1460.61 226.366 1465.21 Q223.31 1469.8 217.5 1469.8 Q211.69 1469.8 208.612 1465.21 Q205.556 1460.61 205.556 1451.88 Q205.556 1443.13 208.612 1438.55 Q211.69 1433.94 217.5 1433.94 Z" fill="#000000" fill-rule="nonzero" fill-opacity="1"></path><path clip-path="url(#clip320)" d="M129.862 1128 L118.056 1146.45 L129.862 1146.45 L129.862 1128 M128.635 1123.92 L134.515 1123.92 L134.515 1146.45 L139.445 1146.45 L139.445 1150.33 L134.515 1150.33 L134.515 1158.48 L129.862 1158.48 L129.862 1150.33 L114.26 1150.33 L114.26 1145.82 L128.635 1123.92 Z" fill="#000000" fill-rule="nonzero" fill-opacity="1"></path><path clip-path="url(#clip320)" d="M157.177 1127 Q153.566 1127 151.737 1130.57 Q149.931 1134.11 149.931 1141.24 Q149.931 1148.34 151.737 1151.91 Q153.566 1155.45 157.177 1155.45 Q160.811 1155.45 162.616 1151.91 Q164.445 1148.34 164.445 1141.24 Q164.445 1134.11 162.616 1130.57 Q160.811 1127 157.177 1127 M157.177 1123.3 Q162.987 1123.3 166.042 1127.9 Q169.121 1132.49 169.121 1141.24 Q169.121 1149.96 166.042 1154.57 Q162.987 1159.15 157.177 1159.15 Q151.366 1159.15 148.288 1154.57 Q145.232 1149.96 145.232 1141.24 Q145.232 1132.49 148.288 1127.9 Q151.366 1123.3 157.177 1123.3 Z" fill="#000000" fill-rule="nonzero" fill-opacity="1"></path><path clip-path="url(#clip320)" d="M187.338 1127 Q183.727 1127 181.899 1130.57 Q180.093 1134.11 180.093 1141.24 Q180.093 1148.34 181.899 1151.91 Q183.727 1155.45 187.338 1155.45 Q190.973 1155.45 192.778 1151.91 Q194.607 1148.34 194.607 1141.24 Q194.607 1134.11 192.778 1130.57 Q190.973 1127 187.338 1127 M187.338 1123.3 Q193.149 1123.3 196.204 1127.9 Q199.283 1132.49 199.283 1141.24 Q199.283 1149.96 196.204 1154.57 Q193.149 1159.15 187.338 1159.15 Q181.528 1159.15 178.45 1154.57 Q175.394 1149.96 175.394 1141.24 Q175.394 1132.49 178.45 1127.9 Q181.528 1123.3 187.338 1123.3 Z" fill="#000000" fill-rule="nonzero" fill-opacity="1"></path><path clip-path="url(#clip320)" d="M217.5 1127 Q213.889 1127 212.061 1130.57 Q210.255 1134.11 210.255 1141.24 Q210.255 1148.34 212.061 1151.91 Q213.889 1155.45 217.5 1155.45 Q221.135 1155.45 222.94 1151.91 Q224.769 1148.34 224.769 1141.24 Q224.769 1134.11 222.94 1130.57 Q221.135 1127 217.5 1127 M217.5 1123.3 Q223.31 1123.3 226.366 1127.9 Q229.445 1132.49 229.445 1141.24 Q229.445 1149.96 226.366 1154.57 Q223.31 1159.15 217.5 1159.15 Q211.69 1159.15 208.612 1154.57 Q205.556 1149.96 205.556 1141.24 Q205.556 1132.49 208.612 1127.9 Q211.69 1123.3 217.5 1123.3 Z" fill="#000000" fill-rule="nonzero" fill-opacity="1"></path><path clip-path="url(#clip320)" d="M129.862 817.354 L118.056 835.803 L129.862 835.803 L129.862 817.354 M128.635 813.28 L134.515 813.28 L134.515 835.803 L139.445 835.803 L139.445 839.692 L134.515 839.692 L134.515 847.84 L129.862 847.84 L129.862 839.692 L114.26 839.692 L114.26 835.178 L128.635 813.28 Z" fill="#000000" fill-rule="nonzero" fill-opacity="1"></path><path clip-path="url(#clip320)" d="M147.223 813.28 L165.579 813.28 L165.579 817.215 L151.505 817.215 L151.505 825.688 Q152.524 825.34 153.542 825.178 Q154.561 824.993 155.579 824.993 Q161.366 824.993 164.746 828.164 Q168.126 831.336 168.126 836.752 Q168.126 842.331 164.653 845.433 Q161.181 848.512 154.862 848.512 Q152.686 848.512 150.417 848.141 Q148.172 847.771 145.765 847.03 L145.765 842.331 Q147.848 843.465 150.07 844.021 Q152.292 844.576 154.769 844.576 Q158.774 844.576 161.112 842.47 Q163.45 840.363 163.45 836.752 Q163.45 833.141 161.112 831.035 Q158.774 828.928 154.769 828.928 Q152.894 828.928 151.019 829.345 Q149.167 829.762 147.223 830.641 L147.223 813.28 Z" fill="#000000" fill-rule="nonzero" fill-opacity="1"></path><path clip-path="url(#clip320)" d="M187.338 816.359 Q183.727 816.359 181.899 819.924 Q180.093 823.465 180.093 830.595 Q180.093 837.701 181.899 841.266 Q183.727 844.808 187.338 844.808 Q190.973 844.808 192.778 841.266 Q194.607 837.701 194.607 830.595 Q194.607 823.465 192.778 819.924 Q190.973 816.359 187.338 816.359 M187.338 812.655 Q193.149 812.655 196.204 817.262 Q199.283 821.845 199.283 830.595 Q199.283 839.322 196.204 843.928 Q193.149 848.512 187.338 848.512 Q181.528 848.512 178.45 843.928 Q175.394 839.322 175.394 830.595 Q175.394 821.845 178.45 817.262 Q181.528 812.655 187.338 812.655 Z" fill="#000000" fill-rule="nonzero" fill-opacity="1"></path><path clip-path="url(#clip320)" d="M217.5 816.359 Q213.889 816.359 212.061 819.924 Q210.255 823.465 210.255 830.595 Q210.255 837.701 212.061 841.266 Q213.889 844.808 217.5 844.808 Q221.135 844.808 222.94 841.266 Q224.769 837.701 224.769 830.595 Q224.769 823.465 222.94 819.924 Q221.135 816.359 217.5 816.359 M217.5 812.655 Q223.31 812.655 226.366 817.262 Q229.445 821.845 229.445 830.595 Q229.445 839.322 226.366 843.928 Q223.31 848.512 217.5 848.512 Q211.69 848.512 208.612 843.928 Q205.556 839.322 205.556 830.595 Q205.556 821.845 208.612 817.262 Q211.69 812.655 217.5 812.655 Z" fill="#000000" fill-rule="nonzero" fill-opacity="1"></path><path clip-path="url(#clip320)" d="M117.061 502.637 L135.417 502.637 L135.417 506.573 L121.343 506.573 L121.343 515.045 Q122.362 514.698 123.38 514.536 Q124.399 514.35 125.418 514.35 Q131.205 514.35 134.584 517.522 Q137.964 520.693 137.964 526.11 Q137.964 531.688 134.492 534.79 Q131.019 537.869 124.7 537.869 Q122.524 537.869 120.255 537.498 Q118.01 537.128 115.603 536.387 L115.603 531.688 Q117.686 532.822 119.908 533.378 Q122.13 533.934 124.607 533.934 Q128.612 533.934 130.95 531.827 Q133.288 529.721 133.288 526.11 Q133.288 522.498 130.95 520.392 Q128.612 518.286 124.607 518.286 Q122.732 518.286 120.857 518.702 Q119.006 519.119 117.061 519.998 L117.061 502.637 Z" fill="#000000" fill-rule="nonzero" fill-opacity="1"></path><path clip-path="url(#clip320)" d="M157.177 505.716 Q153.566 505.716 151.737 509.281 Q149.931 512.823 149.931 519.952 Q149.931 527.059 151.737 530.623 Q153.566 534.165 157.177 534.165 Q160.811 534.165 162.616 530.623 Q164.445 527.059 164.445 519.952 Q164.445 512.823 162.616 509.281 Q160.811 505.716 157.177 505.716 M157.177 502.012 Q162.987 502.012 166.042 506.619 Q169.121 511.202 169.121 519.952 Q169.121 528.679 166.042 533.285 Q162.987 537.869 157.177 537.869 Q151.366 537.869 148.288 533.285 Q145.232 528.679 145.232 519.952 Q145.232 511.202 148.288 506.619 Q151.366 502.012 157.177 502.012 Z" fill="#000000" fill-rule="nonzero" fill-opacity="1"></path><path clip-path="url(#clip320)" d="M187.338 505.716 Q183.727 505.716 181.899 509.281 Q180.093 512.823 180.093 519.952 Q180.093 527.059 181.899 530.623 Q183.727 534.165 187.338 534.165 Q190.973 534.165 192.778 530.623 Q194.607 527.059 194.607 519.952 Q194.607 512.823 192.778 509.281 Q190.973 505.716 187.338 505.716 M187.338 502.012 Q193.149 502.012 196.204 506.619 Q199.283 511.202 199.283 519.952 Q199.283 528.679 196.204 533.285 Q193.149 537.869 187.338 537.869 Q181.528 537.869 178.45 533.285 Q175.394 528.679 175.394 519.952 Q175.394 511.202 178.45 506.619 Q181.528 502.012 187.338 502.012 Z" fill="#000000" fill-rule="nonzero" fill-opacity="1"></path><path clip-path="url(#clip320)" d="M217.5 505.716 Q213.889 505.716 212.061 509.281 Q210.255 512.823 210.255 519.952 Q210.255 527.059 212.061 530.623 Q213.889 534.165 217.5 534.165 Q221.135 534.165 222.94 530.623 Q224.769 527.059 224.769 519.952 Q224.769 512.823 222.94 509.281 Q221.135 505.716 217.5 505.716 M217.5 502.012 Q223.31 502.012 226.366 506.619 Q229.445 511.202 229.445 519.952 Q229.445 528.679 226.366 533.285 Q223.31 537.869 217.5 537.869 Q211.69 537.869 208.612 533.285 Q205.556 528.679 205.556 519.952 Q205.556 511.202 208.612 506.619 Q211.69 502.012 217.5 502.012 Z" fill="#000000" fill-rule="nonzero" fill-opacity="1"></path><path clip-path="url(#clip320)" d="M117.061 191.995 L135.417 191.995 L135.417 195.93 L121.343 195.93 L121.343 204.402 Q122.362 204.055 123.38 203.893 Q124.399 203.708 125.418 203.708 Q131.205 203.708 134.584 206.879 Q137.964 210.05 137.964 215.467 Q137.964 221.045 134.492 224.147 Q131.019 227.226 124.7 227.226 Q122.524 227.226 120.255 226.856 Q118.01 226.485 115.603 225.745 L115.603 221.045 Q117.686 222.18 119.908 222.735 Q122.13 223.291 124.607 223.291 Q128.612 223.291 130.95 221.184 Q133.288 219.078 133.288 215.467 Q133.288 211.856 130.95 209.749 Q128.612 207.643 124.607 207.643 Q122.732 207.643 120.857 208.059 Q119.006 208.476 117.061 209.356 L117.061 191.995 Z" fill="#000000" fill-rule="nonzero" fill-opacity="1"></path><path clip-path="url(#clip320)" d="M147.223 191.995 L165.579 191.995 L165.579 195.93 L151.505 195.93 L151.505 204.402 Q152.524 204.055 153.542 203.893 Q154.561 203.708 155.579 203.708 Q161.366 203.708 164.746 206.879 Q168.126 210.05 168.126 215.467 Q168.126 221.045 164.653 224.147 Q161.181 227.226 154.862 227.226 Q152.686 227.226 150.417 226.856 Q148.172 226.485 145.765 225.745 L145.765 221.045 Q147.848 222.18 150.07 222.735 Q152.292 223.291 154.769 223.291 Q158.774 223.291 161.112 221.184 Q163.45 219.078 163.45 215.467 Q163.45 211.856 161.112 209.749 Q158.774 207.643 154.769 207.643 Q152.894 207.643 151.019 208.059 Q149.167 208.476 147.223 209.356 L147.223 191.995 Z" fill="#000000" fill-rule="nonzero" fill-opacity="1"></path><path clip-path="url(#clip320)" d="M187.338 195.073 Q183.727 195.073 181.899 198.638 Q180.093 202.18 180.093 209.309 Q180.093 216.416 181.899 219.981 Q183.727 223.522 187.338 223.522 Q190.973 223.522 192.778 219.981 Q194.607 216.416 194.607 209.309 Q194.607 202.18 192.778 198.638 Q190.973 195.073 187.338 195.073 M187.338 191.37 Q193.149 191.37 196.204 195.976 Q199.283 200.559 199.283 209.309 Q199.283 218.036 196.204 222.643 Q193.149 227.226 187.338 227.226 Q181.528 227.226 178.45 222.643 Q175.394 218.036 175.394 209.309 Q175.394 200.559 178.45 195.976 Q181.528 191.37 187.338 191.37 Z" fill="#000000" fill-rule="nonzero" fill-opacity="1"></path><path clip-path="url(#clip320)" d="M217.5 195.073 Q213.889 195.073 212.061 198.638 Q210.255 202.18 210.255 209.309 Q210.255 216.416 212.061 219.981 Q213.889 223.522 217.5 223.522 Q221.135 223.522 222.94 219.981 Q224.769 216.416 224.769 209.309 Q224.769 202.18 222.94 198.638 Q221.135 195.073 217.5 195.073 M217.5 191.37 Q223.31 191.37 226.366 195.976 Q229.445 200.559 229.445 209.309 Q229.445 218.036 226.366 222.643 Q223.31 227.226 217.5 227.226 Q211.69 227.226 208.612 222.643 Q205.556 218.036 205.556 209.309 Q205.556 200.559 208.612 195.976 Q211.69 191.37 217.5 191.37 Z" fill="#000000" fill-rule="nonzero" fill-opacity="1"></path><path clip-path="url(#clip320)" d="M16.4842 1067.23 L16.4842 1037.18 L21.895 1037.18 L21.895 1060.8 L35.9632 1060.8 L35.9632 1038.17 L41.3741 1038.17 L41.3741 1060.8 L58.5933 1060.8 L58.5933 1036.61 L64.0042 1036.61 L64.0042 1067.23 L16.4842 1067.23 Z" fill="#000000" fill-rule="nonzero" fill-opacity="1"></path><path clip-path="url(#clip320)" d="M14.479 1026.3 L14.479 1020.44 L64.0042 1020.44 L64.0042 1026.3 L14.479 1026.3 Z" fill="#000000" fill-rule="nonzero" fill-opacity="1"></path><path clip-path="url(#clip320)" d="M44.7161 977.694 L47.5806 977.694 L47.5806 1004.62 Q53.6281 1004.24 56.8109 1000.99 Q59.9619 997.714 59.9619 991.89 Q59.9619 988.516 59.1344 985.365 Q58.3069 982.182 56.6518 979.063 L62.1899 979.063 Q63.5267 982.214 64.227 985.524 Q64.9272 988.834 64.9272 992.24 Q64.9272 1000.77 59.9619 1005.77 Q54.9967 1010.73 46.5303 1010.73 Q37.7774 1010.73 32.6531 1006.02 Q27.4968 1001.28 27.4968 993.258 Q27.4968 986.065 32.1438 981.895 Q36.7589 977.694 44.7161 977.694 M42.9973 983.551 Q38.1912 983.614 35.3266 986.256 Q32.4621 988.866 32.4621 993.195 Q32.4621 998.096 35.2312 1001.06 Q38.0002 1003.98 43.0292 1004.43 L42.9973 983.551 Z" fill="#000000" fill-rule="nonzero" fill-opacity="1"></path><path clip-path="url(#clip320)" d="M28.3562 972.283 L28.3562 966.077 L58.275 954.937 L28.3562 943.797 L28.3562 937.59 L64.0042 950.958 L64.0042 958.915 L28.3562 972.283 Z" fill="#000000" fill-rule="nonzero" fill-opacity="1"></path><path clip-path="url(#clip320)" d="M46.0847 913.305 Q46.0847 920.403 47.7079 923.14 Q49.3312 925.877 53.2461 925.877 Q56.3653 925.877 58.2114 923.84 Q60.0256 921.771 60.0256 918.238 Q60.0256 913.369 56.5881 910.44 Q53.1188 907.48 47.3897 907.48 L46.0847 907.48 L46.0847 913.305 M43.6657 901.624 L64.0042 901.624 L64.0042 907.48 L58.5933 907.48 Q61.8398 909.486 63.3994 912.477 Q64.9272 915.469 64.9272 919.798 Q64.9272 925.273 61.8716 928.519 Q58.7843 931.734 53.6281 931.734 Q47.6125 931.734 44.5569 927.723 Q41.5014 923.681 41.5014 915.692 L41.5014 907.48 L40.9285 907.48 Q36.8862 907.48 34.6901 910.154 Q32.4621 912.796 32.4621 917.602 Q32.4621 920.657 33.1941 923.554 Q33.9262 926.45 35.3903 929.124 L29.9795 929.124 Q28.7381 925.909 28.1334 922.885 Q27.4968 919.862 27.4968 916.997 Q27.4968 909.263 31.5072 905.443 Q35.5176 901.624 43.6657 901.624 Z" fill="#000000" fill-rule="nonzero" fill-opacity="1"></path><path clip-path="url(#clip320)" d="M18.2347 883.768 L28.3562 883.768 L28.3562 871.705 L32.9077 871.705 L32.9077 883.768 L52.2594 883.768 Q56.6199 883.768 57.8613 882.59 Q59.1026 881.381 59.1026 877.721 L59.1026 871.705 L64.0042 871.705 L64.0042 877.721 Q64.0042 884.5 61.4897 887.078 Q58.9434 889.656 52.2594 889.656 L32.9077 889.656 L32.9077 893.953 L28.3562 893.953 L28.3562 889.656 L18.2347 889.656 L18.2347 883.768 Z" fill="#000000" fill-rule="nonzero" fill-opacity="1"></path><path clip-path="url(#clip320)" d="M28.3562 864.003 L28.3562 858.146 L64.0042 858.146 L64.0042 864.003 L28.3562 864.003 M14.479 864.003 L14.479 858.146 L21.895 858.146 L21.895 864.003 L14.479 864.003 Z" fill="#000000" fill-rule="nonzero" fill-opacity="1"></path><path clip-path="url(#clip320)" d="M32.4621 832.079 Q32.4621 836.789 36.1542 839.526 Q39.8145 842.264 46.212 842.264 Q52.6095 842.264 56.3017 839.558 Q59.9619 836.821 59.9619 832.079 Q59.9619 827.4 56.2698 824.663 Q52.5777 821.925 46.212 821.925 Q39.8781 821.925 36.186 824.663 Q32.4621 827.4 32.4621 832.079 M27.4968 832.079 Q27.4968 824.44 32.4621 820.079 Q37.4273 815.719 46.212 815.719 Q54.9649 815.719 59.9619 820.079 Q64.9272 824.44 64.9272 832.079 Q64.9272 839.749 59.9619 844.11 Q54.9649 848.438 46.212 848.438 Q37.4273 848.438 32.4621 844.11 Q27.4968 839.749 27.4968 832.079 Z" fill="#000000" fill-rule="nonzero" fill-opacity="1"></path><path clip-path="url(#clip320)" d="M42.4881 776.379 L64.0042 776.379 L64.0042 782.235 L42.679 782.235 Q37.6183 782.235 35.1038 784.208 Q32.5894 786.182 32.5894 790.129 Q32.5894 794.871 35.6131 797.608 Q38.6368 800.346 43.8567 800.346 L64.0042 800.346 L64.0042 806.234 L28.3562 806.234 L28.3562 800.346 L33.8944 800.346 Q30.6797 798.245 29.0883 795.412 Q27.4968 792.548 27.4968 788.824 Q27.4968 782.681 31.3163 779.53 Q35.1038 776.379 42.4881 776.379 Z" fill="#000000" fill-rule="nonzero" fill-opacity="1"></path><path clip-path="url(#clip320)" d="M14.5426 729.909 Q21.8632 734.174 29.0246 736.243 Q36.186 738.312 43.5384 738.312 Q50.8908 738.312 58.1159 736.243 Q65.3091 734.142 72.5979 729.909 L72.5979 735.002 Q65.1182 739.776 57.8931 742.163 Q50.668 744.518 43.5384 744.518 Q36.4406 744.518 29.2474 742.163 Q22.0542 739.808 14.5426 735.002 L14.5426 729.909 Z" fill="#000000" fill-rule="nonzero" fill-opacity="1"></path><path clip-path="url(#clip320)" d="M35.1993 690.792 Q31.2526 688.596 29.3747 685.54 Q27.4968 682.484 27.4968 678.347 Q27.4968 672.777 31.4117 669.753 Q35.2948 666.729 42.4881 666.729 L64.0042 666.729 L64.0042 672.618 L42.679 672.618 Q37.5546 672.618 35.072 674.432 Q32.5894 676.246 32.5894 679.97 Q32.5894 684.521 35.6131 687.163 Q38.6368 689.805 43.8567 689.805 L64.0042 689.805 L64.0042 695.693 L42.679 695.693 Q37.5228 695.693 35.072 697.508 Q32.5894 699.322 32.5894 703.109 Q32.5894 707.597 35.6449 710.239 Q38.6686 712.881 43.8567 712.881 L64.0042 712.881 L64.0042 718.769 L28.3562 718.769 L28.3562 712.881 L33.8944 712.881 Q30.616 710.876 29.0564 708.075 Q27.4968 705.274 27.4968 701.422 Q27.4968 697.539 29.4702 694.834 Q31.4436 692.097 35.1993 690.792 Z" fill="#000000" fill-rule="nonzero" fill-opacity="1"></path><path clip-path="url(#clip320)" d="M55.9197 654.221 L55.9197 647.505 L64.0042 647.505 L64.0042 654.221 L55.9197 654.221 Z" fill="#000000" fill-rule="nonzero" fill-opacity="1"></path><path clip-path="url(#clip320)" d="M46.0847 618.127 Q46.0847 625.225 47.7079 627.962 Q49.3312 630.699 53.2461 630.699 Q56.3653 630.699 58.2114 628.662 Q60.0256 626.594 60.0256 623.061 Q60.0256 618.191 56.5881 615.263 Q53.1188 612.303 47.3897 612.303 L46.0847 612.303 L46.0847 618.127 M43.6657 606.446 L64.0042 606.446 L64.0042 612.303 L58.5933 612.303 Q61.8398 614.308 63.3994 617.3 Q64.9272 620.292 64.9272 624.62 Q64.9272 630.095 61.8716 633.341 Q58.7843 636.556 53.6281 636.556 Q47.6125 636.556 44.5569 632.545 Q41.5014 628.503 41.5014 620.514 L41.5014 612.303 L40.9285 612.303 Q36.8862 612.303 34.6901 614.976 Q32.4621 617.618 32.4621 622.424 Q32.4621 625.48 33.1941 628.376 Q33.9262 631.272 35.3903 633.946 L29.9795 633.946 Q28.7381 630.731 28.1334 627.708 Q27.4968 624.684 27.4968 621.819 Q27.4968 614.085 31.5072 610.266 Q35.5176 606.446 43.6657 606.446 Z" fill="#000000" fill-rule="nonzero" fill-opacity="1"></path><path clip-path="url(#clip320)" d="M55.9197 593.556 L55.9197 586.84 L64.0042 586.84 L64.0042 593.556 L55.9197 593.556 Z" fill="#000000" fill-rule="nonzero" fill-opacity="1"></path><path clip-path="url(#clip320)" d="M29.4065 550.937 L34.9447 550.937 Q33.6716 553.42 33.035 556.093 Q32.3984 558.767 32.3984 561.632 Q32.3984 565.992 33.7352 568.188 Q35.072 570.353 37.7456 570.353 Q39.7826 570.353 40.9603 568.793 Q42.1061 567.233 43.1565 562.523 L43.6021 560.518 Q44.9389 554.279 47.3897 551.669 Q49.8086 549.027 54.1691 549.027 Q59.1344 549.027 62.0308 552.974 Q64.9272 556.889 64.9272 563.764 Q64.9272 566.629 64.3543 569.748 Q63.8132 572.835 62.6992 576.273 L56.6518 576.273 Q58.3387 573.026 59.198 569.875 Q60.0256 566.724 60.0256 563.637 Q60.0256 559.499 58.6251 557.271 Q57.1929 555.043 54.6147 555.043 Q52.2276 555.043 50.9545 556.666 Q49.6813 558.258 48.5037 563.7 L48.0262 565.737 Q46.8804 571.18 44.5251 573.599 Q42.138 576.018 38.0002 576.018 Q32.9713 576.018 30.2341 572.453 Q27.4968 568.888 27.4968 562.332 Q27.4968 559.085 27.9743 556.221 Q28.4517 553.356 29.4065 550.937 Z" fill="#000000" fill-rule="nonzero" fill-opacity="1"></path><path clip-path="url(#clip320)" d="M55.9197 538.874 L55.9197 532.158 L64.0042 532.158 L64.0042 538.874 L55.9197 538.874 Z" fill="#000000" fill-rule="nonzero" fill-opacity="1"></path><path clip-path="url(#clip320)" d="M14.479 518.981 L14.479 513.125 L64.0042 513.125 L64.0042 518.981 L14.479 518.981 Z" fill="#000000" fill-rule="nonzero" fill-opacity="1"></path><path clip-path="url(#clip320)" d="M55.9197 500.043 L55.9197 493.327 L64.0042 493.327 L64.0042 500.043 L55.9197 500.043 Z" fill="#000000" fill-rule="nonzero" fill-opacity="1"></path><path clip-path="url(#clip320)" d="M14.5426 481.073 L14.5426 475.981 Q22.0542 471.207 29.2474 468.851 Q36.4406 466.464 43.5384 466.464 Q50.668 466.464 57.8931 468.851 Q65.1182 471.207 72.5979 475.981 L72.5979 481.073 Q65.3091 476.84 58.1159 474.771 Q50.8908 472.671 43.5384 472.671 Q36.186 472.671 29.0246 474.771 Q21.8632 476.84 14.5426 481.073 Z" fill="#000000" fill-rule="nonzero" fill-opacity="1"></path><polyline clip-path="url(#clip322)" style="stroke:#a52a2a; stroke-linecap:round; stroke-linejoin:round; stroke-width:4; stroke-opacity:1; fill:none" points="324.52,135.275 351.13,150.982 377.74,181.877 404.35,214.871 430.961,246.94 457.571,287.139 484.181,318.37 510.792,355.082 537.402,396.726 564.012,439.637 590.622,478.189 617.233,514.534 643.843,547.077 670.453,577.712 697.064,607.203 723.674,637.752 750.284,667.576 776.895,691.066 803.505,709.386 830.115,723.573 856.725,744.18 883.336,762.313 909.946,784.683 936.556,806.812 963.167,824.217 989.777,840.844 1016.39,854.91 1043,875.083 1069.61,894.643 1096.22,910.598 1122.83,923.417 1149.44,936.451 1176.05,952.745 1202.66,972.822 1229.27,995.449 1255.88,1019.07 1282.49,1042.37 1309.1,1065.01 1335.71,1087.43 1362.32,1109.06 1388.93,1128.3 1415.54,1144.97 1442.15,1160.65 1468.76,1176.03 1495.37,1190.09 1521.98,1202.22 1548.59,1213.54 1575.2,1225.91 1601.81,1240.81 1628.42,1258.42 1655.03,1277.51 1681.64,1296.19 1708.25,1312.09 1734.86,1324.24 1761.48,1334.89 1788.09,1348.04 1814.7,1366.61 1841.31,1390.42 1867.92,1414.85 1894.53,1433.22 1921.14,1442.79 1947.75,1445.72 1974.36,1444.53 2000.97,1441.08 2027.58,1437.07 2054.19,1433.58 2080.8,1431.15 2107.41,1429.53 2134.02,1427.98 2160.63,1425.46 2187.24,1420.57 2213.85,1411.95 2240.46,1400 2267.07,1388.15 2293.68,1380.74 "></polyline>
<polyline clip-path="url(#clip322)" style="stroke:#0000ff; stroke-linecap:round; stroke-linejoin:round; stroke-width:4; stroke-opacity:1; fill:none" points="324.52,87.9763 351.13,116.939 377.74,149.334 404.35,179.409 430.961,214.876 457.571,249.605 484.181,283.383 510.792,320.753 537.402,362.601 564.012,402.379 590.622,438.186 617.233,471.112 643.843,501.751 670.453,530.855 697.064,558.481 723.674,582.786 750.284,603.256 776.895,621.161 803.505,638.12 830.115,654.994 856.725,672.198 883.336,689.513 909.946,709.109 936.556,730.36 963.167,758.962 989.777,789.879 1016.39,815.516 1043,853.898 1069.61,894.643 1096.22,910.598 1122.83,923.417 1149.44,936.451 1176.05,952.745 1202.66,972.822 1229.27,995.449 1255.88,1019.07 1282.49,1042.37 1309.1,1065.01 1335.71,1087.43 1362.32,1109.06 1388.93,1128.3 1415.54,1144.97 1442.15,1160.65 1468.76,1176.03 1495.37,1190.09 1521.98,1202.22 1548.59,1213.54 1575.2,1225.91 1601.81,1240.81 1628.42,1258.42 1655.03,1277.51 1681.64,1296.19 1708.25,1312.09 1734.86,1324.24 1761.48,1334.89 1788.09,1348.04 1814.7,1366.61 1841.31,1390.42 1867.92,1414.85 1894.53,1433.22 1921.14,1442.79 1947.75,1445.72 1974.36,1444.53 2000.97,1441.08 2027.58,1437.07 2054.19,1433.58 2080.8,1431.15 2107.41,1429.53 2134.02,1427.98 2160.63,1425.46 2187.24,1420.57 2213.85,1411.95 2240.46,1400 2267.07,1388.15 2293.68,1380.74 "></polyline>
<polyline clip-path="url(#clip322)" style="stroke:#ff0000; stroke-linecap:round; stroke-linejoin:round; stroke-width:4; stroke-opacity:1; fill:none" points="324.52,88.0137 351.13,116.976 377.74,149.369 404.35,179.445 430.961,214.912 457.571,249.64 484.181,283.418 510.792,320.787 537.402,362.634 564.012,402.397 590.622,438.159 617.233,470.996 643.843,501.303 670.453,529.712 697.064,556.237 723.674,579.26 750.284,598.614 776.895,615.686 803.505,631.95 830.115,648.229 856.725,664.887 883.336,681.927 909.946,701.344 936.556,722.708 963.167,751.479 989.777,782.159 1016.39,807.73 1043,848.652 1069.61,894.643 1096.22,910.598 1122.83,923.417 1149.44,936.451 1176.05,952.745 1202.66,972.822 1229.27,995.449 1255.88,1019.07 1282.49,1042.37 1309.1,1065.01 1335.71,1087.43 1362.32,1109.06 1388.93,1128.3 1415.54,1144.97 1442.15,1160.65 1468.76,1176.03 1495.37,1190.09 1521.98,1202.22 1548.59,1213.54 1575.2,1225.91 1601.81,1240.81 1628.42,1258.42 1655.03,1277.51 1681.64,1296.19 1708.25,1312.09 1734.86,1324.24 1761.48,1334.89 1788.09,1348.04 1814.7,1366.61 1841.31,1390.42 1867.92,1414.85 1894.53,1433.22 1921.14,1442.79 1947.75,1445.72 1974.36,1444.53 2000.97,1441.08 2027.58,1437.07 2054.19,1433.58 2080.8,1431.15 2107.41,1429.53 2134.02,1427.98 2160.63,1425.46 2187.24,1420.57 2213.85,1411.95 2240.46,1400 2267.07,1388.15 2293.68,1380.74 "></polyline>
<polyline clip-path="url(#clip322)" style="stroke:#008000; stroke-linecap:round; stroke-linejoin:round; stroke-width:4; stroke-opacity:1; fill:none" points="324.52,107.381 351.13,126.182 377.74,159.32 404.35,191.743 430.961,224.117 457.571,262.359 484.181,294.179 510.792,331.503 537.402,373.243 564.012,414.59 590.622,451.191 617.233,485.523 643.843,517.054 670.453,547.16 697.064,576.122 723.674,604.02 750.284,627.877 776.895,647.259 803.505,665.696 830.115,685.163 856.725,709.555 883.336,738.324 909.946,768.258 936.556,797.783 963.167,823.596 989.777,840.844 1016.39,854.91 1043,875.083 1069.61,894.643 1096.22,910.598 1122.83,923.417 1149.44,936.451 1176.05,952.745 1202.66,972.822 1229.27,995.449 1255.88,1019.07 1282.49,1042.37 1309.1,1065.01 1335.71,1087.43 1362.32,1109.06 1388.93,1128.3 1415.54,1144.97 1442.15,1160.65 1468.76,1176.03 1495.37,1190.09 1521.98,1202.22 1548.59,1213.54 1575.2,1225.91 1601.81,1240.81 1628.42,1258.42 1655.03,1277.51 1681.64,1296.19 1708.25,1312.09 1734.86,1324.24 1761.48,1334.89 1788.09,1348.04 1814.7,1366.61 1841.31,1390.42 1867.92,1414.85 1894.53,1433.22 1921.14,1442.79 1947.75,1445.72 1974.36,1444.53 2000.97,1441.08 2027.58,1437.07 2054.19,1433.58 2080.8,1431.15 2107.41,1429.53 2134.02,1427.98 2160.63,1425.46 2187.24,1420.57 2213.85,1411.95 2240.46,1400 2267.07,1388.15 2293.68,1380.74 "></polyline>
<polyline clip-path="url(#clip322)" style="stroke:#000000; stroke-linecap:round; stroke-linejoin:round; stroke-width:4; stroke-opacity:1; fill:none" stroke-dasharray="16, 10" points="324.52,108.517 351.13,129.943 377.74,161.095 404.35,192.19 430.961,226.439 457.571,262.14 484.181,295.041 510.792,332.553 537.402,374.369 564.012,414.888 590.622,451.613 617.233,485.391 643.843,516.729 670.453,546.931 697.064,577.046 723.674,606.692 750.284,633.657 776.895,658.632 803.505,683.934 830.115,715.442 856.725,744.18 883.336,762.313 909.946,784.683 936.556,806.812 963.167,824.217 989.777,840.844 1016.39,854.91 1043,875.083 1069.61,894.643 1096.22,910.598 1122.83,923.417 1149.44,936.451 1176.05,952.745 1202.66,972.822 1229.27,995.449 1255.88,1019.07 1282.49,1042.37 1309.1,1065.01 1335.71,1087.43 1362.32,1109.06 1388.93,1128.3 1415.54,1144.97 1442.15,1160.65 1468.76,1176.03 1495.37,1190.09 1521.98,1202.22 1548.59,1213.54 1575.2,1225.91 1601.81,1240.81 1628.42,1258.42 1655.03,1277.51 1681.64,1296.19 1708.25,1312.09 1734.86,1324.24 1761.48,1334.89 1788.09,1348.04 1814.7,1366.61 1841.31,1390.42 1867.92,1414.85 1894.53,1433.22 1921.14,1442.79 1947.75,1445.72 1974.36,1444.53 2000.97,1441.08 2027.58,1437.07 2054.19,1433.58 2080.8,1431.15 2107.41,1429.53 2134.02,1427.98 2160.63,1425.46 2187.24,1420.57 2213.85,1411.95 2240.46,1400 2267.07,1388.15 2293.68,1380.74 "></polyline>
<path clip-path="url(#clip320)" d="M1729.73 406.258 L2283.18 406.258 L2283.18 95.2176 L1729.73 95.2176  Z" fill="#ffffff" fill-rule="evenodd" fill-opacity="1"></path>
<polyline clip-path="url(#clip320)" style="stroke:#000000; stroke-linecap:round; stroke-linejoin:round; stroke-width:4; stroke-opacity:1; fill:none" points="1729.73,406.258 2283.18,406.258 2283.18,95.2176 1729.73,95.2176 1729.73,406.258 "></polyline>
<polyline clip-path="url(#clip320)" style="stroke:#a52a2a; stroke-linecap:round; stroke-linejoin:round; stroke-width:4; stroke-opacity:1; fill:none" points="1752.92,147.058 1892.07,147.058 "></polyline>
<path clip-path="url(#clip320)" d="M1934.04 151.398 Q1934.04 146.699 1932.09 144.037 Q1930.17 141.352 1926.79 141.352 Q1923.41 141.352 1921.47 144.037 Q1919.55 146.699 1919.55 151.398 Q1919.55 156.097 1921.47 158.782 Q1923.41 161.444 1926.79 161.444 Q1930.17 161.444 1932.09 158.782 Q1934.04 156.097 1934.04 151.398 M1919.55 142.347 Q1920.89 140.032 1922.93 138.921 Q1924.99 137.787 1927.84 137.787 Q1932.56 137.787 1935.5 141.537 Q1938.46 145.287 1938.46 151.398 Q1938.46 157.509 1935.5 161.259 Q1932.56 165.009 1927.84 165.009 Q1924.99 165.009 1922.93 163.898 Q1920.89 162.763 1919.55 160.449 L1919.55 164.338 L1915.27 164.338 L1915.27 128.319 L1919.55 128.319 L1919.55 142.347 Z" fill="#000000" fill-rule="nonzero" fill-opacity="1"></path><path clip-path="url(#clip320)" d="M1967.7 150.31 L1967.7 152.393 L1948.11 152.393 Q1948.39 156.791 1950.75 159.106 Q1953.14 161.398 1957.37 161.398 Q1959.83 161.398 1962.12 160.796 Q1964.43 160.194 1966.7 158.99 L1966.7 163.018 Q1964.41 163.99 1962 164.5 Q1959.59 165.009 1957.12 165.009 Q1950.91 165.009 1947.28 161.398 Q1943.67 157.787 1943.67 151.629 Q1943.67 145.264 1947.09 141.537 Q1950.54 137.787 1956.38 137.787 Q1961.61 137.787 1964.64 141.166 Q1967.7 144.523 1967.7 150.31 M1963.44 149.06 Q1963.39 145.565 1961.47 143.481 Q1959.57 141.398 1956.42 141.398 Q1952.86 141.398 1950.71 143.412 Q1948.58 145.426 1948.25 149.083 L1963.44 149.06 Z" fill="#000000" fill-rule="nonzero" fill-opacity="1"></path><path clip-path="url(#clip320)" d="M1991.75 142.347 L1991.75 128.319 L1996.01 128.319 L1996.01 164.338 L1991.75 164.338 L1991.75 160.449 Q1990.4 162.763 1988.34 163.898 Q1986.31 165.009 1983.44 165.009 Q1978.74 165.009 1975.78 161.259 Q1972.84 157.509 1972.84 151.398 Q1972.84 145.287 1975.78 141.537 Q1978.74 137.787 1983.44 137.787 Q1986.31 137.787 1988.34 138.921 Q1990.4 140.032 1991.75 142.347 M1977.23 151.398 Q1977.23 156.097 1979.15 158.782 Q1981.1 161.444 1984.48 161.444 Q1987.86 161.444 1989.8 158.782 Q1991.75 156.097 1991.75 151.398 Q1991.75 146.699 1989.8 144.037 Q1987.86 141.352 1984.48 141.352 Q1981.1 141.352 1979.15 144.037 Q1977.23 146.699 1977.23 151.398 Z" fill="#000000" fill-rule="nonzero" fill-opacity="1"></path><polyline clip-path="url(#clip320)" style="stroke:#0000ff; stroke-linecap:round; stroke-linejoin:round; stroke-width:4; stroke-opacity:1; fill:none" points="1752.92,198.898 1892.07,198.898 "></polyline>
<path clip-path="url(#clip320)" d="M1933.69 191.016 L1933.69 195.043 Q1931.89 194.117 1929.94 193.655 Q1928 193.192 1925.91 193.192 Q1922.74 193.192 1921.15 194.164 Q1919.57 195.136 1919.57 197.08 Q1919.57 198.562 1920.71 199.418 Q1921.84 200.252 1925.27 201.016 L1926.72 201.34 Q1931.26 202.312 1933.16 204.094 Q1935.08 205.854 1935.08 209.025 Q1935.08 212.636 1932.21 214.742 Q1929.36 216.849 1924.36 216.849 Q1922.28 216.849 1920.01 216.432 Q1917.77 216.039 1915.27 215.228 L1915.27 210.83 Q1917.63 212.057 1919.92 212.682 Q1922.21 213.284 1924.46 213.284 Q1927.47 213.284 1929.09 212.266 Q1930.71 211.224 1930.71 209.349 Q1930.71 207.613 1929.53 206.687 Q1928.37 205.761 1924.41 204.904 L1922.93 204.557 Q1918.97 203.724 1917.21 202.011 Q1915.45 200.275 1915.45 197.266 Q1915.45 193.608 1918.04 191.618 Q1920.64 189.627 1925.4 189.627 Q1927.77 189.627 1929.85 189.974 Q1931.93 190.321 1933.69 191.016 Z" fill="#000000" fill-rule="nonzero" fill-opacity="1"></path><path clip-path="url(#clip320)" d="M1941.42 205.946 L1941.42 190.252 L1945.68 190.252 L1945.68 205.784 Q1945.68 209.465 1947.12 211.316 Q1948.55 213.145 1951.42 213.145 Q1954.87 213.145 1956.86 210.946 Q1958.88 208.747 1958.88 204.951 L1958.88 190.252 L1963.14 190.252 L1963.14 216.178 L1958.88 216.178 L1958.88 212.196 Q1957.33 214.557 1955.27 215.715 Q1953.23 216.849 1950.52 216.849 Q1946.05 216.849 1943.74 214.071 Q1941.42 211.293 1941.42 205.946 M1952.14 189.627 L1952.14 189.627 Z" fill="#000000" fill-rule="nonzero" fill-opacity="1"></path><path clip-path="url(#clip320)" d="M1986.93 194.233 Q1986.21 193.817 1985.36 193.631 Q1984.53 193.423 1983.51 193.423 Q1979.9 193.423 1977.95 195.784 Q1976.03 198.122 1976.03 202.52 L1976.03 216.178 L1971.75 216.178 L1971.75 190.252 L1976.03 190.252 L1976.03 194.28 Q1977.37 191.918 1979.53 190.784 Q1981.68 189.627 1984.76 189.627 Q1985.2 189.627 1985.73 189.696 Q1986.26 189.743 1986.91 189.858 L1986.93 194.233 Z" fill="#000000" fill-rule="nonzero" fill-opacity="1"></path><path clip-path="url(#clip320)" d="M2004.52 180.159 L2004.52 183.701 L2000.45 183.701 Q1998.16 183.701 1997.26 184.627 Q1996.38 185.553 1996.38 187.96 L1996.38 190.252 L2003.39 190.252 L2003.39 193.562 L1996.38 193.562 L1996.38 216.178 L1992.09 216.178 L1992.09 193.562 L1988.02 193.562 L1988.02 190.252 L1992.09 190.252 L1992.09 188.446 Q1992.09 184.118 1994.11 182.15 Q1996.12 180.159 2000.5 180.159 L2004.52 180.159 Z" fill="#000000" fill-rule="nonzero" fill-opacity="1"></path><path clip-path="url(#clip320)" d="M2019.87 203.145 Q2014.71 203.145 2012.72 204.326 Q2010.73 205.506 2010.73 208.354 Q2010.73 210.622 2012.21 211.965 Q2013.71 213.284 2016.28 213.284 Q2019.83 213.284 2021.96 210.784 Q2024.11 208.261 2024.11 204.094 L2024.11 203.145 L2019.87 203.145 M2028.37 201.386 L2028.37 216.178 L2024.11 216.178 L2024.11 212.242 Q2022.65 214.603 2020.47 215.738 Q2018.3 216.849 2015.15 216.849 Q2011.17 216.849 2008.81 214.627 Q2006.47 212.381 2006.47 208.631 Q2006.47 204.256 2009.39 202.034 Q2012.33 199.812 2018.14 199.812 L2024.11 199.812 L2024.11 199.395 Q2024.11 196.455 2022.16 194.858 Q2020.24 193.238 2016.75 193.238 Q2014.52 193.238 2012.42 193.77 Q2010.31 194.303 2008.37 195.367 L2008.37 191.432 Q2010.71 190.53 2012.9 190.09 Q2015.1 189.627 2017.19 189.627 Q2022.81 189.627 2025.59 192.543 Q2028.37 195.46 2028.37 201.386 Z" fill="#000000" fill-rule="nonzero" fill-opacity="1"></path><path clip-path="url(#clip320)" d="M2055.8 191.247 L2055.8 195.229 Q2053.99 194.233 2052.16 193.747 Q2050.36 193.238 2048.51 193.238 Q2044.36 193.238 2042.07 195.877 Q2039.78 198.492 2039.78 203.238 Q2039.78 207.983 2042.07 210.622 Q2044.36 213.238 2048.51 213.238 Q2050.36 213.238 2052.16 212.752 Q2053.99 212.242 2055.8 211.247 L2055.8 215.182 Q2054.02 216.016 2052.09 216.432 Q2050.2 216.849 2048.04 216.849 Q2042.19 216.849 2038.74 213.168 Q2035.29 209.488 2035.29 203.238 Q2035.29 196.895 2038.76 193.261 Q2042.26 189.627 2048.32 189.627 Q2050.29 189.627 2052.16 190.043 Q2054.04 190.437 2055.8 191.247 Z" fill="#000000" fill-rule="nonzero" fill-opacity="1"></path><path clip-path="url(#clip320)" d="M2085.38 202.15 L2085.38 204.233 L2065.8 204.233 Q2066.08 208.631 2068.44 210.946 Q2070.82 213.238 2075.06 213.238 Q2077.51 213.238 2079.8 212.636 Q2082.12 212.034 2084.39 210.83 L2084.39 214.858 Q2082.09 215.83 2079.69 216.34 Q2077.28 216.849 2074.8 216.849 Q2068.6 216.849 2064.96 213.238 Q2061.35 209.627 2061.35 203.469 Q2061.35 197.104 2064.78 193.377 Q2068.23 189.627 2074.06 189.627 Q2079.29 189.627 2082.33 193.006 Q2085.38 196.363 2085.38 202.15 M2081.12 200.9 Q2081.08 197.405 2079.15 195.321 Q2077.26 193.238 2074.11 193.238 Q2070.54 193.238 2068.39 195.252 Q2066.26 197.266 2065.94 200.923 L2081.12 200.9 Z" fill="#000000" fill-rule="nonzero" fill-opacity="1"></path><path clip-path="url(#clip320)" d="M2123.97 191.016 L2123.97 195.043 Q2122.16 194.117 2120.22 193.655 Q2118.27 193.192 2116.19 193.192 Q2113.02 193.192 2111.42 194.164 Q2109.85 195.136 2109.85 197.08 Q2109.85 198.562 2110.98 199.418 Q2112.12 200.252 2115.54 201.016 L2117 201.34 Q2121.54 202.312 2123.44 204.094 Q2125.36 205.854 2125.36 209.025 Q2125.36 212.636 2122.49 214.742 Q2119.64 216.849 2114.64 216.849 Q2112.56 216.849 2110.29 216.432 Q2108.04 216.039 2105.54 215.228 L2105.54 210.83 Q2107.9 212.057 2110.2 212.682 Q2112.49 213.284 2114.73 213.284 Q2117.74 213.284 2119.36 212.266 Q2120.98 211.224 2120.98 209.349 Q2120.98 207.613 2119.8 206.687 Q2118.64 205.761 2114.69 204.904 L2113.2 204.557 Q2109.25 203.724 2107.49 202.011 Q2105.73 200.275 2105.73 197.266 Q2105.73 193.608 2108.32 191.618 Q2110.91 189.627 2115.68 189.627 Q2118.04 189.627 2120.13 189.974 Q2122.21 190.321 2123.97 191.016 Z" fill="#000000" fill-rule="nonzero" fill-opacity="1"></path><path clip-path="url(#clip320)" d="M2142.19 193.238 Q2138.76 193.238 2136.77 195.923 Q2134.78 198.585 2134.78 203.238 Q2134.78 207.891 2136.75 210.576 Q2138.74 213.238 2142.19 213.238 Q2145.59 213.238 2147.58 210.553 Q2149.57 207.867 2149.57 203.238 Q2149.57 198.631 2147.58 195.946 Q2145.59 193.238 2142.19 193.238 M2142.19 189.627 Q2147.74 189.627 2150.91 193.238 Q2154.08 196.849 2154.08 203.238 Q2154.08 209.604 2150.91 213.238 Q2147.74 216.849 2142.19 216.849 Q2136.61 216.849 2133.44 213.238 Q2130.29 209.604 2130.29 203.238 Q2130.29 196.849 2133.44 193.238 Q2136.61 189.627 2142.19 189.627 Z" fill="#000000" fill-rule="nonzero" fill-opacity="1"></path><path clip-path="url(#clip320)" d="M2161.14 180.159 L2165.4 180.159 L2165.4 216.178 L2161.14 216.178 L2161.14 180.159 Z" fill="#000000" fill-rule="nonzero" fill-opacity="1"></path><path clip-path="url(#clip320)" d="M2171.26 190.252 L2175.77 190.252 L2183.88 212.011 L2191.98 190.252 L2196.49 190.252 L2186.77 216.178 L2180.98 216.178 L2171.26 190.252 Z" fill="#000000" fill-rule="nonzero" fill-opacity="1"></path><path clip-path="url(#clip320)" d="M2224.55 202.15 L2224.55 204.233 L2204.96 204.233 Q2205.24 208.631 2207.6 210.946 Q2209.99 213.238 2214.22 213.238 Q2216.68 213.238 2218.97 212.636 Q2221.28 212.034 2223.55 210.83 L2223.55 214.858 Q2221.26 215.83 2218.85 216.34 Q2216.45 216.849 2213.97 216.849 Q2207.76 216.849 2204.13 213.238 Q2200.52 209.627 2200.52 203.469 Q2200.52 197.104 2203.95 193.377 Q2207.39 189.627 2213.23 189.627 Q2218.46 189.627 2221.49 193.006 Q2224.55 196.363 2224.55 202.15 M2220.29 200.9 Q2220.24 197.405 2218.32 195.321 Q2216.42 193.238 2213.27 193.238 Q2209.71 193.238 2207.56 195.252 Q2205.43 197.266 2205.1 200.923 L2220.29 200.9 Z" fill="#000000" fill-rule="nonzero" fill-opacity="1"></path><path clip-path="url(#clip320)" d="M2246.56 194.233 Q2245.84 193.817 2244.99 193.631 Q2244.15 193.423 2243.13 193.423 Q2239.52 193.423 2237.58 195.784 Q2235.66 198.122 2235.66 202.52 L2235.66 216.178 L2231.38 216.178 L2231.38 190.252 L2235.66 190.252 L2235.66 194.28 Q2237 191.918 2239.15 190.784 Q2241.31 189.627 2244.38 189.627 Q2244.82 189.627 2245.36 189.696 Q2245.89 189.743 2246.54 189.858 L2246.56 194.233 Z" fill="#000000" fill-rule="nonzero" fill-opacity="1"></path><polyline clip-path="url(#clip320)" style="stroke:#ff0000; stroke-linecap:round; stroke-linejoin:round; stroke-width:4; stroke-opacity:1; fill:none" points="1752.92,250.738 1892.07,250.738 "></polyline>
<path clip-path="url(#clip320)" d="M1933.69 242.856 L1933.69 246.883 Q1931.89 245.957 1929.94 245.495 Q1928 245.032 1925.91 245.032 Q1922.74 245.032 1921.15 246.004 Q1919.57 246.976 1919.57 248.92 Q1919.57 250.402 1920.71 251.258 Q1921.84 252.092 1925.27 252.856 L1926.72 253.18 Q1931.26 254.152 1933.16 255.934 Q1935.08 257.694 1935.08 260.865 Q1935.08 264.476 1932.21 266.582 Q1929.36 268.689 1924.36 268.689 Q1922.28 268.689 1920.01 268.272 Q1917.77 267.879 1915.27 267.068 L1915.27 262.67 Q1917.63 263.897 1919.92 264.522 Q1922.21 265.124 1924.46 265.124 Q1927.47 265.124 1929.09 264.106 Q1930.71 263.064 1930.71 261.189 Q1930.71 259.453 1929.53 258.527 Q1928.37 257.601 1924.41 256.744 L1922.93 256.397 Q1918.97 255.564 1917.21 253.851 Q1915.45 252.115 1915.45 249.106 Q1915.45 245.448 1918.04 243.458 Q1920.64 241.467 1925.4 241.467 Q1927.77 241.467 1929.85 241.814 Q1931.93 242.161 1933.69 242.856 Z" fill="#000000" fill-rule="nonzero" fill-opacity="1"></path><path clip-path="url(#clip320)" d="M1941.42 257.786 L1941.42 242.092 L1945.68 242.092 L1945.68 257.624 Q1945.68 261.305 1947.12 263.156 Q1948.55 264.985 1951.42 264.985 Q1954.87 264.985 1956.86 262.786 Q1958.88 260.587 1958.88 256.791 L1958.88 242.092 L1963.14 242.092 L1963.14 268.018 L1958.88 268.018 L1958.88 264.036 Q1957.33 266.397 1955.27 267.555 Q1953.23 268.689 1950.52 268.689 Q1946.05 268.689 1943.74 265.911 Q1941.42 263.133 1941.42 257.786 M1952.14 241.467 L1952.14 241.467 Z" fill="#000000" fill-rule="nonzero" fill-opacity="1"></path><path clip-path="url(#clip320)" d="M1986.93 246.073 Q1986.21 245.657 1985.36 245.471 Q1984.53 245.263 1983.51 245.263 Q1979.9 245.263 1977.95 247.624 Q1976.03 249.962 1976.03 254.36 L1976.03 268.018 L1971.75 268.018 L1971.75 242.092 L1976.03 242.092 L1976.03 246.12 Q1977.37 243.758 1979.53 242.624 Q1981.68 241.467 1984.76 241.467 Q1985.2 241.467 1985.73 241.536 Q1986.26 241.583 1986.91 241.698 L1986.93 246.073 Z" fill="#000000" fill-rule="nonzero" fill-opacity="1"></path><path clip-path="url(#clip320)" d="M2004.52 231.999 L2004.52 235.541 L2000.45 235.541 Q1998.16 235.541 1997.26 236.467 Q1996.38 237.393 1996.38 239.8 L1996.38 242.092 L2003.39 242.092 L2003.39 245.402 L1996.38 245.402 L1996.38 268.018 L1992.09 268.018 L1992.09 245.402 L1988.02 245.402 L1988.02 242.092 L1992.09 242.092 L1992.09 240.286 Q1992.09 235.958 1994.11 233.99 Q1996.12 231.999 2000.5 231.999 L2004.52 231.999 Z" fill="#000000" fill-rule="nonzero" fill-opacity="1"></path><path clip-path="url(#clip320)" d="M2019.87 254.985 Q2014.71 254.985 2012.72 256.166 Q2010.73 257.346 2010.73 260.194 Q2010.73 262.462 2012.21 263.805 Q2013.71 265.124 2016.28 265.124 Q2019.83 265.124 2021.96 262.624 Q2024.11 260.101 2024.11 255.934 L2024.11 254.985 L2019.87 254.985 M2028.37 253.226 L2028.37 268.018 L2024.11 268.018 L2024.11 264.082 Q2022.65 266.443 2020.47 267.578 Q2018.3 268.689 2015.15 268.689 Q2011.17 268.689 2008.81 266.467 Q2006.47 264.221 2006.47 260.471 Q2006.47 256.096 2009.39 253.874 Q2012.33 251.652 2018.14 251.652 L2024.11 251.652 L2024.11 251.235 Q2024.11 248.295 2022.16 246.698 Q2020.24 245.078 2016.75 245.078 Q2014.52 245.078 2012.42 245.61 Q2010.31 246.143 2008.37 247.207 L2008.37 243.272 Q2010.71 242.37 2012.9 241.93 Q2015.1 241.467 2017.19 241.467 Q2022.81 241.467 2025.59 244.383 Q2028.37 247.3 2028.37 253.226 Z" fill="#000000" fill-rule="nonzero" fill-opacity="1"></path><path clip-path="url(#clip320)" d="M2055.8 243.087 L2055.8 247.069 Q2053.99 246.073 2052.16 245.587 Q2050.36 245.078 2048.51 245.078 Q2044.36 245.078 2042.07 247.717 Q2039.78 250.332 2039.78 255.078 Q2039.78 259.823 2042.07 262.462 Q2044.36 265.078 2048.51 265.078 Q2050.36 265.078 2052.16 264.592 Q2053.99 264.082 2055.8 263.087 L2055.8 267.022 Q2054.02 267.856 2052.09 268.272 Q2050.2 268.689 2048.04 268.689 Q2042.19 268.689 2038.74 265.008 Q2035.29 261.328 2035.29 255.078 Q2035.29 248.735 2038.76 245.101 Q2042.26 241.467 2048.32 241.467 Q2050.29 241.467 2052.16 241.883 Q2054.04 242.277 2055.8 243.087 Z" fill="#000000" fill-rule="nonzero" fill-opacity="1"></path><path clip-path="url(#clip320)" d="M2085.38 253.99 L2085.38 256.073 L2065.8 256.073 Q2066.08 260.471 2068.44 262.786 Q2070.82 265.078 2075.06 265.078 Q2077.51 265.078 2079.8 264.476 Q2082.12 263.874 2084.39 262.67 L2084.39 266.698 Q2082.09 267.67 2079.69 268.18 Q2077.28 268.689 2074.8 268.689 Q2068.6 268.689 2064.96 265.078 Q2061.35 261.467 2061.35 255.309 Q2061.35 248.944 2064.78 245.217 Q2068.23 241.467 2074.06 241.467 Q2079.29 241.467 2082.33 244.846 Q2085.38 248.203 2085.38 253.99 M2081.12 252.74 Q2081.08 249.245 2079.15 247.161 Q2077.26 245.078 2074.11 245.078 Q2070.54 245.078 2068.39 247.092 Q2066.26 249.106 2065.94 252.763 L2081.12 252.74 Z" fill="#000000" fill-rule="nonzero" fill-opacity="1"></path><path clip-path="url(#clip320)" d="M2122.46 246.073 Q2121.75 245.657 2120.89 245.471 Q2120.06 245.263 2119.04 245.263 Q2115.43 245.263 2113.48 247.624 Q2111.56 249.962 2111.56 254.36 L2111.56 268.018 L2107.28 268.018 L2107.28 242.092 L2111.56 242.092 L2111.56 246.12 Q2112.9 243.758 2115.06 242.624 Q2117.21 241.467 2120.29 241.467 Q2120.73 241.467 2121.26 241.536 Q2121.79 241.583 2122.44 241.698 L2122.46 246.073 Z" fill="#000000" fill-rule="nonzero" fill-opacity="1"></path><path clip-path="url(#clip320)" d="M2138.71 254.985 Q2133.55 254.985 2131.56 256.166 Q2129.57 257.346 2129.57 260.194 Q2129.57 262.462 2131.05 263.805 Q2132.56 265.124 2135.13 265.124 Q2138.67 265.124 2140.8 262.624 Q2142.95 260.101 2142.95 255.934 L2142.95 254.985 L2138.71 254.985 M2147.21 253.226 L2147.21 268.018 L2142.95 268.018 L2142.95 264.082 Q2141.49 266.443 2139.32 267.578 Q2137.14 268.689 2133.99 268.689 Q2130.01 268.689 2127.65 266.467 Q2125.31 264.221 2125.31 260.471 Q2125.31 256.096 2128.23 253.874 Q2131.17 251.652 2136.98 251.652 L2142.95 251.652 L2142.95 251.235 Q2142.95 248.295 2141.01 246.698 Q2139.08 245.078 2135.59 245.078 Q2133.37 245.078 2131.26 245.61 Q2129.15 246.143 2127.21 247.207 L2127.21 243.272 Q2129.55 242.37 2131.75 241.93 Q2133.95 241.467 2136.03 241.467 Q2141.65 241.467 2144.43 244.383 Q2147.21 247.3 2147.21 253.226 Z" fill="#000000" fill-rule="nonzero" fill-opacity="1"></path><path clip-path="url(#clip320)" d="M2153.51 242.092 L2157.76 242.092 L2163.09 262.323 L2168.39 242.092 L2173.41 242.092 L2178.74 262.323 L2184.04 242.092 L2188.3 242.092 L2181.51 268.018 L2176.49 268.018 L2170.91 246.768 L2165.31 268.018 L2160.29 268.018 L2153.51 242.092 Z" fill="#000000" fill-rule="nonzero" fill-opacity="1"></path><polyline clip-path="url(#clip320)" style="stroke:#008000; stroke-linecap:round; stroke-linejoin:round; stroke-width:4; stroke-opacity:1; fill:none" points="1752.92,302.578 1892.07,302.578 "></polyline>
<path clip-path="url(#clip320)" d="M1933.69 294.696 L1933.69 298.723 Q1931.89 297.797 1929.94 297.335 Q1928 296.872 1925.91 296.872 Q1922.74 296.872 1921.15 297.844 Q1919.57 298.816 1919.57 300.76 Q1919.57 302.242 1920.71 303.098 Q1921.84 303.932 1925.27 304.696 L1926.72 305.02 Q1931.26 305.992 1933.16 307.774 Q1935.08 309.534 1935.08 312.705 Q1935.08 316.316 1932.21 318.422 Q1929.36 320.529 1924.36 320.529 Q1922.28 320.529 1920.01 320.112 Q1917.77 319.719 1915.27 318.908 L1915.27 314.51 Q1917.63 315.737 1919.92 316.362 Q1922.21 316.964 1924.46 316.964 Q1927.47 316.964 1929.09 315.946 Q1930.71 314.904 1930.71 313.029 Q1930.71 311.293 1929.53 310.367 Q1928.37 309.441 1924.41 308.584 L1922.93 308.237 Q1918.97 307.404 1917.21 305.691 Q1915.45 303.955 1915.45 300.946 Q1915.45 297.288 1918.04 295.298 Q1920.64 293.307 1925.4 293.307 Q1927.77 293.307 1929.85 293.654 Q1931.93 294.001 1933.69 294.696 Z" fill="#000000" fill-rule="nonzero" fill-opacity="1"></path><path clip-path="url(#clip320)" d="M1941.42 309.626 L1941.42 293.932 L1945.68 293.932 L1945.68 309.464 Q1945.68 313.145 1947.12 314.996 Q1948.55 316.825 1951.42 316.825 Q1954.87 316.825 1956.86 314.626 Q1958.88 312.427 1958.88 308.631 L1958.88 293.932 L1963.14 293.932 L1963.14 319.858 L1958.88 319.858 L1958.88 315.876 Q1957.33 318.237 1955.27 319.395 Q1953.23 320.529 1950.52 320.529 Q1946.05 320.529 1943.74 317.751 Q1941.42 314.973 1941.42 309.626 M1952.14 293.307 L1952.14 293.307 Z" fill="#000000" fill-rule="nonzero" fill-opacity="1"></path><path clip-path="url(#clip320)" d="M1986.93 297.913 Q1986.21 297.497 1985.36 297.311 Q1984.53 297.103 1983.51 297.103 Q1979.9 297.103 1977.95 299.464 Q1976.03 301.802 1976.03 306.2 L1976.03 319.858 L1971.75 319.858 L1971.75 293.932 L1976.03 293.932 L1976.03 297.96 Q1977.37 295.598 1979.53 294.464 Q1981.68 293.307 1984.76 293.307 Q1985.2 293.307 1985.73 293.376 Q1986.26 293.423 1986.91 293.538 L1986.93 297.913 Z" fill="#000000" fill-rule="nonzero" fill-opacity="1"></path><path clip-path="url(#clip320)" d="M2004.52 283.839 L2004.52 287.381 L2000.45 287.381 Q1998.16 287.381 1997.26 288.307 Q1996.38 289.233 1996.38 291.64 L1996.38 293.932 L2003.39 293.932 L2003.39 297.242 L1996.38 297.242 L1996.38 319.858 L1992.09 319.858 L1992.09 297.242 L1988.02 297.242 L1988.02 293.932 L1992.09 293.932 L1992.09 292.126 Q1992.09 287.798 1994.11 285.83 Q1996.12 283.839 2000.5 283.839 L2004.52 283.839 Z" fill="#000000" fill-rule="nonzero" fill-opacity="1"></path><path clip-path="url(#clip320)" d="M2019.87 306.825 Q2014.71 306.825 2012.72 308.006 Q2010.73 309.186 2010.73 312.034 Q2010.73 314.302 2012.21 315.645 Q2013.71 316.964 2016.28 316.964 Q2019.83 316.964 2021.96 314.464 Q2024.11 311.941 2024.11 307.774 L2024.11 306.825 L2019.87 306.825 M2028.37 305.066 L2028.37 319.858 L2024.11 319.858 L2024.11 315.922 Q2022.65 318.283 2020.47 319.418 Q2018.3 320.529 2015.15 320.529 Q2011.17 320.529 2008.81 318.307 Q2006.47 316.061 2006.47 312.311 Q2006.47 307.936 2009.39 305.714 Q2012.33 303.492 2018.14 303.492 L2024.11 303.492 L2024.11 303.075 Q2024.11 300.135 2022.16 298.538 Q2020.24 296.918 2016.75 296.918 Q2014.52 296.918 2012.42 297.45 Q2010.31 297.983 2008.37 299.047 L2008.37 295.112 Q2010.71 294.21 2012.9 293.77 Q2015.1 293.307 2017.19 293.307 Q2022.81 293.307 2025.59 296.223 Q2028.37 299.14 2028.37 305.066 Z" fill="#000000" fill-rule="nonzero" fill-opacity="1"></path><path clip-path="url(#clip320)" d="M2055.8 294.927 L2055.8 298.909 Q2053.99 297.913 2052.16 297.427 Q2050.36 296.918 2048.51 296.918 Q2044.36 296.918 2042.07 299.557 Q2039.78 302.172 2039.78 306.918 Q2039.78 311.663 2042.07 314.302 Q2044.36 316.918 2048.51 316.918 Q2050.36 316.918 2052.16 316.432 Q2053.99 315.922 2055.8 314.927 L2055.8 318.862 Q2054.02 319.696 2052.09 320.112 Q2050.2 320.529 2048.04 320.529 Q2042.19 320.529 2038.74 316.848 Q2035.29 313.168 2035.29 306.918 Q2035.29 300.575 2038.76 296.941 Q2042.26 293.307 2048.32 293.307 Q2050.29 293.307 2052.16 293.723 Q2054.04 294.117 2055.8 294.927 Z" fill="#000000" fill-rule="nonzero" fill-opacity="1"></path><path clip-path="url(#clip320)" d="M2085.38 305.83 L2085.38 307.913 L2065.8 307.913 Q2066.08 312.311 2068.44 314.626 Q2070.82 316.918 2075.06 316.918 Q2077.51 316.918 2079.8 316.316 Q2082.12 315.714 2084.39 314.51 L2084.39 318.538 Q2082.09 319.51 2079.69 320.02 Q2077.28 320.529 2074.8 320.529 Q2068.6 320.529 2064.96 316.918 Q2061.35 313.307 2061.35 307.149 Q2061.35 300.784 2064.78 297.057 Q2068.23 293.307 2074.06 293.307 Q2079.29 293.307 2082.33 296.686 Q2085.38 300.043 2085.38 305.83 M2081.12 304.58 Q2081.08 301.085 2079.15 299.001 Q2077.26 296.918 2074.11 296.918 Q2070.54 296.918 2068.39 298.932 Q2066.26 300.946 2065.94 304.603 L2081.12 304.58 Z" fill="#000000" fill-rule="nonzero" fill-opacity="1"></path><path clip-path="url(#clip320)" d="M2107.44 293.932 L2111.7 293.932 L2111.7 319.858 L2107.44 319.858 L2107.44 293.932 M2107.44 283.839 L2111.7 283.839 L2111.7 289.233 L2107.44 289.233 L2107.44 283.839 Z" fill="#000000" fill-rule="nonzero" fill-opacity="1"></path><path clip-path="url(#clip320)" d="M2142.16 304.209 L2142.16 319.858 L2137.9 319.858 L2137.9 304.348 Q2137.9 300.668 2136.47 298.839 Q2135.03 297.01 2132.16 297.01 Q2128.71 297.01 2126.72 299.21 Q2124.73 301.409 2124.73 305.205 L2124.73 319.858 L2120.45 319.858 L2120.45 293.932 L2124.73 293.932 L2124.73 297.96 Q2126.26 295.622 2128.32 294.464 Q2130.4 293.307 2133.11 293.307 Q2137.58 293.307 2139.87 296.085 Q2142.16 298.839 2142.16 304.209 Z" fill="#000000" fill-rule="nonzero" fill-opacity="1"></path><path clip-path="url(#clip320)" d="M2150.66 293.932 L2154.92 293.932 L2154.92 319.858 L2150.66 319.858 L2150.66 293.932 M2150.66 283.839 L2154.92 283.839 L2154.92 289.233 L2150.66 289.233 L2150.66 283.839 Z" fill="#000000" fill-rule="nonzero" fill-opacity="1"></path><path clip-path="url(#clip320)" d="M2168.04 286.571 L2168.04 293.932 L2176.82 293.932 L2176.82 297.242 L2168.04 297.242 L2168.04 311.316 Q2168.04 314.487 2168.9 315.39 Q2169.78 316.293 2172.44 316.293 L2176.82 316.293 L2176.82 319.858 L2172.44 319.858 Q2167.51 319.858 2165.64 318.029 Q2163.76 316.177 2163.76 311.316 L2163.76 297.242 L2160.64 297.242 L2160.64 293.932 L2163.76 293.932 L2163.76 286.571 L2168.04 286.571 Z" fill="#000000" fill-rule="nonzero" fill-opacity="1"></path><path clip-path="url(#clip320)" d="M2182.42 293.932 L2186.68 293.932 L2186.68 319.858 L2182.42 319.858 L2182.42 293.932 M2182.42 283.839 L2186.68 283.839 L2186.68 289.233 L2182.42 289.233 L2182.42 283.839 Z" fill="#000000" fill-rule="nonzero" fill-opacity="1"></path><path clip-path="url(#clip320)" d="M2207.37 306.825 Q2202.21 306.825 2200.22 308.006 Q2198.23 309.186 2198.23 312.034 Q2198.23 314.302 2199.71 315.645 Q2201.21 316.964 2203.78 316.964 Q2207.32 316.964 2209.45 314.464 Q2211.61 311.941 2211.61 307.774 L2211.61 306.825 L2207.37 306.825 M2215.87 305.066 L2215.87 319.858 L2211.61 319.858 L2211.61 315.922 Q2210.15 318.283 2207.97 319.418 Q2205.8 320.529 2202.65 320.529 Q2198.67 320.529 2196.31 318.307 Q2193.97 316.061 2193.97 312.311 Q2193.97 307.936 2196.89 305.714 Q2199.82 303.492 2205.63 303.492 L2211.61 303.492 L2211.61 303.075 Q2211.61 300.135 2209.66 298.538 Q2207.74 296.918 2204.25 296.918 Q2202.02 296.918 2199.92 297.45 Q2197.81 297.983 2195.87 299.047 L2195.87 295.112 Q2198.2 294.21 2200.4 293.77 Q2202.6 293.307 2204.69 293.307 Q2210.31 293.307 2213.09 296.223 Q2215.87 299.14 2215.87 305.066 Z" fill="#000000" fill-rule="nonzero" fill-opacity="1"></path><path clip-path="url(#clip320)" d="M2224.64 283.839 L2228.9 283.839 L2228.9 319.858 L2224.64 319.858 L2224.64 283.839 Z" fill="#000000" fill-rule="nonzero" fill-opacity="1"></path><path clip-path="url(#clip320)" d="M2259.99 305.83 L2259.99 307.913 L2240.4 307.913 Q2240.68 312.311 2243.04 314.626 Q2245.43 316.918 2249.66 316.918 Q2252.12 316.918 2254.41 316.316 Q2256.72 315.714 2258.99 314.51 L2258.99 318.538 Q2256.7 319.51 2254.29 320.02 Q2251.88 320.529 2249.41 320.529 Q2243.2 320.529 2239.57 316.918 Q2235.96 313.307 2235.96 307.149 Q2235.96 300.784 2239.38 297.057 Q2242.83 293.307 2248.67 293.307 Q2253.9 293.307 2256.93 296.686 Q2259.99 300.043 2259.99 305.83 M2255.73 304.58 Q2255.68 301.085 2253.76 299.001 Q2251.86 296.918 2248.71 296.918 Q2245.15 296.918 2243 298.932 Q2240.87 300.946 2240.54 304.603 L2255.73 304.58 Z" fill="#000000" fill-rule="nonzero" fill-opacity="1"></path><polyline clip-path="url(#clip320)" style="stroke:#000000; stroke-linecap:round; stroke-linejoin:round; stroke-width:4; stroke-opacity:1; fill:none" stroke-dasharray="16, 10" points="1752.92,354.418 1892.07,354.418 "></polyline>
<path clip-path="url(#clip320)" d="M1933.69 346.536 L1933.69 350.563 Q1931.89 349.637 1929.94 349.175 Q1928 348.712 1925.91 348.712 Q1922.74 348.712 1921.15 349.684 Q1919.57 350.656 1919.57 352.6 Q1919.57 354.082 1920.71 354.938 Q1921.84 355.772 1925.27 356.536 L1926.72 356.86 Q1931.26 357.832 1933.16 359.614 Q1935.08 361.374 1935.08 364.545 Q1935.08 368.156 1932.21 370.262 Q1929.36 372.369 1924.36 372.369 Q1922.28 372.369 1920.01 371.952 Q1917.77 371.559 1915.27 370.748 L1915.27 366.35 Q1917.63 367.577 1919.92 368.202 Q1922.21 368.804 1924.46 368.804 Q1927.47 368.804 1929.09 367.786 Q1930.71 366.744 1930.71 364.869 Q1930.71 363.133 1929.53 362.207 Q1928.37 361.281 1924.41 360.424 L1922.93 360.077 Q1918.97 359.244 1917.21 357.531 Q1915.45 355.795 1915.45 352.786 Q1915.45 349.128 1918.04 347.138 Q1920.64 345.147 1925.4 345.147 Q1927.77 345.147 1929.85 345.494 Q1931.93 345.841 1933.69 346.536 Z" fill="#000000" fill-rule="nonzero" fill-opacity="1"></path><path clip-path="url(#clip320)" d="M1941.42 361.466 L1941.42 345.772 L1945.68 345.772 L1945.68 361.304 Q1945.68 364.985 1947.12 366.836 Q1948.55 368.665 1951.42 368.665 Q1954.87 368.665 1956.86 366.466 Q1958.88 364.267 1958.88 360.471 L1958.88 345.772 L1963.14 345.772 L1963.14 371.698 L1958.88 371.698 L1958.88 367.716 Q1957.33 370.077 1955.27 371.235 Q1953.23 372.369 1950.52 372.369 Q1946.05 372.369 1943.74 369.591 Q1941.42 366.813 1941.42 361.466 M1952.14 345.147 L1952.14 345.147 Z" fill="#000000" fill-rule="nonzero" fill-opacity="1"></path><path clip-path="url(#clip320)" d="M1986.93 349.753 Q1986.21 349.337 1985.36 349.151 Q1984.53 348.943 1983.51 348.943 Q1979.9 348.943 1977.95 351.304 Q1976.03 353.642 1976.03 358.04 L1976.03 371.698 L1971.75 371.698 L1971.75 345.772 L1976.03 345.772 L1976.03 349.8 Q1977.37 347.438 1979.53 346.304 Q1981.68 345.147 1984.76 345.147 Q1985.2 345.147 1985.73 345.216 Q1986.26 345.263 1986.91 345.378 L1986.93 349.753 Z" fill="#000000" fill-rule="nonzero" fill-opacity="1"></path><path clip-path="url(#clip320)" d="M2004.52 335.679 L2004.52 339.221 L2000.45 339.221 Q1998.16 339.221 1997.26 340.147 Q1996.38 341.073 1996.38 343.48 L1996.38 345.772 L2003.39 345.772 L2003.39 349.082 L1996.38 349.082 L1996.38 371.698 L1992.09 371.698 L1992.09 349.082 L1988.02 349.082 L1988.02 345.772 L1992.09 345.772 L1992.09 343.966 Q1992.09 339.638 1994.11 337.67 Q1996.12 335.679 2000.5 335.679 L2004.52 335.679 Z" fill="#000000" fill-rule="nonzero" fill-opacity="1"></path><path clip-path="url(#clip320)" d="M2019.87 358.665 Q2014.71 358.665 2012.72 359.846 Q2010.73 361.026 2010.73 363.874 Q2010.73 366.142 2012.21 367.485 Q2013.71 368.804 2016.28 368.804 Q2019.83 368.804 2021.96 366.304 Q2024.11 363.781 2024.11 359.614 L2024.11 358.665 L2019.87 358.665 M2028.37 356.906 L2028.37 371.698 L2024.11 371.698 L2024.11 367.762 Q2022.65 370.123 2020.47 371.258 Q2018.3 372.369 2015.15 372.369 Q2011.17 372.369 2008.81 370.147 Q2006.47 367.901 2006.47 364.151 Q2006.47 359.776 2009.39 357.554 Q2012.33 355.332 2018.14 355.332 L2024.11 355.332 L2024.11 354.915 Q2024.11 351.975 2022.16 350.378 Q2020.24 348.758 2016.75 348.758 Q2014.52 348.758 2012.42 349.29 Q2010.31 349.823 2008.37 350.887 L2008.37 346.952 Q2010.71 346.05 2012.9 345.61 Q2015.1 345.147 2017.19 345.147 Q2022.81 345.147 2025.59 348.063 Q2028.37 350.98 2028.37 356.906 Z" fill="#000000" fill-rule="nonzero" fill-opacity="1"></path><path clip-path="url(#clip320)" d="M2055.8 346.767 L2055.8 350.749 Q2053.99 349.753 2052.16 349.267 Q2050.36 348.758 2048.51 348.758 Q2044.36 348.758 2042.07 351.397 Q2039.78 354.012 2039.78 358.758 Q2039.78 363.503 2042.07 366.142 Q2044.36 368.758 2048.51 368.758 Q2050.36 368.758 2052.16 368.272 Q2053.99 367.762 2055.8 366.767 L2055.8 370.702 Q2054.02 371.536 2052.09 371.952 Q2050.2 372.369 2048.04 372.369 Q2042.19 372.369 2038.74 368.688 Q2035.29 365.008 2035.29 358.758 Q2035.29 352.415 2038.76 348.781 Q2042.26 345.147 2048.32 345.147 Q2050.29 345.147 2052.16 345.563 Q2054.04 345.957 2055.8 346.767 Z" fill="#000000" fill-rule="nonzero" fill-opacity="1"></path><path clip-path="url(#clip320)" d="M2085.38 357.67 L2085.38 359.753 L2065.8 359.753 Q2066.08 364.151 2068.44 366.466 Q2070.82 368.758 2075.06 368.758 Q2077.51 368.758 2079.8 368.156 Q2082.12 367.554 2084.39 366.35 L2084.39 370.378 Q2082.09 371.35 2079.69 371.86 Q2077.28 372.369 2074.8 372.369 Q2068.6 372.369 2064.96 368.758 Q2061.35 365.147 2061.35 358.989 Q2061.35 352.624 2064.78 348.897 Q2068.23 345.147 2074.06 345.147 Q2079.29 345.147 2082.33 348.526 Q2085.38 351.883 2085.38 357.67 M2081.12 356.42 Q2081.08 352.925 2079.15 350.841 Q2077.26 348.758 2074.11 348.758 Q2070.54 348.758 2068.39 350.772 Q2066.26 352.786 2065.94 356.443 L2081.12 356.42 Z" fill="#000000" fill-rule="nonzero" fill-opacity="1"></path><path clip-path="url(#clip320)" d="M2117.49 348.758 Q2114.06 348.758 2112.07 351.443 Q2110.08 354.105 2110.08 358.758 Q2110.08 363.411 2112.05 366.096 Q2114.04 368.758 2117.49 368.758 Q2120.89 368.758 2122.88 366.073 Q2124.87 363.387 2124.87 358.758 Q2124.87 354.151 2122.88 351.466 Q2120.89 348.758 2117.49 348.758 M2117.49 345.147 Q2123.04 345.147 2126.21 348.758 Q2129.39 352.369 2129.39 358.758 Q2129.39 365.124 2126.21 368.758 Q2123.04 372.369 2117.49 372.369 Q2111.91 372.369 2108.74 368.758 Q2105.59 365.124 2105.59 358.758 Q2105.59 352.369 2108.74 348.758 Q2111.91 345.147 2117.49 345.147 Z" fill="#000000" fill-rule="nonzero" fill-opacity="1"></path><path clip-path="url(#clip320)" d="M2153.51 358.434 Q2153.51 353.804 2151.58 351.258 Q2149.69 348.712 2146.24 348.712 Q2142.81 348.712 2140.89 351.258 Q2138.99 353.804 2138.99 358.434 Q2138.99 363.04 2140.89 365.586 Q2142.81 368.133 2146.24 368.133 Q2149.69 368.133 2151.58 365.586 Q2153.51 363.04 2153.51 358.434 M2157.76 368.48 Q2157.76 375.1 2154.83 378.318 Q2151.89 381.559 2145.82 381.559 Q2143.58 381.559 2141.58 381.211 Q2139.59 380.887 2137.72 380.193 L2137.72 376.049 Q2139.59 377.068 2141.42 377.554 Q2143.25 378.04 2145.15 378.04 Q2149.34 378.04 2151.42 375.841 Q2153.51 373.665 2153.51 369.244 L2153.51 367.137 Q2152.19 369.429 2150.13 370.563 Q2148.07 371.698 2145.2 371.698 Q2140.43 371.698 2137.51 368.063 Q2134.59 364.429 2134.59 358.434 Q2134.59 352.415 2137.51 348.781 Q2140.43 345.147 2145.2 345.147 Q2148.07 345.147 2150.13 346.281 Q2152.19 347.415 2153.51 349.707 L2153.51 345.772 L2157.76 345.772 L2157.76 368.48 Z" fill="#000000" fill-rule="nonzero" fill-opacity="1"></path><path clip-path="url(#clip320)" d="M2183.6 358.434 Q2183.6 353.804 2181.68 351.258 Q2179.78 348.712 2176.33 348.712 Q2172.9 348.712 2170.98 351.258 Q2169.08 353.804 2169.08 358.434 Q2169.08 363.04 2170.98 365.586 Q2172.9 368.133 2176.33 368.133 Q2179.78 368.133 2181.68 365.586 Q2183.6 363.04 2183.6 358.434 M2187.86 368.48 Q2187.86 375.1 2184.92 378.318 Q2181.98 381.559 2175.91 381.559 Q2173.67 381.559 2171.68 381.211 Q2169.69 380.887 2167.81 380.193 L2167.81 376.049 Q2169.69 377.068 2171.51 377.554 Q2173.34 378.04 2175.24 378.04 Q2179.43 378.04 2181.51 375.841 Q2183.6 373.665 2183.6 369.244 L2183.6 367.137 Q2182.28 369.429 2180.22 370.563 Q2178.16 371.698 2175.29 371.698 Q2170.52 371.698 2167.6 368.063 Q2164.69 364.429 2164.69 358.434 Q2164.69 352.415 2167.6 348.781 Q2170.52 345.147 2175.29 345.147 Q2178.16 345.147 2180.22 346.281 Q2182.28 347.415 2183.6 349.707 L2183.6 345.772 L2187.86 345.772 L2187.86 368.48 Z" fill="#000000" fill-rule="nonzero" fill-opacity="1"></path><path clip-path="url(#clip320)" d="M2216.82 350.749 Q2218.41 347.878 2220.63 346.513 Q2222.86 345.147 2225.87 345.147 Q2229.92 345.147 2232.12 347.994 Q2234.32 350.818 2234.32 356.049 L2234.32 371.698 L2230.03 371.698 L2230.03 356.188 Q2230.03 352.462 2228.71 350.656 Q2227.39 348.85 2224.69 348.85 Q2221.38 348.85 2219.45 351.05 Q2217.53 353.249 2217.53 357.045 L2217.53 371.698 L2213.25 371.698 L2213.25 356.188 Q2213.25 352.438 2211.93 350.656 Q2210.61 348.85 2207.86 348.85 Q2204.59 348.85 2202.67 351.073 Q2200.75 353.272 2200.75 357.045 L2200.75 371.698 L2196.47 371.698 L2196.47 345.772 L2200.75 345.772 L2200.75 349.8 Q2202.21 347.415 2204.25 346.281 Q2206.28 345.147 2209.08 345.147 Q2211.91 345.147 2213.88 346.582 Q2215.87 348.017 2216.82 350.749 Z" fill="#000000" fill-rule="nonzero" fill-opacity="1"></path></svg>