<svg xmlns="http://www.w3.org/2000/svg" xmlns:xlink="http://www.w3.org/1999/xlink" width="600" height="400" viewBox="0 0 2400 1600">
<defs>
  <clipPath id="clip720">
    <rect x="0" y="0" width="2400" height="1600"></rect>
  </clipPath>
</defs>
<path clip-path="url(#clip720)" d="M0 1600 L2400 1600 L2400 0 L0 0  Z" fill="#ffffff" fill-rule="evenodd" fill-opacity="1"></path>
<defs>
  <clipPath id="clip721">
    <rect x="480" y="0" width="1681" height="1600"></rect>
  </clipPath>
</defs>
<path clip-path="url(#clip720)" d="M262.551 1486.45 L2352.76 1486.45 L2352.76 47.2441 L262.551 47.2441  Z" fill="#ffffff" fill-rule="evenodd" fill-opacity="1"></path>
<defs>
  <clipPath id="clip722">
    <rect x="262" y="47" width="2091" height="1440"></rect>
  </clipPath>
</defs>
<polyline clip-path="url(#clip722)" style="stroke:#000000; stroke-linecap:round; stroke-linejoin:round; stroke-width:2; stroke-opacity:0.1; fill:none" points="302.563,1486.45 302.563,47.2441 "></polyline>
<polyline clip-path="url(#clip722)" style="stroke:#000000; stroke-linecap:round; stroke-linejoin:round; stroke-width:2; stroke-opacity:0.1; fill:none" points="781.178,1486.45 781.178,47.2441 "></polyline>
<polyline clip-path="url(#clip722)" style="stroke:#000000; stroke-linecap:round; stroke-linejoin:round; stroke-width:2; stroke-opacity:0.1; fill:none" points="1259.79,1486.45 1259.79,47.2441 "></polyline>
<polyline clip-path="url(#clip722)" style="stroke:#000000; stroke-linecap:round; stroke-linejoin:round; stroke-width:2; stroke-opacity:0.1; fill:none" points="1738.41,1486.45 1738.41,47.2441 "></polyline>
<polyline clip-path="url(#clip722)" style="stroke:#000000; stroke-linecap:round; stroke-linejoin:round; stroke-width:2; stroke-opacity:0.1; fill:none" points="2217.02,1486.45 2217.02,47.2441 "></polyline>
<polyline clip-path="url(#clip720)" style="stroke:#000000; stroke-linecap:round; stroke-linejoin:round; stroke-width:4; stroke-opacity:1; fill:none" points="262.551,1486.45 2352.76,1486.45 "></polyline>
<polyline clip-path="url(#clip720)" style="stroke:#000000; stroke-linecap:round; stroke-linejoin:round; stroke-width:4; stroke-opacity:1; fill:none" points="302.563,1486.45 302.563,1467.55 "></polyline>
<polyline clip-path="url(#clip720)" style="stroke:#000000; stroke-linecap:round; stroke-linejoin:round; stroke-width:4; stroke-opacity:1; fill:none" points="781.178,1486.45 781.178,1467.55 "></polyline>
<polyline clip-path="url(#clip720)" style="stroke:#000000; stroke-linecap:round; stroke-linejoin:round; stroke-width:4; stroke-opacity:1; fill:none" points="1259.79,1486.45 1259.79,1467.55 "></polyline>
<polyline clip-path="url(#clip720)" style="stroke:#000000; stroke-linecap:round; stroke-linejoin:round; stroke-width:4; stroke-opacity:1; fill:none" points="1738.41,1486.45 1738.41,1467.55 "></polyline>
<polyline clip-path="url(#clip720)" style="stroke:#000000; stroke-linecap:round; stroke-linejoin:round; stroke-width:4; stroke-opacity:1; fill:none" points="2217.02,1486.45 2217.02,1467.55 "></polyline>
<path clip-path="url(#clip720)" d="M302.563 1517.37 Q298.952 1517.37 297.124 1520.93 Q295.318 1524.47 295.318 1531.6 Q295.318 1538.71 297.124 1542.27 Q298.952 1545.82 302.563 1545.82 Q306.198 1545.82 308.003 1542.27 Q309.832 1538.71 309.832 1531.6 Q309.832 1524.47 308.003 1520.93 Q306.198 1517.37 302.563 1517.37 M302.563 1513.66 Q308.374 1513.66 311.429 1518.27 Q314.508 1522.85 314.508 1531.6 Q314.508 1540.33 311.429 1544.94 Q308.374 1549.52 302.563 1549.52 Q296.753 1549.52 293.675 1544.94 Q290.619 1540.33 290.619 1531.6 Q290.619 1522.85 293.675 1518.27 Q296.753 1513.66 302.563 1513.66 Z" fill="#000000" fill-rule="nonzero" fill-opacity="1"></path><path clip-path="url(#clip720)" d="M760.449 1544.91 L776.768 1544.91 L776.768 1548.85 L754.824 1548.85 L754.824 1544.91 Q757.486 1542.16 762.069 1537.53 Q766.676 1532.88 767.856 1531.53 Q770.101 1529.01 770.981 1527.27 Q771.884 1525.51 771.884 1523.82 Q771.884 1521.07 769.939 1519.33 Q768.018 1517.6 764.916 1517.6 Q762.717 1517.6 760.264 1518.36 Q757.833 1519.13 755.055 1520.68 L755.055 1515.95 Q757.879 1514.82 760.333 1514.24 Q762.787 1513.66 764.824 1513.66 Q770.194 1513.66 773.388 1516.35 Q776.583 1519.03 776.583 1523.52 Q776.583 1525.65 775.773 1527.57 Q774.986 1529.47 772.879 1532.07 Q772.3 1532.74 769.199 1535.95 Q766.097 1539.15 760.449 1544.91 Z" fill="#000000" fill-rule="nonzero" fill-opacity="1"></path><path clip-path="url(#clip720)" d="M786.629 1514.29 L804.985 1514.29 L804.985 1518.22 L790.911 1518.22 L790.911 1526.7 Q791.93 1526.35 792.949 1526.19 Q793.967 1526 794.986 1526 Q800.773 1526 804.152 1529.17 Q807.532 1532.34 807.532 1537.76 Q807.532 1543.34 804.06 1546.44 Q800.587 1549.52 794.268 1549.52 Q792.092 1549.52 789.824 1549.15 Q787.578 1548.78 785.171 1548.04 L785.171 1543.34 Q787.254 1544.47 789.476 1545.03 Q791.699 1545.58 794.175 1545.58 Q798.18 1545.58 800.518 1543.48 Q802.856 1541.37 802.856 1537.76 Q802.856 1534.15 800.518 1532.04 Q798.18 1529.94 794.175 1529.94 Q792.3 1529.94 790.425 1530.35 Q788.574 1530.77 786.629 1531.65 L786.629 1514.29 Z" fill="#000000" fill-rule="nonzero" fill-opacity="1"></path><path clip-path="url(#clip720)" d="M1234.49 1514.29 L1252.85 1514.29 L1252.85 1518.22 L1238.77 1518.22 L1238.77 1526.7 Q1239.79 1526.35 1240.81 1526.19 Q1241.83 1526 1242.85 1526 Q1248.63 1526 1252.01 1529.17 Q1255.39 1532.34 1255.39 1537.76 Q1255.39 1543.34 1251.92 1546.44 Q1248.45 1549.52 1242.13 1549.52 Q1239.95 1549.52 1237.69 1549.15 Q1235.44 1548.78 1233.03 1548.04 L1233.03 1543.34 Q1235.12 1544.47 1237.34 1545.03 Q1239.56 1545.58 1242.04 1545.58 Q1246.04 1545.58 1248.38 1543.48 Q1250.72 1541.37 1250.72 1537.76 Q1250.72 1534.15 1248.38 1532.04 Q1246.04 1529.94 1242.04 1529.94 Q1240.16 1529.94 1238.29 1530.35 Q1236.44 1530.77 1234.49 1531.65 L1234.49 1514.29 Z" fill="#000000" fill-rule="nonzero" fill-opacity="1"></path><path clip-path="url(#clip720)" d="M1274.61 1517.37 Q1271 1517.37 1269.17 1520.93 Q1267.36 1524.47 1267.36 1531.6 Q1267.36 1538.71 1269.17 1542.27 Q1271 1545.82 1274.61 1545.82 Q1278.24 1545.82 1280.05 1542.27 Q1281.88 1538.71 1281.88 1531.6 Q1281.88 1524.47 1280.05 1520.93 Q1278.24 1517.37 1274.61 1517.37 M1274.61 1513.66 Q1280.42 1513.66 1283.47 1518.27 Q1286.55 1522.85 1286.55 1531.6 Q1286.55 1540.33 1283.47 1544.94 Q1280.42 1549.52 1274.61 1549.52 Q1268.8 1549.52 1265.72 1544.94 Q1262.66 1540.33 1262.66 1531.6 Q1262.66 1522.85 1265.72 1518.27 Q1268.8 1513.66 1274.61 1513.66 Z" fill="#000000" fill-rule="nonzero" fill-opacity="1"></path><path clip-path="url(#clip720)" d="M1712.26 1514.29 L1734.48 1514.29 L1734.48 1516.28 L1721.94 1548.85 L1717.05 1548.85 L1728.86 1518.22 L1712.26 1518.22 L1712.26 1514.29 Z" fill="#000000" fill-rule="nonzero" fill-opacity="1"></path><path clip-path="url(#clip720)" d="M1743.65 1514.29 L1762.01 1514.29 L1762.01 1518.22 L1747.93 1518.22 L1747.93 1526.7 Q1748.95 1526.35 1749.97 1526.19 Q1750.99 1526 1752.01 1526 Q1757.79 1526 1761.17 1529.17 Q1764.55 1532.34 1764.55 1537.76 Q1764.55 1543.34 1761.08 1546.44 Q1757.61 1549.52 1751.29 1549.52 Q1749.11 1549.52 1746.84 1549.15 Q1744.6 1548.78 1742.19 1548.04 L1742.19 1543.34 Q1744.27 1544.47 1746.5 1545.03 Q1748.72 1545.58 1751.2 1545.58 Q1755.2 1545.58 1757.54 1543.48 Q1759.88 1541.37 1759.88 1537.76 Q1759.88 1534.15 1757.54 1532.04 Q1755.2 1529.94 1751.2 1529.94 Q1749.32 1529.94 1747.45 1530.35 Q1745.59 1530.77 1743.65 1531.65 L1743.65 1514.29 Z" fill="#000000" fill-rule="nonzero" fill-opacity="1"></path><path clip-path="url(#clip720)" d="M2176.63 1544.91 L2184.27 1544.91 L2184.27 1518.55 L2175.96 1520.21 L2175.96 1515.95 L2184.22 1514.29 L2188.9 1514.29 L2188.9 1544.91 L2196.53 1544.91 L2196.53 1548.85 L2176.63 1548.85 L2176.63 1544.91 Z" fill="#000000" fill-rule="nonzero" fill-opacity="1"></path><path clip-path="url(#clip720)" d="M2215.98 1517.37 Q2212.37 1517.37 2210.54 1520.93 Q2208.73 1524.47 2208.73 1531.6 Q2208.73 1538.71 2210.54 1542.27 Q2212.37 1545.82 2215.98 1545.82 Q2219.61 1545.82 2221.42 1542.27 Q2223.25 1538.71 2223.25 1531.6 Q2223.25 1524.47 2221.42 1520.93 Q2219.61 1517.37 2215.98 1517.37 M2215.98 1513.66 Q2221.79 1513.66 2224.84 1518.27 Q2227.92 1522.85 2227.92 1531.6 Q2227.92 1540.33 2224.84 1544.94 Q2221.79 1549.52 2215.98 1549.52 Q2210.17 1549.52 2207.09 1544.94 Q2204.03 1540.33 2204.03 1531.6 Q2204.03 1522.85 2207.09 1518.27 Q2210.17 1513.66 2215.98 1513.66 Z" fill="#000000" fill-rule="nonzero" fill-opacity="1"></path><path clip-path="url(#clip720)" d="M2246.14 1517.37 Q2242.53 1517.37 2240.7 1520.93 Q2238.9 1524.47 2238.9 1531.6 Q2238.9 1538.71 2240.7 1542.27 Q2242.53 1545.82 2246.14 1545.82 Q2249.78 1545.82 2251.58 1542.27 Q2253.41 1538.71 2253.41 1531.6 Q2253.41 1524.47 2251.58 1520.93 Q2249.78 1517.37 2246.14 1517.37 M2246.14 1513.66 Q2251.95 1513.66 2255.01 1518.27 Q2258.09 1522.85 2258.09 1531.6 Q2258.09 1540.33 2255.01 1544.94 Q2251.95 1549.52 2246.14 1549.52 Q2240.33 1549.52 2237.25 1544.94 Q2234.2 1540.33 2234.2 1531.6 Q2234.2 1522.85 2237.25 1518.27 Q2240.33 1513.66 2246.14 1513.66 Z" fill="#000000" fill-rule="nonzero" fill-opacity="1"></path><polyline clip-path="url(#clip722)" style="stroke:#000000; stroke-linecap:round; stroke-linejoin:round; stroke-width:2; stroke-opacity:0.1; fill:none" points="262.551,1272.34 2352.76,1272.34 "></polyline>
<polyline clip-path="url(#clip722)" style="stroke:#000000; stroke-linecap:round; stroke-linejoin:round; stroke-width:2; stroke-opacity:0.1; fill:none" points="262.551,1004.12 2352.76,1004.12 "></polyline>
<polyline clip-path="url(#clip722)" style="stroke:#000000; stroke-linecap:round; stroke-linejoin:round; stroke-width:2; stroke-opacity:0.1; fill:none" points="262.551,735.896 2352.76,735.896 "></polyline>
<polyline clip-path="url(#clip722)" style="stroke:#000000; stroke-linecap:round; stroke-linejoin:round; stroke-width:2; stroke-opacity:0.1; fill:none" points="262.551,467.672 2352.76,467.672 "></polyline>
<polyline clip-path="url(#clip722)" style="stroke:#000000; stroke-linecap:round; stroke-linejoin:round; stroke-width:2; stroke-opacity:0.1; fill:none" points="262.551,199.449 2352.76,199.449 "></polyline>
<polyline clip-path="url(#clip720)" style="stroke:#000000; stroke-linecap:round; stroke-linejoin:round; stroke-width:4; stroke-opacity:1; fill:none" points="262.551,1486.45 262.551,47.2441 "></polyline>
<polyline clip-path="url(#clip720)" style="stroke:#000000; stroke-linecap:round; stroke-linejoin:round; stroke-width:4; stroke-opacity:1; fill:none" points="262.551,1272.34 281.449,1272.34 "></polyline>
<polyline clip-path="url(#clip720)" style="stroke:#000000; stroke-linecap:round; stroke-linejoin:round; stroke-width:4; stroke-opacity:1; fill:none" points="262.551,1004.12 281.449,1004.12 "></polyline>
<polyline clip-path="url(#clip720)" style="stroke:#000000; stroke-linecap:round; stroke-linejoin:round; stroke-width:4; stroke-opacity:1; fill:none" points="262.551,735.896 281.449,735.896 "></polyline>
<polyline clip-path="url(#clip720)" style="stroke:#000000; stroke-linecap:round; stroke-linejoin:round; stroke-width:4; stroke-opacity:1; fill:none" points="262.551,467.672 281.449,467.672 "></polyline>
<polyline clip-path="url(#clip720)" style="stroke:#000000; stroke-linecap:round; stroke-linejoin:round; stroke-width:4; stroke-opacity:1; fill:none" points="262.551,199.449 281.449,199.449 "></polyline>
<path clip-path="url(#clip720)" d="M114.931 1285.69 L122.57 1285.69 L122.57 1259.32 L114.26 1260.99 L114.26 1256.73 L122.524 1255.06 L127.2 1255.06 L127.2 1285.69 L134.839 1285.69 L134.839 1289.62 L114.931 1289.62 L114.931 1285.69 Z" fill="#000000" fill-rule="nonzero" fill-opacity="1"></path><path clip-path="url(#clip720)" d="M154.283 1258.14 Q150.672 1258.14 148.843 1261.71 Q147.038 1265.25 147.038 1272.38 Q147.038 1279.48 148.843 1283.05 Q150.672 1286.59 154.283 1286.59 Q157.917 1286.59 159.723 1283.05 Q161.552 1279.48 161.552 1272.38 Q161.552 1265.25 159.723 1261.71 Q157.917 1258.14 154.283 1258.14 M154.283 1254.44 Q160.093 1254.44 163.149 1259.05 Q166.227 1263.63 166.227 1272.38 Q166.227 1281.11 163.149 1285.71 Q160.093 1290.29 154.283 1290.29 Q148.473 1290.29 145.394 1285.71 Q142.339 1281.11 142.339 1272.38 Q142.339 1263.63 145.394 1259.05 Q148.473 1254.44 154.283 1254.44 Z" fill="#000000" fill-rule="nonzero" fill-opacity="1"></path><path clip-path="url(#clip720)" d="M184.445 1258.14 Q180.834 1258.14 179.005 1261.71 Q177.2 1265.25 177.2 1272.38 Q177.2 1279.48 179.005 1283.05 Q180.834 1286.59 184.445 1286.59 Q188.079 1286.59 189.885 1283.05 Q191.713 1279.48 191.713 1272.38 Q191.713 1265.25 189.885 1261.71 Q188.079 1258.14 184.445 1258.14 M184.445 1254.44 Q190.255 1254.44 193.311 1259.05 Q196.389 1263.63 196.389 1272.38 Q196.389 1281.11 193.311 1285.71 Q190.255 1290.29 184.445 1290.29 Q178.635 1290.29 175.556 1285.71 Q172.501 1281.11 172.501 1272.38 Q172.501 1263.63 175.556 1259.05 Q178.635 1254.44 184.445 1254.44 Z" fill="#000000" fill-rule="nonzero" fill-opacity="1"></path><path clip-path="url(#clip720)" d="M214.607 1258.14 Q210.996 1258.14 209.167 1261.71 Q207.362 1265.25 207.362 1272.38 Q207.362 1279.48 209.167 1283.05 Q210.996 1286.59 214.607 1286.59 Q218.241 1286.59 220.047 1283.05 Q221.875 1279.48 221.875 1272.38 Q221.875 1265.25 220.047 1261.71 Q218.241 1258.14 214.607 1258.14 M214.607 1254.44 Q220.417 1254.44 223.473 1259.05 Q226.551 1263.63 226.551 1272.38 Q226.551 1281.11 223.473 1285.71 Q220.417 1290.29 214.607 1290.29 Q208.797 1290.29 205.718 1285.71 Q202.662 1281.11 202.662 1272.38 Q202.662 1263.63 205.718 1259.05 Q208.797 1254.44 214.607 1254.44 Z" fill="#000000" fill-rule="nonzero" fill-opacity="1"></path><path clip-path="url(#clip720)" d="M114.931 1017.46 L122.57 1017.46 L122.57 991.099 L114.26 992.766 L114.26 988.507 L122.524 986.84 L127.2 986.84 L127.2 1017.46 L134.839 1017.46 L134.839 1021.4 L114.931 1021.4 L114.931 1017.46 Z" fill="#000000" fill-rule="nonzero" fill-opacity="1"></path><path clip-path="url(#clip720)" d="M148.311 1017.46 L164.63 1017.46 L164.63 1021.4 L142.686 1021.4 L142.686 1017.46 Q145.348 1014.71 149.931 1010.08 Q154.538 1005.43 155.718 1004.09 Q157.964 1001.56 158.843 999.826 Q159.746 998.067 159.746 996.377 Q159.746 993.622 157.802 991.886 Q155.88 990.15 152.778 990.15 Q150.579 990.15 148.126 990.914 Q145.695 991.678 142.917 993.229 L142.917 988.507 Q145.741 987.372 148.195 986.794 Q150.649 986.215 152.686 986.215 Q158.056 986.215 161.251 988.9 Q164.445 991.585 164.445 996.076 Q164.445 998.206 163.635 1000.13 Q162.848 1002.02 160.741 1004.62 Q160.163 1005.29 157.061 1008.51 Q153.959 1011.7 148.311 1017.46 Z" fill="#000000" fill-rule="nonzero" fill-opacity="1"></path><path clip-path="url(#clip720)" d="M184.445 989.919 Q180.834 989.919 179.005 993.483 Q177.2 997.025 177.2 1004.15 Q177.2 1011.26 179.005 1014.83 Q180.834 1018.37 184.445 1018.37 Q188.079 1018.37 189.885 1014.83 Q191.713 1011.26 191.713 1004.15 Q191.713 997.025 189.885 993.483 Q188.079 989.919 184.445 989.919 M184.445 986.215 Q190.255 986.215 193.311 990.821 Q196.389 995.405 196.389 1004.15 Q196.389 1012.88 193.311 1017.49 Q190.255 1022.07 184.445 1022.07 Q178.635 1022.07 175.556 1017.49 Q172.501 1012.88 172.501 1004.15 Q172.501 995.405 175.556 990.821 Q178.635 986.215 184.445 986.215 Z" fill="#000000" fill-rule="nonzero" fill-opacity="1"></path><path clip-path="url(#clip720)" d="M214.607 989.919 Q210.996 989.919 209.167 993.483 Q207.362 997.025 207.362 1004.15 Q207.362 1011.26 209.167 1014.83 Q210.996 1018.37 214.607 1018.37 Q218.241 1018.37 220.047 1014.83 Q221.875 1011.26 221.875 1004.15 Q221.875 997.025 220.047 993.483 Q218.241 989.919 214.607 989.919 M214.607 986.215 Q220.417 986.215 223.473 990.821 Q226.551 995.405 226.551 1004.15 Q226.551 1012.88 223.473 1017.49 Q220.417 1022.07 214.607 1022.07 Q208.797 1022.07 205.718 1017.49 Q202.662 1012.88 202.662 1004.15 Q202.662 995.405 205.718 990.821 Q208.797 986.215 214.607 986.215 Z" fill="#000000" fill-rule="nonzero" fill-opacity="1"></path><path clip-path="url(#clip720)" d="M114.931 749.241 L122.57 749.241 L122.57 722.875 L114.26 724.542 L114.26 720.283 L122.524 718.616 L127.2 718.616 L127.2 749.241 L134.839 749.241 L134.839 753.176 L114.931 753.176 L114.931 749.241 Z" fill="#000000" fill-rule="nonzero" fill-opacity="1"></path><path clip-path="url(#clip720)" d="M157.13 722.69 L145.325 741.139 L157.13 741.139 L157.13 722.69 M155.903 718.616 L161.783 718.616 L161.783 741.139 L166.714 741.139 L166.714 745.028 L161.783 745.028 L161.783 753.176 L157.13 753.176 L157.13 745.028 L141.529 745.028 L141.529 740.514 L155.903 718.616 Z" fill="#000000" fill-rule="nonzero" fill-opacity="1"></path><path clip-path="url(#clip720)" d="M184.445 721.695 Q180.834 721.695 179.005 725.26 Q177.2 728.801 177.2 735.931 Q177.2 743.037 179.005 746.602 Q180.834 750.144 184.445 750.144 Q188.079 750.144 189.885 746.602 Q191.713 743.037 191.713 735.931 Q191.713 728.801 189.885 725.26 Q188.079 721.695 184.445 721.695 M184.445 717.991 Q190.255 717.991 193.311 722.598 Q196.389 727.181 196.389 735.931 Q196.389 744.658 193.311 749.264 Q190.255 753.847 184.445 753.847 Q178.635 753.847 175.556 749.264 Q172.501 744.658 172.501 735.931 Q172.501 727.181 175.556 722.598 Q178.635 717.991 184.445 717.991 Z" fill="#000000" fill-rule="nonzero" fill-opacity="1"></path><path clip-path="url(#clip720)" d="M214.607 721.695 Q210.996 721.695 209.167 725.26 Q207.362 728.801 207.362 735.931 Q207.362 743.037 209.167 746.602 Q210.996 750.144 214.607 750.144 Q218.241 750.144 220.047 746.602 Q221.875 743.037 221.875 735.931 Q221.875 728.801 220.047 725.26 Q218.241 721.695 214.607 721.695 M214.607 717.991 Q220.417 717.991 223.473 722.598 Q226.551 727.181 226.551 735.931 Q226.551 744.658 223.473 749.264 Q220.417 753.847 214.607 753.847 Q208.797 753.847 205.718 749.264 Q202.662 744.658 202.662 735.931 Q202.662 727.181 205.718 722.598 Q208.797 717.991 214.607 717.991 Z" fill="#000000" fill-rule="nonzero" fill-opacity="1"></path><path clip-path="url(#clip720)" d="M114.931 481.017 L122.57 481.017 L122.57 454.652 L114.26 456.318 L114.26 452.059 L122.524 450.392 L127.2 450.392 L127.2 481.017 L134.839 481.017 L134.839 484.952 L114.931 484.952 L114.931 481.017 Z" fill="#000000" fill-rule="nonzero" fill-opacity="1"></path><path clip-path="url(#clip720)" d="M154.862 465.809 Q151.714 465.809 149.862 467.962 Q148.033 470.115 148.033 473.865 Q148.033 477.591 149.862 479.767 Q151.714 481.92 154.862 481.92 Q158.01 481.92 159.839 479.767 Q161.69 477.591 161.69 473.865 Q161.69 470.115 159.839 467.962 Q158.01 465.809 154.862 465.809 M164.144 451.156 L164.144 455.416 Q162.385 454.582 160.579 454.142 Q158.797 453.703 157.038 453.703 Q152.408 453.703 149.954 456.828 Q147.524 459.953 147.177 466.272 Q148.542 464.258 150.603 463.193 Q152.663 462.105 155.14 462.105 Q160.348 462.105 163.357 465.277 Q166.39 468.425 166.39 473.865 Q166.39 479.189 163.241 482.406 Q160.093 485.624 154.862 485.624 Q148.866 485.624 145.695 481.04 Q142.524 476.434 142.524 467.707 Q142.524 459.513 146.413 454.652 Q150.302 449.767 156.853 449.767 Q158.612 449.767 160.394 450.115 Q162.2 450.462 164.144 451.156 Z" fill="#000000" fill-rule="nonzero" fill-opacity="1"></path><path clip-path="url(#clip720)" d="M184.445 453.471 Q180.834 453.471 179.005 457.036 Q177.2 460.578 177.2 467.707 Q177.2 474.814 179.005 478.378 Q180.834 481.92 184.445 481.92 Q188.079 481.92 189.885 478.378 Q191.713 474.814 191.713 467.707 Q191.713 460.578 189.885 457.036 Q188.079 453.471 184.445 453.471 M184.445 449.767 Q190.255 449.767 193.311 454.374 Q196.389 458.957 196.389 467.707 Q196.389 476.434 193.311 481.04 Q190.255 485.624 184.445 485.624 Q178.635 485.624 175.556 481.04 Q172.501 476.434 172.501 467.707 Q172.501 458.957 175.556 454.374 Q178.635 449.767 184.445 449.767 Z" fill="#000000" fill-rule="nonzero" fill-opacity="1"></path><path clip-path="url(#clip720)" d="M214.607 453.471 Q210.996 453.471 209.167 457.036 Q207.362 460.578 207.362 467.707 Q207.362 474.814 209.167 478.378 Q210.996 481.92 214.607 481.92 Q218.241 481.92 220.047 478.378 Q221.875 474.814 221.875 467.707 Q221.875 460.578 220.047 457.036 Q218.241 453.471 214.607 453.471 M214.607 449.767 Q220.417 449.767 223.473 454.374 Q226.551 458.957 226.551 467.707 Q226.551 476.434 223.473 481.04 Q220.417 485.624 214.607 485.624 Q208.797 485.624 205.718 481.04 Q202.662 476.434 202.662 467.707 Q202.662 458.957 205.718 454.374 Q208.797 449.767 214.607 449.767 Z" fill="#000000" fill-rule="nonzero" fill-opacity="1"></path><path clip-path="url(#clip720)" d="M114.931 212.794 L122.57 212.794 L122.57 186.428 L114.26 188.095 L114.26 183.835 L122.524 182.169 L127.2 182.169 L127.2 212.794 L134.839 212.794 L134.839 216.729 L114.931 216.729 L114.931 212.794 Z" fill="#000000" fill-rule="nonzero" fill-opacity="1"></path><path clip-path="url(#clip720)" d="M154.283 200.317 Q150.95 200.317 149.028 202.099 Q147.13 203.882 147.13 207.007 Q147.13 210.132 149.028 211.914 Q150.95 213.696 154.283 213.696 Q157.616 213.696 159.538 211.914 Q161.459 210.108 161.459 207.007 Q161.459 203.882 159.538 202.099 Q157.64 200.317 154.283 200.317 M149.607 198.326 Q146.598 197.585 144.908 195.525 Q143.241 193.465 143.241 190.502 Q143.241 186.359 146.181 183.951 Q149.144 181.544 154.283 181.544 Q159.445 181.544 162.385 183.951 Q165.325 186.359 165.325 190.502 Q165.325 193.465 163.635 195.525 Q161.968 197.585 158.982 198.326 Q162.362 199.113 164.237 201.405 Q166.135 203.696 166.135 207.007 Q166.135 212.03 163.056 214.715 Q160.001 217.4 154.283 217.4 Q148.566 217.4 145.487 214.715 Q142.431 212.03 142.431 207.007 Q142.431 203.696 144.329 201.405 Q146.228 199.113 149.607 198.326 M147.894 190.942 Q147.894 193.627 149.561 195.132 Q151.251 196.636 154.283 196.636 Q157.292 196.636 158.982 195.132 Q160.695 193.627 160.695 190.942 Q160.695 188.257 158.982 186.752 Q157.292 185.247 154.283 185.247 Q151.251 185.247 149.561 186.752 Q147.894 188.257 147.894 190.942 Z" fill="#000000" fill-rule="nonzero" fill-opacity="1"></path><path clip-path="url(#clip720)" d="M184.445 185.247 Q180.834 185.247 179.005 188.812 Q177.2 192.354 177.2 199.483 Q177.2 206.59 179.005 210.155 Q180.834 213.696 184.445 213.696 Q188.079 213.696 189.885 210.155 Q191.713 206.59 191.713 199.483 Q191.713 192.354 189.885 188.812 Q188.079 185.247 184.445 185.247 M184.445 181.544 Q190.255 181.544 193.311 186.15 Q196.389 190.733 196.389 199.483 Q196.389 208.21 193.311 212.817 Q190.255 217.4 184.445 217.4 Q178.635 217.4 175.556 212.817 Q172.501 208.21 172.501 199.483 Q172.501 190.733 175.556 186.15 Q178.635 181.544 184.445 181.544 Z" fill="#000000" fill-rule="nonzero" fill-opacity="1"></path><path clip-path="url(#clip720)" d="M214.607 185.247 Q210.996 185.247 209.167 188.812 Q207.362 192.354 207.362 199.483 Q207.362 206.59 209.167 210.155 Q210.996 213.696 214.607 213.696 Q218.241 213.696 220.047 210.155 Q221.875 206.59 221.875 199.483 Q221.875 192.354 220.047 188.812 Q218.241 185.247 214.607 185.247 M214.607 181.544 Q220.417 181.544 223.473 186.15 Q226.551 190.733 226.551 199.483 Q226.551 208.21 223.473 212.817 Q220.417 217.4 214.607 217.4 Q208.797 217.4 205.718 212.817 Q202.662 208.21 202.662 199.483 Q202.662 190.733 205.718 186.15 Q208.797 181.544 214.607 181.544 Z" fill="#000000" fill-rule="nonzero" fill-opacity="1"></path><path clip-path="url(#clip720)" d="M16.4842 1067.23 L16.4842 1037.18 L21.895 1037.18 L21.895 1060.8 L35.9632 1060.8 L35.9632 1038.17 L41.3741 1038.17 L41.3741 1060.8 L58.5933 1060.8 L58.5933 1036.61 L64.0042 1036.61 L64.0042 1067.23 L16.4842 1067.23 Z" fill="#000000" fill-rule="nonzero" fill-opacity="1"></path><path clip-path="url(#clip720)" d="M14.479 1026.3 L14.479 1020.44 L64.0042 1020.44 L64.0042 1026.3 L14.479 1026.3 Z" fill="#000000" fill-rule="nonzero" fill-opacity="1"></path><path clip-path="url(#clip720)" d="M44.7161 977.694 L47.5806 977.694 L47.5806 1004.62 Q53.6281 1004.24 56.8109 1000.99 Q59.9619 997.714 59.9619 991.89 Q59.9619 988.516 59.1344 985.365 Q58.3069 982.182 56.6518 979.063 L62.1899 979.063 Q63.5267 982.214 64.227 985.524 Q64.9272 988.834 64.9272 992.24 Q64.9272 1000.77 59.9619 1005.77 Q54.9967 1010.73 46.5303 1010.73 Q37.7774 1010.73 32.6531 1006.02 Q27.4968 1001.28 27.4968 993.258 Q27.4968 986.065 32.1438 981.895 Q36.7589 977.694 44.7161 977.694 M42.9973 983.551 Q38.1912 983.614 35.3266 986.256 Q32.4621 988.866 32.4621 993.195 Q32.4621 998.096 35.2312 1001.06 Q38.0002 1003.98 43.0292 1004.43 L42.9973 983.551 Z" fill="#000000" fill-rule="nonzero" fill-opacity="1"></path><path clip-path="url(#clip720)" d="M28.3562 972.283 L28.3562 966.077 L58.275 954.937 L28.3562 943.797 L28.3562 937.59 L64.0042 950.958 L64.0042 958.915 L28.3562 972.283 Z" fill="#000000" fill-rule="nonzero" fill-opacity="1"></path><path clip-path="url(#clip720)" d="M46.0847 913.305 Q46.0847 920.403 47.7079 923.14 Q49.3312 925.877 53.2461 925.877 Q56.3653 925.877 58.2114 923.84 Q60.0256 921.771 60.0256 918.238 Q60.0256 913.369 56.5881 910.44 Q53.1188 907.48 47.3897 907.48 L46.0847 907.48 L46.0847 913.305 M43.6657 901.624 L64.0042 901.624 L64.0042 907.48 L58.5933 907.48 Q61.8398 909.486 63.3994 912.477 Q64.9272 915.469 64.9272 919.798 Q64.9272 925.273 61.8716 928.519 Q58.7843 931.734 53.6281 931.734 Q47.6125 931.734 44.5569 927.723 Q41.5014 923.681 41.5014 915.692 L41.5014 907.48 L40.9285 907.48 Q36.8862 907.48 34.6901 910.154 Q32.4621 912.796 32.4621 917.602 Q32.4621 920.657 33.1941 923.554 Q33.9262 926.45 35.3903 929.124 L29.9795 929.124 Q28.7381 925.909 28.1334 922.885 Q27.4968 919.862 27.4968 916.997 Q27.4968 909.263 31.5072 905.443 Q35.5176 901.624 43.6657 901.624 Z" fill="#000000" fill-rule="nonzero" fill-opacity="1"></path><path clip-path="url(#clip720)" d="M18.2347 883.768 L28.3562 883.768 L28.3562 871.705 L32.9077 871.705 L32.9077 883.768 L52.2594 883.768 Q56.6199 883.768 57.8613 882.59 Q59.1026 881.381 59.1026 877.721 L59.1026 871.705 L64.0042 871.705 L64.0042 877.721 Q64.0042 884.5 61.4897 887.078 Q58.9434 889.656 52.2594 889.656 L32.9077 889.656 L32.9077 893.953 L28.3562 893.953 L28.3562 889.656 L18.2347 889.656 L18.2347 883.768 Z" fill="#000000" fill-rule="nonzero" fill-opacity="1"></path><path clip-path="url(#clip720)" d="M28.3562 864.003 L28.3562 858.146 L64.0042 858.146 L64.0042 864.003 L28.3562 864.003 M14.479 864.003 L14.479 858.146 L21.895 858.146 L21.895 864.003 L14.479 864.003 Z" fill="#000000" fill-rule="nonzero" fill-opacity="1"></path><path clip-path="url(#clip720)" d="M32.4621 832.079 Q32.4621 836.789 36.1542 839.526 Q39.8145 842.264 46.212 842.264 Q52.6095 842.264 56.3017 839.558 Q59.9619 836.821 59.9619 832.079 Q59.9619 827.4 56.2698 824.663 Q52.5777 821.925 46.212 821.925 Q39.8781 821.925 36.186 824.663 Q32.4621 827.4 32.4621 832.079 M27.4968 832.079 Q27.4968 824.44 32.4621 820.079 Q37.4273 815.719 46.212 815.719 Q54.9649 815.719 59.9619 820.079 Q64.9272 824.44 64.9272 832.079 Q64.9272 839.749 59.9619 844.11 Q54.9649 848.438 46.212 848.438 Q37.4273 848.438 32.4621 844.11 Q27.4968 839.749 27.4968 832.079 Z" fill="#000000" fill-rule="nonzero" fill-opacity="1"></path><path clip-path="url(#clip720)" d="M42.4881 776.379 L64.0042 776.379 L64.0042 782.235 L42.679 782.235 Q37.6183 782.235 35.1038 784.208 Q32.5894 786.182 32.5894 790.129 Q32.5894 794.871 35.6131 797.608 Q38.6368 800.346 43.8567 800.346 L64.0042 800.346 L64.0042 806.234 L28.3562 806.234 L28.3562 800.346 L33.8944 800.346 Q30.6797 798.245 29.0883 795.412 Q27.4968 792.548 27.4968 788.824 Q27.4968 782.681 31.3163 779.53 Q35.1038 776.379 42.4881 776.379 Z" fill="#000000" fill-rule="nonzero" fill-opacity="1"></path><path clip-path="url(#clip720)" d="M14.5426 729.909 Q21.8632 734.174 29.0246 736.243 Q36.186 738.312 43.5384 738.312 Q50.8908 738.312 58.1159 736.243 Q65.3091 734.142 72.5979 729.909 L72.5979 735.002 Q65.1182 739.776 57.8931 742.163 Q50.668 744.518 43.5384 744.518 Q36.4406 744.518 29.2474 742.163 Q22.0542 739.808 14.5426 735.002 L14.5426 729.909 Z" fill="#000000" fill-rule="nonzero" fill-opacity="1"></path><path clip-path="url(#clip720)" d="M35.1993 690.792 Q31.2526 688.596 29.3747 685.54 Q27.4968 682.484 27.4968 678.347 Q27.4968 672.777 31.4117 669.753 Q35.2948 666.729 42.4881 666.729 L64.0042 666.729 L64.0042 672.618 L42.679 672.618 Q37.5546 672.618 35.072 674.432 Q32.5894 676.246 32.5894 679.97 Q32.5894 684.521 35.6131 687.163 Q38.6368 689.805 43.8567 689.805 L64.0042 689.805 L64.0042 695.693 L42.679 695.693 Q37.5228 695.693 35.072 697.508 Q32.5894 699.322 32.5894 703.109 Q32.5894 707.597 35.6449 710.239 Q38.6686 712.881 43.8567 712.881 L64.0042 712.881 L64.0042 718.769 L28.3562 718.769 L28.3562 712.881 L33.8944 712.881 Q30.616 710.876 29.0564 708.075 Q27.4968 705.274 27.4968 701.422 Q27.4968 697.539 29.4702 694.834 Q31.4436 692.097 35.1993 690.792 Z" fill="#000000" fill-rule="nonzero" fill-opacity="1"></path><path clip-path="url(#clip720)" d="M55.9197 654.221 L55.9197 647.505 L64.0042 647.505 L64.0042 654.221 L55.9197 654.221 Z" fill="#000000" fill-rule="nonzero" fill-opacity="1"></path><path clip-path="url(#clip720)" d="M46.0847 618.127 Q46.0847 625.225 47.7079 627.962 Q49.3312 630.699 53.2461 630.699 Q56.3653 630.699 58.2114 628.662 Q60.0256 626.594 60.0256 623.061 Q60.0256 618.191 56.5881 615.263 Q53.1188 612.303 47.3897 612.303 L46.0847 612.303 L46.0847 618.127 M43.6657 606.446 L64.0042 606.446 L64.0042 612.303 L58.5933 612.303 Q61.8398 614.308 63.3994 617.3 Q64.9272 620.292 64.9272 624.62 Q64.9272 630.095 61.8716 633.341 Q58.7843 636.556 53.6281 636.556 Q47.6125 636.556 44.5569 632.545 Q41.5014 628.503 41.5014 620.514 L41.5014 612.303 L40.9285 612.303 Q36.8862 612.303 34.6901 614.976 Q32.4621 617.618 32.4621 622.424 Q32.4621 625.48 33.1941 628.376 Q33.9262 631.272 35.3903 633.946 L29.9795 633.946 Q28.7381 630.731 28.1334 627.708 Q27.4968 624.684 27.4968 621.819 Q27.4968 614.085 31.5072 610.266 Q35.5176 606.446 43.6657 606.446 Z" fill="#000000" fill-rule="nonzero" fill-opacity="1"></path><path clip-path="url(#clip720)" d="M55.9197 593.556 L55.9197 586.84 L64.0042 586.84 L64.0042 593.556 L55.9197 593.556 Z" fill="#000000" fill-rule="nonzero" fill-opacity="1"></path><path clip-path="url(#clip720)" d="M29.4065 550.937 L34.9447 550.937 Q33.6716 553.42 33.035 556.093 Q32.3984 558.767 32.3984 561.632 Q32.3984 565.992 33.7352 568.188 Q35.072 570.353 37.7456 570.353 Q39.7826 570.353 40.9603 568.793 Q42.1061 567.233 43.1565 562.523 L43.6021 560.518 Q44.9389 554.279 47.3897 551.669 Q49.8086 549.027 54.1691 549.027 Q59.1344 549.027 62.0308 552.974 Q64.9272 556.889 64.9272 563.764 Q64.9272 566.629 64.3543 569.748 Q63.8132 572.835 62.6992 576.273 L56.6518 576.273 Q58.3387 573.026 59.198 569.875 Q60.0256 566.724 60.0256 563.637 Q60.0256 559.499 58.6251 557.271 Q57.1929 555.043 54.6147 555.043 Q52.2276 555.043 50.9545 556.666 Q49.6813 558.258 48.5037 563.7 L48.0262 565.737 Q46.8804 571.18 44.5251 573.599 Q42.138 576.018 38.0002 576.018 Q32.9713 576.018 30.2341 572.453 Q27.4968 568.888 27.4968 562.332 Q27.4968 559.085 27.9743 556.221 Q28.4517 553.356 29.4065 550.937 Z" fill="#000000" fill-rule="nonzero" fill-opacity="1"></path><path clip-path="url(#clip720)" d="M55.9197 538.874 L55.9197 532.158 L64.0042 532.158 L64.0042 538.874 L55.9197 538.874 Z" fill="#000000" fill-rule="nonzero" fill-opacity="1"></path><path clip-path="url(#clip720)" d="M14.479 518.981 L14.479 513.125 L64.0042 513.125 L64.0042 518.981 L14.479 518.981 Z" fill="#000000" fill-rule="nonzero" fill-opacity="1"></path><path clip-path="url(#clip720)" d="M55.9197 500.043 L55.9197 493.327 L64.0042 493.327 L64.0042 500.043 L55.9197 500.043 Z" fill="#000000" fill-rule="nonzero" fill-opacity="1"></path><path clip-path="url(#clip720)" d="M14.5426 481.073 L14.5426 475.981 Q22.0542 471.207 29.2474 468.851 Q36.4406 466.464 43.5384 466.464 Q50.668 466.464 57.8931 468.851 Q65.1182 471.207 72.5979 475.981 L72.5979 481.073 Q65.3091 476.84 58.1159 474.771 Q50.8908 472.671 43.5384 472.671 Q36.186 472.671 29.0246 474.771 Q21.8632 476.84 14.5426 481.073 Z" fill="#000000" fill-rule="nonzero" fill-opacity="1"></path><polyline clip-path="url(#clip722)" style="stroke:#a52a2a; stroke-linecap:round; stroke-linejoin:round; stroke-width:4; stroke-opacity:1; fill:none" points="321.708,166.598 340.853,176.624 359.997,190.24 379.142,210.071 398.286,235.117 417.431,264.829 436.575,294.925 455.72,323.252 474.865,351.638 494.009,380.952 513.154,424.174 532.298,469.063 551.443,488.386 570.587,520.301 589.732,547.311 608.877,559.282 628.021,568.975 647.166,575.056 666.31,578.25 685.455,585.141 704.599,595.008 723.744,597.75 742.889,602.194 762.033,613.336 781.178,625.685 800.322,639.564 819.467,654.9 838.611,669.287 857.756,681.782 876.901,694.678 896.045,704.343 915.19,712.365 934.334,726.141 953.479,740.983 972.624,755.129 991.768,777.633 1010.91,801.788 1030.06,817.296 1049.2,832.446 1068.35,849.811 1087.49,863.042 1106.64,865.951 1125.78,864.655 1144.92,873.974 1164.07,882.603 1183.21,895.805 1202.36,915.838 1221.5,935.032 1240.65,952.887 1259.79,970.429 1278.94,970.878 1298.08,971.739 1317.23,977.637 1336.37,972.202 1355.52,983.857 1374.66,995.908 1393.8,1011.01 1412.95,1022.79 1432.09,1030.48 1451.24,1035.58 1470.38,1039.33 1489.53,1041.85 1508.67,1043.34 1527.82,1044.93 1546.96,1048.21 1566.11,1053.81 1585.25,1061.37 1604.39,1069.4 1623.54,1075.5 1642.68,1078.6 1661.83,1079.78 1680.97,1081.24 1700.12,1084.28 1719.26,1088.69 1738.41,1093.69 1757.55,1099.2 1776.7,1106.47 1795.84,1117.5 1814.98,1134.27 1834.13,1157.38 1853.27,1185.87 1872.42,1218.77 1891.56,1254.96 1910.71,1290.82 1929.85,1321.25 1949,1344.21 1968.14,1361.57 1987.29,1375.6 2006.43,1386.94 2025.58,1395.61 2044.72,1402.36 2063.86,1408.42 2083.01,1414.77 2102.15,1421.75 2121.3,1428.79 2140.44,1434.72 2159.59,1439.01 2178.73,1441.82 2197.88,1443.62 2217.02,1444.9 2236.17,1445.72 2255.31,1445.6 2274.45,1444.29 2293.6,1442.81 "></polyline>
<polyline clip-path="url(#clip722)" style="stroke:#0000ff; stroke-linecap:round; stroke-linejoin:round; stroke-width:4; stroke-opacity:1; fill:none" points="321.708,89.407 340.853,108.739 359.997,129.535 379.142,154.322 398.286,182.591 417.431,213.243 436.575,245.292 455.72,279.863 474.865,319.079 494.009,375.221 513.154,424.174 532.298,469.063 551.443,488.386 570.587,520.301 589.732,547.311 608.877,559.282 628.021,568.975 647.166,575.056 666.31,578.25 685.455,585.141 704.599,595.008 723.744,597.75 742.889,602.194 762.033,613.336 781.178,625.685 800.322,639.564 819.467,654.9 838.611,669.287 857.756,681.782 876.901,694.678 896.045,704.343 915.19,712.365 934.334,726.141 953.479,740.983 972.624,755.129 991.768,777.633 1010.91,801.788 1030.06,817.296 1049.2,832.446 1068.35,849.811 1087.49,863.042 1106.64,865.951 1125.78,864.655 1144.92,873.974 1164.07,882.603 1183.21,895.805 1202.36,915.838 1221.5,935.032 1240.65,952.887 1259.79,970.429 1278.94,970.878 1298.08,971.739 1317.23,977.637 1336.37,972.202 1355.52,983.857 1374.66,995.908 1393.8,1011.01 1412.95,1022.79 1432.09,1030.48 1451.24,1035.58 1470.38,1039.33 1489.53,1041.85 1508.67,1043.34 1527.82,1044.93 1546.96,1048.21 1566.11,1053.81 1585.25,1061.37 1604.39,1069.4 1623.54,1075.5 1642.68,1078.6 1661.83,1079.78 1680.97,1081.24 1700.12,1084.28 1719.26,1088.69 1738.41,1093.69 1757.55,1099.2 1776.7,1106.47 1795.84,1117.5 1814.98,1134.27 1834.13,1157.38 1853.27,1185.87 1872.42,1218.77 1891.56,1254.96 1910.71,1290.82 1929.85,1321.25 1949,1344.21 1968.14,1361.57 1987.29,1375.6 2006.43,1386.94 2025.58,1395.61 2044.72,1402.36 2063.86,1408.42 2083.01,1414.77 2102.15,1421.75 2121.3,1428.79 2140.44,1434.72 2159.59,1439.01 2178.73,1441.82 2197.88,1443.62 2217.02,1444.9 2236.17,1445.72 2255.31,1445.6 2274.45,1444.29 2293.6,1442.81 "></polyline>
<polyline clip-path="url(#clip722)" style="stroke:#ff0000; stroke-linecap:round; stroke-linejoin:round; stroke-width:4; stroke-opacity:1; fill:none" points="321.708,87.9763 340.853,107.297 359.997,128.08 379.142,152.866 398.286,181.152 417.431,211.823 436.575,243.937 455.72,278.468 474.865,317.577 494.009,369.514 513.154,423.95 532.298,462.875 551.443,484.299 570.587,505.093 589.732,518.722 608.877,530.613 628.021,542.899 647.166,555.555 666.31,569.903 685.455,585.141 704.599,595.008 723.744,597.75 742.889,602.194 762.033,613.336 781.178,625.685 800.322,639.564 819.467,654.9 838.611,669.287 857.756,681.782 876.901,694.678 896.045,704.343 915.19,712.365 934.334,726.141 953.479,740.983 972.624,755.129 991.768,777.633 1010.91,801.788 1030.06,817.296 1049.2,832.446 1068.35,849.811 1087.49,863.042 1106.64,865.951 1125.78,864.655 1144.92,873.974 1164.07,882.603 1183.21,895.805 1202.36,915.838 1221.5,935.032 1240.65,952.887 1259.79,970.429 1278.94,970.878 1298.08,971.739 1317.23,977.637 1336.37,972.202 1355.52,983.857 1374.66,995.908 1393.8,1011.01 1412.95,1022.79 1432.09,1030.48 1451.24,1035.58 1470.38,1039.33 1489.53,1041.85 1508.67,1043.34 1527.82,1044.93 1546.96,1048.21 1566.11,1053.81 1585.25,1061.37 1604.39,1069.4 1623.54,1075.5 1642.68,1078.6 1661.83,1079.78 1680.97,1081.24 1700.12,1084.28 1719.26,1088.69 1738.41,1093.69 1757.55,1099.2 1776.7,1106.47 1795.84,1117.5 1814.98,1134.27 1834.13,1157.38 1853.27,1185.87 1872.42,1218.77 1891.56,1254.96 1910.71,1290.82 1929.85,1321.25 1949,1344.21 1968.14,1361.57 1987.29,1375.6 2006.43,1386.94 2025.58,1395.61 2044.72,1402.36 2063.86,1408.42 2083.01,1414.77 2102.15,1421.75 2121.3,1428.79 2140.44,1434.72 2159.59,1439.01 2178.73,1441.82 2197.88,1443.62 2217.02,1444.9 2236.17,1445.72 2255.31,1445.6 2274.45,1444.29 2293.6,1442.81 "></polyline>
<polyline clip-path="url(#clip722)" style="stroke:#008000; stroke-linecap:round; stroke-linejoin:round; stroke-width:4; stroke-opacity:1; fill:none" points="321.708,89.0294 340.853,104.74 359.997,125.157 379.142,147.224 398.286,173.327 417.431,200.842 436.575,228.932 455.72,257.204 474.865,285.601 494.009,313.732 513.154,341.065 532.298,353.687 551.443,366.31 570.587,378.933 589.732,388.554 608.877,397.761 628.021,406.967 647.166,416.174 666.31,426.05 685.455,436.61 704.599,447.17 723.744,457.73 742.889,470.057 762.033,482.807 781.178,495.556 800.322,508.314 819.467,521.078 838.611,533.842 857.756,547.024 876.901,560.625 896.045,574.227 915.19,589.366 934.334,605.934 953.479,622.514 972.624,640.098 991.768,657.682 1010.91,672.275 1030.06,685.532 1049.2,698.789 1068.35,710.825 1087.49,722.253 1106.64,733.682 1125.78,747.368 1144.92,763.892 1164.07,780.416 1183.21,800.597 1202.36,820.883 1221.5,840.425 1240.65,859.89 1259.79,879.179 1278.94,898.435 1298.08,918.779 1317.23,939.35 1336.37,956.406 1355.52,983.857 1374.66,995.908 1393.8,1011.01 1412.95,1022.79 1432.09,1030.48 1451.24,1035.58 1470.38,1039.33 1489.53,1041.85 1508.67,1043.34 1527.82,1044.93 1546.96,1048.21 1566.11,1053.81 1585.25,1061.37 1604.39,1069.4 1623.54,1075.5 1642.68,1078.6 1661.83,1079.78 1680.97,1081.24 1700.12,1084.28 1719.26,1088.69 1738.41,1093.69 1757.55,1099.2 1776.7,1106.47 1795.84,1117.5 1814.98,1134.27 1834.13,1157.38 1853.27,1185.87 1872.42,1218.77 1891.56,1254.96 1910.71,1290.82 1929.85,1321.25 1949,1344.21 1968.14,1361.57 1987.29,1375.6 2006.43,1386.94 2025.58,1395.61 2044.72,1402.36 2063.86,1408.42 2083.01,1414.77 2102.15,1421.75 2121.3,1428.79 2140.44,1434.72 2159.59,1439.01 2178.73,1441.82 2197.88,1443.62 2217.02,1444.9 2236.17,1445.72 2255.31,1445.6 2274.45,1444.29 2293.6,1442.81 "></polyline>
<polyline clip-path="url(#clip722)" style="stroke:#000000; stroke-linecap:round; stroke-linejoin:round; stroke-width:4; stroke-opacity:1; fill:none" stroke-dasharray="16, 10" points="321.708,115.885 340.853,130.667 359.997,148.955 379.142,171.983 398.286,199.362 417.431,229.632 436.575,261.312 455.72,295.122 474.865,334.877 494.009,380.952 513.154,424.174 532.298,469.063 551.443,488.386 570.587,518.988 589.732,532.022 608.877,542.732 628.021,553.4 647.166,564.486 666.31,577.06 685.455,585.141 704.599,595.008 723.744,597.75 742.889,602.194 762.033,613.336 781.178,625.685 800.322,639.564 819.467,654.9 838.611,669.287 857.756,681.782 876.901,694.678 896.045,704.343 915.19,712.365 934.334,726.141 953.479,740.983 972.624,755.129 991.768,777.633 1010.91,801.788 1030.06,817.296 1049.2,832.446 1068.35,849.811 1087.49,863.042 1106.64,865.951 1125.78,864.655 1144.92,873.974 1164.07,882.603 1183.21,895.805 1202.36,915.838 1221.5,935.032 1240.65,952.887 1259.79,970.429 1278.94,970.878 1298.08,971.739 1317.23,977.637 1336.37,972.202 1355.52,983.857 1374.66,995.908 1393.8,1011.01 1412.95,1022.79 1432.09,1030.48 1451.24,1035.58 1470.38,1039.33 1489.53,1041.85 1508.67,1043.34 1527.82,1044.93 1546.96,1048.21 1566.11,1053.81 1585.25,1061.37 1604.39,1069.4 1623.54,1075.5 1642.68,1078.6 1661.83,1079.78 1680.97,1081.24 1700.12,1084.28 1719.26,1088.69 1738.41,1093.69 1757.55,1099.2 1776.7,1106.47 1795.84,1117.5 1814.98,1134.27 1834.13,1157.38 1853.27,1185.87 1872.42,1218.77 1891.56,1254.96 1910.71,1290.82 1929.85,1321.25 1949,1344.21 1968.14,1361.57 1987.29,1375.6 2006.43,1386.94 2025.58,1395.61 2044.72,1402.36 2063.86,1408.42 2083.01,1414.77 2102.15,1421.75 2121.3,1428.79 2140.44,1434.72 2159.59,1439.01 2178.73,1441.82 2197.88,1443.62 2217.02,1444.9 2236.17,1445.72 2255.31,1445.6 2274.45,1444.29 2293.6,1442.81 "></polyline>
<path clip-path="url(#clip720)" d="M1729.34 406.258 L2283.08 406.258 L2283.08 95.2176 L1729.34 95.2176  Z" fill="#ffffff" fill-rule="evenodd" fill-opacity="1"></path>
<polyline clip-path="url(#clip720)" style="stroke:#000000; stroke-linecap:round; stroke-linejoin:round; stroke-width:4; stroke-opacity:1; fill:none" points="1729.34,406.258 2283.08,406.258 2283.08,95.2176 1729.34,95.2176 1729.34,406.258 "></polyline>
<polyline clip-path="url(#clip720)" style="stroke:#a52a2a; stroke-linecap:round; stroke-linejoin:round; stroke-width:4; stroke-opacity:1; fill:none" points="1752.57,147.058 1891.91,147.058 "></polyline>
<path clip-path="url(#clip720)" d="M1933.91 151.398 Q1933.91 146.699 1931.97 144.037 Q1930.04 141.352 1926.67 141.352 Q1923.29 141.352 1921.34 144.037 Q1919.42 146.699 1919.42 151.398 Q1919.42 156.097 1921.34 158.782 Q1923.29 161.444 1926.67 161.444 Q1930.04 161.444 1931.97 158.782 Q1933.91 156.097 1933.91 151.398 M1919.42 142.347 Q1920.76 140.032 1922.8 138.921 Q1924.86 137.787 1927.71 137.787 Q1932.43 137.787 1935.37 141.537 Q1938.33 145.287 1938.33 151.398 Q1938.33 157.509 1935.37 161.259 Q1932.43 165.009 1927.71 165.009 Q1924.86 165.009 1922.8 163.898 Q1920.76 162.763 1919.42 160.449 L1919.42 164.338 L1915.14 164.338 L1915.14 128.319 L1919.42 128.319 L1919.42 142.347 Z" fill="#000000" fill-rule="nonzero" fill-opacity="1"></path><path clip-path="url(#clip720)" d="M1967.57 150.31 L1967.57 152.393 L1947.98 152.393 Q1948.26 156.791 1950.62 159.106 Q1953.01 161.398 1957.24 161.398 Q1959.7 161.398 1961.99 160.796 Q1964.3 160.194 1966.57 158.99 L1966.57 163.018 Q1964.28 163.99 1961.87 164.5 Q1959.47 165.009 1956.99 165.009 Q1950.79 165.009 1947.15 161.398 Q1943.54 157.787 1943.54 151.629 Q1943.54 145.264 1946.97 141.537 Q1950.42 137.787 1956.25 137.787 Q1961.48 137.787 1964.51 141.166 Q1967.57 144.523 1967.57 150.31 M1963.31 149.06 Q1963.26 145.565 1961.34 143.481 Q1959.44 141.398 1956.29 141.398 Q1952.73 141.398 1950.58 143.412 Q1948.45 145.426 1948.12 149.083 L1963.31 149.06 Z" fill="#000000" fill-rule="nonzero" fill-opacity="1"></path><path clip-path="url(#clip720)" d="M1991.62 142.347 L1991.62 128.319 L1995.88 128.319 L1995.88 164.338 L1991.62 164.338 L1991.62 160.449 Q1990.28 162.763 1988.22 163.898 Q1986.18 165.009 1983.31 165.009 Q1978.61 165.009 1975.65 161.259 Q1972.71 157.509 1972.71 151.398 Q1972.71 145.287 1975.65 141.537 Q1978.61 137.787 1983.31 137.787 Q1986.18 137.787 1988.22 138.921 Q1990.28 140.032 1991.62 142.347 M1977.1 151.398 Q1977.1 156.097 1979.03 158.782 Q1980.97 161.444 1984.35 161.444 Q1987.73 161.444 1989.67 158.782 Q1991.62 156.097 1991.62 151.398 Q1991.62 146.699 1989.67 144.037 Q1987.73 141.352 1984.35 141.352 Q1980.97 141.352 1979.03 144.037 Q1977.1 146.699 1977.1 151.398 Z" fill="#000000" fill-rule="nonzero" fill-opacity="1"></path><polyline clip-path="url(#clip720)" style="stroke:#0000ff; stroke-linecap:round; stroke-linejoin:round; stroke-width:4; stroke-opacity:1; fill:none" points="1752.57,198.898 1891.91,198.898 "></polyline>
<path clip-path="url(#clip720)" d="M1933.56 191.016 L1933.56 195.043 Q1931.76 194.117 1929.81 193.655 Q1927.87 193.192 1925.79 193.192 Q1922.61 193.192 1921.02 194.164 Q1919.44 195.136 1919.44 197.08 Q1919.44 198.562 1920.58 199.418 Q1921.71 200.252 1925.14 201.016 L1926.6 201.34 Q1931.13 202.312 1933.03 204.094 Q1934.95 205.854 1934.95 209.025 Q1934.95 212.636 1932.08 214.742 Q1929.23 216.849 1924.23 216.849 Q1922.15 216.849 1919.88 216.432 Q1917.64 216.039 1915.14 215.228 L1915.14 210.83 Q1917.5 212.057 1919.79 212.682 Q1922.08 213.284 1924.33 213.284 Q1927.34 213.284 1928.96 212.266 Q1930.58 211.224 1930.58 209.349 Q1930.58 207.613 1929.4 206.687 Q1928.24 205.761 1924.28 204.904 L1922.8 204.557 Q1918.84 203.724 1917.08 202.011 Q1915.32 200.275 1915.32 197.266 Q1915.32 193.608 1917.92 191.618 Q1920.51 189.627 1925.28 189.627 Q1927.64 189.627 1929.72 189.974 Q1931.8 190.321 1933.56 191.016 Z" fill="#000000" fill-rule="nonzero" fill-opacity="1"></path><path clip-path="url(#clip720)" d="M1941.29 205.946 L1941.29 190.252 L1945.55 190.252 L1945.55 205.784 Q1945.55 209.465 1946.99 211.316 Q1948.42 213.145 1951.29 213.145 Q1954.74 213.145 1956.73 210.946 Q1958.75 208.747 1958.75 204.951 L1958.75 190.252 L1963.01 190.252 L1963.01 216.178 L1958.75 216.178 L1958.75 212.196 Q1957.2 214.557 1955.14 215.715 Q1953.1 216.849 1950.39 216.849 Q1945.92 216.849 1943.61 214.071 Q1941.29 211.293 1941.29 205.946 M1952.01 189.627 L1952.01 189.627 Z" fill="#000000" fill-rule="nonzero" fill-opacity="1"></path><path clip-path="url(#clip720)" d="M1986.8 194.233 Q1986.09 193.817 1985.23 193.631 Q1984.4 193.423 1983.38 193.423 Q1979.77 193.423 1977.82 195.784 Q1975.9 198.122 1975.9 202.52 L1975.9 216.178 L1971.62 216.178 L1971.62 190.252 L1975.9 190.252 L1975.9 194.28 Q1977.24 191.918 1979.4 190.784 Q1981.55 189.627 1984.63 189.627 Q1985.07 189.627 1985.6 189.696 Q1986.13 189.743 1986.78 189.858 L1986.8 194.233 Z" fill="#000000" fill-rule="nonzero" fill-opacity="1"></path><path clip-path="url(#clip720)" d="M2004.4 180.159 L2004.4 183.701 L2000.32 183.701 Q1998.03 183.701 1997.13 184.627 Q1996.25 185.553 1996.25 187.96 L1996.25 190.252 L2003.26 190.252 L2003.26 193.562 L1996.25 193.562 L1996.25 216.178 L1991.97 216.178 L1991.97 193.562 L1987.89 193.562 L1987.89 190.252 L1991.97 190.252 L1991.97 188.446 Q1991.97 184.118 1993.98 182.15 Q1995.99 180.159 2000.37 180.159 L2004.4 180.159 Z" fill="#000000" fill-rule="nonzero" fill-opacity="1"></path><path clip-path="url(#clip720)" d="M2019.74 203.145 Q2014.58 203.145 2012.59 204.326 Q2010.6 205.506 2010.6 208.354 Q2010.6 210.622 2012.08 211.965 Q2013.59 213.284 2016.16 213.284 Q2019.7 213.284 2021.83 210.784 Q2023.98 208.261 2023.98 204.094 L2023.98 203.145 L2019.74 203.145 M2028.24 201.386 L2028.24 216.178 L2023.98 216.178 L2023.98 212.242 Q2022.52 214.603 2020.35 215.738 Q2018.17 216.849 2015.02 216.849 Q2011.04 216.849 2008.68 214.627 Q2006.34 212.381 2006.34 208.631 Q2006.34 204.256 2009.26 202.034 Q2012.2 199.812 2018.01 199.812 L2023.98 199.812 L2023.98 199.395 Q2023.98 196.455 2022.04 194.858 Q2020.11 193.238 2016.62 193.238 Q2014.4 193.238 2012.29 193.77 Q2010.18 194.303 2008.24 195.367 L2008.24 191.432 Q2010.58 190.53 2012.78 190.09 Q2014.97 189.627 2017.06 189.627 Q2022.68 189.627 2025.46 192.543 Q2028.24 195.46 2028.24 201.386 Z" fill="#000000" fill-rule="nonzero" fill-opacity="1"></path><path clip-path="url(#clip720)" d="M2055.67 191.247 L2055.67 195.229 Q2053.86 194.233 2052.03 193.747 Q2050.23 193.238 2048.38 193.238 Q2044.23 193.238 2041.94 195.877 Q2039.65 198.492 2039.65 203.238 Q2039.65 207.983 2041.94 210.622 Q2044.23 213.238 2048.38 213.238 Q2050.23 213.238 2052.03 212.752 Q2053.86 212.242 2055.67 211.247 L2055.67 215.182 Q2053.89 216.016 2051.97 216.432 Q2050.07 216.849 2047.91 216.849 Q2042.06 216.849 2038.61 213.168 Q2035.16 209.488 2035.16 203.238 Q2035.16 196.895 2038.63 193.261 Q2042.13 189.627 2048.19 189.627 Q2050.16 189.627 2052.03 190.043 Q2053.91 190.437 2055.67 191.247 Z" fill="#000000" fill-rule="nonzero" fill-opacity="1"></path><path clip-path="url(#clip720)" d="M2085.25 202.15 L2085.25 204.233 L2065.67 204.233 Q2065.95 208.631 2068.31 210.946 Q2070.69 213.238 2074.93 213.238 Q2077.38 213.238 2079.67 212.636 Q2081.99 212.034 2084.26 210.83 L2084.26 214.858 Q2081.97 215.83 2079.56 216.34 Q2077.15 216.849 2074.67 216.849 Q2068.47 216.849 2064.84 213.238 Q2061.22 209.627 2061.22 203.469 Q2061.22 197.104 2064.65 193.377 Q2068.1 189.627 2073.93 189.627 Q2079.16 189.627 2082.2 193.006 Q2085.25 196.363 2085.25 202.15 M2080.99 200.9 Q2080.95 197.405 2079.03 195.321 Q2077.13 193.238 2073.98 193.238 Q2070.41 193.238 2068.26 195.252 Q2066.13 197.266 2065.81 200.923 L2080.99 200.9 Z" fill="#000000" fill-rule="nonzero" fill-opacity="1"></path><path clip-path="url(#clip720)" d="M2123.84 191.016 L2123.84 195.043 Q2122.03 194.117 2120.09 193.655 Q2118.15 193.192 2116.06 193.192 Q2112.89 193.192 2111.29 194.164 Q2109.72 195.136 2109.72 197.08 Q2109.72 198.562 2110.85 199.418 Q2111.99 200.252 2115.41 201.016 L2116.87 201.34 Q2121.41 202.312 2123.31 204.094 Q2125.23 205.854 2125.23 209.025 Q2125.23 212.636 2122.36 214.742 Q2119.51 216.849 2114.51 216.849 Q2112.43 216.849 2110.16 216.432 Q2107.91 216.039 2105.41 215.228 L2105.41 210.83 Q2107.78 212.057 2110.07 212.682 Q2112.36 213.284 2114.6 213.284 Q2117.61 213.284 2119.23 212.266 Q2120.85 211.224 2120.85 209.349 Q2120.85 207.613 2119.67 206.687 Q2118.52 205.761 2114.56 204.904 L2113.08 204.557 Q2109.12 203.724 2107.36 202.011 Q2105.6 200.275 2105.6 197.266 Q2105.6 193.608 2108.19 191.618 Q2110.78 189.627 2115.55 189.627 Q2117.91 189.627 2120 189.974 Q2122.08 190.321 2123.84 191.016 Z" fill="#000000" fill-rule="nonzero" fill-opacity="1"></path><path clip-path="url(#clip720)" d="M2142.06 193.238 Q2138.63 193.238 2136.64 195.923 Q2134.65 198.585 2134.65 203.238 Q2134.65 207.891 2136.62 210.576 Q2138.61 213.238 2142.06 213.238 Q2145.46 213.238 2147.45 210.553 Q2149.44 207.867 2149.44 203.238 Q2149.44 198.631 2147.45 195.946 Q2145.46 193.238 2142.06 193.238 M2142.06 189.627 Q2147.61 189.627 2150.78 193.238 Q2153.96 196.849 2153.96 203.238 Q2153.96 209.604 2150.78 213.238 Q2147.61 216.849 2142.06 216.849 Q2136.48 216.849 2133.31 213.238 Q2130.16 209.604 2130.16 203.238 Q2130.16 196.849 2133.31 193.238 Q2136.48 189.627 2142.06 189.627 Z" fill="#000000" fill-rule="nonzero" fill-opacity="1"></path><path clip-path="url(#clip720)" d="M2161.02 180.159 L2165.28 180.159 L2165.28 216.178 L2161.02 216.178 L2161.02 180.159 Z" fill="#000000" fill-rule="nonzero" fill-opacity="1"></path><path clip-path="url(#clip720)" d="M2171.13 190.252 L2175.65 190.252 L2183.75 212.011 L2191.85 190.252 L2196.36 190.252 L2186.64 216.178 L2180.85 216.178 L2171.13 190.252 Z" fill="#000000" fill-rule="nonzero" fill-opacity="1"></path><path clip-path="url(#clip720)" d="M2224.42 202.15 L2224.42 204.233 L2204.84 204.233 Q2205.11 208.631 2207.47 210.946 Q2209.86 213.238 2214.09 213.238 Q2216.55 213.238 2218.84 212.636 Q2221.15 212.034 2223.42 210.83 L2223.42 214.858 Q2221.13 215.83 2218.72 216.34 Q2216.32 216.849 2213.84 216.849 Q2207.64 216.849 2204 213.238 Q2200.39 209.627 2200.39 203.469 Q2200.39 197.104 2203.82 193.377 Q2207.27 189.627 2213.1 189.627 Q2218.33 189.627 2221.36 193.006 Q2224.42 196.363 2224.42 202.15 M2220.16 200.9 Q2220.11 197.405 2218.19 195.321 Q2216.29 193.238 2213.15 193.238 Q2209.58 193.238 2207.43 195.252 Q2205.3 197.266 2204.97 200.923 L2220.16 200.9 Z" fill="#000000" fill-rule="nonzero" fill-opacity="1"></path><path clip-path="url(#clip720)" d="M2246.43 194.233 Q2245.71 193.817 2244.86 193.631 Q2244.02 193.423 2243.01 193.423 Q2239.4 193.423 2237.45 195.784 Q2235.53 198.122 2235.53 202.52 L2235.53 216.178 L2231.25 216.178 L2231.25 190.252 L2235.53 190.252 L2235.53 194.28 Q2236.87 191.918 2239.02 190.784 Q2241.18 189.627 2244.26 189.627 Q2244.7 189.627 2245.23 189.696 Q2245.76 189.743 2246.41 189.858 L2246.43 194.233 Z" fill="#000000" fill-rule="nonzero" fill-opacity="1"></path><polyline clip-path="url(#clip720)" style="stroke:#ff0000; stroke-linecap:round; stroke-linejoin:round; stroke-width:4; stroke-opacity:1; fill:none" points="1752.57,250.738 1891.91,250.738 "></polyline>
<path clip-path="url(#clip720)" d="M1933.56 242.856 L1933.56 246.883 Q1931.76 245.957 1929.81 245.495 Q1927.87 245.032 1925.79 245.032 Q1922.61 245.032 1921.02 246.004 Q1919.44 246.976 1919.44 248.92 Q1919.44 250.402 1920.58 251.258 Q1921.71 252.092 1925.14 252.856 L1926.6 253.18 Q1931.13 254.152 1933.03 255.934 Q1934.95 257.694 1934.95 260.865 Q1934.95 264.476 1932.08 266.582 Q1929.23 268.689 1924.23 268.689 Q1922.15 268.689 1919.88 268.272 Q1917.64 267.879 1915.14 267.068 L1915.14 262.67 Q1917.5 263.897 1919.79 264.522 Q1922.08 265.124 1924.33 265.124 Q1927.34 265.124 1928.96 264.106 Q1930.58 263.064 1930.58 261.189 Q1930.58 259.453 1929.4 258.527 Q1928.24 257.601 1924.28 256.744 L1922.8 256.397 Q1918.84 255.564 1917.08 253.851 Q1915.32 252.115 1915.32 249.106 Q1915.32 245.448 1917.92 243.458 Q1920.51 241.467 1925.28 241.467 Q1927.64 241.467 1929.72 241.814 Q1931.8 242.161 1933.56 242.856 Z" fill="#000000" fill-rule="nonzero" fill-opacity="1"></path><path clip-path="url(#clip720)" d="M1941.29 257.786 L1941.29 242.092 L1945.55 242.092 L1945.55 257.624 Q1945.55 261.305 1946.99 263.156 Q1948.42 264.985 1951.29 264.985 Q1954.74 264.985 1956.73 262.786 Q1958.75 260.587 1958.75 256.791 L1958.75 242.092 L1963.01 242.092 L1963.01 268.018 L1958.75 268.018 L1958.75 264.036 Q1957.2 266.397 1955.14 267.555 Q1953.1 268.689 1950.39 268.689 Q1945.92 268.689 1943.61 265.911 Q1941.29 263.133 1941.29 257.786 M1952.01 241.467 L1952.01 241.467 Z" fill="#000000" fill-rule="nonzero" fill-opacity="1"></path><path clip-path="url(#clip720)" d="M1986.8 246.073 Q1986.09 245.657 1985.23 245.471 Q1984.4 245.263 1983.38 245.263 Q1979.77 245.263 1977.82 247.624 Q1975.9 249.962 1975.9 254.36 L1975.9 268.018 L1971.62 268.018 L1971.62 242.092 L1975.9 242.092 L1975.9 246.12 Q1977.24 243.758 1979.4 242.624 Q1981.55 241.467 1984.63 241.467 Q1985.07 241.467 1985.6 241.536 Q1986.13 241.583 1986.78 241.698 L1986.8 246.073 Z" fill="#000000" fill-rule="nonzero" fill-opacity="1"></path><path clip-path="url(#clip720)" d="M2004.4 231.999 L2004.4 235.541 L2000.32 235.541 Q1998.03 235.541 1997.13 236.467 Q1996.25 237.393 1996.25 239.8 L1996.25 242.092 L2003.26 242.092 L2003.26 245.402 L1996.25 245.402 L1996.25 268.018 L1991.97 268.018 L1991.97 245.402 L1987.89 245.402 L1987.89 242.092 L1991.97 242.092 L1991.97 240.286 Q1991.97 235.958 1993.98 233.99 Q1995.99 231.999 2000.37 231.999 L2004.4 231.999 Z" fill="#000000" fill-rule="nonzero" fill-opacity="1"></path><path clip-path="url(#clip720)" d="M2019.74 254.985 Q2014.58 254.985 2012.59 256.166 Q2010.6 257.346 2010.6 260.194 Q2010.6 262.462 2012.08 263.805 Q2013.59 265.124 2016.16 265.124 Q2019.7 265.124 2021.83 262.624 Q2023.98 260.101 2023.98 255.934 L2023.98 254.985 L2019.74 254.985 M2028.24 253.226 L2028.24 268.018 L2023.98 268.018 L2023.98 264.082 Q2022.52 266.443 2020.35 267.578 Q2018.17 268.689 2015.02 268.689 Q2011.04 268.689 2008.68 266.467 Q2006.34 264.221 2006.34 260.471 Q2006.34 256.096 2009.26 253.874 Q2012.2 251.652 2018.01 251.652 L2023.98 251.652 L2023.98 251.235 Q2023.98 248.295 2022.04 246.698 Q2020.11 245.078 2016.62 245.078 Q2014.4 245.078 2012.29 245.61 Q2010.18 246.143 2008.24 247.207 L2008.24 243.272 Q2010.58 242.37 2012.78 241.93 Q2014.97 241.467 2017.06 241.467 Q2022.68 241.467 2025.46 244.383 Q2028.24 247.3 2028.24 253.226 Z" fill="#000000" fill-rule="nonzero" fill-opacity="1"></path><path clip-path="url(#clip720)" d="M2055.67 243.087 L2055.67 247.069 Q2053.86 246.073 2052.03 245.587 Q2050.23 245.078 2048.38 245.078 Q2044.23 245.078 2041.94 247.717 Q2039.65 250.332 2039.65 255.078 Q2039.65 259.823 2041.94 262.462 Q2044.23 265.078 2048.38 265.078 Q2050.23 265.078 2052.03 264.592 Q2053.86 264.082 2055.67 263.087 L2055.67 267.022 Q2053.89 267.856 2051.97 268.272 Q2050.07 268.689 2047.91 268.689 Q2042.06 268.689 2038.61 265.008 Q2035.16 261.328 2035.16 255.078 Q2035.16 248.735 2038.63 245.101 Q2042.13 241.467 2048.19 241.467 Q2050.16 241.467 2052.03 241.883 Q2053.91 242.277 2055.67 243.087 Z" fill="#000000" fill-rule="nonzero" fill-opacity="1"></path><path clip-path="url(#clip720)" d="M2085.25 253.99 L2085.25 256.073 L2065.67 256.073 Q2065.95 260.471 2068.31 262.786 Q2070.69 265.078 2074.93 265.078 Q2077.38 265.078 2079.67 264.476 Q2081.99 263.874 2084.26 262.67 L2084.26 266.698 Q2081.97 267.67 2079.56 268.18 Q2077.15 268.689 2074.67 268.689 Q2068.47 268.689 2064.84 265.078 Q2061.22 261.467 2061.22 255.309 Q2061.22 248.944 2064.65 245.217 Q2068.1 241.467 2073.93 241.467 Q2079.16 241.467 2082.2 244.846 Q2085.25 248.203 2085.25 253.99 M2080.99 252.74 Q2080.95 249.245 2079.03 247.161 Q2077.13 245.078 2073.98 245.078 Q2070.41 245.078 2068.26 247.092 Q2066.13 249.106 2065.81 252.763 L2080.99 252.74 Z" fill="#000000" fill-rule="nonzero" fill-opacity="1"></path><path clip-path="url(#clip720)" d="M2122.34 246.073 Q2121.62 245.657 2120.76 245.471 Q2119.93 245.263 2118.91 245.263 Q2115.3 245.263 2113.35 247.624 Q2111.43 249.962 2111.43 254.36 L2111.43 268.018 L2107.15 268.018 L2107.15 242.092 L2111.43 242.092 L2111.43 246.12 Q2112.78 243.758 2114.93 242.624 Q2117.08 241.467 2120.16 241.467 Q2120.6 241.467 2121.13 241.536 Q2121.66 241.583 2122.31 241.698 L2122.34 246.073 Z" fill="#000000" fill-rule="nonzero" fill-opacity="1"></path><path clip-path="url(#clip720)" d="M2138.59 254.985 Q2133.42 254.985 2131.43 256.166 Q2129.44 257.346 2129.44 260.194 Q2129.44 262.462 2130.92 263.805 Q2132.43 265.124 2135 265.124 Q2138.54 265.124 2140.67 262.624 Q2142.82 260.101 2142.82 255.934 L2142.82 254.985 L2138.59 254.985 M2147.08 253.226 L2147.08 268.018 L2142.82 268.018 L2142.82 264.082 Q2141.36 266.443 2139.19 267.578 Q2137.01 268.689 2133.86 268.689 Q2129.88 268.689 2127.52 266.467 Q2125.18 264.221 2125.18 260.471 Q2125.18 256.096 2128.1 253.874 Q2131.04 251.652 2136.85 251.652 L2142.82 251.652 L2142.82 251.235 Q2142.82 248.295 2140.88 246.698 Q2138.96 245.078 2135.46 245.078 Q2133.24 245.078 2131.13 245.61 Q2129.03 246.143 2127.08 247.207 L2127.08 243.272 Q2129.42 242.37 2131.62 241.93 Q2133.82 241.467 2135.9 241.467 Q2141.53 241.467 2144.3 244.383 Q2147.08 247.3 2147.08 253.226 Z" fill="#000000" fill-rule="nonzero" fill-opacity="1"></path><path clip-path="url(#clip720)" d="M2153.38 242.092 L2157.64 242.092 L2162.96 262.323 L2168.26 242.092 L2173.28 242.092 L2178.61 262.323 L2183.91 242.092 L2188.17 242.092 L2181.39 268.018 L2176.36 268.018 L2170.78 246.768 L2165.18 268.018 L2160.16 268.018 L2153.38 242.092 Z" fill="#000000" fill-rule="nonzero" fill-opacity="1"></path><polyline clip-path="url(#clip720)" style="stroke:#008000; stroke-linecap:round; stroke-linejoin:round; stroke-width:4; stroke-opacity:1; fill:none" points="1752.57,302.578 1891.91,302.578 "></polyline>
<path clip-path="url(#clip720)" d="M1933.56 294.696 L1933.56 298.723 Q1931.76 297.797 1929.81 297.335 Q1927.87 296.872 1925.79 296.872 Q1922.61 296.872 1921.02 297.844 Q1919.44 298.816 1919.44 300.76 Q1919.44 302.242 1920.58 303.098 Q1921.71 303.932 1925.14 304.696 L1926.6 305.02 Q1931.13 305.992 1933.03 307.774 Q1934.95 309.534 1934.95 312.705 Q1934.95 316.316 1932.08 318.422 Q1929.23 320.529 1924.23 320.529 Q1922.15 320.529 1919.88 320.112 Q1917.64 319.719 1915.14 318.908 L1915.14 314.51 Q1917.5 315.737 1919.79 316.362 Q1922.08 316.964 1924.33 316.964 Q1927.34 316.964 1928.96 315.946 Q1930.58 314.904 1930.58 313.029 Q1930.58 311.293 1929.4 310.367 Q1928.24 309.441 1924.28 308.584 L1922.8 308.237 Q1918.84 307.404 1917.08 305.691 Q1915.32 303.955 1915.32 300.946 Q1915.32 297.288 1917.92 295.298 Q1920.51 293.307 1925.28 293.307 Q1927.64 293.307 1929.72 293.654 Q1931.8 294.001 1933.56 294.696 Z" fill="#000000" fill-rule="nonzero" fill-opacity="1"></path><path clip-path="url(#clip720)" d="M1941.29 309.626 L1941.29 293.932 L1945.55 293.932 L1945.55 309.464 Q1945.55 313.145 1946.99 314.996 Q1948.42 316.825 1951.29 316.825 Q1954.74 316.825 1956.73 314.626 Q1958.75 312.427 1958.75 308.631 L1958.75 293.932 L1963.01 293.932 L1963.01 319.858 L1958.75 319.858 L1958.75 315.876 Q1957.2 318.237 1955.14 319.395 Q1953.1 320.529 1950.39 320.529 Q1945.92 320.529 1943.61 317.751 Q1941.29 314.973 1941.29 309.626 M1952.01 293.307 L1952.01 293.307 Z" fill="#000000" fill-rule="nonzero" fill-opacity="1"></path><path clip-path="url(#clip720)" d="M1986.8 297.913 Q1986.09 297.497 1985.23 297.311 Q1984.4 297.103 1983.38 297.103 Q1979.77 297.103 1977.82 299.464 Q1975.9 301.802 1975.9 306.2 L1975.9 319.858 L1971.62 319.858 L1971.62 293.932 L1975.9 293.932 L1975.9 297.96 Q1977.24 295.598 1979.4 294.464 Q1981.55 293.307 1984.63 293.307 Q1985.07 293.307 1985.6 293.376 Q1986.13 293.423 1986.78 293.538 L1986.8 297.913 Z" fill="#000000" fill-rule="nonzero" fill-opacity="1"></path><path clip-path="url(#clip720)" d="M2004.4 283.839 L2004.4 287.381 L2000.32 287.381 Q1998.03 287.381 1997.13 288.307 Q1996.25 289.233 1996.25 291.64 L1996.25 293.932 L2003.26 293.932 L2003.26 297.242 L1996.25 297.242 L1996.25 319.858 L1991.97 319.858 L1991.97 297.242 L1987.89 297.242 L1987.89 293.932 L1991.97 293.932 L1991.97 292.126 Q1991.97 287.798 1993.98 285.83 Q1995.99 283.839 2000.37 283.839 L2004.4 283.839 Z" fill="#000000" fill-rule="nonzero" fill-opacity="1"></path><path clip-path="url(#clip720)" d="M2019.74 306.825 Q2014.58 306.825 2012.59 308.006 Q2010.6 309.186 2010.6 312.034 Q2010.6 314.302 2012.08 315.645 Q2013.59 316.964 2016.16 316.964 Q2019.7 316.964 2021.83 314.464 Q2023.98 311.941 2023.98 307.774 L2023.98 306.825 L2019.74 306.825 M2028.24 305.066 L2028.24 319.858 L2023.98 319.858 L2023.98 315.922 Q2022.52 318.283 2020.35 319.418 Q2018.17 320.529 2015.02 320.529 Q2011.04 320.529 2008.68 318.307 Q2006.34 316.061 2006.34 312.311 Q2006.34 307.936 2009.26 305.714 Q2012.2 303.492 2018.01 303.492 L2023.98 303.492 L2023.98 303.075 Q2023.98 300.135 2022.04 298.538 Q2020.11 296.918 2016.62 296.918 Q2014.4 296.918 2012.29 297.45 Q2010.18 297.983 2008.24 299.047 L2008.24 295.112 Q2010.58 294.21 2012.78 293.77 Q2014.97 293.307 2017.06 293.307 Q2022.68 293.307 2025.46 296.223 Q2028.24 299.14 2028.24 305.066 Z" fill="#000000" fill-rule="nonzero" fill-opacity="1"></path><path clip-path="url(#clip720)" d="M2055.67 294.927 L2055.67 298.909 Q2053.86 297.913 2052.03 297.427 Q2050.23 296.918 2048.38 296.918 Q2044.23 296.918 2041.94 299.557 Q2039.65 302.172 2039.65 306.918 Q2039.65 311.663 2041.94 314.302 Q2044.23 316.918 2048.38 316.918 Q2050.23 316.918 2052.03 316.432 Q2053.86 315.922 2055.67 314.927 L2055.67 318.862 Q2053.89 319.696 2051.97 320.112 Q2050.07 320.529 2047.91 320.529 Q2042.06 320.529 2038.61 316.848 Q2035.16 313.168 2035.16 306.918 Q2035.16 300.575 2038.63 296.941 Q2042.13 293.307 2048.19 293.307 Q2050.16 293.307 2052.03 293.723 Q2053.91 294.117 2055.67 294.927 Z" fill="#000000" fill-rule="nonzero" fill-opacity="1"></path><path clip-path="url(#clip720)" d="M2085.25 305.83 L2085.25 307.913 L2065.67 307.913 Q2065.95 312.311 2068.31 314.626 Q2070.69 316.918 2074.93 316.918 Q2077.38 316.918 2079.67 316.316 Q2081.99 315.714 2084.26 314.51 L2084.26 318.538 Q2081.97 319.51 2079.56 320.02 Q2077.15 320.529 2074.67 320.529 Q2068.47 320.529 2064.84 316.918 Q2061.22 313.307 2061.22 307.149 Q2061.22 300.784 2064.65 297.057 Q2068.1 293.307 2073.93 293.307 Q2079.16 293.307 2082.2 296.686 Q2085.25 300.043 2085.25 305.83 M2080.99 304.58 Q2080.95 301.085 2079.03 299.001 Q2077.13 296.918 2073.98 296.918 Q2070.41 296.918 2068.26 298.932 Q2066.13 300.946 2065.81 304.603 L2080.99 304.58 Z" fill="#000000" fill-rule="nonzero" fill-opacity="1"></path><path clip-path="url(#clip720)" d="M2107.31 293.932 L2111.57 293.932 L2111.57 319.858 L2107.31 319.858 L2107.31 293.932 M2107.31 283.839 L2111.57 283.839 L2111.57 289.233 L2107.31 289.233 L2107.31 283.839 Z" fill="#000000" fill-rule="nonzero" fill-opacity="1"></path><path clip-path="url(#clip720)" d="M2142.03 304.209 L2142.03 319.858 L2137.78 319.858 L2137.78 304.348 Q2137.78 300.668 2136.34 298.839 Q2134.9 297.01 2132.03 297.01 Q2128.59 297.01 2126.59 299.21 Q2124.6 301.409 2124.6 305.205 L2124.6 319.858 L2120.32 319.858 L2120.32 293.932 L2124.6 293.932 L2124.6 297.96 Q2126.13 295.622 2128.19 294.464 Q2130.28 293.307 2132.98 293.307 Q2137.45 293.307 2139.74 296.085 Q2142.03 298.839 2142.03 304.209 Z" fill="#000000" fill-rule="nonzero" fill-opacity="1"></path><path clip-path="url(#clip720)" d="M2150.53 293.932 L2154.79 293.932 L2154.79 319.858 L2150.53 319.858 L2150.53 293.932 M2150.53 283.839 L2154.79 283.839 L2154.79 289.233 L2150.53 289.233 L2150.53 283.839 Z" fill="#000000" fill-rule="nonzero" fill-opacity="1"></path><path clip-path="url(#clip720)" d="M2167.91 286.571 L2167.91 293.932 L2176.69 293.932 L2176.69 297.242 L2167.91 297.242 L2167.91 311.316 Q2167.91 314.487 2168.77 315.39 Q2169.65 316.293 2172.31 316.293 L2176.69 316.293 L2176.69 319.858 L2172.31 319.858 Q2167.38 319.858 2165.51 318.029 Q2163.63 316.177 2163.63 311.316 L2163.63 297.242 L2160.51 297.242 L2160.51 293.932 L2163.63 293.932 L2163.63 286.571 L2167.91 286.571 Z" fill="#000000" fill-rule="nonzero" fill-opacity="1"></path><path clip-path="url(#clip720)" d="M2182.29 293.932 L2186.55 293.932 L2186.55 319.858 L2182.29 319.858 L2182.29 293.932 M2182.29 283.839 L2186.55 283.839 L2186.55 289.233 L2182.29 289.233 L2182.29 283.839 Z" fill="#000000" fill-rule="nonzero" fill-opacity="1"></path><path clip-path="url(#clip720)" d="M2207.24 306.825 Q2202.08 306.825 2200.09 308.006 Q2198.1 309.186 2198.1 312.034 Q2198.1 314.302 2199.58 315.645 Q2201.09 316.964 2203.65 316.964 Q2207.2 316.964 2209.33 314.464 Q2211.48 311.941 2211.48 307.774 L2211.48 306.825 L2207.24 306.825 M2215.74 305.066 L2215.74 319.858 L2211.48 319.858 L2211.48 315.922 Q2210.02 318.283 2207.84 319.418 Q2205.67 320.529 2202.52 320.529 Q2198.54 320.529 2196.18 318.307 Q2193.84 316.061 2193.84 312.311 Q2193.84 307.936 2196.76 305.714 Q2199.7 303.492 2205.51 303.492 L2211.48 303.492 L2211.48 303.075 Q2211.48 300.135 2209.53 298.538 Q2207.61 296.918 2204.12 296.918 Q2201.9 296.918 2199.79 297.45 Q2197.68 297.983 2195.74 299.047 L2195.74 295.112 Q2198.08 294.21 2200.27 293.77 Q2202.47 293.307 2204.56 293.307 Q2210.18 293.307 2212.96 296.223 Q2215.74 299.14 2215.74 305.066 Z" fill="#000000" fill-rule="nonzero" fill-opacity="1"></path><path clip-path="url(#clip720)" d="M2224.51 283.839 L2228.77 283.839 L2228.77 319.858 L2224.51 319.858 L2224.51 283.839 Z" fill="#000000" fill-rule="nonzero" fill-opacity="1"></path><path clip-path="url(#clip720)" d="M2259.86 305.83 L2259.86 307.913 L2240.27 307.913 Q2240.55 312.311 2242.91 314.626 Q2245.3 316.918 2249.53 316.918 Q2251.99 316.918 2254.28 316.316 Q2256.59 315.714 2258.86 314.51 L2258.86 318.538 Q2256.57 319.51 2254.16 320.02 Q2251.76 320.529 2249.28 320.529 Q2243.08 320.529 2239.44 316.918 Q2235.83 313.307 2235.83 307.149 Q2235.83 300.784 2239.26 297.057 Q2242.71 293.307 2248.54 293.307 Q2253.77 293.307 2256.8 296.686 Q2259.86 300.043 2259.86 305.83 M2255.6 304.58 Q2255.55 301.085 2253.63 299.001 Q2251.73 296.918 2248.58 296.918 Q2245.02 296.918 2242.87 298.932 Q2240.74 300.946 2240.41 304.603 L2255.6 304.58 Z" fill="#000000" fill-rule="nonzero" fill-opacity="1"></path><polyline clip-path="url(#clip720)" style="stroke:#000000; stroke-linecap:round; stroke-linejoin:round; stroke-width:4; stroke-opacity:1; fill:none" stroke-dasharray="16, 10" points="1752.57,354.418 1891.91,354.418 "></polyline>
<path clip-path="url(#clip720)" d="M1933.56 346.536 L1933.56 350.563 Q1931.76 349.637 1929.81 349.175 Q1927.87 348.712 1925.79 348.712 Q1922.61 348.712 1921.02 349.684 Q1919.44 350.656 1919.44 352.6 Q1919.44 354.082 1920.58 354.938 Q1921.71 355.772 1925.14 356.536 L1926.6 356.86 Q1931.13 357.832 1933.03 359.614 Q1934.95 361.374 1934.95 364.545 Q1934.95 368.156 1932.08 370.262 Q1929.23 372.369 1924.23 372.369 Q1922.15 372.369 1919.88 371.952 Q1917.64 371.559 1915.14 370.748 L1915.14 366.35 Q1917.5 367.577 1919.79 368.202 Q1922.08 368.804 1924.33 368.804 Q1927.34 368.804 1928.96 367.786 Q1930.58 366.744 1930.58 364.869 Q1930.58 363.133 1929.4 362.207 Q1928.24 361.281 1924.28 360.424 L1922.8 360.077 Q1918.84 359.244 1917.08 357.531 Q1915.32 355.795 1915.32 352.786 Q1915.32 349.128 1917.92 347.138 Q1920.51 345.147 1925.28 345.147 Q1927.64 345.147 1929.72 345.494 Q1931.8 345.841 1933.56 346.536 Z" fill="#000000" fill-rule="nonzero" fill-opacity="1"></path><path clip-path="url(#clip720)" d="M1941.29 361.466 L1941.29 345.772 L1945.55 345.772 L1945.55 361.304 Q1945.55 364.985 1946.99 366.836 Q1948.42 368.665 1951.29 368.665 Q1954.74 368.665 1956.73 366.466 Q1958.75 364.267 1958.75 360.471 L1958.75 345.772 L1963.01 345.772 L1963.01 371.698 L1958.75 371.698 L1958.75 367.716 Q1957.2 370.077 1955.14 371.235 Q1953.1 372.369 1950.39 372.369 Q1945.92 372.369 1943.61 369.591 Q1941.29 366.813 1941.29 361.466 M1952.01 345.147 L1952.01 345.147 Z" fill="#000000" fill-rule="nonzero" fill-opacity="1"></path><path clip-path="url(#clip720)" d="M1986.8 349.753 Q1986.09 349.337 1985.23 349.151 Q1984.4 348.943 1983.38 348.943 Q1979.77 348.943 1977.82 351.304 Q1975.9 353.642 1975.9 358.04 L1975.9 371.698 L1971.62 371.698 L1971.62 345.772 L1975.9 345.772 L1975.9 349.8 Q1977.24 347.438 1979.4 346.304 Q1981.55 345.147 1984.63 345.147 Q1985.07 345.147 1985.6 345.216 Q1986.13 345.263 1986.78 345.378 L1986.8 349.753 Z" fill="#000000" fill-rule="nonzero" fill-opacity="1"></path><path clip-path="url(#clip720)" d="M2004.4 335.679 L2004.4 339.221 L2000.32 339.221 Q1998.03 339.221 1997.13 340.147 Q1996.25 341.073 1996.25 343.48 L1996.25 345.772 L2003.26 345.772 L2003.26 349.082 L1996.25 349.082 L1996.25 371.698 L1991.97 371.698 L1991.97 349.082 L1987.89 349.082 L1987.89 345.772 L1991.97 345.772 L1991.97 343.966 Q1991.97 339.638 1993.98 337.67 Q1995.99 335.679 2000.37 335.679 L2004.4 335.679 Z" fill="#000000" fill-rule="nonzero" fill-opacity="1"></path><path clip-path="url(#clip720)" d="M2019.74 358.665 Q2014.58 358.665 2012.59 359.846 Q2010.6 361.026 2010.6 363.874 Q2010.6 366.142 2012.08 367.485 Q2013.59 368.804 2016.16 368.804 Q2019.7 368.804 2021.83 366.304 Q2023.98 363.781 2023.98 359.614 L2023.98 358.665 L2019.74 358.665 M2028.24 356.906 L2028.24 371.698 L2023.98 371.698 L2023.98 367.762 Q2022.52 370.123 2020.35 371.258 Q2018.17 372.369 2015.02 372.369 Q2011.04 372.369 2008.68 370.147 Q2006.34 367.901 2006.34 364.151 Q2006.34 359.776 2009.26 357.554 Q2012.2 355.332 2018.01 355.332 L2023.98 355.332 L2023.98 354.915 Q2023.98 351.975 2022.04 350.378 Q2020.11 348.758 2016.62 348.758 Q2014.4 348.758 2012.29 349.29 Q2010.18 349.823 2008.24 350.887 L2008.24 346.952 Q2010.58 346.05 2012.78 345.61 Q2014.97 345.147 2017.06 345.147 Q2022.68 345.147 2025.46 348.063 Q2028.24 350.98 2028.24 356.906 Z" fill="#000000" fill-rule="nonzero" fill-opacity="1"></path><path clip-path="url(#clip720)" d="M2055.67 346.767 L2055.67 350.749 Q2053.86 349.753 2052.03 349.267 Q2050.23 348.758 2048.38 348.758 Q2044.23 348.758 2041.94 351.397 Q2039.65 354.012 2039.65 358.758 Q2039.65 363.503 2041.94 366.142 Q2044.23 368.758 2048.38 368.758 Q2050.23 368.758 2052.03 368.272 Q2053.86 367.762 2055.67 366.767 L2055.67 370.702 Q2053.89 371.536 2051.97 371.952 Q2050.07 372.369 2047.91 372.369 Q2042.06 372.369 2038.61 368.688 Q2035.16 365.008 2035.16 358.758 Q2035.16 352.415 2038.63 348.781 Q2042.13 345.147 2048.19 345.147 Q2050.16 345.147 2052.03 345.563 Q2053.91 345.957 2055.67 346.767 Z" fill="#000000" fill-rule="nonzero" fill-opacity="1"></path><path clip-path="url(#clip720)" d="M2085.25 357.67 L2085.25 359.753 L2065.67 359.753 Q2065.95 364.151 2068.31 366.466 Q2070.69 368.758 2074.93 368.758 Q2077.38 368.758 2079.67 368.156 Q2081.99 367.554 2084.26 366.35 L2084.26 370.378 Q2081.97 371.35 2079.56 371.86 Q2077.15 372.369 2074.67 372.369 Q2068.47 372.369 2064.84 368.758 Q2061.22 365.147 2061.22 358.989 Q2061.22 352.624 2064.65 348.897 Q2068.1 345.147 2073.93 345.147 Q2079.16 345.147 2082.2 348.526 Q2085.25 351.883 2085.25 357.67 M2080.99 356.42 Q2080.95 352.925 2079.03 350.841 Q2077.13 348.758 2073.98 348.758 Q2070.41 348.758 2068.26 350.772 Q2066.13 352.786 2065.81 356.443 L2080.99 356.42 Z" fill="#000000" fill-rule="nonzero" fill-opacity="1"></path><path clip-path="url(#clip720)" d="M2117.36 348.758 Q2113.93 348.758 2111.94 351.443 Q2109.95 354.105 2109.95 358.758 Q2109.95 363.411 2111.92 366.096 Q2113.91 368.758 2117.36 368.758 Q2120.76 368.758 2122.75 366.073 Q2124.74 363.387 2124.74 358.758 Q2124.74 354.151 2122.75 351.466 Q2120.76 348.758 2117.36 348.758 M2117.36 345.147 Q2122.91 345.147 2126.09 348.758 Q2129.26 352.369 2129.26 358.758 Q2129.26 365.124 2126.09 368.758 Q2122.91 372.369 2117.36 372.369 Q2111.78 372.369 2108.61 368.758 Q2105.46 365.124 2105.46 358.758 Q2105.46 352.369 2108.61 348.758 Q2111.78 345.147 2117.36 345.147 Z" fill="#000000" fill-rule="nonzero" fill-opacity="1"></path><path clip-path="url(#clip720)" d="M2153.38 358.434 Q2153.38 353.804 2151.46 351.258 Q2149.56 348.712 2146.11 348.712 Q2142.68 348.712 2140.76 351.258 Q2138.86 353.804 2138.86 358.434 Q2138.86 363.04 2140.76 365.586 Q2142.68 368.133 2146.11 368.133 Q2149.56 368.133 2151.46 365.586 Q2153.38 363.04 2153.38 358.434 M2157.64 368.48 Q2157.64 375.1 2154.7 378.318 Q2151.76 381.559 2145.69 381.559 Q2143.45 381.559 2141.46 381.211 Q2139.47 380.887 2137.59 380.193 L2137.59 376.049 Q2139.47 377.068 2141.29 377.554 Q2143.12 378.04 2145.02 378.04 Q2149.21 378.04 2151.29 375.841 Q2153.38 373.665 2153.38 369.244 L2153.38 367.137 Q2152.06 369.429 2150 370.563 Q2147.94 371.698 2145.07 371.698 Q2140.3 371.698 2137.38 368.063 Q2134.47 364.429 2134.47 358.434 Q2134.47 352.415 2137.38 348.781 Q2140.3 345.147 2145.07 345.147 Q2147.94 345.147 2150 346.281 Q2152.06 347.415 2153.38 349.707 L2153.38 345.772 L2157.64 345.772 L2157.64 368.48 Z" fill="#000000" fill-rule="nonzero" fill-opacity="1"></path><path clip-path="url(#clip720)" d="M2183.47 358.434 Q2183.47 353.804 2181.55 351.258 Q2179.65 348.712 2176.2 348.712 Q2172.78 348.712 2170.85 351.258 Q2168.96 353.804 2168.96 358.434 Q2168.96 363.04 2170.85 365.586 Q2172.78 368.133 2176.2 368.133 Q2179.65 368.133 2181.55 365.586 Q2183.47 363.04 2183.47 358.434 M2187.73 368.48 Q2187.73 375.1 2184.79 378.318 Q2181.85 381.559 2175.78 381.559 Q2173.54 381.559 2171.55 381.211 Q2169.56 380.887 2167.68 380.193 L2167.68 376.049 Q2169.56 377.068 2171.39 377.554 Q2173.21 378.04 2175.11 378.04 Q2179.3 378.04 2181.39 375.841 Q2183.47 373.665 2183.47 369.244 L2183.47 367.137 Q2182.15 369.429 2180.09 370.563 Q2178.03 371.698 2175.16 371.698 Q2170.39 371.698 2167.47 368.063 Q2164.56 364.429 2164.56 358.434 Q2164.56 352.415 2167.47 348.781 Q2170.39 345.147 2175.16 345.147 Q2178.03 345.147 2180.09 346.281 Q2182.15 347.415 2183.47 349.707 L2183.47 345.772 L2187.73 345.772 L2187.73 368.48 Z" fill="#000000" fill-rule="nonzero" fill-opacity="1"></path><path clip-path="url(#clip720)" d="M2216.69 350.749 Q2218.28 347.878 2220.51 346.513 Q2222.73 345.147 2225.74 345.147 Q2229.79 345.147 2231.99 347.994 Q2234.19 350.818 2234.19 356.049 L2234.19 371.698 L2229.9 371.698 L2229.9 356.188 Q2229.9 352.462 2228.58 350.656 Q2227.27 348.85 2224.56 348.85 Q2221.25 348.85 2219.33 351.05 Q2217.4 353.249 2217.4 357.045 L2217.4 371.698 L2213.12 371.698 L2213.12 356.188 Q2213.12 352.438 2211.8 350.656 Q2210.48 348.85 2207.73 348.85 Q2204.46 348.85 2202.54 351.073 Q2200.62 353.272 2200.62 357.045 L2200.62 371.698 L2196.34 371.698 L2196.34 345.772 L2200.62 345.772 L2200.62 349.8 Q2202.08 347.415 2204.12 346.281 Q2206.15 345.147 2208.96 345.147 Q2211.78 345.147 2213.75 346.582 Q2215.74 348.017 2216.69 350.749 Z" fill="#000000" fill-rule="nonzero" fill-opacity="1"></path></svg>