<svg xmlns="http://www.w3.org/2000/svg" xmlns:xlink="http://www.w3.org/1999/xlink" width="600" height="400" viewBox="0 0 2400 1600">
<defs>
  <clipPath id="clip400">
    <rect x="0" y="0" width="2400" height="1600"></rect>
  </clipPath>
</defs>
<path clip-path="url(#clip400)" d="M0 1600 L2400 1600 L2400 0 L0 0  Z" fill="#ffffff" fill-rule="evenodd" fill-opacity="1"></path>
<defs>
  <clipPath id="clip401">
    <rect x="480" y="0" width="1681" height="1600"></rect>
  </clipPath>
</defs>
<path clip-path="url(#clip400)" d="M264.287 1486.45 L2352.76 1486.45 L2352.76 123.472 L264.287 123.472  Z" fill="#ffffff" fill-rule="evenodd" fill-opacity="1"></path>
<defs>
  <clipPath id="clip402">
    <rect x="264" y="123" width="2089" height="1364"></rect>
  </clipPath>
</defs>
<polyline clip-path="url(#clip402)" style="stroke:#000000; stroke-linecap:round; stroke-linejoin:round; stroke-width:2; stroke-opacity:0.1; fill:none" points="298.767,1486.45 298.767,123.472 "></polyline>
<polyline clip-path="url(#clip402)" style="stroke:#000000; stroke-linecap:round; stroke-linejoin:round; stroke-width:2; stroke-opacity:0.1; fill:none" points="791.33,1486.45 791.33,123.472 "></polyline>
<polyline clip-path="url(#clip402)" style="stroke:#000000; stroke-linecap:round; stroke-linejoin:round; stroke-width:2; stroke-opacity:0.1; fill:none" points="1283.89,1486.45 1283.89,123.472 "></polyline>
<polyline clip-path="url(#clip402)" style="stroke:#000000; stroke-linecap:round; stroke-linejoin:round; stroke-width:2; stroke-opacity:0.1; fill:none" points="1776.46,1486.45 1776.46,123.472 "></polyline>
<polyline clip-path="url(#clip402)" style="stroke:#000000; stroke-linecap:round; stroke-linejoin:round; stroke-width:2; stroke-opacity:0.1; fill:none" points="2269.02,1486.45 2269.02,123.472 "></polyline>
<polyline clip-path="url(#clip400)" style="stroke:#000000; stroke-linecap:round; stroke-linejoin:round; stroke-width:4; stroke-opacity:1; fill:none" points="264.287,1486.45 2352.76,1486.45 "></polyline>
<polyline clip-path="url(#clip400)" style="stroke:#000000; stroke-linecap:round; stroke-linejoin:round; stroke-width:4; stroke-opacity:1; fill:none" points="298.767,1486.45 298.767,1467.55 "></polyline>
<polyline clip-path="url(#clip400)" style="stroke:#000000; stroke-linecap:round; stroke-linejoin:round; stroke-width:4; stroke-opacity:1; fill:none" points="791.33,1486.45 791.33,1467.55 "></polyline>
<polyline clip-path="url(#clip400)" style="stroke:#000000; stroke-linecap:round; stroke-linejoin:round; stroke-width:4; stroke-opacity:1; fill:none" points="1283.89,1486.45 1283.89,1467.55 "></polyline>
<polyline clip-path="url(#clip400)" style="stroke:#000000; stroke-linecap:round; stroke-linejoin:round; stroke-width:4; stroke-opacity:1; fill:none" points="1776.46,1486.45 1776.46,1467.55 "></polyline>
<polyline clip-path="url(#clip400)" style="stroke:#000000; stroke-linecap:round; stroke-linejoin:round; stroke-width:4; stroke-opacity:1; fill:none" points="2269.02,1486.45 2269.02,1467.55 "></polyline>
<path clip-path="url(#clip400)" d="M298.767 1517.37 Q295.156 1517.37 293.327 1520.93 Q291.521 1524.47 291.521 1531.6 Q291.521 1538.71 293.327 1542.27 Q295.156 1545.82 298.767 1545.82 Q302.401 1545.82 304.207 1542.27 Q306.035 1538.71 306.035 1531.6 Q306.035 1524.47 304.207 1520.93 Q302.401 1517.37 298.767 1517.37 M298.767 1513.66 Q304.577 1513.66 307.632 1518.27 Q310.711 1522.85 310.711 1531.6 Q310.711 1540.33 307.632 1544.94 Q304.577 1549.52 298.767 1549.52 Q292.957 1549.52 289.878 1544.94 Q286.822 1540.33 286.822 1531.6 Q286.822 1522.85 289.878 1518.27 Q292.957 1513.66 298.767 1513.66 Z" fill="#000000" fill-rule="nonzero" fill-opacity="1"></path><path clip-path="url(#clip400)" d="M770.103 1544.91 L786.423 1544.91 L786.423 1548.85 L764.478 1548.85 L764.478 1544.91 Q767.14 1542.16 771.724 1537.53 Q776.33 1532.88 777.511 1531.53 Q779.756 1529.01 780.636 1527.27 Q781.538 1525.51 781.538 1523.82 Q781.538 1521.07 779.594 1519.33 Q777.673 1517.6 774.571 1517.6 Q772.372 1517.6 769.918 1518.36 Q767.488 1519.13 764.71 1520.68 L764.71 1515.95 Q767.534 1514.82 769.988 1514.24 Q772.441 1513.66 774.478 1513.66 Q779.849 1513.66 783.043 1516.35 Q786.238 1519.03 786.238 1523.52 Q786.238 1525.65 785.427 1527.57 Q784.64 1529.47 782.534 1532.07 Q781.955 1532.74 778.853 1535.95 Q775.751 1539.15 770.103 1544.91 Z" fill="#000000" fill-rule="nonzero" fill-opacity="1"></path><path clip-path="url(#clip400)" d="M806.237 1517.37 Q802.626 1517.37 800.798 1520.93 Q798.992 1524.47 798.992 1531.6 Q798.992 1538.71 800.798 1542.27 Q802.626 1545.82 806.237 1545.82 Q809.872 1545.82 811.677 1542.27 Q813.506 1538.71 813.506 1531.6 Q813.506 1524.47 811.677 1520.93 Q809.872 1517.37 806.237 1517.37 M806.237 1513.66 Q812.048 1513.66 815.103 1518.27 Q818.182 1522.85 818.182 1531.6 Q818.182 1540.33 815.103 1544.94 Q812.048 1549.52 806.237 1549.52 Q800.427 1549.52 797.349 1544.94 Q794.293 1540.33 794.293 1531.6 Q794.293 1522.85 797.349 1518.27 Q800.427 1513.66 806.237 1513.66 Z" fill="#000000" fill-rule="nonzero" fill-opacity="1"></path><path clip-path="url(#clip400)" d="M1272.06 1518.36 L1260.26 1536.81 L1272.06 1536.81 L1272.06 1518.36 M1270.84 1514.29 L1276.72 1514.29 L1276.72 1536.81 L1281.65 1536.81 L1281.65 1540.7 L1276.72 1540.7 L1276.72 1548.85 L1272.06 1548.85 L1272.06 1540.7 L1256.46 1540.7 L1256.46 1536.19 L1270.84 1514.29 Z" fill="#000000" fill-rule="nonzero" fill-opacity="1"></path><path clip-path="url(#clip400)" d="M1299.38 1517.37 Q1295.77 1517.37 1293.94 1520.93 Q1292.13 1524.47 1292.13 1531.6 Q1292.13 1538.71 1293.94 1542.27 Q1295.77 1545.82 1299.38 1545.82 Q1303.01 1545.82 1304.82 1542.27 Q1306.65 1538.71 1306.65 1531.6 Q1306.65 1524.47 1304.82 1520.93 Q1303.01 1517.37 1299.38 1517.37 M1299.38 1513.66 Q1305.19 1513.66 1308.25 1518.27 Q1311.32 1522.85 1311.32 1531.6 Q1311.32 1540.33 1308.25 1544.94 Q1305.19 1549.52 1299.38 1549.52 Q1293.57 1549.52 1290.49 1544.94 Q1287.44 1540.33 1287.44 1531.6 Q1287.44 1522.85 1290.49 1518.27 Q1293.57 1513.66 1299.38 1513.66 Z" fill="#000000" fill-rule="nonzero" fill-opacity="1"></path><path clip-path="url(#clip400)" d="M1761.86 1529.7 Q1758.71 1529.7 1756.86 1531.86 Q1755.03 1534.01 1755.03 1537.76 Q1755.03 1541.49 1756.86 1543.66 Q1758.71 1545.82 1761.86 1545.82 Q1765.01 1545.82 1766.84 1543.66 Q1768.69 1541.49 1768.69 1537.76 Q1768.69 1534.01 1766.84 1531.86 Q1765.01 1529.7 1761.86 1529.7 M1771.14 1515.05 L1771.14 1519.31 Q1769.39 1518.48 1767.58 1518.04 Q1765.8 1517.6 1764.04 1517.6 Q1759.41 1517.6 1756.95 1520.72 Q1754.52 1523.85 1754.18 1530.17 Q1755.54 1528.15 1757.6 1527.09 Q1759.66 1526 1762.14 1526 Q1767.35 1526 1770.36 1529.17 Q1773.39 1532.32 1773.39 1537.76 Q1773.39 1543.08 1770.24 1546.3 Q1767.09 1549.52 1761.86 1549.52 Q1755.87 1549.52 1752.7 1544.94 Q1749.52 1540.33 1749.52 1531.6 Q1749.52 1523.41 1753.41 1518.55 Q1757.3 1513.66 1763.85 1513.66 Q1765.61 1513.66 1767.39 1514.01 Q1769.2 1514.36 1771.14 1515.05 Z" fill="#000000" fill-rule="nonzero" fill-opacity="1"></path><path clip-path="url(#clip400)" d="M1791.45 1517.37 Q1787.83 1517.37 1786.01 1520.93 Q1784.2 1524.47 1784.2 1531.6 Q1784.2 1538.71 1786.01 1542.27 Q1787.83 1545.82 1791.45 1545.82 Q1795.08 1545.82 1796.88 1542.27 Q1798.71 1538.71 1798.71 1531.6 Q1798.71 1524.47 1796.88 1520.93 Q1795.08 1517.37 1791.45 1517.37 M1791.45 1513.66 Q1797.26 1513.66 1800.31 1518.27 Q1803.39 1522.85 1803.39 1531.6 Q1803.39 1540.33 1800.31 1544.94 Q1797.26 1549.52 1791.45 1549.52 Q1785.63 1549.52 1782.56 1544.94 Q1779.5 1540.33 1779.5 1531.6 Q1779.5 1522.85 1782.56 1518.27 Q1785.63 1513.66 1791.45 1513.66 Z" fill="#000000" fill-rule="nonzero" fill-opacity="1"></path><path clip-path="url(#clip400)" d="M2253.89 1532.44 Q2250.56 1532.44 2248.64 1534.22 Q2246.74 1536 2246.74 1539.13 Q2246.74 1542.25 2248.64 1544.03 Q2250.56 1545.82 2253.89 1545.82 Q2257.23 1545.82 2259.15 1544.03 Q2261.07 1542.23 2261.07 1539.13 Q2261.07 1536 2259.15 1534.22 Q2257.25 1532.44 2253.89 1532.44 M2249.22 1530.45 Q2246.21 1529.7 2244.52 1527.64 Q2242.85 1525.58 2242.85 1522.62 Q2242.85 1518.48 2245.79 1516.07 Q2248.75 1513.66 2253.89 1513.66 Q2259.05 1513.66 2261.99 1516.07 Q2264.93 1518.48 2264.93 1522.62 Q2264.93 1525.58 2263.24 1527.64 Q2261.58 1529.7 2258.59 1530.45 Q2261.97 1531.23 2263.85 1533.52 Q2265.74 1535.82 2265.74 1539.13 Q2265.74 1544.15 2262.67 1546.83 Q2259.61 1549.52 2253.89 1549.52 Q2248.18 1549.52 2245.1 1546.83 Q2242.04 1544.15 2242.04 1539.13 Q2242.04 1535.82 2243.94 1533.52 Q2245.84 1531.23 2249.22 1530.45 M2247.5 1523.06 Q2247.5 1525.75 2249.17 1527.25 Q2250.86 1528.76 2253.89 1528.76 Q2256.9 1528.76 2258.59 1527.25 Q2260.3 1525.75 2260.3 1523.06 Q2260.3 1520.38 2258.59 1518.87 Q2256.9 1517.37 2253.89 1517.37 Q2250.86 1517.37 2249.17 1518.87 Q2247.5 1520.38 2247.5 1523.06 Z" fill="#000000" fill-rule="nonzero" fill-opacity="1"></path><path clip-path="url(#clip400)" d="M2284.05 1517.37 Q2280.44 1517.37 2278.61 1520.93 Q2276.81 1524.47 2276.81 1531.6 Q2276.81 1538.71 2278.61 1542.27 Q2280.44 1545.82 2284.05 1545.82 Q2287.69 1545.82 2289.49 1542.27 Q2291.32 1538.71 2291.32 1531.6 Q2291.32 1524.47 2289.49 1520.93 Q2287.69 1517.37 2284.05 1517.37 M2284.05 1513.66 Q2289.86 1513.66 2292.92 1518.27 Q2296 1522.85 2296 1531.6 Q2296 1540.33 2292.92 1544.94 Q2289.86 1549.52 2284.05 1549.52 Q2278.24 1549.52 2275.17 1544.94 Q2272.11 1540.33 2272.11 1531.6 Q2272.11 1522.85 2275.17 1518.27 Q2278.24 1513.66 2284.05 1513.66 Z" fill="#000000" fill-rule="nonzero" fill-opacity="1"></path><polyline clip-path="url(#clip402)" style="stroke:#000000; stroke-linecap:round; stroke-linejoin:round; stroke-width:2; stroke-opacity:0.1; fill:none" points="264.287,1482.6 2352.76,1482.6 "></polyline>
<polyline clip-path="url(#clip402)" style="stroke:#000000; stroke-linecap:round; stroke-linejoin:round; stroke-width:2; stroke-opacity:0.1; fill:none" points="264.287,1209.86 2352.76,1209.86 "></polyline>
<polyline clip-path="url(#clip402)" style="stroke:#000000; stroke-linecap:round; stroke-linejoin:round; stroke-width:2; stroke-opacity:0.1; fill:none" points="264.287,937.12 2352.76,937.12 "></polyline>
<polyline clip-path="url(#clip402)" style="stroke:#000000; stroke-linecap:round; stroke-linejoin:round; stroke-width:2; stroke-opacity:0.1; fill:none" points="264.287,664.378 2352.76,664.378 "></polyline>
<polyline clip-path="url(#clip402)" style="stroke:#000000; stroke-linecap:round; stroke-linejoin:round; stroke-width:2; stroke-opacity:0.1; fill:none" points="264.287,391.635 2352.76,391.635 "></polyline>
<polyline clip-path="url(#clip400)" style="stroke:#000000; stroke-linecap:round; stroke-linejoin:round; stroke-width:4; stroke-opacity:1; fill:none" points="264.287,1486.45 264.287,123.472 "></polyline>
<polyline clip-path="url(#clip400)" style="stroke:#000000; stroke-linecap:round; stroke-linejoin:round; stroke-width:4; stroke-opacity:1; fill:none" points="264.287,1482.6 283.185,1482.6 "></polyline>
<polyline clip-path="url(#clip400)" style="stroke:#000000; stroke-linecap:round; stroke-linejoin:round; stroke-width:4; stroke-opacity:1; fill:none" points="264.287,1209.86 283.185,1209.86 "></polyline>
<polyline clip-path="url(#clip400)" style="stroke:#000000; stroke-linecap:round; stroke-linejoin:round; stroke-width:4; stroke-opacity:1; fill:none" points="264.287,937.12 283.185,937.12 "></polyline>
<polyline clip-path="url(#clip400)" style="stroke:#000000; stroke-linecap:round; stroke-linejoin:round; stroke-width:4; stroke-opacity:1; fill:none" points="264.287,664.378 283.185,664.378 "></polyline>
<polyline clip-path="url(#clip400)" style="stroke:#000000; stroke-linecap:round; stroke-linejoin:round; stroke-width:4; stroke-opacity:1; fill:none" points="264.287,391.635 283.185,391.635 "></polyline>
<path clip-path="url(#clip400)" d="M119.885 1495.95 L136.204 1495.95 L136.204 1499.88 L114.26 1499.88 L114.26 1495.95 Q116.922 1493.19 121.505 1488.57 Q126.112 1483.91 127.292 1482.57 Q129.538 1480.05 130.417 1478.31 Q131.32 1476.55 131.32 1474.86 Q131.32 1472.11 129.376 1470.37 Q127.455 1468.63 124.353 1468.63 Q122.154 1468.63 119.7 1469.4 Q117.269 1470.16 114.492 1471.71 L114.492 1466.99 Q117.316 1465.86 119.769 1465.28 Q122.223 1464.7 124.26 1464.7 Q129.63 1464.7 132.825 1467.38 Q136.019 1470.07 136.019 1474.56 Q136.019 1476.69 135.209 1478.61 Q134.422 1480.51 132.316 1483.1 Q131.737 1483.77 128.635 1486.99 Q125.533 1490.19 119.885 1495.95 Z" fill="#000000" fill-rule="nonzero" fill-opacity="1"></path><path clip-path="url(#clip400)" d="M156.019 1468.4 Q152.408 1468.4 150.579 1471.97 Q148.774 1475.51 148.774 1482.64 Q148.774 1489.75 150.579 1493.31 Q152.408 1496.85 156.019 1496.85 Q159.653 1496.85 161.459 1493.31 Q163.288 1489.75 163.288 1482.64 Q163.288 1475.51 161.459 1471.97 Q159.653 1468.4 156.019 1468.4 M156.019 1464.7 Q161.829 1464.7 164.885 1469.31 Q167.964 1473.89 167.964 1482.64 Q167.964 1491.37 164.885 1495.97 Q161.829 1500.56 156.019 1500.56 Q150.209 1500.56 147.13 1495.97 Q144.075 1491.37 144.075 1482.64 Q144.075 1473.89 147.13 1469.31 Q150.209 1464.7 156.019 1464.7 Z" fill="#000000" fill-rule="nonzero" fill-opacity="1"></path><path clip-path="url(#clip400)" d="M186.181 1468.4 Q182.57 1468.4 180.741 1471.97 Q178.936 1475.51 178.936 1482.64 Q178.936 1489.75 180.741 1493.31 Q182.57 1496.85 186.181 1496.85 Q189.815 1496.85 191.621 1493.31 Q193.45 1489.75 193.45 1482.64 Q193.45 1475.51 191.621 1471.97 Q189.815 1468.4 186.181 1468.4 M186.181 1464.7 Q191.991 1464.7 195.047 1469.31 Q198.125 1473.89 198.125 1482.64 Q198.125 1491.37 195.047 1495.97 Q191.991 1500.56 186.181 1500.56 Q180.371 1500.56 177.292 1495.97 Q174.237 1491.37 174.237 1482.64 Q174.237 1473.89 177.292 1469.31 Q180.371 1464.7 186.181 1464.7 Z" fill="#000000" fill-rule="nonzero" fill-opacity="1"></path><path clip-path="url(#clip400)" d="M216.343 1468.4 Q212.732 1468.4 210.903 1471.97 Q209.098 1475.51 209.098 1482.64 Q209.098 1489.75 210.903 1493.31 Q212.732 1496.85 216.343 1496.85 Q219.977 1496.85 221.783 1493.31 Q223.611 1489.75 223.611 1482.64 Q223.611 1475.51 221.783 1471.97 Q219.977 1468.4 216.343 1468.4 M216.343 1464.7 Q222.153 1464.7 225.209 1469.31 Q228.287 1473.89 228.287 1482.64 Q228.287 1491.37 225.209 1495.97 Q222.153 1500.56 216.343 1500.56 Q210.533 1500.56 207.454 1495.97 Q204.399 1491.37 204.399 1482.64 Q204.399 1473.89 207.454 1469.31 Q210.533 1464.7 216.343 1464.7 Z" fill="#000000" fill-rule="nonzero" fill-opacity="1"></path><path clip-path="url(#clip400)" d="M119.885 1223.21 L136.204 1223.21 L136.204 1227.14 L114.26 1227.14 L114.26 1223.21 Q116.922 1220.45 121.505 1215.82 Q126.112 1211.17 127.292 1209.83 Q129.538 1207.3 130.417 1205.57 Q131.32 1203.81 131.32 1202.12 Q131.32 1199.36 129.376 1197.63 Q127.455 1195.89 124.353 1195.89 Q122.154 1195.89 119.7 1196.66 Q117.269 1197.42 114.492 1198.97 L114.492 1194.25 Q117.316 1193.11 119.769 1192.54 Q122.223 1191.96 124.26 1191.96 Q129.63 1191.96 132.825 1194.64 Q136.019 1197.33 136.019 1201.82 Q136.019 1203.95 135.209 1205.87 Q134.422 1207.77 132.316 1210.36 Q131.737 1211.03 128.635 1214.25 Q125.533 1217.44 119.885 1223.21 Z" fill="#000000" fill-rule="nonzero" fill-opacity="1"></path><path clip-path="url(#clip400)" d="M150.047 1223.21 L166.366 1223.21 L166.366 1227.14 L144.422 1227.14 L144.422 1223.21 Q147.084 1220.45 151.667 1215.82 Q156.274 1211.17 157.454 1209.83 Q159.7 1207.3 160.579 1205.57 Q161.482 1203.81 161.482 1202.12 Q161.482 1199.36 159.538 1197.63 Q157.616 1195.89 154.515 1195.89 Q152.316 1195.89 149.862 1196.66 Q147.431 1197.42 144.654 1198.97 L144.654 1194.25 Q147.478 1193.11 149.931 1192.54 Q152.385 1191.96 154.422 1191.96 Q159.792 1191.96 162.987 1194.64 Q166.181 1197.33 166.181 1201.82 Q166.181 1203.95 165.371 1205.87 Q164.584 1207.77 162.477 1210.36 Q161.899 1211.03 158.797 1214.25 Q155.695 1217.44 150.047 1223.21 Z" fill="#000000" fill-rule="nonzero" fill-opacity="1"></path><path clip-path="url(#clip400)" d="M176.227 1192.58 L194.584 1192.58 L194.584 1196.52 L180.51 1196.52 L180.51 1204.99 Q181.528 1204.64 182.547 1204.48 Q183.565 1204.3 184.584 1204.3 Q190.371 1204.3 193.75 1207.47 Q197.13 1210.64 197.13 1216.05 Q197.13 1221.63 193.658 1224.73 Q190.186 1227.81 183.866 1227.81 Q181.69 1227.81 179.422 1227.44 Q177.176 1227.07 174.769 1226.33 L174.769 1221.63 Q176.852 1222.77 179.075 1223.32 Q181.297 1223.88 183.774 1223.88 Q187.778 1223.88 190.116 1221.77 Q192.454 1219.67 192.454 1216.05 Q192.454 1212.44 190.116 1210.34 Q187.778 1208.23 183.774 1208.23 Q181.899 1208.23 180.024 1208.65 Q178.172 1209.06 176.227 1209.94 L176.227 1192.58 Z" fill="#000000" fill-rule="nonzero" fill-opacity="1"></path><path clip-path="url(#clip400)" d="M216.343 1195.66 Q212.732 1195.66 210.903 1199.23 Q209.098 1202.77 209.098 1209.9 Q209.098 1217 210.903 1220.57 Q212.732 1224.11 216.343 1224.11 Q219.977 1224.11 221.783 1220.57 Q223.611 1217 223.611 1209.9 Q223.611 1202.77 221.783 1199.23 Q219.977 1195.66 216.343 1195.66 M216.343 1191.96 Q222.153 1191.96 225.209 1196.56 Q228.287 1201.15 228.287 1209.9 Q228.287 1218.62 225.209 1223.23 Q222.153 1227.81 216.343 1227.81 Q210.533 1227.81 207.454 1223.23 Q204.399 1218.62 204.399 1209.9 Q204.399 1201.15 207.454 1196.56 Q210.533 1191.96 216.343 1191.96 Z" fill="#000000" fill-rule="nonzero" fill-opacity="1"></path><path clip-path="url(#clip400)" d="M119.885 950.465 L136.204 950.465 L136.204 954.4 L114.26 954.4 L114.26 950.465 Q116.922 947.71 121.505 943.08 Q126.112 938.428 127.292 937.085 Q129.538 934.562 130.417 932.826 Q131.32 931.067 131.32 929.377 Q131.32 926.622 129.376 924.886 Q127.455 923.15 124.353 923.15 Q122.154 923.15 119.7 923.914 Q117.269 924.678 114.492 926.229 L114.492 921.506 Q117.316 920.372 119.769 919.794 Q122.223 919.215 124.26 919.215 Q129.63 919.215 132.825 921.9 Q136.019 924.585 136.019 929.076 Q136.019 931.205 135.209 933.127 Q134.422 935.025 132.316 937.617 Q131.737 938.289 128.635 941.506 Q125.533 944.701 119.885 950.465 Z" fill="#000000" fill-rule="nonzero" fill-opacity="1"></path><path clip-path="url(#clip400)" d="M146.066 919.84 L164.422 919.84 L164.422 923.775 L150.348 923.775 L150.348 932.247 Q151.366 931.9 152.385 931.738 Q153.403 931.553 154.422 931.553 Q160.209 931.553 163.589 934.724 Q166.968 937.895 166.968 943.312 Q166.968 948.891 163.496 951.992 Q160.024 955.071 153.704 955.071 Q151.528 955.071 149.26 954.701 Q147.015 954.33 144.607 953.59 L144.607 948.891 Q146.691 950.025 148.913 950.58 Q151.135 951.136 153.612 951.136 Q157.616 951.136 159.954 949.029 Q162.292 946.923 162.292 943.312 Q162.292 939.701 159.954 937.594 Q157.616 935.488 153.612 935.488 Q151.737 935.488 149.862 935.905 Q148.01 936.321 146.066 937.201 L146.066 919.84 Z" fill="#000000" fill-rule="nonzero" fill-opacity="1"></path><path clip-path="url(#clip400)" d="M186.181 922.918 Q182.57 922.918 180.741 926.483 Q178.936 930.025 178.936 937.155 Q178.936 944.261 180.741 947.826 Q182.57 951.367 186.181 951.367 Q189.815 951.367 191.621 947.826 Q193.45 944.261 193.45 937.155 Q193.45 930.025 191.621 926.483 Q189.815 922.918 186.181 922.918 M186.181 919.215 Q191.991 919.215 195.047 923.821 Q198.125 928.405 198.125 937.155 Q198.125 945.881 195.047 950.488 Q191.991 955.071 186.181 955.071 Q180.371 955.071 177.292 950.488 Q174.237 945.881 174.237 937.155 Q174.237 928.405 177.292 923.821 Q180.371 919.215 186.181 919.215 Z" fill="#000000" fill-rule="nonzero" fill-opacity="1"></path><path clip-path="url(#clip400)" d="M216.343 922.918 Q212.732 922.918 210.903 926.483 Q209.098 930.025 209.098 937.155 Q209.098 944.261 210.903 947.826 Q212.732 951.367 216.343 951.367 Q219.977 951.367 221.783 947.826 Q223.611 944.261 223.611 937.155 Q223.611 930.025 221.783 926.483 Q219.977 922.918 216.343 922.918 M216.343 919.215 Q222.153 919.215 225.209 923.821 Q228.287 928.405 228.287 937.155 Q228.287 945.881 225.209 950.488 Q222.153 955.071 216.343 955.071 Q210.533 955.071 207.454 950.488 Q204.399 945.881 204.399 937.155 Q204.399 928.405 207.454 923.821 Q210.533 919.215 216.343 919.215 Z" fill="#000000" fill-rule="nonzero" fill-opacity="1"></path><path clip-path="url(#clip400)" d="M119.885 677.722 L136.204 677.722 L136.204 681.658 L114.26 681.658 L114.26 677.722 Q116.922 674.968 121.505 670.338 Q126.112 665.685 127.292 664.343 Q129.538 661.82 130.417 660.084 Q131.32 658.324 131.32 656.635 Q131.32 653.88 129.376 652.144 Q127.455 650.408 124.353 650.408 Q122.154 650.408 119.7 651.172 Q117.269 651.935 114.492 653.486 L114.492 648.764 Q117.316 647.63 119.769 647.051 Q122.223 646.473 124.26 646.473 Q129.63 646.473 132.825 649.158 Q136.019 651.843 136.019 656.334 Q136.019 658.463 135.209 660.384 Q134.422 662.283 132.316 664.875 Q131.737 665.546 128.635 668.764 Q125.533 671.959 119.885 677.722 Z" fill="#000000" fill-rule="nonzero" fill-opacity="1"></path><path clip-path="url(#clip400)" d="M144.839 647.098 L167.061 647.098 L167.061 649.088 L154.515 681.658 L149.63 681.658 L161.436 651.033 L144.839 651.033 L144.839 647.098 Z" fill="#000000" fill-rule="nonzero" fill-opacity="1"></path><path clip-path="url(#clip400)" d="M176.227 647.098 L194.584 647.098 L194.584 651.033 L180.51 651.033 L180.51 659.505 Q181.528 659.158 182.547 658.996 Q183.565 658.81 184.584 658.81 Q190.371 658.81 193.75 661.982 Q197.13 665.153 197.13 670.57 Q197.13 676.148 193.658 679.25 Q190.186 682.329 183.866 682.329 Q181.69 682.329 179.422 681.958 Q177.176 681.588 174.769 680.847 L174.769 676.148 Q176.852 677.283 179.075 677.838 Q181.297 678.394 183.774 678.394 Q187.778 678.394 190.116 676.287 Q192.454 674.181 192.454 670.57 Q192.454 666.959 190.116 664.852 Q187.778 662.746 183.774 662.746 Q181.899 662.746 180.024 663.162 Q178.172 663.579 176.227 664.459 L176.227 647.098 Z" fill="#000000" fill-rule="nonzero" fill-opacity="1"></path><path clip-path="url(#clip400)" d="M216.343 650.176 Q212.732 650.176 210.903 653.741 Q209.098 657.283 209.098 664.412 Q209.098 671.519 210.903 675.083 Q212.732 678.625 216.343 678.625 Q219.977 678.625 221.783 675.083 Q223.611 671.519 223.611 664.412 Q223.611 657.283 221.783 653.741 Q219.977 650.176 216.343 650.176 M216.343 646.473 Q222.153 646.473 225.209 651.079 Q228.287 655.662 228.287 664.412 Q228.287 673.139 225.209 677.746 Q222.153 682.329 216.343 682.329 Q210.533 682.329 207.454 677.746 Q204.399 673.139 204.399 664.412 Q204.399 655.662 207.454 651.079 Q210.533 646.473 216.343 646.473 Z" fill="#000000" fill-rule="nonzero" fill-opacity="1"></path><path clip-path="url(#clip400)" d="M130.024 390.281 Q133.38 390.999 135.255 393.267 Q137.154 395.536 137.154 398.869 Q137.154 403.985 133.635 406.786 Q130.117 409.587 123.635 409.587 Q121.459 409.587 119.144 409.147 Q116.853 408.73 114.399 407.874 L114.399 403.36 Q116.343 404.494 118.658 405.073 Q120.973 405.651 123.496 405.651 Q127.894 405.651 130.186 403.915 Q132.501 402.179 132.501 398.869 Q132.501 395.813 130.348 394.1 Q128.218 392.364 124.399 392.364 L120.371 392.364 L120.371 388.522 L124.584 388.522 Q128.033 388.522 129.862 387.156 Q131.691 385.767 131.691 383.175 Q131.691 380.513 129.792 379.101 Q127.917 377.665 124.399 377.665 Q122.478 377.665 120.279 378.082 Q118.08 378.499 115.441 379.378 L115.441 375.212 Q118.103 374.471 120.418 374.101 Q122.755 373.73 124.816 373.73 Q130.14 373.73 133.242 376.161 Q136.343 378.568 136.343 382.689 Q136.343 385.559 134.7 387.55 Q133.056 389.517 130.024 390.281 Z" fill="#000000" fill-rule="nonzero" fill-opacity="1"></path><path clip-path="url(#clip400)" d="M156.019 377.434 Q152.408 377.434 150.579 380.999 Q148.774 384.54 148.774 391.67 Q148.774 398.776 150.579 402.341 Q152.408 405.883 156.019 405.883 Q159.653 405.883 161.459 402.341 Q163.288 398.776 163.288 391.67 Q163.288 384.54 161.459 380.999 Q159.653 377.434 156.019 377.434 M156.019 373.73 Q161.829 373.73 164.885 378.337 Q167.964 382.92 167.964 391.67 Q167.964 400.397 164.885 405.003 Q161.829 409.587 156.019 409.587 Q150.209 409.587 147.13 405.003 Q144.075 400.397 144.075 391.67 Q144.075 382.92 147.13 378.337 Q150.209 373.73 156.019 373.73 Z" fill="#000000" fill-rule="nonzero" fill-opacity="1"></path><path clip-path="url(#clip400)" d="M186.181 377.434 Q182.57 377.434 180.741 380.999 Q178.936 384.54 178.936 391.67 Q178.936 398.776 180.741 402.341 Q182.57 405.883 186.181 405.883 Q189.815 405.883 191.621 402.341 Q193.45 398.776 193.45 391.67 Q193.45 384.54 191.621 380.999 Q189.815 377.434 186.181 377.434 M186.181 373.73 Q191.991 373.73 195.047 378.337 Q198.125 382.92 198.125 391.67 Q198.125 400.397 195.047 405.003 Q191.991 409.587 186.181 409.587 Q180.371 409.587 177.292 405.003 Q174.237 400.397 174.237 391.67 Q174.237 382.92 177.292 378.337 Q180.371 373.73 186.181 373.73 Z" fill="#000000" fill-rule="nonzero" fill-opacity="1"></path><path clip-path="url(#clip400)" d="M216.343 377.434 Q212.732 377.434 210.903 380.999 Q209.098 384.54 209.098 391.67 Q209.098 398.776 210.903 402.341 Q212.732 405.883 216.343 405.883 Q219.977 405.883 221.783 402.341 Q223.611 398.776 223.611 391.67 Q223.611 384.54 221.783 380.999 Q219.977 377.434 216.343 377.434 M216.343 373.73 Q222.153 373.73 225.209 378.337 Q228.287 382.92 228.287 391.67 Q228.287 400.397 225.209 405.003 Q222.153 409.587 216.343 409.587 Q210.533 409.587 207.454 405.003 Q204.399 400.397 204.399 391.67 Q204.399 382.92 207.454 378.337 Q210.533 373.73 216.343 373.73 Z" fill="#000000" fill-rule="nonzero" fill-opacity="1"></path><path clip-path="url(#clip400)" d="M16.4842 1105.34 L16.4842 1075.3 L21.895 1075.3 L21.895 1098.91 L35.9632 1098.91 L35.9632 1076.28 L41.3741 1076.28 L41.3741 1098.91 L58.5933 1098.91 L58.5933 1074.72 L64.0042 1074.72 L64.0042 1105.34 L16.4842 1105.34 Z" fill="#000000" fill-rule="nonzero" fill-opacity="1"></path><path clip-path="url(#clip400)" d="M14.479 1064.41 L14.479 1058.55 L64.0042 1058.55 L64.0042 1064.41 L14.479 1064.41 Z" fill="#000000" fill-rule="nonzero" fill-opacity="1"></path><path clip-path="url(#clip400)" d="M44.7161 1015.81 L47.5806 1015.81 L47.5806 1042.74 Q53.6281 1042.35 56.8109 1039.11 Q59.9619 1035.83 59.9619 1030 Q59.9619 1026.63 59.1344 1023.48 Q58.3069 1020.3 56.6518 1017.18 L62.1899 1017.18 Q63.5267 1020.33 64.227 1023.64 Q64.9272 1026.95 64.9272 1030.35 Q64.9272 1038.88 59.9619 1043.88 Q54.9967 1048.85 46.5303 1048.85 Q37.7774 1048.85 32.6531 1044.14 Q27.4968 1039.39 27.4968 1031.37 Q27.4968 1024.18 32.1438 1020.01 Q36.7589 1015.81 44.7161 1015.81 M42.9973 1021.66 Q38.1912 1021.73 35.3266 1024.37 Q32.4621 1026.98 32.4621 1031.31 Q32.4621 1036.21 35.2312 1039.17 Q38.0002 1042.1 43.0292 1042.54 L42.9973 1021.66 Z" fill="#000000" fill-rule="nonzero" fill-opacity="1"></path><path clip-path="url(#clip400)" d="M28.3562 1010.4 L28.3562 1004.19 L58.275 993.051 L28.3562 981.911 L28.3562 975.704 L64.0042 989.072 L64.0042 997.029 L28.3562 1010.4 Z" fill="#000000" fill-rule="nonzero" fill-opacity="1"></path><path clip-path="url(#clip400)" d="M46.0847 951.419 Q46.0847 958.517 47.7079 961.254 Q49.3312 963.991 53.2461 963.991 Q56.3653 963.991 58.2114 961.954 Q60.0256 959.885 60.0256 956.352 Q60.0256 951.483 56.5881 948.554 Q53.1188 945.594 47.3897 945.594 L46.0847 945.594 L46.0847 951.419 M43.6657 939.738 L64.0042 939.738 L64.0042 945.594 L58.5933 945.594 Q61.8398 947.6 63.3994 950.591 Q64.9272 953.583 64.9272 957.912 Q64.9272 963.387 61.8716 966.633 Q58.7843 969.848 53.6281 969.848 Q47.6125 969.848 44.5569 965.837 Q41.5014 961.795 41.5014 953.806 L41.5014 945.594 L40.9285 945.594 Q36.8862 945.594 34.6901 948.268 Q32.4621 950.91 32.4621 955.716 Q32.4621 958.771 33.1941 961.668 Q33.9262 964.564 35.3903 967.238 L29.9795 967.238 Q28.7381 964.023 28.1334 960.999 Q27.4968 957.976 27.4968 955.111 Q27.4968 947.377 31.5072 943.557 Q35.5176 939.738 43.6657 939.738 Z" fill="#000000" fill-rule="nonzero" fill-opacity="1"></path><path clip-path="url(#clip400)" d="M18.2347 921.882 L28.3562 921.882 L28.3562 909.819 L32.9077 909.819 L32.9077 921.882 L52.2594 921.882 Q56.6199 921.882 57.8613 920.704 Q59.1026 919.495 59.1026 915.835 L59.1026 909.819 L64.0042 909.819 L64.0042 915.835 Q64.0042 922.614 61.4897 925.192 Q58.9434 927.77 52.2594 927.77 L32.9077 927.77 L32.9077 932.067 L28.3562 932.067 L28.3562 927.77 L18.2347 927.77 L18.2347 921.882 Z" fill="#000000" fill-rule="nonzero" fill-opacity="1"></path><path clip-path="url(#clip400)" d="M28.3562 902.117 L28.3562 896.26 L64.0042 896.26 L64.0042 902.117 L28.3562 902.117 M14.479 902.117 L14.479 896.26 L21.895 896.26 L21.895 902.117 L14.479 902.117 Z" fill="#000000" fill-rule="nonzero" fill-opacity="1"></path><path clip-path="url(#clip400)" d="M32.4621 870.193 Q32.4621 874.903 36.1542 877.64 Q39.8145 880.378 46.212 880.378 Q52.6095 880.378 56.3017 877.672 Q59.9619 874.935 59.9619 870.193 Q59.9619 865.514 56.2698 862.777 Q52.5777 860.039 46.212 860.039 Q39.8781 860.039 36.186 862.777 Q32.4621 865.514 32.4621 870.193 M27.4968 870.193 Q27.4968 862.554 32.4621 858.193 Q37.4273 853.833 46.212 853.833 Q54.9649 853.833 59.9619 858.193 Q64.9272 862.554 64.9272 870.193 Q64.9272 877.863 59.9619 882.224 Q54.9649 886.552 46.212 886.552 Q37.4273 886.552 32.4621 882.224 Q27.4968 877.863 27.4968 870.193 Z" fill="#000000" fill-rule="nonzero" fill-opacity="1"></path><path clip-path="url(#clip400)" d="M42.4881 814.493 L64.0042 814.493 L64.0042 820.349 L42.679 820.349 Q37.6183 820.349 35.1038 822.322 Q32.5894 824.296 32.5894 828.243 Q32.5894 832.985 35.6131 835.722 Q38.6368 838.46 43.8567 838.46 L64.0042 838.46 L64.0042 844.348 L28.3562 844.348 L28.3562 838.46 L33.8944 838.46 Q30.6797 836.359 29.0883 833.526 Q27.4968 830.662 27.4968 826.938 Q27.4968 820.795 31.3163 817.644 Q35.1038 814.493 42.4881 814.493 Z" fill="#000000" fill-rule="nonzero" fill-opacity="1"></path><path clip-path="url(#clip400)" d="M14.5426 768.023 Q21.8632 772.288 29.0246 774.357 Q36.186 776.426 43.5384 776.426 Q50.8908 776.426 58.1159 774.357 Q65.3091 772.256 72.5979 768.023 L72.5979 773.116 Q65.1182 777.89 57.8931 780.277 Q50.668 782.632 43.5384 782.632 Q36.4406 782.632 29.2474 780.277 Q22.0542 777.922 14.5426 773.116 L14.5426 768.023 Z" fill="#000000" fill-rule="nonzero" fill-opacity="1"></path><path clip-path="url(#clip400)" d="M35.1993 728.906 Q31.2526 726.71 29.3747 723.654 Q27.4968 720.598 27.4968 716.461 Q27.4968 710.891 31.4117 707.867 Q35.2948 704.843 42.4881 704.843 L64.0042 704.843 L64.0042 710.732 L42.679 710.732 Q37.5546 710.732 35.072 712.546 Q32.5894 714.36 32.5894 718.084 Q32.5894 722.635 35.6131 725.277 Q38.6368 727.919 43.8567 727.919 L64.0042 727.919 L64.0042 733.807 L42.679 733.807 Q37.5228 733.807 35.072 735.622 Q32.5894 737.436 32.5894 741.223 Q32.5894 745.711 35.6449 748.353 Q38.6686 750.995 43.8567 750.995 L64.0042 750.995 L64.0042 756.883 L28.3562 756.883 L28.3562 750.995 L33.8944 750.995 Q30.616 748.99 29.0564 746.189 Q27.4968 743.388 27.4968 739.536 Q27.4968 735.653 29.4702 732.948 Q31.4436 730.211 35.1993 728.906 Z" fill="#000000" fill-rule="nonzero" fill-opacity="1"></path><path clip-path="url(#clip400)" d="M55.9197 692.335 L55.9197 685.619 L64.0042 685.619 L64.0042 692.335 L55.9197 692.335 Z" fill="#000000" fill-rule="nonzero" fill-opacity="1"></path><path clip-path="url(#clip400)" d="M46.0847 656.241 Q46.0847 663.339 47.7079 666.076 Q49.3312 668.813 53.2461 668.813 Q56.3653 668.813 58.2114 666.776 Q60.0256 664.708 60.0256 661.175 Q60.0256 656.305 56.5881 653.377 Q53.1188 650.417 47.3897 650.417 L46.0847 650.417 L46.0847 656.241 M43.6657 644.56 L64.0042 644.56 L64.0042 650.417 L58.5933 650.417 Q61.8398 652.422 63.3994 655.414 Q64.9272 658.406 64.9272 662.734 Q64.9272 668.209 61.8716 671.455 Q58.7843 674.67 53.6281 674.67 Q47.6125 674.67 44.5569 670.66 Q41.5014 666.617 41.5014 658.628 L41.5014 650.417 L40.9285 650.417 Q36.8862 650.417 34.6901 653.09 Q32.4621 655.732 32.4621 660.538 Q32.4621 663.594 33.1941 666.49 Q33.9262 669.386 35.3903 672.06 L29.9795 672.06 Q28.7381 668.845 28.1334 665.822 Q27.4968 662.798 27.4968 659.933 Q27.4968 652.199 31.5072 648.38 Q35.5176 644.56 43.6657 644.56 Z" fill="#000000" fill-rule="nonzero" fill-opacity="1"></path><path clip-path="url(#clip400)" d="M55.9197 631.67 L55.9197 624.954 L64.0042 624.954 L64.0042 631.67 L55.9197 631.67 Z" fill="#000000" fill-rule="nonzero" fill-opacity="1"></path><path clip-path="url(#clip400)" d="M29.4065 589.051 L34.9447 589.051 Q33.6716 591.534 33.035 594.207 Q32.3984 596.881 32.3984 599.746 Q32.3984 604.106 33.7352 606.302 Q35.072 608.467 37.7456 608.467 Q39.7826 608.467 40.9603 606.907 Q42.1061 605.347 43.1565 600.637 L43.6021 598.632 Q44.9389 592.393 47.3897 589.783 Q49.8086 587.141 54.1691 587.141 Q59.1344 587.141 62.0308 591.088 Q64.9272 595.003 64.9272 601.878 Q64.9272 604.743 64.3543 607.862 Q63.8132 610.949 62.6992 614.387 L56.6518 614.387 Q58.3387 611.14 59.198 607.989 Q60.0256 604.838 60.0256 601.751 Q60.0256 597.613 58.6251 595.385 Q57.1929 593.157 54.6147 593.157 Q52.2276 593.157 50.9545 594.78 Q49.6813 596.372 48.5037 601.814 L48.0262 603.851 Q46.8804 609.294 44.5251 611.713 Q42.138 614.132 38.0002 614.132 Q32.9713 614.132 30.2341 610.567 Q27.4968 607.002 27.4968 600.446 Q27.4968 597.199 27.9743 594.335 Q28.4517 591.47 29.4065 589.051 Z" fill="#000000" fill-rule="nonzero" fill-opacity="1"></path><path clip-path="url(#clip400)" d="M55.9197 576.988 L55.9197 570.272 L64.0042 570.272 L64.0042 576.988 L55.9197 576.988 Z" fill="#000000" fill-rule="nonzero" fill-opacity="1"></path><path clip-path="url(#clip400)" d="M14.479 557.095 L14.479 551.239 L64.0042 551.239 L64.0042 557.095 L14.479 557.095 Z" fill="#000000" fill-rule="nonzero" fill-opacity="1"></path><path clip-path="url(#clip400)" d="M55.9197 538.157 L55.9197 531.442 L64.0042 531.442 L64.0042 538.157 L55.9197 538.157 Z" fill="#000000" fill-rule="nonzero" fill-opacity="1"></path><path clip-path="url(#clip400)" d="M14.5426 519.188 L14.5426 514.095 Q22.0542 509.321 29.2474 506.965 Q36.4406 504.578 43.5384 504.578 Q50.668 504.578 57.8931 506.965 Q65.1182 509.321 72.5979 514.095 L72.5979 519.188 Q65.3091 514.954 58.1159 512.885 Q50.8908 510.785 43.5384 510.785 Q36.186 510.785 29.0246 512.885 Q21.8632 514.954 14.5426 519.188 Z" fill="#000000" fill-rule="nonzero" fill-opacity="1"></path><path clip-path="url(#clip400)" d="M1188.03 17.6457 Q1179.12 17.6457 1173.85 24.2892 Q1168.62 30.9327 1168.62 42.3968 Q1168.62 53.8203 1173.85 60.4638 Q1179.12 67.1073 1188.03 67.1073 Q1196.94 67.1073 1202.12 60.4638 Q1207.35 53.8203 1207.35 42.3968 Q1207.35 30.9327 1202.12 24.2892 Q1196.94 17.6457 1188.03 17.6457 M1188.03 11.0023 Q1200.75 11.0023 1208.36 19.5497 Q1215.98 28.0566 1215.98 42.3968 Q1215.98 56.6965 1208.36 65.2439 Q1200.75 73.7508 1188.03 73.7508 Q1175.27 73.7508 1167.61 65.2439 Q1160 56.737 1160 42.3968 Q1160 28.0566 1167.61 19.5497 Q1175.27 11.0023 1188.03 11.0023 Z" fill="#000000" fill-rule="nonzero" fill-opacity="1"></path><path clip-path="url(#clip400)" d="M1257.38 28.5427 L1257.38 35.5912 Q1254.22 33.9709 1250.82 33.1607 Q1247.41 32.3505 1243.77 32.3505 Q1238.22 32.3505 1235.42 34.0519 Q1232.67 35.7533 1232.67 39.156 Q1232.67 41.7486 1234.65 43.2475 Q1236.64 44.7058 1242.63 46.0426 L1245.19 46.6097 Q1253.13 48.3111 1256.45 51.4303 Q1259.81 54.509 1259.81 60.0587 Q1259.81 66.3781 1254.79 70.0644 Q1249.8 73.7508 1241.05 73.7508 Q1237.41 73.7508 1233.44 73.0216 Q1229.51 72.3329 1225.13 70.9151 L1225.13 63.2184 Q1229.27 65.3654 1233.28 66.4591 Q1237.29 67.5124 1241.22 67.5124 Q1246.48 67.5124 1249.32 65.73 Q1252.15 63.9071 1252.15 60.6258 Q1252.15 57.5877 1250.09 55.9673 Q1248.06 54.3469 1241.13 52.8481 L1238.54 52.2405 Q1231.62 50.7821 1228.54 47.7845 Q1225.46 44.7463 1225.46 39.4801 Q1225.46 33.0797 1229.99 29.5959 Q1234.53 26.1121 1242.88 26.1121 Q1247.01 26.1121 1250.65 26.7198 Q1254.3 27.3274 1257.38 28.5427 Z" fill="#000000" fill-rule="nonzero" fill-opacity="1"></path><path clip-path="url(#clip400)" d="M1300.6 28.5427 L1300.6 35.5912 Q1297.44 33.9709 1294.04 33.1607 Q1290.64 32.3505 1286.99 32.3505 Q1281.44 32.3505 1278.65 34.0519 Q1275.89 35.7533 1275.89 39.156 Q1275.89 41.7486 1277.88 43.2475 Q1279.86 44.7058 1285.86 46.0426 L1288.41 46.6097 Q1296.35 48.3111 1299.67 51.4303 Q1303.03 54.509 1303.03 60.0587 Q1303.03 66.3781 1298.01 70.0644 Q1293.03 73.7508 1284.28 73.7508 Q1280.63 73.7508 1276.66 73.0216 Q1272.73 72.3329 1268.36 70.9151 L1268.36 63.2184 Q1272.49 65.3654 1276.5 66.4591 Q1280.51 67.5124 1284.44 67.5124 Q1289.71 67.5124 1292.54 65.73 Q1295.38 63.9071 1295.38 60.6258 Q1295.38 57.5877 1293.31 55.9673 Q1291.29 54.3469 1284.36 52.8481 L1281.77 52.2405 Q1274.84 50.7821 1271.76 47.7845 Q1268.68 44.7463 1268.68 39.4801 Q1268.68 33.0797 1273.22 29.5959 Q1277.75 26.1121 1286.1 26.1121 Q1290.23 26.1121 1293.88 26.7198 Q1297.52 27.3274 1300.6 28.5427 Z" fill="#000000" fill-rule="nonzero" fill-opacity="1"></path><path clip-path="url(#clip400)" d="M1332.48 32.4315 Q1326.49 32.4315 1323 37.1306 Q1319.52 41.7891 1319.52 49.9314 Q1319.52 58.0738 1322.96 62.7728 Q1326.45 67.4314 1332.48 67.4314 Q1338.44 67.4314 1341.92 62.7323 Q1345.41 58.0333 1345.41 49.9314 Q1345.41 41.8701 1341.92 37.1711 Q1338.44 32.4315 1332.48 32.4315 M1332.48 26.1121 Q1342.2 26.1121 1347.75 32.4315 Q1353.3 38.7509 1353.3 49.9314 Q1353.3 61.0714 1347.75 67.4314 Q1342.2 73.7508 1332.48 73.7508 Q1322.72 73.7508 1317.17 67.4314 Q1311.66 61.0714 1311.66 49.9314 Q1311.66 38.7509 1317.17 32.4315 Q1322.72 26.1121 1332.48 26.1121 Z" fill="#000000" fill-rule="nonzero" fill-opacity="1"></path><path clip-path="url(#clip400)" d="M1364.89 54.671 L1364.89 27.2059 L1372.34 27.2059 L1372.34 54.3874 Q1372.34 60.8284 1374.86 64.0691 Q1377.37 67.2693 1382.39 67.2693 Q1388.43 67.2693 1391.91 63.421 Q1395.43 59.5726 1395.43 52.9291 L1395.43 27.2059 L1402.89 27.2059 L1402.89 72.576 L1395.43 72.576 L1395.43 65.6084 Q1392.72 69.7404 1389.11 71.7658 Q1385.55 73.7508 1380.81 73.7508 Q1372.99 73.7508 1368.94 68.8897 Q1364.89 64.0286 1364.89 54.671 M1383.65 26.1121 L1383.65 26.1121 Z" fill="#000000" fill-rule="nonzero" fill-opacity="1"></path><path clip-path="url(#clip400)" d="M1457.05 48.0275 L1457.05 51.6733 L1422.78 51.6733 Q1423.26 59.3701 1427.4 63.421 Q1431.57 67.4314 1438.98 67.4314 Q1443.27 67.4314 1447.29 66.3781 Q1451.34 65.3249 1455.31 63.2184 L1455.31 70.267 Q1451.3 71.9684 1447.08 72.8596 Q1442.87 73.7508 1438.54 73.7508 Q1427.68 73.7508 1421.32 67.4314 Q1415 61.1119 1415 50.3365 Q1415 39.1965 1420.99 32.6746 Q1427.03 26.1121 1437.24 26.1121 Q1446.39 26.1121 1451.7 32.0264 Q1457.05 37.9003 1457.05 48.0275 M1449.59 45.84 Q1449.51 39.7232 1446.15 36.0774 Q1442.83 32.4315 1437.32 32.4315 Q1431.08 32.4315 1427.31 35.9558 Q1423.59 39.4801 1423.02 45.8805 L1449.59 45.84 Z" fill="#000000" fill-rule="nonzero" fill-opacity="1"></path><polyline clip-path="url(#clip402)" style="stroke:#a52a2a; stroke-linecap:round; stroke-linejoin:round; stroke-width:4; stroke-opacity:1; fill:none" points="323.395,195.184 348.023,210.96 372.651,224.652 397.279,237.511 421.908,250.228 446.536,263.283 471.164,275.251 495.792,287.639 520.42,302.565 545.048,315.469 569.677,324.252 594.305,330.084 618.933,334.454 643.561,343.171 668.189,353.902 692.817,361.691 717.446,373.47 742.074,385.738 766.702,397.519 791.33,412.989 815.958,428.813 840.586,441.564 865.215,454.81 889.843,470.232 914.471,486.297 939.099,502.36 963.727,519.693 988.355,535.741 1012.98,559.237 1037.61,584.465 1062.24,594.887 1086.87,606.233 1111.5,614.548 1136.12,620.375 1160.75,634.836 1185.38,647.007 1210.01,663.647 1234.64,679.22 1259.27,692.678 1283.89,704.883 1308.52,717.201 1333.15,730.798 1357.78,746.121 1382.41,762.718 1407.03,779.84 1431.66,797.23 1456.29,815.114 1480.92,833.729 1505.55,853.219 1530.18,873.722 1554.8,895.019 1579.43,915.821 1604.06,934.612 1628.69,951.651 1653.32,968.619 1677.94,987.093 1702.57,1007.38 1727.2,1028.84 1751.83,1051.62 1776.46,1077.21 1801.08,1106.92 1825.71,1140.75 1850.34,1177.56 1874.97,1215.47 1899.6,1252.13 1924.23,1285.22 1948.85,1313.11 1973.48,1335.41 1998.11,1353.16 2022.74,1367.74 2047.37,1380.3 2071.99,1391.45 2096.62,1401.22 2121.25,1409.32 2145.88,1415.92 2170.51,1421.71 2195.14,1427.5 2219.76,1433.67 2244.39,1439.78 2269.02,1444.89 2293.65,1447.87 "></polyline>
<polyline clip-path="url(#clip402)" style="stroke:#0000ff; stroke-linecap:round; stroke-linejoin:round; stroke-width:4; stroke-opacity:1; fill:none" points="323.395,194.378 348.023,210.96 372.651,224.652 397.279,237.511 421.908,250.228 446.536,263.283 471.164,275.251 495.792,287.639 520.42,302.565 545.048,315.469 569.677,324.252 594.305,330.084 618.933,334.454 643.561,343.171 668.189,353.902 692.817,361.691 717.446,373.47 742.074,385.738 766.702,397.519 791.33,412.989 815.958,428.813 840.586,441.564 865.215,454.81 889.843,470.232 914.471,486.297 939.099,502.36 963.727,519.693 988.355,535.741 1012.98,559.237 1037.61,584.465 1062.24,594.887 1086.87,606.233 1111.5,614.548 1136.12,620.375 1160.75,634.836 1185.38,647.007 1210.01,663.647 1234.64,679.22 1259.27,692.678 1283.89,704.883 1308.52,717.201 1333.15,730.798 1357.78,746.121 1382.41,762.718 1407.03,779.84 1431.66,797.23 1456.29,815.114 1480.92,833.729 1505.55,853.219 1530.18,873.722 1554.8,895.019 1579.43,915.821 1604.06,934.612 1628.69,951.651 1653.32,968.619 1677.94,987.093 1702.57,1007.38 1727.2,1028.84 1751.83,1051.62 1776.46,1077.21 1801.08,1106.92 1825.71,1140.75 1850.34,1177.56 1874.97,1215.47 1899.6,1252.13 1924.23,1285.22 1948.85,1313.11 1973.48,1335.41 1998.11,1353.16 2022.74,1367.74 2047.37,1380.3 2071.99,1391.45 2096.62,1401.22 2121.25,1409.32 2145.88,1415.92 2170.51,1421.71 2195.14,1427.5 2219.76,1433.67 2244.39,1439.78 2269.02,1444.89 2293.65,1447.87 "></polyline>
<polyline clip-path="url(#clip402)" style="stroke:#ff0000; stroke-linecap:round; stroke-linejoin:round; stroke-width:4; stroke-opacity:1; fill:none" points="323.395,194.165 348.023,210.196 372.651,224.11 397.279,237.178 421.908,250.105 446.536,263.283 471.164,275.251 495.792,287.639 520.42,302.565 545.048,315.469 569.677,324.252 594.305,330.084 618.933,334.454 643.561,343.171 668.189,353.902 692.817,361.691 717.446,373.47 742.074,385.738 766.702,397.519 791.33,412.989 815.958,428.813 840.586,441.564 865.215,454.81 889.843,470.232 914.471,486.297 939.099,502.36 963.727,519.693 988.355,535.741 1012.98,559.237 1037.61,584.465 1062.24,594.887 1086.87,606.233 1111.5,614.548 1136.12,620.375 1160.75,634.836 1185.38,647.007 1210.01,663.647 1234.64,679.22 1259.27,692.678 1283.89,704.883 1308.52,717.201 1333.15,730.798 1357.78,746.121 1382.41,762.718 1407.03,779.84 1431.66,797.23 1456.29,815.114 1480.92,833.729 1505.55,853.219 1530.18,873.722 1554.8,895.019 1579.43,915.821 1604.06,934.612 1628.69,951.651 1653.32,968.619 1677.94,987.093 1702.57,1007.38 1727.2,1028.84 1751.83,1051.62 1776.46,1077.21 1801.08,1106.92 1825.71,1140.75 1850.34,1177.56 1874.97,1215.47 1899.6,1252.13 1924.23,1285.22 1948.85,1313.11 1973.48,1335.41 1998.11,1353.16 2022.74,1367.74 2047.37,1380.3 2071.99,1391.45 2096.62,1401.22 2121.25,1409.32 2145.88,1415.92 2170.51,1421.71 2195.14,1427.5 2219.76,1433.67 2244.39,1439.78 2269.02,1444.89 2293.65,1447.87 "></polyline>
<polyline clip-path="url(#clip402)" style="stroke:#008000; stroke-linecap:round; stroke-linejoin:round; stroke-width:4; stroke-opacity:1; fill:none" points="323.395,162.047 348.023,173.99 372.651,185.807 397.279,196.95 421.908,208.093 446.536,218.619 471.164,228.788 495.792,238.957 520.42,248.273 545.048,255.782 569.677,263.291 594.305,270.801 618.933,279.473 643.561,289.649 668.189,299.825 692.817,310.278 717.446,322.945 742.074,335.612 766.702,350.68 791.33,367.515 815.958,383.654 840.586,398.915 865.215,414.847 889.843,431.651 914.471,448.786 939.099,466.266 963.727,484.451 988.355,503.035 1012.98,526.908 1037.61,548.999 1062.24,568.528 1086.87,588.055 1111.5,606.362 1136.12,619.163 1160.75,634.836 1185.38,647.007 1210.01,663.647 1234.64,679.22 1259.27,692.678 1283.89,704.883 1308.52,717.201 1333.15,730.798 1357.78,746.121 1382.41,762.718 1407.03,779.84 1431.66,797.23 1456.29,815.114 1480.92,833.729 1505.55,853.219 1530.18,873.722 1554.8,895.019 1579.43,915.821 1604.06,934.612 1628.69,951.651 1653.32,968.619 1677.94,987.093 1702.57,1007.38 1727.2,1028.84 1751.83,1051.62 1776.46,1077.21 1801.08,1106.92 1825.71,1140.75 1850.34,1177.56 1874.97,1215.47 1899.6,1252.13 1924.23,1285.22 1948.85,1313.11 1973.48,1335.41 1998.11,1353.16 2022.74,1367.74 2047.37,1380.3 2071.99,1391.45 2096.62,1401.22 2121.25,1409.32 2145.88,1415.92 2170.51,1421.71 2195.14,1427.5 2219.76,1433.67 2244.39,1439.78 2269.02,1444.89 2293.65,1447.87 "></polyline>
<polyline clip-path="url(#clip402)" style="stroke:#000000; stroke-linecap:round; stroke-linejoin:round; stroke-width:4; stroke-opacity:1; fill:none" stroke-dasharray="16, 10" points="323.395,194.174 348.023,210.112 372.651,223.944 397.279,236.935 421.908,249.782 446.536,262.971 471.164,275.061 495.792,287.556 520.42,302.565 545.048,315.469 569.677,324.252 594.305,330.084 618.933,334.454 643.561,343.171 668.189,353.902 692.817,361.691 717.446,373.47 742.074,385.738 766.702,397.519 791.33,412.989 815.958,428.813 840.586,441.564 865.215,454.81 889.843,470.232 914.471,486.297 939.099,502.36 963.727,519.693 988.355,535.741 1012.98,559.237 1037.61,584.465 1062.24,594.887 1086.87,606.233 1111.5,614.548 1136.12,620.375 1160.75,634.836 1185.38,647.007 1210.01,663.647 1234.64,679.22 1259.27,692.678 1283.89,704.883 1308.52,717.201 1333.15,730.798 1357.78,746.121 1382.41,762.718 1407.03,779.84 1431.66,797.23 1456.29,815.114 1480.92,833.729 1505.55,853.219 1530.18,873.722 1554.8,895.019 1579.43,915.821 1604.06,934.612 1628.69,951.651 1653.32,968.619 1677.94,987.093 1702.57,1007.38 1727.2,1028.84 1751.83,1051.62 1776.46,1077.21 1801.08,1106.92 1825.71,1140.75 1850.34,1177.56 1874.97,1215.47 1899.6,1252.13 1924.23,1285.22 1948.85,1313.11 1973.48,1335.41 1998.11,1353.16 2022.74,1367.74 2047.37,1380.3 2071.99,1391.45 2096.62,1401.22 2121.25,1409.32 2145.88,1415.92 2170.51,1421.71 2195.14,1427.5 2219.76,1433.67 2244.39,1439.78 2269.02,1444.89 2293.65,1447.87 "></polyline>
<path clip-path="url(#clip400)" d="M1729.57 479.945 L2283.14 479.945 L2283.14 168.905 L1729.57 168.905  Z" fill="#ffffff" fill-rule="evenodd" fill-opacity="1"></path>
<polyline clip-path="url(#clip400)" style="stroke:#000000; stroke-linecap:round; stroke-linejoin:round; stroke-width:4; stroke-opacity:1; fill:none" points="1729.57,479.945 2283.14,479.945 2283.14,168.905 1729.57,168.905 1729.57,479.945 "></polyline>
<polyline clip-path="url(#clip400)" style="stroke:#a52a2a; stroke-linecap:round; stroke-linejoin:round; stroke-width:4; stroke-opacity:1; fill:none" points="1752.78,220.745 1892.01,220.745 "></polyline>
<path clip-path="url(#clip400)" d="M1933.99 225.085 Q1933.99 220.386 1932.04 217.724 Q1930.12 215.039 1926.74 215.039 Q1923.36 215.039 1921.42 217.724 Q1919.5 220.386 1919.5 225.085 Q1919.5 229.784 1921.42 232.469 Q1923.36 235.131 1926.74 235.131 Q1930.12 235.131 1932.04 232.469 Q1933.99 229.784 1933.99 225.085 M1919.5 216.034 Q1920.84 213.719 1922.88 212.608 Q1924.94 211.474 1927.78 211.474 Q1932.51 211.474 1935.45 215.224 Q1938.41 218.974 1938.41 225.085 Q1938.41 231.196 1935.45 234.946 Q1932.51 238.696 1927.78 238.696 Q1924.94 238.696 1922.88 237.585 Q1920.84 236.451 1919.5 234.136 L1919.5 238.025 L1915.21 238.025 L1915.21 202.006 L1919.5 202.006 L1919.5 216.034 Z" fill="#000000" fill-rule="nonzero" fill-opacity="1"></path><path clip-path="url(#clip400)" d="M1967.64 223.997 L1967.64 226.08 L1948.06 226.08 Q1948.34 230.478 1950.7 232.793 Q1953.08 235.085 1957.32 235.085 Q1959.77 235.085 1962.07 234.483 Q1964.38 233.881 1966.65 232.677 L1966.65 236.705 Q1964.36 237.677 1961.95 238.187 Q1959.54 238.696 1957.07 238.696 Q1950.86 238.696 1947.23 235.085 Q1943.62 231.474 1943.62 225.316 Q1943.62 218.951 1947.04 215.224 Q1950.49 211.474 1956.33 211.474 Q1961.56 211.474 1964.59 214.853 Q1967.64 218.21 1967.64 223.997 M1963.39 222.747 Q1963.34 219.252 1961.42 217.168 Q1959.52 215.085 1956.37 215.085 Q1952.81 215.085 1950.65 217.099 Q1948.52 219.113 1948.2 222.77 L1963.39 222.747 Z" fill="#000000" fill-rule="nonzero" fill-opacity="1"></path><path clip-path="url(#clip400)" d="M1991.7 216.034 L1991.7 202.006 L1995.96 202.006 L1995.96 238.025 L1991.7 238.025 L1991.7 234.136 Q1990.35 236.451 1988.29 237.585 Q1986.26 238.696 1983.39 238.696 Q1978.69 238.696 1975.72 234.946 Q1972.78 231.196 1972.78 225.085 Q1972.78 218.974 1975.72 215.224 Q1978.69 211.474 1983.39 211.474 Q1986.26 211.474 1988.29 212.608 Q1990.35 213.719 1991.7 216.034 M1977.18 225.085 Q1977.18 229.784 1979.1 232.469 Q1981.05 235.131 1984.43 235.131 Q1987.81 235.131 1989.75 232.469 Q1991.7 229.784 1991.7 225.085 Q1991.7 220.386 1989.75 217.724 Q1987.81 215.039 1984.43 215.039 Q1981.05 215.039 1979.1 217.724 Q1977.18 220.386 1977.18 225.085 Z" fill="#000000" fill-rule="nonzero" fill-opacity="1"></path><polyline clip-path="url(#clip400)" style="stroke:#0000ff; stroke-linecap:round; stroke-linejoin:round; stroke-width:4; stroke-opacity:1; fill:none" points="1752.78,272.585 1892.01,272.585 "></polyline>
<path clip-path="url(#clip400)" d="M1933.64 264.703 L1933.64 268.731 Q1931.83 267.805 1929.89 267.342 Q1927.95 266.879 1925.86 266.879 Q1922.69 266.879 1921.09 267.851 Q1919.52 268.823 1919.52 270.768 Q1919.52 272.249 1920.65 273.105 Q1921.79 273.939 1925.21 274.703 L1926.67 275.027 Q1931.21 275.999 1933.11 277.781 Q1935.03 279.541 1935.03 282.712 Q1935.03 286.323 1932.16 288.429 Q1929.31 290.536 1924.31 290.536 Q1922.23 290.536 1919.96 290.119 Q1917.71 289.726 1915.21 288.916 L1915.21 284.517 Q1917.58 285.744 1919.87 286.369 Q1922.16 286.971 1924.4 286.971 Q1927.41 286.971 1929.03 285.953 Q1930.65 284.911 1930.65 283.036 Q1930.65 281.3 1929.47 280.374 Q1928.32 279.448 1924.36 278.592 L1922.88 278.244 Q1918.92 277.411 1917.16 275.698 Q1915.4 273.962 1915.4 270.953 Q1915.4 267.295 1917.99 265.305 Q1920.59 263.314 1925.35 263.314 Q1927.71 263.314 1929.8 263.661 Q1931.88 264.008 1933.64 264.703 Z" fill="#000000" fill-rule="nonzero" fill-opacity="1"></path><path clip-path="url(#clip400)" d="M1941.37 279.633 L1941.37 263.939 L1945.63 263.939 L1945.63 279.471 Q1945.63 283.152 1947.07 285.004 Q1948.5 286.832 1951.37 286.832 Q1954.82 286.832 1956.81 284.633 Q1958.83 282.434 1958.83 278.638 L1958.83 263.939 L1963.08 263.939 L1963.08 289.865 L1958.83 289.865 L1958.83 285.883 Q1957.27 288.244 1955.21 289.402 Q1953.18 290.536 1950.47 290.536 Q1946 290.536 1943.69 287.758 Q1941.37 284.98 1941.37 279.633 M1952.09 263.314 L1952.09 263.314 Z" fill="#000000" fill-rule="nonzero" fill-opacity="1"></path><path clip-path="url(#clip400)" d="M1986.88 267.92 Q1986.16 267.504 1985.31 267.318 Q1984.47 267.11 1983.46 267.11 Q1979.84 267.11 1977.9 269.471 Q1975.98 271.809 1975.98 276.207 L1975.98 289.865 L1971.7 289.865 L1971.7 263.939 L1975.98 263.939 L1975.98 267.967 Q1977.32 265.606 1979.47 264.471 Q1981.63 263.314 1984.71 263.314 Q1985.14 263.314 1985.68 263.383 Q1986.21 263.43 1986.86 263.545 L1986.88 267.92 Z" fill="#000000" fill-rule="nonzero" fill-opacity="1"></path><path clip-path="url(#clip400)" d="M2004.47 253.846 L2004.47 257.388 L2000.4 257.388 Q1998.11 257.388 1997.21 258.314 Q1996.33 259.24 1996.33 261.647 L1996.33 263.939 L2003.34 263.939 L2003.34 267.249 L1996.33 267.249 L1996.33 289.865 L1992.04 289.865 L1992.04 267.249 L1987.97 267.249 L1987.97 263.939 L1992.04 263.939 L1992.04 262.133 Q1992.04 257.805 1994.06 255.837 Q1996.07 253.846 2000.45 253.846 L2004.47 253.846 Z" fill="#000000" fill-rule="nonzero" fill-opacity="1"></path><path clip-path="url(#clip400)" d="M2019.82 276.832 Q2014.66 276.832 2012.67 278.013 Q2010.68 279.193 2010.68 282.041 Q2010.68 284.309 2012.16 285.652 Q2013.66 286.971 2016.23 286.971 Q2019.77 286.971 2021.9 284.471 Q2024.06 281.948 2024.06 277.781 L2024.06 276.832 L2019.82 276.832 M2028.32 275.073 L2028.32 289.865 L2024.06 289.865 L2024.06 285.929 Q2022.6 288.291 2020.42 289.425 Q2018.25 290.536 2015.1 290.536 Q2011.12 290.536 2008.76 288.314 Q2006.42 286.068 2006.42 282.318 Q2006.42 277.943 2009.33 275.721 Q2012.27 273.499 2018.08 273.499 L2024.06 273.499 L2024.06 273.082 Q2024.06 270.143 2022.11 268.545 Q2020.19 266.925 2016.7 266.925 Q2014.47 266.925 2012.37 267.457 Q2010.26 267.99 2008.32 269.055 L2008.32 265.119 Q2010.65 264.217 2012.85 263.777 Q2015.05 263.314 2017.14 263.314 Q2022.76 263.314 2025.54 266.231 Q2028.32 269.147 2028.32 275.073 Z" fill="#000000" fill-rule="nonzero" fill-opacity="1"></path><path clip-path="url(#clip400)" d="M2055.75 264.934 L2055.75 268.916 Q2053.94 267.92 2052.11 267.434 Q2050.31 266.925 2048.45 266.925 Q2044.31 266.925 2042.02 269.564 Q2039.73 272.18 2039.73 276.925 Q2039.73 281.67 2042.02 284.309 Q2044.31 286.925 2048.45 286.925 Q2050.31 286.925 2052.11 286.439 Q2053.94 285.929 2055.75 284.934 L2055.75 288.869 Q2053.96 289.703 2052.04 290.119 Q2050.14 290.536 2047.99 290.536 Q2042.14 290.536 2038.69 286.855 Q2035.24 283.175 2035.24 276.925 Q2035.24 270.582 2038.71 266.948 Q2042.2 263.314 2048.27 263.314 Q2050.24 263.314 2052.11 263.731 Q2053.99 264.124 2055.75 264.934 Z" fill="#000000" fill-rule="nonzero" fill-opacity="1"></path><path clip-path="url(#clip400)" d="M2085.33 275.837 L2085.33 277.92 L2065.75 277.92 Q2066.02 282.318 2068.39 284.633 Q2070.77 286.925 2075.01 286.925 Q2077.46 286.925 2079.75 286.323 Q2082.07 285.721 2084.33 284.517 L2084.33 288.545 Q2082.04 289.517 2079.64 290.027 Q2077.23 290.536 2074.75 290.536 Q2068.55 290.536 2064.91 286.925 Q2061.3 283.314 2061.3 277.156 Q2061.3 270.791 2064.73 267.064 Q2068.18 263.314 2074.01 263.314 Q2079.24 263.314 2082.27 266.693 Q2085.33 270.05 2085.33 275.837 M2081.07 274.587 Q2081.02 271.092 2079.1 269.008 Q2077.2 266.925 2074.06 266.925 Q2070.49 266.925 2068.34 268.939 Q2066.21 270.953 2065.89 274.61 L2081.07 274.587 Z" fill="#000000" fill-rule="nonzero" fill-opacity="1"></path><path clip-path="url(#clip400)" d="M2123.92 264.703 L2123.92 268.731 Q2122.11 267.805 2120.17 267.342 Q2118.22 266.879 2116.14 266.879 Q2112.97 266.879 2111.37 267.851 Q2109.8 268.823 2109.8 270.768 Q2109.8 272.249 2110.93 273.105 Q2112.07 273.939 2115.49 274.703 L2116.95 275.027 Q2121.49 275.999 2123.38 277.781 Q2125.31 279.541 2125.31 282.712 Q2125.31 286.323 2122.44 288.429 Q2119.59 290.536 2114.59 290.536 Q2112.51 290.536 2110.24 290.119 Q2107.99 289.726 2105.49 288.916 L2105.49 284.517 Q2107.85 285.744 2110.14 286.369 Q2112.44 286.971 2114.68 286.971 Q2117.69 286.971 2119.31 285.953 Q2120.93 284.911 2120.93 283.036 Q2120.93 281.3 2119.75 280.374 Q2118.59 279.448 2114.63 278.592 L2113.15 278.244 Q2109.2 277.411 2107.44 275.698 Q2105.68 273.962 2105.68 270.953 Q2105.68 267.295 2108.27 265.305 Q2110.86 263.314 2115.63 263.314 Q2117.99 263.314 2120.07 263.661 Q2122.16 264.008 2123.92 264.703 Z" fill="#000000" fill-rule="nonzero" fill-opacity="1"></path><path clip-path="url(#clip400)" d="M2142.13 266.925 Q2138.71 266.925 2136.72 269.61 Q2134.73 272.272 2134.73 276.925 Q2134.73 281.578 2136.69 284.263 Q2138.69 286.925 2142.13 286.925 Q2145.54 286.925 2147.53 284.24 Q2149.52 281.555 2149.52 276.925 Q2149.52 272.318 2147.53 269.633 Q2145.54 266.925 2142.13 266.925 M2142.13 263.314 Q2147.69 263.314 2150.86 266.925 Q2154.03 270.536 2154.03 276.925 Q2154.03 283.291 2150.86 286.925 Q2147.69 290.536 2142.13 290.536 Q2136.56 290.536 2133.38 286.925 Q2130.24 283.291 2130.24 276.925 Q2130.24 270.536 2133.38 266.925 Q2136.56 263.314 2142.13 263.314 Z" fill="#000000" fill-rule="nonzero" fill-opacity="1"></path><path clip-path="url(#clip400)" d="M2161.09 253.846 L2165.35 253.846 L2165.35 289.865 L2161.09 289.865 L2161.09 253.846 Z" fill="#000000" fill-rule="nonzero" fill-opacity="1"></path><path clip-path="url(#clip400)" d="M2171.21 263.939 L2175.72 263.939 L2183.82 285.698 L2191.93 263.939 L2196.44 263.939 L2186.72 289.865 L2180.93 289.865 L2171.21 263.939 Z" fill="#000000" fill-rule="nonzero" fill-opacity="1"></path><path clip-path="url(#clip400)" d="M2224.5 275.837 L2224.5 277.92 L2204.91 277.92 Q2205.19 282.318 2207.55 284.633 Q2209.94 286.925 2214.17 286.925 Q2216.63 286.925 2218.92 286.323 Q2221.23 285.721 2223.5 284.517 L2223.5 288.545 Q2221.21 289.517 2218.8 290.027 Q2216.39 290.536 2213.92 290.536 Q2207.71 290.536 2204.08 286.925 Q2200.47 283.314 2200.47 277.156 Q2200.47 270.791 2203.89 267.064 Q2207.34 263.314 2213.18 263.314 Q2218.41 263.314 2221.44 266.693 Q2224.5 270.05 2224.5 275.837 M2220.24 274.587 Q2220.19 271.092 2218.27 269.008 Q2216.37 266.925 2213.22 266.925 Q2209.66 266.925 2207.5 268.939 Q2205.38 270.953 2205.05 274.61 L2220.24 274.587 Z" fill="#000000" fill-rule="nonzero" fill-opacity="1"></path><path clip-path="url(#clip400)" d="M2246.51 267.92 Q2245.79 267.504 2244.94 267.318 Q2244.1 267.11 2243.08 267.11 Q2239.47 267.11 2237.53 269.471 Q2235.61 271.809 2235.61 276.207 L2235.61 289.865 L2231.32 289.865 L2231.32 263.939 L2235.61 263.939 L2235.61 267.967 Q2236.95 265.606 2239.1 264.471 Q2241.25 263.314 2244.33 263.314 Q2244.77 263.314 2245.31 263.383 Q2245.84 263.43 2246.49 263.545 L2246.51 267.92 Z" fill="#000000" fill-rule="nonzero" fill-opacity="1"></path><polyline clip-path="url(#clip400)" style="stroke:#ff0000; stroke-linecap:round; stroke-linejoin:round; stroke-width:4; stroke-opacity:1; fill:none" points="1752.78,324.425 1892.01,324.425 "></polyline>
<path clip-path="url(#clip400)" d="M1933.64 316.543 L1933.64 320.571 Q1931.83 319.645 1929.89 319.182 Q1927.95 318.719 1925.86 318.719 Q1922.69 318.719 1921.09 319.691 Q1919.52 320.663 1919.52 322.608 Q1919.52 324.089 1920.65 324.945 Q1921.79 325.779 1925.21 326.543 L1926.67 326.867 Q1931.21 327.839 1933.11 329.621 Q1935.03 331.381 1935.03 334.552 Q1935.03 338.163 1932.16 340.269 Q1929.31 342.376 1924.31 342.376 Q1922.23 342.376 1919.96 341.959 Q1917.71 341.566 1915.21 340.756 L1915.21 336.357 Q1917.58 337.584 1919.87 338.209 Q1922.16 338.811 1924.4 338.811 Q1927.41 338.811 1929.03 337.793 Q1930.65 336.751 1930.65 334.876 Q1930.65 333.14 1929.47 332.214 Q1928.32 331.288 1924.36 330.432 L1922.88 330.084 Q1918.92 329.251 1917.16 327.538 Q1915.4 325.802 1915.4 322.793 Q1915.4 319.135 1917.99 317.145 Q1920.59 315.154 1925.35 315.154 Q1927.71 315.154 1929.8 315.501 Q1931.88 315.848 1933.64 316.543 Z" fill="#000000" fill-rule="nonzero" fill-opacity="1"></path><path clip-path="url(#clip400)" d="M1941.37 331.473 L1941.37 315.779 L1945.63 315.779 L1945.63 331.311 Q1945.63 334.992 1947.07 336.844 Q1948.5 338.672 1951.37 338.672 Q1954.82 338.672 1956.81 336.473 Q1958.83 334.274 1958.83 330.478 L1958.83 315.779 L1963.08 315.779 L1963.08 341.705 L1958.83 341.705 L1958.83 337.723 Q1957.27 340.084 1955.21 341.242 Q1953.18 342.376 1950.47 342.376 Q1946 342.376 1943.69 339.598 Q1941.37 336.82 1941.37 331.473 M1952.09 315.154 L1952.09 315.154 Z" fill="#000000" fill-rule="nonzero" fill-opacity="1"></path><path clip-path="url(#clip400)" d="M1986.88 319.76 Q1986.16 319.344 1985.31 319.158 Q1984.47 318.95 1983.46 318.95 Q1979.84 318.95 1977.9 321.311 Q1975.98 323.649 1975.98 328.047 L1975.98 341.705 L1971.7 341.705 L1971.7 315.779 L1975.98 315.779 L1975.98 319.807 Q1977.32 317.446 1979.47 316.311 Q1981.63 315.154 1984.71 315.154 Q1985.14 315.154 1985.68 315.223 Q1986.21 315.27 1986.86 315.385 L1986.88 319.76 Z" fill="#000000" fill-rule="nonzero" fill-opacity="1"></path><path clip-path="url(#clip400)" d="M2004.47 305.686 L2004.47 309.228 L2000.4 309.228 Q1998.11 309.228 1997.21 310.154 Q1996.33 311.08 1996.33 313.487 L1996.33 315.779 L2003.34 315.779 L2003.34 319.089 L1996.33 319.089 L1996.33 341.705 L1992.04 341.705 L1992.04 319.089 L1987.97 319.089 L1987.97 315.779 L1992.04 315.779 L1992.04 313.973 Q1992.04 309.645 1994.06 307.677 Q1996.07 305.686 2000.45 305.686 L2004.47 305.686 Z" fill="#000000" fill-rule="nonzero" fill-opacity="1"></path><path clip-path="url(#clip400)" d="M2019.82 328.672 Q2014.66 328.672 2012.67 329.853 Q2010.68 331.033 2010.68 333.881 Q2010.68 336.149 2012.16 337.492 Q2013.66 338.811 2016.23 338.811 Q2019.77 338.811 2021.9 336.311 Q2024.06 333.788 2024.06 329.621 L2024.06 328.672 L2019.82 328.672 M2028.32 326.913 L2028.32 341.705 L2024.06 341.705 L2024.06 337.769 Q2022.6 340.131 2020.42 341.265 Q2018.25 342.376 2015.1 342.376 Q2011.12 342.376 2008.76 340.154 Q2006.42 337.908 2006.42 334.158 Q2006.42 329.783 2009.33 327.561 Q2012.27 325.339 2018.08 325.339 L2024.06 325.339 L2024.06 324.922 Q2024.06 321.983 2022.11 320.385 Q2020.19 318.765 2016.7 318.765 Q2014.47 318.765 2012.37 319.297 Q2010.26 319.83 2008.32 320.895 L2008.32 316.959 Q2010.65 316.057 2012.85 315.617 Q2015.05 315.154 2017.14 315.154 Q2022.76 315.154 2025.54 318.071 Q2028.32 320.987 2028.32 326.913 Z" fill="#000000" fill-rule="nonzero" fill-opacity="1"></path><path clip-path="url(#clip400)" d="M2055.75 316.774 L2055.75 320.756 Q2053.94 319.76 2052.11 319.274 Q2050.31 318.765 2048.45 318.765 Q2044.31 318.765 2042.02 321.404 Q2039.73 324.02 2039.73 328.765 Q2039.73 333.51 2042.02 336.149 Q2044.31 338.765 2048.45 338.765 Q2050.31 338.765 2052.11 338.279 Q2053.94 337.769 2055.75 336.774 L2055.75 340.709 Q2053.96 341.543 2052.04 341.959 Q2050.14 342.376 2047.99 342.376 Q2042.14 342.376 2038.69 338.695 Q2035.24 335.015 2035.24 328.765 Q2035.24 322.422 2038.71 318.788 Q2042.2 315.154 2048.27 315.154 Q2050.24 315.154 2052.11 315.571 Q2053.99 315.964 2055.75 316.774 Z" fill="#000000" fill-rule="nonzero" fill-opacity="1"></path><path clip-path="url(#clip400)" d="M2085.33 327.677 L2085.33 329.76 L2065.75 329.76 Q2066.02 334.158 2068.39 336.473 Q2070.77 338.765 2075.01 338.765 Q2077.46 338.765 2079.75 338.163 Q2082.07 337.561 2084.33 336.357 L2084.33 340.385 Q2082.04 341.357 2079.64 341.867 Q2077.23 342.376 2074.75 342.376 Q2068.55 342.376 2064.91 338.765 Q2061.3 335.154 2061.3 328.996 Q2061.3 322.631 2064.73 318.904 Q2068.18 315.154 2074.01 315.154 Q2079.24 315.154 2082.27 318.533 Q2085.33 321.89 2085.33 327.677 M2081.07 326.427 Q2081.02 322.932 2079.1 320.848 Q2077.2 318.765 2074.06 318.765 Q2070.49 318.765 2068.34 320.779 Q2066.21 322.793 2065.89 326.45 L2081.07 326.427 Z" fill="#000000" fill-rule="nonzero" fill-opacity="1"></path><path clip-path="url(#clip400)" d="M2122.41 319.76 Q2121.7 319.344 2120.84 319.158 Q2120.01 318.95 2118.99 318.95 Q2115.38 318.95 2113.43 321.311 Q2111.51 323.649 2111.51 328.047 L2111.51 341.705 L2107.23 341.705 L2107.23 315.779 L2111.51 315.779 L2111.51 319.807 Q2112.85 317.446 2115.01 316.311 Q2117.16 315.154 2120.24 315.154 Q2120.68 315.154 2121.21 315.223 Q2121.74 315.27 2122.39 315.385 L2122.41 319.76 Z" fill="#000000" fill-rule="nonzero" fill-opacity="1"></path><path clip-path="url(#clip400)" d="M2138.66 328.672 Q2133.5 328.672 2131.51 329.853 Q2129.52 331.033 2129.52 333.881 Q2129.52 336.149 2131 337.492 Q2132.51 338.811 2135.07 338.811 Q2138.62 338.811 2140.75 336.311 Q2142.9 333.788 2142.9 329.621 L2142.9 328.672 L2138.66 328.672 M2147.16 326.913 L2147.16 341.705 L2142.9 341.705 L2142.9 337.769 Q2141.44 340.131 2139.26 341.265 Q2137.09 342.376 2133.94 342.376 Q2129.96 342.376 2127.6 340.154 Q2125.26 337.908 2125.26 334.158 Q2125.26 329.783 2128.18 327.561 Q2131.12 325.339 2136.93 325.339 L2142.9 325.339 L2142.9 324.922 Q2142.9 321.983 2140.95 320.385 Q2139.03 318.765 2135.54 318.765 Q2133.32 318.765 2131.21 319.297 Q2129.1 319.83 2127.16 320.895 L2127.16 316.959 Q2129.5 316.057 2131.7 315.617 Q2133.89 315.154 2135.98 315.154 Q2141.6 315.154 2144.38 318.071 Q2147.16 320.987 2147.16 326.913 Z" fill="#000000" fill-rule="nonzero" fill-opacity="1"></path><path clip-path="url(#clip400)" d="M2153.45 315.779 L2157.71 315.779 L2163.04 336.01 L2168.34 315.779 L2173.36 315.779 L2178.69 336.01 L2183.99 315.779 L2188.25 315.779 L2181.46 341.705 L2176.44 341.705 L2170.86 320.455 L2165.26 341.705 L2160.24 341.705 L2153.45 315.779 Z" fill="#000000" fill-rule="nonzero" fill-opacity="1"></path><polyline clip-path="url(#clip400)" style="stroke:#008000; stroke-linecap:round; stroke-linejoin:round; stroke-width:4; stroke-opacity:1; fill:none" points="1752.78,376.265 1892.01,376.265 "></polyline>
<path clip-path="url(#clip400)" d="M1933.64 368.383 L1933.64 372.411 Q1931.83 371.485 1929.89 371.022 Q1927.95 370.559 1925.86 370.559 Q1922.69 370.559 1921.09 371.531 Q1919.52 372.503 1919.52 374.448 Q1919.52 375.929 1920.65 376.785 Q1921.79 377.619 1925.21 378.383 L1926.67 378.707 Q1931.21 379.679 1933.11 381.461 Q1935.03 383.221 1935.03 386.392 Q1935.03 390.003 1932.16 392.109 Q1929.31 394.216 1924.31 394.216 Q1922.23 394.216 1919.96 393.799 Q1917.71 393.406 1915.21 392.596 L1915.21 388.197 Q1917.58 389.424 1919.87 390.049 Q1922.16 390.651 1924.4 390.651 Q1927.41 390.651 1929.03 389.633 Q1930.65 388.591 1930.65 386.716 Q1930.65 384.98 1929.47 384.054 Q1928.32 383.128 1924.36 382.272 L1922.88 381.924 Q1918.92 381.091 1917.16 379.378 Q1915.4 377.642 1915.4 374.633 Q1915.4 370.975 1917.99 368.985 Q1920.59 366.994 1925.35 366.994 Q1927.71 366.994 1929.8 367.341 Q1931.88 367.688 1933.64 368.383 Z" fill="#000000" fill-rule="nonzero" fill-opacity="1"></path><path clip-path="url(#clip400)" d="M1941.37 383.313 L1941.37 367.619 L1945.63 367.619 L1945.63 383.151 Q1945.63 386.832 1947.07 388.684 Q1948.5 390.512 1951.37 390.512 Q1954.82 390.512 1956.81 388.313 Q1958.83 386.114 1958.83 382.318 L1958.83 367.619 L1963.08 367.619 L1963.08 393.545 L1958.83 393.545 L1958.83 389.563 Q1957.27 391.924 1955.21 393.082 Q1953.18 394.216 1950.47 394.216 Q1946 394.216 1943.69 391.438 Q1941.37 388.66 1941.37 383.313 M1952.09 366.994 L1952.09 366.994 Z" fill="#000000" fill-rule="nonzero" fill-opacity="1"></path><path clip-path="url(#clip400)" d="M1986.88 371.6 Q1986.16 371.184 1985.31 370.998 Q1984.47 370.79 1983.46 370.79 Q1979.84 370.79 1977.9 373.151 Q1975.98 375.489 1975.98 379.887 L1975.98 393.545 L1971.7 393.545 L1971.7 367.619 L1975.98 367.619 L1975.98 371.647 Q1977.32 369.286 1979.47 368.151 Q1981.63 366.994 1984.71 366.994 Q1985.14 366.994 1985.68 367.063 Q1986.21 367.11 1986.86 367.225 L1986.88 371.6 Z" fill="#000000" fill-rule="nonzero" fill-opacity="1"></path><path clip-path="url(#clip400)" d="M2004.47 357.526 L2004.47 361.068 L2000.4 361.068 Q1998.11 361.068 1997.21 361.994 Q1996.33 362.92 1996.33 365.327 L1996.33 367.619 L2003.34 367.619 L2003.34 370.929 L1996.33 370.929 L1996.33 393.545 L1992.04 393.545 L1992.04 370.929 L1987.97 370.929 L1987.97 367.619 L1992.04 367.619 L1992.04 365.813 Q1992.04 361.485 1994.06 359.517 Q1996.07 357.526 2000.45 357.526 L2004.47 357.526 Z" fill="#000000" fill-rule="nonzero" fill-opacity="1"></path><path clip-path="url(#clip400)" d="M2019.82 380.512 Q2014.66 380.512 2012.67 381.693 Q2010.68 382.873 2010.68 385.721 Q2010.68 387.989 2012.16 389.332 Q2013.66 390.651 2016.23 390.651 Q2019.77 390.651 2021.9 388.151 Q2024.06 385.628 2024.06 381.461 L2024.06 380.512 L2019.82 380.512 M2028.32 378.753 L2028.32 393.545 L2024.06 393.545 L2024.06 389.609 Q2022.6 391.971 2020.42 393.105 Q2018.25 394.216 2015.1 394.216 Q2011.12 394.216 2008.76 391.994 Q2006.42 389.748 2006.42 385.998 Q2006.42 381.623 2009.33 379.401 Q2012.27 377.179 2018.08 377.179 L2024.06 377.179 L2024.06 376.762 Q2024.06 373.823 2022.11 372.225 Q2020.19 370.605 2016.7 370.605 Q2014.47 370.605 2012.37 371.137 Q2010.26 371.67 2008.32 372.735 L2008.32 368.799 Q2010.65 367.897 2012.85 367.457 Q2015.05 366.994 2017.14 366.994 Q2022.76 366.994 2025.54 369.911 Q2028.32 372.827 2028.32 378.753 Z" fill="#000000" fill-rule="nonzero" fill-opacity="1"></path><path clip-path="url(#clip400)" d="M2055.75 368.614 L2055.75 372.596 Q2053.94 371.6 2052.11 371.114 Q2050.31 370.605 2048.45 370.605 Q2044.31 370.605 2042.02 373.244 Q2039.73 375.86 2039.73 380.605 Q2039.73 385.35 2042.02 387.989 Q2044.31 390.605 2048.45 390.605 Q2050.31 390.605 2052.11 390.119 Q2053.94 389.609 2055.75 388.614 L2055.75 392.549 Q2053.96 393.383 2052.04 393.799 Q2050.14 394.216 2047.99 394.216 Q2042.14 394.216 2038.69 390.535 Q2035.24 386.855 2035.24 380.605 Q2035.24 374.262 2038.71 370.628 Q2042.2 366.994 2048.27 366.994 Q2050.24 366.994 2052.11 367.411 Q2053.99 367.804 2055.75 368.614 Z" fill="#000000" fill-rule="nonzero" fill-opacity="1"></path><path clip-path="url(#clip400)" d="M2085.33 379.517 L2085.33 381.6 L2065.75 381.6 Q2066.02 385.998 2068.39 388.313 Q2070.77 390.605 2075.01 390.605 Q2077.46 390.605 2079.75 390.003 Q2082.07 389.401 2084.33 388.197 L2084.33 392.225 Q2082.04 393.197 2079.64 393.707 Q2077.23 394.216 2074.75 394.216 Q2068.55 394.216 2064.91 390.605 Q2061.3 386.994 2061.3 380.836 Q2061.3 374.471 2064.73 370.744 Q2068.18 366.994 2074.01 366.994 Q2079.24 366.994 2082.27 370.373 Q2085.33 373.73 2085.33 379.517 M2081.07 378.267 Q2081.02 374.772 2079.1 372.688 Q2077.2 370.605 2074.06 370.605 Q2070.49 370.605 2068.34 372.619 Q2066.21 374.633 2065.89 378.29 L2081.07 378.267 Z" fill="#000000" fill-rule="nonzero" fill-opacity="1"></path><path clip-path="url(#clip400)" d="M2107.39 367.619 L2111.65 367.619 L2111.65 393.545 L2107.39 393.545 L2107.39 367.619 M2107.39 357.526 L2111.65 357.526 L2111.65 362.92 L2107.39 362.92 L2107.39 357.526 Z" fill="#000000" fill-rule="nonzero" fill-opacity="1"></path><path clip-path="url(#clip400)" d="M2142.11 377.897 L2142.11 393.545 L2137.85 393.545 L2137.85 378.035 Q2137.85 374.355 2136.42 372.526 Q2134.98 370.698 2132.11 370.698 Q2128.66 370.698 2126.67 372.897 Q2124.68 375.096 2124.68 378.892 L2124.68 393.545 L2120.4 393.545 L2120.4 367.619 L2124.68 367.619 L2124.68 371.647 Q2126.21 369.309 2128.27 368.151 Q2130.35 366.994 2133.06 366.994 Q2137.53 366.994 2139.82 369.772 Q2142.11 372.526 2142.11 377.897 Z" fill="#000000" fill-rule="nonzero" fill-opacity="1"></path><path clip-path="url(#clip400)" d="M2150.61 367.619 L2154.87 367.619 L2154.87 393.545 L2150.61 393.545 L2150.61 367.619 M2150.61 357.526 L2154.87 357.526 L2154.87 362.92 L2150.61 362.92 L2150.61 357.526 Z" fill="#000000" fill-rule="nonzero" fill-opacity="1"></path><path clip-path="url(#clip400)" d="M2167.99 360.258 L2167.99 367.619 L2176.76 367.619 L2176.76 370.929 L2167.99 370.929 L2167.99 385.003 Q2167.99 388.174 2168.85 389.077 Q2169.73 389.98 2172.39 389.98 L2176.76 389.98 L2176.76 393.545 L2172.39 393.545 Q2167.46 393.545 2165.58 391.716 Q2163.71 389.864 2163.71 385.003 L2163.71 370.929 L2160.58 370.929 L2160.58 367.619 L2163.71 367.619 L2163.71 360.258 L2167.99 360.258 Z" fill="#000000" fill-rule="nonzero" fill-opacity="1"></path><path clip-path="url(#clip400)" d="M2182.37 367.619 L2186.63 367.619 L2186.63 393.545 L2182.37 393.545 L2182.37 367.619 M2182.37 357.526 L2186.63 357.526 L2186.63 362.92 L2182.37 362.92 L2182.37 357.526 Z" fill="#000000" fill-rule="nonzero" fill-opacity="1"></path><path clip-path="url(#clip400)" d="M2207.32 380.512 Q2202.16 380.512 2200.17 381.693 Q2198.18 382.873 2198.18 385.721 Q2198.18 387.989 2199.66 389.332 Q2201.16 390.651 2203.73 390.651 Q2207.27 390.651 2209.4 388.151 Q2211.56 385.628 2211.56 381.461 L2211.56 380.512 L2207.32 380.512 M2215.81 378.753 L2215.81 393.545 L2211.56 393.545 L2211.56 389.609 Q2210.1 391.971 2207.92 393.105 Q2205.75 394.216 2202.6 394.216 Q2198.62 394.216 2196.25 391.994 Q2193.92 389.748 2193.92 385.998 Q2193.92 381.623 2196.83 379.401 Q2199.77 377.179 2205.58 377.179 L2211.56 377.179 L2211.56 376.762 Q2211.56 373.823 2209.61 372.225 Q2207.69 370.605 2204.19 370.605 Q2201.97 370.605 2199.87 371.137 Q2197.76 371.67 2195.82 372.735 L2195.82 368.799 Q2198.15 367.897 2200.35 367.457 Q2202.55 366.994 2204.63 366.994 Q2210.26 366.994 2213.04 369.911 Q2215.81 372.827 2215.81 378.753 Z" fill="#000000" fill-rule="nonzero" fill-opacity="1"></path><path clip-path="url(#clip400)" d="M2224.59 357.526 L2228.85 357.526 L2228.85 393.545 L2224.59 393.545 L2224.59 357.526 Z" fill="#000000" fill-rule="nonzero" fill-opacity="1"></path><path clip-path="url(#clip400)" d="M2259.94 379.517 L2259.94 381.6 L2240.35 381.6 Q2240.63 385.998 2242.99 388.313 Q2245.37 390.605 2249.61 390.605 Q2252.06 390.605 2254.36 390.003 Q2256.67 389.401 2258.94 388.197 L2258.94 392.225 Q2256.65 393.197 2254.24 393.707 Q2251.83 394.216 2249.36 394.216 Q2243.15 394.216 2239.52 390.605 Q2235.91 386.994 2235.91 380.836 Q2235.91 374.471 2239.33 370.744 Q2242.78 366.994 2248.62 366.994 Q2253.85 366.994 2256.88 370.373 Q2259.94 373.73 2259.94 379.517 M2255.68 378.267 Q2255.63 374.772 2253.71 372.688 Q2251.81 370.605 2248.66 370.605 Q2245.1 370.605 2242.94 372.619 Q2240.81 374.633 2240.49 378.29 L2255.68 378.267 Z" fill="#000000" fill-rule="nonzero" fill-opacity="1"></path><polyline clip-path="url(#clip400)" style="stroke:#000000; stroke-linecap:round; stroke-linejoin:round; stroke-width:4; stroke-opacity:1; fill:none" stroke-dasharray="16, 10" points="1752.78,428.105 1892.01,428.105 "></polyline>
<path clip-path="url(#clip400)" d="M1933.64 420.223 L1933.64 424.251 Q1931.83 423.325 1929.89 422.862 Q1927.95 422.399 1925.86 422.399 Q1922.69 422.399 1921.09 423.371 Q1919.52 424.343 1919.52 426.288 Q1919.52 427.769 1920.65 428.625 Q1921.79 429.459 1925.21 430.223 L1926.67 430.547 Q1931.21 431.519 1933.11 433.301 Q1935.03 435.061 1935.03 438.232 Q1935.03 441.843 1932.16 443.949 Q1929.31 446.056 1924.31 446.056 Q1922.23 446.056 1919.96 445.639 Q1917.71 445.246 1915.21 444.436 L1915.21 440.037 Q1917.58 441.264 1919.87 441.889 Q1922.16 442.491 1924.4 442.491 Q1927.41 442.491 1929.03 441.473 Q1930.65 440.431 1930.65 438.556 Q1930.65 436.82 1929.47 435.894 Q1928.32 434.968 1924.36 434.112 L1922.88 433.764 Q1918.92 432.931 1917.16 431.218 Q1915.4 429.482 1915.4 426.473 Q1915.4 422.815 1917.99 420.825 Q1920.59 418.834 1925.35 418.834 Q1927.71 418.834 1929.8 419.181 Q1931.88 419.528 1933.64 420.223 Z" fill="#000000" fill-rule="nonzero" fill-opacity="1"></path><path clip-path="url(#clip400)" d="M1941.37 435.153 L1941.37 419.459 L1945.63 419.459 L1945.63 434.991 Q1945.63 438.672 1947.07 440.524 Q1948.5 442.352 1951.37 442.352 Q1954.82 442.352 1956.81 440.153 Q1958.83 437.954 1958.83 434.158 L1958.83 419.459 L1963.08 419.459 L1963.08 445.385 L1958.83 445.385 L1958.83 441.403 Q1957.27 443.764 1955.21 444.922 Q1953.18 446.056 1950.47 446.056 Q1946 446.056 1943.69 443.278 Q1941.37 440.5 1941.37 435.153 M1952.09 418.834 L1952.09 418.834 Z" fill="#000000" fill-rule="nonzero" fill-opacity="1"></path><path clip-path="url(#clip400)" d="M1986.88 423.44 Q1986.16 423.024 1985.31 422.838 Q1984.47 422.63 1983.46 422.63 Q1979.84 422.63 1977.9 424.991 Q1975.98 427.329 1975.98 431.727 L1975.98 445.385 L1971.7 445.385 L1971.7 419.459 L1975.98 419.459 L1975.98 423.487 Q1977.32 421.126 1979.47 419.991 Q1981.63 418.834 1984.71 418.834 Q1985.14 418.834 1985.68 418.903 Q1986.21 418.95 1986.86 419.065 L1986.88 423.44 Z" fill="#000000" fill-rule="nonzero" fill-opacity="1"></path><path clip-path="url(#clip400)" d="M2004.47 409.366 L2004.47 412.908 L2000.4 412.908 Q1998.11 412.908 1997.21 413.834 Q1996.33 414.76 1996.33 417.167 L1996.33 419.459 L2003.34 419.459 L2003.34 422.769 L1996.33 422.769 L1996.33 445.385 L1992.04 445.385 L1992.04 422.769 L1987.97 422.769 L1987.97 419.459 L1992.04 419.459 L1992.04 417.653 Q1992.04 413.325 1994.06 411.357 Q1996.07 409.366 2000.45 409.366 L2004.47 409.366 Z" fill="#000000" fill-rule="nonzero" fill-opacity="1"></path><path clip-path="url(#clip400)" d="M2019.82 432.352 Q2014.66 432.352 2012.67 433.533 Q2010.68 434.713 2010.68 437.561 Q2010.68 439.829 2012.16 441.172 Q2013.66 442.491 2016.23 442.491 Q2019.77 442.491 2021.9 439.991 Q2024.06 437.468 2024.06 433.301 L2024.06 432.352 L2019.82 432.352 M2028.32 430.593 L2028.32 445.385 L2024.06 445.385 L2024.06 441.449 Q2022.6 443.811 2020.42 444.945 Q2018.25 446.056 2015.1 446.056 Q2011.12 446.056 2008.76 443.834 Q2006.42 441.588 2006.42 437.838 Q2006.42 433.463 2009.33 431.241 Q2012.27 429.019 2018.08 429.019 L2024.06 429.019 L2024.06 428.602 Q2024.06 425.663 2022.11 424.065 Q2020.19 422.445 2016.7 422.445 Q2014.47 422.445 2012.37 422.977 Q2010.26 423.51 2008.32 424.575 L2008.32 420.639 Q2010.65 419.737 2012.85 419.297 Q2015.05 418.834 2017.14 418.834 Q2022.76 418.834 2025.54 421.751 Q2028.32 424.667 2028.32 430.593 Z" fill="#000000" fill-rule="nonzero" fill-opacity="1"></path><path clip-path="url(#clip400)" d="M2055.75 420.454 L2055.75 424.436 Q2053.94 423.44 2052.11 422.954 Q2050.31 422.445 2048.45 422.445 Q2044.31 422.445 2042.02 425.084 Q2039.73 427.7 2039.73 432.445 Q2039.73 437.19 2042.02 439.829 Q2044.31 442.445 2048.45 442.445 Q2050.31 442.445 2052.11 441.959 Q2053.94 441.449 2055.75 440.454 L2055.75 444.389 Q2053.96 445.223 2052.04 445.639 Q2050.14 446.056 2047.99 446.056 Q2042.14 446.056 2038.69 442.375 Q2035.24 438.695 2035.24 432.445 Q2035.24 426.102 2038.71 422.468 Q2042.2 418.834 2048.27 418.834 Q2050.24 418.834 2052.11 419.251 Q2053.99 419.644 2055.75 420.454 Z" fill="#000000" fill-rule="nonzero" fill-opacity="1"></path><path clip-path="url(#clip400)" d="M2085.33 431.357 L2085.33 433.44 L2065.75 433.44 Q2066.02 437.838 2068.39 440.153 Q2070.77 442.445 2075.01 442.445 Q2077.46 442.445 2079.75 441.843 Q2082.07 441.241 2084.33 440.037 L2084.33 444.065 Q2082.04 445.037 2079.64 445.547 Q2077.23 446.056 2074.75 446.056 Q2068.55 446.056 2064.91 442.445 Q2061.3 438.834 2061.3 432.676 Q2061.3 426.311 2064.73 422.584 Q2068.18 418.834 2074.01 418.834 Q2079.24 418.834 2082.27 422.213 Q2085.33 425.57 2085.33 431.357 M2081.07 430.107 Q2081.02 426.612 2079.1 424.528 Q2077.2 422.445 2074.06 422.445 Q2070.49 422.445 2068.34 424.459 Q2066.21 426.473 2065.89 430.13 L2081.07 430.107 Z" fill="#000000" fill-rule="nonzero" fill-opacity="1"></path><path clip-path="url(#clip400)" d="M2117.44 422.445 Q2114.01 422.445 2112.02 425.13 Q2110.03 427.792 2110.03 432.445 Q2110.03 437.098 2112 439.783 Q2113.99 442.445 2117.44 442.445 Q2120.84 442.445 2122.83 439.76 Q2124.82 437.075 2124.82 432.445 Q2124.82 427.838 2122.83 425.153 Q2120.84 422.445 2117.44 422.445 M2117.44 418.834 Q2122.99 418.834 2126.16 422.445 Q2129.33 426.056 2129.33 432.445 Q2129.33 438.811 2126.16 442.445 Q2122.99 446.056 2117.44 446.056 Q2111.86 446.056 2108.69 442.445 Q2105.54 438.811 2105.54 432.445 Q2105.54 426.056 2108.69 422.445 Q2111.86 418.834 2117.44 418.834 Z" fill="#000000" fill-rule="nonzero" fill-opacity="1"></path><path clip-path="url(#clip400)" d="M2153.45 432.121 Q2153.45 427.491 2151.53 424.945 Q2149.63 422.399 2146.19 422.399 Q2142.76 422.399 2140.84 424.945 Q2138.94 427.491 2138.94 432.121 Q2138.94 436.727 2140.84 439.274 Q2142.76 441.82 2146.19 441.82 Q2149.63 441.82 2151.53 439.274 Q2153.45 436.727 2153.45 432.121 M2157.71 442.167 Q2157.71 448.787 2154.77 452.005 Q2151.83 455.246 2145.77 455.246 Q2143.52 455.246 2141.53 454.898 Q2139.54 454.574 2137.67 453.88 L2137.67 449.736 Q2139.54 450.755 2141.37 451.241 Q2143.2 451.727 2145.1 451.727 Q2149.29 451.727 2151.37 449.528 Q2153.45 447.352 2153.45 442.931 L2153.45 440.824 Q2152.13 443.116 2150.07 444.25 Q2148.01 445.385 2145.14 445.385 Q2140.38 445.385 2137.46 441.75 Q2134.54 438.116 2134.54 432.121 Q2134.54 426.102 2137.46 422.468 Q2140.38 418.834 2145.14 418.834 Q2148.01 418.834 2150.07 419.968 Q2152.13 421.102 2153.45 423.394 L2153.45 419.459 L2157.71 419.459 L2157.71 442.167 Z" fill="#000000" fill-rule="nonzero" fill-opacity="1"></path><path clip-path="url(#clip400)" d="M2183.55 432.121 Q2183.55 427.491 2181.63 424.945 Q2179.73 422.399 2176.28 422.399 Q2172.85 422.399 2170.93 424.945 Q2169.03 427.491 2169.03 432.121 Q2169.03 436.727 2170.93 439.274 Q2172.85 441.82 2176.28 441.82 Q2179.73 441.82 2181.63 439.274 Q2183.55 436.727 2183.55 432.121 M2187.81 442.167 Q2187.81 448.787 2184.87 452.005 Q2181.93 455.246 2175.86 455.246 Q2173.62 455.246 2171.63 454.898 Q2169.63 454.574 2167.76 453.88 L2167.76 449.736 Q2169.63 450.755 2171.46 451.241 Q2173.29 451.727 2175.19 451.727 Q2179.38 451.727 2181.46 449.528 Q2183.55 447.352 2183.55 442.931 L2183.55 440.824 Q2182.23 443.116 2180.17 444.25 Q2178.11 445.385 2175.24 445.385 Q2170.47 445.385 2167.55 441.75 Q2164.63 438.116 2164.63 432.121 Q2164.63 426.102 2167.55 422.468 Q2170.47 418.834 2175.24 418.834 Q2178.11 418.834 2180.17 419.968 Q2182.23 421.102 2183.55 423.394 L2183.55 419.459 L2187.81 419.459 L2187.81 442.167 Z" fill="#000000" fill-rule="nonzero" fill-opacity="1"></path><path clip-path="url(#clip400)" d="M2216.76 424.436 Q2218.36 421.565 2220.58 420.2 Q2222.81 418.834 2225.81 418.834 Q2229.87 418.834 2232.06 421.681 Q2234.26 424.505 2234.26 429.737 L2234.26 445.385 L2229.98 445.385 L2229.98 429.875 Q2229.98 426.149 2228.66 424.343 Q2227.34 422.538 2224.63 422.538 Q2221.32 422.538 2219.4 424.737 Q2217.48 426.936 2217.48 430.732 L2217.48 445.385 L2213.2 445.385 L2213.2 429.875 Q2213.2 426.125 2211.88 424.343 Q2210.56 422.538 2207.81 422.538 Q2204.54 422.538 2202.62 424.76 Q2200.7 426.959 2200.7 430.732 L2200.7 445.385 L2196.42 445.385 L2196.42 419.459 L2200.7 419.459 L2200.7 423.487 Q2202.16 421.102 2204.19 419.968 Q2206.23 418.834 2209.03 418.834 Q2211.86 418.834 2213.82 420.269 Q2215.81 421.704 2216.76 424.436 Z" fill="#000000" fill-rule="nonzero" fill-opacity="1"></path></svg>