<svg xmlns="http://www.w3.org/2000/svg" xmlns:xlink="http://www.w3.org/1999/xlink" width="600" height="400" viewBox="0 0 2400 1600">
<defs>
  <clipPath id="clip680">
    <rect x="0" y="0" width="2400" height="1600"></rect>
  </clipPath>
</defs>
<path clip-path="url(#clip680)" d="M0 1600 L2400 1600 L2400 0 L0 0  Z" fill="#ffffff" fill-rule="evenodd" fill-opacity="1"></path>
<defs>
  <clipPath id="clip681">
    <rect x="480" y="0" width="1681" height="1600"></rect>
  </clipPath>
</defs>
<path clip-path="url(#clip680)" d="M265.445 1486.45 L2352.76 1486.45 L2352.76 123.472 L265.445 123.472  Z" fill="#ffffff" fill-rule="evenodd" fill-opacity="1"></path>
<defs>
  <clipPath id="clip682">
    <rect x="265" y="123" width="2088" height="1364"></rect>
  </clipPath>
</defs>
<polyline clip-path="url(#clip682)" style="stroke:#000000; stroke-linecap:round; stroke-linejoin:round; stroke-width:2; stroke-opacity:0.1; fill:none" points="315.231,1486.45 315.231,123.472 "></polyline>
<polyline clip-path="url(#clip682)" style="stroke:#000000; stroke-linecap:round; stroke-linejoin:round; stroke-width:2; stroke-opacity:0.1; fill:none" points="779.656,1486.45 779.656,123.472 "></polyline>
<polyline clip-path="url(#clip682)" style="stroke:#000000; stroke-linecap:round; stroke-linejoin:round; stroke-width:2; stroke-opacity:0.1; fill:none" points="1244.08,1486.45 1244.08,123.472 "></polyline>
<polyline clip-path="url(#clip682)" style="stroke:#000000; stroke-linecap:round; stroke-linejoin:round; stroke-width:2; stroke-opacity:0.1; fill:none" points="1708.51,1486.45 1708.51,123.472 "></polyline>
<polyline clip-path="url(#clip682)" style="stroke:#000000; stroke-linecap:round; stroke-linejoin:round; stroke-width:2; stroke-opacity:0.1; fill:none" points="2172.93,1486.45 2172.93,123.472 "></polyline>
<polyline clip-path="url(#clip680)" style="stroke:#000000; stroke-linecap:round; stroke-linejoin:round; stroke-width:4; stroke-opacity:1; fill:none" points="265.445,1486.45 2352.76,1486.45 "></polyline>
<polyline clip-path="url(#clip680)" style="stroke:#000000; stroke-linecap:round; stroke-linejoin:round; stroke-width:4; stroke-opacity:1; fill:none" points="315.231,1486.45 315.231,1467.55 "></polyline>
<polyline clip-path="url(#clip680)" style="stroke:#000000; stroke-linecap:round; stroke-linejoin:round; stroke-width:4; stroke-opacity:1; fill:none" points="779.656,1486.45 779.656,1467.55 "></polyline>
<polyline clip-path="url(#clip680)" style="stroke:#000000; stroke-linecap:round; stroke-linejoin:round; stroke-width:4; stroke-opacity:1; fill:none" points="1244.08,1486.45 1244.08,1467.55 "></polyline>
<polyline clip-path="url(#clip680)" style="stroke:#000000; stroke-linecap:round; stroke-linejoin:round; stroke-width:4; stroke-opacity:1; fill:none" points="1708.51,1486.45 1708.51,1467.55 "></polyline>
<polyline clip-path="url(#clip680)" style="stroke:#000000; stroke-linecap:round; stroke-linejoin:round; stroke-width:4; stroke-opacity:1; fill:none" points="2172.93,1486.45 2172.93,1467.55 "></polyline>
<path clip-path="url(#clip680)" d="M315.231 1517.37 Q311.62 1517.37 309.791 1520.93 Q307.986 1524.47 307.986 1531.6 Q307.986 1538.71 309.791 1542.27 Q311.62 1545.82 315.231 1545.82 Q318.865 1545.82 320.671 1542.27 Q322.5 1538.71 322.5 1531.6 Q322.5 1524.47 320.671 1520.93 Q318.865 1517.37 315.231 1517.37 M315.231 1513.66 Q321.041 1513.66 324.097 1518.27 Q327.175 1522.85 327.175 1531.6 Q327.175 1540.33 324.097 1544.94 Q321.041 1549.52 315.231 1549.52 Q309.421 1549.52 306.342 1544.94 Q303.287 1540.33 303.287 1531.6 Q303.287 1522.85 306.342 1518.27 Q309.421 1513.66 315.231 1513.66 Z" fill="#000000" fill-rule="nonzero" fill-opacity="1"></path><path clip-path="url(#clip680)" d="M754.355 1514.29 L772.712 1514.29 L772.712 1518.22 L758.638 1518.22 L758.638 1526.7 Q759.656 1526.35 760.675 1526.19 Q761.693 1526 762.712 1526 Q768.499 1526 771.878 1529.17 Q775.258 1532.34 775.258 1537.76 Q775.258 1543.34 771.786 1546.44 Q768.313 1549.52 761.994 1549.52 Q759.818 1549.52 757.55 1549.15 Q755.304 1548.78 752.897 1548.04 L752.897 1543.34 Q754.98 1544.47 757.202 1545.03 Q759.425 1545.58 761.901 1545.58 Q765.906 1545.58 768.244 1543.48 Q770.582 1541.37 770.582 1537.76 Q770.582 1534.15 768.244 1532.04 Q765.906 1529.94 761.901 1529.94 Q760.026 1529.94 758.151 1530.35 Q756.3 1530.77 754.355 1531.65 L754.355 1514.29 Z" fill="#000000" fill-rule="nonzero" fill-opacity="1"></path><path clip-path="url(#clip680)" d="M794.471 1517.37 Q790.86 1517.37 789.031 1520.93 Q787.225 1524.47 787.225 1531.6 Q787.225 1538.71 789.031 1542.27 Q790.86 1545.82 794.471 1545.82 Q798.105 1545.82 799.91 1542.27 Q801.739 1538.71 801.739 1531.6 Q801.739 1524.47 799.91 1520.93 Q798.105 1517.37 794.471 1517.37 M794.471 1513.66 Q800.281 1513.66 803.336 1518.27 Q806.415 1522.85 806.415 1531.6 Q806.415 1540.33 803.336 1544.94 Q800.281 1549.52 794.471 1549.52 Q788.661 1549.52 785.582 1544.94 Q782.526 1540.33 782.526 1531.6 Q782.526 1522.85 785.582 1518.27 Q788.661 1513.66 794.471 1513.66 Z" fill="#000000" fill-rule="nonzero" fill-opacity="1"></path><path clip-path="url(#clip680)" d="M1203.69 1544.91 L1211.33 1544.91 L1211.33 1518.55 L1203.02 1520.21 L1203.02 1515.95 L1211.28 1514.29 L1215.96 1514.29 L1215.96 1544.91 L1223.59 1544.91 L1223.59 1548.85 L1203.69 1548.85 L1203.69 1544.91 Z" fill="#000000" fill-rule="nonzero" fill-opacity="1"></path><path clip-path="url(#clip680)" d="M1243.04 1517.37 Q1239.43 1517.37 1237.6 1520.93 Q1235.79 1524.47 1235.79 1531.6 Q1235.79 1538.71 1237.6 1542.27 Q1239.43 1545.82 1243.04 1545.82 Q1246.67 1545.82 1248.48 1542.27 Q1250.31 1538.71 1250.31 1531.6 Q1250.31 1524.47 1248.48 1520.93 Q1246.67 1517.37 1243.04 1517.37 M1243.04 1513.66 Q1248.85 1513.66 1251.9 1518.27 Q1254.98 1522.85 1254.98 1531.6 Q1254.98 1540.33 1251.9 1544.94 Q1248.85 1549.52 1243.04 1549.52 Q1237.23 1549.52 1234.15 1544.94 Q1231.09 1540.33 1231.09 1531.6 Q1231.09 1522.85 1234.15 1518.27 Q1237.23 1513.66 1243.04 1513.66 Z" fill="#000000" fill-rule="nonzero" fill-opacity="1"></path><path clip-path="url(#clip680)" d="M1273.2 1517.37 Q1269.59 1517.37 1267.76 1520.93 Q1265.96 1524.47 1265.96 1531.6 Q1265.96 1538.71 1267.76 1542.27 Q1269.59 1545.82 1273.2 1545.82 Q1276.84 1545.82 1278.64 1542.27 Q1280.47 1538.71 1280.47 1531.6 Q1280.47 1524.47 1278.64 1520.93 Q1276.84 1517.37 1273.2 1517.37 M1273.2 1513.66 Q1279.01 1513.66 1282.07 1518.27 Q1285.15 1522.85 1285.15 1531.6 Q1285.15 1540.33 1282.07 1544.94 Q1279.01 1549.52 1273.2 1549.52 Q1267.39 1549.52 1264.31 1544.94 Q1261.26 1540.33 1261.26 1531.6 Q1261.26 1522.85 1264.31 1518.27 Q1267.39 1513.66 1273.2 1513.66 Z" fill="#000000" fill-rule="nonzero" fill-opacity="1"></path><path clip-path="url(#clip680)" d="M1668.11 1544.91 L1675.75 1544.91 L1675.75 1518.55 L1667.44 1520.21 L1667.44 1515.95 L1675.7 1514.29 L1680.38 1514.29 L1680.38 1544.91 L1688.02 1544.91 L1688.02 1548.85 L1668.11 1548.85 L1668.11 1544.91 Z" fill="#000000" fill-rule="nonzero" fill-opacity="1"></path><path clip-path="url(#clip680)" d="M1697.51 1514.29 L1715.87 1514.29 L1715.87 1518.22 L1701.79 1518.22 L1701.79 1526.7 Q1702.81 1526.35 1703.83 1526.19 Q1704.85 1526 1705.87 1526 Q1711.65 1526 1715.03 1529.17 Q1718.41 1532.34 1718.41 1537.76 Q1718.41 1543.34 1714.94 1546.44 Q1711.47 1549.52 1705.15 1549.52 Q1702.97 1549.52 1700.7 1549.15 Q1698.46 1548.78 1696.05 1548.04 L1696.05 1543.34 Q1698.14 1544.47 1700.36 1545.03 Q1702.58 1545.58 1705.06 1545.58 Q1709.06 1545.58 1711.4 1543.48 Q1713.74 1541.37 1713.74 1537.76 Q1713.74 1534.15 1711.4 1532.04 Q1709.06 1529.94 1705.06 1529.94 Q1703.18 1529.94 1701.31 1530.35 Q1699.45 1530.77 1697.51 1531.65 L1697.51 1514.29 Z" fill="#000000" fill-rule="nonzero" fill-opacity="1"></path><path clip-path="url(#clip680)" d="M1737.63 1517.37 Q1734.01 1517.37 1732.19 1520.93 Q1730.38 1524.47 1730.38 1531.6 Q1730.38 1538.71 1732.19 1542.27 Q1734.01 1545.82 1737.63 1545.82 Q1741.26 1545.82 1743.07 1542.27 Q1744.89 1538.71 1744.89 1531.6 Q1744.89 1524.47 1743.07 1520.93 Q1741.26 1517.37 1737.63 1517.37 M1737.63 1513.66 Q1743.44 1513.66 1746.49 1518.27 Q1749.57 1522.85 1749.57 1531.6 Q1749.57 1540.33 1746.49 1544.94 Q1743.44 1549.52 1737.63 1549.52 Q1731.82 1549.52 1728.74 1544.94 Q1725.68 1540.33 1725.68 1531.6 Q1725.68 1522.85 1728.74 1518.27 Q1731.82 1513.66 1737.63 1513.66 Z" fill="#000000" fill-rule="nonzero" fill-opacity="1"></path><path clip-path="url(#clip680)" d="M2136.62 1544.91 L2152.94 1544.91 L2152.94 1548.85 L2131 1548.85 L2131 1544.91 Q2133.66 1542.16 2138.24 1537.53 Q2142.85 1532.88 2144.03 1531.53 Q2146.28 1529.01 2147.16 1527.27 Q2148.06 1525.51 2148.06 1523.82 Q2148.06 1521.07 2146.11 1519.33 Q2144.19 1517.6 2141.09 1517.6 Q2138.89 1517.6 2136.44 1518.36 Q2134.01 1519.13 2131.23 1520.68 L2131.23 1515.95 Q2134.05 1514.82 2136.51 1514.24 Q2138.96 1513.66 2141 1513.66 Q2146.37 1513.66 2149.56 1516.35 Q2152.76 1519.03 2152.76 1523.52 Q2152.76 1525.65 2151.95 1527.57 Q2151.16 1529.47 2149.05 1532.07 Q2148.47 1532.74 2145.37 1535.95 Q2142.27 1539.15 2136.62 1544.91 Z" fill="#000000" fill-rule="nonzero" fill-opacity="1"></path><path clip-path="url(#clip680)" d="M2172.76 1517.37 Q2169.15 1517.37 2167.32 1520.93 Q2165.51 1524.47 2165.51 1531.6 Q2165.51 1538.71 2167.32 1542.27 Q2169.15 1545.82 2172.76 1545.82 Q2176.39 1545.82 2178.2 1542.27 Q2180.03 1538.71 2180.03 1531.6 Q2180.03 1524.47 2178.2 1520.93 Q2176.39 1517.37 2172.76 1517.37 M2172.76 1513.66 Q2178.57 1513.66 2181.62 1518.27 Q2184.7 1522.85 2184.7 1531.6 Q2184.7 1540.33 2181.62 1544.94 Q2178.57 1549.52 2172.76 1549.52 Q2166.95 1549.52 2163.87 1544.94 Q2160.81 1540.33 2160.81 1531.6 Q2160.81 1522.85 2163.87 1518.27 Q2166.95 1513.66 2172.76 1513.66 Z" fill="#000000" fill-rule="nonzero" fill-opacity="1"></path><path clip-path="url(#clip680)" d="M2202.92 1517.37 Q2199.31 1517.37 2197.48 1520.93 Q2195.67 1524.47 2195.67 1531.6 Q2195.67 1538.71 2197.48 1542.27 Q2199.31 1545.82 2202.92 1545.82 Q2206.55 1545.82 2208.36 1542.27 Q2210.19 1538.71 2210.19 1531.6 Q2210.19 1524.47 2208.36 1520.93 Q2206.55 1517.37 2202.92 1517.37 M2202.92 1513.66 Q2208.73 1513.66 2211.78 1518.27 Q2214.86 1522.85 2214.86 1531.6 Q2214.86 1540.33 2211.78 1544.94 Q2208.73 1549.52 2202.92 1549.52 Q2197.11 1549.52 2194.03 1544.94 Q2190.97 1540.33 2190.97 1531.6 Q2190.97 1522.85 2194.03 1518.27 Q2197.11 1513.66 2202.92 1513.66 Z" fill="#000000" fill-rule="nonzero" fill-opacity="1"></path><polyline clip-path="url(#clip682)" style="stroke:#000000; stroke-linecap:round; stroke-linejoin:round; stroke-width:2; stroke-opacity:0.1; fill:none" points="265.445,1239.51 2352.76,1239.51 "></polyline>
<polyline clip-path="url(#clip682)" style="stroke:#000000; stroke-linecap:round; stroke-linejoin:round; stroke-width:2; stroke-opacity:0.1; fill:none" points="265.445,927.068 2352.76,927.068 "></polyline>
<polyline clip-path="url(#clip682)" style="stroke:#000000; stroke-linecap:round; stroke-linejoin:round; stroke-width:2; stroke-opacity:0.1; fill:none" points="265.445,614.631 2352.76,614.631 "></polyline>
<polyline clip-path="url(#clip682)" style="stroke:#000000; stroke-linecap:round; stroke-linejoin:round; stroke-width:2; stroke-opacity:0.1; fill:none" points="265.445,302.194 2352.76,302.194 "></polyline>
<polyline clip-path="url(#clip680)" style="stroke:#000000; stroke-linecap:round; stroke-linejoin:round; stroke-width:4; stroke-opacity:1; fill:none" points="265.445,1486.45 265.445,123.472 "></polyline>
<polyline clip-path="url(#clip680)" style="stroke:#000000; stroke-linecap:round; stroke-linejoin:round; stroke-width:4; stroke-opacity:1; fill:none" points="265.445,1239.51 284.342,1239.51 "></polyline>
<polyline clip-path="url(#clip680)" style="stroke:#000000; stroke-linecap:round; stroke-linejoin:round; stroke-width:4; stroke-opacity:1; fill:none" points="265.445,927.068 284.342,927.068 "></polyline>
<polyline clip-path="url(#clip680)" style="stroke:#000000; stroke-linecap:round; stroke-linejoin:round; stroke-width:4; stroke-opacity:1; fill:none" points="265.445,614.631 284.342,614.631 "></polyline>
<polyline clip-path="url(#clip680)" style="stroke:#000000; stroke-linecap:round; stroke-linejoin:round; stroke-width:4; stroke-opacity:1; fill:none" points="265.445,302.194 284.342,302.194 "></polyline>
<path clip-path="url(#clip680)" d="M129.862 1226.3 L118.056 1244.75 L129.862 1244.75 L129.862 1226.3 M128.635 1222.23 L134.515 1222.23 L134.515 1244.75 L139.445 1244.75 L139.445 1248.64 L134.515 1248.64 L134.515 1256.79 L129.862 1256.79 L129.862 1248.64 L114.26 1248.64 L114.26 1244.12 L128.635 1222.23 Z" fill="#000000" fill-rule="nonzero" fill-opacity="1"></path><path clip-path="url(#clip680)" d="M157.177 1225.3 Q153.566 1225.3 151.737 1228.87 Q149.931 1232.41 149.931 1239.54 Q149.931 1246.65 151.737 1250.21 Q153.566 1253.75 157.177 1253.75 Q160.811 1253.75 162.616 1250.21 Q164.445 1246.65 164.445 1239.54 Q164.445 1232.41 162.616 1228.87 Q160.811 1225.3 157.177 1225.3 M157.177 1221.6 Q162.987 1221.6 166.042 1226.21 Q169.121 1230.79 169.121 1239.54 Q169.121 1248.27 166.042 1252.87 Q162.987 1257.46 157.177 1257.46 Q151.366 1257.46 148.288 1252.87 Q145.232 1248.27 145.232 1239.54 Q145.232 1230.79 148.288 1226.21 Q151.366 1221.6 157.177 1221.6 Z" fill="#000000" fill-rule="nonzero" fill-opacity="1"></path><path clip-path="url(#clip680)" d="M187.338 1225.3 Q183.727 1225.3 181.899 1228.87 Q180.093 1232.41 180.093 1239.54 Q180.093 1246.65 181.899 1250.21 Q183.727 1253.75 187.338 1253.75 Q190.973 1253.75 192.778 1250.21 Q194.607 1246.65 194.607 1239.54 Q194.607 1232.41 192.778 1228.87 Q190.973 1225.3 187.338 1225.3 M187.338 1221.6 Q193.149 1221.6 196.204 1226.21 Q199.283 1230.79 199.283 1239.54 Q199.283 1248.27 196.204 1252.87 Q193.149 1257.46 187.338 1257.46 Q181.528 1257.46 178.45 1252.87 Q175.394 1248.27 175.394 1239.54 Q175.394 1230.79 178.45 1226.21 Q181.528 1221.6 187.338 1221.6 Z" fill="#000000" fill-rule="nonzero" fill-opacity="1"></path><path clip-path="url(#clip680)" d="M217.5 1225.3 Q213.889 1225.3 212.061 1228.87 Q210.255 1232.41 210.255 1239.54 Q210.255 1246.65 212.061 1250.21 Q213.889 1253.75 217.5 1253.75 Q221.135 1253.75 222.94 1250.21 Q224.769 1246.65 224.769 1239.54 Q224.769 1232.41 222.94 1228.87 Q221.135 1225.3 217.5 1225.3 M217.5 1221.6 Q223.31 1221.6 226.366 1226.21 Q229.445 1230.79 229.445 1239.54 Q229.445 1248.27 226.366 1252.87 Q223.31 1257.46 217.5 1257.46 Q211.69 1257.46 208.612 1252.87 Q205.556 1248.27 205.556 1239.54 Q205.556 1230.79 208.612 1226.21 Q211.69 1221.6 217.5 1221.6 Z" fill="#000000" fill-rule="nonzero" fill-opacity="1"></path><path clip-path="url(#clip680)" d="M117.061 909.788 L135.417 909.788 L135.417 913.723 L121.343 913.723 L121.343 922.195 Q122.362 921.848 123.38 921.686 Q124.399 921.501 125.418 921.501 Q131.205 921.501 134.584 924.672 Q137.964 927.844 137.964 933.26 Q137.964 938.839 134.492 941.941 Q131.019 945.019 124.7 945.019 Q122.524 945.019 120.255 944.649 Q118.01 944.279 115.603 943.538 L115.603 938.839 Q117.686 939.973 119.908 940.529 Q122.13 941.084 124.607 941.084 Q128.612 941.084 130.95 938.978 Q133.288 936.871 133.288 933.26 Q133.288 929.649 130.95 927.543 Q128.612 925.436 124.607 925.436 Q122.732 925.436 120.857 925.853 Q119.006 926.269 117.061 927.149 L117.061 909.788 Z" fill="#000000" fill-rule="nonzero" fill-opacity="1"></path><path clip-path="url(#clip680)" d="M157.177 912.867 Q153.566 912.867 151.737 916.432 Q149.931 919.973 149.931 927.103 Q149.931 934.209 151.737 937.774 Q153.566 941.316 157.177 941.316 Q160.811 941.316 162.616 937.774 Q164.445 934.209 164.445 927.103 Q164.445 919.973 162.616 916.432 Q160.811 912.867 157.177 912.867 M157.177 909.163 Q162.987 909.163 166.042 913.77 Q169.121 918.353 169.121 927.103 Q169.121 935.83 166.042 940.436 Q162.987 945.019 157.177 945.019 Q151.366 945.019 148.288 940.436 Q145.232 935.83 145.232 927.103 Q145.232 918.353 148.288 913.77 Q151.366 909.163 157.177 909.163 Z" fill="#000000" fill-rule="nonzero" fill-opacity="1"></path><path clip-path="url(#clip680)" d="M187.338 912.867 Q183.727 912.867 181.899 916.432 Q180.093 919.973 180.093 927.103 Q180.093 934.209 181.899 937.774 Q183.727 941.316 187.338 941.316 Q190.973 941.316 192.778 937.774 Q194.607 934.209 194.607 927.103 Q194.607 919.973 192.778 916.432 Q190.973 912.867 187.338 912.867 M187.338 909.163 Q193.149 909.163 196.204 913.77 Q199.283 918.353 199.283 927.103 Q199.283 935.83 196.204 940.436 Q193.149 945.019 187.338 945.019 Q181.528 945.019 178.45 940.436 Q175.394 935.83 175.394 927.103 Q175.394 918.353 178.45 913.77 Q181.528 909.163 187.338 909.163 Z" fill="#000000" fill-rule="nonzero" fill-opacity="1"></path><path clip-path="url(#clip680)" d="M217.5 912.867 Q213.889 912.867 212.061 916.432 Q210.255 919.973 210.255 927.103 Q210.255 934.209 212.061 937.774 Q213.889 941.316 217.5 941.316 Q221.135 941.316 222.94 937.774 Q224.769 934.209 224.769 927.103 Q224.769 919.973 222.94 916.432 Q221.135 912.867 217.5 912.867 M217.5 909.163 Q223.31 909.163 226.366 913.77 Q229.445 918.353 229.445 927.103 Q229.445 935.83 226.366 940.436 Q223.31 945.019 217.5 945.019 Q211.69 945.019 208.612 940.436 Q205.556 935.83 205.556 927.103 Q205.556 918.353 208.612 913.77 Q211.69 909.163 217.5 909.163 Z" fill="#000000" fill-rule="nonzero" fill-opacity="1"></path><path clip-path="url(#clip680)" d="M127.593 612.768 Q124.445 612.768 122.593 614.92 Q120.765 617.073 120.765 620.823 Q120.765 624.55 122.593 626.726 Q124.445 628.879 127.593 628.879 Q130.742 628.879 132.57 626.726 Q134.422 624.55 134.422 620.823 Q134.422 617.073 132.57 614.92 Q130.742 612.768 127.593 612.768 M136.876 598.115 L136.876 602.374 Q135.117 601.541 133.311 601.101 Q131.529 600.661 129.769 600.661 Q125.14 600.661 122.686 603.786 Q120.255 606.911 119.908 613.231 Q121.274 611.217 123.334 610.152 Q125.394 609.064 127.871 609.064 Q133.08 609.064 136.089 612.235 Q139.121 615.383 139.121 620.823 Q139.121 626.147 135.973 629.365 Q132.825 632.582 127.593 632.582 Q121.598 632.582 118.427 627.999 Q115.256 623.393 115.256 614.666 Q115.256 606.471 119.144 601.61 Q123.033 596.726 129.584 596.726 Q131.343 596.726 133.126 597.073 Q134.931 597.42 136.876 598.115 Z" fill="#000000" fill-rule="nonzero" fill-opacity="1"></path><path clip-path="url(#clip680)" d="M157.177 600.43 Q153.566 600.43 151.737 603.994 Q149.931 607.536 149.931 614.666 Q149.931 621.772 151.737 625.337 Q153.566 628.879 157.177 628.879 Q160.811 628.879 162.616 625.337 Q164.445 621.772 164.445 614.666 Q164.445 607.536 162.616 603.994 Q160.811 600.43 157.177 600.43 M157.177 596.726 Q162.987 596.726 166.042 601.332 Q169.121 605.916 169.121 614.666 Q169.121 623.393 166.042 627.999 Q162.987 632.582 157.177 632.582 Q151.366 632.582 148.288 627.999 Q145.232 623.393 145.232 614.666 Q145.232 605.916 148.288 601.332 Q151.366 596.726 157.177 596.726 Z" fill="#000000" fill-rule="nonzero" fill-opacity="1"></path><path clip-path="url(#clip680)" d="M187.338 600.43 Q183.727 600.43 181.899 603.994 Q180.093 607.536 180.093 614.666 Q180.093 621.772 181.899 625.337 Q183.727 628.879 187.338 628.879 Q190.973 628.879 192.778 625.337 Q194.607 621.772 194.607 614.666 Q194.607 607.536 192.778 603.994 Q190.973 600.43 187.338 600.43 M187.338 596.726 Q193.149 596.726 196.204 601.332 Q199.283 605.916 199.283 614.666 Q199.283 623.393 196.204 627.999 Q193.149 632.582 187.338 632.582 Q181.528 632.582 178.45 627.999 Q175.394 623.393 175.394 614.666 Q175.394 605.916 178.45 601.332 Q181.528 596.726 187.338 596.726 Z" fill="#000000" fill-rule="nonzero" fill-opacity="1"></path><path clip-path="url(#clip680)" d="M217.5 600.43 Q213.889 600.43 212.061 603.994 Q210.255 607.536 210.255 614.666 Q210.255 621.772 212.061 625.337 Q213.889 628.879 217.5 628.879 Q221.135 628.879 222.94 625.337 Q224.769 621.772 224.769 614.666 Q224.769 607.536 222.94 603.994 Q221.135 600.43 217.5 600.43 M217.5 596.726 Q223.31 596.726 226.366 601.332 Q229.445 605.916 229.445 614.666 Q229.445 623.393 226.366 627.999 Q223.31 632.582 217.5 632.582 Q211.69 632.582 208.612 627.999 Q205.556 623.393 205.556 614.666 Q205.556 605.916 208.612 601.332 Q211.69 596.726 217.5 596.726 Z" fill="#000000" fill-rule="nonzero" fill-opacity="1"></path><path clip-path="url(#clip680)" d="M115.834 284.914 L138.056 284.914 L138.056 286.905 L125.51 319.474 L120.626 319.474 L132.431 288.849 L115.834 288.849 L115.834 284.914 Z" fill="#000000" fill-rule="nonzero" fill-opacity="1"></path><path clip-path="url(#clip680)" d="M157.177 287.993 Q153.566 287.993 151.737 291.557 Q149.931 295.099 149.931 302.229 Q149.931 309.335 151.737 312.9 Q153.566 316.442 157.177 316.442 Q160.811 316.442 162.616 312.9 Q164.445 309.335 164.445 302.229 Q164.445 295.099 162.616 291.557 Q160.811 287.993 157.177 287.993 M157.177 284.289 Q162.987 284.289 166.042 288.895 Q169.121 293.479 169.121 302.229 Q169.121 310.955 166.042 315.562 Q162.987 320.145 157.177 320.145 Q151.366 320.145 148.288 315.562 Q145.232 310.955 145.232 302.229 Q145.232 293.479 148.288 288.895 Q151.366 284.289 157.177 284.289 Z" fill="#000000" fill-rule="nonzero" fill-opacity="1"></path><path clip-path="url(#clip680)" d="M187.338 287.993 Q183.727 287.993 181.899 291.557 Q180.093 295.099 180.093 302.229 Q180.093 309.335 181.899 312.9 Q183.727 316.442 187.338 316.442 Q190.973 316.442 192.778 312.9 Q194.607 309.335 194.607 302.229 Q194.607 295.099 192.778 291.557 Q190.973 287.993 187.338 287.993 M187.338 284.289 Q193.149 284.289 196.204 288.895 Q199.283 293.479 199.283 302.229 Q199.283 310.955 196.204 315.562 Q193.149 320.145 187.338 320.145 Q181.528 320.145 178.45 315.562 Q175.394 310.955 175.394 302.229 Q175.394 293.479 178.45 288.895 Q181.528 284.289 187.338 284.289 Z" fill="#000000" fill-rule="nonzero" fill-opacity="1"></path><path clip-path="url(#clip680)" d="M217.5 287.993 Q213.889 287.993 212.061 291.557 Q210.255 295.099 210.255 302.229 Q210.255 309.335 212.061 312.9 Q213.889 316.442 217.5 316.442 Q221.135 316.442 222.94 312.9 Q224.769 309.335 224.769 302.229 Q224.769 295.099 222.94 291.557 Q221.135 287.993 217.5 287.993 M217.5 284.289 Q223.31 284.289 226.366 288.895 Q229.445 293.479 229.445 302.229 Q229.445 310.955 226.366 315.562 Q223.31 320.145 217.5 320.145 Q211.69 320.145 208.612 315.562 Q205.556 310.955 205.556 302.229 Q205.556 293.479 208.612 288.895 Q211.69 284.289 217.5 284.289 Z" fill="#000000" fill-rule="nonzero" fill-opacity="1"></path><path clip-path="url(#clip680)" d="M16.4842 1105.34 L16.4842 1075.3 L21.895 1075.3 L21.895 1098.91 L35.9632 1098.91 L35.9632 1076.28 L41.3741 1076.28 L41.3741 1098.91 L58.5933 1098.91 L58.5933 1074.72 L64.0042 1074.72 L64.0042 1105.34 L16.4842 1105.34 Z" fill="#000000" fill-rule="nonzero" fill-opacity="1"></path><path clip-path="url(#clip680)" d="M14.479 1064.41 L14.479 1058.55 L64.0042 1058.55 L64.0042 1064.41 L14.479 1064.41 Z" fill="#000000" fill-rule="nonzero" fill-opacity="1"></path><path clip-path="url(#clip680)" d="M44.7161 1015.81 L47.5806 1015.81 L47.5806 1042.74 Q53.6281 1042.35 56.8109 1039.11 Q59.9619 1035.83 59.9619 1030 Q59.9619 1026.63 59.1344 1023.48 Q58.3069 1020.3 56.6518 1017.18 L62.1899 1017.18 Q63.5267 1020.33 64.227 1023.64 Q64.9272 1026.95 64.9272 1030.35 Q64.9272 1038.88 59.9619 1043.88 Q54.9967 1048.85 46.5303 1048.85 Q37.7774 1048.85 32.6531 1044.14 Q27.4968 1039.39 27.4968 1031.37 Q27.4968 1024.18 32.1438 1020.01 Q36.7589 1015.81 44.7161 1015.81 M42.9973 1021.66 Q38.1912 1021.73 35.3266 1024.37 Q32.4621 1026.98 32.4621 1031.31 Q32.4621 1036.21 35.2312 1039.17 Q38.0002 1042.1 43.0292 1042.54 L42.9973 1021.66 Z" fill="#000000" fill-rule="nonzero" fill-opacity="1"></path><path clip-path="url(#clip680)" d="M28.3562 1010.4 L28.3562 1004.19 L58.275 993.051 L28.3562 981.911 L28.3562 975.704 L64.0042 989.072 L64.0042 997.029 L28.3562 1010.4 Z" fill="#000000" fill-rule="nonzero" fill-opacity="1"></path><path clip-path="url(#clip680)" d="M46.0847 951.419 Q46.0847 958.517 47.7079 961.254 Q49.3312 963.991 53.2461 963.991 Q56.3653 963.991 58.2114 961.954 Q60.0256 959.885 60.0256 956.352 Q60.0256 951.483 56.5881 948.554 Q53.1188 945.594 47.3897 945.594 L46.0847 945.594 L46.0847 951.419 M43.6657 939.738 L64.0042 939.738 L64.0042 945.594 L58.5933 945.594 Q61.8398 947.6 63.3994 950.591 Q64.9272 953.583 64.9272 957.912 Q64.9272 963.387 61.8716 966.633 Q58.7843 969.848 53.6281 969.848 Q47.6125 969.848 44.5569 965.837 Q41.5014 961.795 41.5014 953.806 L41.5014 945.594 L40.9285 945.594 Q36.8862 945.594 34.6901 948.268 Q32.4621 950.91 32.4621 955.716 Q32.4621 958.771 33.1941 961.668 Q33.9262 964.564 35.3903 967.238 L29.9795 967.238 Q28.7381 964.023 28.1334 960.999 Q27.4968 957.976 27.4968 955.111 Q27.4968 947.377 31.5072 943.557 Q35.5176 939.738 43.6657 939.738 Z" fill="#000000" fill-rule="nonzero" fill-opacity="1"></path><path clip-path="url(#clip680)" d="M18.2347 921.882 L28.3562 921.882 L28.3562 909.819 L32.9077 909.819 L32.9077 921.882 L52.2594 921.882 Q56.6199 921.882 57.8613 920.704 Q59.1026 919.495 59.1026 915.835 L59.1026 909.819 L64.0042 909.819 L64.0042 915.835 Q64.0042 922.614 61.4897 925.192 Q58.9434 927.77 52.2594 927.77 L32.9077 927.77 L32.9077 932.067 L28.3562 932.067 L28.3562 927.77 L18.2347 927.77 L18.2347 921.882 Z" fill="#000000" fill-rule="nonzero" fill-opacity="1"></path><path clip-path="url(#clip680)" d="M28.3562 902.117 L28.3562 896.26 L64.0042 896.26 L64.0042 902.117 L28.3562 902.117 M14.479 902.117 L14.479 896.26 L21.895 896.26 L21.895 902.117 L14.479 902.117 Z" fill="#000000" fill-rule="nonzero" fill-opacity="1"></path><path clip-path="url(#clip680)" d="M32.4621 870.193 Q32.4621 874.903 36.1542 877.64 Q39.8145 880.378 46.212 880.378 Q52.6095 880.378 56.3017 877.672 Q59.9619 874.935 59.9619 870.193 Q59.9619 865.514 56.2698 862.777 Q52.5777 860.039 46.212 860.039 Q39.8781 860.039 36.186 862.777 Q32.4621 865.514 32.4621 870.193 M27.4968 870.193 Q27.4968 862.554 32.4621 858.193 Q37.4273 853.833 46.212 853.833 Q54.9649 853.833 59.9619 858.193 Q64.9272 862.554 64.9272 870.193 Q64.9272 877.863 59.9619 882.224 Q54.9649 886.552 46.212 886.552 Q37.4273 886.552 32.4621 882.224 Q27.4968 877.863 27.4968 870.193 Z" fill="#000000" fill-rule="nonzero" fill-opacity="1"></path><path clip-path="url(#clip680)" d="M42.4881 814.493 L64.0042 814.493 L64.0042 820.349 L42.679 820.349 Q37.6183 820.349 35.1038 822.322 Q32.5894 824.296 32.5894 828.243 Q32.5894 832.985 35.6131 835.722 Q38.6368 838.46 43.8567 838.46 L64.0042 838.46 L64.0042 844.348 L28.3562 844.348 L28.3562 838.46 L33.8944 838.46 Q30.6797 836.359 29.0883 833.526 Q27.4968 830.662 27.4968 826.938 Q27.4968 820.795 31.3163 817.644 Q35.1038 814.493 42.4881 814.493 Z" fill="#000000" fill-rule="nonzero" fill-opacity="1"></path><path clip-path="url(#clip680)" d="M14.5426 768.023 Q21.8632 772.288 29.0246 774.357 Q36.186 776.426 43.5384 776.426 Q50.8908 776.426 58.1159 774.357 Q65.3091 772.256 72.5979 768.023 L72.5979 773.116 Q65.1182 777.89 57.8931 780.277 Q50.668 782.632 43.5384 782.632 Q36.4406 782.632 29.2474 780.277 Q22.0542 777.922 14.5426 773.116 L14.5426 768.023 Z" fill="#000000" fill-rule="nonzero" fill-opacity="1"></path><path clip-path="url(#clip680)" d="M35.1993 728.906 Q31.2526 726.71 29.3747 723.654 Q27.4968 720.598 27.4968 716.461 Q27.4968 710.891 31.4117 707.867 Q35.2948 704.843 42.4881 704.843 L64.0042 704.843 L64.0042 710.732 L42.679 710.732 Q37.5546 710.732 35.072 712.546 Q32.5894 714.36 32.5894 718.084 Q32.5894 722.635 35.6131 725.277 Q38.6368 727.919 43.8567 727.919 L64.0042 727.919 L64.0042 733.807 L42.679 733.807 Q37.5228 733.807 35.072 735.622 Q32.5894 737.436 32.5894 741.223 Q32.5894 745.711 35.6449 748.353 Q38.6686 750.995 43.8567 750.995 L64.0042 750.995 L64.0042 756.883 L28.3562 756.883 L28.3562 750.995 L33.8944 750.995 Q30.616 748.99 29.0564 746.189 Q27.4968 743.388 27.4968 739.536 Q27.4968 735.653 29.4702 732.948 Q31.4436 730.211 35.1993 728.906 Z" fill="#000000" fill-rule="nonzero" fill-opacity="1"></path><path clip-path="url(#clip680)" d="M55.9197 692.335 L55.9197 685.619 L64.0042 685.619 L64.0042 692.335 L55.9197 692.335 Z" fill="#000000" fill-rule="nonzero" fill-opacity="1"></path><path clip-path="url(#clip680)" d="M46.0847 656.241 Q46.0847 663.339 47.7079 666.076 Q49.3312 668.813 53.2461 668.813 Q56.3653 668.813 58.2114 666.776 Q60.0256 664.708 60.0256 661.175 Q60.0256 656.305 56.5881 653.377 Q53.1188 650.417 47.3897 650.417 L46.0847 650.417 L46.0847 656.241 M43.6657 644.56 L64.0042 644.56 L64.0042 650.417 L58.5933 650.417 Q61.8398 652.422 63.3994 655.414 Q64.9272 658.406 64.9272 662.734 Q64.9272 668.209 61.8716 671.455 Q58.7843 674.67 53.6281 674.67 Q47.6125 674.67 44.5569 670.66 Q41.5014 666.617 41.5014 658.628 L41.5014 650.417 L40.9285 650.417 Q36.8862 650.417 34.6901 653.09 Q32.4621 655.732 32.4621 660.538 Q32.4621 663.594 33.1941 666.49 Q33.9262 669.386 35.3903 672.06 L29.9795 672.06 Q28.7381 668.845 28.1334 665.822 Q27.4968 662.798 27.4968 659.933 Q27.4968 652.199 31.5072 648.38 Q35.5176 644.56 43.6657 644.56 Z" fill="#000000" fill-rule="nonzero" fill-opacity="1"></path><path clip-path="url(#clip680)" d="M55.9197 631.67 L55.9197 624.954 L64.0042 624.954 L64.0042 631.67 L55.9197 631.67 Z" fill="#000000" fill-rule="nonzero" fill-opacity="1"></path><path clip-path="url(#clip680)" d="M29.4065 589.051 L34.9447 589.051 Q33.6716 591.534 33.035 594.207 Q32.3984 596.881 32.3984 599.746 Q32.3984 604.106 33.7352 606.302 Q35.072 608.467 37.7456 608.467 Q39.7826 608.467 40.9603 606.907 Q42.1061 605.347 43.1565 600.637 L43.6021 598.632 Q44.9389 592.393 47.3897 589.783 Q49.8086 587.141 54.1691 587.141 Q59.1344 587.141 62.0308 591.088 Q64.9272 595.003 64.9272 601.878 Q64.9272 604.743 64.3543 607.862 Q63.8132 610.949 62.6992 614.387 L56.6518 614.387 Q58.3387 611.14 59.198 607.989 Q60.0256 604.838 60.0256 601.751 Q60.0256 597.613 58.6251 595.385 Q57.1929 593.157 54.6147 593.157 Q52.2276 593.157 50.9545 594.78 Q49.6813 596.372 48.5037 601.814 L48.0262 603.851 Q46.8804 609.294 44.5251 611.713 Q42.138 614.132 38.0002 614.132 Q32.9713 614.132 30.2341 610.567 Q27.4968 607.002 27.4968 600.446 Q27.4968 597.199 27.9743 594.335 Q28.4517 591.47 29.4065 589.051 Z" fill="#000000" fill-rule="nonzero" fill-opacity="1"></path><path clip-path="url(#clip680)" d="M55.9197 576.988 L55.9197 570.272 L64.0042 570.272 L64.0042 576.988 L55.9197 576.988 Z" fill="#000000" fill-rule="nonzero" fill-opacity="1"></path><path clip-path="url(#clip680)" d="M14.479 557.095 L14.479 551.239 L64.0042 551.239 L64.0042 557.095 L14.479 557.095 Z" fill="#000000" fill-rule="nonzero" fill-opacity="1"></path><path clip-path="url(#clip680)" d="M55.9197 538.157 L55.9197 531.442 L64.0042 531.442 L64.0042 538.157 L55.9197 538.157 Z" fill="#000000" fill-rule="nonzero" fill-opacity="1"></path><path clip-path="url(#clip680)" d="M14.5426 519.188 L14.5426 514.095 Q22.0542 509.321 29.2474 506.965 Q36.4406 504.578 43.5384 504.578 Q50.668 504.578 57.8931 506.965 Q65.1182 509.321 72.5979 514.095 L72.5979 519.188 Q65.3091 514.954 58.1159 512.885 Q50.8908 510.785 43.5384 510.785 Q36.186 510.785 29.0246 512.885 Q21.8632 514.954 14.5426 519.188 Z" fill="#000000" fill-rule="nonzero" fill-opacity="1"></path><path clip-path="url(#clip680)" d="M665.857 12.096 L674.04 12.096 L674.04 72.576 L665.857 72.576 L665.857 12.096 Z" fill="#000000" fill-rule="nonzero" fill-opacity="1"></path><path clip-path="url(#clip680)" d="M727.715 45.1919 L727.715 72.576 L720.261 72.576 L720.261 45.4349 Q720.261 38.994 717.749 35.7938 Q715.238 32.5936 710.215 32.5936 Q704.179 32.5936 700.695 36.4419 Q697.211 40.2903 697.211 46.9338 L697.211 72.576 L689.717 72.576 L689.717 27.2059 L697.211 27.2059 L697.211 34.2544 Q699.885 30.163 703.49 28.1376 Q707.136 26.1121 711.876 26.1121 Q719.694 26.1121 723.704 30.9732 Q727.715 35.7938 727.715 45.1919 Z" fill="#000000" fill-rule="nonzero" fill-opacity="1"></path><path clip-path="url(#clip680)" d="M743.716 12.096 L775.839 12.096 L775.839 18.9825 L751.21 18.9825 L751.21 33.8088 Q752.992 33.2012 754.775 32.9176 Q756.557 32.5936 758.339 32.5936 Q768.467 32.5936 774.381 38.1433 Q780.295 43.6931 780.295 53.1722 Q780.295 62.9348 774.219 68.3631 Q768.143 73.7508 757.084 73.7508 Q753.276 73.7508 749.306 73.1026 Q745.376 72.4545 741.164 71.1582 L741.164 62.9348 Q744.809 64.9198 748.698 65.892 Q752.587 66.8642 756.922 66.8642 Q763.93 66.8642 768.021 63.1779 Q772.112 59.4916 772.112 53.1722 Q772.112 46.8528 768.021 43.1664 Q763.93 39.4801 756.922 39.4801 Q753.64 39.4801 750.359 40.2093 Q747.118 40.9384 743.716 42.4778 L743.716 12.096 Z" fill="#000000" fill-rule="nonzero" fill-opacity="1"></path><path clip-path="url(#clip680)" d="M820.237 17.6457 Q811.325 17.6457 806.059 24.2892 Q800.833 30.9327 800.833 42.3968 Q800.833 53.8203 806.059 60.4638 Q811.325 67.1073 820.237 67.1073 Q829.149 67.1073 834.334 60.4638 Q839.56 53.8203 839.56 42.3968 Q839.56 30.9327 834.334 24.2892 Q829.149 17.6457 820.237 17.6457 M831.701 71.4823 L842.477 83.2704 L832.592 83.2704 L823.64 73.5887 Q822.303 73.6697 821.574 73.7103 Q820.885 73.7508 820.237 73.7508 Q807.477 73.7508 799.821 65.2439 Q792.205 56.6965 792.205 42.3968 Q792.205 28.0566 799.821 19.5497 Q807.477 11.0023 820.237 11.0023 Q832.957 11.0023 840.573 19.5497 Q848.188 28.0566 848.188 42.3968 Q848.188 52.9291 843.935 60.4233 Q839.722 67.9175 831.701 71.4823 Z" fill="#000000" fill-rule="nonzero" fill-opacity="1"></path><path clip-path="url(#clip680)" d="M863.136 65.6895 L876.504 65.6895 L876.504 19.5497 L861.962 22.4663 L861.962 15.0127 L876.423 12.096 L884.606 12.096 L884.606 65.6895 L897.974 65.6895 L897.974 72.576 L863.136 72.576 L863.136 65.6895 Z" fill="#000000" fill-rule="nonzero" fill-opacity="1"></path><path clip-path="url(#clip680)" d="M914.583 12.096 L946.706 12.096 L946.706 18.9825 L922.077 18.9825 L922.077 33.8088 Q923.859 33.2012 925.642 32.9176 Q927.424 32.5936 929.207 32.5936 Q939.334 32.5936 945.248 38.1433 Q951.162 43.6931 951.162 53.1722 Q951.162 62.9348 945.086 68.3631 Q939.01 73.7508 927.951 73.7508 Q924.143 73.7508 920.173 73.1026 Q916.244 72.4545 912.031 71.1582 L912.031 62.9348 Q915.676 64.9198 919.565 65.892 Q923.454 66.8642 927.789 66.8642 Q934.797 66.8642 938.888 63.1779 Q942.98 59.4916 942.98 53.1722 Q942.98 46.8528 938.888 43.1664 Q934.797 39.4801 927.789 39.4801 Q924.507 39.4801 921.226 40.2093 Q917.986 40.9384 914.583 42.4778 L914.583 12.096 Z" fill="#000000" fill-rule="nonzero" fill-opacity="1"></path><path clip-path="url(#clip680)" d="M968.703 65.6895 L982.071 65.6895 L982.071 19.5497 L967.528 22.4663 L967.528 15.0127 L981.99 12.096 L990.173 12.096 L990.173 65.6895 L1003.54 65.6895 L1003.54 72.576 L968.703 72.576 L968.703 65.6895 Z" fill="#000000" fill-rule="nonzero" fill-opacity="1"></path><path clip-path="url(#clip680)" d="M1027.52 43.6931 L1027.52 65.8515 L1040.65 65.8515 Q1047.25 65.8515 1050.41 63.1374 Q1053.61 60.3828 1053.61 54.752 Q1053.61 49.0808 1050.41 46.4072 Q1047.25 43.6931 1040.65 43.6931 L1027.52 43.6931 M1027.52 18.8205 L1027.52 37.0496 L1039.63 37.0496 Q1045.63 37.0496 1048.55 34.8216 Q1051.5 32.5531 1051.5 27.935 Q1051.5 23.3575 1048.55 21.089 Q1045.63 18.8205 1039.63 18.8205 L1027.52 18.8205 M1019.34 12.096 L1040.24 12.096 Q1049.6 12.096 1054.66 15.9849 Q1059.73 19.8737 1059.73 27.0438 Q1059.73 32.5936 1057.13 35.8748 Q1054.54 39.156 1049.52 39.9662 Q1055.55 41.2625 1058.88 45.3944 Q1062.24 49.4858 1062.24 55.6432 Q1062.24 63.745 1056.73 68.1605 Q1051.22 72.576 1041.05 72.576 L1019.34 72.576 L1019.34 12.096 Z" fill="#000000" fill-rule="nonzero" fill-opacity="1"></path><path clip-path="url(#clip680)" d="M1094.48 17.4837 Q1088.16 17.4837 1084.96 23.7221 Q1081.8 29.92 1081.8 42.3968 Q1081.8 54.833 1084.96 61.0714 Q1088.16 67.2693 1094.48 67.2693 Q1100.84 67.2693 1104 61.0714 Q1107.2 54.833 1107.2 42.3968 Q1107.2 29.92 1104 23.7221 Q1100.84 17.4837 1094.48 17.4837 M1094.48 11.0023 Q1104.65 11.0023 1110 19.0636 Q1115.39 27.0843 1115.39 42.3968 Q1115.39 57.6687 1110 65.73 Q1104.65 73.7508 1094.48 73.7508 Q1084.32 73.7508 1078.93 65.73 Q1073.58 57.6687 1073.58 42.3968 Q1073.58 27.0843 1078.93 19.0636 Q1084.32 11.0023 1094.48 11.0023 Z" fill="#000000" fill-rule="nonzero" fill-opacity="1"></path><path clip-path="url(#clip680)" d="M1147.27 17.4837 Q1140.95 17.4837 1137.75 23.7221 Q1134.59 29.92 1134.59 42.3968 Q1134.59 54.833 1137.75 61.0714 Q1140.95 67.2693 1147.27 67.2693 Q1153.63 67.2693 1156.79 61.0714 Q1159.99 54.833 1159.99 42.3968 Q1159.99 29.92 1156.79 23.7221 Q1153.63 17.4837 1147.27 17.4837 M1147.27 11.0023 Q1157.43 11.0023 1162.78 19.0636 Q1168.17 27.0843 1168.17 42.3968 Q1168.17 57.6687 1162.78 65.73 Q1157.43 73.7508 1147.27 73.7508 Q1137.1 73.7508 1131.71 65.73 Q1126.36 57.6687 1126.36 42.3968 Q1126.36 27.0843 1131.71 19.0636 Q1137.1 11.0023 1147.27 11.0023 Z" fill="#000000" fill-rule="nonzero" fill-opacity="1"></path><path clip-path="url(#clip680)" d="M1183.97 65.6895 L1197.34 65.6895 L1197.34 19.5497 L1182.79 22.4663 L1182.79 15.0127 L1197.25 12.096 L1205.44 12.096 L1205.44 65.6895 L1218.81 65.6895 L1218.81 72.576 L1183.97 72.576 L1183.97 65.6895 Z" fill="#000000" fill-rule="nonzero" fill-opacity="1"></path><path clip-path="url(#clip680)" d="M1260.12 39.9662 Q1266 41.222 1269.28 45.1919 Q1272.6 49.1618 1272.6 54.9951 Q1272.6 63.9476 1266.44 68.8492 Q1260.29 73.7508 1248.94 73.7508 Q1245.14 73.7508 1241.09 72.9811 Q1237.08 72.2519 1232.78 70.7531 L1232.78 62.8538 Q1236.18 64.8388 1240.23 65.8515 Q1244.29 66.8642 1248.7 66.8642 Q1256.4 66.8642 1260.41 63.826 Q1264.46 60.7879 1264.46 54.9951 Q1264.46 49.6479 1260.69 46.6502 Q1256.97 43.612 1250.28 43.612 L1243.23 43.612 L1243.23 36.8875 L1250.61 36.8875 Q1256.64 36.8875 1259.84 34.4975 Q1263.04 32.067 1263.04 27.5299 Q1263.04 22.8714 1259.72 20.4004 Q1256.44 17.8888 1250.28 17.8888 Q1246.92 17.8888 1243.07 18.618 Q1239.22 19.3471 1234.6 20.8865 L1234.6 13.5948 Q1239.26 12.2985 1243.31 11.6504 Q1247.41 11.0023 1251.01 11.0023 Q1260.33 11.0023 1265.76 15.2557 Q1271.18 19.4686 1271.18 26.6793 Q1271.18 31.7024 1268.31 35.1862 Q1265.43 38.6294 1260.12 39.9662 Z" fill="#000000" fill-rule="nonzero" fill-opacity="1"></path><path clip-path="url(#clip680)" d="M1350.01 14.0809 L1350.01 22.0612 Q1345.36 19.8332 1341.22 18.7395 Q1337.09 17.6457 1333.24 17.6457 Q1326.56 17.6457 1322.91 20.2383 Q1319.31 22.8309 1319.31 27.611 Q1319.31 31.6214 1321.7 33.6873 Q1324.13 35.7128 1330.85 36.9686 L1335.8 37.9813 Q1344.95 39.7232 1349.29 44.1387 Q1353.66 48.5136 1353.66 55.8863 Q1353.66 64.6767 1347.75 69.2137 Q1341.87 73.7508 1330.49 73.7508 Q1326.2 73.7508 1321.33 72.7785 Q1316.51 71.8063 1311.33 69.9024 L1311.33 61.4765 Q1316.31 64.2716 1321.09 65.6895 Q1325.87 67.1073 1330.49 67.1073 Q1337.5 67.1073 1341.31 64.3527 Q1345.11 61.598 1345.11 56.4939 Q1345.11 52.0379 1342.36 49.5264 Q1339.64 47.0148 1333.41 45.759 L1328.42 44.7868 Q1319.27 42.9639 1315.18 39.075 Q1311.09 35.1862 1311.09 28.2591 Q1311.09 20.2383 1316.72 15.6203 Q1322.39 11.0023 1332.31 11.0023 Q1336.57 11.0023 1340.98 11.7719 Q1345.4 12.5416 1350.01 14.0809 Z" fill="#000000" fill-rule="nonzero" fill-opacity="1"></path><path clip-path="url(#clip680)" d="M1366.1 27.2059 L1373.55 27.2059 L1373.55 72.576 L1366.1 72.576 L1366.1 27.2059 M1366.1 9.54393 L1373.55 9.54393 L1373.55 18.9825 L1366.1 18.9825 L1366.1 9.54393 Z" fill="#000000" fill-rule="nonzero" fill-opacity="1"></path><path clip-path="url(#clip680)" d="M1409.77 49.7694 Q1400.73 49.7694 1397.25 51.8354 Q1393.76 53.9013 1393.76 58.8839 Q1393.76 62.8538 1396.36 65.2034 Q1398.99 67.5124 1403.49 67.5124 Q1409.68 67.5124 1413.41 63.1374 Q1417.18 58.7219 1417.18 51.4303 L1417.18 49.7694 L1409.77 49.7694 M1424.63 46.6907 L1424.63 72.576 L1417.18 72.576 L1417.18 65.6895 Q1414.63 69.8214 1410.82 71.8063 Q1407.01 73.7508 1401.5 73.7508 Q1394.53 73.7508 1390.4 69.8619 Q1386.31 65.9325 1386.31 59.3701 Q1386.31 51.7138 1391.41 47.825 Q1396.56 43.9361 1406.73 43.9361 L1417.18 43.9361 L1417.18 43.2069 Q1417.18 38.0623 1413.78 35.2672 Q1410.41 32.4315 1404.3 32.4315 Q1400.41 32.4315 1396.72 33.3632 Q1393.04 34.295 1389.63 36.1584 L1389.63 29.2718 Q1393.72 27.692 1397.57 26.9223 Q1401.42 26.1121 1405.07 26.1121 Q1414.91 26.1121 1419.77 31.2163 Q1424.63 36.3204 1424.63 46.6907 Z" fill="#000000" fill-rule="nonzero" fill-opacity="1"></path><path clip-path="url(#clip680)" d="M1472.64 28.9478 L1472.64 35.9153 Q1469.48 34.1734 1466.28 33.3227 Q1463.12 32.4315 1459.87 32.4315 Q1452.62 32.4315 1448.61 37.0496 Q1444.6 41.6271 1444.6 49.9314 Q1444.6 58.2358 1448.61 62.8538 Q1452.62 67.4314 1459.87 67.4314 Q1463.12 67.4314 1466.28 66.5807 Q1469.48 65.6895 1472.64 63.9476 L1472.64 70.8341 Q1469.52 72.2924 1466.15 73.0216 Q1462.83 73.7508 1459.06 73.7508 Q1448.82 73.7508 1442.78 67.3098 Q1436.74 60.8689 1436.74 49.9314 Q1436.74 38.832 1442.82 32.472 Q1448.94 26.1121 1459.55 26.1121 Q1462.99 26.1121 1466.28 26.8413 Q1469.56 27.5299 1472.64 28.9478 Z" fill="#000000" fill-rule="nonzero" fill-opacity="1"></path><path clip-path="url(#clip680)" d="M1523.31 45.1919 L1523.31 72.576 L1515.86 72.576 L1515.86 45.4349 Q1515.86 38.994 1513.35 35.7938 Q1510.84 32.5936 1505.81 32.5936 Q1499.78 32.5936 1496.29 36.4419 Q1492.81 40.2903 1492.81 46.9338 L1492.81 72.576 L1485.31 72.576 L1485.31 9.54393 L1492.81 9.54393 L1492.81 34.2544 Q1495.48 30.163 1499.09 28.1376 Q1502.73 26.1121 1507.47 26.1121 Q1515.29 26.1121 1519.3 30.9732 Q1523.31 35.7938 1523.31 45.1919 Z" fill="#000000" fill-rule="nonzero" fill-opacity="1"></path><path clip-path="url(#clip680)" d="M1576.99 48.0275 L1576.99 51.6733 L1542.72 51.6733 Q1543.2 59.3701 1547.33 63.421 Q1551.51 67.4314 1558.92 67.4314 Q1563.21 67.4314 1567.22 66.3781 Q1571.27 65.3249 1575.24 63.2184 L1575.24 70.267 Q1571.23 71.9684 1567.02 72.8596 Q1562.81 73.7508 1558.47 73.7508 Q1547.62 73.7508 1541.26 67.4314 Q1534.94 61.1119 1534.94 50.3365 Q1534.94 39.1965 1540.93 32.6746 Q1546.97 26.1121 1557.18 26.1121 Q1566.33 26.1121 1571.64 32.0264 Q1576.99 37.9003 1576.99 48.0275 M1569.53 45.84 Q1569.45 39.7232 1566.09 36.0774 Q1562.77 32.4315 1557.26 32.4315 Q1551.02 32.4315 1547.25 35.9558 Q1543.53 39.4801 1542.96 45.8805 L1569.53 45.84 Z" fill="#000000" fill-rule="nonzero" fill-opacity="1"></path><path clip-path="url(#clip680)" d="M1626.93 45.1919 L1626.93 72.576 L1619.48 72.576 L1619.48 45.4349 Q1619.48 38.994 1616.97 35.7938 Q1614.46 32.5936 1609.43 32.5936 Q1603.4 32.5936 1599.91 36.4419 Q1596.43 40.2903 1596.43 46.9338 L1596.43 72.576 L1588.94 72.576 L1588.94 27.2059 L1596.43 27.2059 L1596.43 34.2544 Q1599.1 30.163 1602.71 28.1376 Q1606.36 26.1121 1611.1 26.1121 Q1618.91 26.1121 1622.92 30.9732 Q1626.93 35.7938 1626.93 45.1919 Z" fill="#000000" fill-rule="nonzero" fill-opacity="1"></path><path clip-path="url(#clip680)" d="M1709.73 63.9476 L1709.73 47.7034 L1696.37 47.7034 L1696.37 40.9789 L1717.84 40.9789 L1717.84 66.9452 Q1713.1 70.3075 1707.39 72.0494 Q1701.67 73.7508 1695.19 73.7508 Q1681.01 73.7508 1672.99 65.4869 Q1665.01 57.1826 1665.01 42.3968 Q1665.01 27.5705 1672.99 19.3066 Q1681.01 11.0023 1695.19 11.0023 Q1701.11 11.0023 1706.41 12.4606 Q1711.76 13.9189 1716.26 16.7545 L1716.26 25.464 Q1711.72 21.6156 1706.62 19.6712 Q1701.51 17.7268 1695.88 17.7268 Q1684.78 17.7268 1679.19 23.9246 Q1673.64 30.1225 1673.64 42.3968 Q1673.64 54.6305 1679.19 60.8284 Q1684.78 67.0263 1695.88 67.0263 Q1700.22 67.0263 1703.62 66.2971 Q1707.02 65.5274 1709.73 63.9476 Z" fill="#000000" fill-rule="nonzero" fill-opacity="1"></path><path clip-path="url(#clip680)" d="M1732.46 9.54393 L1739.91 9.54393 L1739.91 72.576 L1732.46 72.576 L1732.46 9.54393 Z" fill="#000000" fill-rule="nonzero" fill-opacity="1"></path><path clip-path="url(#clip680)" d="M1776.13 49.7694 Q1767.1 49.7694 1763.61 51.8354 Q1760.13 53.9013 1760.13 58.8839 Q1760.13 62.8538 1762.72 65.2034 Q1765.35 67.5124 1769.85 67.5124 Q1776.05 67.5124 1779.77 63.1374 Q1783.54 58.7219 1783.54 51.4303 L1783.54 49.7694 L1776.13 49.7694 M1791 46.6907 L1791 72.576 L1783.54 72.576 L1783.54 65.6895 Q1780.99 69.8214 1777.18 71.8063 Q1773.37 73.7508 1767.87 73.7508 Q1760.9 73.7508 1756.77 69.8619 Q1752.67 65.9325 1752.67 59.3701 Q1752.67 51.7138 1757.78 47.825 Q1762.92 43.9361 1773.09 43.9361 L1783.54 43.9361 L1783.54 43.2069 Q1783.54 38.0623 1780.14 35.2672 Q1776.78 32.4315 1770.66 32.4315 Q1766.77 32.4315 1763.09 33.3632 Q1759.4 34.295 1756 36.1584 L1756 29.2718 Q1760.09 27.692 1763.94 26.9223 Q1767.78 26.1121 1771.43 26.1121 Q1781.27 26.1121 1786.13 31.2163 Q1791 36.3204 1791 46.6907 Z" fill="#000000" fill-rule="nonzero" fill-opacity="1"></path><path clip-path="url(#clip680)" d="M1839 28.9478 L1839 35.9153 Q1835.84 34.1734 1832.64 33.3227 Q1829.48 32.4315 1826.24 32.4315 Q1818.99 32.4315 1814.98 37.0496 Q1810.97 41.6271 1810.97 49.9314 Q1810.97 58.2358 1814.98 62.8538 Q1818.99 67.4314 1826.24 67.4314 Q1829.48 67.4314 1832.64 66.5807 Q1835.84 65.6895 1839 63.9476 L1839 70.8341 Q1835.88 72.2924 1832.52 73.0216 Q1829.2 73.7508 1825.43 73.7508 Q1815.18 73.7508 1809.14 67.3098 Q1803.11 60.8689 1803.11 49.9314 Q1803.11 38.832 1809.18 32.472 Q1815.3 26.1121 1825.91 26.1121 Q1829.36 26.1121 1832.64 26.8413 Q1835.92 27.5299 1839 28.9478 Z" fill="#000000" fill-rule="nonzero" fill-opacity="1"></path><path clip-path="url(#clip680)" d="M1851.96 27.2059 L1859.42 27.2059 L1859.42 72.576 L1851.96 72.576 L1851.96 27.2059 M1851.96 9.54393 L1859.42 9.54393 L1859.42 18.9825 L1851.96 18.9825 L1851.96 9.54393 Z" fill="#000000" fill-rule="nonzero" fill-opacity="1"></path><path clip-path="url(#clip680)" d="M1913.82 48.0275 L1913.82 51.6733 L1879.55 51.6733 Q1880.03 59.3701 1884.17 63.421 Q1888.34 67.4314 1895.75 67.4314 Q1900.05 67.4314 1904.06 66.3781 Q1908.11 65.3249 1912.08 63.2184 L1912.08 70.267 Q1908.07 71.9684 1903.85 72.8596 Q1899.64 73.7508 1895.31 73.7508 Q1884.45 73.7508 1878.09 67.4314 Q1871.77 61.1119 1871.77 50.3365 Q1871.77 39.1965 1877.77 32.6746 Q1883.8 26.1121 1894.01 26.1121 Q1903.17 26.1121 1908.47 32.0264 Q1913.82 37.9003 1913.82 48.0275 M1906.37 45.84 Q1906.28 39.7232 1902.92 36.0774 Q1899.6 32.4315 1894.09 32.4315 Q1887.85 32.4315 1884.09 35.9558 Q1880.36 39.4801 1879.79 45.8805 L1906.37 45.84 Z" fill="#000000" fill-rule="nonzero" fill-opacity="1"></path><path clip-path="url(#clip680)" d="M1952.34 34.1734 Q1951.09 33.4443 1949.59 33.1202 Q1948.13 32.7556 1946.35 32.7556 Q1940.03 32.7556 1936.63 36.8875 Q1933.26 40.9789 1933.26 48.6757 L1933.26 72.576 L1925.77 72.576 L1925.77 27.2059 L1933.26 27.2059 L1933.26 34.2544 Q1935.61 30.1225 1939.38 28.1376 Q1943.15 26.1121 1948.54 26.1121 Q1949.31 26.1121 1950.24 26.2337 Q1951.17 26.3147 1952.3 26.5172 L1952.34 34.1734 Z" fill="#000000" fill-rule="nonzero" fill-opacity="1"></path><polyline clip-path="url(#clip682)" style="stroke:#a52a2a; stroke-linecap:round; stroke-linejoin:round; stroke-width:4; stroke-opacity:1; fill:none" points="324.52,173.626 333.808,236.782 343.097,304.508 352.385,381.702 361.674,463.517 370.962,524.966 380.251,557.894 389.539,587.997 398.828,618.529 408.116,637.916 417.405,659.304 426.693,679.31 435.982,700.115 445.27,726.227 454.559,754.731 463.847,774.644 473.136,790.297 482.424,806.386 491.713,825.447 501.001,844.668 510.29,864.194 519.578,882.551 528.867,901.181 538.155,917.586 547.444,932.085 556.732,945.263 566.021,952.468 575.309,958.264 584.598,967.077 593.886,976.701 603.174,998.089 612.463,1023.83 621.751,1032.14 631.04,1038.59 640.328,1042.89 649.617,1046.73 658.905,1050.15 668.194,1055.84 677.482,1065.79 686.771,1069.83 696.059,1073.92 705.348,1077.89 714.636,1081.47 723.925,1085.07 733.213,1088.82 742.502,1093.66 751.79,1098.7 761.079,1103.97 770.367,1102.94 779.656,1104.31 788.944,1108.1 798.233,1113.76 807.521,1119.86 816.81,1126.45 826.098,1132.36 835.387,1138.58 844.675,1145.34 853.964,1151.54 863.252,1156.82 872.541,1162.32 881.829,1167.57 891.118,1171.18 900.406,1174.8 909.695,1171.03 918.983,1164.76 928.272,1169.03 937.56,1175.63 946.849,1180.94 956.137,1196.72 965.426,1198.56 974.714,1200.1 984.003,1201.64 993.291,1203.16 1002.58,1205.97 1011.87,1208.83 1021.16,1211.7 1030.45,1214.58 1039.73,1215.51 1049.02,1216.43 1058.31,1217.35 1067.6,1218.91 1076.89,1222.76 1086.18,1226.68 1095.46,1230.66 1104.75,1231.32 1114.04,1230.8 1123.33,1230.51 1132.62,1234.52 1141.91,1240.8 1151.2,1247.62 1160.48,1248.94 1169.77,1243.7 1179.06,1239.87 1188.35,1237.97 1197.64,1241.48 1206.93,1245.03 1216.22,1240.05 1225.5,1235.53 1234.79,1227.94 1244.08,1218.41 1253.37,1215.5 1262.66,1221.99 1271.95,1249.42 1281.23,1281.71 1290.52,1289.58 1299.81,1289.75 1309.1,1287.9 1318.39,1291.31 1327.68,1297.41 1336.97,1300.06 1346.25,1290.76 1355.54,1283.94 1364.83,1290.9 1374.12,1308.39 1383.41,1337.01 1392.7,1346.93 1401.99,1351.21 1411.27,1350.03 1420.56,1346.66 1429.85,1342.92 1439.14,1338.31 1448.43,1338.34 1457.72,1340.83 1467,1344.01 1476.29,1344.66 1485.58,1350.82 1494.87,1359.61 1504.16,1356.58 1513.45,1325.64 1522.74,1310.53 1532.02,1325.01 1541.31,1347.32 1550.6,1354.63 1559.89,1360.45 1569.18,1360.47 1578.47,1359.52 1587.76,1361.04 1597.04,1366.5 1606.33,1380.83 1615.62,1378.47 1624.91,1365.59 1634.2,1364.31 1643.49,1368.93 1652.77,1377.27 1662.06,1388.53 1671.35,1394.21 1680.64,1381.66 1689.93,1375.55 1699.22,1368.99 1708.51,1363.81 1717.79,1367.14 1727.08,1371.41 1736.37,1375.63 1745.66,1378.4 1754.95,1380.45 1764.24,1382.11 1773.53,1383.44 1782.81,1384.71 1792.1,1386.32 1801.39,1388.22 1810.68,1389.94 1819.97,1391.31 1829.26,1392.56 1838.54,1393.81 1847.83,1395.1 1857.12,1396.3 1866.41,1397.44 1875.7,1398.61 1884.99,1399.87 1894.28,1401.21 1903.56,1402.48 1912.85,1403.56 1922.14,1404.54 1931.43,1405.62 1940.72,1406.92 1950.01,1408.13 1959.3,1408.84 1968.58,1409.29 1977.87,1409.61 1987.16,1409.75 1996.45,1410.31 2005.74,1410.78 2015.03,1411.48 2024.31,1414.35 2033.6,1418.32 2042.89,1421.01 2052.18,1422.33 2061.47,1422.25 2070.76,1419.15 2080.05,1416.09 2089.33,1419.67 2098.62,1425.84 2107.91,1429.14 2117.2,1430.42 2126.49,1431.38 2135.78,1432.39 2145.07,1433.44 2154.35,1434.47 2163.64,1435.51 2172.93,1436.53 2182.22,1437.57 2191.51,1438.59 2200.8,1439.55 2210.08,1440.45 2219.37,1441.28 2228.66,1442.12 2237.95,1443.11 2247.24,1444.17 2256.53,1444.98 2265.82,1445.63 2275.1,1446.37 2284.39,1447.21 2293.68,1447.87 "></polyline>
<polyline clip-path="url(#clip682)" style="stroke:#0000ff; stroke-linecap:round; stroke-linejoin:round; stroke-width:4; stroke-opacity:1; fill:none" points="324.52,173.626 333.808,217.91 343.097,304.508 352.385,366.015 361.674,453.4 370.962,503.136 380.251,531.969 389.539,561.801 398.828,584.697 408.116,604.82 417.405,625.676 426.693,646.534 435.982,669.404 445.27,694.394 454.559,714.236 463.847,730.388 473.136,745.962 482.424,761.861 491.713,777.516 501.001,791.454 510.29,803.401 519.578,813.664 528.867,822.408 538.155,829.88 547.444,836.438 556.732,842.411 566.021,848.125 575.309,853.876 584.598,859.619 593.886,865.297 603.174,870.285 612.463,874.082 621.751,877.501 631.04,880.961 640.328,884.358 649.617,887.749 658.905,891.137 668.194,894.505 677.482,897.677 686.771,900.733 696.059,903.817 705.348,906.893 714.636,909.97 723.925,913.045 733.213,916.121 742.502,919.197 751.79,922.281 761.079,925.359 770.367,928.473 779.656,931.638 788.944,934.739 798.233,937.795 807.521,940.864 816.81,943.928 826.098,946.992 835.387,950.059 844.675,953.125 853.964,956.188 863.252,959.245 872.541,962.3 881.829,965.35 891.118,968.393 900.406,971.422 909.695,974.517 918.983,977.88 928.272,981.353 937.56,984.689 946.849,988.028 956.137,991.154 965.426,994.107 974.714,997.126 984.003,1000.16 993.291,1003.21 1002.58,1006.28 1011.87,1009.36 1021.16,1012.46 1030.45,1015.56 1039.73,1018.69 1049.02,1021.84 1058.31,1025.02 1067.6,1028.22 1076.89,1031.44 1086.18,1034.66 1095.46,1037.87 1104.75,1041.1 1114.04,1044.34 1123.33,1047.6 1132.62,1050.88 1141.91,1054.15 1151.2,1057.4 1160.48,1060.64 1169.77,1063.93 1179.06,1067.26 1188.35,1070.63 1197.64,1074.02 1206.93,1077.38 1216.22,1080.87 1225.5,1084.67 1234.79,1088.76 1244.08,1093.47 1253.37,1098.76 1262.66,1104.44 1271.95,1109.64 1281.23,1113.44 1290.52,1116.8 1299.81,1120.42 1309.1,1124.31 1318.39,1128.32 1327.68,1132.3 1336.97,1136.32 1346.25,1140.76 1355.54,1145.82 1364.83,1150.88 1374.12,1155.54 1383.41,1159.28 1392.7,1162.48 1401.99,1165.66 1411.27,1168.87 1420.56,1172.2 1429.85,1175.67 1439.14,1179.36 1448.43,1183.23 1457.72,1187.12 1467,1190.97 1476.29,1194.85 1485.58,1198.82 1494.87,1202.8 1504.16,1206.76 1513.45,1211.45 1522.74,1218.6 1532.02,1227.29 1541.31,1234.48 1550.6,1240.85 1559.89,1247.02 1569.18,1253.09 1578.47,1259.52 1587.76,1266.18 1597.04,1272.53 1606.33,1277.82 1615.62,1283.01 1624.91,1289.84 1634.2,1298.71 1643.49,1308.72 1652.77,1319.18 1662.06,1329.29 1671.35,1339 1680.64,1350.46 1689.93,1373.48 1699.22,1368.99 1708.51,1363.81 1717.79,1367.14 1727.08,1371.41 1736.37,1375.63 1745.66,1378.4 1754.95,1380.45 1764.24,1382.11 1773.53,1383.44 1782.81,1384.71 1792.1,1386.32 1801.39,1388.22 1810.68,1389.94 1819.97,1391.31 1829.26,1392.56 1838.54,1393.81 1847.83,1395.1 1857.12,1396.3 1866.41,1397.44 1875.7,1398.61 1884.99,1399.87 1894.28,1401.21 1903.56,1402.48 1912.85,1403.56 1922.14,1404.54 1931.43,1405.62 1940.72,1406.92 1950.01,1408.13 1959.3,1408.84 1968.58,1409.29 1977.87,1409.61 1987.16,1409.75 1996.45,1410.31 2005.74,1410.78 2015.03,1411.48 2024.31,1414.35 2033.6,1418.32 2042.89,1421.01 2052.18,1422.33 2061.47,1422.25 2070.76,1419.15 2080.05,1416.09 2089.33,1419.67 2098.62,1425.84 2107.91,1429.14 2117.2,1430.42 2126.49,1431.38 2135.78,1432.39 2145.07,1433.44 2154.35,1434.47 2163.64,1435.51 2172.93,1436.53 2182.22,1437.57 2191.51,1438.59 2200.8,1439.55 2210.08,1440.45 2219.37,1441.28 2228.66,1442.12 2237.95,1443.11 2247.24,1444.17 2256.53,1444.98 2265.82,1445.63 2275.1,1446.37 2284.39,1447.21 2293.68,1447.87 "></polyline>
<polyline clip-path="url(#clip682)" style="stroke:#ff0000; stroke-linecap:round; stroke-linejoin:round; stroke-width:4; stroke-opacity:1; fill:none" points="324.52,173.626 333.808,214.782 343.097,304.508 352.385,363.206 361.674,451.416 370.962,498.198 380.251,526.902 389.539,555.657 398.828,577.982 408.116,598.184 417.405,619.014 426.693,639.895 435.982,662.633 445.27,686.042 454.559,704.599 463.847,720.203 473.136,735.133 482.424,749.927 491.713,764.11 501.001,776.645 510.29,787.538 519.578,797.136 528.867,805.578 538.155,813.031 547.444,819.729 556.732,825.964 566.021,832.003 575.309,838.086 584.598,844.2 593.886,850.292 603.174,855.761 612.463,860.065 621.751,863.999 631.04,868 640.328,871.947 649.617,875.9 658.905,879.862 668.194,883.812 677.482,887.558 686.771,891.18 696.059,894.846 705.348,898.512 714.636,902.188 723.925,905.872 733.213,909.564 742.502,913.268 751.79,916.992 761.079,920.721 770.367,924.503 779.656,928.351 788.944,932.129 798.233,935.861 807.521,939.617 816.81,943.378 826.098,947.15 835.387,950.934 844.675,954.729 853.964,958.53 863.252,962.338 872.541,966.153 881.829,969.969 891.118,973.798 900.406,977.613 909.695,981.529 918.983,985.817 928.272,990.276 937.56,994.575 946.849,998.9 956.137,1002.95 965.426,1006.77 974.714,1010.7 984.003,1014.66 993.291,1018.68 1002.58,1022.73 1011.87,1026.81 1021.16,1030.93 1030.45,1035.08 1039.73,1039.28 1049.02,1043.54 1058.31,1047.87 1067.6,1052.27 1076.89,1056.71 1086.18,1061.16 1095.46,1065.64 1104.75,1070.15 1114.04,1074.73 1123.33,1079.39 1132.62,1084.11 1141.91,1088.82 1151.2,1093.5 1160.48,1098.18 1169.77,1102.98 1179.06,1107.97 1188.35,1113.1 1197.64,1118.33 1206.93,1123.46 1216.22,1128.85 1225.5,1134.92 1234.79,1141.76 1244.08,1150.47 1253.37,1162 1262.66,1177.64 1271.95,1193.21 1281.23,1200.91 1290.52,1206.5 1299.81,1212.57 1309.1,1219.33 1318.39,1226.59 1327.68,1233.5 1336.97,1240.09 1346.25,1247.72 1355.54,1259.13 1364.83,1274.25 1374.12,1287.74 1383.41,1294.13 1392.7,1298.47 1401.99,1302.72 1411.27,1307.08 1420.56,1312 1429.85,1317.58 1439.14,1324.1 1448.43,1331.64 1457.72,1339.1 1467,1344.01 1476.29,1344.66 1485.58,1350.82 1494.87,1359.61 1504.16,1356.58 1513.45,1325.64 1522.74,1310.53 1532.02,1325.01 1541.31,1347.32 1550.6,1354.63 1559.89,1360.45 1569.18,1360.47 1578.47,1359.52 1587.76,1361.04 1597.04,1366.5 1606.33,1380.83 1615.62,1378.47 1624.91,1365.59 1634.2,1364.31 1643.49,1368.93 1652.77,1377.27 1662.06,1388.53 1671.35,1394.21 1680.64,1381.66 1689.93,1375.55 1699.22,1368.99 1708.51,1363.81 1717.79,1367.14 1727.08,1371.41 1736.37,1375.63 1745.66,1378.4 1754.95,1380.45 1764.24,1382.11 1773.53,1383.44 1782.81,1384.71 1792.1,1386.32 1801.39,1388.22 1810.68,1389.94 1819.97,1391.31 1829.26,1392.56 1838.54,1393.81 1847.83,1395.1 1857.12,1396.3 1866.41,1397.44 1875.7,1398.61 1884.99,1399.87 1894.28,1401.21 1903.56,1402.48 1912.85,1403.56 1922.14,1404.54 1931.43,1405.62 1940.72,1406.92 1950.01,1408.13 1959.3,1408.84 1968.58,1409.29 1977.87,1409.61 1987.16,1409.75 1996.45,1410.31 2005.74,1410.78 2015.03,1411.48 2024.31,1414.35 2033.6,1418.32 2042.89,1421.01 2052.18,1422.33 2061.47,1422.25 2070.76,1419.15 2080.05,1416.09 2089.33,1419.67 2098.62,1425.84 2107.91,1429.14 2117.2,1430.42 2126.49,1431.38 2135.78,1432.39 2145.07,1433.44 2154.35,1434.47 2163.64,1435.51 2172.93,1436.53 2182.22,1437.57 2191.51,1438.59 2200.8,1439.55 2210.08,1440.45 2219.37,1441.28 2228.66,1442.12 2237.95,1443.11 2247.24,1444.17 2256.53,1444.98 2265.82,1445.63 2275.1,1446.37 2284.39,1447.21 2293.68,1447.87 "></polyline>
<polyline clip-path="url(#clip682)" style="stroke:#008000; stroke-linecap:round; stroke-linejoin:round; stroke-width:4; stroke-opacity:1; fill:none" points="324.52,162.047 333.808,224.797 343.097,293.377 352.385,370.763 361.674,451.355 370.962,506.191 380.251,533.106 389.539,562.51 398.828,586.642 408.116,605.256 417.405,626.695 426.693,647.211 435.982,669.585 445.27,694.644 454.559,715.284 463.847,730.65 473.136,746.53 482.424,762.097 491.713,778.14 501.001,792.117 510.29,804.221 519.578,814.6 528.867,823.527 538.155,831.087 547.444,837.788 556.732,843.853 566.021,849.698 575.309,855.592 584.598,861.615 593.886,867.398 603.174,872.956 612.463,876.61 621.751,880.264 631.04,883.861 640.328,887.428 649.617,890.996 658.905,894.57 668.194,898.145 677.482,901.554 686.771,904.586 696.059,907.618 705.348,910.644 714.636,913.656 723.925,916.667 733.213,919.656 742.502,922.491 751.79,925.326 761.079,928.162 770.367,931.506 779.656,934.853 788.944,938.2 798.233,941.123 807.521,944.04 816.81,946.957 826.098,949.743 835.387,952.516 844.675,955.29 853.964,958.136 863.252,961.056 872.541,963.977 881.829,966.916 891.118,969.916 900.406,972.916 909.695,976.115 918.983,979.847 928.272,983.579 937.56,987.193 946.849,990.773 956.137,994.353 965.426,996.669 974.714,998.867 984.003,1001.06 993.291,1003.26 1002.58,1005.73 1011.87,1008.2 1021.16,1010.67 1030.45,1013.14 1039.73,1015.44 1049.02,1017.75 1058.31,1020.05 1067.6,1022.47 1076.89,1025.35 1086.18,1028.23 1095.46,1031.1 1104.75,1034.06 1114.04,1037.06 1123.33,1040.06 1132.62,1043.04 1141.91,1046.02 1151.2,1048.99 1160.48,1051.9 1169.77,1054.72 1179.06,1057.54 1188.35,1060.41 1197.64,1063.54 1206.93,1066.68 1216.22,1069.99 1225.5,1073.72 1234.79,1077.46 1244.08,1081.96 1253.37,1086.82 1262.66,1091.9 1271.95,1097.01 1281.23,1100.39 1290.52,1103.73 1299.81,1107.24 1309.1,1111.14 1318.39,1115.05 1327.68,1118.99 1336.97,1122.96 1346.25,1127.36 1355.54,1132.37 1364.83,1137.16 1374.12,1141.66 1383.41,1145.53 1392.7,1148.52 1401.99,1151.51 1411.27,1154.76 1420.56,1158.23 1429.85,1161.69 1439.14,1165.43 1448.43,1169.3 1457.72,1173.17 1467,1177.01 1476.29,1180.86 1485.58,1184.86 1494.87,1188.89 1504.16,1193.1 1513.45,1197.54 1522.74,1204.42 1532.02,1212.66 1541.31,1219.26 1550.6,1225.51 1559.89,1231.5 1569.18,1237.21 1578.47,1243.37 1587.76,1249.49 1597.04,1255.46 1606.33,1260.47 1615.62,1265.15 1624.91,1271.9 1634.2,1279.68 1643.49,1288.39 1652.77,1297.24 1662.06,1305.81 1671.35,1314.2 1680.64,1323.59 1689.93,1334.35 1699.22,1344.91 1708.51,1357.65 1717.79,1367.14 1727.08,1371.41 1736.37,1375.63 1745.66,1378.4 1754.95,1380.45 1764.24,1382.11 1773.53,1383.44 1782.81,1384.71 1792.1,1386.32 1801.39,1388.22 1810.68,1389.94 1819.97,1391.31 1829.26,1392.56 1838.54,1393.81 1847.83,1395.1 1857.12,1396.3 1866.41,1397.44 1875.7,1398.61 1884.99,1399.87 1894.28,1401.21 1903.56,1402.48 1912.85,1403.56 1922.14,1404.54 1931.43,1405.62 1940.72,1406.92 1950.01,1408.13 1959.3,1408.84 1968.58,1409.29 1977.87,1409.61 1987.16,1409.75 1996.45,1410.31 2005.74,1410.78 2015.03,1411.48 2024.31,1414.35 2033.6,1418.32 2042.89,1421.01 2052.18,1422.33 2061.47,1422.25 2070.76,1419.15 2080.05,1416.09 2089.33,1419.67 2098.62,1425.84 2107.91,1429.14 2117.2,1430.42 2126.49,1431.38 2135.78,1432.39 2145.07,1433.44 2154.35,1434.47 2163.64,1435.51 2172.93,1436.53 2182.22,1437.57 2191.51,1438.59 2200.8,1439.55 2210.08,1440.45 2219.37,1441.28 2228.66,1442.12 2237.95,1443.11 2247.24,1444.17 2256.53,1444.98 2265.82,1445.63 2275.1,1446.37 2284.39,1447.21 2293.68,1447.87 "></polyline>
<polyline clip-path="url(#clip682)" style="stroke:#000000; stroke-linecap:round; stroke-linejoin:round; stroke-width:4; stroke-opacity:1; fill:none" stroke-dasharray="16, 10" points="324.52,163.174 333.808,226.704 343.097,295.103 352.385,371.646 361.674,454.141 370.962,503.72 380.251,534.886 389.539,563.149 398.828,586.235 408.116,606.502 417.405,627.058 426.693,648.067 435.982,671.345 445.27,695.308 454.559,715.054 463.847,731.572 473.136,747.364 482.424,763.378 491.713,779.022 501.001,793.1 510.29,805.244 519.578,815.658 528.867,824.529 538.155,832.13 547.444,838.805 556.732,844.89 566.021,850.721 575.309,856.544 584.598,862.362 593.886,868.014 603.174,872.957 612.463,876.906 621.751,880.424 631.04,883.902 640.328,887.346 649.617,890.777 658.905,894.205 668.194,897.587 677.482,900.814 686.771,903.936 696.059,907.059 705.348,910.182 714.636,913.307 723.925,916.434 733.213,919.562 742.502,922.694 751.79,925.836 761.079,928.988 770.367,932.182 779.656,935.417 788.944,938.626 798.233,941.821 807.521,945.043 816.81,948.285 826.098,951.534 835.387,954.77 844.675,957.968 853.964,961.092 863.252,964.113 872.541,967.001 881.829,969.764 891.118,972.453 900.406,975.15 909.695,978.003 918.983,981.156 928.272,984.48 937.56,987.777 946.849,991.01 956.137,994.04 965.426,996.89 974.714,999.731 984.003,1002.58 993.291,1005.52 1002.58,1008.49 1011.87,1011.62 1021.16,1014.59 1030.45,1017.59 1039.73,1020.45 1049.02,1023.14 1058.31,1026 1067.6,1028.48 1076.89,1031.28 1086.18,1035.76 1095.46,1038.74 1104.75,1041.7 1114.04,1044.66 1123.33,1047.62 1132.62,1050.59 1141.91,1053.58 1151.2,1056.61 1160.48,1059.67 1169.77,1062.78 1179.06,1065.95 1188.35,1069.2 1197.64,1072.52 1206.93,1075.88 1216.22,1079.41 1225.5,1083.22 1234.79,1087.38 1244.08,1092.07 1253.37,1097.28 1262.66,1102.7 1271.95,1107.62 1281.23,1111.53 1290.52,1115.02 1299.81,1118.69 1309.1,1122.62 1318.39,1126.67 1327.68,1130.75 1336.97,1134.95 1346.25,1139.58 1355.54,1144.62 1364.83,1149.67 1374.12,1154.29 1383.41,1158.19 1392.7,1161.63 1401.99,1164.98 1411.27,1168.38 1420.56,1171.9 1429.85,1175.54 1439.14,1179.38 1448.43,1183.37 1457.72,1187.4 1467,1191.4 1476.29,1195.44 1485.58,1199.56 1494.87,1203.76 1504.16,1208.14 1513.45,1213.34 1522.74,1220.6 1532.02,1229.12 1541.31,1236.84 1550.6,1243.84 1559.89,1250.54 1569.18,1257.22 1578.47,1264.21 1587.76,1271.42 1597.04,1278.29 1606.33,1284.28 1615.62,1290.3 1624.91,1298.16 1634.2,1308.54 1643.49,1321.09 1652.77,1335.28 1662.06,1349.87 1671.35,1365.18 1680.64,1381.66 1689.93,1375.55 1699.22,1368.99 1708.51,1363.81 1717.79,1367.14 1727.08,1371.41 1736.37,1375.63 1745.66,1378.4 1754.95,1380.45 1764.24,1382.11 1773.53,1383.44 1782.81,1384.71 1792.1,1386.32 1801.39,1388.22 1810.68,1389.94 1819.97,1391.31 1829.26,1392.56 1838.54,1393.81 1847.83,1395.1 1857.12,1396.3 1866.41,1397.44 1875.7,1398.61 1884.99,1399.87 1894.28,1401.21 1903.56,1402.48 1912.85,1403.56 1922.14,1404.54 1931.43,1405.62 1940.72,1406.92 1950.01,1408.13 1959.3,1408.84 1968.58,1409.29 1977.87,1409.61 1987.16,1409.75 1996.45,1410.31 2005.74,1410.78 2015.03,1411.48 2024.31,1414.35 2033.6,1418.32 2042.89,1421.01 2052.18,1422.33 2061.47,1422.25 2070.76,1419.15 2080.05,1416.09 2089.33,1419.67 2098.62,1425.84 2107.91,1429.14 2117.2,1430.42 2126.49,1431.38 2135.78,1432.39 2145.07,1433.44 2154.35,1434.47 2163.64,1435.51 2172.93,1436.53 2182.22,1437.57 2191.51,1438.59 2200.8,1439.55 2210.08,1440.45 2219.37,1441.28 2228.66,1442.12 2237.95,1443.11 2247.24,1444.17 2256.53,1444.98 2265.82,1445.63 2275.1,1446.37 2284.39,1447.21 2293.68,1447.87 "></polyline>
<path clip-path="url(#clip680)" d="M1729.73 479.945 L2283.18 479.945 L2283.18 168.905 L1729.73 168.905  Z" fill="#ffffff" fill-rule="evenodd" fill-opacity="1"></path>
<polyline clip-path="url(#clip680)" style="stroke:#000000; stroke-linecap:round; stroke-linejoin:round; stroke-width:4; stroke-opacity:1; fill:none" points="1729.73,479.945 2283.18,479.945 2283.18,168.905 1729.73,168.905 1729.73,479.945 "></polyline>
<polyline clip-path="url(#clip680)" style="stroke:#a52a2a; stroke-linecap:round; stroke-linejoin:round; stroke-width:4; stroke-opacity:1; fill:none" points="1752.92,220.745 1892.07,220.745 "></polyline>
<path clip-path="url(#clip680)" d="M1934.04 225.085 Q1934.04 220.386 1932.09 217.724 Q1930.17 215.039 1926.79 215.039 Q1923.41 215.039 1921.47 217.724 Q1919.55 220.386 1919.55 225.085 Q1919.55 229.784 1921.47 232.469 Q1923.41 235.131 1926.79 235.131 Q1930.17 235.131 1932.09 232.469 Q1934.04 229.784 1934.04 225.085 M1919.55 216.034 Q1920.89 213.719 1922.93 212.608 Q1924.99 211.474 1927.84 211.474 Q1932.56 211.474 1935.5 215.224 Q1938.46 218.974 1938.46 225.085 Q1938.46 231.196 1935.5 234.946 Q1932.56 238.696 1927.84 238.696 Q1924.99 238.696 1922.93 237.585 Q1920.89 236.451 1919.55 234.136 L1919.55 238.025 L1915.27 238.025 L1915.27 202.006 L1919.55 202.006 L1919.55 216.034 Z" fill="#000000" fill-rule="nonzero" fill-opacity="1"></path><path clip-path="url(#clip680)" d="M1967.7 223.997 L1967.7 226.08 L1948.11 226.08 Q1948.39 230.478 1950.75 232.793 Q1953.14 235.085 1957.37 235.085 Q1959.83 235.085 1962.12 234.483 Q1964.43 233.881 1966.7 232.677 L1966.7 236.705 Q1964.41 237.677 1962 238.187 Q1959.59 238.696 1957.12 238.696 Q1950.91 238.696 1947.28 235.085 Q1943.67 231.474 1943.67 225.316 Q1943.67 218.951 1947.09 215.224 Q1950.54 211.474 1956.38 211.474 Q1961.61 211.474 1964.64 214.853 Q1967.7 218.21 1967.7 223.997 M1963.44 222.747 Q1963.39 219.252 1961.47 217.168 Q1959.57 215.085 1956.42 215.085 Q1952.86 215.085 1950.71 217.099 Q1948.58 219.113 1948.25 222.77 L1963.44 222.747 Z" fill="#000000" fill-rule="nonzero" fill-opacity="1"></path><path clip-path="url(#clip680)" d="M1991.75 216.034 L1991.75 202.006 L1996.01 202.006 L1996.01 238.025 L1991.75 238.025 L1991.75 234.136 Q1990.4 236.451 1988.34 237.585 Q1986.31 238.696 1983.44 238.696 Q1978.74 238.696 1975.78 234.946 Q1972.84 231.196 1972.84 225.085 Q1972.84 218.974 1975.78 215.224 Q1978.74 211.474 1983.44 211.474 Q1986.31 211.474 1988.34 212.608 Q1990.4 213.719 1991.75 216.034 M1977.23 225.085 Q1977.23 229.784 1979.15 232.469 Q1981.1 235.131 1984.48 235.131 Q1987.86 235.131 1989.8 232.469 Q1991.75 229.784 1991.75 225.085 Q1991.75 220.386 1989.8 217.724 Q1987.86 215.039 1984.48 215.039 Q1981.1 215.039 1979.15 217.724 Q1977.23 220.386 1977.23 225.085 Z" fill="#000000" fill-rule="nonzero" fill-opacity="1"></path><polyline clip-path="url(#clip680)" style="stroke:#0000ff; stroke-linecap:round; stroke-linejoin:round; stroke-width:4; stroke-opacity:1; fill:none" points="1752.92,272.585 1892.07,272.585 "></polyline>
<path clip-path="url(#clip680)" d="M1933.69 264.703 L1933.69 268.731 Q1931.89 267.805 1929.94 267.342 Q1928 266.879 1925.91 266.879 Q1922.74 266.879 1921.15 267.851 Q1919.57 268.823 1919.57 270.768 Q1919.57 272.249 1920.71 273.105 Q1921.84 273.939 1925.27 274.703 L1926.72 275.027 Q1931.26 275.999 1933.16 277.781 Q1935.08 279.541 1935.08 282.712 Q1935.08 286.323 1932.21 288.429 Q1929.36 290.536 1924.36 290.536 Q1922.28 290.536 1920.01 290.119 Q1917.77 289.726 1915.27 288.916 L1915.27 284.517 Q1917.63 285.744 1919.92 286.369 Q1922.21 286.971 1924.46 286.971 Q1927.47 286.971 1929.09 285.953 Q1930.71 284.911 1930.71 283.036 Q1930.71 281.3 1929.53 280.374 Q1928.37 279.448 1924.41 278.592 L1922.93 278.244 Q1918.97 277.411 1917.21 275.698 Q1915.45 273.962 1915.45 270.953 Q1915.45 267.295 1918.04 265.305 Q1920.64 263.314 1925.4 263.314 Q1927.77 263.314 1929.85 263.661 Q1931.93 264.008 1933.69 264.703 Z" fill="#000000" fill-rule="nonzero" fill-opacity="1"></path><path clip-path="url(#clip680)" d="M1941.42 279.633 L1941.42 263.939 L1945.68 263.939 L1945.68 279.471 Q1945.68 283.152 1947.12 285.004 Q1948.55 286.832 1951.42 286.832 Q1954.87 286.832 1956.86 284.633 Q1958.88 282.434 1958.88 278.638 L1958.88 263.939 L1963.14 263.939 L1963.14 289.865 L1958.88 289.865 L1958.88 285.883 Q1957.33 288.244 1955.27 289.402 Q1953.23 290.536 1950.52 290.536 Q1946.05 290.536 1943.74 287.758 Q1941.42 284.98 1941.42 279.633 M1952.14 263.314 L1952.14 263.314 Z" fill="#000000" fill-rule="nonzero" fill-opacity="1"></path><path clip-path="url(#clip680)" d="M1986.93 267.92 Q1986.21 267.504 1985.36 267.318 Q1984.53 267.11 1983.51 267.11 Q1979.9 267.11 1977.95 269.471 Q1976.03 271.809 1976.03 276.207 L1976.03 289.865 L1971.75 289.865 L1971.75 263.939 L1976.03 263.939 L1976.03 267.967 Q1977.37 265.606 1979.53 264.471 Q1981.68 263.314 1984.76 263.314 Q1985.2 263.314 1985.73 263.383 Q1986.26 263.43 1986.91 263.545 L1986.93 267.92 Z" fill="#000000" fill-rule="nonzero" fill-opacity="1"></path><path clip-path="url(#clip680)" d="M2004.52 253.846 L2004.52 257.388 L2000.45 257.388 Q1998.16 257.388 1997.26 258.314 Q1996.38 259.24 1996.38 261.647 L1996.38 263.939 L2003.39 263.939 L2003.39 267.249 L1996.38 267.249 L1996.38 289.865 L1992.09 289.865 L1992.09 267.249 L1988.02 267.249 L1988.02 263.939 L1992.09 263.939 L1992.09 262.133 Q1992.09 257.805 1994.11 255.837 Q1996.12 253.846 2000.5 253.846 L2004.52 253.846 Z" fill="#000000" fill-rule="nonzero" fill-opacity="1"></path><path clip-path="url(#clip680)" d="M2019.87 276.832 Q2014.71 276.832 2012.72 278.013 Q2010.73 279.193 2010.73 282.041 Q2010.73 284.309 2012.21 285.652 Q2013.71 286.971 2016.28 286.971 Q2019.83 286.971 2021.96 284.471 Q2024.11 281.948 2024.11 277.781 L2024.11 276.832 L2019.87 276.832 M2028.37 275.073 L2028.37 289.865 L2024.11 289.865 L2024.11 285.929 Q2022.65 288.291 2020.47 289.425 Q2018.3 290.536 2015.15 290.536 Q2011.17 290.536 2008.81 288.314 Q2006.47 286.068 2006.47 282.318 Q2006.47 277.943 2009.39 275.721 Q2012.33 273.499 2018.14 273.499 L2024.11 273.499 L2024.11 273.082 Q2024.11 270.143 2022.16 268.545 Q2020.24 266.925 2016.75 266.925 Q2014.52 266.925 2012.42 267.457 Q2010.31 267.99 2008.37 269.055 L2008.37 265.119 Q2010.71 264.217 2012.9 263.777 Q2015.1 263.314 2017.19 263.314 Q2022.81 263.314 2025.59 266.231 Q2028.37 269.147 2028.37 275.073 Z" fill="#000000" fill-rule="nonzero" fill-opacity="1"></path><path clip-path="url(#clip680)" d="M2055.8 264.934 L2055.8 268.916 Q2053.99 267.92 2052.16 267.434 Q2050.36 266.925 2048.51 266.925 Q2044.36 266.925 2042.07 269.564 Q2039.78 272.18 2039.78 276.925 Q2039.78 281.67 2042.07 284.309 Q2044.36 286.925 2048.51 286.925 Q2050.36 286.925 2052.16 286.439 Q2053.99 285.929 2055.8 284.934 L2055.8 288.869 Q2054.02 289.703 2052.09 290.119 Q2050.2 290.536 2048.04 290.536 Q2042.19 290.536 2038.74 286.855 Q2035.29 283.175 2035.29 276.925 Q2035.29 270.582 2038.76 266.948 Q2042.26 263.314 2048.32 263.314 Q2050.29 263.314 2052.16 263.731 Q2054.04 264.124 2055.8 264.934 Z" fill="#000000" fill-rule="nonzero" fill-opacity="1"></path><path clip-path="url(#clip680)" d="M2085.38 275.837 L2085.38 277.92 L2065.8 277.92 Q2066.08 282.318 2068.44 284.633 Q2070.82 286.925 2075.06 286.925 Q2077.51 286.925 2079.8 286.323 Q2082.12 285.721 2084.39 284.517 L2084.39 288.545 Q2082.09 289.517 2079.69 290.027 Q2077.28 290.536 2074.8 290.536 Q2068.6 290.536 2064.96 286.925 Q2061.35 283.314 2061.35 277.156 Q2061.35 270.791 2064.78 267.064 Q2068.23 263.314 2074.06 263.314 Q2079.29 263.314 2082.33 266.693 Q2085.38 270.05 2085.38 275.837 M2081.12 274.587 Q2081.08 271.092 2079.15 269.008 Q2077.26 266.925 2074.11 266.925 Q2070.54 266.925 2068.39 268.939 Q2066.26 270.953 2065.94 274.61 L2081.12 274.587 Z" fill="#000000" fill-rule="nonzero" fill-opacity="1"></path><path clip-path="url(#clip680)" d="M2123.97 264.703 L2123.97 268.731 Q2122.16 267.805 2120.22 267.342 Q2118.27 266.879 2116.19 266.879 Q2113.02 266.879 2111.42 267.851 Q2109.85 268.823 2109.85 270.768 Q2109.85 272.249 2110.98 273.105 Q2112.12 273.939 2115.54 274.703 L2117 275.027 Q2121.54 275.999 2123.44 277.781 Q2125.36 279.541 2125.36 282.712 Q2125.36 286.323 2122.49 288.429 Q2119.64 290.536 2114.64 290.536 Q2112.56 290.536 2110.29 290.119 Q2108.04 289.726 2105.54 288.916 L2105.54 284.517 Q2107.9 285.744 2110.2 286.369 Q2112.49 286.971 2114.73 286.971 Q2117.74 286.971 2119.36 285.953 Q2120.98 284.911 2120.98 283.036 Q2120.98 281.3 2119.8 280.374 Q2118.64 279.448 2114.69 278.592 L2113.2 278.244 Q2109.25 277.411 2107.49 275.698 Q2105.73 273.962 2105.73 270.953 Q2105.73 267.295 2108.32 265.305 Q2110.91 263.314 2115.68 263.314 Q2118.04 263.314 2120.13 263.661 Q2122.21 264.008 2123.97 264.703 Z" fill="#000000" fill-rule="nonzero" fill-opacity="1"></path><path clip-path="url(#clip680)" d="M2142.19 266.925 Q2138.76 266.925 2136.77 269.61 Q2134.78 272.272 2134.78 276.925 Q2134.78 281.578 2136.75 284.263 Q2138.74 286.925 2142.19 286.925 Q2145.59 286.925 2147.58 284.24 Q2149.57 281.555 2149.57 276.925 Q2149.57 272.318 2147.58 269.633 Q2145.59 266.925 2142.19 266.925 M2142.19 263.314 Q2147.74 263.314 2150.91 266.925 Q2154.08 270.536 2154.08 276.925 Q2154.08 283.291 2150.91 286.925 Q2147.74 290.536 2142.19 290.536 Q2136.61 290.536 2133.44 286.925 Q2130.29 283.291 2130.29 276.925 Q2130.29 270.536 2133.44 266.925 Q2136.61 263.314 2142.19 263.314 Z" fill="#000000" fill-rule="nonzero" fill-opacity="1"></path><path clip-path="url(#clip680)" d="M2161.14 253.846 L2165.4 253.846 L2165.4 289.865 L2161.14 289.865 L2161.14 253.846 Z" fill="#000000" fill-rule="nonzero" fill-opacity="1"></path><path clip-path="url(#clip680)" d="M2171.26 263.939 L2175.77 263.939 L2183.88 285.698 L2191.98 263.939 L2196.49 263.939 L2186.77 289.865 L2180.98 289.865 L2171.26 263.939 Z" fill="#000000" fill-rule="nonzero" fill-opacity="1"></path><path clip-path="url(#clip680)" d="M2224.55 275.837 L2224.55 277.92 L2204.96 277.92 Q2205.24 282.318 2207.6 284.633 Q2209.99 286.925 2214.22 286.925 Q2216.68 286.925 2218.97 286.323 Q2221.28 285.721 2223.55 284.517 L2223.55 288.545 Q2221.26 289.517 2218.85 290.027 Q2216.45 290.536 2213.97 290.536 Q2207.76 290.536 2204.13 286.925 Q2200.52 283.314 2200.52 277.156 Q2200.52 270.791 2203.95 267.064 Q2207.39 263.314 2213.23 263.314 Q2218.46 263.314 2221.49 266.693 Q2224.55 270.05 2224.55 275.837 M2220.29 274.587 Q2220.24 271.092 2218.32 269.008 Q2216.42 266.925 2213.27 266.925 Q2209.71 266.925 2207.56 268.939 Q2205.43 270.953 2205.1 274.61 L2220.29 274.587 Z" fill="#000000" fill-rule="nonzero" fill-opacity="1"></path><path clip-path="url(#clip680)" d="M2246.56 267.92 Q2245.84 267.504 2244.99 267.318 Q2244.15 267.11 2243.13 267.11 Q2239.52 267.11 2237.58 269.471 Q2235.66 271.809 2235.66 276.207 L2235.66 289.865 L2231.38 289.865 L2231.38 263.939 L2235.66 263.939 L2235.66 267.967 Q2237 265.606 2239.15 264.471 Q2241.31 263.314 2244.38 263.314 Q2244.82 263.314 2245.36 263.383 Q2245.89 263.43 2246.54 263.545 L2246.56 267.92 Z" fill="#000000" fill-rule="nonzero" fill-opacity="1"></path><polyline clip-path="url(#clip680)" style="stroke:#ff0000; stroke-linecap:round; stroke-linejoin:round; stroke-width:4; stroke-opacity:1; fill:none" points="1752.92,324.425 1892.07,324.425 "></polyline>
<path clip-path="url(#clip680)" d="M1933.69 316.543 L1933.69 320.571 Q1931.89 319.645 1929.94 319.182 Q1928 318.719 1925.91 318.719 Q1922.74 318.719 1921.15 319.691 Q1919.57 320.663 1919.57 322.608 Q1919.57 324.089 1920.71 324.945 Q1921.84 325.779 1925.27 326.543 L1926.72 326.867 Q1931.26 327.839 1933.16 329.621 Q1935.08 331.381 1935.08 334.552 Q1935.08 338.163 1932.21 340.269 Q1929.36 342.376 1924.36 342.376 Q1922.28 342.376 1920.01 341.959 Q1917.77 341.566 1915.27 340.756 L1915.27 336.357 Q1917.63 337.584 1919.92 338.209 Q1922.21 338.811 1924.46 338.811 Q1927.47 338.811 1929.09 337.793 Q1930.71 336.751 1930.71 334.876 Q1930.71 333.14 1929.53 332.214 Q1928.37 331.288 1924.41 330.432 L1922.93 330.084 Q1918.97 329.251 1917.21 327.538 Q1915.45 325.802 1915.45 322.793 Q1915.45 319.135 1918.04 317.145 Q1920.64 315.154 1925.4 315.154 Q1927.77 315.154 1929.85 315.501 Q1931.93 315.848 1933.69 316.543 Z" fill="#000000" fill-rule="nonzero" fill-opacity="1"></path><path clip-path="url(#clip680)" d="M1941.42 331.473 L1941.42 315.779 L1945.68 315.779 L1945.68 331.311 Q1945.68 334.992 1947.12 336.844 Q1948.55 338.672 1951.42 338.672 Q1954.87 338.672 1956.86 336.473 Q1958.88 334.274 1958.88 330.478 L1958.88 315.779 L1963.14 315.779 L1963.14 341.705 L1958.88 341.705 L1958.88 337.723 Q1957.33 340.084 1955.27 341.242 Q1953.23 342.376 1950.52 342.376 Q1946.05 342.376 1943.74 339.598 Q1941.42 336.82 1941.42 331.473 M1952.14 315.154 L1952.14 315.154 Z" fill="#000000" fill-rule="nonzero" fill-opacity="1"></path><path clip-path="url(#clip680)" d="M1986.93 319.76 Q1986.21 319.344 1985.36 319.158 Q1984.53 318.95 1983.51 318.95 Q1979.9 318.95 1977.95 321.311 Q1976.03 323.649 1976.03 328.047 L1976.03 341.705 L1971.75 341.705 L1971.75 315.779 L1976.03 315.779 L1976.03 319.807 Q1977.37 317.446 1979.53 316.311 Q1981.68 315.154 1984.76 315.154 Q1985.2 315.154 1985.73 315.223 Q1986.26 315.27 1986.91 315.385 L1986.93 319.76 Z" fill="#000000" fill-rule="nonzero" fill-opacity="1"></path><path clip-path="url(#clip680)" d="M2004.52 305.686 L2004.52 309.228 L2000.45 309.228 Q1998.16 309.228 1997.26 310.154 Q1996.38 311.08 1996.38 313.487 L1996.38 315.779 L2003.39 315.779 L2003.39 319.089 L1996.38 319.089 L1996.38 341.705 L1992.09 341.705 L1992.09 319.089 L1988.02 319.089 L1988.02 315.779 L1992.09 315.779 L1992.09 313.973 Q1992.09 309.645 1994.11 307.677 Q1996.12 305.686 2000.5 305.686 L2004.52 305.686 Z" fill="#000000" fill-rule="nonzero" fill-opacity="1"></path><path clip-path="url(#clip680)" d="M2019.87 328.672 Q2014.71 328.672 2012.72 329.853 Q2010.73 331.033 2010.73 333.881 Q2010.73 336.149 2012.21 337.492 Q2013.71 338.811 2016.28 338.811 Q2019.83 338.811 2021.96 336.311 Q2024.11 333.788 2024.11 329.621 L2024.11 328.672 L2019.87 328.672 M2028.37 326.913 L2028.37 341.705 L2024.11 341.705 L2024.11 337.769 Q2022.65 340.131 2020.47 341.265 Q2018.3 342.376 2015.15 342.376 Q2011.17 342.376 2008.81 340.154 Q2006.47 337.908 2006.47 334.158 Q2006.47 329.783 2009.39 327.561 Q2012.33 325.339 2018.14 325.339 L2024.11 325.339 L2024.11 324.922 Q2024.11 321.983 2022.16 320.385 Q2020.24 318.765 2016.75 318.765 Q2014.52 318.765 2012.42 319.297 Q2010.31 319.83 2008.37 320.895 L2008.37 316.959 Q2010.71 316.057 2012.9 315.617 Q2015.1 315.154 2017.19 315.154 Q2022.81 315.154 2025.59 318.071 Q2028.37 320.987 2028.37 326.913 Z" fill="#000000" fill-rule="nonzero" fill-opacity="1"></path><path clip-path="url(#clip680)" d="M2055.8 316.774 L2055.8 320.756 Q2053.99 319.76 2052.16 319.274 Q2050.36 318.765 2048.51 318.765 Q2044.36 318.765 2042.07 321.404 Q2039.78 324.02 2039.78 328.765 Q2039.78 333.51 2042.07 336.149 Q2044.36 338.765 2048.51 338.765 Q2050.36 338.765 2052.16 338.279 Q2053.99 337.769 2055.8 336.774 L2055.8 340.709 Q2054.02 341.543 2052.09 341.959 Q2050.2 342.376 2048.04 342.376 Q2042.19 342.376 2038.74 338.695 Q2035.29 335.015 2035.29 328.765 Q2035.29 322.422 2038.76 318.788 Q2042.26 315.154 2048.32 315.154 Q2050.29 315.154 2052.16 315.571 Q2054.04 315.964 2055.8 316.774 Z" fill="#000000" fill-rule="nonzero" fill-opacity="1"></path><path clip-path="url(#clip680)" d="M2085.38 327.677 L2085.38 329.76 L2065.8 329.76 Q2066.08 334.158 2068.44 336.473 Q2070.82 338.765 2075.06 338.765 Q2077.51 338.765 2079.8 338.163 Q2082.12 337.561 2084.39 336.357 L2084.39 340.385 Q2082.09 341.357 2079.69 341.867 Q2077.28 342.376 2074.8 342.376 Q2068.6 342.376 2064.96 338.765 Q2061.35 335.154 2061.35 328.996 Q2061.35 322.631 2064.78 318.904 Q2068.23 315.154 2074.06 315.154 Q2079.29 315.154 2082.33 318.533 Q2085.38 321.89 2085.38 327.677 M2081.12 326.427 Q2081.08 322.932 2079.15 320.848 Q2077.26 318.765 2074.11 318.765 Q2070.54 318.765 2068.39 320.779 Q2066.26 322.793 2065.94 326.45 L2081.12 326.427 Z" fill="#000000" fill-rule="nonzero" fill-opacity="1"></path><path clip-path="url(#clip680)" d="M2122.46 319.76 Q2121.75 319.344 2120.89 319.158 Q2120.06 318.95 2119.04 318.95 Q2115.43 318.95 2113.48 321.311 Q2111.56 323.649 2111.56 328.047 L2111.56 341.705 L2107.28 341.705 L2107.28 315.779 L2111.56 315.779 L2111.56 319.807 Q2112.9 317.446 2115.06 316.311 Q2117.21 315.154 2120.29 315.154 Q2120.73 315.154 2121.26 315.223 Q2121.79 315.27 2122.44 315.385 L2122.46 319.76 Z" fill="#000000" fill-rule="nonzero" fill-opacity="1"></path><path clip-path="url(#clip680)" d="M2138.71 328.672 Q2133.55 328.672 2131.56 329.853 Q2129.57 331.033 2129.57 333.881 Q2129.57 336.149 2131.05 337.492 Q2132.56 338.811 2135.13 338.811 Q2138.67 338.811 2140.8 336.311 Q2142.95 333.788 2142.95 329.621 L2142.95 328.672 L2138.71 328.672 M2147.21 326.913 L2147.21 341.705 L2142.95 341.705 L2142.95 337.769 Q2141.49 340.131 2139.32 341.265 Q2137.14 342.376 2133.99 342.376 Q2130.01 342.376 2127.65 340.154 Q2125.31 337.908 2125.31 334.158 Q2125.31 329.783 2128.23 327.561 Q2131.17 325.339 2136.98 325.339 L2142.95 325.339 L2142.95 324.922 Q2142.95 321.983 2141.01 320.385 Q2139.08 318.765 2135.59 318.765 Q2133.37 318.765 2131.26 319.297 Q2129.15 319.83 2127.21 320.895 L2127.21 316.959 Q2129.55 316.057 2131.75 315.617 Q2133.95 315.154 2136.03 315.154 Q2141.65 315.154 2144.43 318.071 Q2147.21 320.987 2147.21 326.913 Z" fill="#000000" fill-rule="nonzero" fill-opacity="1"></path><path clip-path="url(#clip680)" d="M2153.51 315.779 L2157.76 315.779 L2163.09 336.01 L2168.39 315.779 L2173.41 315.779 L2178.74 336.01 L2184.04 315.779 L2188.3 315.779 L2181.51 341.705 L2176.49 341.705 L2170.91 320.455 L2165.31 341.705 L2160.29 341.705 L2153.51 315.779 Z" fill="#000000" fill-rule="nonzero" fill-opacity="1"></path><polyline clip-path="url(#clip680)" style="stroke:#008000; stroke-linecap:round; stroke-linejoin:round; stroke-width:4; stroke-opacity:1; fill:none" points="1752.92,376.265 1892.07,376.265 "></polyline>
<path clip-path="url(#clip680)" d="M1933.69 368.383 L1933.69 372.411 Q1931.89 371.485 1929.94 371.022 Q1928 370.559 1925.91 370.559 Q1922.74 370.559 1921.15 371.531 Q1919.57 372.503 1919.57 374.448 Q1919.57 375.929 1920.71 376.785 Q1921.84 377.619 1925.27 378.383 L1926.72 378.707 Q1931.26 379.679 1933.16 381.461 Q1935.08 383.221 1935.08 386.392 Q1935.08 390.003 1932.21 392.109 Q1929.36 394.216 1924.36 394.216 Q1922.28 394.216 1920.01 393.799 Q1917.77 393.406 1915.27 392.596 L1915.27 388.197 Q1917.63 389.424 1919.92 390.049 Q1922.21 390.651 1924.46 390.651 Q1927.47 390.651 1929.09 389.633 Q1930.71 388.591 1930.71 386.716 Q1930.71 384.98 1929.53 384.054 Q1928.37 383.128 1924.41 382.272 L1922.93 381.924 Q1918.97 381.091 1917.21 379.378 Q1915.45 377.642 1915.45 374.633 Q1915.45 370.975 1918.04 368.985 Q1920.64 366.994 1925.4 366.994 Q1927.77 366.994 1929.85 367.341 Q1931.93 367.688 1933.69 368.383 Z" fill="#000000" fill-rule="nonzero" fill-opacity="1"></path><path clip-path="url(#clip680)" d="M1941.42 383.313 L1941.42 367.619 L1945.68 367.619 L1945.68 383.151 Q1945.68 386.832 1947.12 388.684 Q1948.55 390.512 1951.42 390.512 Q1954.87 390.512 1956.86 388.313 Q1958.88 386.114 1958.88 382.318 L1958.88 367.619 L1963.14 367.619 L1963.14 393.545 L1958.88 393.545 L1958.88 389.563 Q1957.33 391.924 1955.27 393.082 Q1953.23 394.216 1950.52 394.216 Q1946.05 394.216 1943.74 391.438 Q1941.42 388.66 1941.42 383.313 M1952.14 366.994 L1952.14 366.994 Z" fill="#000000" fill-rule="nonzero" fill-opacity="1"></path><path clip-path="url(#clip680)" d="M1986.93 371.6 Q1986.21 371.184 1985.36 370.998 Q1984.53 370.79 1983.51 370.79 Q1979.9 370.79 1977.95 373.151 Q1976.03 375.489 1976.03 379.887 L1976.03 393.545 L1971.75 393.545 L1971.75 367.619 L1976.03 367.619 L1976.03 371.647 Q1977.37 369.286 1979.53 368.151 Q1981.68 366.994 1984.76 366.994 Q1985.2 366.994 1985.73 367.063 Q1986.26 367.11 1986.91 367.225 L1986.93 371.6 Z" fill="#000000" fill-rule="nonzero" fill-opacity="1"></path><path clip-path="url(#clip680)" d="M2004.52 357.526 L2004.52 361.068 L2000.45 361.068 Q1998.16 361.068 1997.26 361.994 Q1996.38 362.92 1996.38 365.327 L1996.38 367.619 L2003.39 367.619 L2003.39 370.929 L1996.38 370.929 L1996.38 393.545 L1992.09 393.545 L1992.09 370.929 L1988.02 370.929 L1988.02 367.619 L1992.09 367.619 L1992.09 365.813 Q1992.09 361.485 1994.11 359.517 Q1996.12 357.526 2000.5 357.526 L2004.52 357.526 Z" fill="#000000" fill-rule="nonzero" fill-opacity="1"></path><path clip-path="url(#clip680)" d="M2019.87 380.512 Q2014.71 380.512 2012.72 381.693 Q2010.73 382.873 2010.73 385.721 Q2010.73 387.989 2012.21 389.332 Q2013.71 390.651 2016.28 390.651 Q2019.83 390.651 2021.96 388.151 Q2024.11 385.628 2024.11 381.461 L2024.11 380.512 L2019.87 380.512 M2028.37 378.753 L2028.37 393.545 L2024.11 393.545 L2024.11 389.609 Q2022.65 391.971 2020.47 393.105 Q2018.3 394.216 2015.15 394.216 Q2011.17 394.216 2008.81 391.994 Q2006.47 389.748 2006.47 385.998 Q2006.47 381.623 2009.39 379.401 Q2012.33 377.179 2018.14 377.179 L2024.11 377.179 L2024.11 376.762 Q2024.11 373.823 2022.16 372.225 Q2020.24 370.605 2016.75 370.605 Q2014.52 370.605 2012.42 371.137 Q2010.31 371.67 2008.37 372.735 L2008.37 368.799 Q2010.71 367.897 2012.9 367.457 Q2015.1 366.994 2017.19 366.994 Q2022.81 366.994 2025.59 369.911 Q2028.37 372.827 2028.37 378.753 Z" fill="#000000" fill-rule="nonzero" fill-opacity="1"></path><path clip-path="url(#clip680)" d="M2055.8 368.614 L2055.8 372.596 Q2053.99 371.6 2052.16 371.114 Q2050.36 370.605 2048.51 370.605 Q2044.36 370.605 2042.07 373.244 Q2039.78 375.86 2039.78 380.605 Q2039.78 385.35 2042.07 387.989 Q2044.36 390.605 2048.51 390.605 Q2050.36 390.605 2052.16 390.119 Q2053.99 389.609 2055.8 388.614 L2055.8 392.549 Q2054.02 393.383 2052.09 393.799 Q2050.2 394.216 2048.04 394.216 Q2042.19 394.216 2038.74 390.535 Q2035.29 386.855 2035.29 380.605 Q2035.29 374.262 2038.76 370.628 Q2042.26 366.994 2048.32 366.994 Q2050.29 366.994 2052.16 367.411 Q2054.04 367.804 2055.8 368.614 Z" fill="#000000" fill-rule="nonzero" fill-opacity="1"></path><path clip-path="url(#clip680)" d="M2085.38 379.517 L2085.38 381.6 L2065.8 381.6 Q2066.08 385.998 2068.44 388.313 Q2070.82 390.605 2075.06 390.605 Q2077.51 390.605 2079.8 390.003 Q2082.12 389.401 2084.39 388.197 L2084.39 392.225 Q2082.09 393.197 2079.69 393.707 Q2077.28 394.216 2074.8 394.216 Q2068.6 394.216 2064.96 390.605 Q2061.35 386.994 2061.35 380.836 Q2061.35 374.471 2064.78 370.744 Q2068.23 366.994 2074.06 366.994 Q2079.29 366.994 2082.33 370.373 Q2085.38 373.73 2085.38 379.517 M2081.12 378.267 Q2081.08 374.772 2079.15 372.688 Q2077.26 370.605 2074.11 370.605 Q2070.54 370.605 2068.39 372.619 Q2066.26 374.633 2065.94 378.29 L2081.12 378.267 Z" fill="#000000" fill-rule="nonzero" fill-opacity="1"></path><path clip-path="url(#clip680)" d="M2107.44 367.619 L2111.7 367.619 L2111.7 393.545 L2107.44 393.545 L2107.44 367.619 M2107.44 357.526 L2111.7 357.526 L2111.7 362.92 L2107.44 362.92 L2107.44 357.526 Z" fill="#000000" fill-rule="nonzero" fill-opacity="1"></path><path clip-path="url(#clip680)" d="M2142.16 377.897 L2142.16 393.545 L2137.9 393.545 L2137.9 378.035 Q2137.9 374.355 2136.47 372.526 Q2135.03 370.698 2132.16 370.698 Q2128.71 370.698 2126.72 372.897 Q2124.73 375.096 2124.73 378.892 L2124.73 393.545 L2120.45 393.545 L2120.45 367.619 L2124.73 367.619 L2124.73 371.647 Q2126.26 369.309 2128.32 368.151 Q2130.4 366.994 2133.11 366.994 Q2137.58 366.994 2139.87 369.772 Q2142.16 372.526 2142.16 377.897 Z" fill="#000000" fill-rule="nonzero" fill-opacity="1"></path><path clip-path="url(#clip680)" d="M2150.66 367.619 L2154.92 367.619 L2154.92 393.545 L2150.66 393.545 L2150.66 367.619 M2150.66 357.526 L2154.92 357.526 L2154.92 362.92 L2150.66 362.92 L2150.66 357.526 Z" fill="#000000" fill-rule="nonzero" fill-opacity="1"></path><path clip-path="url(#clip680)" d="M2168.04 360.258 L2168.04 367.619 L2176.82 367.619 L2176.82 370.929 L2168.04 370.929 L2168.04 385.003 Q2168.04 388.174 2168.9 389.077 Q2169.78 389.98 2172.44 389.98 L2176.82 389.98 L2176.82 393.545 L2172.44 393.545 Q2167.51 393.545 2165.64 391.716 Q2163.76 389.864 2163.76 385.003 L2163.76 370.929 L2160.64 370.929 L2160.64 367.619 L2163.76 367.619 L2163.76 360.258 L2168.04 360.258 Z" fill="#000000" fill-rule="nonzero" fill-opacity="1"></path><path clip-path="url(#clip680)" d="M2182.42 367.619 L2186.68 367.619 L2186.68 393.545 L2182.42 393.545 L2182.42 367.619 M2182.42 357.526 L2186.68 357.526 L2186.68 362.92 L2182.42 362.92 L2182.42 357.526 Z" fill="#000000" fill-rule="nonzero" fill-opacity="1"></path><path clip-path="url(#clip680)" d="M2207.37 380.512 Q2202.21 380.512 2200.22 381.693 Q2198.23 382.873 2198.23 385.721 Q2198.23 387.989 2199.71 389.332 Q2201.21 390.651 2203.78 390.651 Q2207.32 390.651 2209.45 388.151 Q2211.61 385.628 2211.61 381.461 L2211.61 380.512 L2207.37 380.512 M2215.87 378.753 L2215.87 393.545 L2211.61 393.545 L2211.61 389.609 Q2210.15 391.971 2207.97 393.105 Q2205.8 394.216 2202.65 394.216 Q2198.67 394.216 2196.31 391.994 Q2193.97 389.748 2193.97 385.998 Q2193.97 381.623 2196.89 379.401 Q2199.82 377.179 2205.63 377.179 L2211.61 377.179 L2211.61 376.762 Q2211.61 373.823 2209.66 372.225 Q2207.74 370.605 2204.25 370.605 Q2202.02 370.605 2199.92 371.137 Q2197.81 371.67 2195.87 372.735 L2195.87 368.799 Q2198.2 367.897 2200.4 367.457 Q2202.6 366.994 2204.69 366.994 Q2210.31 366.994 2213.09 369.911 Q2215.87 372.827 2215.87 378.753 Z" fill="#000000" fill-rule="nonzero" fill-opacity="1"></path><path clip-path="url(#clip680)" d="M2224.64 357.526 L2228.9 357.526 L2228.9 393.545 L2224.64 393.545 L2224.64 357.526 Z" fill="#000000" fill-rule="nonzero" fill-opacity="1"></path><path clip-path="url(#clip680)" d="M2259.99 379.517 L2259.99 381.6 L2240.4 381.6 Q2240.68 385.998 2243.04 388.313 Q2245.43 390.605 2249.66 390.605 Q2252.12 390.605 2254.41 390.003 Q2256.72 389.401 2258.99 388.197 L2258.99 392.225 Q2256.7 393.197 2254.29 393.707 Q2251.88 394.216 2249.41 394.216 Q2243.2 394.216 2239.57 390.605 Q2235.96 386.994 2235.96 380.836 Q2235.96 374.471 2239.38 370.744 Q2242.83 366.994 2248.67 366.994 Q2253.9 366.994 2256.93 370.373 Q2259.99 373.73 2259.99 379.517 M2255.73 378.267 Q2255.68 374.772 2253.76 372.688 Q2251.86 370.605 2248.71 370.605 Q2245.15 370.605 2243 372.619 Q2240.87 374.633 2240.54 378.29 L2255.73 378.267 Z" fill="#000000" fill-rule="nonzero" fill-opacity="1"></path><polyline clip-path="url(#clip680)" style="stroke:#000000; stroke-linecap:round; stroke-linejoin:round; stroke-width:4; stroke-opacity:1; fill:none" stroke-dasharray="16, 10" points="1752.92,428.105 1892.07,428.105 "></polyline>
<path clip-path="url(#clip680)" d="M1933.69 420.223 L1933.69 424.251 Q1931.89 423.325 1929.94 422.862 Q1928 422.399 1925.91 422.399 Q1922.74 422.399 1921.15 423.371 Q1919.57 424.343 1919.57 426.288 Q1919.57 427.769 1920.71 428.625 Q1921.84 429.459 1925.27 430.223 L1926.72 430.547 Q1931.26 431.519 1933.16 433.301 Q1935.08 435.061 1935.08 438.232 Q1935.08 441.843 1932.21 443.949 Q1929.36 446.056 1924.36 446.056 Q1922.28 446.056 1920.01 445.639 Q1917.77 445.246 1915.27 444.436 L1915.27 440.037 Q1917.63 441.264 1919.92 441.889 Q1922.21 442.491 1924.46 442.491 Q1927.47 442.491 1929.09 441.473 Q1930.71 440.431 1930.71 438.556 Q1930.71 436.82 1929.53 435.894 Q1928.37 434.968 1924.41 434.112 L1922.93 433.764 Q1918.97 432.931 1917.21 431.218 Q1915.45 429.482 1915.45 426.473 Q1915.45 422.815 1918.04 420.825 Q1920.64 418.834 1925.4 418.834 Q1927.77 418.834 1929.85 419.181 Q1931.93 419.528 1933.69 420.223 Z" fill="#000000" fill-rule="nonzero" fill-opacity="1"></path><path clip-path="url(#clip680)" d="M1941.42 435.153 L1941.42 419.459 L1945.68 419.459 L1945.68 434.991 Q1945.68 438.672 1947.12 440.524 Q1948.55 442.352 1951.42 442.352 Q1954.87 442.352 1956.86 440.153 Q1958.88 437.954 1958.88 434.158 L1958.88 419.459 L1963.14 419.459 L1963.14 445.385 L1958.88 445.385 L1958.88 441.403 Q1957.33 443.764 1955.27 444.922 Q1953.23 446.056 1950.52 446.056 Q1946.05 446.056 1943.74 443.278 Q1941.42 440.5 1941.42 435.153 M1952.14 418.834 L1952.14 418.834 Z" fill="#000000" fill-rule="nonzero" fill-opacity="1"></path><path clip-path="url(#clip680)" d="M1986.93 423.44 Q1986.21 423.024 1985.36 422.838 Q1984.53 422.63 1983.51 422.63 Q1979.9 422.63 1977.95 424.991 Q1976.03 427.329 1976.03 431.727 L1976.03 445.385 L1971.75 445.385 L1971.75 419.459 L1976.03 419.459 L1976.03 423.487 Q1977.37 421.126 1979.53 419.991 Q1981.68 418.834 1984.76 418.834 Q1985.2 418.834 1985.73 418.903 Q1986.26 418.95 1986.91 419.065 L1986.93 423.44 Z" fill="#000000" fill-rule="nonzero" fill-opacity="1"></path><path clip-path="url(#clip680)" d="M2004.52 409.366 L2004.52 412.908 L2000.45 412.908 Q1998.16 412.908 1997.26 413.834 Q1996.38 414.76 1996.38 417.167 L1996.38 419.459 L2003.39 419.459 L2003.39 422.769 L1996.38 422.769 L1996.38 445.385 L1992.09 445.385 L1992.09 422.769 L1988.02 422.769 L1988.02 419.459 L1992.09 419.459 L1992.09 417.653 Q1992.09 413.325 1994.11 411.357 Q1996.12 409.366 2000.5 409.366 L2004.52 409.366 Z" fill="#000000" fill-rule="nonzero" fill-opacity="1"></path><path clip-path="url(#clip680)" d="M2019.87 432.352 Q2014.71 432.352 2012.72 433.533 Q2010.73 434.713 2010.73 437.561 Q2010.73 439.829 2012.21 441.172 Q2013.71 442.491 2016.28 442.491 Q2019.83 442.491 2021.96 439.991 Q2024.11 437.468 2024.11 433.301 L2024.11 432.352 L2019.87 432.352 M2028.37 430.593 L2028.37 445.385 L2024.11 445.385 L2024.11 441.449 Q2022.65 443.811 2020.47 444.945 Q2018.3 446.056 2015.15 446.056 Q2011.17 446.056 2008.81 443.834 Q2006.47 441.588 2006.47 437.838 Q2006.47 433.463 2009.39 431.241 Q2012.33 429.019 2018.14 429.019 L2024.11 429.019 L2024.11 428.602 Q2024.11 425.663 2022.16 424.065 Q2020.24 422.445 2016.75 422.445 Q2014.52 422.445 2012.42 422.977 Q2010.31 423.51 2008.37 424.575 L2008.37 420.639 Q2010.71 419.737 2012.9 419.297 Q2015.1 418.834 2017.19 418.834 Q2022.81 418.834 2025.59 421.751 Q2028.37 424.667 2028.37 430.593 Z" fill="#000000" fill-rule="nonzero" fill-opacity="1"></path><path clip-path="url(#clip680)" d="M2055.8 420.454 L2055.8 424.436 Q2053.99 423.44 2052.16 422.954 Q2050.36 422.445 2048.51 422.445 Q2044.36 422.445 2042.07 425.084 Q2039.78 427.7 2039.78 432.445 Q2039.78 437.19 2042.07 439.829 Q2044.36 442.445 2048.51 442.445 Q2050.36 442.445 2052.16 441.959 Q2053.99 441.449 2055.8 440.454 L2055.8 444.389 Q2054.02 445.223 2052.09 445.639 Q2050.2 446.056 2048.04 446.056 Q2042.19 446.056 2038.74 442.375 Q2035.29 438.695 2035.29 432.445 Q2035.29 426.102 2038.76 422.468 Q2042.26 418.834 2048.32 418.834 Q2050.29 418.834 2052.16 419.251 Q2054.04 419.644 2055.8 420.454 Z" fill="#000000" fill-rule="nonzero" fill-opacity="1"></path><path clip-path="url(#clip680)" d="M2085.38 431.357 L2085.38 433.44 L2065.8 433.44 Q2066.08 437.838 2068.44 440.153 Q2070.82 442.445 2075.06 442.445 Q2077.51 442.445 2079.8 441.843 Q2082.12 441.241 2084.39 440.037 L2084.39 444.065 Q2082.09 445.037 2079.69 445.547 Q2077.28 446.056 2074.8 446.056 Q2068.6 446.056 2064.96 442.445 Q2061.35 438.834 2061.35 432.676 Q2061.35 426.311 2064.78 422.584 Q2068.23 418.834 2074.06 418.834 Q2079.29 418.834 2082.33 422.213 Q2085.38 425.57 2085.38 431.357 M2081.12 430.107 Q2081.08 426.612 2079.15 424.528 Q2077.26 422.445 2074.11 422.445 Q2070.54 422.445 2068.39 424.459 Q2066.26 426.473 2065.94 430.13 L2081.12 430.107 Z" fill="#000000" fill-rule="nonzero" fill-opacity="1"></path><path clip-path="url(#clip680)" d="M2117.49 422.445 Q2114.06 422.445 2112.07 425.13 Q2110.08 427.792 2110.08 432.445 Q2110.08 437.098 2112.05 439.783 Q2114.04 442.445 2117.49 442.445 Q2120.89 442.445 2122.88 439.76 Q2124.87 437.075 2124.87 432.445 Q2124.87 427.838 2122.88 425.153 Q2120.89 422.445 2117.49 422.445 M2117.49 418.834 Q2123.04 418.834 2126.21 422.445 Q2129.39 426.056 2129.39 432.445 Q2129.39 438.811 2126.21 442.445 Q2123.04 446.056 2117.49 446.056 Q2111.91 446.056 2108.74 442.445 Q2105.59 438.811 2105.59 432.445 Q2105.59 426.056 2108.74 422.445 Q2111.91 418.834 2117.49 418.834 Z" fill="#000000" fill-rule="nonzero" fill-opacity="1"></path><path clip-path="url(#clip680)" d="M2153.51 432.121 Q2153.51 427.491 2151.58 424.945 Q2149.69 422.399 2146.24 422.399 Q2142.81 422.399 2140.89 424.945 Q2138.99 427.491 2138.99 432.121 Q2138.99 436.727 2140.89 439.274 Q2142.81 441.82 2146.24 441.82 Q2149.69 441.82 2151.58 439.274 Q2153.51 436.727 2153.51 432.121 M2157.76 442.167 Q2157.76 448.787 2154.83 452.005 Q2151.89 455.246 2145.82 455.246 Q2143.58 455.246 2141.58 454.898 Q2139.59 454.574 2137.72 453.88 L2137.72 449.736 Q2139.59 450.755 2141.42 451.241 Q2143.25 451.727 2145.15 451.727 Q2149.34 451.727 2151.42 449.528 Q2153.51 447.352 2153.51 442.931 L2153.51 440.824 Q2152.19 443.116 2150.13 444.25 Q2148.07 445.385 2145.2 445.385 Q2140.43 445.385 2137.51 441.75 Q2134.59 438.116 2134.59 432.121 Q2134.59 426.102 2137.51 422.468 Q2140.43 418.834 2145.2 418.834 Q2148.07 418.834 2150.13 419.968 Q2152.19 421.102 2153.51 423.394 L2153.51 419.459 L2157.76 419.459 L2157.76 442.167 Z" fill="#000000" fill-rule="nonzero" fill-opacity="1"></path><path clip-path="url(#clip680)" d="M2183.6 432.121 Q2183.6 427.491 2181.68 424.945 Q2179.78 422.399 2176.33 422.399 Q2172.9 422.399 2170.98 424.945 Q2169.08 427.491 2169.08 432.121 Q2169.08 436.727 2170.98 439.274 Q2172.9 441.82 2176.33 441.82 Q2179.78 441.82 2181.68 439.274 Q2183.6 436.727 2183.6 432.121 M2187.86 442.167 Q2187.86 448.787 2184.92 452.005 Q2181.98 455.246 2175.91 455.246 Q2173.67 455.246 2171.68 454.898 Q2169.69 454.574 2167.81 453.88 L2167.81 449.736 Q2169.69 450.755 2171.51 451.241 Q2173.34 451.727 2175.24 451.727 Q2179.43 451.727 2181.51 449.528 Q2183.6 447.352 2183.6 442.931 L2183.6 440.824 Q2182.28 443.116 2180.22 444.25 Q2178.16 445.385 2175.29 445.385 Q2170.52 445.385 2167.6 441.75 Q2164.69 438.116 2164.69 432.121 Q2164.69 426.102 2167.6 422.468 Q2170.52 418.834 2175.29 418.834 Q2178.16 418.834 2180.22 419.968 Q2182.28 421.102 2183.6 423.394 L2183.6 419.459 L2187.86 419.459 L2187.86 442.167 Z" fill="#000000" fill-rule="nonzero" fill-opacity="1"></path><path clip-path="url(#clip680)" d="M2216.82 424.436 Q2218.41 421.565 2220.63 420.2 Q2222.86 418.834 2225.87 418.834 Q2229.92 418.834 2232.12 421.681 Q2234.32 424.505 2234.32 429.737 L2234.32 445.385 L2230.03 445.385 L2230.03 429.875 Q2230.03 426.149 2228.71 424.343 Q2227.39 422.538 2224.69 422.538 Q2221.38 422.538 2219.45 424.737 Q2217.53 426.936 2217.53 430.732 L2217.53 445.385 L2213.25 445.385 L2213.25 429.875 Q2213.25 426.125 2211.93 424.343 Q2210.61 422.538 2207.86 422.538 Q2204.59 422.538 2202.67 424.76 Q2200.75 426.959 2200.75 430.732 L2200.75 445.385 L2196.47 445.385 L2196.47 419.459 L2200.75 419.459 L2200.75 423.487 Q2202.21 421.102 2204.25 419.968 Q2206.28 418.834 2209.08 418.834 Q2211.91 418.834 2213.88 420.269 Q2215.87 421.704 2216.82 424.436 Z" fill="#000000" fill-rule="nonzero" fill-opacity="1"></path></svg>