<svg xmlns="http://www.w3.org/2000/svg" xmlns:xlink="http://www.w3.org/1999/xlink" width="600" height="400" viewBox="0 0 2400 1600">
<defs>
  <clipPath id="clip080">
    <rect x="0" y="0" width="2400" height="1600"></rect>
  </clipPath>
</defs>
<path clip-path="url(#clip080)" d="M0 1600 L2400 1600 L2400 0 L0 0  Z" fill="#ffffff" fill-rule="evenodd" fill-opacity="1"></path>
<defs>
  <clipPath id="clip081">
    <rect x="480" y="0" width="1681" height="1600"></rect>
  </clipPath>
</defs>
<path clip-path="url(#clip080)" d="M264.287 1486.45 L2352.76 1486.45 L2352.76 123.472 L264.287 123.472  Z" fill="#ffffff" fill-rule="evenodd" fill-opacity="1"></path>
<defs>
  <clipPath id="clip082">
    <rect x="264" y="123" width="2089" height="1364"></rect>
  </clipPath>
</defs>
<polyline clip-path="url(#clip082)" style="stroke:#000000; stroke-linecap:round; stroke-linejoin:round; stroke-width:2; stroke-opacity:0.1; fill:none" points="303.083,1486.45 303.083,123.472 "></polyline>
<polyline clip-path="url(#clip082)" style="stroke:#000000; stroke-linecap:round; stroke-linejoin:round; stroke-width:2; stroke-opacity:0.1; fill:none" points="810.88,1486.45 810.88,123.472 "></polyline>
<polyline clip-path="url(#clip082)" style="stroke:#000000; stroke-linecap:round; stroke-linejoin:round; stroke-width:2; stroke-opacity:0.1; fill:none" points="1318.68,1486.45 1318.68,123.472 "></polyline>
<polyline clip-path="url(#clip082)" style="stroke:#000000; stroke-linecap:round; stroke-linejoin:round; stroke-width:2; stroke-opacity:0.1; fill:none" points="1826.47,1486.45 1826.47,123.472 "></polyline>
<polyline clip-path="url(#clip082)" style="stroke:#000000; stroke-linecap:round; stroke-linejoin:round; stroke-width:2; stroke-opacity:0.1; fill:none" points="2334.27,1486.45 2334.27,123.472 "></polyline>
<polyline clip-path="url(#clip080)" style="stroke:#000000; stroke-linecap:round; stroke-linejoin:round; stroke-width:4; stroke-opacity:1; fill:none" points="264.287,1486.45 2352.76,1486.45 "></polyline>
<polyline clip-path="url(#clip080)" style="stroke:#000000; stroke-linecap:round; stroke-linejoin:round; stroke-width:4; stroke-opacity:1; fill:none" points="303.083,1486.45 303.083,1467.55 "></polyline>
<polyline clip-path="url(#clip080)" style="stroke:#000000; stroke-linecap:round; stroke-linejoin:round; stroke-width:4; stroke-opacity:1; fill:none" points="810.88,1486.45 810.88,1467.55 "></polyline>
<polyline clip-path="url(#clip080)" style="stroke:#000000; stroke-linecap:round; stroke-linejoin:round; stroke-width:4; stroke-opacity:1; fill:none" points="1318.68,1486.45 1318.68,1467.55 "></polyline>
<polyline clip-path="url(#clip080)" style="stroke:#000000; stroke-linecap:round; stroke-linejoin:round; stroke-width:4; stroke-opacity:1; fill:none" points="1826.47,1486.45 1826.47,1467.55 "></polyline>
<polyline clip-path="url(#clip080)" style="stroke:#000000; stroke-linecap:round; stroke-linejoin:round; stroke-width:4; stroke-opacity:1; fill:none" points="2334.27,1486.45 2334.27,1467.55 "></polyline>
<path clip-path="url(#clip080)" d="M303.083 1517.37 Q299.472 1517.37 297.643 1520.93 Q295.838 1524.47 295.838 1531.6 Q295.838 1538.71 297.643 1542.27 Q299.472 1545.82 303.083 1545.82 Q306.717 1545.82 308.523 1542.27 Q310.352 1538.71 310.352 1531.6 Q310.352 1524.47 308.523 1520.93 Q306.717 1517.37 303.083 1517.37 M303.083 1513.66 Q308.893 1513.66 311.949 1518.27 Q315.027 1522.85 315.027 1531.6 Q315.027 1540.33 311.949 1544.94 Q308.893 1549.52 303.083 1549.52 Q297.273 1549.52 294.194 1544.94 Q291.139 1540.33 291.139 1531.6 Q291.139 1522.85 294.194 1518.27 Q297.273 1513.66 303.083 1513.66 Z" fill="#000000" fill-rule="nonzero" fill-opacity="1"></path><path clip-path="url(#clip080)" d="M790.151 1544.91 L806.471 1544.91 L806.471 1548.85 L784.526 1548.85 L784.526 1544.91 Q787.188 1542.16 791.772 1537.53 Q796.378 1532.88 797.559 1531.53 Q799.804 1529.01 800.684 1527.27 Q801.586 1525.51 801.586 1523.82 Q801.586 1521.07 799.642 1519.33 Q797.721 1517.6 794.619 1517.6 Q792.42 1517.6 789.966 1518.36 Q787.536 1519.13 784.758 1520.68 L784.758 1515.95 Q787.582 1514.82 790.036 1514.24 Q792.489 1513.66 794.526 1513.66 Q799.897 1513.66 803.091 1516.35 Q806.285 1519.03 806.285 1523.52 Q806.285 1525.65 805.475 1527.57 Q804.688 1529.47 802.582 1532.07 Q802.003 1532.74 798.901 1535.95 Q795.799 1539.15 790.151 1544.91 Z" fill="#000000" fill-rule="nonzero" fill-opacity="1"></path><path clip-path="url(#clip080)" d="M816.332 1514.29 L834.688 1514.29 L834.688 1518.22 L820.614 1518.22 L820.614 1526.7 Q821.633 1526.35 822.651 1526.19 Q823.67 1526 824.688 1526 Q830.475 1526 833.855 1529.17 Q837.234 1532.34 837.234 1537.76 Q837.234 1543.34 833.762 1546.44 Q830.29 1549.52 823.971 1549.52 Q821.795 1549.52 819.526 1549.15 Q817.281 1548.78 814.873 1548.04 L814.873 1543.34 Q816.957 1544.47 819.179 1545.03 Q821.401 1545.58 823.878 1545.58 Q827.883 1545.58 830.22 1543.48 Q832.558 1541.37 832.558 1537.76 Q832.558 1534.15 830.22 1532.04 Q827.883 1529.94 823.878 1529.94 Q822.003 1529.94 820.128 1530.35 Q818.276 1530.77 816.332 1531.65 L816.332 1514.29 Z" fill="#000000" fill-rule="nonzero" fill-opacity="1"></path><path clip-path="url(#clip080)" d="M1293.38 1514.29 L1311.73 1514.29 L1311.73 1518.22 L1297.66 1518.22 L1297.66 1526.7 Q1298.68 1526.35 1299.7 1526.19 Q1300.71 1526 1301.73 1526 Q1307.52 1526 1310.9 1529.17 Q1314.28 1532.34 1314.28 1537.76 Q1314.28 1543.34 1310.81 1546.44 Q1307.34 1549.52 1301.02 1549.52 Q1298.84 1549.52 1296.57 1549.15 Q1294.33 1548.78 1291.92 1548.04 L1291.92 1543.34 Q1294 1544.47 1296.22 1545.03 Q1298.45 1545.58 1300.92 1545.58 Q1304.93 1545.58 1307.27 1543.48 Q1309.6 1541.37 1309.6 1537.76 Q1309.6 1534.15 1307.27 1532.04 Q1304.93 1529.94 1300.92 1529.94 Q1299.05 1529.94 1297.17 1530.35 Q1295.32 1530.77 1293.38 1531.65 L1293.38 1514.29 Z" fill="#000000" fill-rule="nonzero" fill-opacity="1"></path><path clip-path="url(#clip080)" d="M1333.49 1517.37 Q1329.88 1517.37 1328.05 1520.93 Q1326.25 1524.47 1326.25 1531.6 Q1326.25 1538.71 1328.05 1542.27 Q1329.88 1545.82 1333.49 1545.82 Q1337.13 1545.82 1338.93 1542.27 Q1340.76 1538.71 1340.76 1531.6 Q1340.76 1524.47 1338.93 1520.93 Q1337.13 1517.37 1333.49 1517.37 M1333.49 1513.66 Q1339.3 1513.66 1342.36 1518.27 Q1345.44 1522.85 1345.44 1531.6 Q1345.44 1540.33 1342.36 1544.94 Q1339.3 1549.52 1333.49 1549.52 Q1327.68 1549.52 1324.6 1544.94 Q1321.55 1540.33 1321.55 1531.6 Q1321.55 1522.85 1324.6 1518.27 Q1327.68 1513.66 1333.49 1513.66 Z" fill="#000000" fill-rule="nonzero" fill-opacity="1"></path><path clip-path="url(#clip080)" d="M1800.33 1514.29 L1822.55 1514.29 L1822.55 1516.28 L1810.01 1548.85 L1805.12 1548.85 L1816.93 1518.22 L1800.33 1518.22 L1800.33 1514.29 Z" fill="#000000" fill-rule="nonzero" fill-opacity="1"></path><path clip-path="url(#clip080)" d="M1831.72 1514.29 L1850.07 1514.29 L1850.07 1518.22 L1836 1518.22 L1836 1526.7 Q1837.02 1526.35 1838.04 1526.19 Q1839.06 1526 1840.07 1526 Q1845.86 1526 1849.24 1529.17 Q1852.62 1532.34 1852.62 1537.76 Q1852.62 1543.34 1849.15 1546.44 Q1845.68 1549.52 1839.36 1549.52 Q1837.18 1549.52 1834.91 1549.15 Q1832.67 1548.78 1830.26 1548.04 L1830.26 1543.34 Q1832.34 1544.47 1834.57 1545.03 Q1836.79 1545.58 1839.26 1545.58 Q1843.27 1545.58 1845.61 1543.48 Q1847.94 1541.37 1847.94 1537.76 Q1847.94 1534.15 1845.61 1532.04 Q1843.27 1529.94 1839.26 1529.94 Q1837.39 1529.94 1835.51 1530.35 Q1833.66 1530.77 1831.72 1531.65 L1831.72 1514.29 Z" fill="#000000" fill-rule="nonzero" fill-opacity="1"></path><path clip-path="url(#clip080)" d="M2293.88 1544.91 L2301.52 1544.91 L2301.52 1518.55 L2293.21 1520.21 L2293.21 1515.95 L2301.47 1514.29 L2306.15 1514.29 L2306.15 1544.91 L2313.79 1544.91 L2313.79 1548.85 L2293.88 1548.85 L2293.88 1544.91 Z" fill="#000000" fill-rule="nonzero" fill-opacity="1"></path><path clip-path="url(#clip080)" d="M2333.23 1517.37 Q2329.62 1517.37 2327.79 1520.93 Q2325.99 1524.47 2325.99 1531.6 Q2325.99 1538.71 2327.79 1542.27 Q2329.62 1545.82 2333.23 1545.82 Q2336.86 1545.82 2338.67 1542.27 Q2340.5 1538.71 2340.5 1531.6 Q2340.5 1524.47 2338.67 1520.93 Q2336.86 1517.37 2333.23 1517.37 M2333.23 1513.66 Q2339.04 1513.66 2342.1 1518.27 Q2345.17 1522.85 2345.17 1531.6 Q2345.17 1540.33 2342.1 1544.94 Q2339.04 1549.52 2333.23 1549.52 Q2327.42 1549.52 2324.34 1544.94 Q2321.29 1540.33 2321.29 1531.6 Q2321.29 1522.85 2324.34 1518.27 Q2327.42 1513.66 2333.23 1513.66 Z" fill="#000000" fill-rule="nonzero" fill-opacity="1"></path><path clip-path="url(#clip080)" d="M2363.39 1517.37 Q2359.78 1517.37 2357.95 1520.93 Q2356.15 1524.47 2356.15 1531.6 Q2356.15 1538.71 2357.95 1542.27 Q2359.78 1545.82 2363.39 1545.82 Q2367.03 1545.82 2368.83 1542.27 Q2370.66 1538.71 2370.66 1531.6 Q2370.66 1524.47 2368.83 1520.93 Q2367.03 1517.37 2363.39 1517.37 M2363.39 1513.66 Q2369.2 1513.66 2372.26 1518.27 Q2375.34 1522.85 2375.34 1531.6 Q2375.34 1540.33 2372.26 1544.94 Q2369.2 1549.52 2363.39 1549.52 Q2357.58 1549.52 2354.5 1544.94 Q2351.45 1540.33 2351.45 1531.6 Q2351.45 1522.85 2354.5 1518.27 Q2357.58 1513.66 2363.39 1513.66 Z" fill="#000000" fill-rule="nonzero" fill-opacity="1"></path><polyline clip-path="url(#clip082)" style="stroke:#000000; stroke-linecap:round; stroke-linejoin:round; stroke-width:2; stroke-opacity:0.1; fill:none" points="264.287,1287.65 2352.76,1287.65 "></polyline>
<polyline clip-path="url(#clip082)" style="stroke:#000000; stroke-linecap:round; stroke-linejoin:round; stroke-width:2; stroke-opacity:0.1; fill:none" points="264.287,1080.94 2352.76,1080.94 "></polyline>
<polyline clip-path="url(#clip082)" style="stroke:#000000; stroke-linecap:round; stroke-linejoin:round; stroke-width:2; stroke-opacity:0.1; fill:none" points="264.287,874.231 2352.76,874.231 "></polyline>
<polyline clip-path="url(#clip082)" style="stroke:#000000; stroke-linecap:round; stroke-linejoin:round; stroke-width:2; stroke-opacity:0.1; fill:none" points="264.287,667.52 2352.76,667.52 "></polyline>
<polyline clip-path="url(#clip082)" style="stroke:#000000; stroke-linecap:round; stroke-linejoin:round; stroke-width:2; stroke-opacity:0.1; fill:none" points="264.287,460.81 2352.76,460.81 "></polyline>
<polyline clip-path="url(#clip082)" style="stroke:#000000; stroke-linecap:round; stroke-linejoin:round; stroke-width:2; stroke-opacity:0.1; fill:none" points="264.287,254.099 2352.76,254.099 "></polyline>
<polyline clip-path="url(#clip080)" style="stroke:#000000; stroke-linecap:round; stroke-linejoin:round; stroke-width:4; stroke-opacity:1; fill:none" points="264.287,1486.45 264.287,123.472 "></polyline>
<polyline clip-path="url(#clip080)" style="stroke:#000000; stroke-linecap:round; stroke-linejoin:round; stroke-width:4; stroke-opacity:1; fill:none" points="264.287,1287.65 283.185,1287.65 "></polyline>
<polyline clip-path="url(#clip080)" style="stroke:#000000; stroke-linecap:round; stroke-linejoin:round; stroke-width:4; stroke-opacity:1; fill:none" points="264.287,1080.94 283.185,1080.94 "></polyline>
<polyline clip-path="url(#clip080)" style="stroke:#000000; stroke-linecap:round; stroke-linejoin:round; stroke-width:4; stroke-opacity:1; fill:none" points="264.287,874.231 283.185,874.231 "></polyline>
<polyline clip-path="url(#clip080)" style="stroke:#000000; stroke-linecap:round; stroke-linejoin:round; stroke-width:4; stroke-opacity:1; fill:none" points="264.287,667.52 283.185,667.52 "></polyline>
<polyline clip-path="url(#clip080)" style="stroke:#000000; stroke-linecap:round; stroke-linejoin:round; stroke-width:4; stroke-opacity:1; fill:none" points="264.287,460.81 283.185,460.81 "></polyline>
<polyline clip-path="url(#clip080)" style="stroke:#000000; stroke-linecap:round; stroke-linejoin:round; stroke-width:4; stroke-opacity:1; fill:none" points="264.287,254.099 283.185,254.099 "></polyline>
<path clip-path="url(#clip080)" d="M119.885 1301 L136.204 1301 L136.204 1304.93 L114.26 1304.93 L114.26 1301 Q116.922 1298.24 121.505 1293.61 Q126.112 1288.96 127.292 1287.62 Q129.538 1285.09 130.417 1283.36 Q131.32 1281.6 131.32 1279.91 Q131.32 1277.15 129.376 1275.42 Q127.455 1273.68 124.353 1273.68 Q122.154 1273.68 119.7 1274.45 Q117.269 1275.21 114.492 1276.76 L114.492 1272.04 Q117.316 1270.9 119.769 1270.33 Q122.223 1269.75 124.26 1269.75 Q129.63 1269.75 132.825 1272.43 Q136.019 1275.12 136.019 1279.61 Q136.019 1281.74 135.209 1283.66 Q134.422 1285.56 132.316 1288.15 Q131.737 1288.82 128.635 1292.04 Q125.533 1295.23 119.885 1301 Z" fill="#000000" fill-rule="nonzero" fill-opacity="1"></path><path clip-path="url(#clip080)" d="M156.019 1273.45 Q152.408 1273.45 150.579 1277.02 Q148.774 1280.56 148.774 1287.69 Q148.774 1294.79 150.579 1298.36 Q152.408 1301.9 156.019 1301.9 Q159.653 1301.9 161.459 1298.36 Q163.288 1294.79 163.288 1287.69 Q163.288 1280.56 161.459 1277.02 Q159.653 1273.45 156.019 1273.45 M156.019 1269.75 Q161.829 1269.75 164.885 1274.35 Q167.964 1278.94 167.964 1287.69 Q167.964 1296.41 164.885 1301.02 Q161.829 1305.6 156.019 1305.6 Q150.209 1305.6 147.13 1301.02 Q144.075 1296.41 144.075 1287.69 Q144.075 1278.94 147.13 1274.35 Q150.209 1269.75 156.019 1269.75 Z" fill="#000000" fill-rule="nonzero" fill-opacity="1"></path><path clip-path="url(#clip080)" d="M186.181 1273.45 Q182.57 1273.45 180.741 1277.02 Q178.936 1280.56 178.936 1287.69 Q178.936 1294.79 180.741 1298.36 Q182.57 1301.9 186.181 1301.9 Q189.815 1301.9 191.621 1298.36 Q193.45 1294.79 193.45 1287.69 Q193.45 1280.56 191.621 1277.02 Q189.815 1273.45 186.181 1273.45 M186.181 1269.75 Q191.991 1269.75 195.047 1274.35 Q198.125 1278.94 198.125 1287.69 Q198.125 1296.41 195.047 1301.02 Q191.991 1305.6 186.181 1305.6 Q180.371 1305.6 177.292 1301.02 Q174.237 1296.41 174.237 1287.69 Q174.237 1278.94 177.292 1274.35 Q180.371 1269.75 186.181 1269.75 Z" fill="#000000" fill-rule="nonzero" fill-opacity="1"></path><path clip-path="url(#clip080)" d="M216.343 1273.45 Q212.732 1273.45 210.903 1277.02 Q209.098 1280.56 209.098 1287.69 Q209.098 1294.79 210.903 1298.36 Q212.732 1301.9 216.343 1301.9 Q219.977 1301.9 221.783 1298.36 Q223.611 1294.79 223.611 1287.69 Q223.611 1280.56 221.783 1277.02 Q219.977 1273.45 216.343 1273.45 M216.343 1269.75 Q222.153 1269.75 225.209 1274.35 Q228.287 1278.94 228.287 1287.69 Q228.287 1296.41 225.209 1301.02 Q222.153 1305.6 216.343 1305.6 Q210.533 1305.6 207.454 1301.02 Q204.399 1296.41 204.399 1287.69 Q204.399 1278.94 207.454 1274.35 Q210.533 1269.75 216.343 1269.75 Z" fill="#000000" fill-rule="nonzero" fill-opacity="1"></path><path clip-path="url(#clip080)" d="M119.885 1094.29 L136.204 1094.29 L136.204 1098.22 L114.26 1098.22 L114.26 1094.29 Q116.922 1091.53 121.505 1086.9 Q126.112 1082.25 127.292 1080.91 Q129.538 1078.38 130.417 1076.65 Q131.32 1074.89 131.32 1073.2 Q131.32 1070.44 129.376 1068.71 Q127.455 1066.97 124.353 1066.97 Q122.154 1066.97 119.7 1067.74 Q117.269 1068.5 114.492 1070.05 L114.492 1065.33 Q117.316 1064.19 119.769 1063.62 Q122.223 1063.04 124.26 1063.04 Q129.63 1063.04 132.825 1065.72 Q136.019 1068.41 136.019 1072.9 Q136.019 1075.03 135.209 1076.95 Q134.422 1078.85 132.316 1081.44 Q131.737 1082.11 128.635 1085.33 Q125.533 1088.52 119.885 1094.29 Z" fill="#000000" fill-rule="nonzero" fill-opacity="1"></path><path clip-path="url(#clip080)" d="M150.047 1094.29 L166.366 1094.29 L166.366 1098.22 L144.422 1098.22 L144.422 1094.29 Q147.084 1091.53 151.667 1086.9 Q156.274 1082.25 157.454 1080.91 Q159.7 1078.38 160.579 1076.65 Q161.482 1074.89 161.482 1073.2 Q161.482 1070.44 159.538 1068.71 Q157.616 1066.97 154.515 1066.97 Q152.316 1066.97 149.862 1067.74 Q147.431 1068.5 144.654 1070.05 L144.654 1065.33 Q147.478 1064.19 149.931 1063.62 Q152.385 1063.04 154.422 1063.04 Q159.792 1063.04 162.987 1065.72 Q166.181 1068.41 166.181 1072.9 Q166.181 1075.03 165.371 1076.95 Q164.584 1078.85 162.477 1081.44 Q161.899 1082.11 158.797 1085.33 Q155.695 1088.52 150.047 1094.29 Z" fill="#000000" fill-rule="nonzero" fill-opacity="1"></path><path clip-path="url(#clip080)" d="M176.227 1063.66 L194.584 1063.66 L194.584 1067.6 L180.51 1067.6 L180.51 1076.07 Q181.528 1075.72 182.547 1075.56 Q183.565 1075.37 184.584 1075.37 Q190.371 1075.37 193.75 1078.55 Q197.13 1081.72 197.13 1087.13 Q197.13 1092.71 193.658 1095.81 Q190.186 1098.89 183.866 1098.89 Q181.69 1098.89 179.422 1098.52 Q177.176 1098.15 174.769 1097.41 L174.769 1092.71 Q176.852 1093.85 179.075 1094.4 Q181.297 1094.96 183.774 1094.96 Q187.778 1094.96 190.116 1092.85 Q192.454 1090.74 192.454 1087.13 Q192.454 1083.52 190.116 1081.42 Q187.778 1079.31 183.774 1079.31 Q181.899 1079.31 180.024 1079.73 Q178.172 1080.14 176.227 1081.02 L176.227 1063.66 Z" fill="#000000" fill-rule="nonzero" fill-opacity="1"></path><path clip-path="url(#clip080)" d="M216.343 1066.74 Q212.732 1066.74 210.903 1070.31 Q209.098 1073.85 209.098 1080.98 Q209.098 1088.08 210.903 1091.65 Q212.732 1095.19 216.343 1095.19 Q219.977 1095.19 221.783 1091.65 Q223.611 1088.08 223.611 1080.98 Q223.611 1073.85 221.783 1070.31 Q219.977 1066.74 216.343 1066.74 M216.343 1063.04 Q222.153 1063.04 225.209 1067.64 Q228.287 1072.23 228.287 1080.98 Q228.287 1089.7 225.209 1094.31 Q222.153 1098.89 216.343 1098.89 Q210.533 1098.89 207.454 1094.31 Q204.399 1089.7 204.399 1080.98 Q204.399 1072.23 207.454 1067.64 Q210.533 1063.04 216.343 1063.04 Z" fill="#000000" fill-rule="nonzero" fill-opacity="1"></path><path clip-path="url(#clip080)" d="M119.885 887.576 L136.204 887.576 L136.204 891.511 L114.26 891.511 L114.26 887.576 Q116.922 884.821 121.505 880.192 Q126.112 875.539 127.292 874.196 Q129.538 871.673 130.417 869.937 Q131.32 868.178 131.32 866.488 Q131.32 863.733 129.376 861.997 Q127.455 860.261 124.353 860.261 Q122.154 860.261 119.7 861.025 Q117.269 861.789 114.492 863.34 L114.492 858.618 Q117.316 857.483 119.769 856.905 Q122.223 856.326 124.26 856.326 Q129.63 856.326 132.825 859.011 Q136.019 861.696 136.019 866.187 Q136.019 868.317 135.209 870.238 Q134.422 872.136 132.316 874.729 Q131.737 875.4 128.635 878.617 Q125.533 881.812 119.885 887.576 Z" fill="#000000" fill-rule="nonzero" fill-opacity="1"></path><path clip-path="url(#clip080)" d="M146.066 856.951 L164.422 856.951 L164.422 860.886 L150.348 860.886 L150.348 869.358 Q151.366 869.011 152.385 868.849 Q153.403 868.664 154.422 868.664 Q160.209 868.664 163.589 871.835 Q166.968 875.006 166.968 880.423 Q166.968 886.002 163.496 889.104 Q160.024 892.182 153.704 892.182 Q151.528 892.182 149.26 891.812 Q147.015 891.441 144.607 890.701 L144.607 886.002 Q146.691 887.136 148.913 887.691 Q151.135 888.247 153.612 888.247 Q157.616 888.247 159.954 886.141 Q162.292 884.034 162.292 880.423 Q162.292 876.812 159.954 874.705 Q157.616 872.599 153.612 872.599 Q151.737 872.599 149.862 873.016 Q148.01 873.432 146.066 874.312 L146.066 856.951 Z" fill="#000000" fill-rule="nonzero" fill-opacity="1"></path><path clip-path="url(#clip080)" d="M186.181 860.03 Q182.57 860.03 180.741 863.594 Q178.936 867.136 178.936 874.266 Q178.936 881.372 180.741 884.937 Q182.57 888.479 186.181 888.479 Q189.815 888.479 191.621 884.937 Q193.45 881.372 193.45 874.266 Q193.45 867.136 191.621 863.594 Q189.815 860.03 186.181 860.03 M186.181 856.326 Q191.991 856.326 195.047 860.932 Q198.125 865.516 198.125 874.266 Q198.125 882.992 195.047 887.599 Q191.991 892.182 186.181 892.182 Q180.371 892.182 177.292 887.599 Q174.237 882.992 174.237 874.266 Q174.237 865.516 177.292 860.932 Q180.371 856.326 186.181 856.326 Z" fill="#000000" fill-rule="nonzero" fill-opacity="1"></path><path clip-path="url(#clip080)" d="M216.343 860.03 Q212.732 860.03 210.903 863.594 Q209.098 867.136 209.098 874.266 Q209.098 881.372 210.903 884.937 Q212.732 888.479 216.343 888.479 Q219.977 888.479 221.783 884.937 Q223.611 881.372 223.611 874.266 Q223.611 867.136 221.783 863.594 Q219.977 860.03 216.343 860.03 M216.343 856.326 Q222.153 856.326 225.209 860.932 Q228.287 865.516 228.287 874.266 Q228.287 882.992 225.209 887.599 Q222.153 892.182 216.343 892.182 Q210.533 892.182 207.454 887.599 Q204.399 882.992 204.399 874.266 Q204.399 865.516 207.454 860.932 Q210.533 856.326 216.343 856.326 Z" fill="#000000" fill-rule="nonzero" fill-opacity="1"></path><path clip-path="url(#clip080)" d="M119.885 680.865 L136.204 680.865 L136.204 684.8 L114.26 684.8 L114.26 680.865 Q116.922 678.11 121.505 673.481 Q126.112 668.828 127.292 667.486 Q129.538 664.962 130.417 663.226 Q131.32 661.467 131.32 659.777 Q131.32 657.023 129.376 655.287 Q127.455 653.55 124.353 653.55 Q122.154 653.55 119.7 654.314 Q117.269 655.078 114.492 656.629 L114.492 651.907 Q117.316 650.773 119.769 650.194 Q122.223 649.615 124.26 649.615 Q129.63 649.615 132.825 652.3 Q136.019 654.986 136.019 659.476 Q136.019 661.606 135.209 663.527 Q134.422 665.425 132.316 668.018 Q131.737 668.689 128.635 671.907 Q125.533 675.101 119.885 680.865 Z" fill="#000000" fill-rule="nonzero" fill-opacity="1"></path><path clip-path="url(#clip080)" d="M144.839 650.24 L167.061 650.24 L167.061 652.231 L154.515 684.8 L149.63 684.8 L161.436 654.175 L144.839 654.175 L144.839 650.24 Z" fill="#000000" fill-rule="nonzero" fill-opacity="1"></path><path clip-path="url(#clip080)" d="M176.227 650.24 L194.584 650.24 L194.584 654.175 L180.51 654.175 L180.51 662.648 Q181.528 662.3 182.547 662.138 Q183.565 661.953 184.584 661.953 Q190.371 661.953 193.75 665.124 Q197.13 668.296 197.13 673.712 Q197.13 679.291 193.658 682.393 Q190.186 685.472 183.866 685.472 Q181.69 685.472 179.422 685.101 Q177.176 684.731 174.769 683.99 L174.769 679.291 Q176.852 680.425 179.075 680.981 Q181.297 681.536 183.774 681.536 Q187.778 681.536 190.116 679.43 Q192.454 677.323 192.454 673.712 Q192.454 670.101 190.116 667.995 Q187.778 665.888 183.774 665.888 Q181.899 665.888 180.024 666.305 Q178.172 666.722 176.227 667.601 L176.227 650.24 Z" fill="#000000" fill-rule="nonzero" fill-opacity="1"></path><path clip-path="url(#clip080)" d="M216.343 653.319 Q212.732 653.319 210.903 656.884 Q209.098 660.425 209.098 667.555 Q209.098 674.661 210.903 678.226 Q212.732 681.768 216.343 681.768 Q219.977 681.768 221.783 678.226 Q223.611 674.661 223.611 667.555 Q223.611 660.425 221.783 656.884 Q219.977 653.319 216.343 653.319 M216.343 649.615 Q222.153 649.615 225.209 654.222 Q228.287 658.805 228.287 667.555 Q228.287 676.282 225.209 680.888 Q222.153 685.472 216.343 685.472 Q210.533 685.472 207.454 680.888 Q204.399 676.282 204.399 667.555 Q204.399 658.805 207.454 654.222 Q210.533 649.615 216.343 649.615 Z" fill="#000000" fill-rule="nonzero" fill-opacity="1"></path><path clip-path="url(#clip080)" d="M130.024 459.455 Q133.38 460.173 135.255 462.442 Q137.154 464.71 137.154 468.043 Q137.154 473.159 133.635 475.96 Q130.117 478.761 123.635 478.761 Q121.459 478.761 119.144 478.321 Q116.853 477.904 114.399 477.048 L114.399 472.534 Q116.343 473.668 118.658 474.247 Q120.973 474.826 123.496 474.826 Q127.894 474.826 130.186 473.09 Q132.501 471.354 132.501 468.043 Q132.501 464.988 130.348 463.275 Q128.218 461.539 124.399 461.539 L120.371 461.539 L120.371 457.696 L124.584 457.696 Q128.033 457.696 129.862 456.33 Q131.691 454.942 131.691 452.349 Q131.691 449.687 129.792 448.275 Q127.917 446.84 124.399 446.84 Q122.478 446.84 120.279 447.256 Q118.08 447.673 115.441 448.553 L115.441 444.386 Q118.103 443.645 120.418 443.275 Q122.755 442.905 124.816 442.905 Q130.14 442.905 133.242 445.335 Q136.343 447.743 136.343 451.863 Q136.343 454.733 134.7 456.724 Q133.056 458.692 130.024 459.455 Z" fill="#000000" fill-rule="nonzero" fill-opacity="1"></path><path clip-path="url(#clip080)" d="M156.019 446.608 Q152.408 446.608 150.579 450.173 Q148.774 453.715 148.774 460.844 Q148.774 467.951 150.579 471.516 Q152.408 475.057 156.019 475.057 Q159.653 475.057 161.459 471.516 Q163.288 467.951 163.288 460.844 Q163.288 453.715 161.459 450.173 Q159.653 446.608 156.019 446.608 M156.019 442.905 Q161.829 442.905 164.885 447.511 Q167.964 452.094 167.964 460.844 Q167.964 469.571 164.885 474.178 Q161.829 478.761 156.019 478.761 Q150.209 478.761 147.13 474.178 Q144.075 469.571 144.075 460.844 Q144.075 452.094 147.13 447.511 Q150.209 442.905 156.019 442.905 Z" fill="#000000" fill-rule="nonzero" fill-opacity="1"></path><path clip-path="url(#clip080)" d="M186.181 446.608 Q182.57 446.608 180.741 450.173 Q178.936 453.715 178.936 460.844 Q178.936 467.951 180.741 471.516 Q182.57 475.057 186.181 475.057 Q189.815 475.057 191.621 471.516 Q193.45 467.951 193.45 460.844 Q193.45 453.715 191.621 450.173 Q189.815 446.608 186.181 446.608 M186.181 442.905 Q191.991 442.905 195.047 447.511 Q198.125 452.094 198.125 460.844 Q198.125 469.571 195.047 474.178 Q191.991 478.761 186.181 478.761 Q180.371 478.761 177.292 474.178 Q174.237 469.571 174.237 460.844 Q174.237 452.094 177.292 447.511 Q180.371 442.905 186.181 442.905 Z" fill="#000000" fill-rule="nonzero" fill-opacity="1"></path><path clip-path="url(#clip080)" d="M216.343 446.608 Q212.732 446.608 210.903 450.173 Q209.098 453.715 209.098 460.844 Q209.098 467.951 210.903 471.516 Q212.732 475.057 216.343 475.057 Q219.977 475.057 221.783 471.516 Q223.611 467.951 223.611 460.844 Q223.611 453.715 221.783 450.173 Q219.977 446.608 216.343 446.608 M216.343 442.905 Q222.153 442.905 225.209 447.511 Q228.287 452.094 228.287 460.844 Q228.287 469.571 225.209 474.178 Q222.153 478.761 216.343 478.761 Q210.533 478.761 207.454 474.178 Q204.399 469.571 204.399 460.844 Q204.399 452.094 207.454 447.511 Q210.533 442.905 216.343 442.905 Z" fill="#000000" fill-rule="nonzero" fill-opacity="1"></path><path clip-path="url(#clip080)" d="M130.024 252.745 Q133.38 253.462 135.255 255.731 Q137.154 257.999 137.154 261.333 Q137.154 266.448 133.635 269.249 Q130.117 272.05 123.635 272.05 Q121.459 272.05 119.144 271.61 Q116.853 271.194 114.399 270.337 L114.399 265.823 Q116.343 266.958 118.658 267.536 Q120.973 268.115 123.496 268.115 Q127.894 268.115 130.186 266.379 Q132.501 264.643 132.501 261.333 Q132.501 258.277 130.348 256.564 Q128.218 254.828 124.399 254.828 L120.371 254.828 L120.371 250.986 L124.584 250.986 Q128.033 250.986 129.862 249.62 Q131.691 248.231 131.691 245.638 Q131.691 242.976 129.792 241.564 Q127.917 240.129 124.399 240.129 Q122.478 240.129 120.279 240.546 Q118.08 240.962 115.441 241.842 L115.441 237.675 Q118.103 236.935 120.418 236.564 Q122.755 236.194 124.816 236.194 Q130.14 236.194 133.242 238.624 Q136.343 241.032 136.343 245.152 Q136.343 248.023 134.7 250.013 Q133.056 251.981 130.024 252.745 Z" fill="#000000" fill-rule="nonzero" fill-opacity="1"></path><path clip-path="url(#clip080)" d="M150.047 267.444 L166.366 267.444 L166.366 271.379 L144.422 271.379 L144.422 267.444 Q147.084 264.689 151.667 260.06 Q156.274 255.407 157.454 254.064 Q159.7 251.541 160.579 249.805 Q161.482 248.046 161.482 246.356 Q161.482 243.601 159.538 241.865 Q157.616 240.129 154.515 240.129 Q152.316 240.129 149.862 240.893 Q147.431 241.657 144.654 243.208 L144.654 238.486 Q147.478 237.351 149.931 236.773 Q152.385 236.194 154.422 236.194 Q159.792 236.194 162.987 238.879 Q166.181 241.564 166.181 246.055 Q166.181 248.185 165.371 250.106 Q164.584 252.004 162.477 254.597 Q161.899 255.268 158.797 258.485 Q155.695 261.68 150.047 267.444 Z" fill="#000000" fill-rule="nonzero" fill-opacity="1"></path><path clip-path="url(#clip080)" d="M176.227 236.819 L194.584 236.819 L194.584 240.754 L180.51 240.754 L180.51 249.226 Q181.528 248.879 182.547 248.717 Q183.565 248.532 184.584 248.532 Q190.371 248.532 193.75 251.703 Q197.13 254.874 197.13 260.291 Q197.13 265.87 193.658 268.972 Q190.186 272.05 183.866 272.05 Q181.69 272.05 179.422 271.68 Q177.176 271.309 174.769 270.569 L174.769 265.87 Q176.852 267.004 179.075 267.56 Q181.297 268.115 183.774 268.115 Q187.778 268.115 190.116 266.009 Q192.454 263.902 192.454 260.291 Q192.454 256.68 190.116 254.573 Q187.778 252.467 183.774 252.467 Q181.899 252.467 180.024 252.884 Q178.172 253.3 176.227 254.18 L176.227 236.819 Z" fill="#000000" fill-rule="nonzero" fill-opacity="1"></path><path clip-path="url(#clip080)" d="M216.343 239.898 Q212.732 239.898 210.903 243.462 Q209.098 247.004 209.098 254.134 Q209.098 261.24 210.903 264.805 Q212.732 268.347 216.343 268.347 Q219.977 268.347 221.783 264.805 Q223.611 261.24 223.611 254.134 Q223.611 247.004 221.783 243.462 Q219.977 239.898 216.343 239.898 M216.343 236.194 Q222.153 236.194 225.209 240.8 Q228.287 245.384 228.287 254.134 Q228.287 262.86 225.209 267.467 Q222.153 272.05 216.343 272.05 Q210.533 272.05 207.454 267.467 Q204.399 262.86 204.399 254.134 Q204.399 245.384 207.454 240.8 Q210.533 236.194 216.343 236.194 Z" fill="#000000" fill-rule="nonzero" fill-opacity="1"></path><path clip-path="url(#clip080)" d="M16.4842 1105.34 L16.4842 1075.3 L21.895 1075.3 L21.895 1098.91 L35.9632 1098.91 L35.9632 1076.28 L41.3741 1076.28 L41.3741 1098.91 L58.5933 1098.91 L58.5933 1074.72 L64.0042 1074.72 L64.0042 1105.34 L16.4842 1105.34 Z" fill="#000000" fill-rule="nonzero" fill-opacity="1"></path><path clip-path="url(#clip080)" d="M14.479 1064.41 L14.479 1058.55 L64.0042 1058.55 L64.0042 1064.41 L14.479 1064.41 Z" fill="#000000" fill-rule="nonzero" fill-opacity="1"></path><path clip-path="url(#clip080)" d="M44.7161 1015.81 L47.5806 1015.81 L47.5806 1042.74 Q53.6281 1042.35 56.8109 1039.11 Q59.9619 1035.83 59.9619 1030 Q59.9619 1026.63 59.1344 1023.48 Q58.3069 1020.3 56.6518 1017.18 L62.1899 1017.18 Q63.5267 1020.33 64.227 1023.64 Q64.9272 1026.95 64.9272 1030.35 Q64.9272 1038.88 59.9619 1043.88 Q54.9967 1048.85 46.5303 1048.85 Q37.7774 1048.85 32.6531 1044.14 Q27.4968 1039.39 27.4968 1031.37 Q27.4968 1024.18 32.1438 1020.01 Q36.7589 1015.81 44.7161 1015.81 M42.9973 1021.66 Q38.1912 1021.73 35.3266 1024.37 Q32.4621 1026.98 32.4621 1031.31 Q32.4621 1036.21 35.2312 1039.17 Q38.0002 1042.1 43.0292 1042.54 L42.9973 1021.66 Z" fill="#000000" fill-rule="nonzero" fill-opacity="1"></path><path clip-path="url(#clip080)" d="M28.3562 1010.4 L28.3562 1004.19 L58.275 993.051 L28.3562 981.911 L28.3562 975.704 L64.0042 989.072 L64.0042 997.029 L28.3562 1010.4 Z" fill="#000000" fill-rule="nonzero" fill-opacity="1"></path><path clip-path="url(#clip080)" d="M46.0847 951.419 Q46.0847 958.517 47.7079 961.254 Q49.3312 963.991 53.2461 963.991 Q56.3653 963.991 58.2114 961.954 Q60.0256 959.885 60.0256 956.352 Q60.0256 951.483 56.5881 948.554 Q53.1188 945.594 47.3897 945.594 L46.0847 945.594 L46.0847 951.419 M43.6657 939.738 L64.0042 939.738 L64.0042 945.594 L58.5933 945.594 Q61.8398 947.6 63.3994 950.591 Q64.9272 953.583 64.9272 957.912 Q64.9272 963.387 61.8716 966.633 Q58.7843 969.848 53.6281 969.848 Q47.6125 969.848 44.5569 965.837 Q41.5014 961.795 41.5014 953.806 L41.5014 945.594 L40.9285 945.594 Q36.8862 945.594 34.6901 948.268 Q32.4621 950.91 32.4621 955.716 Q32.4621 958.771 33.1941 961.668 Q33.9262 964.564 35.3903 967.238 L29.9795 967.238 Q28.7381 964.023 28.1334 960.999 Q27.4968 957.976 27.4968 955.111 Q27.4968 947.377 31.5072 943.557 Q35.5176 939.738 43.6657 939.738 Z" fill="#000000" fill-rule="nonzero" fill-opacity="1"></path><path clip-path="url(#clip080)" d="M18.2347 921.882 L28.3562 921.882 L28.3562 909.819 L32.9077 909.819 L32.9077 921.882 L52.2594 921.882 Q56.6199 921.882 57.8613 920.704 Q59.1026 919.495 59.1026 915.835 L59.1026 909.819 L64.0042 909.819 L64.0042 915.835 Q64.0042 922.614 61.4897 925.192 Q58.9434 927.77 52.2594 927.77 L32.9077 927.77 L32.9077 932.067 L28.3562 932.067 L28.3562 927.77 L18.2347 927.77 L18.2347 921.882 Z" fill="#000000" fill-rule="nonzero" fill-opacity="1"></path><path clip-path="url(#clip080)" d="M28.3562 902.117 L28.3562 896.26 L64.0042 896.26 L64.0042 902.117 L28.3562 902.117 M14.479 902.117 L14.479 896.26 L21.895 896.26 L21.895 902.117 L14.479 902.117 Z" fill="#000000" fill-rule="nonzero" fill-opacity="1"></path><path clip-path="url(#clip080)" d="M32.4621 870.193 Q32.4621 874.903 36.1542 877.64 Q39.8145 880.378 46.212 880.378 Q52.6095 880.378 56.3017 877.672 Q59.9619 874.935 59.9619 870.193 Q59.9619 865.514 56.2698 862.777 Q52.5777 860.039 46.212 860.039 Q39.8781 860.039 36.186 862.777 Q32.4621 865.514 32.4621 870.193 M27.4968 870.193 Q27.4968 862.554 32.4621 858.193 Q37.4273 853.833 46.212 853.833 Q54.9649 853.833 59.9619 858.193 Q64.9272 862.554 64.9272 870.193 Q64.9272 877.863 59.9619 882.224 Q54.9649 886.552 46.212 886.552 Q37.4273 886.552 32.4621 882.224 Q27.4968 877.863 27.4968 870.193 Z" fill="#000000" fill-rule="nonzero" fill-opacity="1"></path><path clip-path="url(#clip080)" d="M42.4881 814.493 L64.0042 814.493 L64.0042 820.349 L42.679 820.349 Q37.6183 820.349 35.1038 822.322 Q32.5894 824.296 32.5894 828.243 Q32.5894 832.985 35.6131 835.722 Q38.6368 838.46 43.8567 838.46 L64.0042 838.46 L64.0042 844.348 L28.3562 844.348 L28.3562 838.46 L33.8944 838.46 Q30.6797 836.359 29.0883 833.526 Q27.4968 830.662 27.4968 826.938 Q27.4968 820.795 31.3163 817.644 Q35.1038 814.493 42.4881 814.493 Z" fill="#000000" fill-rule="nonzero" fill-opacity="1"></path><path clip-path="url(#clip080)" d="M14.5426 768.023 Q21.8632 772.288 29.0246 774.357 Q36.186 776.426 43.5384 776.426 Q50.8908 776.426 58.1159 774.357 Q65.3091 772.256 72.5979 768.023 L72.5979 773.116 Q65.1182 777.89 57.8931 780.277 Q50.668 782.632 43.5384 782.632 Q36.4406 782.632 29.2474 780.277 Q22.0542 777.922 14.5426 773.116 L14.5426 768.023 Z" fill="#000000" fill-rule="nonzero" fill-opacity="1"></path><path clip-path="url(#clip080)" d="M35.1993 728.906 Q31.2526 726.71 29.3747 723.654 Q27.4968 720.598 27.4968 716.461 Q27.4968 710.891 31.4117 707.867 Q35.2948 704.843 42.4881 704.843 L64.0042 704.843 L64.0042 710.732 L42.679 710.732 Q37.5546 710.732 35.072 712.546 Q32.5894 714.36 32.5894 718.084 Q32.5894 722.635 35.6131 725.277 Q38.6368 727.919 43.8567 727.919 L64.0042 727.919 L64.0042 733.807 L42.679 733.807 Q37.5228 733.807 35.072 735.622 Q32.5894 737.436 32.5894 741.223 Q32.5894 745.711 35.6449 748.353 Q38.6686 750.995 43.8567 750.995 L64.0042 750.995 L64.0042 756.883 L28.3562 756.883 L28.3562 750.995 L33.8944 750.995 Q30.616 748.99 29.0564 746.189 Q27.4968 743.388 27.4968 739.536 Q27.4968 735.653 29.4702 732.948 Q31.4436 730.211 35.1993 728.906 Z" fill="#000000" fill-rule="nonzero" fill-opacity="1"></path><path clip-path="url(#clip080)" d="M55.9197 692.335 L55.9197 685.619 L64.0042 685.619 L64.0042 692.335 L55.9197 692.335 Z" fill="#000000" fill-rule="nonzero" fill-opacity="1"></path><path clip-path="url(#clip080)" d="M46.0847 656.241 Q46.0847 663.339 47.7079 666.076 Q49.3312 668.813 53.2461 668.813 Q56.3653 668.813 58.2114 666.776 Q60.0256 664.708 60.0256 661.175 Q60.0256 656.305 56.5881 653.377 Q53.1188 650.417 47.3897 650.417 L46.0847 650.417 L46.0847 656.241 M43.6657 644.56 L64.0042 644.56 L64.0042 650.417 L58.5933 650.417 Q61.8398 652.422 63.3994 655.414 Q64.9272 658.406 64.9272 662.734 Q64.9272 668.209 61.8716 671.455 Q58.7843 674.67 53.6281 674.67 Q47.6125 674.67 44.5569 670.66 Q41.5014 666.617 41.5014 658.628 L41.5014 650.417 L40.9285 650.417 Q36.8862 650.417 34.6901 653.09 Q32.4621 655.732 32.4621 660.538 Q32.4621 663.594 33.1941 666.49 Q33.9262 669.386 35.3903 672.06 L29.9795 672.06 Q28.7381 668.845 28.1334 665.822 Q27.4968 662.798 27.4968 659.933 Q27.4968 652.199 31.5072 648.38 Q35.5176 644.56 43.6657 644.56 Z" fill="#000000" fill-rule="nonzero" fill-opacity="1"></path><path clip-path="url(#clip080)" d="M55.9197 631.67 L55.9197 624.954 L64.0042 624.954 L64.0042 631.67 L55.9197 631.67 Z" fill="#000000" fill-rule="nonzero" fill-opacity="1"></path><path clip-path="url(#clip080)" d="M29.4065 589.051 L34.9447 589.051 Q33.6716 591.534 33.035 594.207 Q32.3984 596.881 32.3984 599.746 Q32.3984 604.106 33.7352 606.302 Q35.072 608.467 37.7456 608.467 Q39.7826 608.467 40.9603 606.907 Q42.1061 605.347 43.1565 600.637 L43.6021 598.632 Q44.9389 592.393 47.3897 589.783 Q49.8086 587.141 54.1691 587.141 Q59.1344 587.141 62.0308 591.088 Q64.9272 595.003 64.9272 601.878 Q64.9272 604.743 64.3543 607.862 Q63.8132 610.949 62.6992 614.387 L56.6518 614.387 Q58.3387 611.14 59.198 607.989 Q60.0256 604.838 60.0256 601.751 Q60.0256 597.613 58.6251 595.385 Q57.1929 593.157 54.6147 593.157 Q52.2276 593.157 50.9545 594.78 Q49.6813 596.372 48.5037 601.814 L48.0262 603.851 Q46.8804 609.294 44.5251 611.713 Q42.138 614.132 38.0002 614.132 Q32.9713 614.132 30.2341 610.567 Q27.4968 607.002 27.4968 600.446 Q27.4968 597.199 27.9743 594.335 Q28.4517 591.47 29.4065 589.051 Z" fill="#000000" fill-rule="nonzero" fill-opacity="1"></path><path clip-path="url(#clip080)" d="M55.9197 576.988 L55.9197 570.272 L64.0042 570.272 L64.0042 576.988 L55.9197 576.988 Z" fill="#000000" fill-rule="nonzero" fill-opacity="1"></path><path clip-path="url(#clip080)" d="M14.479 557.095 L14.479 551.239 L64.0042 551.239 L64.0042 557.095 L14.479 557.095 Z" fill="#000000" fill-rule="nonzero" fill-opacity="1"></path><path clip-path="url(#clip080)" d="M55.9197 538.157 L55.9197 531.442 L64.0042 531.442 L64.0042 538.157 L55.9197 538.157 Z" fill="#000000" fill-rule="nonzero" fill-opacity="1"></path><path clip-path="url(#clip080)" d="M14.5426 519.188 L14.5426 514.095 Q22.0542 509.321 29.2474 506.965 Q36.4406 504.578 43.5384 504.578 Q50.668 504.578 57.8931 506.965 Q65.1182 509.321 72.5979 514.095 L72.5979 519.188 Q65.3091 514.954 58.1159 512.885 Q50.8908 510.785 43.5384 510.785 Q36.186 510.785 29.0246 512.885 Q21.8632 514.954 14.5426 519.188 Z" fill="#000000" fill-rule="nonzero" fill-opacity="1"></path><path clip-path="url(#clip080)" d="M487.991 12.096 L522.747 12.096 L522.747 18.9825 L496.174 18.9825 L496.174 36.8065 L520.155 36.8065 L520.155 43.6931 L496.174 43.6931 L496.174 72.576 L487.991 72.576 L487.991 12.096 Z" fill="#000000" fill-rule="nonzero" fill-opacity="1"></path><path clip-path="url(#clip080)" d="M555.641 34.1734 Q554.385 33.4443 552.886 33.1202 Q551.428 32.7556 549.645 32.7556 Q543.326 32.7556 539.923 36.8875 Q536.561 40.9789 536.561 48.6757 L536.561 72.576 L529.067 72.576 L529.067 27.2059 L536.561 27.2059 L536.561 34.2544 Q538.911 30.1225 542.678 28.1376 Q546.445 26.1121 551.833 26.1121 Q552.603 26.1121 553.534 26.2337 Q554.466 26.3147 555.6 26.5172 L555.641 34.1734 Z" fill="#000000" fill-rule="nonzero" fill-opacity="1"></path><path clip-path="url(#clip080)" d="M586.995 19.2256 L566.335 51.5113 L586.995 51.5113 L586.995 19.2256 M584.848 12.096 L595.137 12.096 L595.137 51.5113 L603.766 51.5113 L603.766 58.3168 L595.137 58.3168 L595.137 72.576 L586.995 72.576 L586.995 58.3168 L559.692 58.3168 L559.692 50.4176 L584.848 12.096 Z" fill="#000000" fill-rule="nonzero" fill-opacity="1"></path><path clip-path="url(#clip080)" d="M616.566 12.096 L627.585 12.096 L654.402 62.6918 L654.402 12.096 L662.342 12.096 L662.342 72.576 L651.323 72.576 L624.506 21.9802 L624.506 72.576 L616.566 72.576 L616.566 12.096 Z" fill="#000000" fill-rule="nonzero" fill-opacity="1"></path><path clip-path="url(#clip080)" d="M696.855 17.4837 Q690.536 17.4837 687.336 23.7221 Q684.176 29.92 684.176 42.3968 Q684.176 54.833 687.336 61.0714 Q690.536 67.2693 696.855 67.2693 Q703.215 67.2693 706.375 61.0714 Q709.575 54.833 709.575 42.3968 Q709.575 29.92 706.375 23.7221 Q703.215 17.4837 696.855 17.4837 M696.855 11.0023 Q707.023 11.0023 712.37 19.0636 Q717.758 27.0843 717.758 42.3968 Q717.758 57.6687 712.37 65.73 Q707.023 73.7508 696.855 73.7508 Q686.688 73.7508 681.3 65.73 Q675.953 57.6687 675.953 42.3968 Q675.953 27.0843 681.3 19.0636 Q686.688 11.0023 696.855 11.0023 Z" fill="#000000" fill-rule="nonzero" fill-opacity="1"></path><path clip-path="url(#clip080)" d="M733.557 65.6895 L746.925 65.6895 L746.925 19.5497 L732.382 22.4663 L732.382 15.0127 L746.843 12.096 L755.026 12.096 L755.026 65.6895 L768.394 65.6895 L768.394 72.576 L733.557 72.576 L733.557 65.6895 Z" fill="#000000" fill-rule="nonzero" fill-opacity="1"></path><path clip-path="url(#clip080)" d="M786.34 65.6895 L799.708 65.6895 L799.708 19.5497 L785.165 22.4663 L785.165 15.0127 L799.627 12.096 L807.81 12.096 L807.81 65.6895 L821.178 65.6895 L821.178 72.576 L786.34 72.576 L786.34 65.6895 Z" fill="#000000" fill-rule="nonzero" fill-opacity="1"></path><path clip-path="url(#clip080)" d="M856.218 39.075 Q850.709 39.075 847.468 42.8424 Q844.268 46.6097 844.268 53.1722 Q844.268 59.6941 847.468 63.502 Q850.709 67.2693 856.218 67.2693 Q861.727 67.2693 864.927 63.502 Q868.168 59.6941 868.168 53.1722 Q868.168 46.6097 864.927 42.8424 Q861.727 39.075 856.218 39.075 M872.462 13.4328 L872.462 20.8865 Q869.383 19.4281 866.224 18.6585 Q863.104 17.8888 860.026 17.8888 Q851.924 17.8888 847.63 23.3575 Q843.377 28.8262 842.769 39.8852 Q845.159 36.3609 848.764 34.4975 Q852.37 32.5936 856.704 32.5936 Q865.819 32.5936 871.085 38.1433 Q876.391 43.6525 876.391 53.1722 Q876.391 62.4892 870.882 68.12 Q865.373 73.7508 856.218 73.7508 Q845.726 73.7508 840.176 65.73 Q834.627 57.6687 834.627 42.3968 Q834.627 28.0566 841.432 19.5497 Q848.238 11.0023 859.702 11.0023 Q862.78 11.0023 865.9 11.6099 Q869.059 12.2175 872.462 13.4328 Z" fill="#000000" fill-rule="nonzero" fill-opacity="1"></path><path clip-path="url(#clip080)" d="M897.537 65.6895 L926.096 65.6895 L926.096 72.576 L887.693 72.576 L887.693 65.6895 Q892.352 60.8689 900.373 52.7671 Q908.434 44.6248 910.5 42.2752 Q914.429 37.8598 915.969 34.8216 Q917.549 31.7429 917.549 28.7857 Q917.549 23.9651 914.146 20.927 Q910.784 17.8888 905.355 17.8888 Q901.507 17.8888 897.213 19.2256 Q892.96 20.5624 888.099 23.2765 L888.099 15.0127 Q893.041 13.0277 897.335 12.015 Q901.629 11.0023 905.193 11.0023 Q914.591 11.0023 920.182 15.7013 Q925.772 20.4004 925.772 28.2591 Q925.772 31.9859 924.354 35.3482 Q922.977 38.6699 919.29 43.2069 Q918.278 44.3817 912.85 50.0125 Q907.421 55.6027 897.537 65.6895 Z" fill="#000000" fill-rule="nonzero" fill-opacity="1"></path><path clip-path="url(#clip080)" d="M950.725 43.6931 L950.725 65.8515 L963.85 65.8515 Q970.453 65.8515 973.613 63.1374 Q976.813 60.3828 976.813 54.752 Q976.813 49.0808 973.613 46.4072 Q970.453 43.6931 963.85 43.6931 L950.725 43.6931 M950.725 18.8205 L950.725 37.0496 L962.838 37.0496 Q968.833 37.0496 971.75 34.8216 Q974.707 32.5531 974.707 27.935 Q974.707 23.3575 971.75 21.089 Q968.833 18.8205 962.838 18.8205 L950.725 18.8205 M942.543 12.096 L963.445 12.096 Q972.803 12.096 977.867 15.9849 Q982.93 19.8737 982.93 27.0438 Q982.93 32.5936 980.338 35.8748 Q977.745 39.156 972.722 39.9662 Q978.758 41.2625 982.079 45.3944 Q985.442 49.4858 985.442 55.6432 Q985.442 63.745 979.933 68.1605 Q974.423 72.576 964.256 72.576 L942.543 72.576 L942.543 12.096 Z" fill="#000000" fill-rule="nonzero" fill-opacity="1"></path><path clip-path="url(#clip080)" d="M1017.69 17.4837 Q1011.37 17.4837 1008.17 23.7221 Q1005.01 29.92 1005.01 42.3968 Q1005.01 54.833 1008.17 61.0714 Q1011.37 67.2693 1017.69 67.2693 Q1024.05 67.2693 1027.21 61.0714 Q1030.41 54.833 1030.41 42.3968 Q1030.41 29.92 1027.21 23.7221 Q1024.05 17.4837 1017.69 17.4837 M1017.69 11.0023 Q1027.85 11.0023 1033.2 19.0636 Q1038.59 27.0843 1038.59 42.3968 Q1038.59 57.6687 1033.2 65.73 Q1027.85 73.7508 1017.69 73.7508 Q1007.52 73.7508 1002.13 65.73 Q996.784 57.6687 996.784 42.3968 Q996.784 27.0843 1002.13 19.0636 Q1007.52 11.0023 1017.69 11.0023 Z" fill="#000000" fill-rule="nonzero" fill-opacity="1"></path><path clip-path="url(#clip080)" d="M1053.21 71.3202 L1053.21 63.8666 Q1056.29 65.3249 1059.45 66.0946 Q1062.61 66.8642 1065.65 66.8642 Q1073.75 66.8642 1078 61.436 Q1082.3 55.9673 1082.91 44.8678 Q1080.56 48.3516 1076.95 50.215 Q1073.35 52.0784 1068.97 52.0784 Q1059.9 52.0784 1054.59 46.6097 Q1049.32 41.1005 1049.32 31.5808 Q1049.32 22.2638 1054.83 16.633 Q1060.34 11.0023 1069.5 11.0023 Q1079.99 11.0023 1085.5 19.0636 Q1091.05 27.0843 1091.05 42.3968 Q1091.05 56.6965 1084.24 65.2439 Q1077.48 73.7508 1066.01 73.7508 Q1062.94 73.7508 1059.78 73.1431 Q1056.62 72.5355 1053.21 71.3202 M1069.5 45.678 Q1075.01 45.678 1078.21 41.9107 Q1081.45 38.1433 1081.45 31.5808 Q1081.45 25.0589 1078.21 21.2916 Q1075.01 17.4837 1069.5 17.4837 Q1063.99 17.4837 1060.75 21.2916 Q1057.55 25.0589 1057.55 31.5808 Q1057.55 38.1433 1060.75 41.9107 Q1063.99 45.678 1069.5 45.678 Z" fill="#000000" fill-rule="nonzero" fill-opacity="1"></path><path clip-path="url(#clip080)" d="M1135.04 20.5624 L1135.04 43.1259 L1157.61 43.1259 L1157.61 50.0125 L1135.04 50.0125 L1135.04 72.576 L1128.24 72.576 L1128.24 50.0125 L1105.67 50.0125 L1105.67 43.1259 L1128.24 43.1259 L1128.24 20.5624 L1135.04 20.5624 Z" fill="#000000" fill-rule="nonzero" fill-opacity="1"></path><path clip-path="url(#clip080)" d="M1176.68 65.6895 L1190.05 65.6895 L1190.05 19.5497 L1175.51 22.4663 L1175.51 15.0127 L1189.97 12.096 L1198.15 12.096 L1198.15 65.6895 L1211.52 65.6895 L1211.52 72.576 L1176.68 72.576 L1176.68 65.6895 Z" fill="#000000" fill-rule="nonzero" fill-opacity="1"></path><path clip-path="url(#clip080)" d="M1228.13 12.096 L1260.26 12.096 L1260.26 18.9825 L1235.63 18.9825 L1235.63 33.8088 Q1237.41 33.2012 1239.19 32.9176 Q1240.97 32.5936 1242.76 32.5936 Q1252.88 32.5936 1258.8 38.1433 Q1264.71 43.6931 1264.71 53.1722 Q1264.71 62.9348 1258.63 68.3631 Q1252.56 73.7508 1241.5 73.7508 Q1237.69 73.7508 1233.72 73.1026 Q1229.79 72.4545 1225.58 71.1582 L1225.58 62.9348 Q1229.23 64.9198 1233.11 65.892 Q1237 66.8642 1241.34 66.8642 Q1248.35 66.8642 1252.44 63.1779 Q1256.53 59.4916 1256.53 53.1722 Q1256.53 46.8528 1252.44 43.1664 Q1248.35 39.4801 1241.34 39.4801 Q1238.06 39.4801 1234.77 40.2093 Q1231.53 40.9384 1228.13 42.4778 L1228.13 12.096 Z" fill="#000000" fill-rule="nonzero" fill-opacity="1"></path><path clip-path="url(#clip080)" d="M1303.32 19.2256 L1282.66 51.5113 L1303.32 51.5113 L1303.32 19.2256 M1301.17 12.096 L1311.46 12.096 L1311.46 51.5113 L1320.09 51.5113 L1320.09 58.3168 L1311.46 58.3168 L1311.46 72.576 L1303.32 72.576 L1303.32 58.3168 L1276.01 58.3168 L1276.01 50.4176 L1301.17 12.096 Z" fill="#000000" fill-rule="nonzero" fill-opacity="1"></path><path clip-path="url(#clip080)" d="M1341.07 18.8205 L1341.07 65.8515 L1350.95 65.8515 Q1363.47 65.8515 1369.26 60.1802 Q1375.1 54.509 1375.1 42.2752 Q1375.1 30.1225 1369.26 24.4918 Q1363.47 18.8205 1350.95 18.8205 L1341.07 18.8205 M1332.89 12.096 L1349.7 12.096 Q1367.28 12.096 1375.5 19.4281 Q1383.73 26.7198 1383.73 42.2752 Q1383.73 57.9117 1375.46 65.2439 Q1367.2 72.576 1349.7 72.576 L1332.89 72.576 L1332.89 12.096 Z" fill="#000000" fill-rule="nonzero" fill-opacity="1"></path><path clip-path="url(#clip080)" d="M1415 17.4837 Q1408.68 17.4837 1405.48 23.7221 Q1402.32 29.92 1402.32 42.3968 Q1402.32 54.833 1405.48 61.0714 Q1408.68 67.2693 1415 67.2693 Q1421.36 67.2693 1424.52 61.0714 Q1427.72 54.833 1427.72 42.3968 Q1427.72 29.92 1424.52 23.7221 Q1421.36 17.4837 1415 17.4837 M1415 11.0023 Q1425.17 11.0023 1430.51 19.0636 Q1435.9 27.0843 1435.9 42.3968 Q1435.9 57.6687 1430.51 65.73 Q1425.17 73.7508 1415 73.7508 Q1404.83 73.7508 1399.44 65.73 Q1394.1 57.6687 1394.1 42.3968 Q1394.1 27.0843 1399.44 19.0636 Q1404.83 11.0023 1415 11.0023 Z" fill="#000000" fill-rule="nonzero" fill-opacity="1"></path><path clip-path="url(#clip080)" d="M1475.07 39.9662 Q1480.95 41.222 1484.23 45.1919 Q1487.55 49.1618 1487.55 54.9951 Q1487.55 63.9476 1481.39 68.8492 Q1475.24 73.7508 1463.89 73.7508 Q1460.09 73.7508 1456.04 72.9811 Q1452.02 72.2519 1447.73 70.7531 L1447.73 62.8538 Q1451.13 64.8388 1455.18 65.8515 Q1459.24 66.8642 1463.65 66.8642 Q1471.35 66.8642 1475.36 63.826 Q1479.41 60.7879 1479.41 54.9951 Q1479.41 49.6479 1475.64 46.6502 Q1471.91 43.612 1465.23 43.612 L1458.18 43.612 L1458.18 36.8875 L1465.55 36.8875 Q1471.59 36.8875 1474.79 34.4975 Q1477.99 32.067 1477.99 27.5299 Q1477.99 22.8714 1474.67 20.4004 Q1471.39 17.8888 1465.23 17.8888 Q1461.87 17.8888 1458.02 18.618 Q1454.17 19.3471 1449.55 20.8865 L1449.55 13.5948 Q1454.21 12.2985 1458.26 11.6504 Q1462.35 11.0023 1465.96 11.0023 Q1475.28 11.0023 1480.71 15.2557 Q1486.13 19.4686 1486.13 26.6793 Q1486.13 31.7024 1483.26 35.1862 Q1480.38 38.6294 1475.07 39.9662 Z" fill="#000000" fill-rule="nonzero" fill-opacity="1"></path><path clip-path="url(#clip080)" d="M1536.89 18.8205 L1536.89 65.8515 L1546.78 65.8515 Q1559.29 65.8515 1565.09 60.1802 Q1570.92 54.509 1570.92 42.2752 Q1570.92 30.1225 1565.09 24.4918 Q1559.29 18.8205 1546.78 18.8205 L1536.89 18.8205 M1528.71 12.096 L1545.52 12.096 Q1563.1 12.096 1571.32 19.4281 Q1579.55 26.7198 1579.55 42.2752 Q1579.55 57.9117 1571.28 65.2439 Q1563.02 72.576 1545.52 72.576 L1528.71 72.576 L1528.71 12.096 Z" fill="#000000" fill-rule="nonzero" fill-opacity="1"></path><path clip-path="url(#clip080)" d="M1631.07 48.0275 L1631.07 51.6733 L1596.8 51.6733 Q1597.29 59.3701 1601.42 63.421 Q1605.59 67.4314 1613.01 67.4314 Q1617.3 67.4314 1621.31 66.3781 Q1625.36 65.3249 1629.33 63.2184 L1629.33 70.267 Q1625.32 71.9684 1621.11 72.8596 Q1616.9 73.7508 1612.56 73.7508 Q1601.71 73.7508 1595.35 67.4314 Q1589.03 61.1119 1589.03 50.3365 Q1589.03 39.1965 1595.02 32.6746 Q1601.06 26.1121 1611.27 26.1121 Q1620.42 26.1121 1625.73 32.0264 Q1631.07 37.9003 1631.07 48.0275 M1623.62 45.84 Q1623.54 39.7232 1620.18 36.0774 Q1616.86 32.4315 1611.35 32.4315 Q1605.11 32.4315 1601.34 35.9558 Q1597.61 39.4801 1597.05 45.8805 L1623.62 45.84 Z" fill="#000000" fill-rule="nonzero" fill-opacity="1"></path><path clip-path="url(#clip080)" d="M1706.26 14.0809 L1706.26 22.0612 Q1701.6 19.8332 1697.47 18.7395 Q1693.34 17.6457 1689.49 17.6457 Q1682.8 17.6457 1679.16 20.2383 Q1675.55 22.8309 1675.55 27.611 Q1675.55 31.6214 1677.94 33.6873 Q1680.37 35.7128 1687.1 36.9686 L1692.04 37.9813 Q1701.2 39.7232 1705.53 44.1387 Q1709.91 48.5136 1709.91 55.8863 Q1709.91 64.6767 1703.99 69.2137 Q1698.12 73.7508 1686.73 73.7508 Q1682.44 73.7508 1677.58 72.7785 Q1672.76 71.8063 1667.57 69.9024 L1667.57 61.4765 Q1672.56 64.2716 1677.34 65.6895 Q1682.12 67.1073 1686.73 67.1073 Q1693.74 67.1073 1697.55 64.3527 Q1701.36 61.598 1701.36 56.4939 Q1701.36 52.0379 1698.6 49.5264 Q1695.89 47.0148 1689.65 45.759 L1684.67 44.7868 Q1675.51 42.9639 1671.42 39.075 Q1667.33 35.1862 1667.33 28.2591 Q1667.33 20.2383 1672.96 15.6203 Q1678.63 11.0023 1688.56 11.0023 Q1692.81 11.0023 1697.23 11.7719 Q1701.64 12.5416 1706.26 14.0809 Z" fill="#000000" fill-rule="nonzero" fill-opacity="1"></path><path clip-path="url(#clip080)" d="M1742.96 49.7694 Q1733.93 49.7694 1730.44 51.8354 Q1726.96 53.9013 1726.96 58.8839 Q1726.96 62.8538 1729.55 65.2034 Q1732.19 67.5124 1736.68 67.5124 Q1742.88 67.5124 1746.61 63.1374 Q1750.37 58.7219 1750.37 51.4303 L1750.37 49.7694 L1742.96 49.7694 M1757.83 46.6907 L1757.83 72.576 L1750.37 72.576 L1750.37 65.6895 Q1747.82 69.8214 1744.01 71.8063 Q1740.21 73.7508 1734.7 73.7508 Q1727.73 73.7508 1723.6 69.8619 Q1719.51 65.9325 1719.51 59.3701 Q1719.51 51.7138 1724.61 47.825 Q1729.75 43.9361 1739.92 43.9361 L1750.37 43.9361 L1750.37 43.2069 Q1750.37 38.0623 1746.97 35.2672 Q1743.61 32.4315 1737.49 32.4315 Q1733.6 32.4315 1729.92 33.3632 Q1726.23 34.295 1722.83 36.1584 L1722.83 29.2718 Q1726.92 27.692 1730.77 26.9223 Q1734.62 26.1121 1738.26 26.1121 Q1748.11 26.1121 1752.97 31.2163 Q1757.83 36.3204 1757.83 46.6907 Z" fill="#000000" fill-rule="nonzero" fill-opacity="1"></path><path clip-path="url(#clip080)" d="M1773.18 27.2059 L1780.63 27.2059 L1780.63 72.576 L1773.18 72.576 L1773.18 27.2059 M1773.18 9.54393 L1780.63 9.54393 L1780.63 18.9825 L1773.18 18.9825 L1773.18 9.54393 Z" fill="#000000" fill-rule="nonzero" fill-opacity="1"></path><path clip-path="url(#clip080)" d="M1833.94 45.1919 L1833.94 72.576 L1826.49 72.576 L1826.49 45.4349 Q1826.49 38.994 1823.98 35.7938 Q1821.47 32.5936 1816.44 32.5936 Q1810.41 32.5936 1806.92 36.4419 Q1803.44 40.2903 1803.44 46.9338 L1803.44 72.576 L1795.95 72.576 L1795.95 27.2059 L1803.44 27.2059 L1803.44 34.2544 Q1806.11 30.163 1809.72 28.1376 Q1813.37 26.1121 1818.11 26.1121 Q1825.92 26.1121 1829.93 30.9732 Q1833.94 35.7938 1833.94 45.1919 Z" fill="#000000" fill-rule="nonzero" fill-opacity="1"></path><path clip-path="url(#clip080)" d="M1856.18 14.324 L1856.18 27.2059 L1871.54 27.2059 L1871.54 32.9987 L1856.18 32.9987 L1856.18 57.6282 Q1856.18 63.1779 1857.68 64.7578 Q1859.22 66.3376 1863.88 66.3376 L1871.54 66.3376 L1871.54 72.576 L1863.88 72.576 Q1855.25 72.576 1851.97 69.3758 Q1848.69 66.1351 1848.69 57.6282 L1848.69 32.9987 L1843.22 32.9987 L1843.22 27.2059 L1848.69 27.2059 L1848.69 14.324 L1856.18 14.324 Z" fill="#000000" fill-rule="nonzero" fill-opacity="1"></path><path clip-path="url(#clip080)" d="M1944.29 14.0809 L1944.29 22.0612 Q1939.63 19.8332 1935.5 18.7395 Q1931.37 17.6457 1927.52 17.6457 Q1920.84 17.6457 1917.19 20.2383 Q1913.58 22.8309 1913.58 27.611 Q1913.58 31.6214 1915.97 33.6873 Q1918.41 35.7128 1925.13 36.9686 L1930.07 37.9813 Q1939.23 39.7232 1943.56 44.1387 Q1947.94 48.5136 1947.94 55.8863 Q1947.94 64.6767 1942.02 69.2137 Q1936.15 73.7508 1924.77 73.7508 Q1920.47 73.7508 1915.61 72.7785 Q1910.79 71.8063 1905.6 69.9024 L1905.6 61.4765 Q1910.59 64.2716 1915.37 65.6895 Q1920.15 67.1073 1924.77 67.1073 Q1931.77 67.1073 1935.58 64.3527 Q1939.39 61.598 1939.39 56.4939 Q1939.39 52.0379 1936.63 49.5264 Q1933.92 47.0148 1927.68 45.759 L1922.7 44.7868 Q1913.54 42.9639 1909.45 39.075 Q1905.36 35.1862 1905.36 28.2591 Q1905.36 20.2383 1910.99 15.6203 Q1916.66 11.0023 1926.59 11.0023 Q1930.84 11.0023 1935.26 11.7719 Q1939.67 12.5416 1944.29 14.0809 Z" fill="#000000" fill-rule="nonzero" fill-opacity="1"></path><path clip-path="url(#clip080)" d="M1977.95 32.4315 Q1971.96 32.4315 1968.47 37.1306 Q1964.99 41.7891 1964.99 49.9314 Q1964.99 58.0738 1968.43 62.7728 Q1971.92 67.4314 1977.95 67.4314 Q1983.91 67.4314 1987.39 62.7323 Q1990.88 58.0333 1990.88 49.9314 Q1990.88 41.8701 1987.39 37.1711 Q1983.91 32.4315 1977.95 32.4315 M1977.95 26.1121 Q1987.68 26.1121 1993.23 32.4315 Q1998.78 38.7509 1998.78 49.9314 Q1998.78 61.0714 1993.23 67.4314 Q1987.68 73.7508 1977.95 73.7508 Q1968.19 73.7508 1962.64 67.4314 Q1957.13 61.0714 1957.13 49.9314 Q1957.13 38.7509 1962.64 32.4315 Q1968.19 26.1121 1977.95 26.1121 Z" fill="#000000" fill-rule="nonzero" fill-opacity="1"></path><path clip-path="url(#clip080)" d="M2037.42 34.1734 Q2036.17 33.4443 2034.67 33.1202 Q2033.21 32.7556 2031.43 32.7556 Q2025.11 32.7556 2021.7 36.8875 Q2018.34 40.9789 2018.34 48.6757 L2018.34 72.576 L2010.85 72.576 L2010.85 27.2059 L2018.34 27.2059 L2018.34 34.2544 Q2020.69 30.1225 2024.46 28.1376 Q2028.23 26.1121 2033.61 26.1121 Q2034.38 26.1121 2035.31 26.2337 Q2036.25 26.3147 2037.38 26.5172 L2037.42 34.1734 Z" fill="#000000" fill-rule="nonzero" fill-opacity="1"></path><path clip-path="url(#clip080)" d="M2045.24 9.54393 L2052.69 9.54393 L2052.69 72.576 L2045.24 72.576 L2045.24 9.54393 Z" fill="#000000" fill-rule="nonzero" fill-opacity="1"></path><path clip-path="url(#clip080)" d="M2068.29 27.2059 L2075.74 27.2059 L2075.74 72.576 L2068.29 72.576 L2068.29 27.2059 M2068.29 9.54393 L2075.74 9.54393 L2075.74 18.9825 L2068.29 18.9825 L2068.29 9.54393 Z" fill="#000000" fill-rule="nonzero" fill-opacity="1"></path><path clip-path="url(#clip080)" d="M2129.05 45.1919 L2129.05 72.576 L2121.6 72.576 L2121.6 45.4349 Q2121.6 38.994 2119.09 35.7938 Q2116.58 32.5936 2111.55 32.5936 Q2105.52 32.5936 2102.03 36.4419 Q2098.55 40.2903 2098.55 46.9338 L2098.55 72.576 L2091.06 72.576 L2091.06 27.2059 L2098.55 27.2059 L2098.55 34.2544 Q2101.22 30.163 2104.83 28.1376 Q2108.47 26.1121 2113.21 26.1121 Q2121.03 26.1121 2125.04 30.9732 Q2129.05 35.7938 2129.05 45.1919 Z" fill="#000000" fill-rule="nonzero" fill-opacity="1"></path><polyline clip-path="url(#clip082)" style="stroke:#a52a2a; stroke-linecap:round; stroke-linejoin:round; stroke-width:4; stroke-opacity:1; fill:none" points="323.395,197.542 343.707,220.044 364.019,247.235 384.331,278.535 404.642,306.404 424.954,328.888 445.266,348.87 465.578,359.972 485.89,380.51 506.202,406.796 526.514,436.013 546.826,465.324 567.138,492.224 587.45,513.033 607.761,528.26 628.073,543.945 648.385,563.481 668.697,581.622 689.009,598.712 709.321,613.657 729.633,625.895 749.945,637.966 770.257,650.96 790.568,663.974 810.88,677.963 831.192,690.608 851.504,700.455 871.816,714.094 892.128,726.097 912.44,731.705 932.752,733.503 953.064,737.42 973.375,735.923 993.687,735.657 1014,734.436 1034.31,728.887 1054.62,734.681 1074.93,740.025 1095.25,746.866 1115.56,752.846 1135.87,757.856 1156.18,762.324 1176.49,766.678 1196.81,771.314 1217.12,776.933 1237.43,784.294 1257.74,793.467 1278.05,803.814 1298.37,814.576 1318.68,824.931 1338.99,833.928 1359.3,841.06 1379.61,846.803 1399.93,852.144 1420.24,857.531 1440.55,862.896 1460.86,868.38 1481.17,874.781 1501.48,883.158 1521.8,893.762 1542.11,905.646 1562.42,917.546 1582.73,928.641 1603.04,939.074 1623.36,950.089 1643.67,963.004 1663.98,978.301 1684.29,995.82 1704.6,1015.04 1724.92,1034.85 1745.23,1053.97 1765.54,1072.58 1785.85,1092.82 1806.16,1116.64 1826.47,1143.51 1846.79,1170.66 1867.1,1195.2 1887.41,1215.58 1907.72,1231.67 1928.03,1244.22 1948.35,1254.57 1968.66,1264.42 1988.97,1275.02 2009.28,1286.41 2029.59,1297.96 2049.91,1308.77 2070.22,1317.53 2090.53,1323.68 2110.84,1327.91 2131.15,1331.26 2151.47,1335.41 2171.78,1342.64 2192.09,1354.23 2212.4,1370.56 2232.71,1392.09 2253.02,1416.01 2273.34,1436.35 2293.65,1447.87 "></polyline>
<polyline clip-path="url(#clip082)" style="stroke:#0000ff; stroke-linecap:round; stroke-linejoin:round; stroke-width:4; stroke-opacity:1; fill:none" points="323.395,162.592 343.707,192.747 364.019,219.08 384.331,247.351 404.642,270.953 424.954,291.941 445.266,309.184 465.578,327.667 485.89,354.228 506.202,386.338 526.514,435.646 546.826,465.324 567.138,492.224 587.45,513.033 607.761,528.26 628.073,543.945 648.385,563.481 668.697,581.622 689.009,598.712 709.321,613.657 729.633,625.895 749.945,637.966 770.257,650.96 790.568,663.974 810.88,677.963 831.192,690.608 851.504,700.455 871.816,714.094 892.128,726.097 912.44,731.705 932.752,733.503 953.064,737.42 973.375,735.923 993.687,735.657 1014,734.436 1034.31,728.887 1054.62,734.681 1074.93,740.025 1095.25,746.866 1115.56,752.846 1135.87,757.856 1156.18,762.324 1176.49,766.678 1196.81,771.314 1217.12,776.933 1237.43,784.294 1257.74,793.467 1278.05,803.814 1298.37,814.576 1318.68,824.931 1338.99,833.928 1359.3,841.06 1379.61,846.803 1399.93,852.144 1420.24,857.531 1440.55,862.896 1460.86,868.38 1481.17,874.781 1501.48,883.158 1521.8,893.762 1542.11,905.646 1562.42,917.546 1582.73,928.641 1603.04,939.074 1623.36,950.089 1643.67,963.004 1663.98,978.301 1684.29,995.82 1704.6,1015.04 1724.92,1034.85 1745.23,1053.97 1765.54,1072.58 1785.85,1092.82 1806.16,1116.64 1826.47,1143.51 1846.79,1170.66 1867.1,1195.2 1887.41,1215.58 1907.72,1231.67 1928.03,1244.22 1948.35,1254.57 1968.66,1264.42 1988.97,1275.02 2009.28,1286.41 2029.59,1297.96 2049.91,1308.77 2070.22,1317.53 2090.53,1323.68 2110.84,1327.91 2131.15,1331.26 2151.47,1335.41 2171.78,1342.64 2192.09,1354.23 2212.4,1370.56 2232.71,1392.09 2253.02,1416.01 2273.34,1436.35 2293.65,1447.87 "></polyline>
<polyline clip-path="url(#clip082)" style="stroke:#ff0000; stroke-linecap:round; stroke-linejoin:round; stroke-width:4; stroke-opacity:1; fill:none" points="323.395,162.047 343.707,192.288 364.019,218.633 384.331,246.894 404.642,270.551 424.954,291.63 445.266,308.968 465.578,327.577 485.89,354.088 506.202,386.699 526.514,435.729 546.826,465.324 567.138,492.224 587.45,513.033 607.761,528.26 628.073,543.945 648.385,563.481 668.697,581.622 689.009,598.712 709.321,613.657 729.633,625.895 749.945,637.966 770.257,650.96 790.568,663.974 810.88,677.963 831.192,690.608 851.504,700.455 871.816,714.094 892.128,726.097 912.44,731.705 932.752,733.503 953.064,737.42 973.375,735.923 993.687,735.657 1014,734.436 1034.31,728.887 1054.62,734.681 1074.93,740.025 1095.25,746.866 1115.56,752.846 1135.87,757.856 1156.18,762.324 1176.49,766.678 1196.81,771.314 1217.12,776.933 1237.43,784.294 1257.74,793.467 1278.05,803.814 1298.37,814.576 1318.68,824.931 1338.99,833.928 1359.3,841.06 1379.61,846.803 1399.93,852.144 1420.24,857.531 1440.55,862.896 1460.86,868.38 1481.17,874.781 1501.48,883.158 1521.8,893.762 1542.11,905.646 1562.42,917.546 1582.73,928.641 1603.04,939.074 1623.36,950.089 1643.67,963.004 1663.98,978.301 1684.29,995.82 1704.6,1015.04 1724.92,1034.85 1745.23,1053.97 1765.54,1072.58 1785.85,1092.82 1806.16,1116.64 1826.47,1143.51 1846.79,1170.66 1867.1,1195.2 1887.41,1215.58 1907.72,1231.67 1928.03,1244.22 1948.35,1254.57 1968.66,1264.42 1988.97,1275.02 2009.28,1286.41 2029.59,1297.96 2049.91,1308.77 2070.22,1317.53 2090.53,1323.68 2110.84,1327.91 2131.15,1331.26 2151.47,1335.41 2171.78,1342.64 2192.09,1354.23 2212.4,1370.56 2232.71,1392.09 2253.02,1416.01 2273.34,1436.35 2293.65,1447.87 "></polyline>
<polyline clip-path="url(#clip082)" style="stroke:#008000; stroke-linecap:round; stroke-linejoin:round; stroke-width:4; stroke-opacity:1; fill:none" points="323.395,168.625 343.707,190.234 364.019,217.267 384.331,244.708 404.642,268.425 424.954,288.174 445.266,306.148 465.578,322.477 485.89,348.798 506.202,376.578 526.514,405.884 546.826,432.072 567.138,453.422 587.45,469.261 607.761,485.735 628.073,502.495 648.385,519.713 668.697,534.147 689.009,547.839 709.321,559.6 729.633,571.36 749.945,583.279 770.257,595.202 790.568,606.608 810.88,617.934 831.192,628.268 851.504,638.142 871.816,647.937 892.128,655.403 912.44,662.868 932.752,670.334 953.064,679.165 973.375,688.06 993.687,696.884 1014,704.715 1034.31,712.546 1054.62,734.681 1074.93,740.025 1095.25,746.866 1115.56,752.846 1135.87,757.856 1156.18,762.324 1176.49,766.678 1196.81,771.314 1217.12,776.933 1237.43,784.294 1257.74,793.467 1278.05,803.814 1298.37,814.576 1318.68,824.931 1338.99,833.928 1359.3,841.06 1379.61,846.803 1399.93,852.144 1420.24,857.531 1440.55,862.896 1460.86,868.38 1481.17,874.781 1501.48,883.158 1521.8,893.762 1542.11,905.646 1562.42,917.546 1582.73,928.641 1603.04,939.074 1623.36,950.089 1643.67,963.004 1663.98,978.301 1684.29,995.82 1704.6,1015.04 1724.92,1034.85 1745.23,1053.97 1765.54,1072.58 1785.85,1092.82 1806.16,1116.64 1826.47,1143.51 1846.79,1170.66 1867.1,1195.2 1887.41,1215.58 1907.72,1231.67 1928.03,1244.22 1948.35,1254.57 1968.66,1264.42 1988.97,1275.02 2009.28,1286.41 2029.59,1297.96 2049.91,1308.77 2070.22,1317.53 2090.53,1323.68 2110.84,1327.91 2131.15,1331.26 2151.47,1335.41 2171.78,1342.64 2192.09,1354.23 2212.4,1370.56 2232.71,1392.09 2253.02,1416.01 2273.34,1436.35 2293.65,1447.87 "></polyline>
<polyline clip-path="url(#clip082)" style="stroke:#000000; stroke-linecap:round; stroke-linejoin:round; stroke-width:4; stroke-opacity:1; fill:none" stroke-dasharray="16, 10" points="323.395,175.324 343.707,197.749 364.019,224.982 384.331,253.216 404.642,277.797 424.954,298.338 445.266,315.449 465.578,334.075 485.89,359.462 506.202,383.927 526.514,436.013 546.826,465.324 567.138,492.224 587.45,513.033 607.761,528.26 628.073,543.945 648.385,563.481 668.697,581.622 689.009,598.712 709.321,613.657 729.633,625.895 749.945,637.966 770.257,650.96 790.568,663.974 810.88,677.963 831.192,690.608 851.504,700.455 871.816,714.094 892.128,726.097 912.44,731.705 932.752,733.503 953.064,737.42 973.375,735.923 993.687,735.657 1014,734.436 1034.31,728.887 1054.62,734.681 1074.93,740.025 1095.25,746.866 1115.56,752.846 1135.87,757.856 1156.18,762.324 1176.49,766.678 1196.81,771.314 1217.12,776.933 1237.43,784.294 1257.74,793.467 1278.05,803.814 1298.37,814.576 1318.68,824.931 1338.99,833.928 1359.3,841.06 1379.61,846.803 1399.93,852.144 1420.24,857.531 1440.55,862.896 1460.86,868.38 1481.17,874.781 1501.48,883.158 1521.8,893.762 1542.11,905.646 1562.42,917.546 1582.73,928.641 1603.04,939.074 1623.36,950.089 1643.67,963.004 1663.98,978.301 1684.29,995.82 1704.6,1015.04 1724.92,1034.85 1745.23,1053.97 1765.54,1072.58 1785.85,1092.82 1806.16,1116.64 1826.47,1143.51 1846.79,1170.66 1867.1,1195.2 1887.41,1215.58 1907.72,1231.67 1928.03,1244.22 1948.35,1254.57 1968.66,1264.42 1988.97,1275.02 2009.28,1286.41 2029.59,1297.96 2049.91,1308.77 2070.22,1317.53 2090.53,1323.68 2110.84,1327.91 2131.15,1331.26 2151.47,1335.41 2171.78,1342.64 2192.09,1354.23 2212.4,1370.56 2232.71,1392.09 2253.02,1416.01 2273.34,1436.35 2293.65,1447.87 "></polyline>
<path clip-path="url(#clip080)" d="M1729.57 479.945 L2283.14 479.945 L2283.14 168.905 L1729.57 168.905  Z" fill="#ffffff" fill-rule="evenodd" fill-opacity="1"></path>
<polyline clip-path="url(#clip080)" style="stroke:#000000; stroke-linecap:round; stroke-linejoin:round; stroke-width:4; stroke-opacity:1; fill:none" points="1729.57,479.945 2283.14,479.945 2283.14,168.905 1729.57,168.905 1729.57,479.945 "></polyline>
<polyline clip-path="url(#clip080)" style="stroke:#a52a2a; stroke-linecap:round; stroke-linejoin:round; stroke-width:4; stroke-opacity:1; fill:none" points="1752.78,220.745 1892.01,220.745 "></polyline>
<path clip-path="url(#clip080)" d="M1933.99 225.085 Q1933.99 220.386 1932.04 217.724 Q1930.12 215.039 1926.74 215.039 Q1923.36 215.039 1921.42 217.724 Q1919.5 220.386 1919.5 225.085 Q1919.5 229.784 1921.42 232.469 Q1923.36 235.131 1926.74 235.131 Q1930.12 235.131 1932.04 232.469 Q1933.99 229.784 1933.99 225.085 M1919.5 216.034 Q1920.84 213.719 1922.88 212.608 Q1924.94 211.474 1927.78 211.474 Q1932.51 211.474 1935.45 215.224 Q1938.41 218.974 1938.41 225.085 Q1938.41 231.196 1935.45 234.946 Q1932.51 238.696 1927.78 238.696 Q1924.94 238.696 1922.88 237.585 Q1920.84 236.451 1919.5 234.136 L1919.5 238.025 L1915.21 238.025 L1915.21 202.006 L1919.5 202.006 L1919.5 216.034 Z" fill="#000000" fill-rule="nonzero" fill-opacity="1"></path><path clip-path="url(#clip080)" d="M1967.64 223.997 L1967.64 226.08 L1948.06 226.08 Q1948.34 230.478 1950.7 232.793 Q1953.08 235.085 1957.32 235.085 Q1959.77 235.085 1962.07 234.483 Q1964.38 233.881 1966.65 232.677 L1966.65 236.705 Q1964.36 237.677 1961.95 238.187 Q1959.54 238.696 1957.07 238.696 Q1950.86 238.696 1947.23 235.085 Q1943.62 231.474 1943.62 225.316 Q1943.62 218.951 1947.04 215.224 Q1950.49 211.474 1956.33 211.474 Q1961.56 211.474 1964.59 214.853 Q1967.64 218.21 1967.64 223.997 M1963.39 222.747 Q1963.34 219.252 1961.42 217.168 Q1959.52 215.085 1956.37 215.085 Q1952.81 215.085 1950.65 217.099 Q1948.52 219.113 1948.2 222.77 L1963.39 222.747 Z" fill="#000000" fill-rule="nonzero" fill-opacity="1"></path><path clip-path="url(#clip080)" d="M1991.7 216.034 L1991.7 202.006 L1995.96 202.006 L1995.96 238.025 L1991.7 238.025 L1991.7 234.136 Q1990.35 236.451 1988.29 237.585 Q1986.26 238.696 1983.39 238.696 Q1978.69 238.696 1975.72 234.946 Q1972.78 231.196 1972.78 225.085 Q1972.78 218.974 1975.72 215.224 Q1978.69 211.474 1983.39 211.474 Q1986.26 211.474 1988.29 212.608 Q1990.35 213.719 1991.7 216.034 M1977.18 225.085 Q1977.18 229.784 1979.1 232.469 Q1981.05 235.131 1984.43 235.131 Q1987.81 235.131 1989.75 232.469 Q1991.7 229.784 1991.7 225.085 Q1991.7 220.386 1989.75 217.724 Q1987.81 215.039 1984.43 215.039 Q1981.05 215.039 1979.1 217.724 Q1977.18 220.386 1977.18 225.085 Z" fill="#000000" fill-rule="nonzero" fill-opacity="1"></path><polyline clip-path="url(#clip080)" style="stroke:#0000ff; stroke-linecap:round; stroke-linejoin:round; stroke-width:4; stroke-opacity:1; fill:none" points="1752.78,272.585 1892.01,272.585 "></polyline>
<path clip-path="url(#clip080)" d="M1933.64 264.703 L1933.64 268.731 Q1931.83 267.805 1929.89 267.342 Q1927.95 266.879 1925.86 266.879 Q1922.69 266.879 1921.09 267.851 Q1919.52 268.823 1919.52 270.768 Q1919.52 272.249 1920.65 273.105 Q1921.79 273.939 1925.21 274.703 L1926.67 275.027 Q1931.21 275.999 1933.11 277.781 Q1935.03 279.541 1935.03 282.712 Q1935.03 286.323 1932.16 288.429 Q1929.31 290.536 1924.31 290.536 Q1922.23 290.536 1919.96 290.119 Q1917.71 289.726 1915.21 288.916 L1915.21 284.517 Q1917.58 285.744 1919.87 286.369 Q1922.16 286.971 1924.4 286.971 Q1927.41 286.971 1929.03 285.953 Q1930.65 284.911 1930.65 283.036 Q1930.65 281.3 1929.47 280.374 Q1928.32 279.448 1924.36 278.592 L1922.88 278.244 Q1918.92 277.411 1917.16 275.698 Q1915.4 273.962 1915.4 270.953 Q1915.4 267.295 1917.99 265.305 Q1920.59 263.314 1925.35 263.314 Q1927.71 263.314 1929.8 263.661 Q1931.88 264.008 1933.64 264.703 Z" fill="#000000" fill-rule="nonzero" fill-opacity="1"></path><path clip-path="url(#clip080)" d="M1941.37 279.633 L1941.37 263.939 L1945.63 263.939 L1945.63 279.471 Q1945.63 283.152 1947.07 285.004 Q1948.5 286.832 1951.37 286.832 Q1954.82 286.832 1956.81 284.633 Q1958.83 282.434 1958.83 278.638 L1958.83 263.939 L1963.08 263.939 L1963.08 289.865 L1958.83 289.865 L1958.83 285.883 Q1957.27 288.244 1955.21 289.402 Q1953.18 290.536 1950.47 290.536 Q1946 290.536 1943.69 287.758 Q1941.37 284.98 1941.37 279.633 M1952.09 263.314 L1952.09 263.314 Z" fill="#000000" fill-rule="nonzero" fill-opacity="1"></path><path clip-path="url(#clip080)" d="M1986.88 267.92 Q1986.16 267.504 1985.31 267.318 Q1984.47 267.11 1983.46 267.11 Q1979.84 267.11 1977.9 269.471 Q1975.98 271.809 1975.98 276.207 L1975.98 289.865 L1971.7 289.865 L1971.7 263.939 L1975.98 263.939 L1975.98 267.967 Q1977.32 265.606 1979.47 264.471 Q1981.63 263.314 1984.71 263.314 Q1985.14 263.314 1985.68 263.383 Q1986.21 263.43 1986.86 263.545 L1986.88 267.92 Z" fill="#000000" fill-rule="nonzero" fill-opacity="1"></path><path clip-path="url(#clip080)" d="M2004.47 253.846 L2004.47 257.388 L2000.4 257.388 Q1998.11 257.388 1997.21 258.314 Q1996.33 259.24 1996.33 261.647 L1996.33 263.939 L2003.34 263.939 L2003.34 267.249 L1996.33 267.249 L1996.33 289.865 L1992.04 289.865 L1992.04 267.249 L1987.97 267.249 L1987.97 263.939 L1992.04 263.939 L1992.04 262.133 Q1992.04 257.805 1994.06 255.837 Q1996.07 253.846 2000.45 253.846 L2004.47 253.846 Z" fill="#000000" fill-rule="nonzero" fill-opacity="1"></path><path clip-path="url(#clip080)" d="M2019.82 276.832 Q2014.66 276.832 2012.67 278.013 Q2010.68 279.193 2010.68 282.041 Q2010.68 284.309 2012.16 285.652 Q2013.66 286.971 2016.23 286.971 Q2019.77 286.971 2021.9 284.471 Q2024.06 281.948 2024.06 277.781 L2024.06 276.832 L2019.82 276.832 M2028.32 275.073 L2028.32 289.865 L2024.06 289.865 L2024.06 285.929 Q2022.6 288.291 2020.42 289.425 Q2018.25 290.536 2015.1 290.536 Q2011.12 290.536 2008.76 288.314 Q2006.42 286.068 2006.42 282.318 Q2006.42 277.943 2009.33 275.721 Q2012.27 273.499 2018.08 273.499 L2024.06 273.499 L2024.06 273.082 Q2024.06 270.143 2022.11 268.545 Q2020.19 266.925 2016.7 266.925 Q2014.47 266.925 2012.37 267.457 Q2010.26 267.99 2008.32 269.055 L2008.32 265.119 Q2010.65 264.217 2012.85 263.777 Q2015.05 263.314 2017.14 263.314 Q2022.76 263.314 2025.54 266.231 Q2028.32 269.147 2028.32 275.073 Z" fill="#000000" fill-rule="nonzero" fill-opacity="1"></path><path clip-path="url(#clip080)" d="M2055.75 264.934 L2055.75 268.916 Q2053.94 267.92 2052.11 267.434 Q2050.31 266.925 2048.45 266.925 Q2044.31 266.925 2042.02 269.564 Q2039.73 272.18 2039.73 276.925 Q2039.73 281.67 2042.02 284.309 Q2044.31 286.925 2048.45 286.925 Q2050.31 286.925 2052.11 286.439 Q2053.94 285.929 2055.75 284.934 L2055.75 288.869 Q2053.96 289.703 2052.04 290.119 Q2050.14 290.536 2047.99 290.536 Q2042.14 290.536 2038.69 286.855 Q2035.24 283.175 2035.24 276.925 Q2035.24 270.582 2038.71 266.948 Q2042.2 263.314 2048.27 263.314 Q2050.24 263.314 2052.11 263.731 Q2053.99 264.124 2055.75 264.934 Z" fill="#000000" fill-rule="nonzero" fill-opacity="1"></path><path clip-path="url(#clip080)" d="M2085.33 275.837 L2085.33 277.92 L2065.75 277.92 Q2066.02 282.318 2068.39 284.633 Q2070.77 286.925 2075.01 286.925 Q2077.46 286.925 2079.75 286.323 Q2082.07 285.721 2084.33 284.517 L2084.33 288.545 Q2082.04 289.517 2079.64 290.027 Q2077.23 290.536 2074.75 290.536 Q2068.55 290.536 2064.91 286.925 Q2061.3 283.314 2061.3 277.156 Q2061.3 270.791 2064.73 267.064 Q2068.18 263.314 2074.01 263.314 Q2079.24 263.314 2082.27 266.693 Q2085.33 270.05 2085.33 275.837 M2081.07 274.587 Q2081.02 271.092 2079.1 269.008 Q2077.2 266.925 2074.06 266.925 Q2070.49 266.925 2068.34 268.939 Q2066.21 270.953 2065.89 274.61 L2081.07 274.587 Z" fill="#000000" fill-rule="nonzero" fill-opacity="1"></path><path clip-path="url(#clip080)" d="M2123.92 264.703 L2123.92 268.731 Q2122.11 267.805 2120.17 267.342 Q2118.22 266.879 2116.14 266.879 Q2112.97 266.879 2111.37 267.851 Q2109.8 268.823 2109.8 270.768 Q2109.8 272.249 2110.93 273.105 Q2112.07 273.939 2115.49 274.703 L2116.95 275.027 Q2121.49 275.999 2123.38 277.781 Q2125.31 279.541 2125.31 282.712 Q2125.31 286.323 2122.44 288.429 Q2119.59 290.536 2114.59 290.536 Q2112.51 290.536 2110.24 290.119 Q2107.99 289.726 2105.49 288.916 L2105.49 284.517 Q2107.85 285.744 2110.14 286.369 Q2112.44 286.971 2114.68 286.971 Q2117.69 286.971 2119.31 285.953 Q2120.93 284.911 2120.93 283.036 Q2120.93 281.3 2119.75 280.374 Q2118.59 279.448 2114.63 278.592 L2113.15 278.244 Q2109.2 277.411 2107.44 275.698 Q2105.68 273.962 2105.68 270.953 Q2105.68 267.295 2108.27 265.305 Q2110.86 263.314 2115.63 263.314 Q2117.99 263.314 2120.07 263.661 Q2122.16 264.008 2123.92 264.703 Z" fill="#000000" fill-rule="nonzero" fill-opacity="1"></path><path clip-path="url(#clip080)" d="M2142.13 266.925 Q2138.71 266.925 2136.72 269.61 Q2134.73 272.272 2134.73 276.925 Q2134.73 281.578 2136.69 284.263 Q2138.69 286.925 2142.13 286.925 Q2145.54 286.925 2147.53 284.24 Q2149.52 281.555 2149.52 276.925 Q2149.52 272.318 2147.53 269.633 Q2145.54 266.925 2142.13 266.925 M2142.13 263.314 Q2147.69 263.314 2150.86 266.925 Q2154.03 270.536 2154.03 276.925 Q2154.03 283.291 2150.86 286.925 Q2147.69 290.536 2142.13 290.536 Q2136.56 290.536 2133.38 286.925 Q2130.24 283.291 2130.24 276.925 Q2130.24 270.536 2133.38 266.925 Q2136.56 263.314 2142.13 263.314 Z" fill="#000000" fill-rule="nonzero" fill-opacity="1"></path><path clip-path="url(#clip080)" d="M2161.09 253.846 L2165.35 253.846 L2165.35 289.865 L2161.09 289.865 L2161.09 253.846 Z" fill="#000000" fill-rule="nonzero" fill-opacity="1"></path><path clip-path="url(#clip080)" d="M2171.21 263.939 L2175.72 263.939 L2183.82 285.698 L2191.93 263.939 L2196.44 263.939 L2186.72 289.865 L2180.93 289.865 L2171.21 263.939 Z" fill="#000000" fill-rule="nonzero" fill-opacity="1"></path><path clip-path="url(#clip080)" d="M2224.5 275.837 L2224.5 277.92 L2204.91 277.92 Q2205.19 282.318 2207.55 284.633 Q2209.94 286.925 2214.17 286.925 Q2216.63 286.925 2218.92 286.323 Q2221.23 285.721 2223.5 284.517 L2223.5 288.545 Q2221.21 289.517 2218.8 290.027 Q2216.39 290.536 2213.92 290.536 Q2207.71 290.536 2204.08 286.925 Q2200.47 283.314 2200.47 277.156 Q2200.47 270.791 2203.89 267.064 Q2207.34 263.314 2213.18 263.314 Q2218.41 263.314 2221.44 266.693 Q2224.5 270.05 2224.5 275.837 M2220.24 274.587 Q2220.19 271.092 2218.27 269.008 Q2216.37 266.925 2213.22 266.925 Q2209.66 266.925 2207.5 268.939 Q2205.38 270.953 2205.05 274.61 L2220.24 274.587 Z" fill="#000000" fill-rule="nonzero" fill-opacity="1"></path><path clip-path="url(#clip080)" d="M2246.51 267.92 Q2245.79 267.504 2244.94 267.318 Q2244.1 267.11 2243.08 267.11 Q2239.47 267.11 2237.53 269.471 Q2235.61 271.809 2235.61 276.207 L2235.61 289.865 L2231.32 289.865 L2231.32 263.939 L2235.61 263.939 L2235.61 267.967 Q2236.95 265.606 2239.1 264.471 Q2241.25 263.314 2244.33 263.314 Q2244.77 263.314 2245.31 263.383 Q2245.84 263.43 2246.49 263.545 L2246.51 267.92 Z" fill="#000000" fill-rule="nonzero" fill-opacity="1"></path><polyline clip-path="url(#clip080)" style="stroke:#ff0000; stroke-linecap:round; stroke-linejoin:round; stroke-width:4; stroke-opacity:1; fill:none" points="1752.78,324.425 1892.01,324.425 "></polyline>
<path clip-path="url(#clip080)" d="M1933.64 316.543 L1933.64 320.571 Q1931.83 319.645 1929.89 319.182 Q1927.95 318.719 1925.86 318.719 Q1922.69 318.719 1921.09 319.691 Q1919.52 320.663 1919.52 322.608 Q1919.52 324.089 1920.65 324.945 Q1921.79 325.779 1925.21 326.543 L1926.67 326.867 Q1931.21 327.839 1933.11 329.621 Q1935.03 331.381 1935.03 334.552 Q1935.03 338.163 1932.16 340.269 Q1929.31 342.376 1924.31 342.376 Q1922.23 342.376 1919.96 341.959 Q1917.71 341.566 1915.21 340.756 L1915.21 336.357 Q1917.58 337.584 1919.87 338.209 Q1922.16 338.811 1924.4 338.811 Q1927.41 338.811 1929.03 337.793 Q1930.65 336.751 1930.65 334.876 Q1930.65 333.14 1929.47 332.214 Q1928.32 331.288 1924.36 330.432 L1922.88 330.084 Q1918.92 329.251 1917.16 327.538 Q1915.4 325.802 1915.4 322.793 Q1915.4 319.135 1917.99 317.145 Q1920.59 315.154 1925.35 315.154 Q1927.71 315.154 1929.8 315.501 Q1931.88 315.848 1933.64 316.543 Z" fill="#000000" fill-rule="nonzero" fill-opacity="1"></path><path clip-path="url(#clip080)" d="M1941.37 331.473 L1941.37 315.779 L1945.63 315.779 L1945.63 331.311 Q1945.63 334.992 1947.07 336.844 Q1948.5 338.672 1951.37 338.672 Q1954.82 338.672 1956.81 336.473 Q1958.83 334.274 1958.83 330.478 L1958.83 315.779 L1963.08 315.779 L1963.08 341.705 L1958.83 341.705 L1958.83 337.723 Q1957.27 340.084 1955.21 341.242 Q1953.18 342.376 1950.47 342.376 Q1946 342.376 1943.69 339.598 Q1941.37 336.82 1941.37 331.473 M1952.09 315.154 L1952.09 315.154 Z" fill="#000000" fill-rule="nonzero" fill-opacity="1"></path><path clip-path="url(#clip080)" d="M1986.88 319.76 Q1986.16 319.344 1985.31 319.158 Q1984.47 318.95 1983.46 318.95 Q1979.84 318.95 1977.9 321.311 Q1975.98 323.649 1975.98 328.047 L1975.98 341.705 L1971.7 341.705 L1971.7 315.779 L1975.98 315.779 L1975.98 319.807 Q1977.32 317.446 1979.47 316.311 Q1981.63 315.154 1984.71 315.154 Q1985.14 315.154 1985.68 315.223 Q1986.21 315.27 1986.86 315.385 L1986.88 319.76 Z" fill="#000000" fill-rule="nonzero" fill-opacity="1"></path><path clip-path="url(#clip080)" d="M2004.47 305.686 L2004.47 309.228 L2000.4 309.228 Q1998.11 309.228 1997.21 310.154 Q1996.33 311.08 1996.33 313.487 L1996.33 315.779 L2003.34 315.779 L2003.34 319.089 L1996.33 319.089 L1996.33 341.705 L1992.04 341.705 L1992.04 319.089 L1987.97 319.089 L1987.97 315.779 L1992.04 315.779 L1992.04 313.973 Q1992.04 309.645 1994.06 307.677 Q1996.07 305.686 2000.45 305.686 L2004.47 305.686 Z" fill="#000000" fill-rule="nonzero" fill-opacity="1"></path><path clip-path="url(#clip080)" d="M2019.82 328.672 Q2014.66 328.672 2012.67 329.853 Q2010.68 331.033 2010.68 333.881 Q2010.68 336.149 2012.16 337.492 Q2013.66 338.811 2016.23 338.811 Q2019.77 338.811 2021.9 336.311 Q2024.06 333.788 2024.06 329.621 L2024.06 328.672 L2019.82 328.672 M2028.32 326.913 L2028.32 341.705 L2024.06 341.705 L2024.06 337.769 Q2022.6 340.131 2020.42 341.265 Q2018.25 342.376 2015.1 342.376 Q2011.12 342.376 2008.76 340.154 Q2006.42 337.908 2006.42 334.158 Q2006.42 329.783 2009.33 327.561 Q2012.27 325.339 2018.08 325.339 L2024.06 325.339 L2024.06 324.922 Q2024.06 321.983 2022.11 320.385 Q2020.19 318.765 2016.7 318.765 Q2014.47 318.765 2012.37 319.297 Q2010.26 319.83 2008.32 320.895 L2008.32 316.959 Q2010.65 316.057 2012.85 315.617 Q2015.05 315.154 2017.14 315.154 Q2022.76 315.154 2025.54 318.071 Q2028.32 320.987 2028.32 326.913 Z" fill="#000000" fill-rule="nonzero" fill-opacity="1"></path><path clip-path="url(#clip080)" d="M2055.75 316.774 L2055.75 320.756 Q2053.94 319.76 2052.11 319.274 Q2050.31 318.765 2048.45 318.765 Q2044.31 318.765 2042.02 321.404 Q2039.73 324.02 2039.73 328.765 Q2039.73 333.51 2042.02 336.149 Q2044.31 338.765 2048.45 338.765 Q2050.31 338.765 2052.11 338.279 Q2053.94 337.769 2055.75 336.774 L2055.75 340.709 Q2053.96 341.543 2052.04 341.959 Q2050.14 342.376 2047.99 342.376 Q2042.14 342.376 2038.69 338.695 Q2035.24 335.015 2035.24 328.765 Q2035.24 322.422 2038.71 318.788 Q2042.2 315.154 2048.27 315.154 Q2050.24 315.154 2052.11 315.571 Q2053.99 315.964 2055.75 316.774 Z" fill="#000000" fill-rule="nonzero" fill-opacity="1"></path><path clip-path="url(#clip080)" d="M2085.33 327.677 L2085.33 329.76 L2065.75 329.76 Q2066.02 334.158 2068.39 336.473 Q2070.77 338.765 2075.01 338.765 Q2077.46 338.765 2079.75 338.163 Q2082.07 337.561 2084.33 336.357 L2084.33 340.385 Q2082.04 341.357 2079.64 341.867 Q2077.23 342.376 2074.75 342.376 Q2068.55 342.376 2064.91 338.765 Q2061.3 335.154 2061.3 328.996 Q2061.3 322.631 2064.73 318.904 Q2068.18 315.154 2074.01 315.154 Q2079.24 315.154 2082.27 318.533 Q2085.33 321.89 2085.33 327.677 M2081.07 326.427 Q2081.02 322.932 2079.1 320.848 Q2077.2 318.765 2074.06 318.765 Q2070.49 318.765 2068.34 320.779 Q2066.21 322.793 2065.89 326.45 L2081.07 326.427 Z" fill="#000000" fill-rule="nonzero" fill-opacity="1"></path><path clip-path="url(#clip080)" d="M2122.41 319.76 Q2121.7 319.344 2120.84 319.158 Q2120.01 318.95 2118.99 318.95 Q2115.38 318.95 2113.43 321.311 Q2111.51 323.649 2111.51 328.047 L2111.51 341.705 L2107.23 341.705 L2107.23 315.779 L2111.51 315.779 L2111.51 319.807 Q2112.85 317.446 2115.01 316.311 Q2117.16 315.154 2120.24 315.154 Q2120.68 315.154 2121.21 315.223 Q2121.74 315.27 2122.39 315.385 L2122.41 319.76 Z" fill="#000000" fill-rule="nonzero" fill-opacity="1"></path><path clip-path="url(#clip080)" d="M2138.66 328.672 Q2133.5 328.672 2131.51 329.853 Q2129.52 331.033 2129.52 333.881 Q2129.52 336.149 2131 337.492 Q2132.51 338.811 2135.07 338.811 Q2138.62 338.811 2140.75 336.311 Q2142.9 333.788 2142.9 329.621 L2142.9 328.672 L2138.66 328.672 M2147.16 326.913 L2147.16 341.705 L2142.9 341.705 L2142.9 337.769 Q2141.44 340.131 2139.26 341.265 Q2137.09 342.376 2133.94 342.376 Q2129.96 342.376 2127.6 340.154 Q2125.26 337.908 2125.26 334.158 Q2125.26 329.783 2128.18 327.561 Q2131.12 325.339 2136.93 325.339 L2142.9 325.339 L2142.9 324.922 Q2142.9 321.983 2140.95 320.385 Q2139.03 318.765 2135.54 318.765 Q2133.32 318.765 2131.21 319.297 Q2129.1 319.83 2127.16 320.895 L2127.16 316.959 Q2129.5 316.057 2131.7 315.617 Q2133.89 315.154 2135.98 315.154 Q2141.6 315.154 2144.38 318.071 Q2147.16 320.987 2147.16 326.913 Z" fill="#000000" fill-rule="nonzero" fill-opacity="1"></path><path clip-path="url(#clip080)" d="M2153.45 315.779 L2157.71 315.779 L2163.04 336.01 L2168.34 315.779 L2173.36 315.779 L2178.69 336.01 L2183.99 315.779 L2188.25 315.779 L2181.46 341.705 L2176.44 341.705 L2170.86 320.455 L2165.26 341.705 L2160.24 341.705 L2153.45 315.779 Z" fill="#000000" fill-rule="nonzero" fill-opacity="1"></path><polyline clip-path="url(#clip080)" style="stroke:#008000; stroke-linecap:round; stroke-linejoin:round; stroke-width:4; stroke-opacity:1; fill:none" points="1752.78,376.265 1892.01,376.265 "></polyline>
<path clip-path="url(#clip080)" d="M1933.64 368.383 L1933.64 372.411 Q1931.83 371.485 1929.89 371.022 Q1927.95 370.559 1925.86 370.559 Q1922.69 370.559 1921.09 371.531 Q1919.52 372.503 1919.52 374.448 Q1919.52 375.929 1920.65 376.785 Q1921.79 377.619 1925.21 378.383 L1926.67 378.707 Q1931.21 379.679 1933.11 381.461 Q1935.03 383.221 1935.03 386.392 Q1935.03 390.003 1932.16 392.109 Q1929.31 394.216 1924.31 394.216 Q1922.23 394.216 1919.96 393.799 Q1917.71 393.406 1915.21 392.596 L1915.21 388.197 Q1917.58 389.424 1919.87 390.049 Q1922.16 390.651 1924.4 390.651 Q1927.41 390.651 1929.03 389.633 Q1930.65 388.591 1930.65 386.716 Q1930.65 384.98 1929.47 384.054 Q1928.32 383.128 1924.36 382.272 L1922.88 381.924 Q1918.92 381.091 1917.16 379.378 Q1915.4 377.642 1915.4 374.633 Q1915.4 370.975 1917.99 368.985 Q1920.59 366.994 1925.35 366.994 Q1927.71 366.994 1929.8 367.341 Q1931.88 367.688 1933.64 368.383 Z" fill="#000000" fill-rule="nonzero" fill-opacity="1"></path><path clip-path="url(#clip080)" d="M1941.37 383.313 L1941.37 367.619 L1945.63 367.619 L1945.63 383.151 Q1945.63 386.832 1947.07 388.684 Q1948.5 390.512 1951.37 390.512 Q1954.82 390.512 1956.81 388.313 Q1958.83 386.114 1958.83 382.318 L1958.83 367.619 L1963.08 367.619 L1963.08 393.545 L1958.83 393.545 L1958.83 389.563 Q1957.27 391.924 1955.21 393.082 Q1953.18 394.216 1950.47 394.216 Q1946 394.216 1943.69 391.438 Q1941.37 388.66 1941.37 383.313 M1952.09 366.994 L1952.09 366.994 Z" fill="#000000" fill-rule="nonzero" fill-opacity="1"></path><path clip-path="url(#clip080)" d="M1986.88 371.6 Q1986.16 371.184 1985.31 370.998 Q1984.47 370.79 1983.46 370.79 Q1979.84 370.79 1977.9 373.151 Q1975.98 375.489 1975.98 379.887 L1975.98 393.545 L1971.7 393.545 L1971.7 367.619 L1975.98 367.619 L1975.98 371.647 Q1977.32 369.286 1979.47 368.151 Q1981.63 366.994 1984.71 366.994 Q1985.14 366.994 1985.68 367.063 Q1986.21 367.11 1986.86 367.225 L1986.88 371.6 Z" fill="#000000" fill-rule="nonzero" fill-opacity="1"></path><path clip-path="url(#clip080)" d="M2004.47 357.526 L2004.47 361.068 L2000.4 361.068 Q1998.11 361.068 1997.21 361.994 Q1996.33 362.92 1996.33 365.327 L1996.33 367.619 L2003.34 367.619 L2003.34 370.929 L1996.33 370.929 L1996.33 393.545 L1992.04 393.545 L1992.04 370.929 L1987.97 370.929 L1987.97 367.619 L1992.04 367.619 L1992.04 365.813 Q1992.04 361.485 1994.06 359.517 Q1996.07 357.526 2000.45 357.526 L2004.47 357.526 Z" fill="#000000" fill-rule="nonzero" fill-opacity="1"></path><path clip-path="url(#clip080)" d="M2019.82 380.512 Q2014.66 380.512 2012.67 381.693 Q2010.68 382.873 2010.68 385.721 Q2010.68 387.989 2012.16 389.332 Q2013.66 390.651 2016.23 390.651 Q2019.77 390.651 2021.9 388.151 Q2024.06 385.628 2024.06 381.461 L2024.06 380.512 L2019.82 380.512 M2028.32 378.753 L2028.32 393.545 L2024.06 393.545 L2024.06 389.609 Q2022.6 391.971 2020.42 393.105 Q2018.25 394.216 2015.1 394.216 Q2011.12 394.216 2008.76 391.994 Q2006.42 389.748 2006.42 385.998 Q2006.42 381.623 2009.33 379.401 Q2012.27 377.179 2018.08 377.179 L2024.06 377.179 L2024.06 376.762 Q2024.06 373.823 2022.11 372.225 Q2020.19 370.605 2016.7 370.605 Q2014.47 370.605 2012.37 371.137 Q2010.26 371.67 2008.32 372.735 L2008.32 368.799 Q2010.65 367.897 2012.85 367.457 Q2015.05 366.994 2017.14 366.994 Q2022.76 366.994 2025.54 369.911 Q2028.32 372.827 2028.32 378.753 Z" fill="#000000" fill-rule="nonzero" fill-opacity="1"></path><path clip-path="url(#clip080)" d="M2055.75 368.614 L2055.75 372.596 Q2053.94 371.6 2052.11 371.114 Q2050.31 370.605 2048.45 370.605 Q2044.31 370.605 2042.02 373.244 Q2039.73 375.86 2039.73 380.605 Q2039.73 385.35 2042.02 387.989 Q2044.31 390.605 2048.45 390.605 Q2050.31 390.605 2052.11 390.119 Q2053.94 389.609 2055.75 388.614 L2055.75 392.549 Q2053.96 393.383 2052.04 393.799 Q2050.14 394.216 2047.99 394.216 Q2042.14 394.216 2038.69 390.535 Q2035.24 386.855 2035.24 380.605 Q2035.24 374.262 2038.71 370.628 Q2042.2 366.994 2048.27 366.994 Q2050.24 366.994 2052.11 367.411 Q2053.99 367.804 2055.75 368.614 Z" fill="#000000" fill-rule="nonzero" fill-opacity="1"></path><path clip-path="url(#clip080)" d="M2085.33 379.517 L2085.33 381.6 L2065.75 381.6 Q2066.02 385.998 2068.39 388.313 Q2070.77 390.605 2075.01 390.605 Q2077.46 390.605 2079.75 390.003 Q2082.07 389.401 2084.33 388.197 L2084.33 392.225 Q2082.04 393.197 2079.64 393.707 Q2077.23 394.216 2074.75 394.216 Q2068.55 394.216 2064.91 390.605 Q2061.3 386.994 2061.3 380.836 Q2061.3 374.471 2064.73 370.744 Q2068.18 366.994 2074.01 366.994 Q2079.24 366.994 2082.27 370.373 Q2085.33 373.73 2085.33 379.517 M2081.07 378.267 Q2081.02 374.772 2079.1 372.688 Q2077.2 370.605 2074.06 370.605 Q2070.49 370.605 2068.34 372.619 Q2066.21 374.633 2065.89 378.29 L2081.07 378.267 Z" fill="#000000" fill-rule="nonzero" fill-opacity="1"></path><path clip-path="url(#clip080)" d="M2107.39 367.619 L2111.65 367.619 L2111.65 393.545 L2107.39 393.545 L2107.39 367.619 M2107.39 357.526 L2111.65 357.526 L2111.65 362.92 L2107.39 362.92 L2107.39 357.526 Z" fill="#000000" fill-rule="nonzero" fill-opacity="1"></path><path clip-path="url(#clip080)" d="M2142.11 377.897 L2142.11 393.545 L2137.85 393.545 L2137.85 378.035 Q2137.85 374.355 2136.42 372.526 Q2134.98 370.698 2132.11 370.698 Q2128.66 370.698 2126.67 372.897 Q2124.68 375.096 2124.68 378.892 L2124.68 393.545 L2120.4 393.545 L2120.4 367.619 L2124.68 367.619 L2124.68 371.647 Q2126.21 369.309 2128.27 368.151 Q2130.35 366.994 2133.06 366.994 Q2137.53 366.994 2139.82 369.772 Q2142.11 372.526 2142.11 377.897 Z" fill="#000000" fill-rule="nonzero" fill-opacity="1"></path><path clip-path="url(#clip080)" d="M2150.61 367.619 L2154.87 367.619 L2154.87 393.545 L2150.61 393.545 L2150.61 367.619 M2150.61 357.526 L2154.87 357.526 L2154.87 362.92 L2150.61 362.92 L2150.61 357.526 Z" fill="#000000" fill-rule="nonzero" fill-opacity="1"></path><path clip-path="url(#clip080)" d="M2167.99 360.258 L2167.99 367.619 L2176.76 367.619 L2176.76 370.929 L2167.99 370.929 L2167.99 385.003 Q2167.99 388.174 2168.85 389.077 Q2169.73 389.98 2172.39 389.98 L2176.76 389.98 L2176.76 393.545 L2172.39 393.545 Q2167.46 393.545 2165.58 391.716 Q2163.71 389.864 2163.71 385.003 L2163.71 370.929 L2160.58 370.929 L2160.58 367.619 L2163.71 367.619 L2163.71 360.258 L2167.99 360.258 Z" fill="#000000" fill-rule="nonzero" fill-opacity="1"></path><path clip-path="url(#clip080)" d="M2182.37 367.619 L2186.63 367.619 L2186.63 393.545 L2182.37 393.545 L2182.37 367.619 M2182.37 357.526 L2186.63 357.526 L2186.63 362.92 L2182.37 362.92 L2182.37 357.526 Z" fill="#000000" fill-rule="nonzero" fill-opacity="1"></path><path clip-path="url(#clip080)" d="M2207.32 380.512 Q2202.16 380.512 2200.17 381.693 Q2198.18 382.873 2198.18 385.721 Q2198.18 387.989 2199.66 389.332 Q2201.16 390.651 2203.73 390.651 Q2207.27 390.651 2209.4 388.151 Q2211.56 385.628 2211.56 381.461 L2211.56 380.512 L2207.32 380.512 M2215.81 378.753 L2215.81 393.545 L2211.56 393.545 L2211.56 389.609 Q2210.1 391.971 2207.92 393.105 Q2205.75 394.216 2202.6 394.216 Q2198.62 394.216 2196.25 391.994 Q2193.92 389.748 2193.92 385.998 Q2193.92 381.623 2196.83 379.401 Q2199.77 377.179 2205.58 377.179 L2211.56 377.179 L2211.56 376.762 Q2211.56 373.823 2209.61 372.225 Q2207.69 370.605 2204.19 370.605 Q2201.97 370.605 2199.87 371.137 Q2197.76 371.67 2195.82 372.735 L2195.82 368.799 Q2198.15 367.897 2200.35 367.457 Q2202.55 366.994 2204.63 366.994 Q2210.26 366.994 2213.04 369.911 Q2215.81 372.827 2215.81 378.753 Z" fill="#000000" fill-rule="nonzero" fill-opacity="1"></path><path clip-path="url(#clip080)" d="M2224.59 357.526 L2228.85 357.526 L2228.85 393.545 L2224.59 393.545 L2224.59 357.526 Z" fill="#000000" fill-rule="nonzero" fill-opacity="1"></path><path clip-path="url(#clip080)" d="M2259.94 379.517 L2259.94 381.6 L2240.35 381.6 Q2240.63 385.998 2242.99 388.313 Q2245.37 390.605 2249.61 390.605 Q2252.06 390.605 2254.36 390.003 Q2256.67 389.401 2258.94 388.197 L2258.94 392.225 Q2256.65 393.197 2254.24 393.707 Q2251.83 394.216 2249.36 394.216 Q2243.15 394.216 2239.52 390.605 Q2235.91 386.994 2235.91 380.836 Q2235.91 374.471 2239.33 370.744 Q2242.78 366.994 2248.62 366.994 Q2253.85 366.994 2256.88 370.373 Q2259.94 373.73 2259.94 379.517 M2255.68 378.267 Q2255.63 374.772 2253.71 372.688 Q2251.81 370.605 2248.66 370.605 Q2245.1 370.605 2242.94 372.619 Q2240.81 374.633 2240.49 378.29 L2255.68 378.267 Z" fill="#000000" fill-rule="nonzero" fill-opacity="1"></path><polyline clip-path="url(#clip080)" style="stroke:#000000; stroke-linecap:round; stroke-linejoin:round; stroke-width:4; stroke-opacity:1; fill:none" stroke-dasharray="16, 10" points="1752.78,428.105 1892.01,428.105 "></polyline>
<path clip-path="url(#clip080)" d="M1933.64 420.223 L1933.64 424.251 Q1931.83 423.325 1929.89 422.862 Q1927.95 422.399 1925.86 422.399 Q1922.69 422.399 1921.09 423.371 Q1919.52 424.343 1919.52 426.288 Q1919.52 427.769 1920.65 428.625 Q1921.79 429.459 1925.21 430.223 L1926.67 430.547 Q1931.21 431.519 1933.11 433.301 Q1935.03 435.061 1935.03 438.232 Q1935.03 441.843 1932.16 443.949 Q1929.31 446.056 1924.31 446.056 Q1922.23 446.056 1919.96 445.639 Q1917.71 445.246 1915.21 444.436 L1915.21 440.037 Q1917.58 441.264 1919.87 441.889 Q1922.16 442.491 1924.4 442.491 Q1927.41 442.491 1929.03 441.473 Q1930.65 440.431 1930.65 438.556 Q1930.65 436.82 1929.47 435.894 Q1928.32 434.968 1924.36 434.112 L1922.88 433.764 Q1918.92 432.931 1917.16 431.218 Q1915.4 429.482 1915.4 426.473 Q1915.4 422.815 1917.99 420.825 Q1920.59 418.834 1925.35 418.834 Q1927.71 418.834 1929.8 419.181 Q1931.88 419.528 1933.64 420.223 Z" fill="#000000" fill-rule="nonzero" fill-opacity="1"></path><path clip-path="url(#clip080)" d="M1941.37 435.153 L1941.37 419.459 L1945.63 419.459 L1945.63 434.991 Q1945.63 438.672 1947.07 440.524 Q1948.5 442.352 1951.37 442.352 Q1954.82 442.352 1956.81 440.153 Q1958.83 437.954 1958.83 434.158 L1958.83 419.459 L1963.08 419.459 L1963.08 445.385 L1958.83 445.385 L1958.83 441.403 Q1957.27 443.764 1955.21 444.922 Q1953.18 446.056 1950.47 446.056 Q1946 446.056 1943.69 443.278 Q1941.37 440.5 1941.37 435.153 M1952.09 418.834 L1952.09 418.834 Z" fill="#000000" fill-rule="nonzero" fill-opacity="1"></path><path clip-path="url(#clip080)" d="M1986.88 423.44 Q1986.16 423.024 1985.31 422.838 Q1984.47 422.63 1983.46 422.63 Q1979.84 422.63 1977.9 424.991 Q1975.98 427.329 1975.98 431.727 L1975.98 445.385 L1971.7 445.385 L1971.7 419.459 L1975.98 419.459 L1975.98 423.487 Q1977.32 421.126 1979.47 419.991 Q1981.63 418.834 1984.71 418.834 Q1985.14 418.834 1985.68 418.903 Q1986.21 418.95 1986.86 419.065 L1986.88 423.44 Z" fill="#000000" fill-rule="nonzero" fill-opacity="1"></path><path clip-path="url(#clip080)" d="M2004.47 409.366 L2004.47 412.908 L2000.4 412.908 Q1998.11 412.908 1997.21 413.834 Q1996.33 414.76 1996.33 417.167 L1996.33 419.459 L2003.34 419.459 L2003.34 422.769 L1996.33 422.769 L1996.33 445.385 L1992.04 445.385 L1992.04 422.769 L1987.97 422.769 L1987.97 419.459 L1992.04 419.459 L1992.04 417.653 Q1992.04 413.325 1994.06 411.357 Q1996.07 409.366 2000.45 409.366 L2004.47 409.366 Z" fill="#000000" fill-rule="nonzero" fill-opacity="1"></path><path clip-path="url(#clip080)" d="M2019.82 432.352 Q2014.66 432.352 2012.67 433.533 Q2010.68 434.713 2010.68 437.561 Q2010.68 439.829 2012.16 441.172 Q2013.66 442.491 2016.23 442.491 Q2019.77 442.491 2021.9 439.991 Q2024.06 437.468 2024.06 433.301 L2024.06 432.352 L2019.82 432.352 M2028.32 430.593 L2028.32 445.385 L2024.06 445.385 L2024.06 441.449 Q2022.6 443.811 2020.42 444.945 Q2018.25 446.056 2015.1 446.056 Q2011.12 446.056 2008.76 443.834 Q2006.42 441.588 2006.42 437.838 Q2006.42 433.463 2009.33 431.241 Q2012.27 429.019 2018.08 429.019 L2024.06 429.019 L2024.06 428.602 Q2024.06 425.663 2022.11 424.065 Q2020.19 422.445 2016.7 422.445 Q2014.47 422.445 2012.37 422.977 Q2010.26 423.51 2008.32 424.575 L2008.32 420.639 Q2010.65 419.737 2012.85 419.297 Q2015.05 418.834 2017.14 418.834 Q2022.76 418.834 2025.54 421.751 Q2028.32 424.667 2028.32 430.593 Z" fill="#000000" fill-rule="nonzero" fill-opacity="1"></path><path clip-path="url(#clip080)" d="M2055.75 420.454 L2055.75 424.436 Q2053.94 423.44 2052.11 422.954 Q2050.31 422.445 2048.45 422.445 Q2044.31 422.445 2042.02 425.084 Q2039.73 427.7 2039.73 432.445 Q2039.73 437.19 2042.02 439.829 Q2044.31 442.445 2048.45 442.445 Q2050.31 442.445 2052.11 441.959 Q2053.94 441.449 2055.75 440.454 L2055.75 444.389 Q2053.96 445.223 2052.04 445.639 Q2050.14 446.056 2047.99 446.056 Q2042.14 446.056 2038.69 442.375 Q2035.24 438.695 2035.24 432.445 Q2035.24 426.102 2038.71 422.468 Q2042.2 418.834 2048.27 418.834 Q2050.24 418.834 2052.11 419.251 Q2053.99 419.644 2055.75 420.454 Z" fill="#000000" fill-rule="nonzero" fill-opacity="1"></path><path clip-path="url(#clip080)" d="M2085.33 431.357 L2085.33 433.44 L2065.75 433.44 Q2066.02 437.838 2068.39 440.153 Q2070.77 442.445 2075.01 442.445 Q2077.46 442.445 2079.75 441.843 Q2082.07 441.241 2084.33 440.037 L2084.33 444.065 Q2082.04 445.037 2079.64 445.547 Q2077.23 446.056 2074.75 446.056 Q2068.55 446.056 2064.91 442.445 Q2061.3 438.834 2061.3 432.676 Q2061.3 426.311 2064.73 422.584 Q2068.18 418.834 2074.01 418.834 Q2079.24 418.834 2082.27 422.213 Q2085.33 425.57 2085.33 431.357 M2081.07 430.107 Q2081.02 426.612 2079.1 424.528 Q2077.2 422.445 2074.06 422.445 Q2070.49 422.445 2068.34 424.459 Q2066.21 426.473 2065.89 430.13 L2081.07 430.107 Z" fill="#000000" fill-rule="nonzero" fill-opacity="1"></path><path clip-path="url(#clip080)" d="M2117.44 422.445 Q2114.01 422.445 2112.02 425.13 Q2110.03 427.792 2110.03 432.445 Q2110.03 437.098 2112 439.783 Q2113.99 442.445 2117.44 442.445 Q2120.84 442.445 2122.83 439.76 Q2124.82 437.075 2124.82 432.445 Q2124.82 427.838 2122.83 425.153 Q2120.84 422.445 2117.44 422.445 M2117.44 418.834 Q2122.99 418.834 2126.16 422.445 Q2129.33 426.056 2129.33 432.445 Q2129.33 438.811 2126.16 442.445 Q2122.99 446.056 2117.44 446.056 Q2111.86 446.056 2108.69 442.445 Q2105.54 438.811 2105.54 432.445 Q2105.54 426.056 2108.69 422.445 Q2111.86 418.834 2117.44 418.834 Z" fill="#000000" fill-rule="nonzero" fill-opacity="1"></path><path clip-path="url(#clip080)" d="M2153.45 432.121 Q2153.45 427.491 2151.53 424.945 Q2149.63 422.399 2146.19 422.399 Q2142.76 422.399 2140.84 424.945 Q2138.94 427.491 2138.94 432.121 Q2138.94 436.727 2140.84 439.274 Q2142.76 441.82 2146.19 441.82 Q2149.63 441.82 2151.53 439.274 Q2153.45 436.727 2153.45 432.121 M2157.71 442.167 Q2157.71 448.787 2154.77 452.005 Q2151.83 455.246 2145.77 455.246 Q2143.52 455.246 2141.53 454.898 Q2139.54 454.574 2137.67 453.88 L2137.67 449.736 Q2139.54 450.755 2141.37 451.241 Q2143.2 451.727 2145.1 451.727 Q2149.29 451.727 2151.37 449.528 Q2153.45 447.352 2153.45 442.931 L2153.45 440.824 Q2152.13 443.116 2150.07 444.25 Q2148.01 445.385 2145.14 445.385 Q2140.38 445.385 2137.46 441.75 Q2134.54 438.116 2134.54 432.121 Q2134.54 426.102 2137.46 422.468 Q2140.38 418.834 2145.14 418.834 Q2148.01 418.834 2150.07 419.968 Q2152.13 421.102 2153.45 423.394 L2153.45 419.459 L2157.71 419.459 L2157.71 442.167 Z" fill="#000000" fill-rule="nonzero" fill-opacity="1"></path><path clip-path="url(#clip080)" d="M2183.55 432.121 Q2183.55 427.491 2181.63 424.945 Q2179.73 422.399 2176.28 422.399 Q2172.85 422.399 2170.93 424.945 Q2169.03 427.491 2169.03 432.121 Q2169.03 436.727 2170.93 439.274 Q2172.85 441.82 2176.28 441.82 Q2179.73 441.82 2181.63 439.274 Q2183.55 436.727 2183.55 432.121 M2187.81 442.167 Q2187.81 448.787 2184.87 452.005 Q2181.93 455.246 2175.86 455.246 Q2173.62 455.246 2171.63 454.898 Q2169.63 454.574 2167.76 453.88 L2167.76 449.736 Q2169.63 450.755 2171.46 451.241 Q2173.29 451.727 2175.19 451.727 Q2179.38 451.727 2181.46 449.528 Q2183.55 447.352 2183.55 442.931 L2183.55 440.824 Q2182.23 443.116 2180.17 444.25 Q2178.11 445.385 2175.24 445.385 Q2170.47 445.385 2167.55 441.75 Q2164.63 438.116 2164.63 432.121 Q2164.63 426.102 2167.55 422.468 Q2170.47 418.834 2175.24 418.834 Q2178.11 418.834 2180.17 419.968 Q2182.23 421.102 2183.55 423.394 L2183.55 419.459 L2187.81 419.459 L2187.81 442.167 Z" fill="#000000" fill-rule="nonzero" fill-opacity="1"></path><path clip-path="url(#clip080)" d="M2216.76 424.436 Q2218.36 421.565 2220.58 420.2 Q2222.81 418.834 2225.81 418.834 Q2229.87 418.834 2232.06 421.681 Q2234.26 424.505 2234.26 429.737 L2234.26 445.385 L2229.98 445.385 L2229.98 429.875 Q2229.98 426.149 2228.66 424.343 Q2227.34 422.538 2224.63 422.538 Q2221.32 422.538 2219.4 424.737 Q2217.48 426.936 2217.48 430.732 L2217.48 445.385 L2213.2 445.385 L2213.2 429.875 Q2213.2 426.125 2211.88 424.343 Q2210.56 422.538 2207.81 422.538 Q2204.54 422.538 2202.62 424.76 Q2200.7 426.959 2200.7 430.732 L2200.7 445.385 L2196.42 445.385 L2196.42 419.459 L2200.7 419.459 L2200.7 423.487 Q2202.16 421.102 2204.19 419.968 Q2206.23 418.834 2209.03 418.834 Q2211.86 418.834 2213.82 420.269 Q2215.81 421.704 2216.76 424.436 Z" fill="#000000" fill-rule="nonzero" fill-opacity="1"></path></svg>