<svg xmlns="http://www.w3.org/2000/svg" xmlns:xlink="http://www.w3.org/1999/xlink" width="600" height="400" viewBox="0 0 2400 1600">
<defs>
  <clipPath id="clip600">
    <rect x="0" y="0" width="2400" height="1600"></rect>
  </clipPath>
</defs>
<path clip-path="url(#clip600)" d="M0 1600 L2400 1600 L2400 0 L0 0  Z" fill="#ffffff" fill-rule="evenodd" fill-opacity="1"></path>
<defs>
  <clipPath id="clip601">
    <rect x="480" y="0" width="1681" height="1600"></rect>
  </clipPath>
</defs>
<path clip-path="url(#clip600)" d="M265.445 1486.45 L2352.76 1486.45 L2352.76 123.472 L265.445 123.472  Z" fill="#ffffff" fill-rule="evenodd" fill-opacity="1"></path>
<defs>
  <clipPath id="clip602">
    <rect x="265" y="123" width="2088" height="1364"></rect>
  </clipPath>
</defs>
<polyline clip-path="url(#clip602)" style="stroke:#000000; stroke-linecap:round; stroke-linejoin:round; stroke-width:2; stroke-opacity:0.1; fill:none" points="306.938,1486.45 306.938,123.472 "></polyline>
<polyline clip-path="url(#clip602)" style="stroke:#000000; stroke-linecap:round; stroke-linejoin:round; stroke-width:2; stroke-opacity:0.1; fill:none" points="746.483,1486.45 746.483,123.472 "></polyline>
<polyline clip-path="url(#clip602)" style="stroke:#000000; stroke-linecap:round; stroke-linejoin:round; stroke-width:2; stroke-opacity:0.1; fill:none" points="1186.03,1486.45 1186.03,123.472 "></polyline>
<polyline clip-path="url(#clip602)" style="stroke:#000000; stroke-linecap:round; stroke-linejoin:round; stroke-width:2; stroke-opacity:0.1; fill:none" points="1625.57,1486.45 1625.57,123.472 "></polyline>
<polyline clip-path="url(#clip602)" style="stroke:#000000; stroke-linecap:round; stroke-linejoin:round; stroke-width:2; stroke-opacity:0.1; fill:none" points="2065.12,1486.45 2065.12,123.472 "></polyline>
<polyline clip-path="url(#clip600)" style="stroke:#000000; stroke-linecap:round; stroke-linejoin:round; stroke-width:4; stroke-opacity:1; fill:none" points="265.445,1486.45 2352.76,1486.45 "></polyline>
<polyline clip-path="url(#clip600)" style="stroke:#000000; stroke-linecap:round; stroke-linejoin:round; stroke-width:4; stroke-opacity:1; fill:none" points="306.938,1486.45 306.938,1467.55 "></polyline>
<polyline clip-path="url(#clip600)" style="stroke:#000000; stroke-linecap:round; stroke-linejoin:round; stroke-width:4; stroke-opacity:1; fill:none" points="746.483,1486.45 746.483,1467.55 "></polyline>
<polyline clip-path="url(#clip600)" style="stroke:#000000; stroke-linecap:round; stroke-linejoin:round; stroke-width:4; stroke-opacity:1; fill:none" points="1186.03,1486.45 1186.03,1467.55 "></polyline>
<polyline clip-path="url(#clip600)" style="stroke:#000000; stroke-linecap:round; stroke-linejoin:round; stroke-width:4; stroke-opacity:1; fill:none" points="1625.57,1486.45 1625.57,1467.55 "></polyline>
<polyline clip-path="url(#clip600)" style="stroke:#000000; stroke-linecap:round; stroke-linejoin:round; stroke-width:4; stroke-opacity:1; fill:none" points="2065.12,1486.45 2065.12,1467.55 "></polyline>
<path clip-path="url(#clip600)" d="M306.938 1517.37 Q303.327 1517.37 301.498 1520.93 Q299.692 1524.47 299.692 1531.6 Q299.692 1538.71 301.498 1542.27 Q303.327 1545.82 306.938 1545.82 Q310.572 1545.82 312.378 1542.27 Q314.206 1538.71 314.206 1531.6 Q314.206 1524.47 312.378 1520.93 Q310.572 1517.37 306.938 1517.37 M306.938 1513.66 Q312.748 1513.66 315.803 1518.27 Q318.882 1522.85 318.882 1531.6 Q318.882 1540.33 315.803 1544.94 Q312.748 1549.52 306.938 1549.52 Q301.128 1549.52 298.049 1544.94 Q294.993 1540.33 294.993 1531.6 Q294.993 1522.85 298.049 1518.27 Q301.128 1513.66 306.938 1513.66 Z" fill="#000000" fill-rule="nonzero" fill-opacity="1"></path><path clip-path="url(#clip600)" d="M725.754 1544.91 L742.073 1544.91 L742.073 1548.85 L720.129 1548.85 L720.129 1544.91 Q722.791 1542.16 727.374 1537.53 Q731.981 1532.88 733.161 1531.53 Q735.406 1529.01 736.286 1527.27 Q737.189 1525.51 737.189 1523.82 Q737.189 1521.07 735.244 1519.33 Q733.323 1517.6 730.221 1517.6 Q728.022 1517.6 725.569 1518.36 Q723.138 1519.13 720.36 1520.68 L720.36 1515.95 Q723.184 1514.82 725.638 1514.24 Q728.092 1513.66 730.129 1513.66 Q735.499 1513.66 738.693 1516.35 Q741.888 1519.03 741.888 1523.52 Q741.888 1525.65 741.078 1527.57 Q740.291 1529.47 738.184 1532.07 Q737.605 1532.74 734.504 1535.95 Q731.402 1539.15 725.754 1544.91 Z" fill="#000000" fill-rule="nonzero" fill-opacity="1"></path><path clip-path="url(#clip600)" d="M751.934 1514.29 L770.29 1514.29 L770.29 1518.22 L756.216 1518.22 L756.216 1526.7 Q757.235 1526.35 758.254 1526.19 Q759.272 1526 760.291 1526 Q766.078 1526 769.457 1529.17 Q772.837 1532.34 772.837 1537.76 Q772.837 1543.34 769.365 1546.44 Q765.892 1549.52 759.573 1549.52 Q757.397 1549.52 755.129 1549.15 Q752.883 1548.78 750.476 1548.04 L750.476 1543.34 Q752.559 1544.47 754.781 1545.03 Q757.004 1545.58 759.48 1545.58 Q763.485 1545.58 765.823 1543.48 Q768.161 1541.37 768.161 1537.76 Q768.161 1534.15 765.823 1532.04 Q763.485 1529.94 759.48 1529.94 Q757.605 1529.94 755.73 1530.35 Q753.879 1530.77 751.934 1531.65 L751.934 1514.29 Z" fill="#000000" fill-rule="nonzero" fill-opacity="1"></path><path clip-path="url(#clip600)" d="M1160.73 1514.29 L1179.08 1514.29 L1179.08 1518.22 L1165.01 1518.22 L1165.01 1526.7 Q1166.03 1526.35 1167.05 1526.19 Q1168.06 1526 1169.08 1526 Q1174.87 1526 1178.25 1529.17 Q1181.63 1532.34 1181.63 1537.76 Q1181.63 1543.34 1178.16 1546.44 Q1174.69 1549.52 1168.37 1549.52 Q1166.19 1549.52 1163.92 1549.15 Q1161.68 1548.78 1159.27 1548.04 L1159.27 1543.34 Q1161.35 1544.47 1163.57 1545.03 Q1165.8 1545.58 1168.27 1545.58 Q1172.28 1545.58 1174.62 1543.48 Q1176.95 1541.37 1176.95 1537.76 Q1176.95 1534.15 1174.62 1532.04 Q1172.28 1529.94 1168.27 1529.94 Q1166.4 1529.94 1164.52 1530.35 Q1162.67 1530.77 1160.73 1531.65 L1160.73 1514.29 Z" fill="#000000" fill-rule="nonzero" fill-opacity="1"></path><path clip-path="url(#clip600)" d="M1200.84 1517.37 Q1197.23 1517.37 1195.4 1520.93 Q1193.6 1524.47 1193.6 1531.6 Q1193.6 1538.71 1195.4 1542.27 Q1197.23 1545.82 1200.84 1545.82 Q1204.48 1545.82 1206.28 1542.27 Q1208.11 1538.71 1208.11 1531.6 Q1208.11 1524.47 1206.28 1520.93 Q1204.48 1517.37 1200.84 1517.37 M1200.84 1513.66 Q1206.65 1513.66 1209.71 1518.27 Q1212.79 1522.85 1212.79 1531.6 Q1212.79 1540.33 1209.71 1544.94 Q1206.65 1549.52 1200.84 1549.52 Q1195.03 1549.52 1191.95 1544.94 Q1188.9 1540.33 1188.9 1531.6 Q1188.9 1522.85 1191.95 1518.27 Q1195.03 1513.66 1200.84 1513.66 Z" fill="#000000" fill-rule="nonzero" fill-opacity="1"></path><path clip-path="url(#clip600)" d="M1599.43 1514.29 L1621.65 1514.29 L1621.65 1516.28 L1609.1 1548.85 L1604.22 1548.85 L1616.02 1518.22 L1599.43 1518.22 L1599.43 1514.29 Z" fill="#000000" fill-rule="nonzero" fill-opacity="1"></path><path clip-path="url(#clip600)" d="M1630.82 1514.29 L1649.17 1514.29 L1649.17 1518.22 L1635.1 1518.22 L1635.1 1526.7 Q1636.12 1526.35 1637.14 1526.19 Q1638.15 1526 1639.17 1526 Q1644.96 1526 1648.34 1529.17 Q1651.72 1532.34 1651.72 1537.76 Q1651.72 1543.34 1648.25 1546.44 Q1644.77 1549.52 1638.45 1549.52 Q1636.28 1549.52 1634.01 1549.15 Q1631.76 1548.78 1629.36 1548.04 L1629.36 1543.34 Q1631.44 1544.47 1633.66 1545.03 Q1635.89 1545.58 1638.36 1545.58 Q1642.37 1545.58 1644.7 1543.48 Q1647.04 1541.37 1647.04 1537.76 Q1647.04 1534.15 1644.7 1532.04 Q1642.37 1529.94 1638.36 1529.94 Q1636.49 1529.94 1634.61 1530.35 Q1632.76 1530.77 1630.82 1531.65 L1630.82 1514.29 Z" fill="#000000" fill-rule="nonzero" fill-opacity="1"></path><path clip-path="url(#clip600)" d="M2024.72 1544.91 L2032.36 1544.91 L2032.36 1518.55 L2024.05 1520.21 L2024.05 1515.95 L2032.32 1514.29 L2036.99 1514.29 L2036.99 1544.91 L2044.63 1544.91 L2044.63 1548.85 L2024.72 1548.85 L2024.72 1544.91 Z" fill="#000000" fill-rule="nonzero" fill-opacity="1"></path><path clip-path="url(#clip600)" d="M2064.08 1517.37 Q2060.46 1517.37 2058.64 1520.93 Q2056.83 1524.47 2056.83 1531.6 Q2056.83 1538.71 2058.64 1542.27 Q2060.46 1545.82 2064.08 1545.82 Q2067.71 1545.82 2069.52 1542.27 Q2071.34 1538.71 2071.34 1531.6 Q2071.34 1524.47 2069.52 1520.93 Q2067.71 1517.37 2064.08 1517.37 M2064.08 1513.66 Q2069.89 1513.66 2072.94 1518.27 Q2076.02 1522.85 2076.02 1531.6 Q2076.02 1540.33 2072.94 1544.94 Q2069.89 1549.52 2064.08 1549.52 Q2058.27 1549.52 2055.19 1544.94 Q2052.13 1540.33 2052.13 1531.6 Q2052.13 1522.85 2055.19 1518.27 Q2058.27 1513.66 2064.08 1513.66 Z" fill="#000000" fill-rule="nonzero" fill-opacity="1"></path><path clip-path="url(#clip600)" d="M2094.24 1517.37 Q2090.63 1517.37 2088.8 1520.93 Q2086.99 1524.47 2086.99 1531.6 Q2086.99 1538.71 2088.8 1542.27 Q2090.63 1545.82 2094.24 1545.82 Q2097.87 1545.82 2099.68 1542.27 Q2101.51 1538.71 2101.51 1531.6 Q2101.51 1524.47 2099.68 1520.93 Q2097.87 1517.37 2094.24 1517.37 M2094.24 1513.66 Q2100.05 1513.66 2103.1 1518.27 Q2106.18 1522.85 2106.18 1531.6 Q2106.18 1540.33 2103.1 1544.94 Q2100.05 1549.52 2094.24 1549.52 Q2088.43 1549.52 2085.35 1544.94 Q2082.29 1540.33 2082.29 1531.6 Q2082.29 1522.85 2085.35 1518.27 Q2088.43 1513.66 2094.24 1513.66 Z" fill="#000000" fill-rule="nonzero" fill-opacity="1"></path><polyline clip-path="url(#clip602)" style="stroke:#000000; stroke-linecap:round; stroke-linejoin:round; stroke-width:2; stroke-opacity:0.1; fill:none" points="265.445,1431.89 2352.76,1431.89 "></polyline>
<polyline clip-path="url(#clip602)" style="stroke:#000000; stroke-linecap:round; stroke-linejoin:round; stroke-width:2; stroke-opacity:0.1; fill:none" points="265.445,1094.04 2352.76,1094.04 "></polyline>
<polyline clip-path="url(#clip602)" style="stroke:#000000; stroke-linecap:round; stroke-linejoin:round; stroke-width:2; stroke-opacity:0.1; fill:none" points="265.445,756.184 2352.76,756.184 "></polyline>
<polyline clip-path="url(#clip602)" style="stroke:#000000; stroke-linecap:round; stroke-linejoin:round; stroke-width:2; stroke-opacity:0.1; fill:none" points="265.445,418.33 2352.76,418.33 "></polyline>
<polyline clip-path="url(#clip600)" style="stroke:#000000; stroke-linecap:round; stroke-linejoin:round; stroke-width:4; stroke-opacity:1; fill:none" points="265.445,1486.45 265.445,123.472 "></polyline>
<polyline clip-path="url(#clip600)" style="stroke:#000000; stroke-linecap:round; stroke-linejoin:round; stroke-width:4; stroke-opacity:1; fill:none" points="265.445,1431.89 284.342,1431.89 "></polyline>
<polyline clip-path="url(#clip600)" style="stroke:#000000; stroke-linecap:round; stroke-linejoin:round; stroke-width:4; stroke-opacity:1; fill:none" points="265.445,1094.04 284.342,1094.04 "></polyline>
<polyline clip-path="url(#clip600)" style="stroke:#000000; stroke-linecap:round; stroke-linejoin:round; stroke-width:4; stroke-opacity:1; fill:none" points="265.445,756.184 284.342,756.184 "></polyline>
<polyline clip-path="url(#clip600)" style="stroke:#000000; stroke-linecap:round; stroke-linejoin:round; stroke-width:4; stroke-opacity:1; fill:none" points="265.445,418.33 284.342,418.33 "></polyline>
<path clip-path="url(#clip600)" d="M117.825 1445.24 L125.464 1445.24 L125.464 1418.87 L117.154 1420.54 L117.154 1416.28 L125.418 1414.61 L130.093 1414.61 L130.093 1445.24 L137.732 1445.24 L137.732 1449.17 L117.825 1449.17 L117.825 1445.24 Z" fill="#000000" fill-rule="nonzero" fill-opacity="1"></path><path clip-path="url(#clip600)" d="M157.177 1417.69 Q153.566 1417.69 151.737 1421.25 Q149.931 1424.8 149.931 1431.93 Q149.931 1439.03 151.737 1442.6 Q153.566 1446.14 157.177 1446.14 Q160.811 1446.14 162.616 1442.6 Q164.445 1439.03 164.445 1431.93 Q164.445 1424.8 162.616 1421.25 Q160.811 1417.69 157.177 1417.69 M157.177 1413.99 Q162.987 1413.99 166.042 1418.59 Q169.121 1423.18 169.121 1431.93 Q169.121 1440.65 166.042 1445.26 Q162.987 1449.84 157.177 1449.84 Q151.366 1449.84 148.288 1445.26 Q145.232 1440.65 145.232 1431.93 Q145.232 1423.18 148.288 1418.59 Q151.366 1413.99 157.177 1413.99 Z" fill="#000000" fill-rule="nonzero" fill-opacity="1"></path><path clip-path="url(#clip600)" d="M187.338 1417.69 Q183.727 1417.69 181.899 1421.25 Q180.093 1424.8 180.093 1431.93 Q180.093 1439.03 181.899 1442.6 Q183.727 1446.14 187.338 1446.14 Q190.973 1446.14 192.778 1442.6 Q194.607 1439.03 194.607 1431.93 Q194.607 1424.8 192.778 1421.25 Q190.973 1417.69 187.338 1417.69 M187.338 1413.99 Q193.149 1413.99 196.204 1418.59 Q199.283 1423.18 199.283 1431.93 Q199.283 1440.65 196.204 1445.26 Q193.149 1449.84 187.338 1449.84 Q181.528 1449.84 178.45 1445.26 Q175.394 1440.65 175.394 1431.93 Q175.394 1423.18 178.45 1418.59 Q181.528 1413.99 187.338 1413.99 Z" fill="#000000" fill-rule="nonzero" fill-opacity="1"></path><path clip-path="url(#clip600)" d="M217.5 1417.69 Q213.889 1417.69 212.061 1421.25 Q210.255 1424.8 210.255 1431.93 Q210.255 1439.03 212.061 1442.6 Q213.889 1446.14 217.5 1446.14 Q221.135 1446.14 222.94 1442.6 Q224.769 1439.03 224.769 1431.93 Q224.769 1424.8 222.94 1421.25 Q221.135 1417.69 217.5 1417.69 M217.5 1413.99 Q223.31 1413.99 226.366 1418.59 Q229.445 1423.18 229.445 1431.93 Q229.445 1440.65 226.366 1445.26 Q223.31 1449.84 217.5 1449.84 Q211.69 1449.84 208.612 1445.26 Q205.556 1440.65 205.556 1431.93 Q205.556 1423.18 208.612 1418.59 Q211.69 1413.99 217.5 1413.99 Z" fill="#000000" fill-rule="nonzero" fill-opacity="1"></path><path clip-path="url(#clip600)" d="M121.043 1107.38 L137.362 1107.38 L137.362 1111.32 L115.418 1111.32 L115.418 1107.38 Q118.08 1104.63 122.663 1100 Q127.269 1095.35 128.45 1094 Q130.695 1091.48 131.575 1089.74 Q132.478 1087.98 132.478 1086.29 Q132.478 1083.54 130.533 1081.8 Q128.612 1080.07 125.51 1080.07 Q123.311 1080.07 120.857 1080.83 Q118.427 1081.6 115.649 1083.15 L115.649 1078.42 Q118.473 1077.29 120.927 1076.71 Q123.38 1076.13 125.418 1076.13 Q130.788 1076.13 133.982 1078.82 Q137.177 1081.5 137.177 1085.99 Q137.177 1088.12 136.367 1090.04 Q135.579 1091.94 133.473 1094.54 Q132.894 1095.21 129.792 1098.42 Q126.691 1101.62 121.043 1107.38 Z" fill="#000000" fill-rule="nonzero" fill-opacity="1"></path><path clip-path="url(#clip600)" d="M157.177 1079.84 Q153.566 1079.84 151.737 1083.4 Q149.931 1086.94 149.931 1094.07 Q149.931 1101.18 151.737 1104.74 Q153.566 1108.29 157.177 1108.29 Q160.811 1108.29 162.616 1104.74 Q164.445 1101.18 164.445 1094.07 Q164.445 1086.94 162.616 1083.4 Q160.811 1079.84 157.177 1079.84 M157.177 1076.13 Q162.987 1076.13 166.042 1080.74 Q169.121 1085.32 169.121 1094.07 Q169.121 1102.8 166.042 1107.41 Q162.987 1111.99 157.177 1111.99 Q151.366 1111.99 148.288 1107.41 Q145.232 1102.8 145.232 1094.07 Q145.232 1085.32 148.288 1080.74 Q151.366 1076.13 157.177 1076.13 Z" fill="#000000" fill-rule="nonzero" fill-opacity="1"></path><path clip-path="url(#clip600)" d="M187.338 1079.84 Q183.727 1079.84 181.899 1083.4 Q180.093 1086.94 180.093 1094.07 Q180.093 1101.18 181.899 1104.74 Q183.727 1108.29 187.338 1108.29 Q190.973 1108.29 192.778 1104.74 Q194.607 1101.18 194.607 1094.07 Q194.607 1086.94 192.778 1083.4 Q190.973 1079.84 187.338 1079.84 M187.338 1076.13 Q193.149 1076.13 196.204 1080.74 Q199.283 1085.32 199.283 1094.07 Q199.283 1102.8 196.204 1107.41 Q193.149 1111.99 187.338 1111.99 Q181.528 1111.99 178.45 1107.41 Q175.394 1102.8 175.394 1094.07 Q175.394 1085.32 178.45 1080.74 Q181.528 1076.13 187.338 1076.13 Z" fill="#000000" fill-rule="nonzero" fill-opacity="1"></path><path clip-path="url(#clip600)" d="M217.5 1079.84 Q213.889 1079.84 212.061 1083.4 Q210.255 1086.94 210.255 1094.07 Q210.255 1101.18 212.061 1104.74 Q213.889 1108.29 217.5 1108.29 Q221.135 1108.29 222.94 1104.74 Q224.769 1101.18 224.769 1094.07 Q224.769 1086.94 222.94 1083.4 Q221.135 1079.84 217.5 1079.84 M217.5 1076.13 Q223.31 1076.13 226.366 1080.74 Q229.445 1085.32 229.445 1094.07 Q229.445 1102.8 226.366 1107.41 Q223.31 1111.99 217.5 1111.99 Q211.69 1111.99 208.612 1107.41 Q205.556 1102.8 205.556 1094.07 Q205.556 1085.32 208.612 1080.74 Q211.69 1076.13 217.5 1076.13 Z" fill="#000000" fill-rule="nonzero" fill-opacity="1"></path><path clip-path="url(#clip600)" d="M131.181 754.83 Q134.538 755.547 136.413 757.816 Q138.311 760.084 138.311 763.418 Q138.311 768.533 134.792 771.334 Q131.274 774.135 124.793 774.135 Q122.617 774.135 120.302 773.695 Q118.01 773.279 115.556 772.422 L115.556 767.908 Q117.501 769.043 119.816 769.621 Q122.13 770.2 124.654 770.2 Q129.052 770.2 131.343 768.464 Q133.658 766.728 133.658 763.418 Q133.658 760.362 131.505 758.649 Q129.376 756.913 125.556 756.913 L121.529 756.913 L121.529 753.071 L125.742 753.071 Q129.191 753.071 131.019 751.705 Q132.848 750.316 132.848 747.723 Q132.848 745.061 130.95 743.649 Q129.075 742.214 125.556 742.214 Q123.635 742.214 121.436 742.631 Q119.237 743.047 116.598 743.927 L116.598 739.76 Q119.26 739.02 121.575 738.649 Q123.913 738.279 125.973 738.279 Q131.297 738.279 134.399 740.71 Q137.501 743.117 137.501 747.237 Q137.501 750.108 135.857 752.098 Q134.214 754.066 131.181 754.83 Z" fill="#000000" fill-rule="nonzero" fill-opacity="1"></path><path clip-path="url(#clip600)" d="M157.177 741.983 Q153.566 741.983 151.737 745.547 Q149.931 749.089 149.931 756.219 Q149.931 763.325 151.737 766.89 Q153.566 770.432 157.177 770.432 Q160.811 770.432 162.616 766.89 Q164.445 763.325 164.445 756.219 Q164.445 749.089 162.616 745.547 Q160.811 741.983 157.177 741.983 M157.177 738.279 Q162.987 738.279 166.042 742.885 Q169.121 747.469 169.121 756.219 Q169.121 764.945 166.042 769.552 Q162.987 774.135 157.177 774.135 Q151.366 774.135 148.288 769.552 Q145.232 764.945 145.232 756.219 Q145.232 747.469 148.288 742.885 Q151.366 738.279 157.177 738.279 Z" fill="#000000" fill-rule="nonzero" fill-opacity="1"></path><path clip-path="url(#clip600)" d="M187.338 741.983 Q183.727 741.983 181.899 745.547 Q180.093 749.089 180.093 756.219 Q180.093 763.325 181.899 766.89 Q183.727 770.432 187.338 770.432 Q190.973 770.432 192.778 766.89 Q194.607 763.325 194.607 756.219 Q194.607 749.089 192.778 745.547 Q190.973 741.983 187.338 741.983 M187.338 738.279 Q193.149 738.279 196.204 742.885 Q199.283 747.469 199.283 756.219 Q199.283 764.945 196.204 769.552 Q193.149 774.135 187.338 774.135 Q181.528 774.135 178.45 769.552 Q175.394 764.945 175.394 756.219 Q175.394 747.469 178.45 742.885 Q181.528 738.279 187.338 738.279 Z" fill="#000000" fill-rule="nonzero" fill-opacity="1"></path><path clip-path="url(#clip600)" d="M217.5 741.983 Q213.889 741.983 212.061 745.547 Q210.255 749.089 210.255 756.219 Q210.255 763.325 212.061 766.89 Q213.889 770.432 217.5 770.432 Q221.135 770.432 222.94 766.89 Q224.769 763.325 224.769 756.219 Q224.769 749.089 222.94 745.547 Q221.135 741.983 217.5 741.983 M217.5 738.279 Q223.31 738.279 226.366 742.885 Q229.445 747.469 229.445 756.219 Q229.445 764.945 226.366 769.552 Q223.31 774.135 217.5 774.135 Q211.69 774.135 208.612 769.552 Q205.556 764.945 205.556 756.219 Q205.556 747.469 208.612 742.885 Q211.69 738.279 217.5 738.279 Z" fill="#000000" fill-rule="nonzero" fill-opacity="1"></path><path clip-path="url(#clip600)" d="M129.862 405.124 L118.056 423.573 L129.862 423.573 L129.862 405.124 M128.635 401.05 L134.515 401.05 L134.515 423.573 L139.445 423.573 L139.445 427.462 L134.515 427.462 L134.515 435.61 L129.862 435.61 L129.862 427.462 L114.26 427.462 L114.26 422.948 L128.635 401.05 Z" fill="#000000" fill-rule="nonzero" fill-opacity="1"></path><path clip-path="url(#clip600)" d="M157.177 404.129 Q153.566 404.129 151.737 407.694 Q149.931 411.236 149.931 418.365 Q149.931 425.472 151.737 429.036 Q153.566 432.578 157.177 432.578 Q160.811 432.578 162.616 429.036 Q164.445 425.472 164.445 418.365 Q164.445 411.236 162.616 407.694 Q160.811 404.129 157.177 404.129 M157.177 400.425 Q162.987 400.425 166.042 405.032 Q169.121 409.615 169.121 418.365 Q169.121 427.092 166.042 431.698 Q162.987 436.282 157.177 436.282 Q151.366 436.282 148.288 431.698 Q145.232 427.092 145.232 418.365 Q145.232 409.615 148.288 405.032 Q151.366 400.425 157.177 400.425 Z" fill="#000000" fill-rule="nonzero" fill-opacity="1"></path><path clip-path="url(#clip600)" d="M187.338 404.129 Q183.727 404.129 181.899 407.694 Q180.093 411.236 180.093 418.365 Q180.093 425.472 181.899 429.036 Q183.727 432.578 187.338 432.578 Q190.973 432.578 192.778 429.036 Q194.607 425.472 194.607 418.365 Q194.607 411.236 192.778 407.694 Q190.973 404.129 187.338 404.129 M187.338 400.425 Q193.149 400.425 196.204 405.032 Q199.283 409.615 199.283 418.365 Q199.283 427.092 196.204 431.698 Q193.149 436.282 187.338 436.282 Q181.528 436.282 178.45 431.698 Q175.394 427.092 175.394 418.365 Q175.394 409.615 178.45 405.032 Q181.528 400.425 187.338 400.425 Z" fill="#000000" fill-rule="nonzero" fill-opacity="1"></path><path clip-path="url(#clip600)" d="M217.5 404.129 Q213.889 404.129 212.061 407.694 Q210.255 411.236 210.255 418.365 Q210.255 425.472 212.061 429.036 Q213.889 432.578 217.5 432.578 Q221.135 432.578 222.94 429.036 Q224.769 425.472 224.769 418.365 Q224.769 411.236 222.94 407.694 Q221.135 404.129 217.5 404.129 M217.5 400.425 Q223.31 400.425 226.366 405.032 Q229.445 409.615 229.445 418.365 Q229.445 427.092 226.366 431.698 Q223.31 436.282 217.5 436.282 Q211.69 436.282 208.612 431.698 Q205.556 427.092 205.556 418.365 Q205.556 409.615 208.612 405.032 Q211.69 400.425 217.5 400.425 Z" fill="#000000" fill-rule="nonzero" fill-opacity="1"></path><path clip-path="url(#clip600)" d="M16.4842 1105.34 L16.4842 1075.3 L21.895 1075.3 L21.895 1098.91 L35.9632 1098.91 L35.9632 1076.28 L41.3741 1076.28 L41.3741 1098.91 L58.5933 1098.91 L58.5933 1074.72 L64.0042 1074.72 L64.0042 1105.34 L16.4842 1105.34 Z" fill="#000000" fill-rule="nonzero" fill-opacity="1"></path><path clip-path="url(#clip600)" d="M14.479 1064.41 L14.479 1058.55 L64.0042 1058.55 L64.0042 1064.41 L14.479 1064.41 Z" fill="#000000" fill-rule="nonzero" fill-opacity="1"></path><path clip-path="url(#clip600)" d="M44.7161 1015.81 L47.5806 1015.81 L47.5806 1042.74 Q53.6281 1042.35 56.8109 1039.11 Q59.9619 1035.83 59.9619 1030 Q59.9619 1026.63 59.1344 1023.48 Q58.3069 1020.3 56.6518 1017.18 L62.1899 1017.18 Q63.5267 1020.33 64.227 1023.64 Q64.9272 1026.95 64.9272 1030.35 Q64.9272 1038.88 59.9619 1043.88 Q54.9967 1048.85 46.5303 1048.85 Q37.7774 1048.85 32.6531 1044.14 Q27.4968 1039.39 27.4968 1031.37 Q27.4968 1024.18 32.1438 1020.01 Q36.7589 1015.81 44.7161 1015.81 M42.9973 1021.66 Q38.1912 1021.73 35.3266 1024.37 Q32.4621 1026.98 32.4621 1031.31 Q32.4621 1036.21 35.2312 1039.17 Q38.0002 1042.1 43.0292 1042.54 L42.9973 1021.66 Z" fill="#000000" fill-rule="nonzero" fill-opacity="1"></path><path clip-path="url(#clip600)" d="M28.3562 1010.4 L28.3562 1004.19 L58.275 993.051 L28.3562 981.911 L28.3562 975.704 L64.0042 989.072 L64.0042 997.029 L28.3562 1010.4 Z" fill="#000000" fill-rule="nonzero" fill-opacity="1"></path><path clip-path="url(#clip600)" d="M46.0847 951.419 Q46.0847 958.517 47.7079 961.254 Q49.3312 963.991 53.2461 963.991 Q56.3653 963.991 58.2114 961.954 Q60.0256 959.885 60.0256 956.352 Q60.0256 951.483 56.5881 948.554 Q53.1188 945.594 47.3897 945.594 L46.0847 945.594 L46.0847 951.419 M43.6657 939.738 L64.0042 939.738 L64.0042 945.594 L58.5933 945.594 Q61.8398 947.6 63.3994 950.591 Q64.9272 953.583 64.9272 957.912 Q64.9272 963.387 61.8716 966.633 Q58.7843 969.848 53.6281 969.848 Q47.6125 969.848 44.5569 965.837 Q41.5014 961.795 41.5014 953.806 L41.5014 945.594 L40.9285 945.594 Q36.8862 945.594 34.6901 948.268 Q32.4621 950.91 32.4621 955.716 Q32.4621 958.771 33.1941 961.668 Q33.9262 964.564 35.3903 967.238 L29.9795 967.238 Q28.7381 964.023 28.1334 960.999 Q27.4968 957.976 27.4968 955.111 Q27.4968 947.377 31.5072 943.557 Q35.5176 939.738 43.6657 939.738 Z" fill="#000000" fill-rule="nonzero" fill-opacity="1"></path><path clip-path="url(#clip600)" d="M18.2347 921.882 L28.3562 921.882 L28.3562 909.819 L32.9077 909.819 L32.9077 921.882 L52.2594 921.882 Q56.6199 921.882 57.8613 920.704 Q59.1026 919.495 59.1026 915.835 L59.1026 909.819 L64.0042 909.819 L64.0042 915.835 Q64.0042 922.614 61.4897 925.192 Q58.9434 927.77 52.2594 927.77 L32.9077 927.77 L32.9077 932.067 L28.3562 932.067 L28.3562 927.77 L18.2347 927.77 L18.2347 921.882 Z" fill="#000000" fill-rule="nonzero" fill-opacity="1"></path><path clip-path="url(#clip600)" d="M28.3562 902.117 L28.3562 896.26 L64.0042 896.26 L64.0042 902.117 L28.3562 902.117 M14.479 902.117 L14.479 896.26 L21.895 896.26 L21.895 902.117 L14.479 902.117 Z" fill="#000000" fill-rule="nonzero" fill-opacity="1"></path><path clip-path="url(#clip600)" d="M32.4621 870.193 Q32.4621 874.903 36.1542 877.64 Q39.8145 880.378 46.212 880.378 Q52.6095 880.378 56.3017 877.672 Q59.9619 874.935 59.9619 870.193 Q59.9619 865.514 56.2698 862.777 Q52.5777 860.039 46.212 860.039 Q39.8781 860.039 36.186 862.777 Q32.4621 865.514 32.4621 870.193 M27.4968 870.193 Q27.4968 862.554 32.4621 858.193 Q37.4273 853.833 46.212 853.833 Q54.9649 853.833 59.9619 858.193 Q64.9272 862.554 64.9272 870.193 Q64.9272 877.863 59.9619 882.224 Q54.9649 886.552 46.212 886.552 Q37.4273 886.552 32.4621 882.224 Q27.4968 877.863 27.4968 870.193 Z" fill="#000000" fill-rule="nonzero" fill-opacity="1"></path><path clip-path="url(#clip600)" d="M42.4881 814.493 L64.0042 814.493 L64.0042 820.349 L42.679 820.349 Q37.6183 820.349 35.1038 822.322 Q32.5894 824.296 32.5894 828.243 Q32.5894 832.985 35.6131 835.722 Q38.6368 838.46 43.8567 838.46 L64.0042 838.46 L64.0042 844.348 L28.3562 844.348 L28.3562 838.46 L33.8944 838.46 Q30.6797 836.359 29.0883 833.526 Q27.4968 830.662 27.4968 826.938 Q27.4968 820.795 31.3163 817.644 Q35.1038 814.493 42.4881 814.493 Z" fill="#000000" fill-rule="nonzero" fill-opacity="1"></path><path clip-path="url(#clip600)" d="M14.5426 768.023 Q21.8632 772.288 29.0246 774.357 Q36.186 776.426 43.5384 776.426 Q50.8908 776.426 58.1159 774.357 Q65.3091 772.256 72.5979 768.023 L72.5979 773.116 Q65.1182 777.89 57.8931 780.277 Q50.668 782.632 43.5384 782.632 Q36.4406 782.632 29.2474 780.277 Q22.0542 777.922 14.5426 773.116 L14.5426 768.023 Z" fill="#000000" fill-rule="nonzero" fill-opacity="1"></path><path clip-path="url(#clip600)" d="M35.1993 728.906 Q31.2526 726.71 29.3747 723.654 Q27.4968 720.598 27.4968 716.461 Q27.4968 710.891 31.4117 707.867 Q35.2948 704.843 42.4881 704.843 L64.0042 704.843 L64.0042 710.732 L42.679 710.732 Q37.5546 710.732 35.072 712.546 Q32.5894 714.36 32.5894 718.084 Q32.5894 722.635 35.6131 725.277 Q38.6368 727.919 43.8567 727.919 L64.0042 727.919 L64.0042 733.807 L42.679 733.807 Q37.5228 733.807 35.072 735.622 Q32.5894 737.436 32.5894 741.223 Q32.5894 745.711 35.6449 748.353 Q38.6686 750.995 43.8567 750.995 L64.0042 750.995 L64.0042 756.883 L28.3562 756.883 L28.3562 750.995 L33.8944 750.995 Q30.616 748.99 29.0564 746.189 Q27.4968 743.388 27.4968 739.536 Q27.4968 735.653 29.4702 732.948 Q31.4436 730.211 35.1993 728.906 Z" fill="#000000" fill-rule="nonzero" fill-opacity="1"></path><path clip-path="url(#clip600)" d="M55.9197 692.335 L55.9197 685.619 L64.0042 685.619 L64.0042 692.335 L55.9197 692.335 Z" fill="#000000" fill-rule="nonzero" fill-opacity="1"></path><path clip-path="url(#clip600)" d="M46.0847 656.241 Q46.0847 663.339 47.7079 666.076 Q49.3312 668.813 53.2461 668.813 Q56.3653 668.813 58.2114 666.776 Q60.0256 664.708 60.0256 661.175 Q60.0256 656.305 56.5881 653.377 Q53.1188 650.417 47.3897 650.417 L46.0847 650.417 L46.0847 656.241 M43.6657 644.56 L64.0042 644.56 L64.0042 650.417 L58.5933 650.417 Q61.8398 652.422 63.3994 655.414 Q64.9272 658.406 64.9272 662.734 Q64.9272 668.209 61.8716 671.455 Q58.7843 674.67 53.6281 674.67 Q47.6125 674.67 44.5569 670.66 Q41.5014 666.617 41.5014 658.628 L41.5014 650.417 L40.9285 650.417 Q36.8862 650.417 34.6901 653.09 Q32.4621 655.732 32.4621 660.538 Q32.4621 663.594 33.1941 666.49 Q33.9262 669.386 35.3903 672.06 L29.9795 672.06 Q28.7381 668.845 28.1334 665.822 Q27.4968 662.798 27.4968 659.933 Q27.4968 652.199 31.5072 648.38 Q35.5176 644.56 43.6657 644.56 Z" fill="#000000" fill-rule="nonzero" fill-opacity="1"></path><path clip-path="url(#clip600)" d="M55.9197 631.67 L55.9197 624.954 L64.0042 624.954 L64.0042 631.67 L55.9197 631.67 Z" fill="#000000" fill-rule="nonzero" fill-opacity="1"></path><path clip-path="url(#clip600)" d="M29.4065 589.051 L34.9447 589.051 Q33.6716 591.534 33.035 594.207 Q32.3984 596.881 32.3984 599.746 Q32.3984 604.106 33.7352 606.302 Q35.072 608.467 37.7456 608.467 Q39.7826 608.467 40.9603 606.907 Q42.1061 605.347 43.1565 600.637 L43.6021 598.632 Q44.9389 592.393 47.3897 589.783 Q49.8086 587.141 54.1691 587.141 Q59.1344 587.141 62.0308 591.088 Q64.9272 595.003 64.9272 601.878 Q64.9272 604.743 64.3543 607.862 Q63.8132 610.949 62.6992 614.387 L56.6518 614.387 Q58.3387 611.14 59.198 607.989 Q60.0256 604.838 60.0256 601.751 Q60.0256 597.613 58.6251 595.385 Q57.1929 593.157 54.6147 593.157 Q52.2276 593.157 50.9545 594.78 Q49.6813 596.372 48.5037 601.814 L48.0262 603.851 Q46.8804 609.294 44.5251 611.713 Q42.138 614.132 38.0002 614.132 Q32.9713 614.132 30.2341 610.567 Q27.4968 607.002 27.4968 600.446 Q27.4968 597.199 27.9743 594.335 Q28.4517 591.47 29.4065 589.051 Z" fill="#000000" fill-rule="nonzero" fill-opacity="1"></path><path clip-path="url(#clip600)" d="M55.9197 576.988 L55.9197 570.272 L64.0042 570.272 L64.0042 576.988 L55.9197 576.988 Z" fill="#000000" fill-rule="nonzero" fill-opacity="1"></path><path clip-path="url(#clip600)" d="M14.479 557.095 L14.479 551.239 L64.0042 551.239 L64.0042 557.095 L14.479 557.095 Z" fill="#000000" fill-rule="nonzero" fill-opacity="1"></path><path clip-path="url(#clip600)" d="M55.9197 538.157 L55.9197 531.442 L64.0042 531.442 L64.0042 538.157 L55.9197 538.157 Z" fill="#000000" fill-rule="nonzero" fill-opacity="1"></path><path clip-path="url(#clip600)" d="M14.5426 519.188 L14.5426 514.095 Q22.0542 509.321 29.2474 506.965 Q36.4406 504.578 43.5384 504.578 Q50.668 504.578 57.8931 506.965 Q65.1182 509.321 72.5979 514.095 L72.5979 519.188 Q65.3091 514.954 58.1159 512.885 Q50.8908 510.785 43.5384 510.785 Q36.186 510.785 29.0246 512.885 Q21.8632 514.954 14.5426 519.188 Z" fill="#000000" fill-rule="nonzero" fill-opacity="1"></path><path clip-path="url(#clip600)" d="M819.67 12.096 L854.427 12.096 L854.427 18.9825 L827.853 18.9825 L827.853 36.8065 L851.834 36.8065 L851.834 43.6931 L827.853 43.6931 L827.853 72.576 L819.67 72.576 L819.67 12.096 Z" fill="#000000" fill-rule="nonzero" fill-opacity="1"></path><path clip-path="url(#clip600)" d="M887.32 34.1734 Q886.064 33.4443 884.566 33.1202 Q883.107 32.7556 881.325 32.7556 Q875.005 32.7556 871.603 36.8875 Q868.24 40.9789 868.24 48.6757 L868.24 72.576 L860.746 72.576 L860.746 27.2059 L868.24 27.2059 L868.24 34.2544 Q870.59 30.1225 874.357 28.1376 Q878.125 26.1121 883.512 26.1121 Q884.282 26.1121 885.214 26.2337 Q886.145 26.3147 887.28 26.5172 L887.32 34.1734 Z" fill="#000000" fill-rule="nonzero" fill-opacity="1"></path><path clip-path="url(#clip600)" d="M918.674 19.2256 L898.015 51.5113 L918.674 51.5113 L918.674 19.2256 M916.527 12.096 L926.816 12.096 L926.816 51.5113 L935.445 51.5113 L935.445 58.3168 L926.816 58.3168 L926.816 72.576 L918.674 72.576 L918.674 58.3168 L891.371 58.3168 L891.371 50.4176 L916.527 12.096 Z" fill="#000000" fill-rule="nonzero" fill-opacity="1"></path><path clip-path="url(#clip600)" d="M948.246 12.096 L959.264 12.096 L986.081 62.6918 L986.081 12.096 L994.021 12.096 L994.021 72.576 L983.003 72.576 L956.186 21.9802 L956.186 72.576 L948.246 72.576 L948.246 12.096 Z" fill="#000000" fill-rule="nonzero" fill-opacity="1"></path><path clip-path="url(#clip600)" d="M1028.53 17.4837 Q1022.22 17.4837 1019.02 23.7221 Q1015.86 29.92 1015.86 42.3968 Q1015.86 54.833 1019.02 61.0714 Q1022.22 67.2693 1028.53 67.2693 Q1034.89 67.2693 1038.05 61.0714 Q1041.25 54.833 1041.25 42.3968 Q1041.25 29.92 1038.05 23.7221 Q1034.89 17.4837 1028.53 17.4837 M1028.53 11.0023 Q1038.7 11.0023 1044.05 19.0636 Q1049.44 27.0843 1049.44 42.3968 Q1049.44 57.6687 1044.05 65.73 Q1038.7 73.7508 1028.53 73.7508 Q1018.37 73.7508 1012.98 65.73 Q1007.63 57.6687 1007.63 42.3968 Q1007.63 27.0843 1012.98 19.0636 Q1018.37 11.0023 1028.53 11.0023 Z" fill="#000000" fill-rule="nonzero" fill-opacity="1"></path><path clip-path="url(#clip600)" d="M1065.24 65.6895 L1078.6 65.6895 L1078.6 19.5497 L1064.06 22.4663 L1064.06 15.0127 L1078.52 12.096 L1086.71 12.096 L1086.71 65.6895 L1100.07 65.6895 L1100.07 72.576 L1065.24 72.576 L1065.24 65.6895 Z" fill="#000000" fill-rule="nonzero" fill-opacity="1"></path><path clip-path="url(#clip600)" d="M1123.65 65.6895 L1152.21 65.6895 L1152.21 72.576 L1113.81 72.576 L1113.81 65.6895 Q1118.46 60.8689 1126.49 52.7671 Q1134.55 44.6248 1136.61 42.2752 Q1140.54 37.8598 1142.08 34.8216 Q1143.66 31.7429 1143.66 28.7857 Q1143.66 23.9651 1140.26 20.927 Q1136.9 17.8888 1131.47 17.8888 Q1127.62 17.8888 1123.33 19.2256 Q1119.07 20.5624 1114.21 23.2765 L1114.21 15.0127 Q1119.15 13.0277 1123.45 12.015 Q1127.74 11.0023 1131.31 11.0023 Q1140.7 11.0023 1146.29 15.7013 Q1151.88 20.4004 1151.88 28.2591 Q1151.88 31.9859 1150.47 35.3482 Q1149.09 38.6699 1145.4 43.2069 Q1144.39 44.3817 1138.96 50.0125 Q1133.53 55.6027 1123.65 65.6895 Z" fill="#000000" fill-rule="nonzero" fill-opacity="1"></path><path clip-path="url(#clip600)" d="M1194.18 39.9662 Q1200.05 41.222 1203.33 45.1919 Q1206.65 49.1618 1206.65 54.9951 Q1206.65 63.9476 1200.5 68.8492 Q1194.34 73.7508 1183 73.7508 Q1179.19 73.7508 1175.14 72.9811 Q1171.13 72.2519 1166.83 70.7531 L1166.83 62.8538 Q1170.24 64.8388 1174.29 65.8515 Q1178.34 66.8642 1182.75 66.8642 Q1190.45 66.8642 1194.46 63.826 Q1198.51 60.7879 1198.51 54.9951 Q1198.51 49.6479 1194.74 46.6502 Q1191.02 43.612 1184.33 43.612 L1177.28 43.612 L1177.28 36.8875 L1184.66 36.8875 Q1190.69 36.8875 1193.89 34.4975 Q1197.09 32.067 1197.09 27.5299 Q1197.09 22.8714 1193.77 20.4004 Q1190.49 17.8888 1184.33 17.8888 Q1180.97 17.8888 1177.12 18.618 Q1173.27 19.3471 1168.66 20.8865 L1168.66 13.5948 Q1173.31 12.2985 1177.36 11.6504 Q1181.46 11.0023 1185.06 11.0023 Q1194.38 11.0023 1199.81 15.2557 Q1205.24 19.4686 1205.24 26.6793 Q1205.24 31.7024 1202.36 35.1862 Q1199.48 38.6294 1194.18 39.9662 Z" fill="#000000" fill-rule="nonzero" fill-opacity="1"></path><path clip-path="url(#clip600)" d="M1220.1 12.096 L1258.99 12.096 L1258.99 15.5798 L1237.03 72.576 L1228.49 72.576 L1249.15 18.9825 L1220.1 18.9825 L1220.1 12.096 Z" fill="#000000" fill-rule="nonzero" fill-opacity="1"></path><path clip-path="url(#clip600)" d="M1282.4 18.8205 L1282.4 65.8515 L1292.29 65.8515 Q1304.81 65.8515 1310.6 60.1802 Q1316.43 54.509 1316.43 42.2752 Q1316.43 30.1225 1310.6 24.4918 Q1304.81 18.8205 1292.29 18.8205 L1282.4 18.8205 M1274.22 12.096 L1291.03 12.096 Q1308.61 12.096 1316.84 19.4281 Q1325.06 26.7198 1325.06 42.2752 Q1325.06 57.9117 1316.8 65.2439 Q1308.53 72.576 1291.03 72.576 L1274.22 72.576 L1274.22 12.096 Z" fill="#000000" fill-rule="nonzero" fill-opacity="1"></path><path clip-path="url(#clip600)" d="M1356.33 17.4837 Q1350.01 17.4837 1346.81 23.7221 Q1343.65 29.92 1343.65 42.3968 Q1343.65 54.833 1346.81 61.0714 Q1350.01 67.2693 1356.33 67.2693 Q1362.69 67.2693 1365.85 61.0714 Q1369.05 54.833 1369.05 42.3968 Q1369.05 29.92 1365.85 23.7221 Q1362.69 17.4837 1356.33 17.4837 M1356.33 11.0023 Q1366.5 11.0023 1371.85 19.0636 Q1377.24 27.0843 1377.24 42.3968 Q1377.24 57.6687 1371.85 65.73 Q1366.5 73.7508 1356.33 73.7508 Q1346.17 73.7508 1340.78 65.73 Q1335.43 57.6687 1335.43 42.3968 Q1335.43 27.0843 1340.78 19.0636 Q1346.17 11.0023 1356.33 11.0023 Z" fill="#000000" fill-rule="nonzero" fill-opacity="1"></path><path clip-path="url(#clip600)" d="M1416.41 39.9662 Q1422.28 41.222 1425.56 45.1919 Q1428.89 49.1618 1428.89 54.9951 Q1428.89 63.9476 1422.73 68.8492 Q1416.57 73.7508 1405.23 73.7508 Q1401.42 73.7508 1397.37 72.9811 Q1393.36 72.2519 1389.07 70.7531 L1389.07 62.8538 Q1392.47 64.8388 1396.52 65.8515 Q1400.57 66.8642 1404.99 66.8642 Q1412.68 66.8642 1416.69 63.826 Q1420.74 60.7879 1420.74 54.9951 Q1420.74 49.6479 1416.98 46.6502 Q1413.25 43.612 1406.57 43.612 L1399.52 43.612 L1399.52 36.8875 L1406.89 36.8875 Q1412.92 36.8875 1416.13 34.4975 Q1419.33 32.067 1419.33 27.5299 Q1419.33 22.8714 1416 20.4004 Q1412.72 17.8888 1406.57 17.8888 Q1403.2 17.8888 1399.35 18.618 Q1395.51 19.3471 1390.89 20.8865 L1390.89 13.5948 Q1395.55 12.2985 1399.6 11.6504 Q1403.69 11.0023 1407.29 11.0023 Q1416.61 11.0023 1422.04 15.2557 Q1427.47 19.4686 1427.47 26.6793 Q1427.47 31.7024 1424.59 35.1862 Q1421.72 38.6294 1416.41 39.9662 Z" fill="#000000" fill-rule="nonzero" fill-opacity="1"></path><path clip-path="url(#clip600)" d="M1478.23 43.6931 L1478.23 65.8515 L1491.35 65.8515 Q1497.95 65.8515 1501.11 63.1374 Q1504.31 60.3828 1504.31 54.752 Q1504.31 49.0808 1501.11 46.4072 Q1497.95 43.6931 1491.35 43.6931 L1478.23 43.6931 M1478.23 18.8205 L1478.23 37.0496 L1490.34 37.0496 Q1496.33 37.0496 1499.25 34.8216 Q1502.21 32.5531 1502.21 27.935 Q1502.21 23.3575 1499.25 21.089 Q1496.33 18.8205 1490.34 18.8205 L1478.23 18.8205 M1470.04 12.096 L1490.95 12.096 Q1500.3 12.096 1505.37 15.9849 Q1510.43 19.8737 1510.43 27.0438 Q1510.43 32.5936 1507.84 35.8748 Q1505.25 39.156 1500.22 39.9662 Q1506.26 41.2625 1509.58 45.3944 Q1512.94 49.4858 1512.94 55.6432 Q1512.94 63.745 1507.43 68.1605 Q1501.92 72.576 1491.76 72.576 L1470.04 72.576 L1470.04 12.096 Z" fill="#000000" fill-rule="nonzero" fill-opacity="1"></path><path clip-path="url(#clip600)" d="M1544.21 32.4315 Q1538.22 32.4315 1534.74 37.1306 Q1531.25 41.7891 1531.25 49.9314 Q1531.25 58.0738 1534.7 62.7728 Q1538.18 67.4314 1544.21 67.4314 Q1550.17 67.4314 1553.65 62.7323 Q1557.14 58.0333 1557.14 49.9314 Q1557.14 41.8701 1553.65 37.1711 Q1550.17 32.4315 1544.21 32.4315 M1544.21 26.1121 Q1553.94 26.1121 1559.49 32.4315 Q1565.04 38.7509 1565.04 49.9314 Q1565.04 61.0714 1559.49 67.4314 Q1553.94 73.7508 1544.21 73.7508 Q1534.45 73.7508 1528.9 67.4314 Q1523.39 61.0714 1523.39 49.9314 Q1523.39 38.7509 1528.9 32.4315 Q1534.45 26.1121 1544.21 26.1121 Z" fill="#000000" fill-rule="nonzero" fill-opacity="1"></path><path clip-path="url(#clip600)" d="M1606.32 28.5427 L1606.32 35.5912 Q1603.16 33.9709 1599.75 33.1607 Q1596.35 32.3505 1592.7 32.3505 Q1587.15 32.3505 1584.36 34.0519 Q1581.6 35.7533 1581.6 39.156 Q1581.6 41.7486 1583.59 43.2475 Q1585.57 44.7058 1591.57 46.0426 L1594.12 46.6097 Q1602.06 48.3111 1605.38 51.4303 Q1608.75 54.509 1608.75 60.0587 Q1608.75 66.3781 1603.72 70.0644 Q1598.74 73.7508 1589.99 73.7508 Q1586.34 73.7508 1582.37 73.0216 Q1578.44 72.3329 1574.07 70.9151 L1574.07 63.2184 Q1578.2 65.3654 1582.21 66.4591 Q1586.22 67.5124 1590.15 67.5124 Q1595.42 67.5124 1598.25 65.73 Q1601.09 63.9071 1601.09 60.6258 Q1601.09 57.5877 1599.02 55.9673 Q1597 54.3469 1590.07 52.8481 L1587.48 52.2405 Q1580.55 50.7821 1577.47 47.7845 Q1574.39 44.7463 1574.39 39.4801 Q1574.39 33.0797 1578.93 29.5959 Q1583.47 26.1121 1591.81 26.1121 Q1595.94 26.1121 1599.59 26.7198 Q1603.24 27.3274 1606.32 28.5427 Z" fill="#000000" fill-rule="nonzero" fill-opacity="1"></path><path clip-path="url(#clip600)" d="M1649.54 28.5427 L1649.54 35.5912 Q1646.38 33.9709 1642.98 33.1607 Q1639.57 32.3505 1635.93 32.3505 Q1630.38 32.3505 1627.58 34.0519 Q1624.83 35.7533 1624.83 39.156 Q1624.83 41.7486 1626.81 43.2475 Q1628.8 44.7058 1634.79 46.0426 L1637.35 46.6097 Q1645.28 48.3111 1648.61 51.4303 Q1651.97 54.509 1651.97 60.0587 Q1651.97 66.3781 1646.95 70.0644 Q1641.96 73.7508 1633.21 73.7508 Q1629.57 73.7508 1625.6 73.0216 Q1621.67 72.3329 1617.29 70.9151 L1617.29 63.2184 Q1621.43 65.3654 1625.44 66.4591 Q1629.45 67.5124 1633.38 67.5124 Q1638.64 67.5124 1641.48 65.73 Q1644.31 63.9071 1644.31 60.6258 Q1644.31 57.5877 1642.25 55.9673 Q1640.22 54.3469 1633.29 52.8481 L1630.7 52.2405 Q1623.77 50.7821 1620.7 47.7845 Q1617.62 44.7463 1617.62 39.4801 Q1617.62 33.0797 1622.15 29.5959 Q1626.69 26.1121 1635.04 26.1121 Q1639.17 26.1121 1642.81 26.7198 Q1646.46 27.3274 1649.54 28.5427 Z" fill="#000000" fill-rule="nonzero" fill-opacity="1"></path><path clip-path="url(#clip600)" d="M1681.42 32.4315 Q1675.42 32.4315 1671.94 37.1306 Q1668.46 41.7891 1668.46 49.9314 Q1668.46 58.0738 1671.9 62.7728 Q1675.38 67.4314 1681.42 67.4314 Q1687.37 67.4314 1690.86 62.7323 Q1694.34 58.0333 1694.34 49.9314 Q1694.34 41.8701 1690.86 37.1711 Q1687.37 32.4315 1681.42 32.4315 M1681.42 26.1121 Q1691.14 26.1121 1696.69 32.4315 Q1702.24 38.7509 1702.24 49.9314 Q1702.24 61.0714 1696.69 67.4314 Q1691.14 73.7508 1681.42 73.7508 Q1671.66 73.7508 1666.11 67.4314 Q1660.6 61.0714 1660.6 49.9314 Q1660.6 38.7509 1666.11 32.4315 Q1671.66 26.1121 1681.42 26.1121 Z" fill="#000000" fill-rule="nonzero" fill-opacity="1"></path><path clip-path="url(#clip600)" d="M1752.31 45.1919 L1752.31 72.576 L1744.86 72.576 L1744.86 45.4349 Q1744.86 38.994 1742.34 35.7938 Q1739.83 32.5936 1734.81 32.5936 Q1728.77 32.5936 1725.29 36.4419 Q1721.81 40.2903 1721.81 46.9338 L1721.81 72.576 L1714.31 72.576 L1714.31 27.2059 L1721.81 27.2059 L1721.81 34.2544 Q1724.48 30.163 1728.09 28.1376 Q1731.73 26.1121 1736.47 26.1121 Q1744.29 26.1121 1748.3 30.9732 Q1752.31 35.7938 1752.31 45.1919 Z" fill="#000000" fill-rule="nonzero" fill-opacity="1"></path><path clip-path="url(#clip600)" d="M1796.1 28.5427 L1796.1 35.5912 Q1792.94 33.9709 1789.54 33.1607 Q1786.13 32.3505 1782.49 32.3505 Q1776.94 32.3505 1774.14 34.0519 Q1771.39 35.7533 1771.39 39.156 Q1771.39 41.7486 1773.37 43.2475 Q1775.36 44.7058 1781.35 46.0426 L1783.91 46.6097 Q1791.85 48.3111 1795.17 51.4303 Q1798.53 54.509 1798.53 60.0587 Q1798.53 66.3781 1793.51 70.0644 Q1788.52 73.7508 1779.77 73.7508 Q1776.13 73.7508 1772.16 73.0216 Q1768.23 72.3329 1763.85 70.9151 L1763.85 63.2184 Q1767.99 65.3654 1772 66.4591 Q1776.01 67.5124 1779.94 67.5124 Q1785.2 67.5124 1788.04 65.73 Q1790.87 63.9071 1790.87 60.6258 Q1790.87 57.5877 1788.81 55.9673 Q1786.78 54.3469 1779.86 52.8481 L1777.26 52.2405 Q1770.34 50.7821 1767.26 47.7845 Q1764.18 44.7463 1764.18 39.4801 Q1764.18 33.0797 1768.72 29.5959 Q1773.25 26.1121 1781.6 26.1121 Q1785.73 26.1121 1789.38 26.7198 Q1793.02 27.3274 1796.1 28.5427 Z" fill="#000000" fill-rule="nonzero" fill-opacity="1"></path><polyline clip-path="url(#clip602)" style="stroke:#a52a2a; stroke-linecap:round; stroke-linejoin:round; stroke-width:4; stroke-opacity:1; fill:none" points="324.52,205.114 342.101,204.709 359.683,196.222 377.265,204.325 394.847,226.276 412.429,254.391 430.01,277.33 447.592,302.344 465.174,328.026 482.756,349.61 500.338,366.774 517.919,371.269 535.501,382.839 553.083,401.488 570.665,421.721 588.247,438.351 605.828,457.64 623.41,475.673 640.992,492.276 658.574,518.449 676.156,550.804 693.737,583.928 711.319,608.766 728.901,614.694 746.483,640.103 764.065,670.478 781.646,698.289 799.228,725.018 816.81,744.518 834.392,752.408 851.974,767.383 869.555,786.863 887.137,806.375 904.719,825.083 922.301,841.007 939.883,853.666 957.464,868.229 975.046,884.835 992.628,905.563 1010.21,923.187 1027.79,935.498 1045.37,944.347 1062.96,952.535 1080.54,961.505 1098.12,973.208 1115.7,990.346 1133.28,1013.18 1150.86,1038.85 1168.45,1066.67 1186.03,1094.97 1203.61,1124.26 1221.19,1155.98 1238.77,1180.5 1256.35,1198.02 1273.94,1207.83 1291.52,1225.23 1309.1,1250.21 1326.68,1280 1344.26,1295.63 1361.85,1308.42 1379.43,1324.1 1397.01,1335.7 1414.59,1342.35 1432.17,1347.08 1449.75,1353.67 1467.34,1363.65 1484.92,1376.12 1502.5,1388.91 1520.08,1399.79 1537.66,1407.89 1555.25,1413.23 1572.83,1416.02 1590.41,1417.14 1607.99,1417.89 1625.57,1419.1 1643.15,1420.88 1660.74,1423.11 1678.32,1425.68 1695.9,1428.21 1713.48,1430.27 1731.06,1431.74 1748.65,1432.7 1766.23,1433.3 1783.81,1433.69 1801.39,1434.12 1818.97,1434.89 1836.55,1435.89 1854.14,1436.74 1871.72,1437.26 1889.3,1437.56 1906.88,1437.76 1924.46,1437.88 1942.05,1437.96 1959.63,1437.92 1977.21,1437.64 1994.79,1437.15 2012.37,1436.74 2029.95,1436.5 2047.54,1436.26 2065.12,1436.13 2082.7,1436.51 2100.28,1437.35 2117.86,1438.26 2135.44,1439.72 2153.03,1442.5 2170.61,1445.76 2188.19,1447.72 2205.77,1447.87 2223.35,1446.83 2240.94,1445.15 2258.52,1443.92 2276.1,1444.66 2293.68,1446.49 "></polyline>
<polyline clip-path="url(#clip602)" style="stroke:#0000ff; stroke-linecap:round; stroke-linejoin:round; stroke-width:4; stroke-opacity:1; fill:none" points="324.52,166.673 342.101,169.865 359.683,175.737 377.265,190.072 394.847,214.688 412.429,240.328 430.01,262.702 447.592,287.502 465.174,311.379 482.756,328.26 500.338,338.274 517.919,348.657 535.501,364.421 553.083,384.44 570.665,402.293 588.247,419.391 605.828,437.553 623.41,454.258 640.992,474.781 658.574,502.307 676.156,535.839 693.737,564.558 711.319,579.685 728.901,595.548 746.483,623.15 764.065,651.69 781.646,677.432 799.228,696.552 816.81,709.383 834.392,722.883 851.974,741.652 869.555,761.022 887.137,779.304 904.719,795.638 922.301,810.37 939.883,824.922 957.464,840.795 975.046,858.793 992.628,875.256 1010.21,887.531 1027.79,897.809 1045.37,907.912 1062.96,918.895 1080.54,931.794 1098.12,948.039 1115.7,969.166 1133.28,993.887 1150.86,1020.78 1168.45,1048.59 1186.03,1077 1203.61,1106.56 1221.19,1135.83 1238.77,1156.69 1256.35,1171.76 1273.94,1185.8 1291.52,1206.35 1309.1,1234.92 1326.68,1280 1344.26,1295.63 1361.85,1308.42 1379.43,1324.1 1397.01,1335.7 1414.59,1342.35 1432.17,1347.08 1449.75,1353.67 1467.34,1363.65 1484.92,1376.12 1502.5,1388.91 1520.08,1399.79 1537.66,1407.89 1555.25,1413.23 1572.83,1416.02 1590.41,1417.14 1607.99,1417.89 1625.57,1419.1 1643.15,1420.88 1660.74,1423.11 1678.32,1425.68 1695.9,1428.21 1713.48,1430.27 1731.06,1431.74 1748.65,1432.7 1766.23,1433.3 1783.81,1433.69 1801.39,1434.12 1818.97,1434.89 1836.55,1435.89 1854.14,1436.74 1871.72,1437.26 1889.3,1437.56 1906.88,1437.76 1924.46,1437.88 1942.05,1437.96 1959.63,1437.92 1977.21,1437.64 1994.79,1437.15 2012.37,1436.74 2029.95,1436.5 2047.54,1436.26 2065.12,1436.13 2082.7,1436.51 2100.28,1437.35 2117.86,1438.26 2135.44,1439.72 2153.03,1442.5 2170.61,1445.76 2188.19,1447.72 2205.77,1447.87 2223.35,1446.83 2240.94,1445.15 2258.52,1443.92 2276.1,1444.66 2293.68,1446.49 "></polyline>
<polyline clip-path="url(#clip602)" style="stroke:#ff0000; stroke-linecap:round; stroke-linejoin:round; stroke-width:4; stroke-opacity:1; fill:none" points="324.52,162.047 342.101,165.76 359.683,172.288 377.265,187.325 394.847,212.027 412.429,237.237 430.01,259.516 447.592,284.173 465.174,307.242 482.756,323.12 500.338,333.45 517.919,344.49 535.501,360.709 553.083,380.528 570.665,398.142 588.247,415.233 605.828,433.161 623.41,450.038 640.992,471.178 658.574,498.676 676.156,532.415 693.737,559.016 711.319,574.346 728.901,591.471 746.483,618.955 764.065,647.078 781.646,671.514 799.228,689.538 816.81,702.704 834.392,716.917 851.974,735.911 869.555,755.076 887.137,773.038 904.719,789.177 922.301,804.058 939.883,818.788 957.464,834.704 975.046,852.21 992.628,867.839 1010.21,879.988 1027.79,890.548 1045.37,901.094 1062.96,912.607 1080.54,926.111 1098.12,943.002 1115.7,964.647 1133.28,989.638 1150.86,1016.64 1168.45,1044.39 1186.03,1072.76 1203.61,1102.09 1221.19,1130.34 1238.77,1150.38 1256.35,1165.46 1273.94,1179.96 1291.52,1201.31 1309.1,1229.21 1326.68,1273.68 1344.26,1295.63 1361.85,1308.42 1379.43,1324.1 1397.01,1335.7 1414.59,1342.35 1432.17,1347.08 1449.75,1353.67 1467.34,1363.65 1484.92,1376.12 1502.5,1388.91 1520.08,1399.79 1537.66,1407.89 1555.25,1413.23 1572.83,1416.02 1590.41,1417.14 1607.99,1417.89 1625.57,1419.1 1643.15,1420.88 1660.74,1423.11 1678.32,1425.68 1695.9,1428.21 1713.48,1430.27 1731.06,1431.74 1748.65,1432.7 1766.23,1433.3 1783.81,1433.69 1801.39,1434.12 1818.97,1434.89 1836.55,1435.89 1854.14,1436.74 1871.72,1437.26 1889.3,1437.56 1906.88,1437.76 1924.46,1437.88 1942.05,1437.96 1959.63,1437.92 1977.21,1437.64 1994.79,1437.15 2012.37,1436.74 2029.95,1436.5 2047.54,1436.26 2065.12,1436.13 2082.7,1436.51 2100.28,1437.35 2117.86,1438.26 2135.44,1439.72 2153.03,1442.5 2170.61,1445.76 2188.19,1447.72 2205.77,1447.87 2223.35,1446.83 2240.94,1445.15 2258.52,1443.92 2276.1,1444.66 2293.68,1446.49 "></polyline>
<polyline clip-path="url(#clip602)" style="stroke:#008000; stroke-linecap:round; stroke-linejoin:round; stroke-width:4; stroke-opacity:1; fill:none" points="324.52,168.229 342.101,171.203 359.683,176.452 377.265,190.914 394.847,214.2 412.429,240.798 430.01,262.698 447.592,287.099 465.174,311.294 482.756,328.274 500.338,338.841 517.919,348.04 535.501,364.537 553.083,383.984 570.665,402.815 588.247,418.856 605.828,437.723 623.41,454.331 640.992,474.24 658.574,502.294 676.156,534.887 693.737,564.616 711.319,580.207 728.901,594.531 746.483,622.784 764.065,651.493 781.646,676.729 799.228,696.381 816.81,708.951 834.392,721.712 851.974,741.269 869.555,760.606 887.137,778.759 904.719,795.348 922.301,809.826 939.883,824.537 957.464,840.021 975.046,857.977 992.628,874.67 1010.21,886.822 1027.79,896.929 1045.37,907.215 1062.96,918.123 1080.54,931.216 1098.12,947.318 1115.7,968.564 1133.28,993.437 1150.86,1020.19 1168.45,1048.3 1186.03,1076.5 1203.61,1106.17 1221.19,1135.1 1238.77,1156.81 1256.35,1171.31 1273.94,1185.85 1291.52,1205.94 1309.1,1234.99 1326.68,1265.69 1344.26,1295.63 1361.85,1308.42 1379.43,1324.1 1397.01,1335.7 1414.59,1342.35 1432.17,1347.08 1449.75,1353.67 1467.34,1363.65 1484.92,1376.12 1502.5,1388.91 1520.08,1399.79 1537.66,1407.89 1555.25,1413.23 1572.83,1416.02 1590.41,1417.14 1607.99,1417.89 1625.57,1419.1 1643.15,1420.88 1660.74,1423.11 1678.32,1425.68 1695.9,1428.21 1713.48,1430.27 1731.06,1431.74 1748.65,1432.7 1766.23,1433.3 1783.81,1433.69 1801.39,1434.12 1818.97,1434.89 1836.55,1435.89 1854.14,1436.74 1871.72,1437.26 1889.3,1437.56 1906.88,1437.76 1924.46,1437.88 1942.05,1437.96 1959.63,1437.92 1977.21,1437.64 1994.79,1437.15 2012.37,1436.74 2029.95,1436.5 2047.54,1436.26 2065.12,1436.13 2082.7,1436.51 2100.28,1437.35 2117.86,1438.26 2135.44,1439.72 2153.03,1442.5 2170.61,1445.76 2188.19,1447.72 2205.77,1447.87 2223.35,1446.83 2240.94,1445.15 2258.52,1443.92 2276.1,1444.66 2293.68,1446.49 "></polyline>
<polyline clip-path="url(#clip602)" style="stroke:#000000; stroke-linecap:round; stroke-linejoin:round; stroke-width:4; stroke-opacity:1; fill:none" stroke-dasharray="16, 10" points="324.52,170.826 342.101,173.31 359.683,178.982 377.265,192.313 394.847,215.721 412.429,240.58 430.01,263.276 447.592,288.429 465.174,311.937 482.756,327.74 500.338,338.449 517.919,349.605 535.501,365.547 553.083,384.727 570.665,402.569 588.247,419.905 605.828,437.286 623.41,454.258 640.992,475.046 658.574,502.785 676.156,536.948 693.737,563.216 711.319,579.061 728.901,596.554 746.483,623.484 764.065,652.123 781.646,677.295 799.228,695.39 816.81,708.834 834.392,723.338 851.974,741.765 869.555,761.023 887.137,779.117 904.719,795.339 922.301,810.196 939.883,825.015 957.464,841.249 975.046,858.987 992.628,874.758 1010.21,887.043 1027.79,897.493 1045.37,907.733 1062.96,918.844 1080.54,931.925 1098.12,948.449 1115.7,969.583 1133.28,994.315 1150.86,1021.29 1168.45,1049.29 1186.03,1077.79 1203.61,1108.48 1221.19,1137.44 1238.77,1160.44 1256.35,1180.02 1273.94,1207.83 1291.52,1225.23 1309.1,1250.21 1326.68,1280 1344.26,1295.63 1361.85,1308.42 1379.43,1324.1 1397.01,1335.7 1414.59,1342.35 1432.17,1347.08 1449.75,1353.67 1467.34,1363.65 1484.92,1376.12 1502.5,1388.91 1520.08,1399.79 1537.66,1407.89 1555.25,1413.23 1572.83,1416.02 1590.41,1417.14 1607.99,1417.89 1625.57,1419.1 1643.15,1420.88 1660.74,1423.11 1678.32,1425.68 1695.9,1428.21 1713.48,1430.27 1731.06,1431.74 1748.65,1432.7 1766.23,1433.3 1783.81,1433.69 1801.39,1434.12 1818.97,1434.89 1836.55,1435.89 1854.14,1436.74 1871.72,1437.26 1889.3,1437.56 1906.88,1437.76 1924.46,1437.88 1942.05,1437.96 1959.63,1437.92 1977.21,1437.64 1994.79,1437.15 2012.37,1436.74 2029.95,1436.5 2047.54,1436.26 2065.12,1436.13 2082.7,1436.51 2100.28,1437.35 2117.86,1438.26 2135.44,1439.72 2153.03,1442.5 2170.61,1445.76 2188.19,1447.72 2205.77,1447.87 2223.35,1446.83 2240.94,1445.15 2258.52,1443.92 2276.1,1444.66 2293.68,1446.49 "></polyline>
<path clip-path="url(#clip600)" d="M1729.73 479.945 L2283.18 479.945 L2283.18 168.905 L1729.73 168.905  Z" fill="#ffffff" fill-rule="evenodd" fill-opacity="1"></path>
<polyline clip-path="url(#clip600)" style="stroke:#000000; stroke-linecap:round; stroke-linejoin:round; stroke-width:4; stroke-opacity:1; fill:none" points="1729.73,479.945 2283.18,479.945 2283.18,168.905 1729.73,168.905 1729.73,479.945 "></polyline>
<polyline clip-path="url(#clip600)" style="stroke:#a52a2a; stroke-linecap:round; stroke-linejoin:round; stroke-width:4; stroke-opacity:1; fill:none" points="1752.92,220.745 1892.07,220.745 "></polyline>
<path clip-path="url(#clip600)" d="M1934.04 225.085 Q1934.04 220.386 1932.09 217.724 Q1930.17 215.039 1926.79 215.039 Q1923.41 215.039 1921.47 217.724 Q1919.55 220.386 1919.55 225.085 Q1919.55 229.784 1921.47 232.469 Q1923.41 235.131 1926.79 235.131 Q1930.17 235.131 1932.09 232.469 Q1934.04 229.784 1934.04 225.085 M1919.55 216.034 Q1920.89 213.719 1922.93 212.608 Q1924.99 211.474 1927.84 211.474 Q1932.56 211.474 1935.5 215.224 Q1938.46 218.974 1938.46 225.085 Q1938.46 231.196 1935.5 234.946 Q1932.56 238.696 1927.84 238.696 Q1924.99 238.696 1922.93 237.585 Q1920.89 236.451 1919.55 234.136 L1919.55 238.025 L1915.27 238.025 L1915.27 202.006 L1919.55 202.006 L1919.55 216.034 Z" fill="#000000" fill-rule="nonzero" fill-opacity="1"></path><path clip-path="url(#clip600)" d="M1967.7 223.997 L1967.7 226.08 L1948.11 226.08 Q1948.39 230.478 1950.75 232.793 Q1953.14 235.085 1957.37 235.085 Q1959.83 235.085 1962.12 234.483 Q1964.43 233.881 1966.7 232.677 L1966.7 236.705 Q1964.41 237.677 1962 238.187 Q1959.59 238.696 1957.12 238.696 Q1950.91 238.696 1947.28 235.085 Q1943.67 231.474 1943.67 225.316 Q1943.67 218.951 1947.09 215.224 Q1950.54 211.474 1956.38 211.474 Q1961.61 211.474 1964.64 214.853 Q1967.7 218.21 1967.7 223.997 M1963.44 222.747 Q1963.39 219.252 1961.47 217.168 Q1959.57 215.085 1956.42 215.085 Q1952.86 215.085 1950.71 217.099 Q1948.58 219.113 1948.25 222.77 L1963.44 222.747 Z" fill="#000000" fill-rule="nonzero" fill-opacity="1"></path><path clip-path="url(#clip600)" d="M1991.75 216.034 L1991.75 202.006 L1996.01 202.006 L1996.01 238.025 L1991.75 238.025 L1991.75 234.136 Q1990.4 236.451 1988.34 237.585 Q1986.31 238.696 1983.44 238.696 Q1978.74 238.696 1975.78 234.946 Q1972.84 231.196 1972.84 225.085 Q1972.84 218.974 1975.78 215.224 Q1978.74 211.474 1983.44 211.474 Q1986.31 211.474 1988.34 212.608 Q1990.4 213.719 1991.75 216.034 M1977.23 225.085 Q1977.23 229.784 1979.15 232.469 Q1981.1 235.131 1984.48 235.131 Q1987.86 235.131 1989.8 232.469 Q1991.75 229.784 1991.75 225.085 Q1991.75 220.386 1989.8 217.724 Q1987.86 215.039 1984.48 215.039 Q1981.1 215.039 1979.15 217.724 Q1977.23 220.386 1977.23 225.085 Z" fill="#000000" fill-rule="nonzero" fill-opacity="1"></path><polyline clip-path="url(#clip600)" style="stroke:#0000ff; stroke-linecap:round; stroke-linejoin:round; stroke-width:4; stroke-opacity:1; fill:none" points="1752.92,272.585 1892.07,272.585 "></polyline>
<path clip-path="url(#clip600)" d="M1933.69 264.703 L1933.69 268.731 Q1931.89 267.805 1929.94 267.342 Q1928 266.879 1925.91 266.879 Q1922.74 266.879 1921.15 267.851 Q1919.57 268.823 1919.57 270.768 Q1919.57 272.249 1920.71 273.105 Q1921.84 273.939 1925.27 274.703 L1926.72 275.027 Q1931.26 275.999 1933.16 277.781 Q1935.08 279.541 1935.08 282.712 Q1935.08 286.323 1932.21 288.429 Q1929.36 290.536 1924.36 290.536 Q1922.28 290.536 1920.01 290.119 Q1917.77 289.726 1915.27 288.916 L1915.27 284.517 Q1917.63 285.744 1919.92 286.369 Q1922.21 286.971 1924.46 286.971 Q1927.47 286.971 1929.09 285.953 Q1930.71 284.911 1930.71 283.036 Q1930.71 281.3 1929.53 280.374 Q1928.37 279.448 1924.41 278.592 L1922.93 278.244 Q1918.97 277.411 1917.21 275.698 Q1915.45 273.962 1915.45 270.953 Q1915.45 267.295 1918.04 265.305 Q1920.64 263.314 1925.4 263.314 Q1927.77 263.314 1929.85 263.661 Q1931.93 264.008 1933.69 264.703 Z" fill="#000000" fill-rule="nonzero" fill-opacity="1"></path><path clip-path="url(#clip600)" d="M1941.42 279.633 L1941.42 263.939 L1945.68 263.939 L1945.68 279.471 Q1945.68 283.152 1947.12 285.004 Q1948.55 286.832 1951.42 286.832 Q1954.87 286.832 1956.86 284.633 Q1958.88 282.434 1958.88 278.638 L1958.88 263.939 L1963.14 263.939 L1963.14 289.865 L1958.88 289.865 L1958.88 285.883 Q1957.33 288.244 1955.27 289.402 Q1953.23 290.536 1950.52 290.536 Q1946.05 290.536 1943.74 287.758 Q1941.42 284.98 1941.42 279.633 M1952.14 263.314 L1952.14 263.314 Z" fill="#000000" fill-rule="nonzero" fill-opacity="1"></path><path clip-path="url(#clip600)" d="M1986.93 267.92 Q1986.21 267.504 1985.36 267.318 Q1984.53 267.11 1983.51 267.11 Q1979.9 267.11 1977.95 269.471 Q1976.03 271.809 1976.03 276.207 L1976.03 289.865 L1971.75 289.865 L1971.75 263.939 L1976.03 263.939 L1976.03 267.967 Q1977.37 265.606 1979.53 264.471 Q1981.68 263.314 1984.76 263.314 Q1985.2 263.314 1985.73 263.383 Q1986.26 263.43 1986.91 263.545 L1986.93 267.92 Z" fill="#000000" fill-rule="nonzero" fill-opacity="1"></path><path clip-path="url(#clip600)" d="M2004.52 253.846 L2004.52 257.388 L2000.45 257.388 Q1998.16 257.388 1997.26 258.314 Q1996.38 259.24 1996.38 261.647 L1996.38 263.939 L2003.39 263.939 L2003.39 267.249 L1996.38 267.249 L1996.38 289.865 L1992.09 289.865 L1992.09 267.249 L1988.02 267.249 L1988.02 263.939 L1992.09 263.939 L1992.09 262.133 Q1992.09 257.805 1994.11 255.837 Q1996.12 253.846 2000.5 253.846 L2004.52 253.846 Z" fill="#000000" fill-rule="nonzero" fill-opacity="1"></path><path clip-path="url(#clip600)" d="M2019.87 276.832 Q2014.71 276.832 2012.72 278.013 Q2010.73 279.193 2010.73 282.041 Q2010.73 284.309 2012.21 285.652 Q2013.71 286.971 2016.28 286.971 Q2019.83 286.971 2021.96 284.471 Q2024.11 281.948 2024.11 277.781 L2024.11 276.832 L2019.87 276.832 M2028.37 275.073 L2028.37 289.865 L2024.11 289.865 L2024.11 285.929 Q2022.65 288.291 2020.47 289.425 Q2018.3 290.536 2015.15 290.536 Q2011.17 290.536 2008.81 288.314 Q2006.47 286.068 2006.47 282.318 Q2006.47 277.943 2009.39 275.721 Q2012.33 273.499 2018.14 273.499 L2024.11 273.499 L2024.11 273.082 Q2024.11 270.143 2022.16 268.545 Q2020.24 266.925 2016.75 266.925 Q2014.52 266.925 2012.42 267.457 Q2010.31 267.99 2008.37 269.055 L2008.37 265.119 Q2010.71 264.217 2012.9 263.777 Q2015.1 263.314 2017.19 263.314 Q2022.81 263.314 2025.59 266.231 Q2028.37 269.147 2028.37 275.073 Z" fill="#000000" fill-rule="nonzero" fill-opacity="1"></path><path clip-path="url(#clip600)" d="M2055.8 264.934 L2055.8 268.916 Q2053.99 267.92 2052.16 267.434 Q2050.36 266.925 2048.51 266.925 Q2044.36 266.925 2042.07 269.564 Q2039.78 272.18 2039.78 276.925 Q2039.78 281.67 2042.07 284.309 Q2044.36 286.925 2048.51 286.925 Q2050.36 286.925 2052.16 286.439 Q2053.99 285.929 2055.8 284.934 L2055.8 288.869 Q2054.02 289.703 2052.09 290.119 Q2050.2 290.536 2048.04 290.536 Q2042.19 290.536 2038.74 286.855 Q2035.29 283.175 2035.29 276.925 Q2035.29 270.582 2038.76 266.948 Q2042.26 263.314 2048.32 263.314 Q2050.29 263.314 2052.16 263.731 Q2054.04 264.124 2055.8 264.934 Z" fill="#000000" fill-rule="nonzero" fill-opacity="1"></path><path clip-path="url(#clip600)" d="M2085.38 275.837 L2085.38 277.92 L2065.8 277.92 Q2066.08 282.318 2068.44 284.633 Q2070.82 286.925 2075.06 286.925 Q2077.51 286.925 2079.8 286.323 Q2082.12 285.721 2084.39 284.517 L2084.39 288.545 Q2082.09 289.517 2079.69 290.027 Q2077.28 290.536 2074.8 290.536 Q2068.6 290.536 2064.96 286.925 Q2061.35 283.314 2061.35 277.156 Q2061.35 270.791 2064.78 267.064 Q2068.23 263.314 2074.06 263.314 Q2079.29 263.314 2082.33 266.693 Q2085.38 270.05 2085.38 275.837 M2081.12 274.587 Q2081.08 271.092 2079.15 269.008 Q2077.26 266.925 2074.11 266.925 Q2070.54 266.925 2068.39 268.939 Q2066.26 270.953 2065.94 274.61 L2081.12 274.587 Z" fill="#000000" fill-rule="nonzero" fill-opacity="1"></path><path clip-path="url(#clip600)" d="M2123.97 264.703 L2123.97 268.731 Q2122.16 267.805 2120.22 267.342 Q2118.27 266.879 2116.19 266.879 Q2113.02 266.879 2111.42 267.851 Q2109.85 268.823 2109.85 270.768 Q2109.85 272.249 2110.98 273.105 Q2112.12 273.939 2115.54 274.703 L2117 275.027 Q2121.54 275.999 2123.44 277.781 Q2125.36 279.541 2125.36 282.712 Q2125.36 286.323 2122.49 288.429 Q2119.64 290.536 2114.64 290.536 Q2112.56 290.536 2110.29 290.119 Q2108.04 289.726 2105.54 288.916 L2105.54 284.517 Q2107.9 285.744 2110.2 286.369 Q2112.49 286.971 2114.73 286.971 Q2117.74 286.971 2119.36 285.953 Q2120.98 284.911 2120.98 283.036 Q2120.98 281.3 2119.8 280.374 Q2118.64 279.448 2114.69 278.592 L2113.2 278.244 Q2109.25 277.411 2107.49 275.698 Q2105.73 273.962 2105.73 270.953 Q2105.73 267.295 2108.32 265.305 Q2110.91 263.314 2115.68 263.314 Q2118.04 263.314 2120.13 263.661 Q2122.21 264.008 2123.97 264.703 Z" fill="#000000" fill-rule="nonzero" fill-opacity="1"></path><path clip-path="url(#clip600)" d="M2142.19 266.925 Q2138.76 266.925 2136.77 269.61 Q2134.78 272.272 2134.78 276.925 Q2134.78 281.578 2136.75 284.263 Q2138.74 286.925 2142.19 286.925 Q2145.59 286.925 2147.58 284.24 Q2149.57 281.555 2149.57 276.925 Q2149.57 272.318 2147.58 269.633 Q2145.59 266.925 2142.19 266.925 M2142.19 263.314 Q2147.74 263.314 2150.91 266.925 Q2154.08 270.536 2154.08 276.925 Q2154.08 283.291 2150.91 286.925 Q2147.74 290.536 2142.19 290.536 Q2136.61 290.536 2133.44 286.925 Q2130.29 283.291 2130.29 276.925 Q2130.29 270.536 2133.44 266.925 Q2136.61 263.314 2142.19 263.314 Z" fill="#000000" fill-rule="nonzero" fill-opacity="1"></path><path clip-path="url(#clip600)" d="M2161.14 253.846 L2165.4 253.846 L2165.4 289.865 L2161.14 289.865 L2161.14 253.846 Z" fill="#000000" fill-rule="nonzero" fill-opacity="1"></path><path clip-path="url(#clip600)" d="M2171.26 263.939 L2175.77 263.939 L2183.88 285.698 L2191.98 263.939 L2196.49 263.939 L2186.77 289.865 L2180.98 289.865 L2171.26 263.939 Z" fill="#000000" fill-rule="nonzero" fill-opacity="1"></path><path clip-path="url(#clip600)" d="M2224.55 275.837 L2224.55 277.92 L2204.96 277.92 Q2205.24 282.318 2207.6 284.633 Q2209.99 286.925 2214.22 286.925 Q2216.68 286.925 2218.97 286.323 Q2221.28 285.721 2223.55 284.517 L2223.55 288.545 Q2221.26 289.517 2218.85 290.027 Q2216.45 290.536 2213.97 290.536 Q2207.76 290.536 2204.13 286.925 Q2200.52 283.314 2200.52 277.156 Q2200.52 270.791 2203.95 267.064 Q2207.39 263.314 2213.23 263.314 Q2218.46 263.314 2221.49 266.693 Q2224.55 270.05 2224.55 275.837 M2220.29 274.587 Q2220.24 271.092 2218.32 269.008 Q2216.42 266.925 2213.27 266.925 Q2209.71 266.925 2207.56 268.939 Q2205.43 270.953 2205.1 274.61 L2220.29 274.587 Z" fill="#000000" fill-rule="nonzero" fill-opacity="1"></path><path clip-path="url(#clip600)" d="M2246.56 267.92 Q2245.84 267.504 2244.99 267.318 Q2244.15 267.11 2243.13 267.11 Q2239.52 267.11 2237.58 269.471 Q2235.66 271.809 2235.66 276.207 L2235.66 289.865 L2231.38 289.865 L2231.38 263.939 L2235.66 263.939 L2235.66 267.967 Q2237 265.606 2239.15 264.471 Q2241.31 263.314 2244.38 263.314 Q2244.82 263.314 2245.36 263.383 Q2245.89 263.43 2246.54 263.545 L2246.56 267.92 Z" fill="#000000" fill-rule="nonzero" fill-opacity="1"></path><polyline clip-path="url(#clip600)" style="stroke:#ff0000; stroke-linecap:round; stroke-linejoin:round; stroke-width:4; stroke-opacity:1; fill:none" points="1752.92,324.425 1892.07,324.425 "></polyline>
<path clip-path="url(#clip600)" d="M1933.69 316.543 L1933.69 320.571 Q1931.89 319.645 1929.94 319.182 Q1928 318.719 1925.91 318.719 Q1922.74 318.719 1921.15 319.691 Q1919.57 320.663 1919.57 322.608 Q1919.57 324.089 1920.71 324.945 Q1921.84 325.779 1925.27 326.543 L1926.72 326.867 Q1931.26 327.839 1933.16 329.621 Q1935.08 331.381 1935.08 334.552 Q1935.08 338.163 1932.21 340.269 Q1929.36 342.376 1924.36 342.376 Q1922.28 342.376 1920.01 341.959 Q1917.77 341.566 1915.27 340.756 L1915.27 336.357 Q1917.63 337.584 1919.92 338.209 Q1922.21 338.811 1924.46 338.811 Q1927.47 338.811 1929.09 337.793 Q1930.71 336.751 1930.71 334.876 Q1930.71 333.14 1929.53 332.214 Q1928.37 331.288 1924.41 330.432 L1922.93 330.084 Q1918.97 329.251 1917.21 327.538 Q1915.45 325.802 1915.45 322.793 Q1915.45 319.135 1918.04 317.145 Q1920.64 315.154 1925.4 315.154 Q1927.77 315.154 1929.85 315.501 Q1931.93 315.848 1933.69 316.543 Z" fill="#000000" fill-rule="nonzero" fill-opacity="1"></path><path clip-path="url(#clip600)" d="M1941.42 331.473 L1941.42 315.779 L1945.68 315.779 L1945.68 331.311 Q1945.68 334.992 1947.12 336.844 Q1948.55 338.672 1951.42 338.672 Q1954.87 338.672 1956.86 336.473 Q1958.88 334.274 1958.88 330.478 L1958.88 315.779 L1963.14 315.779 L1963.14 341.705 L1958.88 341.705 L1958.88 337.723 Q1957.33 340.084 1955.27 341.242 Q1953.23 342.376 1950.52 342.376 Q1946.05 342.376 1943.74 339.598 Q1941.42 336.82 1941.42 331.473 M1952.14 315.154 L1952.14 315.154 Z" fill="#000000" fill-rule="nonzero" fill-opacity="1"></path><path clip-path="url(#clip600)" d="M1986.93 319.76 Q1986.21 319.344 1985.36 319.158 Q1984.53 318.95 1983.51 318.95 Q1979.9 318.95 1977.95 321.311 Q1976.03 323.649 1976.03 328.047 L1976.03 341.705 L1971.75 341.705 L1971.75 315.779 L1976.03 315.779 L1976.03 319.807 Q1977.37 317.446 1979.53 316.311 Q1981.68 315.154 1984.76 315.154 Q1985.2 315.154 1985.73 315.223 Q1986.26 315.27 1986.91 315.385 L1986.93 319.76 Z" fill="#000000" fill-rule="nonzero" fill-opacity="1"></path><path clip-path="url(#clip600)" d="M2004.52 305.686 L2004.52 309.228 L2000.45 309.228 Q1998.16 309.228 1997.26 310.154 Q1996.38 311.08 1996.38 313.487 L1996.38 315.779 L2003.39 315.779 L2003.39 319.089 L1996.38 319.089 L1996.38 341.705 L1992.09 341.705 L1992.09 319.089 L1988.02 319.089 L1988.02 315.779 L1992.09 315.779 L1992.09 313.973 Q1992.09 309.645 1994.11 307.677 Q1996.12 305.686 2000.5 305.686 L2004.52 305.686 Z" fill="#000000" fill-rule="nonzero" fill-opacity="1"></path><path clip-path="url(#clip600)" d="M2019.87 328.672 Q2014.71 328.672 2012.72 329.853 Q2010.73 331.033 2010.73 333.881 Q2010.73 336.149 2012.21 337.492 Q2013.71 338.811 2016.28 338.811 Q2019.83 338.811 2021.96 336.311 Q2024.11 333.788 2024.11 329.621 L2024.11 328.672 L2019.87 328.672 M2028.37 326.913 L2028.37 341.705 L2024.11 341.705 L2024.11 337.769 Q2022.65 340.131 2020.47 341.265 Q2018.3 342.376 2015.15 342.376 Q2011.17 342.376 2008.81 340.154 Q2006.47 337.908 2006.47 334.158 Q2006.47 329.783 2009.39 327.561 Q2012.33 325.339 2018.14 325.339 L2024.11 325.339 L2024.11 324.922 Q2024.11 321.983 2022.16 320.385 Q2020.24 318.765 2016.75 318.765 Q2014.52 318.765 2012.42 319.297 Q2010.31 319.83 2008.37 320.895 L2008.37 316.959 Q2010.71 316.057 2012.9 315.617 Q2015.1 315.154 2017.19 315.154 Q2022.81 315.154 2025.59 318.071 Q2028.37 320.987 2028.37 326.913 Z" fill="#000000" fill-rule="nonzero" fill-opacity="1"></path><path clip-path="url(#clip600)" d="M2055.8 316.774 L2055.8 320.756 Q2053.99 319.76 2052.16 319.274 Q2050.36 318.765 2048.51 318.765 Q2044.36 318.765 2042.07 321.404 Q2039.78 324.02 2039.78 328.765 Q2039.78 333.51 2042.07 336.149 Q2044.36 338.765 2048.51 338.765 Q2050.36 338.765 2052.16 338.279 Q2053.99 337.769 2055.8 336.774 L2055.8 340.709 Q2054.02 341.543 2052.09 341.959 Q2050.2 342.376 2048.04 342.376 Q2042.19 342.376 2038.74 338.695 Q2035.29 335.015 2035.29 328.765 Q2035.29 322.422 2038.76 318.788 Q2042.26 315.154 2048.32 315.154 Q2050.29 315.154 2052.16 315.571 Q2054.04 315.964 2055.8 316.774 Z" fill="#000000" fill-rule="nonzero" fill-opacity="1"></path><path clip-path="url(#clip600)" d="M2085.38 327.677 L2085.38 329.76 L2065.8 329.76 Q2066.08 334.158 2068.44 336.473 Q2070.82 338.765 2075.06 338.765 Q2077.51 338.765 2079.8 338.163 Q2082.12 337.561 2084.39 336.357 L2084.39 340.385 Q2082.09 341.357 2079.69 341.867 Q2077.28 342.376 2074.8 342.376 Q2068.6 342.376 2064.96 338.765 Q2061.35 335.154 2061.35 328.996 Q2061.35 322.631 2064.78 318.904 Q2068.23 315.154 2074.06 315.154 Q2079.29 315.154 2082.33 318.533 Q2085.38 321.89 2085.38 327.677 M2081.12 326.427 Q2081.08 322.932 2079.15 320.848 Q2077.26 318.765 2074.11 318.765 Q2070.54 318.765 2068.39 320.779 Q2066.26 322.793 2065.94 326.45 L2081.12 326.427 Z" fill="#000000" fill-rule="nonzero" fill-opacity="1"></path><path clip-path="url(#clip600)" d="M2122.46 319.76 Q2121.75 319.344 2120.89 319.158 Q2120.06 318.95 2119.04 318.95 Q2115.43 318.95 2113.48 321.311 Q2111.56 323.649 2111.56 328.047 L2111.56 341.705 L2107.28 341.705 L2107.28 315.779 L2111.56 315.779 L2111.56 319.807 Q2112.9 317.446 2115.06 316.311 Q2117.21 315.154 2120.29 315.154 Q2120.73 315.154 2121.26 315.223 Q2121.79 315.27 2122.44 315.385 L2122.46 319.76 Z" fill="#000000" fill-rule="nonzero" fill-opacity="1"></path><path clip-path="url(#clip600)" d="M2138.71 328.672 Q2133.55 328.672 2131.56 329.853 Q2129.57 331.033 2129.57 333.881 Q2129.57 336.149 2131.05 337.492 Q2132.56 338.811 2135.13 338.811 Q2138.67 338.811 2140.8 336.311 Q2142.95 333.788 2142.95 329.621 L2142.95 328.672 L2138.71 328.672 M2147.21 326.913 L2147.21 341.705 L2142.95 341.705 L2142.95 337.769 Q2141.49 340.131 2139.32 341.265 Q2137.14 342.376 2133.99 342.376 Q2130.01 342.376 2127.65 340.154 Q2125.31 337.908 2125.31 334.158 Q2125.31 329.783 2128.23 327.561 Q2131.17 325.339 2136.98 325.339 L2142.95 325.339 L2142.95 324.922 Q2142.95 321.983 2141.01 320.385 Q2139.08 318.765 2135.59 318.765 Q2133.37 318.765 2131.26 319.297 Q2129.15 319.83 2127.21 320.895 L2127.21 316.959 Q2129.55 316.057 2131.75 315.617 Q2133.95 315.154 2136.03 315.154 Q2141.65 315.154 2144.43 318.071 Q2147.21 320.987 2147.21 326.913 Z" fill="#000000" fill-rule="nonzero" fill-opacity="1"></path><path clip-path="url(#clip600)" d="M2153.51 315.779 L2157.76 315.779 L2163.09 336.01 L2168.39 315.779 L2173.41 315.779 L2178.74 336.01 L2184.04 315.779 L2188.3 315.779 L2181.51 341.705 L2176.49 341.705 L2170.91 320.455 L2165.31 341.705 L2160.29 341.705 L2153.51 315.779 Z" fill="#000000" fill-rule="nonzero" fill-opacity="1"></path><polyline clip-path="url(#clip600)" style="stroke:#008000; stroke-linecap:round; stroke-linejoin:round; stroke-width:4; stroke-opacity:1; fill:none" points="1752.92,376.265 1892.07,376.265 "></polyline>
<path clip-path="url(#clip600)" d="M1933.69 368.383 L1933.69 372.411 Q1931.89 371.485 1929.94 371.022 Q1928 370.559 1925.91 370.559 Q1922.74 370.559 1921.15 371.531 Q1919.57 372.503 1919.57 374.448 Q1919.57 375.929 1920.71 376.785 Q1921.84 377.619 1925.27 378.383 L1926.72 378.707 Q1931.26 379.679 1933.16 381.461 Q1935.08 383.221 1935.08 386.392 Q1935.08 390.003 1932.21 392.109 Q1929.36 394.216 1924.36 394.216 Q1922.28 394.216 1920.01 393.799 Q1917.77 393.406 1915.27 392.596 L1915.27 388.197 Q1917.63 389.424 1919.92 390.049 Q1922.21 390.651 1924.46 390.651 Q1927.47 390.651 1929.09 389.633 Q1930.71 388.591 1930.71 386.716 Q1930.71 384.98 1929.53 384.054 Q1928.37 383.128 1924.41 382.272 L1922.93 381.924 Q1918.97 381.091 1917.21 379.378 Q1915.45 377.642 1915.45 374.633 Q1915.45 370.975 1918.04 368.985 Q1920.64 366.994 1925.4 366.994 Q1927.77 366.994 1929.85 367.341 Q1931.93 367.688 1933.69 368.383 Z" fill="#000000" fill-rule="nonzero" fill-opacity="1"></path><path clip-path="url(#clip600)" d="M1941.42 383.313 L1941.42 367.619 L1945.68 367.619 L1945.68 383.151 Q1945.68 386.832 1947.12 388.684 Q1948.55 390.512 1951.42 390.512 Q1954.87 390.512 1956.86 388.313 Q1958.88 386.114 1958.88 382.318 L1958.88 367.619 L1963.14 367.619 L1963.14 393.545 L1958.88 393.545 L1958.88 389.563 Q1957.33 391.924 1955.27 393.082 Q1953.23 394.216 1950.52 394.216 Q1946.05 394.216 1943.74 391.438 Q1941.42 388.66 1941.42 383.313 M1952.14 366.994 L1952.14 366.994 Z" fill="#000000" fill-rule="nonzero" fill-opacity="1"></path><path clip-path="url(#clip600)" d="M1986.93 371.6 Q1986.21 371.184 1985.36 370.998 Q1984.53 370.79 1983.51 370.79 Q1979.9 370.79 1977.95 373.151 Q1976.03 375.489 1976.03 379.887 L1976.03 393.545 L1971.75 393.545 L1971.75 367.619 L1976.03 367.619 L1976.03 371.647 Q1977.37 369.286 1979.53 368.151 Q1981.68 366.994 1984.76 366.994 Q1985.2 366.994 1985.73 367.063 Q1986.26 367.11 1986.91 367.225 L1986.93 371.6 Z" fill="#000000" fill-rule="nonzero" fill-opacity="1"></path><path clip-path="url(#clip600)" d="M2004.52 357.526 L2004.52 361.068 L2000.45 361.068 Q1998.16 361.068 1997.26 361.994 Q1996.38 362.92 1996.38 365.327 L1996.38 367.619 L2003.39 367.619 L2003.39 370.929 L1996.38 370.929 L1996.38 393.545 L1992.09 393.545 L1992.09 370.929 L1988.02 370.929 L1988.02 367.619 L1992.09 367.619 L1992.09 365.813 Q1992.09 361.485 1994.11 359.517 Q1996.12 357.526 2000.5 357.526 L2004.52 357.526 Z" fill="#000000" fill-rule="nonzero" fill-opacity="1"></path><path clip-path="url(#clip600)" d="M2019.87 380.512 Q2014.71 380.512 2012.72 381.693 Q2010.73 382.873 2010.73 385.721 Q2010.73 387.989 2012.21 389.332 Q2013.71 390.651 2016.28 390.651 Q2019.83 390.651 2021.96 388.151 Q2024.11 385.628 2024.11 381.461 L2024.11 380.512 L2019.87 380.512 M2028.37 378.753 L2028.37 393.545 L2024.11 393.545 L2024.11 389.609 Q2022.65 391.971 2020.47 393.105 Q2018.3 394.216 2015.15 394.216 Q2011.17 394.216 2008.81 391.994 Q2006.47 389.748 2006.47 385.998 Q2006.47 381.623 2009.39 379.401 Q2012.33 377.179 2018.14 377.179 L2024.11 377.179 L2024.11 376.762 Q2024.11 373.823 2022.16 372.225 Q2020.24 370.605 2016.75 370.605 Q2014.52 370.605 2012.42 371.137 Q2010.31 371.67 2008.37 372.735 L2008.37 368.799 Q2010.71 367.897 2012.9 367.457 Q2015.1 366.994 2017.19 366.994 Q2022.81 366.994 2025.59 369.911 Q2028.37 372.827 2028.37 378.753 Z" fill="#000000" fill-rule="nonzero" fill-opacity="1"></path><path clip-path="url(#clip600)" d="M2055.8 368.614 L2055.8 372.596 Q2053.99 371.6 2052.16 371.114 Q2050.36 370.605 2048.51 370.605 Q2044.36 370.605 2042.07 373.244 Q2039.78 375.86 2039.78 380.605 Q2039.78 385.35 2042.07 387.989 Q2044.36 390.605 2048.51 390.605 Q2050.36 390.605 2052.16 390.119 Q2053.99 389.609 2055.8 388.614 L2055.8 392.549 Q2054.02 393.383 2052.09 393.799 Q2050.2 394.216 2048.04 394.216 Q2042.19 394.216 2038.74 390.535 Q2035.29 386.855 2035.29 380.605 Q2035.29 374.262 2038.76 370.628 Q2042.26 366.994 2048.32 366.994 Q2050.29 366.994 2052.16 367.411 Q2054.04 367.804 2055.8 368.614 Z" fill="#000000" fill-rule="nonzero" fill-opacity="1"></path><path clip-path="url(#clip600)" d="M2085.38 379.517 L2085.38 381.6 L2065.8 381.6 Q2066.08 385.998 2068.44 388.313 Q2070.82 390.605 2075.06 390.605 Q2077.51 390.605 2079.8 390.003 Q2082.12 389.401 2084.39 388.197 L2084.39 392.225 Q2082.09 393.197 2079.69 393.707 Q2077.28 394.216 2074.8 394.216 Q2068.6 394.216 2064.96 390.605 Q2061.35 386.994 2061.35 380.836 Q2061.35 374.471 2064.78 370.744 Q2068.23 366.994 2074.06 366.994 Q2079.29 366.994 2082.33 370.373 Q2085.38 373.73 2085.38 379.517 M2081.12 378.267 Q2081.08 374.772 2079.15 372.688 Q2077.26 370.605 2074.11 370.605 Q2070.54 370.605 2068.39 372.619 Q2066.26 374.633 2065.94 378.29 L2081.12 378.267 Z" fill="#000000" fill-rule="nonzero" fill-opacity="1"></path><path clip-path="url(#clip600)" d="M2107.44 367.619 L2111.7 367.619 L2111.7 393.545 L2107.44 393.545 L2107.44 367.619 M2107.44 357.526 L2111.7 357.526 L2111.7 362.92 L2107.44 362.92 L2107.44 357.526 Z" fill="#000000" fill-rule="nonzero" fill-opacity="1"></path><path clip-path="url(#clip600)" d="M2142.16 377.897 L2142.16 393.545 L2137.9 393.545 L2137.9 378.035 Q2137.9 374.355 2136.47 372.526 Q2135.03 370.698 2132.16 370.698 Q2128.71 370.698 2126.72 372.897 Q2124.73 375.096 2124.73 378.892 L2124.73 393.545 L2120.45 393.545 L2120.45 367.619 L2124.73 367.619 L2124.73 371.647 Q2126.26 369.309 2128.32 368.151 Q2130.4 366.994 2133.11 366.994 Q2137.58 366.994 2139.87 369.772 Q2142.16 372.526 2142.16 377.897 Z" fill="#000000" fill-rule="nonzero" fill-opacity="1"></path><path clip-path="url(#clip600)" d="M2150.66 367.619 L2154.92 367.619 L2154.92 393.545 L2150.66 393.545 L2150.66 367.619 M2150.66 357.526 L2154.92 357.526 L2154.92 362.92 L2150.66 362.92 L2150.66 357.526 Z" fill="#000000" fill-rule="nonzero" fill-opacity="1"></path><path clip-path="url(#clip600)" d="M2168.04 360.258 L2168.04 367.619 L2176.82 367.619 L2176.82 370.929 L2168.04 370.929 L2168.04 385.003 Q2168.04 388.174 2168.9 389.077 Q2169.78 389.98 2172.44 389.98 L2176.82 389.98 L2176.82 393.545 L2172.44 393.545 Q2167.51 393.545 2165.64 391.716 Q2163.76 389.864 2163.76 385.003 L2163.76 370.929 L2160.64 370.929 L2160.64 367.619 L2163.76 367.619 L2163.76 360.258 L2168.04 360.258 Z" fill="#000000" fill-rule="nonzero" fill-opacity="1"></path><path clip-path="url(#clip600)" d="M2182.42 367.619 L2186.68 367.619 L2186.68 393.545 L2182.42 393.545 L2182.42 367.619 M2182.42 357.526 L2186.68 357.526 L2186.68 362.92 L2182.42 362.92 L2182.42 357.526 Z" fill="#000000" fill-rule="nonzero" fill-opacity="1"></path><path clip-path="url(#clip600)" d="M2207.37 380.512 Q2202.21 380.512 2200.22 381.693 Q2198.23 382.873 2198.23 385.721 Q2198.23 387.989 2199.71 389.332 Q2201.21 390.651 2203.78 390.651 Q2207.32 390.651 2209.45 388.151 Q2211.61 385.628 2211.61 381.461 L2211.61 380.512 L2207.37 380.512 M2215.87 378.753 L2215.87 393.545 L2211.61 393.545 L2211.61 389.609 Q2210.15 391.971 2207.97 393.105 Q2205.8 394.216 2202.65 394.216 Q2198.67 394.216 2196.31 391.994 Q2193.97 389.748 2193.97 385.998 Q2193.97 381.623 2196.89 379.401 Q2199.82 377.179 2205.63 377.179 L2211.61 377.179 L2211.61 376.762 Q2211.61 373.823 2209.66 372.225 Q2207.74 370.605 2204.25 370.605 Q2202.02 370.605 2199.92 371.137 Q2197.81 371.67 2195.87 372.735 L2195.87 368.799 Q2198.2 367.897 2200.4 367.457 Q2202.6 366.994 2204.69 366.994 Q2210.31 366.994 2213.09 369.911 Q2215.87 372.827 2215.87 378.753 Z" fill="#000000" fill-rule="nonzero" fill-opacity="1"></path><path clip-path="url(#clip600)" d="M2224.64 357.526 L2228.9 357.526 L2228.9 393.545 L2224.64 393.545 L2224.64 357.526 Z" fill="#000000" fill-rule="nonzero" fill-opacity="1"></path><path clip-path="url(#clip600)" d="M2259.99 379.517 L2259.99 381.6 L2240.4 381.6 Q2240.68 385.998 2243.04 388.313 Q2245.43 390.605 2249.66 390.605 Q2252.12 390.605 2254.41 390.003 Q2256.72 389.401 2258.99 388.197 L2258.99 392.225 Q2256.7 393.197 2254.29 393.707 Q2251.88 394.216 2249.41 394.216 Q2243.2 394.216 2239.57 390.605 Q2235.96 386.994 2235.96 380.836 Q2235.96 374.471 2239.38 370.744 Q2242.83 366.994 2248.67 366.994 Q2253.9 366.994 2256.93 370.373 Q2259.99 373.73 2259.99 379.517 M2255.73 378.267 Q2255.68 374.772 2253.76 372.688 Q2251.86 370.605 2248.71 370.605 Q2245.15 370.605 2243 372.619 Q2240.87 374.633 2240.54 378.29 L2255.73 378.267 Z" fill="#000000" fill-rule="nonzero" fill-opacity="1"></path><polyline clip-path="url(#clip600)" style="stroke:#000000; stroke-linecap:round; stroke-linejoin:round; stroke-width:4; stroke-opacity:1; fill:none" stroke-dasharray="16, 10" points="1752.92,428.105 1892.07,428.105 "></polyline>
<path clip-path="url(#clip600)" d="M1933.69 420.223 L1933.69 424.251 Q1931.89 423.325 1929.94 422.862 Q1928 422.399 1925.91 422.399 Q1922.74 422.399 1921.15 423.371 Q1919.57 424.343 1919.57 426.288 Q1919.57 427.769 1920.71 428.625 Q1921.84 429.459 1925.27 430.223 L1926.72 430.547 Q1931.26 431.519 1933.16 433.301 Q1935.08 435.061 1935.08 438.232 Q1935.08 441.843 1932.21 443.949 Q1929.36 446.056 1924.36 446.056 Q1922.28 446.056 1920.01 445.639 Q1917.77 445.246 1915.27 444.436 L1915.27 440.037 Q1917.63 441.264 1919.92 441.889 Q1922.21 442.491 1924.46 442.491 Q1927.47 442.491 1929.09 441.473 Q1930.71 440.431 1930.71 438.556 Q1930.71 436.82 1929.53 435.894 Q1928.37 434.968 1924.41 434.112 L1922.93 433.764 Q1918.97 432.931 1917.21 431.218 Q1915.45 429.482 1915.45 426.473 Q1915.45 422.815 1918.04 420.825 Q1920.64 418.834 1925.4 418.834 Q1927.77 418.834 1929.85 419.181 Q1931.93 419.528 1933.69 420.223 Z" fill="#000000" fill-rule="nonzero" fill-opacity="1"></path><path clip-path="url(#clip600)" d="M1941.42 435.153 L1941.42 419.459 L1945.68 419.459 L1945.68 434.991 Q1945.68 438.672 1947.12 440.524 Q1948.55 442.352 1951.42 442.352 Q1954.87 442.352 1956.86 440.153 Q1958.88 437.954 1958.88 434.158 L1958.88 419.459 L1963.14 419.459 L1963.14 445.385 L1958.88 445.385 L1958.88 441.403 Q1957.33 443.764 1955.27 444.922 Q1953.23 446.056 1950.52 446.056 Q1946.05 446.056 1943.74 443.278 Q1941.42 440.5 1941.42 435.153 M1952.14 418.834 L1952.14 418.834 Z" fill="#000000" fill-rule="nonzero" fill-opacity="1"></path><path clip-path="url(#clip600)" d="M1986.93 423.44 Q1986.21 423.024 1985.36 422.838 Q1984.53 422.63 1983.51 422.63 Q1979.9 422.63 1977.95 424.991 Q1976.03 427.329 1976.03 431.727 L1976.03 445.385 L1971.75 445.385 L1971.75 419.459 L1976.03 419.459 L1976.03 423.487 Q1977.37 421.126 1979.53 419.991 Q1981.68 418.834 1984.76 418.834 Q1985.2 418.834 1985.73 418.903 Q1986.26 418.95 1986.91 419.065 L1986.93 423.44 Z" fill="#000000" fill-rule="nonzero" fill-opacity="1"></path><path clip-path="url(#clip600)" d="M2004.52 409.366 L2004.52 412.908 L2000.45 412.908 Q1998.16 412.908 1997.26 413.834 Q1996.38 414.76 1996.38 417.167 L1996.38 419.459 L2003.39 419.459 L2003.39 422.769 L1996.38 422.769 L1996.38 445.385 L1992.09 445.385 L1992.09 422.769 L1988.02 422.769 L1988.02 419.459 L1992.09 419.459 L1992.09 417.653 Q1992.09 413.325 1994.11 411.357 Q1996.12 409.366 2000.5 409.366 L2004.52 409.366 Z" fill="#000000" fill-rule="nonzero" fill-opacity="1"></path><path clip-path="url(#clip600)" d="M2019.87 432.352 Q2014.71 432.352 2012.72 433.533 Q2010.73 434.713 2010.73 437.561 Q2010.73 439.829 2012.21 441.172 Q2013.71 442.491 2016.28 442.491 Q2019.83 442.491 2021.96 439.991 Q2024.11 437.468 2024.11 433.301 L2024.11 432.352 L2019.87 432.352 M2028.37 430.593 L2028.37 445.385 L2024.11 445.385 L2024.11 441.449 Q2022.65 443.811 2020.47 444.945 Q2018.3 446.056 2015.15 446.056 Q2011.17 446.056 2008.81 443.834 Q2006.47 441.588 2006.47 437.838 Q2006.47 433.463 2009.39 431.241 Q2012.33 429.019 2018.14 429.019 L2024.11 429.019 L2024.11 428.602 Q2024.11 425.663 2022.16 424.065 Q2020.24 422.445 2016.75 422.445 Q2014.52 422.445 2012.42 422.977 Q2010.31 423.51 2008.37 424.575 L2008.37 420.639 Q2010.71 419.737 2012.9 419.297 Q2015.1 418.834 2017.19 418.834 Q2022.81 418.834 2025.59 421.751 Q2028.37 424.667 2028.37 430.593 Z" fill="#000000" fill-rule="nonzero" fill-opacity="1"></path><path clip-path="url(#clip600)" d="M2055.8 420.454 L2055.8 424.436 Q2053.99 423.44 2052.16 422.954 Q2050.36 422.445 2048.51 422.445 Q2044.36 422.445 2042.07 425.084 Q2039.78 427.7 2039.78 432.445 Q2039.78 437.19 2042.07 439.829 Q2044.36 442.445 2048.51 442.445 Q2050.36 442.445 2052.16 441.959 Q2053.99 441.449 2055.8 440.454 L2055.8 444.389 Q2054.02 445.223 2052.09 445.639 Q2050.2 446.056 2048.04 446.056 Q2042.19 446.056 2038.74 442.375 Q2035.29 438.695 2035.29 432.445 Q2035.29 426.102 2038.76 422.468 Q2042.26 418.834 2048.32 418.834 Q2050.29 418.834 2052.16 419.251 Q2054.04 419.644 2055.8 420.454 Z" fill="#000000" fill-rule="nonzero" fill-opacity="1"></path><path clip-path="url(#clip600)" d="M2085.38 431.357 L2085.38 433.44 L2065.8 433.44 Q2066.08 437.838 2068.44 440.153 Q2070.82 442.445 2075.06 442.445 Q2077.51 442.445 2079.8 441.843 Q2082.12 441.241 2084.39 440.037 L2084.39 444.065 Q2082.09 445.037 2079.69 445.547 Q2077.28 446.056 2074.8 446.056 Q2068.6 446.056 2064.96 442.445 Q2061.35 438.834 2061.35 432.676 Q2061.35 426.311 2064.78 422.584 Q2068.23 418.834 2074.06 418.834 Q2079.29 418.834 2082.33 422.213 Q2085.38 425.57 2085.38 431.357 M2081.12 430.107 Q2081.08 426.612 2079.15 424.528 Q2077.26 422.445 2074.11 422.445 Q2070.54 422.445 2068.39 424.459 Q2066.26 426.473 2065.94 430.13 L2081.12 430.107 Z" fill="#000000" fill-rule="nonzero" fill-opacity="1"></path><path clip-path="url(#clip600)" d="M2117.49 422.445 Q2114.06 422.445 2112.07 425.13 Q2110.08 427.792 2110.08 432.445 Q2110.08 437.098 2112.05 439.783 Q2114.04 442.445 2117.49 442.445 Q2120.89 442.445 2122.88 439.76 Q2124.87 437.075 2124.87 432.445 Q2124.87 427.838 2122.88 425.153 Q2120.89 422.445 2117.49 422.445 M2117.49 418.834 Q2123.04 418.834 2126.21 422.445 Q2129.39 426.056 2129.39 432.445 Q2129.39 438.811 2126.21 442.445 Q2123.04 446.056 2117.49 446.056 Q2111.91 446.056 2108.74 442.445 Q2105.59 438.811 2105.59 432.445 Q2105.59 426.056 2108.74 422.445 Q2111.91 418.834 2117.49 418.834 Z" fill="#000000" fill-rule="nonzero" fill-opacity="1"></path><path clip-path="url(#clip600)" d="M2153.51 432.121 Q2153.51 427.491 2151.58 424.945 Q2149.69 422.399 2146.24 422.399 Q2142.81 422.399 2140.89 424.945 Q2138.99 427.491 2138.99 432.121 Q2138.99 436.727 2140.89 439.274 Q2142.81 441.82 2146.24 441.82 Q2149.69 441.82 2151.58 439.274 Q2153.51 436.727 2153.51 432.121 M2157.76 442.167 Q2157.76 448.787 2154.83 452.005 Q2151.89 455.246 2145.82 455.246 Q2143.58 455.246 2141.58 454.898 Q2139.59 454.574 2137.72 453.88 L2137.72 449.736 Q2139.59 450.755 2141.42 451.241 Q2143.25 451.727 2145.15 451.727 Q2149.34 451.727 2151.42 449.528 Q2153.51 447.352 2153.51 442.931 L2153.51 440.824 Q2152.19 443.116 2150.13 444.25 Q2148.07 445.385 2145.2 445.385 Q2140.43 445.385 2137.51 441.75 Q2134.59 438.116 2134.59 432.121 Q2134.59 426.102 2137.51 422.468 Q2140.43 418.834 2145.2 418.834 Q2148.07 418.834 2150.13 419.968 Q2152.19 421.102 2153.51 423.394 L2153.51 419.459 L2157.76 419.459 L2157.76 442.167 Z" fill="#000000" fill-rule="nonzero" fill-opacity="1"></path><path clip-path="url(#clip600)" d="M2183.6 432.121 Q2183.6 427.491 2181.68 424.945 Q2179.78 422.399 2176.33 422.399 Q2172.9 422.399 2170.98 424.945 Q2169.08 427.491 2169.08 432.121 Q2169.08 436.727 2170.98 439.274 Q2172.9 441.82 2176.33 441.82 Q2179.78 441.82 2181.68 439.274 Q2183.6 436.727 2183.6 432.121 M2187.86 442.167 Q2187.86 448.787 2184.92 452.005 Q2181.98 455.246 2175.91 455.246 Q2173.67 455.246 2171.68 454.898 Q2169.69 454.574 2167.81 453.88 L2167.81 449.736 Q2169.69 450.755 2171.51 451.241 Q2173.34 451.727 2175.24 451.727 Q2179.43 451.727 2181.51 449.528 Q2183.6 447.352 2183.6 442.931 L2183.6 440.824 Q2182.28 443.116 2180.22 444.25 Q2178.16 445.385 2175.29 445.385 Q2170.52 445.385 2167.6 441.75 Q2164.69 438.116 2164.69 432.121 Q2164.69 426.102 2167.6 422.468 Q2170.52 418.834 2175.29 418.834 Q2178.16 418.834 2180.22 419.968 Q2182.28 421.102 2183.6 423.394 L2183.6 419.459 L2187.86 419.459 L2187.86 442.167 Z" fill="#000000" fill-rule="nonzero" fill-opacity="1"></path><path clip-path="url(#clip600)" d="M2216.82 424.436 Q2218.41 421.565 2220.63 420.2 Q2222.86 418.834 2225.87 418.834 Q2229.92 418.834 2232.12 421.681 Q2234.32 424.505 2234.32 429.737 L2234.32 445.385 L2230.03 445.385 L2230.03 429.875 Q2230.03 426.149 2228.71 424.343 Q2227.39 422.538 2224.69 422.538 Q2221.38 422.538 2219.45 424.737 Q2217.53 426.936 2217.53 430.732 L2217.53 445.385 L2213.25 445.385 L2213.25 429.875 Q2213.25 426.125 2211.93 424.343 Q2210.61 422.538 2207.86 422.538 Q2204.59 422.538 2202.67 424.76 Q2200.75 426.959 2200.75 430.732 L2200.75 445.385 L2196.47 445.385 L2196.47 419.459 L2200.75 419.459 L2200.75 423.487 Q2202.21 421.102 2204.25 419.968 Q2206.28 418.834 2209.08 418.834 Q2211.91 418.834 2213.88 420.269 Q2215.87 421.704 2216.82 424.436 Z" fill="#000000" fill-rule="nonzero" fill-opacity="1"></path></svg>