<svg xmlns="http://www.w3.org/2000/svg" xmlns:xlink="http://www.w3.org/1999/xlink" width="600" height="400" viewBox="0 0 2400 1600">
<defs>
  <clipPath id="clip960">
    <rect x="0" y="0" width="2400" height="1600"></rect>
  </clipPath>
</defs>
<path clip-path="url(#clip960)" d="M0 1600 L2400 1600 L2400 0 L0 0  Z" fill="#ffffff" fill-rule="evenodd" fill-opacity="1"></path>
<defs>
  <clipPath id="clip961">
    <rect x="480" y="0" width="1681" height="1600"></rect>
  </clipPath>
</defs>
<path clip-path="url(#clip960)" d="M264.287 1486.45 L2352.76 1486.45 L2352.76 123.472 L264.287 123.472  Z" fill="#ffffff" fill-rule="evenodd" fill-opacity="1"></path>
<defs>
  <clipPath id="clip962">
    <rect x="264" y="123" width="2089" height="1364"></rect>
  </clipPath>
</defs>
<polyline clip-path="url(#clip962)" style="stroke:#000000; stroke-linecap:round; stroke-linejoin:round; stroke-width:2; stroke-opacity:0.1; fill:none" points="301.979,1486.45 301.979,123.472 "></polyline>
<polyline clip-path="url(#clip962)" style="stroke:#000000; stroke-linecap:round; stroke-linejoin:round; stroke-width:2; stroke-opacity:0.1; fill:none" points="730.295,1486.45 730.295,123.472 "></polyline>
<polyline clip-path="url(#clip962)" style="stroke:#000000; stroke-linecap:round; stroke-linejoin:round; stroke-width:2; stroke-opacity:0.1; fill:none" points="1158.61,1486.45 1158.61,123.472 "></polyline>
<polyline clip-path="url(#clip962)" style="stroke:#000000; stroke-linecap:round; stroke-linejoin:round; stroke-width:2; stroke-opacity:0.1; fill:none" points="1586.93,1486.45 1586.93,123.472 "></polyline>
<polyline clip-path="url(#clip962)" style="stroke:#000000; stroke-linecap:round; stroke-linejoin:round; stroke-width:2; stroke-opacity:0.1; fill:none" points="2015.24,1486.45 2015.24,123.472 "></polyline>
<polyline clip-path="url(#clip960)" style="stroke:#000000; stroke-linecap:round; stroke-linejoin:round; stroke-width:4; stroke-opacity:1; fill:none" points="264.287,1486.45 2352.76,1486.45 "></polyline>
<polyline clip-path="url(#clip960)" style="stroke:#000000; stroke-linecap:round; stroke-linejoin:round; stroke-width:4; stroke-opacity:1; fill:none" points="301.979,1486.45 301.979,1467.55 "></polyline>
<polyline clip-path="url(#clip960)" style="stroke:#000000; stroke-linecap:round; stroke-linejoin:round; stroke-width:4; stroke-opacity:1; fill:none" points="730.295,1486.45 730.295,1467.55 "></polyline>
<polyline clip-path="url(#clip960)" style="stroke:#000000; stroke-linecap:round; stroke-linejoin:round; stroke-width:4; stroke-opacity:1; fill:none" points="1158.61,1486.45 1158.61,1467.55 "></polyline>
<polyline clip-path="url(#clip960)" style="stroke:#000000; stroke-linecap:round; stroke-linejoin:round; stroke-width:4; stroke-opacity:1; fill:none" points="1586.93,1486.45 1586.93,1467.55 "></polyline>
<polyline clip-path="url(#clip960)" style="stroke:#000000; stroke-linecap:round; stroke-linejoin:round; stroke-width:4; stroke-opacity:1; fill:none" points="2015.24,1486.45 2015.24,1467.55 "></polyline>
<path clip-path="url(#clip960)" d="M301.979 1517.37 Q298.368 1517.37 296.539 1520.93 Q294.734 1524.47 294.734 1531.6 Q294.734 1538.71 296.539 1542.27 Q298.368 1545.82 301.979 1545.82 Q305.613 1545.82 307.419 1542.27 Q309.248 1538.71 309.248 1531.6 Q309.248 1524.47 307.419 1520.93 Q305.613 1517.37 301.979 1517.37 M301.979 1513.66 Q307.789 1513.66 310.845 1518.27 Q313.924 1522.85 313.924 1531.6 Q313.924 1540.33 310.845 1544.94 Q307.789 1549.52 301.979 1549.52 Q296.169 1549.52 293.09 1544.94 Q290.035 1540.33 290.035 1531.6 Q290.035 1522.85 293.09 1518.27 Q296.169 1513.66 301.979 1513.66 Z" fill="#000000" fill-rule="nonzero" fill-opacity="1"></path><path clip-path="url(#clip960)" d="M709.068 1544.91 L725.388 1544.91 L725.388 1548.85 L703.443 1548.85 L703.443 1544.91 Q706.105 1542.16 710.689 1537.53 Q715.295 1532.88 716.476 1531.53 Q718.721 1529.01 719.601 1527.27 Q720.503 1525.51 720.503 1523.82 Q720.503 1521.07 718.559 1519.33 Q716.638 1517.6 713.536 1517.6 Q711.337 1517.6 708.883 1518.36 Q706.453 1519.13 703.675 1520.68 L703.675 1515.95 Q706.499 1514.82 708.953 1514.24 Q711.406 1513.66 713.443 1513.66 Q718.814 1513.66 722.008 1516.35 Q725.203 1519.03 725.203 1523.52 Q725.203 1525.65 724.392 1527.57 Q723.605 1529.47 721.499 1532.07 Q720.92 1532.74 717.818 1535.95 Q714.716 1539.15 709.068 1544.91 Z" fill="#000000" fill-rule="nonzero" fill-opacity="1"></path><path clip-path="url(#clip960)" d="M745.202 1517.37 Q741.591 1517.37 739.763 1520.93 Q737.957 1524.47 737.957 1531.6 Q737.957 1538.71 739.763 1542.27 Q741.591 1545.82 745.202 1545.82 Q748.837 1545.82 750.642 1542.27 Q752.471 1538.71 752.471 1531.6 Q752.471 1524.47 750.642 1520.93 Q748.837 1517.37 745.202 1517.37 M745.202 1513.66 Q751.013 1513.66 754.068 1518.27 Q757.147 1522.85 757.147 1531.6 Q757.147 1540.33 754.068 1544.94 Q751.013 1549.52 745.202 1549.52 Q739.392 1549.52 736.314 1544.94 Q733.258 1540.33 733.258 1531.6 Q733.258 1522.85 736.314 1518.27 Q739.392 1513.66 745.202 1513.66 Z" fill="#000000" fill-rule="nonzero" fill-opacity="1"></path><path clip-path="url(#clip960)" d="M1146.78 1518.36 L1134.98 1536.81 L1146.78 1536.81 L1146.78 1518.36 M1145.56 1514.29 L1151.44 1514.29 L1151.44 1536.81 L1156.37 1536.81 L1156.37 1540.7 L1151.44 1540.7 L1151.44 1548.85 L1146.78 1548.85 L1146.78 1540.7 L1131.18 1540.7 L1131.18 1536.19 L1145.56 1514.29 Z" fill="#000000" fill-rule="nonzero" fill-opacity="1"></path><path clip-path="url(#clip960)" d="M1174.1 1517.37 Q1170.49 1517.37 1168.66 1520.93 Q1166.85 1524.47 1166.85 1531.6 Q1166.85 1538.71 1168.66 1542.27 Q1170.49 1545.82 1174.1 1545.82 Q1177.73 1545.82 1179.54 1542.27 Q1181.37 1538.71 1181.37 1531.6 Q1181.37 1524.47 1179.54 1520.93 Q1177.73 1517.37 1174.1 1517.37 M1174.1 1513.66 Q1179.91 1513.66 1182.96 1518.27 Q1186.04 1522.85 1186.04 1531.6 Q1186.04 1540.33 1182.96 1544.94 Q1179.91 1549.52 1174.1 1549.52 Q1168.29 1549.52 1165.21 1544.94 Q1162.15 1540.33 1162.15 1531.6 Q1162.15 1522.85 1165.21 1518.27 Q1168.29 1513.66 1174.1 1513.66 Z" fill="#000000" fill-rule="nonzero" fill-opacity="1"></path><path clip-path="url(#clip960)" d="M1572.33 1529.7 Q1569.18 1529.7 1567.33 1531.86 Q1565.5 1534.01 1565.5 1537.76 Q1565.5 1541.49 1567.33 1543.66 Q1569.18 1545.82 1572.33 1545.82 Q1575.48 1545.82 1577.31 1543.66 Q1579.16 1541.49 1579.16 1537.76 Q1579.16 1534.01 1577.31 1531.86 Q1575.48 1529.7 1572.33 1529.7 M1581.61 1515.05 L1581.61 1519.31 Q1579.86 1518.48 1578.05 1518.04 Q1576.27 1517.6 1574.51 1517.6 Q1569.88 1517.6 1567.42 1520.72 Q1564.99 1523.85 1564.65 1530.17 Q1566.01 1528.15 1568.07 1527.09 Q1570.13 1526 1572.61 1526 Q1577.82 1526 1580.83 1529.17 Q1583.86 1532.32 1583.86 1537.76 Q1583.86 1543.08 1580.71 1546.3 Q1577.56 1549.52 1572.33 1549.52 Q1566.34 1549.52 1563.17 1544.94 Q1559.99 1540.33 1559.99 1531.6 Q1559.99 1523.41 1563.88 1518.55 Q1567.77 1513.66 1574.32 1513.66 Q1576.08 1513.66 1577.86 1514.01 Q1579.67 1514.36 1581.61 1515.05 Z" fill="#000000" fill-rule="nonzero" fill-opacity="1"></path><path clip-path="url(#clip960)" d="M1601.92 1517.37 Q1598.3 1517.37 1596.48 1520.93 Q1594.67 1524.47 1594.67 1531.6 Q1594.67 1538.71 1596.48 1542.27 Q1598.3 1545.82 1601.92 1545.82 Q1605.55 1545.82 1607.36 1542.27 Q1609.18 1538.71 1609.18 1531.6 Q1609.18 1524.47 1607.36 1520.93 Q1605.55 1517.37 1601.92 1517.37 M1601.92 1513.66 Q1607.73 1513.66 1610.78 1518.27 Q1613.86 1522.85 1613.86 1531.6 Q1613.86 1540.33 1610.78 1544.94 Q1607.73 1549.52 1601.92 1549.52 Q1596.11 1549.52 1593.03 1544.94 Q1589.97 1540.33 1589.97 1531.6 Q1589.97 1522.85 1593.03 1518.27 Q1596.11 1513.66 1601.92 1513.66 Z" fill="#000000" fill-rule="nonzero" fill-opacity="1"></path><path clip-path="url(#clip960)" d="M2000.12 1532.44 Q1996.78 1532.44 1994.86 1534.22 Q1992.96 1536 1992.96 1539.13 Q1992.96 1542.25 1994.86 1544.03 Q1996.78 1545.82 2000.12 1545.82 Q2003.45 1545.82 2005.37 1544.03 Q2007.29 1542.23 2007.29 1539.13 Q2007.29 1536 2005.37 1534.22 Q2003.47 1532.44 2000.12 1532.44 M1995.44 1530.45 Q1992.43 1529.7 1990.74 1527.64 Q1989.07 1525.58 1989.07 1522.62 Q1989.07 1518.48 1992.01 1516.07 Q1994.98 1513.66 2000.12 1513.66 Q2005.28 1513.66 2008.22 1516.07 Q2011.16 1518.48 2011.16 1522.62 Q2011.16 1525.58 2009.47 1527.64 Q2007.8 1529.7 2004.81 1530.45 Q2008.19 1531.23 2010.07 1533.52 Q2011.97 1535.82 2011.97 1539.13 Q2011.97 1544.15 2008.89 1546.83 Q2005.83 1549.52 2000.12 1549.52 Q1994.4 1549.52 1991.32 1546.83 Q1988.26 1544.15 1988.26 1539.13 Q1988.26 1535.82 1990.16 1533.52 Q1992.06 1531.23 1995.44 1530.45 M1993.73 1523.06 Q1993.73 1525.75 1995.39 1527.25 Q1997.08 1528.76 2000.12 1528.76 Q2003.12 1528.76 2004.81 1527.25 Q2006.53 1525.75 2006.53 1523.06 Q2006.53 1520.38 2004.81 1518.87 Q2003.12 1517.37 2000.12 1517.37 Q1997.08 1517.37 1995.39 1518.87 Q1993.73 1520.38 1993.73 1523.06 Z" fill="#000000" fill-rule="nonzero" fill-opacity="1"></path><path clip-path="url(#clip960)" d="M2030.28 1517.37 Q2026.67 1517.37 2024.84 1520.93 Q2023.03 1524.47 2023.03 1531.6 Q2023.03 1538.71 2024.84 1542.27 Q2026.67 1545.82 2030.28 1545.82 Q2033.91 1545.82 2035.72 1542.27 Q2037.55 1538.71 2037.55 1531.6 Q2037.55 1524.47 2035.72 1520.93 Q2033.91 1517.37 2030.28 1517.37 M2030.28 1513.66 Q2036.09 1513.66 2039.14 1518.27 Q2042.22 1522.85 2042.22 1531.6 Q2042.22 1540.33 2039.14 1544.94 Q2036.09 1549.52 2030.28 1549.52 Q2024.47 1549.52 2021.39 1544.94 Q2018.33 1540.33 2018.33 1531.6 Q2018.33 1522.85 2021.39 1518.27 Q2024.47 1513.66 2030.28 1513.66 Z" fill="#000000" fill-rule="nonzero" fill-opacity="1"></path><polyline clip-path="url(#clip962)" style="stroke:#000000; stroke-linecap:round; stroke-linejoin:round; stroke-width:2; stroke-opacity:0.1; fill:none" points="264.287,1381.16 2352.76,1381.16 "></polyline>
<polyline clip-path="url(#clip962)" style="stroke:#000000; stroke-linecap:round; stroke-linejoin:round; stroke-width:2; stroke-opacity:0.1; fill:none" points="264.287,1188.31 2352.76,1188.31 "></polyline>
<polyline clip-path="url(#clip962)" style="stroke:#000000; stroke-linecap:round; stroke-linejoin:round; stroke-width:2; stroke-opacity:0.1; fill:none" points="264.287,995.458 2352.76,995.458 "></polyline>
<polyline clip-path="url(#clip962)" style="stroke:#000000; stroke-linecap:round; stroke-linejoin:round; stroke-width:2; stroke-opacity:0.1; fill:none" points="264.287,802.608 2352.76,802.608 "></polyline>
<polyline clip-path="url(#clip962)" style="stroke:#000000; stroke-linecap:round; stroke-linejoin:round; stroke-width:2; stroke-opacity:0.1; fill:none" points="264.287,609.758 2352.76,609.758 "></polyline>
<polyline clip-path="url(#clip962)" style="stroke:#000000; stroke-linecap:round; stroke-linejoin:round; stroke-width:2; stroke-opacity:0.1; fill:none" points="264.287,416.907 2352.76,416.907 "></polyline>
<polyline clip-path="url(#clip962)" style="stroke:#000000; stroke-linecap:round; stroke-linejoin:round; stroke-width:2; stroke-opacity:0.1; fill:none" points="264.287,224.057 2352.76,224.057 "></polyline>
<polyline clip-path="url(#clip960)" style="stroke:#000000; stroke-linecap:round; stroke-linejoin:round; stroke-width:4; stroke-opacity:1; fill:none" points="264.287,1486.45 264.287,123.472 "></polyline>
<polyline clip-path="url(#clip960)" style="stroke:#000000; stroke-linecap:round; stroke-linejoin:round; stroke-width:4; stroke-opacity:1; fill:none" points="264.287,1381.16 283.185,1381.16 "></polyline>
<polyline clip-path="url(#clip960)" style="stroke:#000000; stroke-linecap:round; stroke-linejoin:round; stroke-width:4; stroke-opacity:1; fill:none" points="264.287,1188.31 283.185,1188.31 "></polyline>
<polyline clip-path="url(#clip960)" style="stroke:#000000; stroke-linecap:round; stroke-linejoin:round; stroke-width:4; stroke-opacity:1; fill:none" points="264.287,995.458 283.185,995.458 "></polyline>
<polyline clip-path="url(#clip960)" style="stroke:#000000; stroke-linecap:round; stroke-linejoin:round; stroke-width:4; stroke-opacity:1; fill:none" points="264.287,802.608 283.185,802.608 "></polyline>
<polyline clip-path="url(#clip960)" style="stroke:#000000; stroke-linecap:round; stroke-linejoin:round; stroke-width:4; stroke-opacity:1; fill:none" points="264.287,609.758 283.185,609.758 "></polyline>
<polyline clip-path="url(#clip960)" style="stroke:#000000; stroke-linecap:round; stroke-linejoin:round; stroke-width:4; stroke-opacity:1; fill:none" points="264.287,416.907 283.185,416.907 "></polyline>
<polyline clip-path="url(#clip960)" style="stroke:#000000; stroke-linecap:round; stroke-linejoin:round; stroke-width:4; stroke-opacity:1; fill:none" points="264.287,224.057 283.185,224.057 "></polyline>
<path clip-path="url(#clip960)" d="M119.885 1394.5 L136.204 1394.5 L136.204 1398.44 L114.26 1398.44 L114.26 1394.5 Q116.922 1391.75 121.505 1387.12 Q126.112 1382.47 127.292 1381.12 Q129.538 1378.6 130.417 1376.87 Q131.32 1375.11 131.32 1373.42 Q131.32 1370.66 129.376 1368.93 Q127.455 1367.19 124.353 1367.19 Q122.154 1367.19 119.7 1367.95 Q117.269 1368.72 114.492 1370.27 L114.492 1365.55 Q117.316 1364.41 119.769 1363.83 Q122.223 1363.25 124.26 1363.25 Q129.63 1363.25 132.825 1365.94 Q136.019 1368.62 136.019 1373.12 Q136.019 1375.24 135.209 1377.17 Q134.422 1379.06 132.316 1381.66 Q131.737 1382.33 128.635 1385.55 Q125.533 1388.74 119.885 1394.5 Z" fill="#000000" fill-rule="nonzero" fill-opacity="1"></path><path clip-path="url(#clip960)" d="M150.047 1394.5 L166.366 1394.5 L166.366 1398.44 L144.422 1398.44 L144.422 1394.5 Q147.084 1391.75 151.667 1387.12 Q156.274 1382.47 157.454 1381.12 Q159.7 1378.6 160.579 1376.87 Q161.482 1375.11 161.482 1373.42 Q161.482 1370.66 159.538 1368.93 Q157.616 1367.19 154.515 1367.19 Q152.316 1367.19 149.862 1367.95 Q147.431 1368.72 144.654 1370.27 L144.654 1365.55 Q147.478 1364.41 149.931 1363.83 Q152.385 1363.25 154.422 1363.25 Q159.792 1363.25 162.987 1365.94 Q166.181 1368.62 166.181 1373.12 Q166.181 1375.24 165.371 1377.17 Q164.584 1379.06 162.477 1381.66 Q161.899 1382.33 158.797 1385.55 Q155.695 1388.74 150.047 1394.5 Z" fill="#000000" fill-rule="nonzero" fill-opacity="1"></path><path clip-path="url(#clip960)" d="M186.181 1366.96 Q182.57 1366.96 180.741 1370.52 Q178.936 1374.06 178.936 1381.19 Q178.936 1388.3 180.741 1391.87 Q182.57 1395.41 186.181 1395.41 Q189.815 1395.41 191.621 1391.87 Q193.45 1388.3 193.45 1381.19 Q193.45 1374.06 191.621 1370.52 Q189.815 1366.96 186.181 1366.96 M186.181 1363.25 Q191.991 1363.25 195.047 1367.86 Q198.125 1372.44 198.125 1381.19 Q198.125 1389.92 195.047 1394.53 Q191.991 1399.11 186.181 1399.11 Q180.371 1399.11 177.292 1394.53 Q174.237 1389.92 174.237 1381.19 Q174.237 1372.44 177.292 1367.86 Q180.371 1363.25 186.181 1363.25 Z" fill="#000000" fill-rule="nonzero" fill-opacity="1"></path><path clip-path="url(#clip960)" d="M216.343 1366.96 Q212.732 1366.96 210.903 1370.52 Q209.098 1374.06 209.098 1381.19 Q209.098 1388.3 210.903 1391.87 Q212.732 1395.41 216.343 1395.41 Q219.977 1395.41 221.783 1391.87 Q223.611 1388.3 223.611 1381.19 Q223.611 1374.06 221.783 1370.52 Q219.977 1366.96 216.343 1366.96 M216.343 1363.25 Q222.153 1363.25 225.209 1367.86 Q228.287 1372.44 228.287 1381.19 Q228.287 1389.92 225.209 1394.53 Q222.153 1399.11 216.343 1399.11 Q210.533 1399.11 207.454 1394.53 Q204.399 1389.92 204.399 1381.19 Q204.399 1372.44 207.454 1367.86 Q210.533 1363.25 216.343 1363.25 Z" fill="#000000" fill-rule="nonzero" fill-opacity="1"></path><path clip-path="url(#clip960)" d="M119.885 1201.65 L136.204 1201.65 L136.204 1205.59 L114.26 1205.59 L114.26 1201.65 Q116.922 1198.9 121.505 1194.27 Q126.112 1189.62 127.292 1188.27 Q129.538 1185.75 130.417 1184.01 Q131.32 1182.26 131.32 1180.57 Q131.32 1177.81 129.376 1176.08 Q127.455 1174.34 124.353 1174.34 Q122.154 1174.34 119.7 1175.1 Q117.269 1175.87 114.492 1177.42 L114.492 1172.7 Q117.316 1171.56 119.769 1170.98 Q122.223 1170.4 124.26 1170.4 Q129.63 1170.4 132.825 1173.09 Q136.019 1175.77 136.019 1180.26 Q136.019 1182.39 135.209 1184.32 Q134.422 1186.21 132.316 1188.81 Q131.737 1189.48 128.635 1192.7 Q125.533 1195.89 119.885 1201.65 Z" fill="#000000" fill-rule="nonzero" fill-opacity="1"></path><path clip-path="url(#clip960)" d="M158.866 1175.1 L147.061 1193.55 L158.866 1193.55 L158.866 1175.1 M157.64 1171.03 L163.519 1171.03 L163.519 1193.55 L168.45 1193.55 L168.45 1197.44 L163.519 1197.44 L163.519 1205.59 L158.866 1205.59 L158.866 1197.44 L143.265 1197.44 L143.265 1192.93 L157.64 1171.03 Z" fill="#000000" fill-rule="nonzero" fill-opacity="1"></path><path clip-path="url(#clip960)" d="M186.181 1174.11 Q182.57 1174.11 180.741 1177.67 Q178.936 1181.21 178.936 1188.34 Q178.936 1195.45 180.741 1199.01 Q182.57 1202.56 186.181 1202.56 Q189.815 1202.56 191.621 1199.01 Q193.45 1195.45 193.45 1188.34 Q193.45 1181.21 191.621 1177.67 Q189.815 1174.11 186.181 1174.11 M186.181 1170.4 Q191.991 1170.4 195.047 1175.01 Q198.125 1179.59 198.125 1188.34 Q198.125 1197.07 195.047 1201.68 Q191.991 1206.26 186.181 1206.26 Q180.371 1206.26 177.292 1201.68 Q174.237 1197.07 174.237 1188.34 Q174.237 1179.59 177.292 1175.01 Q180.371 1170.4 186.181 1170.4 Z" fill="#000000" fill-rule="nonzero" fill-opacity="1"></path><path clip-path="url(#clip960)" d="M216.343 1174.11 Q212.732 1174.11 210.903 1177.67 Q209.098 1181.21 209.098 1188.34 Q209.098 1195.45 210.903 1199.01 Q212.732 1202.56 216.343 1202.56 Q219.977 1202.56 221.783 1199.01 Q223.611 1195.45 223.611 1188.34 Q223.611 1181.21 221.783 1177.67 Q219.977 1174.11 216.343 1174.11 M216.343 1170.4 Q222.153 1170.4 225.209 1175.01 Q228.287 1179.59 228.287 1188.34 Q228.287 1197.07 225.209 1201.68 Q222.153 1206.26 216.343 1206.26 Q210.533 1206.26 207.454 1201.68 Q204.399 1197.07 204.399 1188.34 Q204.399 1179.59 207.454 1175.01 Q210.533 1170.4 216.343 1170.4 Z" fill="#000000" fill-rule="nonzero" fill-opacity="1"></path><path clip-path="url(#clip960)" d="M119.885 1008.8 L136.204 1008.8 L136.204 1012.74 L114.26 1012.74 L114.26 1008.8 Q116.922 1006.05 121.505 1001.42 Q126.112 996.766 127.292 995.424 Q129.538 992.901 130.417 991.165 Q131.32 989.405 131.32 987.715 Q131.32 984.961 129.376 983.225 Q127.455 981.489 124.353 981.489 Q122.154 981.489 119.7 982.253 Q117.269 983.016 114.492 984.567 L114.492 979.845 Q117.316 978.711 119.769 978.132 Q122.223 977.553 124.26 977.553 Q129.63 977.553 132.825 980.239 Q136.019 982.924 136.019 987.415 Q136.019 989.544 135.209 991.465 Q134.422 993.364 132.316 995.956 Q131.737 996.627 128.635 999.845 Q125.533 1003.04 119.885 1008.8 Z" fill="#000000" fill-rule="nonzero" fill-opacity="1"></path><path clip-path="url(#clip960)" d="M156.598 993.595 Q153.45 993.595 151.598 995.748 Q149.769 997.901 149.769 1001.65 Q149.769 1005.38 151.598 1007.55 Q153.45 1009.71 156.598 1009.71 Q159.746 1009.71 161.575 1007.55 Q163.427 1005.38 163.427 1001.65 Q163.427 997.901 161.575 995.748 Q159.746 993.595 156.598 993.595 M165.88 978.942 L165.88 983.202 Q164.121 982.368 162.315 981.928 Q160.533 981.489 158.774 981.489 Q154.144 981.489 151.691 984.614 Q149.26 987.739 148.913 994.058 Q150.278 992.044 152.339 990.979 Q154.399 989.891 156.876 989.891 Q162.084 989.891 165.093 993.063 Q168.126 996.211 168.126 1001.65 Q168.126 1006.97 164.977 1010.19 Q161.829 1013.41 156.598 1013.41 Q150.603 1013.41 147.431 1008.83 Q144.26 1004.22 144.26 995.493 Q144.26 987.299 148.149 982.438 Q152.038 977.553 158.589 977.553 Q160.348 977.553 162.13 977.901 Q163.936 978.248 165.88 978.942 Z" fill="#000000" fill-rule="nonzero" fill-opacity="1"></path><path clip-path="url(#clip960)" d="M186.181 981.257 Q182.57 981.257 180.741 984.822 Q178.936 988.364 178.936 995.493 Q178.936 1002.6 180.741 1006.16 Q182.57 1009.71 186.181 1009.71 Q189.815 1009.71 191.621 1006.16 Q193.45 1002.6 193.45 995.493 Q193.45 988.364 191.621 984.822 Q189.815 981.257 186.181 981.257 M186.181 977.553 Q191.991 977.553 195.047 982.16 Q198.125 986.743 198.125 995.493 Q198.125 1004.22 195.047 1008.83 Q191.991 1013.41 186.181 1013.41 Q180.371 1013.41 177.292 1008.83 Q174.237 1004.22 174.237 995.493 Q174.237 986.743 177.292 982.16 Q180.371 977.553 186.181 977.553 Z" fill="#000000" fill-rule="nonzero" fill-opacity="1"></path><path clip-path="url(#clip960)" d="M216.343 981.257 Q212.732 981.257 210.903 984.822 Q209.098 988.364 209.098 995.493 Q209.098 1002.6 210.903 1006.16 Q212.732 1009.71 216.343 1009.71 Q219.977 1009.71 221.783 1006.16 Q223.611 1002.6 223.611 995.493 Q223.611 988.364 221.783 984.822 Q219.977 981.257 216.343 981.257 M216.343 977.553 Q222.153 977.553 225.209 982.16 Q228.287 986.743 228.287 995.493 Q228.287 1004.22 225.209 1008.83 Q222.153 1013.41 216.343 1013.41 Q210.533 1013.41 207.454 1008.83 Q204.399 1004.22 204.399 995.493 Q204.399 986.743 207.454 982.16 Q210.533 977.553 216.343 977.553 Z" fill="#000000" fill-rule="nonzero" fill-opacity="1"></path><path clip-path="url(#clip960)" d="M119.885 815.953 L136.204 815.953 L136.204 819.888 L114.26 819.888 L114.26 815.953 Q116.922 813.198 121.505 808.569 Q126.112 803.916 127.292 802.573 Q129.538 800.05 130.417 798.314 Q131.32 796.555 131.32 794.865 Q131.32 792.11 129.376 790.374 Q127.455 788.638 124.353 788.638 Q122.154 788.638 119.7 789.402 Q117.269 790.166 114.492 791.717 L114.492 786.995 Q117.316 785.861 119.769 785.282 Q122.223 784.703 124.26 784.703 Q129.63 784.703 132.825 787.388 Q136.019 790.073 136.019 794.564 Q136.019 796.694 135.209 798.615 Q134.422 800.513 132.316 803.106 Q131.737 803.777 128.635 806.995 Q125.533 810.189 119.885 815.953 Z" fill="#000000" fill-rule="nonzero" fill-opacity="1"></path><path clip-path="url(#clip960)" d="M156.019 803.476 Q152.686 803.476 150.765 805.259 Q148.866 807.041 148.866 810.166 Q148.866 813.291 150.765 815.073 Q152.686 816.856 156.019 816.856 Q159.353 816.856 161.274 815.073 Q163.195 813.268 163.195 810.166 Q163.195 807.041 161.274 805.259 Q159.376 803.476 156.019 803.476 M151.343 801.485 Q148.334 800.745 146.644 798.685 Q144.978 796.624 144.978 793.661 Q144.978 789.518 147.917 787.111 Q150.88 784.703 156.019 784.703 Q161.181 784.703 164.121 787.111 Q167.061 789.518 167.061 793.661 Q167.061 796.624 165.371 798.685 Q163.704 800.745 160.718 801.485 Q164.098 802.272 165.973 804.564 Q167.871 806.856 167.871 810.166 Q167.871 815.189 164.792 817.874 Q161.737 820.559 156.019 820.559 Q150.302 820.559 147.223 817.874 Q144.167 815.189 144.167 810.166 Q144.167 806.856 146.066 804.564 Q147.964 802.272 151.343 801.485 M149.63 794.101 Q149.63 796.786 151.297 798.291 Q152.987 799.796 156.019 799.796 Q159.028 799.796 160.718 798.291 Q162.431 796.786 162.431 794.101 Q162.431 791.416 160.718 789.911 Q159.028 788.407 156.019 788.407 Q152.987 788.407 151.297 789.911 Q149.63 791.416 149.63 794.101 Z" fill="#000000" fill-rule="nonzero" fill-opacity="1"></path><path clip-path="url(#clip960)" d="M186.181 788.407 Q182.57 788.407 180.741 791.972 Q178.936 795.513 178.936 802.643 Q178.936 809.749 180.741 813.314 Q182.57 816.856 186.181 816.856 Q189.815 816.856 191.621 813.314 Q193.45 809.749 193.45 802.643 Q193.45 795.513 191.621 791.972 Q189.815 788.407 186.181 788.407 M186.181 784.703 Q191.991 784.703 195.047 789.31 Q198.125 793.893 198.125 802.643 Q198.125 811.37 195.047 815.976 Q191.991 820.559 186.181 820.559 Q180.371 820.559 177.292 815.976 Q174.237 811.37 174.237 802.643 Q174.237 793.893 177.292 789.31 Q180.371 784.703 186.181 784.703 Z" fill="#000000" fill-rule="nonzero" fill-opacity="1"></path><path clip-path="url(#clip960)" d="M216.343 788.407 Q212.732 788.407 210.903 791.972 Q209.098 795.513 209.098 802.643 Q209.098 809.749 210.903 813.314 Q212.732 816.856 216.343 816.856 Q219.977 816.856 221.783 813.314 Q223.611 809.749 223.611 802.643 Q223.611 795.513 221.783 791.972 Q219.977 788.407 216.343 788.407 M216.343 784.703 Q222.153 784.703 225.209 789.31 Q228.287 793.893 228.287 802.643 Q228.287 811.37 225.209 815.976 Q222.153 820.559 216.343 820.559 Q210.533 820.559 207.454 815.976 Q204.399 811.37 204.399 802.643 Q204.399 793.893 207.454 789.31 Q210.533 784.703 216.343 784.703 Z" fill="#000000" fill-rule="nonzero" fill-opacity="1"></path><path clip-path="url(#clip960)" d="M130.024 608.404 Q133.38 609.121 135.255 611.39 Q137.154 613.658 137.154 616.992 Q137.154 622.107 133.635 624.908 Q130.117 627.709 123.635 627.709 Q121.459 627.709 119.144 627.269 Q116.853 626.853 114.399 625.996 L114.399 621.482 Q116.343 622.616 118.658 623.195 Q120.973 623.774 123.496 623.774 Q127.894 623.774 130.186 622.038 Q132.501 620.302 132.501 616.992 Q132.501 613.936 130.348 612.223 Q128.218 610.487 124.399 610.487 L120.371 610.487 L120.371 606.644 L124.584 606.644 Q128.033 606.644 129.862 605.279 Q131.691 603.89 131.691 601.297 Q131.691 598.635 129.792 597.223 Q127.917 595.788 124.399 595.788 Q122.478 595.788 120.279 596.205 Q118.08 596.621 115.441 597.501 L115.441 593.334 Q118.103 592.594 120.418 592.223 Q122.755 591.853 124.816 591.853 Q130.14 591.853 133.242 594.283 Q136.343 596.691 136.343 600.811 Q136.343 603.681 134.7 605.672 Q133.056 607.64 130.024 608.404 Z" fill="#000000" fill-rule="nonzero" fill-opacity="1"></path><path clip-path="url(#clip960)" d="M156.019 595.556 Q152.408 595.556 150.579 599.121 Q148.774 602.663 148.774 609.792 Q148.774 616.899 150.579 620.464 Q152.408 624.005 156.019 624.005 Q159.653 624.005 161.459 620.464 Q163.288 616.899 163.288 609.792 Q163.288 602.663 161.459 599.121 Q159.653 595.556 156.019 595.556 M156.019 591.853 Q161.829 591.853 164.885 596.459 Q167.964 601.043 167.964 609.792 Q167.964 618.519 164.885 623.126 Q161.829 627.709 156.019 627.709 Q150.209 627.709 147.13 623.126 Q144.075 618.519 144.075 609.792 Q144.075 601.043 147.13 596.459 Q150.209 591.853 156.019 591.853 Z" fill="#000000" fill-rule="nonzero" fill-opacity="1"></path><path clip-path="url(#clip960)" d="M186.181 595.556 Q182.57 595.556 180.741 599.121 Q178.936 602.663 178.936 609.792 Q178.936 616.899 180.741 620.464 Q182.57 624.005 186.181 624.005 Q189.815 624.005 191.621 620.464 Q193.45 616.899 193.45 609.792 Q193.45 602.663 191.621 599.121 Q189.815 595.556 186.181 595.556 M186.181 591.853 Q191.991 591.853 195.047 596.459 Q198.125 601.043 198.125 609.792 Q198.125 618.519 195.047 623.126 Q191.991 627.709 186.181 627.709 Q180.371 627.709 177.292 623.126 Q174.237 618.519 174.237 609.792 Q174.237 601.043 177.292 596.459 Q180.371 591.853 186.181 591.853 Z" fill="#000000" fill-rule="nonzero" fill-opacity="1"></path><path clip-path="url(#clip960)" d="M216.343 595.556 Q212.732 595.556 210.903 599.121 Q209.098 602.663 209.098 609.792 Q209.098 616.899 210.903 620.464 Q212.732 624.005 216.343 624.005 Q219.977 624.005 221.783 620.464 Q223.611 616.899 223.611 609.792 Q223.611 602.663 221.783 599.121 Q219.977 595.556 216.343 595.556 M216.343 591.853 Q222.153 591.853 225.209 596.459 Q228.287 601.043 228.287 609.792 Q228.287 618.519 225.209 623.126 Q222.153 627.709 216.343 627.709 Q210.533 627.709 207.454 623.126 Q204.399 618.519 204.399 609.792 Q204.399 601.043 207.454 596.459 Q210.533 591.853 216.343 591.853 Z" fill="#000000" fill-rule="nonzero" fill-opacity="1"></path><path clip-path="url(#clip960)" d="M130.024 415.553 Q133.38 416.271 135.255 418.539 Q137.154 420.808 137.154 424.141 Q137.154 429.257 133.635 432.058 Q130.117 434.859 123.635 434.859 Q121.459 434.859 119.144 434.419 Q116.853 434.002 114.399 433.146 L114.399 428.632 Q116.343 429.766 118.658 430.345 Q120.973 430.924 123.496 430.924 Q127.894 430.924 130.186 429.187 Q132.501 427.451 132.501 424.141 Q132.501 421.086 130.348 419.373 Q128.218 417.637 124.399 417.637 L120.371 417.637 L120.371 413.794 L124.584 413.794 Q128.033 413.794 129.862 412.428 Q131.691 411.039 131.691 408.447 Q131.691 405.785 129.792 404.373 Q127.917 402.938 124.399 402.938 Q122.478 402.938 120.279 403.354 Q118.08 403.771 115.441 404.651 L115.441 400.484 Q118.103 399.743 120.418 399.373 Q122.755 399.002 124.816 399.002 Q130.14 399.002 133.242 401.433 Q136.343 403.84 136.343 407.961 Q136.343 410.831 134.7 412.822 Q133.056 414.789 130.024 415.553 Z" fill="#000000" fill-rule="nonzero" fill-opacity="1"></path><path clip-path="url(#clip960)" d="M150.047 430.252 L166.366 430.252 L166.366 434.187 L144.422 434.187 L144.422 430.252 Q147.084 427.498 151.667 422.868 Q156.274 418.215 157.454 416.873 Q159.7 414.35 160.579 412.613 Q161.482 410.854 161.482 409.164 Q161.482 406.41 159.538 404.674 Q157.616 402.938 154.515 402.938 Q152.316 402.938 149.862 403.701 Q147.431 404.465 144.654 406.016 L144.654 401.294 Q147.478 400.16 149.931 399.581 Q152.385 399.002 154.422 399.002 Q159.792 399.002 162.987 401.688 Q166.181 404.373 166.181 408.863 Q166.181 410.993 165.371 412.914 Q164.584 414.813 162.477 417.405 Q161.899 418.076 158.797 421.294 Q155.695 424.488 150.047 430.252 Z" fill="#000000" fill-rule="nonzero" fill-opacity="1"></path><path clip-path="url(#clip960)" d="M186.181 402.706 Q182.57 402.706 180.741 406.271 Q178.936 409.813 178.936 416.942 Q178.936 424.049 180.741 427.613 Q182.57 431.155 186.181 431.155 Q189.815 431.155 191.621 427.613 Q193.45 424.049 193.45 416.942 Q193.45 409.813 191.621 406.271 Q189.815 402.706 186.181 402.706 M186.181 399.002 Q191.991 399.002 195.047 403.609 Q198.125 408.192 198.125 416.942 Q198.125 425.669 195.047 430.275 Q191.991 434.859 186.181 434.859 Q180.371 434.859 177.292 430.275 Q174.237 425.669 174.237 416.942 Q174.237 408.192 177.292 403.609 Q180.371 399.002 186.181 399.002 Z" fill="#000000" fill-rule="nonzero" fill-opacity="1"></path><path clip-path="url(#clip960)" d="M216.343 402.706 Q212.732 402.706 210.903 406.271 Q209.098 409.813 209.098 416.942 Q209.098 424.049 210.903 427.613 Q212.732 431.155 216.343 431.155 Q219.977 431.155 221.783 427.613 Q223.611 424.049 223.611 416.942 Q223.611 409.813 221.783 406.271 Q219.977 402.706 216.343 402.706 M216.343 399.002 Q222.153 399.002 225.209 403.609 Q228.287 408.192 228.287 416.942 Q228.287 425.669 225.209 430.275 Q222.153 434.859 216.343 434.859 Q210.533 434.859 207.454 430.275 Q204.399 425.669 204.399 416.942 Q204.399 408.192 207.454 403.609 Q210.533 399.002 216.343 399.002 Z" fill="#000000" fill-rule="nonzero" fill-opacity="1"></path><path clip-path="url(#clip960)" d="M130.024 222.703 Q133.38 223.42 135.255 225.689 Q137.154 227.958 137.154 231.291 Q137.154 236.407 133.635 239.207 Q130.117 242.008 123.635 242.008 Q121.459 242.008 119.144 241.569 Q116.853 241.152 114.399 240.295 L114.399 235.782 Q116.343 236.916 118.658 237.494 Q120.973 238.073 123.496 238.073 Q127.894 238.073 130.186 236.337 Q132.501 234.601 132.501 231.291 Q132.501 228.235 130.348 226.522 Q128.218 224.786 124.399 224.786 L120.371 224.786 L120.371 220.944 L124.584 220.944 Q128.033 220.944 129.862 219.578 Q131.691 218.189 131.691 215.596 Q131.691 212.934 129.792 211.522 Q127.917 210.087 124.399 210.087 Q122.478 210.087 120.279 210.504 Q118.08 210.921 115.441 211.8 L115.441 207.634 Q118.103 206.893 120.418 206.522 Q122.755 206.152 124.816 206.152 Q130.14 206.152 133.242 208.583 Q136.343 210.99 136.343 215.11 Q136.343 217.981 134.7 219.971 Q133.056 221.939 130.024 222.703 Z" fill="#000000" fill-rule="nonzero" fill-opacity="1"></path><path clip-path="url(#clip960)" d="M158.866 210.851 L147.061 229.3 L158.866 229.3 L158.866 210.851 M157.64 206.777 L163.519 206.777 L163.519 229.3 L168.45 229.3 L168.45 233.189 L163.519 233.189 L163.519 241.337 L158.866 241.337 L158.866 233.189 L143.265 233.189 L143.265 228.675 L157.64 206.777 Z" fill="#000000" fill-rule="nonzero" fill-opacity="1"></path><path clip-path="url(#clip960)" d="M186.181 209.856 Q182.57 209.856 180.741 213.421 Q178.936 216.962 178.936 224.092 Q178.936 231.198 180.741 234.763 Q182.57 238.305 186.181 238.305 Q189.815 238.305 191.621 234.763 Q193.45 231.198 193.45 224.092 Q193.45 216.962 191.621 213.421 Q189.815 209.856 186.181 209.856 M186.181 206.152 Q191.991 206.152 195.047 210.759 Q198.125 215.342 198.125 224.092 Q198.125 232.819 195.047 237.425 Q191.991 242.008 186.181 242.008 Q180.371 242.008 177.292 237.425 Q174.237 232.819 174.237 224.092 Q174.237 215.342 177.292 210.759 Q180.371 206.152 186.181 206.152 Z" fill="#000000" fill-rule="nonzero" fill-opacity="1"></path><path clip-path="url(#clip960)" d="M216.343 209.856 Q212.732 209.856 210.903 213.421 Q209.098 216.962 209.098 224.092 Q209.098 231.198 210.903 234.763 Q212.732 238.305 216.343 238.305 Q219.977 238.305 221.783 234.763 Q223.611 231.198 223.611 224.092 Q223.611 216.962 221.783 213.421 Q219.977 209.856 216.343 209.856 M216.343 206.152 Q222.153 206.152 225.209 210.759 Q228.287 215.342 228.287 224.092 Q228.287 232.819 225.209 237.425 Q222.153 242.008 216.343 242.008 Q210.533 242.008 207.454 237.425 Q204.399 232.819 204.399 224.092 Q204.399 215.342 207.454 210.759 Q210.533 206.152 216.343 206.152 Z" fill="#000000" fill-rule="nonzero" fill-opacity="1"></path><path clip-path="url(#clip960)" d="M16.4842 1105.34 L16.4842 1075.3 L21.895 1075.3 L21.895 1098.91 L35.9632 1098.91 L35.9632 1076.28 L41.3741 1076.28 L41.3741 1098.91 L58.5933 1098.91 L58.5933 1074.72 L64.0042 1074.72 L64.0042 1105.34 L16.4842 1105.34 Z" fill="#000000" fill-rule="nonzero" fill-opacity="1"></path><path clip-path="url(#clip960)" d="M14.479 1064.41 L14.479 1058.55 L64.0042 1058.55 L64.0042 1064.41 L14.479 1064.41 Z" fill="#000000" fill-rule="nonzero" fill-opacity="1"></path><path clip-path="url(#clip960)" d="M44.7161 1015.81 L47.5806 1015.81 L47.5806 1042.74 Q53.6281 1042.35 56.8109 1039.11 Q59.9619 1035.83 59.9619 1030 Q59.9619 1026.63 59.1344 1023.48 Q58.3069 1020.3 56.6518 1017.18 L62.1899 1017.18 Q63.5267 1020.33 64.227 1023.64 Q64.9272 1026.95 64.9272 1030.35 Q64.9272 1038.88 59.9619 1043.88 Q54.9967 1048.85 46.5303 1048.85 Q37.7774 1048.85 32.6531 1044.14 Q27.4968 1039.39 27.4968 1031.37 Q27.4968 1024.18 32.1438 1020.01 Q36.7589 1015.81 44.7161 1015.81 M42.9973 1021.66 Q38.1912 1021.73 35.3266 1024.37 Q32.4621 1026.98 32.4621 1031.31 Q32.4621 1036.21 35.2312 1039.17 Q38.0002 1042.1 43.0292 1042.54 L42.9973 1021.66 Z" fill="#000000" fill-rule="nonzero" fill-opacity="1"></path><path clip-path="url(#clip960)" d="M28.3562 1010.4 L28.3562 1004.19 L58.275 993.051 L28.3562 981.911 L28.3562 975.704 L64.0042 989.072 L64.0042 997.029 L28.3562 1010.4 Z" fill="#000000" fill-rule="nonzero" fill-opacity="1"></path><path clip-path="url(#clip960)" d="M46.0847 951.419 Q46.0847 958.517 47.7079 961.254 Q49.3312 963.991 53.2461 963.991 Q56.3653 963.991 58.2114 961.954 Q60.0256 959.885 60.0256 956.352 Q60.0256 951.483 56.5881 948.554 Q53.1188 945.594 47.3897 945.594 L46.0847 945.594 L46.0847 951.419 M43.6657 939.738 L64.0042 939.738 L64.0042 945.594 L58.5933 945.594 Q61.8398 947.6 63.3994 950.591 Q64.9272 953.583 64.9272 957.912 Q64.9272 963.387 61.8716 966.633 Q58.7843 969.848 53.6281 969.848 Q47.6125 969.848 44.5569 965.837 Q41.5014 961.795 41.5014 953.806 L41.5014 945.594 L40.9285 945.594 Q36.8862 945.594 34.6901 948.268 Q32.4621 950.91 32.4621 955.716 Q32.4621 958.771 33.1941 961.668 Q33.9262 964.564 35.3903 967.238 L29.9795 967.238 Q28.7381 964.023 28.1334 960.999 Q27.4968 957.976 27.4968 955.111 Q27.4968 947.377 31.5072 943.557 Q35.5176 939.738 43.6657 939.738 Z" fill="#000000" fill-rule="nonzero" fill-opacity="1"></path><path clip-path="url(#clip960)" d="M18.2347 921.882 L28.3562 921.882 L28.3562 909.819 L32.9077 909.819 L32.9077 921.882 L52.2594 921.882 Q56.6199 921.882 57.8613 920.704 Q59.1026 919.495 59.1026 915.835 L59.1026 909.819 L64.0042 909.819 L64.0042 915.835 Q64.0042 922.614 61.4897 925.192 Q58.9434 927.77 52.2594 927.77 L32.9077 927.77 L32.9077 932.067 L28.3562 932.067 L28.3562 927.77 L18.2347 927.77 L18.2347 921.882 Z" fill="#000000" fill-rule="nonzero" fill-opacity="1"></path><path clip-path="url(#clip960)" d="M28.3562 902.117 L28.3562 896.26 L64.0042 896.26 L64.0042 902.117 L28.3562 902.117 M14.479 902.117 L14.479 896.26 L21.895 896.26 L21.895 902.117 L14.479 902.117 Z" fill="#000000" fill-rule="nonzero" fill-opacity="1"></path><path clip-path="url(#clip960)" d="M32.4621 870.193 Q32.4621 874.903 36.1542 877.64 Q39.8145 880.378 46.212 880.378 Q52.6095 880.378 56.3017 877.672 Q59.9619 874.935 59.9619 870.193 Q59.9619 865.514 56.2698 862.777 Q52.5777 860.039 46.212 860.039 Q39.8781 860.039 36.186 862.777 Q32.4621 865.514 32.4621 870.193 M27.4968 870.193 Q27.4968 862.554 32.4621 858.193 Q37.4273 853.833 46.212 853.833 Q54.9649 853.833 59.9619 858.193 Q64.9272 862.554 64.9272 870.193 Q64.9272 877.863 59.9619 882.224 Q54.9649 886.552 46.212 886.552 Q37.4273 886.552 32.4621 882.224 Q27.4968 877.863 27.4968 870.193 Z" fill="#000000" fill-rule="nonzero" fill-opacity="1"></path><path clip-path="url(#clip960)" d="M42.4881 814.493 L64.0042 814.493 L64.0042 820.349 L42.679 820.349 Q37.6183 820.349 35.1038 822.322 Q32.5894 824.296 32.5894 828.243 Q32.5894 832.985 35.6131 835.722 Q38.6368 838.46 43.8567 838.46 L64.0042 838.46 L64.0042 844.348 L28.3562 844.348 L28.3562 838.46 L33.8944 838.46 Q30.6797 836.359 29.0883 833.526 Q27.4968 830.662 27.4968 826.938 Q27.4968 820.795 31.3163 817.644 Q35.1038 814.493 42.4881 814.493 Z" fill="#000000" fill-rule="nonzero" fill-opacity="1"></path><path clip-path="url(#clip960)" d="M14.5426 768.023 Q21.8632 772.288 29.0246 774.357 Q36.186 776.426 43.5384 776.426 Q50.8908 776.426 58.1159 774.357 Q65.3091 772.256 72.5979 768.023 L72.5979 773.116 Q65.1182 777.89 57.8931 780.277 Q50.668 782.632 43.5384 782.632 Q36.4406 782.632 29.2474 780.277 Q22.0542 777.922 14.5426 773.116 L14.5426 768.023 Z" fill="#000000" fill-rule="nonzero" fill-opacity="1"></path><path clip-path="url(#clip960)" d="M35.1993 728.906 Q31.2526 726.71 29.3747 723.654 Q27.4968 720.598 27.4968 716.461 Q27.4968 710.891 31.4117 707.867 Q35.2948 704.843 42.4881 704.843 L64.0042 704.843 L64.0042 710.732 L42.679 710.732 Q37.5546 710.732 35.072 712.546 Q32.5894 714.36 32.5894 718.084 Q32.5894 722.635 35.6131 725.277 Q38.6368 727.919 43.8567 727.919 L64.0042 727.919 L64.0042 733.807 L42.679 733.807 Q37.5228 733.807 35.072 735.622 Q32.5894 737.436 32.5894 741.223 Q32.5894 745.711 35.6449 748.353 Q38.6686 750.995 43.8567 750.995 L64.0042 750.995 L64.0042 756.883 L28.3562 756.883 L28.3562 750.995 L33.8944 750.995 Q30.616 748.99 29.0564 746.189 Q27.4968 743.388 27.4968 739.536 Q27.4968 735.653 29.4702 732.948 Q31.4436 730.211 35.1993 728.906 Z" fill="#000000" fill-rule="nonzero" fill-opacity="1"></path><path clip-path="url(#clip960)" d="M55.9197 692.335 L55.9197 685.619 L64.0042 685.619 L64.0042 692.335 L55.9197 692.335 Z" fill="#000000" fill-rule="nonzero" fill-opacity="1"></path><path clip-path="url(#clip960)" d="M46.0847 656.241 Q46.0847 663.339 47.7079 666.076 Q49.3312 668.813 53.2461 668.813 Q56.3653 668.813 58.2114 666.776 Q60.0256 664.708 60.0256 661.175 Q60.0256 656.305 56.5881 653.377 Q53.1188 650.417 47.3897 650.417 L46.0847 650.417 L46.0847 656.241 M43.6657 644.56 L64.0042 644.56 L64.0042 650.417 L58.5933 650.417 Q61.8398 652.422 63.3994 655.414 Q64.9272 658.406 64.9272 662.734 Q64.9272 668.209 61.8716 671.455 Q58.7843 674.67 53.6281 674.67 Q47.6125 674.67 44.5569 670.66 Q41.5014 666.617 41.5014 658.628 L41.5014 650.417 L40.9285 650.417 Q36.8862 650.417 34.6901 653.09 Q32.4621 655.732 32.4621 660.538 Q32.4621 663.594 33.1941 666.49 Q33.9262 669.386 35.3903 672.06 L29.9795 672.06 Q28.7381 668.845 28.1334 665.822 Q27.4968 662.798 27.4968 659.933 Q27.4968 652.199 31.5072 648.38 Q35.5176 644.56 43.6657 644.56 Z" fill="#000000" fill-rule="nonzero" fill-opacity="1"></path><path clip-path="url(#clip960)" d="M55.9197 631.67 L55.9197 624.954 L64.0042 624.954 L64.0042 631.67 L55.9197 631.67 Z" fill="#000000" fill-rule="nonzero" fill-opacity="1"></path><path clip-path="url(#clip960)" d="M29.4065 589.051 L34.9447 589.051 Q33.6716 591.534 33.035 594.207 Q32.3984 596.881 32.3984 599.746 Q32.3984 604.106 33.7352 606.302 Q35.072 608.467 37.7456 608.467 Q39.7826 608.467 40.9603 606.907 Q42.1061 605.347 43.1565 600.637 L43.6021 598.632 Q44.9389 592.393 47.3897 589.783 Q49.8086 587.141 54.1691 587.141 Q59.1344 587.141 62.0308 591.088 Q64.9272 595.003 64.9272 601.878 Q64.9272 604.743 64.3543 607.862 Q63.8132 610.949 62.6992 614.387 L56.6518 614.387 Q58.3387 611.14 59.198 607.989 Q60.0256 604.838 60.0256 601.751 Q60.0256 597.613 58.6251 595.385 Q57.1929 593.157 54.6147 593.157 Q52.2276 593.157 50.9545 594.78 Q49.6813 596.372 48.5037 601.814 L48.0262 603.851 Q46.8804 609.294 44.5251 611.713 Q42.138 614.132 38.0002 614.132 Q32.9713 614.132 30.2341 610.567 Q27.4968 607.002 27.4968 600.446 Q27.4968 597.199 27.9743 594.335 Q28.4517 591.47 29.4065 589.051 Z" fill="#000000" fill-rule="nonzero" fill-opacity="1"></path><path clip-path="url(#clip960)" d="M55.9197 576.988 L55.9197 570.272 L64.0042 570.272 L64.0042 576.988 L55.9197 576.988 Z" fill="#000000" fill-rule="nonzero" fill-opacity="1"></path><path clip-path="url(#clip960)" d="M14.479 557.095 L14.479 551.239 L64.0042 551.239 L64.0042 557.095 L14.479 557.095 Z" fill="#000000" fill-rule="nonzero" fill-opacity="1"></path><path clip-path="url(#clip960)" d="M55.9197 538.157 L55.9197 531.442 L64.0042 531.442 L64.0042 538.157 L55.9197 538.157 Z" fill="#000000" fill-rule="nonzero" fill-opacity="1"></path><path clip-path="url(#clip960)" d="M14.5426 519.188 L14.5426 514.095 Q22.0542 509.321 29.2474 506.965 Q36.4406 504.578 43.5384 504.578 Q50.668 504.578 57.8931 506.965 Q65.1182 509.321 72.5979 514.095 L72.5979 519.188 Q65.3091 514.954 58.1159 512.885 Q50.8908 510.785 43.5384 510.785 Q36.186 510.785 29.0246 512.885 Q21.8632 514.954 14.5426 519.188 Z" fill="#000000" fill-rule="nonzero" fill-opacity="1"></path><path clip-path="url(#clip960)" d="M664.914 12.096 L699.671 12.096 L699.671 18.9825 L673.097 18.9825 L673.097 36.8065 L697.078 36.8065 L697.078 43.6931 L673.097 43.6931 L673.097 72.576 L664.914 72.576 L664.914 12.096 Z" fill="#000000" fill-rule="nonzero" fill-opacity="1"></path><path clip-path="url(#clip960)" d="M732.564 34.1734 Q731.308 33.4443 729.809 33.1202 Q728.351 32.7556 726.569 32.7556 Q720.249 32.7556 716.847 36.8875 Q713.484 40.9789 713.484 48.6757 L713.484 72.576 L705.99 72.576 L705.99 27.2059 L713.484 27.2059 L713.484 34.2544 Q715.834 30.1225 719.601 28.1376 Q723.369 26.1121 728.756 26.1121 Q729.526 26.1121 730.458 26.2337 Q731.389 26.3147 732.524 26.5172 L732.564 34.1734 Z" fill="#000000" fill-rule="nonzero" fill-opacity="1"></path><path clip-path="url(#clip960)" d="M763.918 19.2256 L743.258 51.5113 L763.918 51.5113 L763.918 19.2256 M761.771 12.096 L772.06 12.096 L772.06 51.5113 L780.689 51.5113 L780.689 58.3168 L772.06 58.3168 L772.06 72.576 L763.918 72.576 L763.918 58.3168 L736.615 58.3168 L736.615 50.4176 L761.771 12.096 Z" fill="#000000" fill-rule="nonzero" fill-opacity="1"></path><path clip-path="url(#clip960)" d="M793.49 12.096 L804.508 12.096 L831.325 62.6918 L831.325 12.096 L839.265 12.096 L839.265 72.576 L828.246 72.576 L801.429 21.9802 L801.429 72.576 L793.49 72.576 L793.49 12.096 Z" fill="#000000" fill-rule="nonzero" fill-opacity="1"></path><path clip-path="url(#clip960)" d="M873.779 17.4837 Q867.459 17.4837 864.259 23.7221 Q861.099 29.92 861.099 42.3968 Q861.099 54.833 864.259 61.0714 Q867.459 67.2693 873.779 67.2693 Q880.138 67.2693 883.298 61.0714 Q886.498 54.833 886.498 42.3968 Q886.498 29.92 883.298 23.7221 Q880.138 17.4837 873.779 17.4837 M873.779 11.0023 Q883.946 11.0023 889.294 19.0636 Q894.681 27.0843 894.681 42.3968 Q894.681 57.6687 889.294 65.73 Q883.946 73.7508 873.779 73.7508 Q863.611 73.7508 858.223 65.73 Q852.876 57.6687 852.876 42.3968 Q852.876 27.0843 858.223 19.0636 Q863.611 11.0023 873.779 11.0023 Z" fill="#000000" fill-rule="nonzero" fill-opacity="1"></path><path clip-path="url(#clip960)" d="M910.48 65.6895 L923.848 65.6895 L923.848 19.5497 L909.305 22.4663 L909.305 15.0127 L923.767 12.096 L931.95 12.096 L931.95 65.6895 L945.318 65.6895 L945.318 72.576 L910.48 72.576 L910.48 65.6895 Z" fill="#000000" fill-rule="nonzero" fill-opacity="1"></path><path clip-path="url(#clip960)" d="M963.263 65.6895 L976.631 65.6895 L976.631 19.5497 L962.088 22.4663 L962.088 15.0127 L976.55 12.096 L984.733 12.096 L984.733 65.6895 L998.101 65.6895 L998.101 72.576 L963.263 72.576 L963.263 65.6895 Z" fill="#000000" fill-rule="nonzero" fill-opacity="1"></path><path clip-path="url(#clip960)" d="M1037.11 19.2256 L1016.45 51.5113 L1037.11 51.5113 L1037.11 19.2256 M1034.96 12.096 L1045.25 12.096 L1045.25 51.5113 L1053.88 51.5113 L1053.88 58.3168 L1045.25 58.3168 L1045.25 72.576 L1037.11 72.576 L1037.11 58.3168 L1009.81 58.3168 L1009.81 50.4176 L1034.96 12.096 Z" fill="#000000" fill-rule="nonzero" fill-opacity="1"></path><path clip-path="url(#clip960)" d="M1085.92 39.075 Q1080.42 39.075 1077.17 42.8424 Q1073.97 46.6097 1073.97 53.1722 Q1073.97 59.6941 1077.17 63.502 Q1080.42 67.2693 1085.92 67.2693 Q1091.43 67.2693 1094.63 63.502 Q1097.87 59.6941 1097.87 53.1722 Q1097.87 46.6097 1094.63 42.8424 Q1091.43 39.075 1085.92 39.075 M1102.17 13.4328 L1102.17 20.8865 Q1099.09 19.4281 1095.93 18.6585 Q1092.81 17.8888 1089.73 17.8888 Q1081.63 17.8888 1077.34 23.3575 Q1073.08 28.8262 1072.48 39.8852 Q1074.87 36.3609 1078.47 34.4975 Q1082.08 32.5936 1086.41 32.5936 Q1095.53 32.5936 1100.79 38.1433 Q1106.1 43.6525 1106.1 53.1722 Q1106.1 62.4892 1100.59 68.12 Q1095.08 73.7508 1085.92 73.7508 Q1075.43 73.7508 1069.88 65.73 Q1064.33 57.6687 1064.33 42.3968 Q1064.33 28.0566 1071.14 19.5497 Q1077.94 11.0023 1089.41 11.0023 Q1092.49 11.0023 1095.61 11.6099 Q1098.77 12.2175 1102.17 13.4328 Z" fill="#000000" fill-rule="nonzero" fill-opacity="1"></path><path clip-path="url(#clip960)" d="M1127.65 18.8205 L1127.65 65.8515 L1137.53 65.8515 Q1150.05 65.8515 1155.84 60.1802 Q1161.68 54.509 1161.68 42.2752 Q1161.68 30.1225 1155.84 24.4918 Q1150.05 18.8205 1137.53 18.8205 L1127.65 18.8205 M1119.47 12.096 L1136.28 12.096 Q1153.86 12.096 1162.08 19.4281 Q1170.3 26.7198 1170.3 42.2752 Q1170.3 57.9117 1162.04 65.2439 Q1153.78 72.576 1136.28 72.576 L1119.47 72.576 L1119.47 12.096 Z" fill="#000000" fill-rule="nonzero" fill-opacity="1"></path><path clip-path="url(#clip960)" d="M1201.58 17.4837 Q1195.26 17.4837 1192.06 23.7221 Q1188.9 29.92 1188.9 42.3968 Q1188.9 54.833 1192.06 61.0714 Q1195.26 67.2693 1201.58 67.2693 Q1207.94 67.2693 1211.1 61.0714 Q1214.3 54.833 1214.3 42.3968 Q1214.3 29.92 1211.1 23.7221 Q1207.94 17.4837 1201.58 17.4837 M1201.58 11.0023 Q1211.75 11.0023 1217.09 19.0636 Q1222.48 27.0843 1222.48 42.3968 Q1222.48 57.6687 1217.09 65.73 Q1211.75 73.7508 1201.58 73.7508 Q1191.41 73.7508 1186.02 65.73 Q1180.68 57.6687 1180.68 42.3968 Q1180.68 27.0843 1186.02 19.0636 Q1191.41 11.0023 1201.58 11.0023 Z" fill="#000000" fill-rule="nonzero" fill-opacity="1"></path><path clip-path="url(#clip960)" d="M1237.1 71.3202 L1237.1 63.8666 Q1240.18 65.3249 1243.34 66.0946 Q1246.5 66.8642 1249.54 66.8642 Q1257.64 66.8642 1261.9 61.436 Q1266.19 55.9673 1266.8 44.8678 Q1264.45 48.3516 1260.84 50.215 Q1257.24 52.0784 1252.86 52.0784 Q1243.79 52.0784 1238.48 46.6097 Q1233.22 41.1005 1233.22 31.5808 Q1233.22 22.2638 1238.72 16.633 Q1244.23 11.0023 1253.39 11.0023 Q1263.88 11.0023 1269.39 19.0636 Q1274.94 27.0843 1274.94 42.3968 Q1274.94 56.6965 1268.13 65.2439 Q1261.37 73.7508 1249.91 73.7508 Q1246.83 73.7508 1243.67 73.1431 Q1240.51 72.5355 1237.1 71.3202 M1253.39 45.678 Q1258.9 45.678 1262.1 41.9107 Q1265.34 38.1433 1265.34 31.5808 Q1265.34 25.0589 1262.1 21.2916 Q1258.9 17.4837 1253.39 17.4837 Q1247.88 17.4837 1244.64 21.2916 Q1241.44 25.0589 1241.44 31.5808 Q1241.44 38.1433 1244.64 41.9107 Q1247.88 45.678 1253.39 45.678 Z" fill="#000000" fill-rule="nonzero" fill-opacity="1"></path><path clip-path="url(#clip960)" d="M1318.93 20.5624 L1318.93 43.1259 L1341.5 43.1259 L1341.5 50.0125 L1318.93 50.0125 L1318.93 72.576 L1312.13 72.576 L1312.13 50.0125 L1289.56 50.0125 L1289.56 43.1259 L1312.13 43.1259 L1312.13 20.5624 L1318.93 20.5624 Z" fill="#000000" fill-rule="nonzero" fill-opacity="1"></path><path clip-path="url(#clip960)" d="M1358.43 12.096 L1396.67 12.096 L1396.67 18.9825 L1366.61 18.9825 L1366.61 36.8875 L1395.41 36.8875 L1395.41 43.7741 L1366.61 43.7741 L1366.61 65.6895 L1397.4 65.6895 L1397.4 72.576 L1358.43 72.576 L1358.43 12.096 Z" fill="#000000" fill-rule="nonzero" fill-opacity="1"></path><path clip-path="url(#clip960)" d="M1429.08 17.4837 Q1422.76 17.4837 1419.56 23.7221 Q1416.4 29.92 1416.4 42.3968 Q1416.4 54.833 1419.56 61.0714 Q1422.76 67.2693 1429.08 67.2693 Q1435.44 67.2693 1438.6 61.0714 Q1441.8 54.833 1441.8 42.3968 Q1441.8 29.92 1438.6 23.7221 Q1435.44 17.4837 1429.08 17.4837 M1429.08 11.0023 Q1439.24 11.0023 1444.59 19.0636 Q1449.98 27.0843 1449.98 42.3968 Q1449.98 57.6687 1444.59 65.73 Q1439.24 73.7508 1429.08 73.7508 Q1418.91 73.7508 1413.52 65.73 Q1408.17 57.6687 1408.17 42.3968 Q1408.17 27.0843 1413.52 19.0636 Q1418.91 11.0023 1429.08 11.0023 Z" fill="#000000" fill-rule="nonzero" fill-opacity="1"></path><path clip-path="url(#clip960)" d="M1482.87 39.075 Q1477.36 39.075 1474.12 42.8424 Q1470.92 46.6097 1470.92 53.1722 Q1470.92 59.6941 1474.12 63.502 Q1477.36 67.2693 1482.87 67.2693 Q1488.38 67.2693 1491.58 63.502 Q1494.82 59.6941 1494.82 53.1722 Q1494.82 46.6097 1491.58 42.8424 Q1488.38 39.075 1482.87 39.075 M1499.12 13.4328 L1499.12 20.8865 Q1496.04 19.4281 1492.88 18.6585 Q1489.76 17.8888 1486.68 17.8888 Q1478.58 17.8888 1474.28 23.3575 Q1470.03 28.8262 1469.42 39.8852 Q1471.81 36.3609 1475.42 34.4975 Q1479.02 32.5936 1483.36 32.5936 Q1492.47 32.5936 1497.74 38.1433 Q1503.05 43.6525 1503.05 53.1722 Q1503.05 62.4892 1497.54 68.12 Q1492.03 73.7508 1482.87 73.7508 Q1472.38 73.7508 1466.83 65.73 Q1461.28 57.6687 1461.28 42.3968 Q1461.28 28.0566 1468.09 19.5497 Q1474.89 11.0023 1486.36 11.0023 Q1489.43 11.0023 1492.55 11.6099 Q1495.71 12.2175 1499.12 13.4328 Z" fill="#000000" fill-rule="nonzero" fill-opacity="1"></path><path clip-path="url(#clip960)" d="M1584.02 63.9476 L1584.02 47.7034 L1570.66 47.7034 L1570.66 40.9789 L1592.13 40.9789 L1592.13 66.9452 Q1587.39 70.3075 1581.67 72.0494 Q1575.96 73.7508 1569.48 73.7508 Q1555.3 73.7508 1547.28 65.4869 Q1539.3 57.1826 1539.3 42.3968 Q1539.3 27.5705 1547.28 19.3066 Q1555.3 11.0023 1569.48 11.0023 Q1575.4 11.0023 1580.7 12.4606 Q1586.05 13.9189 1590.55 16.7545 L1590.55 25.464 Q1586.01 21.6156 1580.9 19.6712 Q1575.8 17.7268 1570.17 17.7268 Q1559.07 17.7268 1553.48 23.9246 Q1547.93 30.1225 1547.93 42.3968 Q1547.93 54.6305 1553.48 60.8284 Q1559.07 67.0263 1570.17 67.0263 Q1574.5 67.0263 1577.91 66.2971 Q1581.31 65.5274 1584.02 63.9476 Z" fill="#000000" fill-rule="nonzero" fill-opacity="1"></path><path clip-path="url(#clip960)" d="M1645.56 48.0275 L1645.56 51.6733 L1611.29 51.6733 Q1611.77 59.3701 1615.9 63.421 Q1620.08 67.4314 1627.49 67.4314 Q1631.78 67.4314 1635.79 66.3781 Q1639.85 65.3249 1643.81 63.2184 L1643.81 70.267 Q1639.8 71.9684 1635.59 72.8596 Q1631.38 73.7508 1627.04 73.7508 Q1616.19 73.7508 1609.83 67.4314 Q1603.51 61.1119 1603.51 50.3365 Q1603.51 39.1965 1609.5 32.6746 Q1615.54 26.1121 1625.75 26.1121 Q1634.9 26.1121 1640.21 32.0264 Q1645.56 37.9003 1645.56 48.0275 M1638.1 45.84 Q1638.02 39.7232 1634.66 36.0774 Q1631.34 32.4315 1625.83 32.4315 Q1619.59 32.4315 1615.82 35.9558 Q1612.1 39.4801 1611.53 45.8805 L1638.1 45.84 Z" fill="#000000" fill-rule="nonzero" fill-opacity="1"></path><path clip-path="url(#clip960)" d="M1690.36 49.9314 Q1690.36 41.7081 1686.96 37.0496 Q1683.59 32.3505 1677.68 32.3505 Q1671.77 32.3505 1668.36 37.0496 Q1665 41.7081 1665 49.9314 Q1665 58.1548 1668.36 62.8538 Q1671.77 67.5124 1677.68 67.5124 Q1683.59 67.5124 1686.96 62.8538 Q1690.36 58.1548 1690.36 49.9314 M1665 34.0924 Q1667.35 30.0415 1670.92 28.0971 Q1674.52 26.1121 1679.5 26.1121 Q1687.77 26.1121 1692.91 32.6746 Q1698.1 39.2371 1698.1 49.9314 Q1698.1 60.6258 1692.91 67.1883 Q1687.77 73.7508 1679.5 73.7508 Q1674.52 73.7508 1670.92 71.8063 Q1667.35 69.8214 1665 65.7705 L1665 72.576 L1657.51 72.576 L1657.51 9.54393 L1665 9.54393 L1665 34.0924 Z" fill="#000000" fill-rule="nonzero" fill-opacity="1"></path><path clip-path="url(#clip960)" d="M1736.74 34.1734 Q1735.49 33.4443 1733.99 33.1202 Q1732.53 32.7556 1730.75 32.7556 Q1724.43 32.7556 1721.03 36.8875 Q1717.66 40.9789 1717.66 48.6757 L1717.66 72.576 L1710.17 72.576 L1710.17 27.2059 L1717.66 27.2059 L1717.66 34.2544 Q1720.01 30.1225 1723.78 28.1376 Q1727.55 26.1121 1732.93 26.1121 Q1733.7 26.1121 1734.64 26.2337 Q1735.57 26.3147 1736.7 26.5172 L1736.74 34.1734 Z" fill="#000000" fill-rule="nonzero" fill-opacity="1"></path><path clip-path="url(#clip960)" d="M1760.32 32.4315 Q1754.32 32.4315 1750.84 37.1306 Q1747.36 41.7891 1747.36 49.9314 Q1747.36 58.0738 1750.8 62.7728 Q1754.28 67.4314 1760.32 67.4314 Q1766.27 67.4314 1769.76 62.7323 Q1773.24 58.0333 1773.24 49.9314 Q1773.24 41.8701 1769.76 37.1711 Q1766.27 32.4315 1760.32 32.4315 M1760.32 26.1121 Q1770.04 26.1121 1775.59 32.4315 Q1781.14 38.7509 1781.14 49.9314 Q1781.14 61.0714 1775.59 67.4314 Q1770.04 73.7508 1760.32 73.7508 Q1750.56 73.7508 1745.01 67.4314 Q1739.5 61.0714 1739.5 49.9314 Q1739.5 38.7509 1745.01 32.4315 Q1750.56 26.1121 1760.32 26.1121 Z" fill="#000000" fill-rule="nonzero" fill-opacity="1"></path><path clip-path="url(#clip960)" d="M1792.73 54.671 L1792.73 27.2059 L1800.18 27.2059 L1800.18 54.3874 Q1800.18 60.8284 1802.69 64.0691 Q1805.2 67.2693 1810.23 67.2693 Q1816.26 67.2693 1819.75 63.421 Q1823.27 59.5726 1823.27 52.9291 L1823.27 27.2059 L1830.72 27.2059 L1830.72 72.576 L1823.27 72.576 L1823.27 65.6084 Q1820.56 69.7404 1816.95 71.7658 Q1813.39 73.7508 1808.65 73.7508 Q1800.83 73.7508 1796.78 68.8897 Q1792.73 64.0286 1792.73 54.671 M1811.48 26.1121 L1811.48 26.1121 Z" fill="#000000" fill-rule="nonzero" fill-opacity="1"></path><path clip-path="url(#clip960)" d="M1846.08 9.54393 L1853.53 9.54393 L1853.53 72.576 L1846.08 72.576 L1846.08 9.54393 Z" fill="#000000" fill-rule="nonzero" fill-opacity="1"></path><path clip-path="url(#clip960)" d="M1889.75 49.7694 Q1880.71 49.7694 1877.23 51.8354 Q1873.74 53.9013 1873.74 58.8839 Q1873.74 62.8538 1876.34 65.2034 Q1878.97 67.5124 1883.47 67.5124 Q1889.66 67.5124 1893.39 63.1374 Q1897.16 58.7219 1897.16 51.4303 L1897.16 49.7694 L1889.75 49.7694 M1904.61 46.6907 L1904.61 72.576 L1897.16 72.576 L1897.16 65.6895 Q1894.61 69.8214 1890.8 71.8063 Q1886.99 73.7508 1881.48 73.7508 Q1874.51 73.7508 1870.38 69.8619 Q1866.29 65.9325 1866.29 59.3701 Q1866.29 51.7138 1871.39 47.825 Q1876.54 43.9361 1886.71 43.9361 L1897.16 43.9361 L1897.16 43.2069 Q1897.16 38.0623 1893.76 35.2672 Q1890.39 32.4315 1884.28 32.4315 Q1880.39 32.4315 1876.7 33.3632 Q1873.02 34.295 1869.61 36.1584 L1869.61 29.2718 Q1873.7 27.692 1877.55 26.9223 Q1881.4 26.1121 1885.05 26.1121 Q1894.89 26.1121 1899.75 31.2163 Q1904.61 36.3204 1904.61 46.6907 Z" fill="#000000" fill-rule="nonzero" fill-opacity="1"></path><path clip-path="url(#clip960)" d="M1916.72 27.2059 L1952.13 27.2059 L1952.13 34.0114 L1924.1 66.6212 L1952.13 66.6212 L1952.13 72.576 L1915.71 72.576 L1915.71 65.7705 L1943.74 33.1607 L1916.72 33.1607 L1916.72 27.2059 Z" fill="#000000" fill-rule="nonzero" fill-opacity="1"></path><polyline clip-path="url(#clip962)" style="stroke:#a52a2a; stroke-linecap:round; stroke-linejoin:round; stroke-width:4; stroke-opacity:1; fill:none" points="323.395,237.834 344.811,252.96 366.227,252.25 387.642,259.878 409.058,273.198 430.474,292.593 451.89,320.041 473.306,350.124 494.721,381.066 516.137,410.294 537.553,437.581 558.969,466.8 580.384,493.665 601.8,520.456 623.216,548.169 644.632,575.321 666.048,601.885 687.463,627.786 708.879,651.52 730.295,675.08 751.711,694.319 773.127,708.391 794.542,723.278 815.958,744.408 837.374,764.722 858.79,781.732 880.206,803.349 901.621,826.456 923.037,848.49 944.453,869.438 965.869,881.821 987.285,883.964 1008.7,889.454 1030.12,901.96 1051.53,922.295 1072.95,940.149 1094.36,947.53 1115.78,949.012 1137.2,953.281 1158.61,962.473 1180.03,970.665 1201.44,979.925 1222.86,988.081 1244.27,995.422 1265.69,1002.42 1287.11,997.027 1308.52,998.068 1329.94,1002.25 1351.35,997.811 1372.77,1004.27 1394.18,1008.86 1415.6,1015.2 1437.02,1021.91 1458.43,1030.13 1479.85,1041.49 1501.26,1056.34 1522.68,1074.04 1544.1,1093.39 1565.51,1112.96 1586.93,1131.22 1608.34,1147.02 1629.76,1160.61 1651.17,1173.86 1672.59,1188.64 1694.01,1205.37 1715.42,1222.91 1736.84,1239.64 1758.25,1254.74 1779.67,1268.9 1801.08,1283 1822.5,1296.06 1843.92,1306.51 1865.33,1315.25 1886.75,1324.27 1908.16,1332.81 1929.58,1338.71 1951,1342.53 1972.41,1347.17 1993.83,1354.6 2015.24,1365.26 2036.66,1378.58 2058.07,1393.06 2079.49,1407.09 2100.91,1419.56 2122.32,1429.92 2143.74,1437.45 2165.15,1441.82 2186.57,1443.82 2207.99,1444.91 2229.4,1446.04 2250.82,1447.13 2272.23,1447.74 2293.65,1447.87 "></polyline>
<polyline clip-path="url(#clip962)" style="stroke:#0000ff; stroke-linecap:round; stroke-linejoin:round; stroke-width:4; stroke-opacity:1; fill:none" points="323.395,174.356 344.811,182.998 366.227,193.192 387.642,207.775 409.058,226.566 430.474,250.663 451.89,278.857 473.306,309.108 494.721,338.25 516.137,365.508 537.553,392.954 558.969,419.753 580.384,445.958 601.8,472.742 623.216,499.353 644.632,524.84 666.048,548.576 687.463,570.299 708.879,590.785 730.295,609.615 751.711,627.468 773.127,646.204 794.542,667.085 815.958,689.331 837.374,710.459 858.79,732.413 880.206,756.482 901.621,780.3 923.037,805.356 944.453,833.42 965.869,875.965 987.285,883.964 1008.7,889.454 1030.12,901.96 1051.53,922.295 1072.95,940.149 1094.36,947.53 1115.78,949.012 1137.2,953.281 1158.61,962.473 1180.03,970.665 1201.44,979.925 1222.86,988.081 1244.27,995.422 1265.69,1002.42 1287.11,997.027 1308.52,998.068 1329.94,1002.25 1351.35,997.811 1372.77,1004.27 1394.18,1008.86 1415.6,1015.2 1437.02,1021.91 1458.43,1030.13 1479.85,1041.49 1501.26,1056.34 1522.68,1074.04 1544.1,1093.39 1565.51,1112.96 1586.93,1131.22 1608.34,1147.02 1629.76,1160.61 1651.17,1173.86 1672.59,1188.64 1694.01,1205.37 1715.42,1222.91 1736.84,1239.64 1758.25,1254.74 1779.67,1268.9 1801.08,1283 1822.5,1296.06 1843.92,1306.51 1865.33,1315.25 1886.75,1324.27 1908.16,1332.81 1929.58,1338.71 1951,1342.53 1972.41,1347.17 1993.83,1354.6 2015.24,1365.26 2036.66,1378.58 2058.07,1393.06 2079.49,1407.09 2100.91,1419.56 2122.32,1429.92 2143.74,1437.45 2165.15,1441.82 2186.57,1443.82 2207.99,1444.91 2229.4,1446.04 2250.82,1447.13 2272.23,1447.74 2293.65,1447.87 "></polyline>
<polyline clip-path="url(#clip962)" style="stroke:#ff0000; stroke-linecap:round; stroke-linejoin:round; stroke-width:4; stroke-opacity:1; fill:none" points="323.395,162.047 344.811,171.45 366.227,182.348 387.642,197.591 409.058,217.016 430.474,241.451 451.89,269.633 473.306,299.655 494.721,328.358 516.137,355.433 537.553,382.613 558.969,409.079 580.384,435.128 601.8,461.6 623.216,487.693 644.632,512.517 666.048,535.506 687.463,556.697 708.879,576.902 730.295,595.823 751.711,614.2 773.127,633.62 794.542,654.939 815.958,677.362 837.374,698.827 858.79,721.004 880.206,744.626 901.621,767.427 923.037,790.285 944.453,813.264 965.869,836.677 987.285,870.303 1008.7,889.454 1030.12,901.96 1051.53,922.295 1072.95,940.149 1094.36,947.53 1115.78,949.012 1137.2,953.281 1158.61,962.473 1180.03,970.665 1201.44,979.925 1222.86,988.081 1244.27,995.422 1265.69,1002.42 1287.11,997.027 1308.52,998.068 1329.94,1002.25 1351.35,997.811 1372.77,1004.27 1394.18,1008.86 1415.6,1015.2 1437.02,1021.91 1458.43,1030.13 1479.85,1041.49 1501.26,1056.34 1522.68,1074.04 1544.1,1093.39 1565.51,1112.96 1586.93,1131.22 1608.34,1147.02 1629.76,1160.61 1651.17,1173.86 1672.59,1188.64 1694.01,1205.37 1715.42,1222.91 1736.84,1239.64 1758.25,1254.74 1779.67,1268.9 1801.08,1283 1822.5,1296.06 1843.92,1306.51 1865.33,1315.25 1886.75,1324.27 1908.16,1332.81 1929.58,1338.71 1951,1342.53 1972.41,1347.17 1993.83,1354.6 2015.24,1365.26 2036.66,1378.58 2058.07,1393.06 2079.49,1407.09 2100.91,1419.56 2122.32,1429.92 2143.74,1437.45 2165.15,1441.82 2186.57,1443.82 2207.99,1444.91 2229.4,1446.04 2250.82,1447.13 2272.23,1447.74 2293.65,1447.87 "></polyline>
<polyline clip-path="url(#clip962)" style="stroke:#008000; stroke-linecap:round; stroke-linejoin:round; stroke-width:4; stroke-opacity:1; fill:none" points="323.395,171.966 344.811,181.019 366.227,190.072 387.642,205.655 409.058,223.923 430.474,248.046 451.89,276.194 473.306,306.299 494.721,335.527 516.137,362.263 537.553,389.46 558.969,416.149 580.384,441.855 601.8,468.375 623.216,494.603 644.632,519.445 666.048,542.559 687.463,563.455 708.879,583.261 730.295,601.905 751.711,619.06 773.127,637.846 794.542,657.59 815.958,678.811 837.374,697.595 858.79,715.946 880.206,734.71 901.621,749.749 923.037,763.449 944.453,775.136 965.869,784.921 987.285,794.705 1008.7,806.237 1030.12,818.284 1051.53,829.494 1072.95,837.832 1094.36,846.171 1115.78,854.802 1137.2,865.304 1158.61,875.805 1180.03,886.375 1201.44,897.341 1222.86,908.307 1244.27,920.157 1265.69,932.474 1287.11,945.841 1308.52,961.388 1329.94,975.426 1351.35,988.108 1372.77,1004.27 1394.18,1008.86 1415.6,1015.2 1437.02,1021.91 1458.43,1030.13 1479.85,1041.49 1501.26,1056.34 1522.68,1074.04 1544.1,1093.39 1565.51,1112.96 1586.93,1131.22 1608.34,1147.02 1629.76,1160.61 1651.17,1173.86 1672.59,1188.64 1694.01,1205.37 1715.42,1222.91 1736.84,1239.64 1758.25,1254.74 1779.67,1268.9 1801.08,1283 1822.5,1296.06 1843.92,1306.51 1865.33,1315.25 1886.75,1324.27 1908.16,1332.81 1929.58,1338.71 1951,1342.53 1972.41,1347.17 1993.83,1354.6 2015.24,1365.26 2036.66,1378.58 2058.07,1393.06 2079.49,1407.09 2100.91,1419.56 2122.32,1429.92 2143.74,1437.45 2165.15,1441.82 2186.57,1443.82 2207.99,1444.91 2229.4,1446.04 2250.82,1447.13 2272.23,1447.74 2293.65,1447.87 "></polyline>
<polyline clip-path="url(#clip962)" style="stroke:#000000; stroke-linecap:round; stroke-linejoin:round; stroke-width:4; stroke-opacity:1; fill:none" stroke-dasharray="16, 10" points="323.395,180.068 344.811,187.259 366.227,196.741 387.642,210.547 409.058,229.051 430.474,252.635 451.89,280.712 473.306,310.59 494.721,339.348 516.137,366.814 537.553,393.994 558.969,420.652 580.384,447.014 601.8,473.77 623.216,500.311 644.632,525.711 666.048,549.327 687.463,571.075 708.879,591.389 730.295,610.225 751.711,628.402 773.127,647.53 794.542,668.554 815.958,690.559 837.374,712.151 858.79,734.802 880.206,759.208 901.621,783.913 923.037,809.274 944.453,857.489 965.869,881.821 987.285,883.964 1008.7,889.454 1030.12,901.96 1051.53,922.295 1072.95,940.149 1094.36,947.53 1115.78,949.012 1137.2,953.281 1158.61,962.473 1180.03,970.665 1201.44,979.925 1222.86,988.081 1244.27,995.422 1265.69,1002.42 1287.11,997.027 1308.52,998.068 1329.94,1002.25 1351.35,997.811 1372.77,1004.27 1394.18,1008.86 1415.6,1015.2 1437.02,1021.91 1458.43,1030.13 1479.85,1041.49 1501.26,1056.34 1522.68,1074.04 1544.1,1093.39 1565.51,1112.96 1586.93,1131.22 1608.34,1147.02 1629.76,1160.61 1651.17,1173.86 1672.59,1188.64 1694.01,1205.37 1715.42,1222.91 1736.84,1239.64 1758.25,1254.74 1779.67,1268.9 1801.08,1283 1822.5,1296.06 1843.92,1306.51 1865.33,1315.25 1886.75,1324.27 1908.16,1332.81 1929.58,1338.71 1951,1342.53 1972.41,1347.17 1993.83,1354.6 2015.24,1365.26 2036.66,1378.58 2058.07,1393.06 2079.49,1407.09 2100.91,1419.56 2122.32,1429.92 2143.74,1437.45 2165.15,1441.82 2186.57,1443.82 2207.99,1444.91 2229.4,1446.04 2250.82,1447.13 2272.23,1447.74 2293.65,1447.87 "></polyline>
<path clip-path="url(#clip960)" d="M1729.57 479.945 L2283.14 479.945 L2283.14 168.905 L1729.57 168.905  Z" fill="#ffffff" fill-rule="evenodd" fill-opacity="1"></path>
<polyline clip-path="url(#clip960)" style="stroke:#000000; stroke-linecap:round; stroke-linejoin:round; stroke-width:4; stroke-opacity:1; fill:none" points="1729.57,479.945 2283.14,479.945 2283.14,168.905 1729.57,168.905 1729.57,479.945 "></polyline>
<polyline clip-path="url(#clip960)" style="stroke:#a52a2a; stroke-linecap:round; stroke-linejoin:round; stroke-width:4; stroke-opacity:1; fill:none" points="1752.78,220.745 1892.01,220.745 "></polyline>
<path clip-path="url(#clip960)" d="M1933.99 225.085 Q1933.99 220.386 1932.04 217.724 Q1930.12 215.039 1926.74 215.039 Q1923.36 215.039 1921.42 217.724 Q1919.5 220.386 1919.5 225.085 Q1919.5 229.784 1921.42 232.469 Q1923.36 235.131 1926.74 235.131 Q1930.12 235.131 1932.04 232.469 Q1933.99 229.784 1933.99 225.085 M1919.5 216.034 Q1920.84 213.719 1922.88 212.608 Q1924.94 211.474 1927.78 211.474 Q1932.51 211.474 1935.45 215.224 Q1938.41 218.974 1938.41 225.085 Q1938.41 231.196 1935.45 234.946 Q1932.51 238.696 1927.78 238.696 Q1924.94 238.696 1922.88 237.585 Q1920.84 236.451 1919.5 234.136 L1919.5 238.025 L1915.21 238.025 L1915.21 202.006 L1919.5 202.006 L1919.5 216.034 Z" fill="#000000" fill-rule="nonzero" fill-opacity="1"></path><path clip-path="url(#clip960)" d="M1967.64 223.997 L1967.64 226.08 L1948.06 226.08 Q1948.34 230.478 1950.7 232.793 Q1953.08 235.085 1957.32 235.085 Q1959.77 235.085 1962.07 234.483 Q1964.38 233.881 1966.65 232.677 L1966.65 236.705 Q1964.36 237.677 1961.95 238.187 Q1959.54 238.696 1957.07 238.696 Q1950.86 238.696 1947.23 235.085 Q1943.62 231.474 1943.62 225.316 Q1943.62 218.951 1947.04 215.224 Q1950.49 211.474 1956.33 211.474 Q1961.56 211.474 1964.59 214.853 Q1967.64 218.21 1967.64 223.997 M1963.39 222.747 Q1963.34 219.252 1961.42 217.168 Q1959.52 215.085 1956.37 215.085 Q1952.81 215.085 1950.65 217.099 Q1948.52 219.113 1948.2 222.77 L1963.39 222.747 Z" fill="#000000" fill-rule="nonzero" fill-opacity="1"></path><path clip-path="url(#clip960)" d="M1991.7 216.034 L1991.7 202.006 L1995.96 202.006 L1995.96 238.025 L1991.7 238.025 L1991.7 234.136 Q1990.35 236.451 1988.29 237.585 Q1986.26 238.696 1983.39 238.696 Q1978.69 238.696 1975.72 234.946 Q1972.78 231.196 1972.78 225.085 Q1972.78 218.974 1975.72 215.224 Q1978.69 211.474 1983.39 211.474 Q1986.26 211.474 1988.29 212.608 Q1990.35 213.719 1991.7 216.034 M1977.18 225.085 Q1977.18 229.784 1979.1 232.469 Q1981.05 235.131 1984.43 235.131 Q1987.81 235.131 1989.75 232.469 Q1991.7 229.784 1991.7 225.085 Q1991.7 220.386 1989.75 217.724 Q1987.81 215.039 1984.43 215.039 Q1981.05 215.039 1979.1 217.724 Q1977.18 220.386 1977.18 225.085 Z" fill="#000000" fill-rule="nonzero" fill-opacity="1"></path><polyline clip-path="url(#clip960)" style="stroke:#0000ff; stroke-linecap:round; stroke-linejoin:round; stroke-width:4; stroke-opacity:1; fill:none" points="1752.78,272.585 1892.01,272.585 "></polyline>
<path clip-path="url(#clip960)" d="M1933.64 264.703 L1933.64 268.731 Q1931.83 267.805 1929.89 267.342 Q1927.95 266.879 1925.86 266.879 Q1922.69 266.879 1921.09 267.851 Q1919.52 268.823 1919.52 270.768 Q1919.52 272.249 1920.65 273.105 Q1921.79 273.939 1925.21 274.703 L1926.67 275.027 Q1931.21 275.999 1933.11 277.781 Q1935.03 279.541 1935.03 282.712 Q1935.03 286.323 1932.16 288.429 Q1929.31 290.536 1924.31 290.536 Q1922.23 290.536 1919.96 290.119 Q1917.71 289.726 1915.21 288.916 L1915.21 284.517 Q1917.58 285.744 1919.87 286.369 Q1922.16 286.971 1924.4 286.971 Q1927.41 286.971 1929.03 285.953 Q1930.65 284.911 1930.65 283.036 Q1930.65 281.3 1929.47 280.374 Q1928.32 279.448 1924.36 278.592 L1922.88 278.244 Q1918.92 277.411 1917.16 275.698 Q1915.4 273.962 1915.4 270.953 Q1915.4 267.295 1917.99 265.305 Q1920.59 263.314 1925.35 263.314 Q1927.71 263.314 1929.8 263.661 Q1931.88 264.008 1933.64 264.703 Z" fill="#000000" fill-rule="nonzero" fill-opacity="1"></path><path clip-path="url(#clip960)" d="M1941.37 279.633 L1941.37 263.939 L1945.63 263.939 L1945.63 279.471 Q1945.63 283.152 1947.07 285.004 Q1948.5 286.832 1951.37 286.832 Q1954.82 286.832 1956.81 284.633 Q1958.83 282.434 1958.83 278.638 L1958.83 263.939 L1963.08 263.939 L1963.08 289.865 L1958.83 289.865 L1958.83 285.883 Q1957.27 288.244 1955.21 289.402 Q1953.18 290.536 1950.47 290.536 Q1946 290.536 1943.69 287.758 Q1941.37 284.98 1941.37 279.633 M1952.09 263.314 L1952.09 263.314 Z" fill="#000000" fill-rule="nonzero" fill-opacity="1"></path><path clip-path="url(#clip960)" d="M1986.88 267.92 Q1986.16 267.504 1985.31 267.318 Q1984.47 267.11 1983.46 267.11 Q1979.84 267.11 1977.9 269.471 Q1975.98 271.809 1975.98 276.207 L1975.98 289.865 L1971.7 289.865 L1971.7 263.939 L1975.98 263.939 L1975.98 267.967 Q1977.32 265.606 1979.47 264.471 Q1981.63 263.314 1984.71 263.314 Q1985.14 263.314 1985.68 263.383 Q1986.21 263.43 1986.86 263.545 L1986.88 267.92 Z" fill="#000000" fill-rule="nonzero" fill-opacity="1"></path><path clip-path="url(#clip960)" d="M2004.47 253.846 L2004.47 257.388 L2000.4 257.388 Q1998.11 257.388 1997.21 258.314 Q1996.33 259.24 1996.33 261.647 L1996.33 263.939 L2003.34 263.939 L2003.34 267.249 L1996.33 267.249 L1996.33 289.865 L1992.04 289.865 L1992.04 267.249 L1987.97 267.249 L1987.97 263.939 L1992.04 263.939 L1992.04 262.133 Q1992.04 257.805 1994.06 255.837 Q1996.07 253.846 2000.45 253.846 L2004.47 253.846 Z" fill="#000000" fill-rule="nonzero" fill-opacity="1"></path><path clip-path="url(#clip960)" d="M2019.82 276.832 Q2014.66 276.832 2012.67 278.013 Q2010.68 279.193 2010.68 282.041 Q2010.68 284.309 2012.16 285.652 Q2013.66 286.971 2016.23 286.971 Q2019.77 286.971 2021.9 284.471 Q2024.06 281.948 2024.06 277.781 L2024.06 276.832 L2019.82 276.832 M2028.32 275.073 L2028.32 289.865 L2024.06 289.865 L2024.06 285.929 Q2022.6 288.291 2020.42 289.425 Q2018.25 290.536 2015.1 290.536 Q2011.12 290.536 2008.76 288.314 Q2006.42 286.068 2006.42 282.318 Q2006.42 277.943 2009.33 275.721 Q2012.27 273.499 2018.08 273.499 L2024.06 273.499 L2024.06 273.082 Q2024.06 270.143 2022.11 268.545 Q2020.19 266.925 2016.7 266.925 Q2014.47 266.925 2012.37 267.457 Q2010.26 267.99 2008.32 269.055 L2008.32 265.119 Q2010.65 264.217 2012.85 263.777 Q2015.05 263.314 2017.14 263.314 Q2022.76 263.314 2025.54 266.231 Q2028.32 269.147 2028.32 275.073 Z" fill="#000000" fill-rule="nonzero" fill-opacity="1"></path><path clip-path="url(#clip960)" d="M2055.75 264.934 L2055.75 268.916 Q2053.94 267.92 2052.11 267.434 Q2050.31 266.925 2048.45 266.925 Q2044.31 266.925 2042.02 269.564 Q2039.73 272.18 2039.73 276.925 Q2039.73 281.67 2042.02 284.309 Q2044.31 286.925 2048.45 286.925 Q2050.31 286.925 2052.11 286.439 Q2053.94 285.929 2055.75 284.934 L2055.75 288.869 Q2053.96 289.703 2052.04 290.119 Q2050.14 290.536 2047.99 290.536 Q2042.14 290.536 2038.69 286.855 Q2035.24 283.175 2035.24 276.925 Q2035.24 270.582 2038.71 266.948 Q2042.2 263.314 2048.27 263.314 Q2050.24 263.314 2052.11 263.731 Q2053.99 264.124 2055.75 264.934 Z" fill="#000000" fill-rule="nonzero" fill-opacity="1"></path><path clip-path="url(#clip960)" d="M2085.33 275.837 L2085.33 277.92 L2065.75 277.92 Q2066.02 282.318 2068.39 284.633 Q2070.77 286.925 2075.01 286.925 Q2077.46 286.925 2079.75 286.323 Q2082.07 285.721 2084.33 284.517 L2084.33 288.545 Q2082.04 289.517 2079.64 290.027 Q2077.23 290.536 2074.75 290.536 Q2068.55 290.536 2064.91 286.925 Q2061.3 283.314 2061.3 277.156 Q2061.3 270.791 2064.73 267.064 Q2068.18 263.314 2074.01 263.314 Q2079.24 263.314 2082.27 266.693 Q2085.33 270.05 2085.33 275.837 M2081.07 274.587 Q2081.02 271.092 2079.1 269.008 Q2077.2 266.925 2074.06 266.925 Q2070.49 266.925 2068.34 268.939 Q2066.21 270.953 2065.89 274.61 L2081.07 274.587 Z" fill="#000000" fill-rule="nonzero" fill-opacity="1"></path><path clip-path="url(#clip960)" d="M2123.92 264.703 L2123.92 268.731 Q2122.11 267.805 2120.17 267.342 Q2118.22 266.879 2116.14 266.879 Q2112.97 266.879 2111.37 267.851 Q2109.8 268.823 2109.8 270.768 Q2109.8 272.249 2110.93 273.105 Q2112.07 273.939 2115.49 274.703 L2116.95 275.027 Q2121.49 275.999 2123.38 277.781 Q2125.31 279.541 2125.31 282.712 Q2125.31 286.323 2122.44 288.429 Q2119.59 290.536 2114.59 290.536 Q2112.51 290.536 2110.24 290.119 Q2107.99 289.726 2105.49 288.916 L2105.49 284.517 Q2107.85 285.744 2110.14 286.369 Q2112.44 286.971 2114.68 286.971 Q2117.69 286.971 2119.31 285.953 Q2120.93 284.911 2120.93 283.036 Q2120.93 281.3 2119.75 280.374 Q2118.59 279.448 2114.63 278.592 L2113.15 278.244 Q2109.2 277.411 2107.44 275.698 Q2105.68 273.962 2105.68 270.953 Q2105.68 267.295 2108.27 265.305 Q2110.86 263.314 2115.63 263.314 Q2117.99 263.314 2120.07 263.661 Q2122.16 264.008 2123.92 264.703 Z" fill="#000000" fill-rule="nonzero" fill-opacity="1"></path><path clip-path="url(#clip960)" d="M2142.13 266.925 Q2138.71 266.925 2136.72 269.61 Q2134.73 272.272 2134.73 276.925 Q2134.73 281.578 2136.69 284.263 Q2138.69 286.925 2142.13 286.925 Q2145.54 286.925 2147.53 284.24 Q2149.52 281.555 2149.52 276.925 Q2149.52 272.318 2147.53 269.633 Q2145.54 266.925 2142.13 266.925 M2142.13 263.314 Q2147.69 263.314 2150.86 266.925 Q2154.03 270.536 2154.03 276.925 Q2154.03 283.291 2150.86 286.925 Q2147.69 290.536 2142.13 290.536 Q2136.56 290.536 2133.38 286.925 Q2130.24 283.291 2130.24 276.925 Q2130.24 270.536 2133.38 266.925 Q2136.56 263.314 2142.13 263.314 Z" fill="#000000" fill-rule="nonzero" fill-opacity="1"></path><path clip-path="url(#clip960)" d="M2161.09 253.846 L2165.35 253.846 L2165.35 289.865 L2161.09 289.865 L2161.09 253.846 Z" fill="#000000" fill-rule="nonzero" fill-opacity="1"></path><path clip-path="url(#clip960)" d="M2171.21 263.939 L2175.72 263.939 L2183.82 285.698 L2191.93 263.939 L2196.44 263.939 L2186.72 289.865 L2180.93 289.865 L2171.21 263.939 Z" fill="#000000" fill-rule="nonzero" fill-opacity="1"></path><path clip-path="url(#clip960)" d="M2224.5 275.837 L2224.5 277.92 L2204.91 277.92 Q2205.19 282.318 2207.55 284.633 Q2209.94 286.925 2214.17 286.925 Q2216.63 286.925 2218.92 286.323 Q2221.23 285.721 2223.5 284.517 L2223.5 288.545 Q2221.21 289.517 2218.8 290.027 Q2216.39 290.536 2213.92 290.536 Q2207.71 290.536 2204.08 286.925 Q2200.47 283.314 2200.47 277.156 Q2200.47 270.791 2203.89 267.064 Q2207.34 263.314 2213.18 263.314 Q2218.41 263.314 2221.44 266.693 Q2224.5 270.05 2224.5 275.837 M2220.24 274.587 Q2220.19 271.092 2218.27 269.008 Q2216.37 266.925 2213.22 266.925 Q2209.66 266.925 2207.5 268.939 Q2205.38 270.953 2205.05 274.61 L2220.24 274.587 Z" fill="#000000" fill-rule="nonzero" fill-opacity="1"></path><path clip-path="url(#clip960)" d="M2246.51 267.92 Q2245.79 267.504 2244.94 267.318 Q2244.1 267.11 2243.08 267.11 Q2239.47 267.11 2237.53 269.471 Q2235.61 271.809 2235.61 276.207 L2235.61 289.865 L2231.32 289.865 L2231.32 263.939 L2235.61 263.939 L2235.61 267.967 Q2236.95 265.606 2239.1 264.471 Q2241.25 263.314 2244.33 263.314 Q2244.77 263.314 2245.31 263.383 Q2245.84 263.43 2246.49 263.545 L2246.51 267.92 Z" fill="#000000" fill-rule="nonzero" fill-opacity="1"></path><polyline clip-path="url(#clip960)" style="stroke:#ff0000; stroke-linecap:round; stroke-linejoin:round; stroke-width:4; stroke-opacity:1; fill:none" points="1752.78,324.425 1892.01,324.425 "></polyline>
<path clip-path="url(#clip960)" d="M1933.64 316.543 L1933.64 320.571 Q1931.83 319.645 1929.89 319.182 Q1927.95 318.719 1925.86 318.719 Q1922.69 318.719 1921.09 319.691 Q1919.52 320.663 1919.52 322.608 Q1919.52 324.089 1920.65 324.945 Q1921.79 325.779 1925.21 326.543 L1926.67 326.867 Q1931.21 327.839 1933.11 329.621 Q1935.03 331.381 1935.03 334.552 Q1935.03 338.163 1932.16 340.269 Q1929.31 342.376 1924.31 342.376 Q1922.23 342.376 1919.96 341.959 Q1917.71 341.566 1915.21 340.756 L1915.21 336.357 Q1917.58 337.584 1919.87 338.209 Q1922.16 338.811 1924.4 338.811 Q1927.41 338.811 1929.03 337.793 Q1930.65 336.751 1930.65 334.876 Q1930.65 333.14 1929.47 332.214 Q1928.32 331.288 1924.36 330.432 L1922.88 330.084 Q1918.92 329.251 1917.16 327.538 Q1915.4 325.802 1915.4 322.793 Q1915.4 319.135 1917.99 317.145 Q1920.59 315.154 1925.35 315.154 Q1927.71 315.154 1929.8 315.501 Q1931.88 315.848 1933.64 316.543 Z" fill="#000000" fill-rule="nonzero" fill-opacity="1"></path><path clip-path="url(#clip960)" d="M1941.37 331.473 L1941.37 315.779 L1945.63 315.779 L1945.63 331.311 Q1945.63 334.992 1947.07 336.844 Q1948.5 338.672 1951.37 338.672 Q1954.82 338.672 1956.81 336.473 Q1958.83 334.274 1958.83 330.478 L1958.83 315.779 L1963.08 315.779 L1963.08 341.705 L1958.83 341.705 L1958.83 337.723 Q1957.27 340.084 1955.21 341.242 Q1953.18 342.376 1950.47 342.376 Q1946 342.376 1943.69 339.598 Q1941.37 336.82 1941.37 331.473 M1952.09 315.154 L1952.09 315.154 Z" fill="#000000" fill-rule="nonzero" fill-opacity="1"></path><path clip-path="url(#clip960)" d="M1986.88 319.76 Q1986.16 319.344 1985.31 319.158 Q1984.47 318.95 1983.46 318.95 Q1979.84 318.95 1977.9 321.311 Q1975.98 323.649 1975.98 328.047 L1975.98 341.705 L1971.7 341.705 L1971.7 315.779 L1975.98 315.779 L1975.98 319.807 Q1977.32 317.446 1979.47 316.311 Q1981.63 315.154 1984.71 315.154 Q1985.14 315.154 1985.68 315.223 Q1986.21 315.27 1986.86 315.385 L1986.88 319.76 Z" fill="#000000" fill-rule="nonzero" fill-opacity="1"></path><path clip-path="url(#clip960)" d="M2004.47 305.686 L2004.47 309.228 L2000.4 309.228 Q1998.11 309.228 1997.21 310.154 Q1996.33 311.08 1996.33 313.487 L1996.33 315.779 L2003.34 315.779 L2003.34 319.089 L1996.33 319.089 L1996.33 341.705 L1992.04 341.705 L1992.04 319.089 L1987.97 319.089 L1987.97 315.779 L1992.04 315.779 L1992.04 313.973 Q1992.04 309.645 1994.06 307.677 Q1996.07 305.686 2000.45 305.686 L2004.47 305.686 Z" fill="#000000" fill-rule="nonzero" fill-opacity="1"></path><path clip-path="url(#clip960)" d="M2019.82 328.672 Q2014.66 328.672 2012.67 329.853 Q2010.68 331.033 2010.68 333.881 Q2010.68 336.149 2012.16 337.492 Q2013.66 338.811 2016.23 338.811 Q2019.77 338.811 2021.9 336.311 Q2024.06 333.788 2024.06 329.621 L2024.06 328.672 L2019.82 328.672 M2028.32 326.913 L2028.32 341.705 L2024.06 341.705 L2024.06 337.769 Q2022.6 340.131 2020.42 341.265 Q2018.25 342.376 2015.1 342.376 Q2011.12 342.376 2008.76 340.154 Q2006.42 337.908 2006.42 334.158 Q2006.42 329.783 2009.33 327.561 Q2012.27 325.339 2018.08 325.339 L2024.06 325.339 L2024.06 324.922 Q2024.06 321.983 2022.11 320.385 Q2020.19 318.765 2016.7 318.765 Q2014.47 318.765 2012.37 319.297 Q2010.26 319.83 2008.32 320.895 L2008.32 316.959 Q2010.65 316.057 2012.85 315.617 Q2015.05 315.154 2017.14 315.154 Q2022.76 315.154 2025.54 318.071 Q2028.32 320.987 2028.32 326.913 Z" fill="#000000" fill-rule="nonzero" fill-opacity="1"></path><path clip-path="url(#clip960)" d="M2055.75 316.774 L2055.75 320.756 Q2053.94 319.76 2052.11 319.274 Q2050.31 318.765 2048.45 318.765 Q2044.31 318.765 2042.02 321.404 Q2039.73 324.02 2039.73 328.765 Q2039.73 333.51 2042.02 336.149 Q2044.31 338.765 2048.45 338.765 Q2050.31 338.765 2052.11 338.279 Q2053.94 337.769 2055.75 336.774 L2055.75 340.709 Q2053.96 341.543 2052.04 341.959 Q2050.14 342.376 2047.99 342.376 Q2042.14 342.376 2038.69 338.695 Q2035.24 335.015 2035.24 328.765 Q2035.24 322.422 2038.71 318.788 Q2042.2 315.154 2048.27 315.154 Q2050.24 315.154 2052.11 315.571 Q2053.99 315.964 2055.75 316.774 Z" fill="#000000" fill-rule="nonzero" fill-opacity="1"></path><path clip-path="url(#clip960)" d="M2085.33 327.677 L2085.33 329.76 L2065.75 329.76 Q2066.02 334.158 2068.39 336.473 Q2070.77 338.765 2075.01 338.765 Q2077.46 338.765 2079.75 338.163 Q2082.07 337.561 2084.33 336.357 L2084.33 340.385 Q2082.04 341.357 2079.64 341.867 Q2077.23 342.376 2074.75 342.376 Q2068.55 342.376 2064.91 338.765 Q2061.3 335.154 2061.3 328.996 Q2061.3 322.631 2064.73 318.904 Q2068.18 315.154 2074.01 315.154 Q2079.24 315.154 2082.27 318.533 Q2085.33 321.89 2085.33 327.677 M2081.07 326.427 Q2081.02 322.932 2079.1 320.848 Q2077.2 318.765 2074.06 318.765 Q2070.49 318.765 2068.34 320.779 Q2066.21 322.793 2065.89 326.45 L2081.07 326.427 Z" fill="#000000" fill-rule="nonzero" fill-opacity="1"></path><path clip-path="url(#clip960)" d="M2122.41 319.76 Q2121.7 319.344 2120.84 319.158 Q2120.01 318.95 2118.99 318.95 Q2115.38 318.95 2113.43 321.311 Q2111.51 323.649 2111.51 328.047 L2111.51 341.705 L2107.23 341.705 L2107.23 315.779 L2111.51 315.779 L2111.51 319.807 Q2112.85 317.446 2115.01 316.311 Q2117.16 315.154 2120.24 315.154 Q2120.68 315.154 2121.21 315.223 Q2121.74 315.27 2122.39 315.385 L2122.41 319.76 Z" fill="#000000" fill-rule="nonzero" fill-opacity="1"></path><path clip-path="url(#clip960)" d="M2138.66 328.672 Q2133.5 328.672 2131.51 329.853 Q2129.52 331.033 2129.52 333.881 Q2129.52 336.149 2131 337.492 Q2132.51 338.811 2135.07 338.811 Q2138.62 338.811 2140.75 336.311 Q2142.9 333.788 2142.9 329.621 L2142.9 328.672 L2138.66 328.672 M2147.16 326.913 L2147.16 341.705 L2142.9 341.705 L2142.9 337.769 Q2141.44 340.131 2139.26 341.265 Q2137.09 342.376 2133.94 342.376 Q2129.96 342.376 2127.6 340.154 Q2125.26 337.908 2125.26 334.158 Q2125.26 329.783 2128.18 327.561 Q2131.12 325.339 2136.93 325.339 L2142.9 325.339 L2142.9 324.922 Q2142.9 321.983 2140.95 320.385 Q2139.03 318.765 2135.54 318.765 Q2133.32 318.765 2131.21 319.297 Q2129.1 319.83 2127.16 320.895 L2127.16 316.959 Q2129.5 316.057 2131.7 315.617 Q2133.89 315.154 2135.98 315.154 Q2141.6 315.154 2144.38 318.071 Q2147.16 320.987 2147.16 326.913 Z" fill="#000000" fill-rule="nonzero" fill-opacity="1"></path><path clip-path="url(#clip960)" d="M2153.45 315.779 L2157.71 315.779 L2163.04 336.01 L2168.34 315.779 L2173.36 315.779 L2178.69 336.01 L2183.99 315.779 L2188.25 315.779 L2181.46 341.705 L2176.44 341.705 L2170.86 320.455 L2165.26 341.705 L2160.24 341.705 L2153.45 315.779 Z" fill="#000000" fill-rule="nonzero" fill-opacity="1"></path><polyline clip-path="url(#clip960)" style="stroke:#008000; stroke-linecap:round; stroke-linejoin:round; stroke-width:4; stroke-opacity:1; fill:none" points="1752.78,376.265 1892.01,376.265 "></polyline>
<path clip-path="url(#clip960)" d="M1933.64 368.383 L1933.64 372.411 Q1931.83 371.485 1929.89 371.022 Q1927.95 370.559 1925.86 370.559 Q1922.69 370.559 1921.09 371.531 Q1919.52 372.503 1919.52 374.448 Q1919.52 375.929 1920.65 376.785 Q1921.79 377.619 1925.21 378.383 L1926.67 378.707 Q1931.21 379.679 1933.11 381.461 Q1935.03 383.221 1935.03 386.392 Q1935.03 390.003 1932.16 392.109 Q1929.31 394.216 1924.31 394.216 Q1922.23 394.216 1919.96 393.799 Q1917.71 393.406 1915.21 392.596 L1915.21 388.197 Q1917.58 389.424 1919.87 390.049 Q1922.16 390.651 1924.4 390.651 Q1927.41 390.651 1929.03 389.633 Q1930.65 388.591 1930.65 386.716 Q1930.65 384.98 1929.47 384.054 Q1928.32 383.128 1924.36 382.272 L1922.88 381.924 Q1918.92 381.091 1917.16 379.378 Q1915.4 377.642 1915.4 374.633 Q1915.4 370.975 1917.99 368.985 Q1920.59 366.994 1925.35 366.994 Q1927.71 366.994 1929.8 367.341 Q1931.88 367.688 1933.64 368.383 Z" fill="#000000" fill-rule="nonzero" fill-opacity="1"></path><path clip-path="url(#clip960)" d="M1941.37 383.313 L1941.37 367.619 L1945.63 367.619 L1945.63 383.151 Q1945.63 386.832 1947.07 388.684 Q1948.5 390.512 1951.37 390.512 Q1954.82 390.512 1956.81 388.313 Q1958.83 386.114 1958.83 382.318 L1958.83 367.619 L1963.08 367.619 L1963.08 393.545 L1958.83 393.545 L1958.83 389.563 Q1957.27 391.924 1955.21 393.082 Q1953.18 394.216 1950.47 394.216 Q1946 394.216 1943.69 391.438 Q1941.37 388.66 1941.37 383.313 M1952.09 366.994 L1952.09 366.994 Z" fill="#000000" fill-rule="nonzero" fill-opacity="1"></path><path clip-path="url(#clip960)" d="M1986.88 371.6 Q1986.16 371.184 1985.31 370.998 Q1984.47 370.79 1983.46 370.79 Q1979.84 370.79 1977.9 373.151 Q1975.98 375.489 1975.98 379.887 L1975.98 393.545 L1971.7 393.545 L1971.7 367.619 L1975.98 367.619 L1975.98 371.647 Q1977.32 369.286 1979.47 368.151 Q1981.63 366.994 1984.71 366.994 Q1985.14 366.994 1985.68 367.063 Q1986.21 367.11 1986.86 367.225 L1986.88 371.6 Z" fill="#000000" fill-rule="nonzero" fill-opacity="1"></path><path clip-path="url(#clip960)" d="M2004.47 357.526 L2004.47 361.068 L2000.4 361.068 Q1998.11 361.068 1997.21 361.994 Q1996.33 362.92 1996.33 365.327 L1996.33 367.619 L2003.34 367.619 L2003.34 370.929 L1996.33 370.929 L1996.33 393.545 L1992.04 393.545 L1992.04 370.929 L1987.97 370.929 L1987.97 367.619 L1992.04 367.619 L1992.04 365.813 Q1992.04 361.485 1994.06 359.517 Q1996.07 357.526 2000.45 357.526 L2004.47 357.526 Z" fill="#000000" fill-rule="nonzero" fill-opacity="1"></path><path clip-path="url(#clip960)" d="M2019.82 380.512 Q2014.66 380.512 2012.67 381.693 Q2010.68 382.873 2010.68 385.721 Q2010.68 387.989 2012.16 389.332 Q2013.66 390.651 2016.23 390.651 Q2019.77 390.651 2021.9 388.151 Q2024.06 385.628 2024.06 381.461 L2024.06 380.512 L2019.82 380.512 M2028.32 378.753 L2028.32 393.545 L2024.06 393.545 L2024.06 389.609 Q2022.6 391.971 2020.42 393.105 Q2018.25 394.216 2015.1 394.216 Q2011.12 394.216 2008.76 391.994 Q2006.42 389.748 2006.42 385.998 Q2006.42 381.623 2009.33 379.401 Q2012.27 377.179 2018.08 377.179 L2024.06 377.179 L2024.06 376.762 Q2024.06 373.823 2022.11 372.225 Q2020.19 370.605 2016.7 370.605 Q2014.47 370.605 2012.37 371.137 Q2010.26 371.67 2008.32 372.735 L2008.32 368.799 Q2010.65 367.897 2012.85 367.457 Q2015.05 366.994 2017.14 366.994 Q2022.76 366.994 2025.54 369.911 Q2028.32 372.827 2028.32 378.753 Z" fill="#000000" fill-rule="nonzero" fill-opacity="1"></path><path clip-path="url(#clip960)" d="M2055.75 368.614 L2055.75 372.596 Q2053.94 371.6 2052.11 371.114 Q2050.31 370.605 2048.45 370.605 Q2044.31 370.605 2042.02 373.244 Q2039.73 375.86 2039.73 380.605 Q2039.73 385.35 2042.02 387.989 Q2044.31 390.605 2048.45 390.605 Q2050.31 390.605 2052.11 390.119 Q2053.94 389.609 2055.75 388.614 L2055.75 392.549 Q2053.96 393.383 2052.04 393.799 Q2050.14 394.216 2047.99 394.216 Q2042.14 394.216 2038.69 390.535 Q2035.24 386.855 2035.24 380.605 Q2035.24 374.262 2038.71 370.628 Q2042.2 366.994 2048.27 366.994 Q2050.24 366.994 2052.11 367.411 Q2053.99 367.804 2055.75 368.614 Z" fill="#000000" fill-rule="nonzero" fill-opacity="1"></path><path clip-path="url(#clip960)" d="M2085.33 379.517 L2085.33 381.6 L2065.75 381.6 Q2066.02 385.998 2068.39 388.313 Q2070.77 390.605 2075.01 390.605 Q2077.46 390.605 2079.75 390.003 Q2082.07 389.401 2084.33 388.197 L2084.33 392.225 Q2082.04 393.197 2079.64 393.707 Q2077.23 394.216 2074.75 394.216 Q2068.55 394.216 2064.91 390.605 Q2061.3 386.994 2061.3 380.836 Q2061.3 374.471 2064.73 370.744 Q2068.18 366.994 2074.01 366.994 Q2079.24 366.994 2082.27 370.373 Q2085.33 373.73 2085.33 379.517 M2081.07 378.267 Q2081.02 374.772 2079.1 372.688 Q2077.2 370.605 2074.06 370.605 Q2070.49 370.605 2068.34 372.619 Q2066.21 374.633 2065.89 378.29 L2081.07 378.267 Z" fill="#000000" fill-rule="nonzero" fill-opacity="1"></path><path clip-path="url(#clip960)" d="M2107.39 367.619 L2111.65 367.619 L2111.65 393.545 L2107.39 393.545 L2107.39 367.619 M2107.39 357.526 L2111.65 357.526 L2111.65 362.92 L2107.39 362.92 L2107.39 357.526 Z" fill="#000000" fill-rule="nonzero" fill-opacity="1"></path><path clip-path="url(#clip960)" d="M2142.11 377.897 L2142.11 393.545 L2137.85 393.545 L2137.85 378.035 Q2137.85 374.355 2136.42 372.526 Q2134.98 370.698 2132.11 370.698 Q2128.66 370.698 2126.67 372.897 Q2124.68 375.096 2124.68 378.892 L2124.68 393.545 L2120.4 393.545 L2120.4 367.619 L2124.68 367.619 L2124.68 371.647 Q2126.21 369.309 2128.27 368.151 Q2130.35 366.994 2133.06 366.994 Q2137.53 366.994 2139.82 369.772 Q2142.11 372.526 2142.11 377.897 Z" fill="#000000" fill-rule="nonzero" fill-opacity="1"></path><path clip-path="url(#clip960)" d="M2150.61 367.619 L2154.87 367.619 L2154.87 393.545 L2150.61 393.545 L2150.61 367.619 M2150.61 357.526 L2154.87 357.526 L2154.87 362.92 L2150.61 362.92 L2150.61 357.526 Z" fill="#000000" fill-rule="nonzero" fill-opacity="1"></path><path clip-path="url(#clip960)" d="M2167.99 360.258 L2167.99 367.619 L2176.76 367.619 L2176.76 370.929 L2167.99 370.929 L2167.99 385.003 Q2167.99 388.174 2168.85 389.077 Q2169.73 389.98 2172.39 389.98 L2176.76 389.98 L2176.76 393.545 L2172.39 393.545 Q2167.46 393.545 2165.58 391.716 Q2163.71 389.864 2163.71 385.003 L2163.71 370.929 L2160.58 370.929 L2160.58 367.619 L2163.71 367.619 L2163.71 360.258 L2167.99 360.258 Z" fill="#000000" fill-rule="nonzero" fill-opacity="1"></path><path clip-path="url(#clip960)" d="M2182.37 367.619 L2186.63 367.619 L2186.63 393.545 L2182.37 393.545 L2182.37 367.619 M2182.37 357.526 L2186.63 357.526 L2186.63 362.92 L2182.37 362.92 L2182.37 357.526 Z" fill="#000000" fill-rule="nonzero" fill-opacity="1"></path><path clip-path="url(#clip960)" d="M2207.32 380.512 Q2202.16 380.512 2200.17 381.693 Q2198.18 382.873 2198.18 385.721 Q2198.18 387.989 2199.66 389.332 Q2201.16 390.651 2203.73 390.651 Q2207.27 390.651 2209.4 388.151 Q2211.56 385.628 2211.56 381.461 L2211.56 380.512 L2207.32 380.512 M2215.81 378.753 L2215.81 393.545 L2211.56 393.545 L2211.56 389.609 Q2210.1 391.971 2207.92 393.105 Q2205.75 394.216 2202.6 394.216 Q2198.62 394.216 2196.25 391.994 Q2193.92 389.748 2193.92 385.998 Q2193.92 381.623 2196.83 379.401 Q2199.77 377.179 2205.58 377.179 L2211.56 377.179 L2211.56 376.762 Q2211.56 373.823 2209.61 372.225 Q2207.69 370.605 2204.19 370.605 Q2201.97 370.605 2199.87 371.137 Q2197.76 371.67 2195.82 372.735 L2195.82 368.799 Q2198.15 367.897 2200.35 367.457 Q2202.55 366.994 2204.63 366.994 Q2210.26 366.994 2213.04 369.911 Q2215.81 372.827 2215.81 378.753 Z" fill="#000000" fill-rule="nonzero" fill-opacity="1"></path><path clip-path="url(#clip960)" d="M2224.59 357.526 L2228.85 357.526 L2228.85 393.545 L2224.59 393.545 L2224.59 357.526 Z" fill="#000000" fill-rule="nonzero" fill-opacity="1"></path><path clip-path="url(#clip960)" d="M2259.94 379.517 L2259.94 381.6 L2240.35 381.6 Q2240.63 385.998 2242.99 388.313 Q2245.37 390.605 2249.61 390.605 Q2252.06 390.605 2254.36 390.003 Q2256.67 389.401 2258.94 388.197 L2258.94 392.225 Q2256.65 393.197 2254.24 393.707 Q2251.83 394.216 2249.36 394.216 Q2243.15 394.216 2239.52 390.605 Q2235.91 386.994 2235.91 380.836 Q2235.91 374.471 2239.33 370.744 Q2242.78 366.994 2248.62 366.994 Q2253.85 366.994 2256.88 370.373 Q2259.94 373.73 2259.94 379.517 M2255.68 378.267 Q2255.63 374.772 2253.71 372.688 Q2251.81 370.605 2248.66 370.605 Q2245.1 370.605 2242.94 372.619 Q2240.81 374.633 2240.49 378.29 L2255.68 378.267 Z" fill="#000000" fill-rule="nonzero" fill-opacity="1"></path><polyline clip-path="url(#clip960)" style="stroke:#000000; stroke-linecap:round; stroke-linejoin:round; stroke-width:4; stroke-opacity:1; fill:none" stroke-dasharray="16, 10" points="1752.78,428.105 1892.01,428.105 "></polyline>
<path clip-path="url(#clip960)" d="M1933.64 420.223 L1933.64 424.251 Q1931.83 423.325 1929.89 422.862 Q1927.95 422.399 1925.86 422.399 Q1922.69 422.399 1921.09 423.371 Q1919.52 424.343 1919.52 426.288 Q1919.52 427.769 1920.65 428.625 Q1921.79 429.459 1925.21 430.223 L1926.67 430.547 Q1931.21 431.519 1933.11 433.301 Q1935.03 435.061 1935.03 438.232 Q1935.03 441.843 1932.16 443.949 Q1929.31 446.056 1924.31 446.056 Q1922.23 446.056 1919.96 445.639 Q1917.71 445.246 1915.21 444.436 L1915.21 440.037 Q1917.58 441.264 1919.87 441.889 Q1922.16 442.491 1924.4 442.491 Q1927.41 442.491 1929.03 441.473 Q1930.65 440.431 1930.65 438.556 Q1930.65 436.82 1929.47 435.894 Q1928.32 434.968 1924.36 434.112 L1922.88 433.764 Q1918.92 432.931 1917.16 431.218 Q1915.4 429.482 1915.4 426.473 Q1915.4 422.815 1917.99 420.825 Q1920.59 418.834 1925.35 418.834 Q1927.71 418.834 1929.8 419.181 Q1931.88 419.528 1933.64 420.223 Z" fill="#000000" fill-rule="nonzero" fill-opacity="1"></path><path clip-path="url(#clip960)" d="M1941.37 435.153 L1941.37 419.459 L1945.63 419.459 L1945.63 434.991 Q1945.63 438.672 1947.07 440.524 Q1948.5 442.352 1951.37 442.352 Q1954.82 442.352 1956.81 440.153 Q1958.83 437.954 1958.83 434.158 L1958.83 419.459 L1963.08 419.459 L1963.08 445.385 L1958.83 445.385 L1958.83 441.403 Q1957.27 443.764 1955.21 444.922 Q1953.18 446.056 1950.47 446.056 Q1946 446.056 1943.69 443.278 Q1941.37 440.5 1941.37 435.153 M1952.09 418.834 L1952.09 418.834 Z" fill="#000000" fill-rule="nonzero" fill-opacity="1"></path><path clip-path="url(#clip960)" d="M1986.88 423.44 Q1986.16 423.024 1985.31 422.838 Q1984.47 422.63 1983.46 422.63 Q1979.84 422.63 1977.9 424.991 Q1975.98 427.329 1975.98 431.727 L1975.98 445.385 L1971.7 445.385 L1971.7 419.459 L1975.98 419.459 L1975.98 423.487 Q1977.32 421.126 1979.47 419.991 Q1981.63 418.834 1984.71 418.834 Q1985.14 418.834 1985.68 418.903 Q1986.21 418.95 1986.86 419.065 L1986.88 423.44 Z" fill="#000000" fill-rule="nonzero" fill-opacity="1"></path><path clip-path="url(#clip960)" d="M2004.47 409.366 L2004.47 412.908 L2000.4 412.908 Q1998.11 412.908 1997.21 413.834 Q1996.33 414.76 1996.33 417.167 L1996.33 419.459 L2003.34 419.459 L2003.34 422.769 L1996.33 422.769 L1996.33 445.385 L1992.04 445.385 L1992.04 422.769 L1987.97 422.769 L1987.97 419.459 L1992.04 419.459 L1992.04 417.653 Q1992.04 413.325 1994.06 411.357 Q1996.07 409.366 2000.45 409.366 L2004.47 409.366 Z" fill="#000000" fill-rule="nonzero" fill-opacity="1"></path><path clip-path="url(#clip960)" d="M2019.82 432.352 Q2014.66 432.352 2012.67 433.533 Q2010.68 434.713 2010.68 437.561 Q2010.68 439.829 2012.16 441.172 Q2013.66 442.491 2016.23 442.491 Q2019.77 442.491 2021.9 439.991 Q2024.06 437.468 2024.06 433.301 L2024.06 432.352 L2019.82 432.352 M2028.32 430.593 L2028.32 445.385 L2024.06 445.385 L2024.06 441.449 Q2022.6 443.811 2020.42 444.945 Q2018.25 446.056 2015.1 446.056 Q2011.12 446.056 2008.76 443.834 Q2006.42 441.588 2006.42 437.838 Q2006.42 433.463 2009.33 431.241 Q2012.27 429.019 2018.08 429.019 L2024.06 429.019 L2024.06 428.602 Q2024.06 425.663 2022.11 424.065 Q2020.19 422.445 2016.7 422.445 Q2014.47 422.445 2012.37 422.977 Q2010.26 423.51 2008.32 424.575 L2008.32 420.639 Q2010.65 419.737 2012.85 419.297 Q2015.05 418.834 2017.14 418.834 Q2022.76 418.834 2025.54 421.751 Q2028.32 424.667 2028.32 430.593 Z" fill="#000000" fill-rule="nonzero" fill-opacity="1"></path><path clip-path="url(#clip960)" d="M2055.75 420.454 L2055.75 424.436 Q2053.94 423.44 2052.11 422.954 Q2050.31 422.445 2048.45 422.445 Q2044.31 422.445 2042.02 425.084 Q2039.73 427.7 2039.73 432.445 Q2039.73 437.19 2042.02 439.829 Q2044.31 442.445 2048.45 442.445 Q2050.31 442.445 2052.11 441.959 Q2053.94 441.449 2055.75 440.454 L2055.75 444.389 Q2053.96 445.223 2052.04 445.639 Q2050.14 446.056 2047.99 446.056 Q2042.14 446.056 2038.69 442.375 Q2035.24 438.695 2035.24 432.445 Q2035.24 426.102 2038.71 422.468 Q2042.2 418.834 2048.27 418.834 Q2050.24 418.834 2052.11 419.251 Q2053.99 419.644 2055.75 420.454 Z" fill="#000000" fill-rule="nonzero" fill-opacity="1"></path><path clip-path="url(#clip960)" d="M2085.33 431.357 L2085.33 433.44 L2065.75 433.44 Q2066.02 437.838 2068.39 440.153 Q2070.77 442.445 2075.01 442.445 Q2077.46 442.445 2079.75 441.843 Q2082.07 441.241 2084.33 440.037 L2084.33 444.065 Q2082.04 445.037 2079.64 445.547 Q2077.23 446.056 2074.75 446.056 Q2068.55 446.056 2064.91 442.445 Q2061.3 438.834 2061.3 432.676 Q2061.3 426.311 2064.73 422.584 Q2068.18 418.834 2074.01 418.834 Q2079.24 418.834 2082.27 422.213 Q2085.33 425.57 2085.33 431.357 M2081.07 430.107 Q2081.02 426.612 2079.1 424.528 Q2077.2 422.445 2074.06 422.445 Q2070.49 422.445 2068.34 424.459 Q2066.21 426.473 2065.89 430.13 L2081.07 430.107 Z" fill="#000000" fill-rule="nonzero" fill-opacity="1"></path><path clip-path="url(#clip960)" d="M2117.44 422.445 Q2114.01 422.445 2112.02 425.13 Q2110.03 427.792 2110.03 432.445 Q2110.03 437.098 2112 439.783 Q2113.99 442.445 2117.44 442.445 Q2120.84 442.445 2122.83 439.76 Q2124.82 437.075 2124.82 432.445 Q2124.82 427.838 2122.83 425.153 Q2120.84 422.445 2117.44 422.445 M2117.44 418.834 Q2122.99 418.834 2126.16 422.445 Q2129.33 426.056 2129.33 432.445 Q2129.33 438.811 2126.16 442.445 Q2122.99 446.056 2117.44 446.056 Q2111.86 446.056 2108.69 442.445 Q2105.54 438.811 2105.54 432.445 Q2105.54 426.056 2108.69 422.445 Q2111.86 418.834 2117.44 418.834 Z" fill="#000000" fill-rule="nonzero" fill-opacity="1"></path><path clip-path="url(#clip960)" d="M2153.45 432.121 Q2153.45 427.491 2151.53 424.945 Q2149.63 422.399 2146.19 422.399 Q2142.76 422.399 2140.84 424.945 Q2138.94 427.491 2138.94 432.121 Q2138.94 436.727 2140.84 439.274 Q2142.76 441.82 2146.19 441.82 Q2149.63 441.82 2151.53 439.274 Q2153.45 436.727 2153.45 432.121 M2157.71 442.167 Q2157.71 448.787 2154.77 452.005 Q2151.83 455.246 2145.77 455.246 Q2143.52 455.246 2141.53 454.898 Q2139.54 454.574 2137.67 453.88 L2137.67 449.736 Q2139.54 450.755 2141.37 451.241 Q2143.2 451.727 2145.1 451.727 Q2149.29 451.727 2151.37 449.528 Q2153.45 447.352 2153.45 442.931 L2153.45 440.824 Q2152.13 443.116 2150.07 444.25 Q2148.01 445.385 2145.14 445.385 Q2140.38 445.385 2137.46 441.75 Q2134.54 438.116 2134.54 432.121 Q2134.54 426.102 2137.46 422.468 Q2140.38 418.834 2145.14 418.834 Q2148.01 418.834 2150.07 419.968 Q2152.13 421.102 2153.45 423.394 L2153.45 419.459 L2157.71 419.459 L2157.71 442.167 Z" fill="#000000" fill-rule="nonzero" fill-opacity="1"></path><path clip-path="url(#clip960)" d="M2183.55 432.121 Q2183.55 427.491 2181.63 424.945 Q2179.73 422.399 2176.28 422.399 Q2172.85 422.399 2170.93 424.945 Q2169.03 427.491 2169.03 432.121 Q2169.03 436.727 2170.93 439.274 Q2172.85 441.82 2176.28 441.82 Q2179.73 441.82 2181.63 439.274 Q2183.55 436.727 2183.55 432.121 M2187.81 442.167 Q2187.81 448.787 2184.87 452.005 Q2181.93 455.246 2175.86 455.246 Q2173.62 455.246 2171.63 454.898 Q2169.63 454.574 2167.76 453.88 L2167.76 449.736 Q2169.63 450.755 2171.46 451.241 Q2173.29 451.727 2175.19 451.727 Q2179.38 451.727 2181.46 449.528 Q2183.55 447.352 2183.55 442.931 L2183.55 440.824 Q2182.23 443.116 2180.17 444.25 Q2178.11 445.385 2175.24 445.385 Q2170.47 445.385 2167.55 441.75 Q2164.63 438.116 2164.63 432.121 Q2164.63 426.102 2167.55 422.468 Q2170.47 418.834 2175.24 418.834 Q2178.11 418.834 2180.17 419.968 Q2182.23 421.102 2183.55 423.394 L2183.55 419.459 L2187.81 419.459 L2187.81 442.167 Z" fill="#000000" fill-rule="nonzero" fill-opacity="1"></path><path clip-path="url(#clip960)" d="M2216.76 424.436 Q2218.36 421.565 2220.58 420.2 Q2222.81 418.834 2225.81 418.834 Q2229.87 418.834 2232.06 421.681 Q2234.26 424.505 2234.26 429.737 L2234.26 445.385 L2229.98 445.385 L2229.98 429.875 Q2229.98 426.149 2228.66 424.343 Q2227.34 422.538 2224.63 422.538 Q2221.32 422.538 2219.4 424.737 Q2217.48 426.936 2217.48 430.732 L2217.48 445.385 L2213.2 445.385 L2213.2 429.875 Q2213.2 426.125 2211.88 424.343 Q2210.56 422.538 2207.81 422.538 Q2204.54 422.538 2202.62 424.76 Q2200.7 426.959 2200.7 430.732 L2200.7 445.385 L2196.42 445.385 L2196.42 419.459 L2200.7 419.459 L2200.7 423.487 Q2202.16 421.102 2204.19 419.968 Q2206.23 418.834 2209.03 418.834 Q2211.86 418.834 2213.82 420.269 Q2215.81 421.704 2216.76 424.436 Z" fill="#000000" fill-rule="nonzero" fill-opacity="1"></path></svg>