<svg xmlns="http://www.w3.org/2000/svg" xmlns:xlink="http://www.w3.org/1999/xlink" width="600" height="400" viewBox="0 0 2400 1600">
<defs>
  <clipPath id="clip980">
    <rect x="0" y="0" width="2400" height="1600"></rect>
  </clipPath>
</defs>
<path clip-path="url(#clip980)" d="M0 1600 L2400 1600 L2400 0 L0 0  Z" fill="#f8f8ff" fill-rule="evenodd" fill-opacity="1"></path>
<defs>
  <clipPath id="clip981">
    <rect x="480" y="0" width="1681" height="1600"></rect>
  </clipPath>
</defs>
<path clip-path="url(#clip980)" d="M265.445 1486.45 L2352.76 1486.45 L2352.76 123.472 L265.445 123.472  Z" fill="#f8f8ff" fill-rule="evenodd" fill-opacity="1"></path>
<defs>
  <clipPath id="clip982">
    <rect x="265" y="123" width="2088" height="1364"></rect>
  </clipPath>
</defs>
<polyline clip-path="url(#clip982)" style="stroke:#000000; stroke-linecap:round; stroke-linejoin:round; stroke-width:2; stroke-opacity:0.1; fill:none" points="303.792,1486.45 303.792,123.472 "></polyline>
<polyline clip-path="url(#clip982)" style="stroke:#000000; stroke-linecap:round; stroke-linejoin:round; stroke-width:2; stroke-opacity:0.1; fill:none" points="718.352,1486.45 718.352,123.472 "></polyline>
<polyline clip-path="url(#clip982)" style="stroke:#000000; stroke-linecap:round; stroke-linejoin:round; stroke-width:2; stroke-opacity:0.1; fill:none" points="1132.91,1486.45 1132.91,123.472 "></polyline>
<polyline clip-path="url(#clip982)" style="stroke:#000000; stroke-linecap:round; stroke-linejoin:round; stroke-width:2; stroke-opacity:0.1; fill:none" points="1547.47,1486.45 1547.47,123.472 "></polyline>
<polyline clip-path="url(#clip982)" style="stroke:#000000; stroke-linecap:round; stroke-linejoin:round; stroke-width:2; stroke-opacity:0.1; fill:none" points="1962.03,1486.45 1962.03,123.472 "></polyline>
<polyline clip-path="url(#clip980)" style="stroke:#000000; stroke-linecap:round; stroke-linejoin:round; stroke-width:4; stroke-opacity:1; fill:none" points="265.445,1486.45 2352.76,1486.45 "></polyline>
<polyline clip-path="url(#clip980)" style="stroke:#000000; stroke-linecap:round; stroke-linejoin:round; stroke-width:4; stroke-opacity:1; fill:none" points="303.792,1486.45 303.792,1467.55 "></polyline>
<polyline clip-path="url(#clip980)" style="stroke:#000000; stroke-linecap:round; stroke-linejoin:round; stroke-width:4; stroke-opacity:1; fill:none" points="718.352,1486.45 718.352,1467.55 "></polyline>
<polyline clip-path="url(#clip980)" style="stroke:#000000; stroke-linecap:round; stroke-linejoin:round; stroke-width:4; stroke-opacity:1; fill:none" points="1132.91,1486.45 1132.91,1467.55 "></polyline>
<polyline clip-path="url(#clip980)" style="stroke:#000000; stroke-linecap:round; stroke-linejoin:round; stroke-width:4; stroke-opacity:1; fill:none" points="1547.47,1486.45 1547.47,1467.55 "></polyline>
<polyline clip-path="url(#clip980)" style="stroke:#000000; stroke-linecap:round; stroke-linejoin:round; stroke-width:4; stroke-opacity:1; fill:none" points="1962.03,1486.45 1962.03,1467.55 "></polyline>
<path clip-path="url(#clip980)" d="M303.792 1517.37 Q300.18 1517.37 298.352 1520.93 Q296.546 1524.47 296.546 1531.6 Q296.546 1538.71 298.352 1542.27 Q300.18 1545.82 303.792 1545.82 Q307.426 1545.82 309.231 1542.27 Q311.06 1538.71 311.06 1531.6 Q311.06 1524.47 309.231 1520.93 Q307.426 1517.37 303.792 1517.37 M303.792 1513.66 Q309.602 1513.66 312.657 1518.27 Q315.736 1522.85 315.736 1531.6 Q315.736 1540.33 312.657 1544.94 Q309.602 1549.52 303.792 1549.52 Q297.981 1549.52 294.903 1544.94 Q291.847 1540.33 291.847 1531.6 Q291.847 1522.85 294.903 1518.27 Q297.981 1513.66 303.792 1513.66 Z" fill="#000000" fill-rule="nonzero" fill-opacity="1"></path><path clip-path="url(#clip980)" d="M697.125 1544.91 L713.444 1544.91 L713.444 1548.85 L691.5 1548.85 L691.5 1544.91 Q694.162 1542.16 698.745 1537.53 Q703.352 1532.88 704.532 1531.53 Q706.778 1529.01 707.657 1527.27 Q708.56 1525.51 708.56 1523.82 Q708.56 1521.07 706.616 1519.33 Q704.695 1517.6 701.593 1517.6 Q699.394 1517.6 696.94 1518.36 Q694.509 1519.13 691.732 1520.68 L691.732 1515.95 Q694.556 1514.82 697.009 1514.24 Q699.463 1513.66 701.5 1513.66 Q706.87 1513.66 710.065 1516.35 Q713.259 1519.03 713.259 1523.52 Q713.259 1525.65 712.449 1527.57 Q711.662 1529.47 709.556 1532.07 Q708.977 1532.74 705.875 1535.95 Q702.773 1539.15 697.125 1544.91 Z" fill="#000000" fill-rule="nonzero" fill-opacity="1"></path><path clip-path="url(#clip980)" d="M733.259 1517.37 Q729.648 1517.37 727.819 1520.93 Q726.014 1524.47 726.014 1531.6 Q726.014 1538.71 727.819 1542.27 Q729.648 1545.82 733.259 1545.82 Q736.893 1545.82 738.699 1542.27 Q740.528 1538.71 740.528 1531.6 Q740.528 1524.47 738.699 1520.93 Q736.893 1517.37 733.259 1517.37 M733.259 1513.66 Q739.069 1513.66 742.125 1518.27 Q745.204 1522.85 745.204 1531.6 Q745.204 1540.33 742.125 1544.94 Q739.069 1549.52 733.259 1549.52 Q727.449 1549.52 724.37 1544.94 Q721.315 1540.33 721.315 1531.6 Q721.315 1522.85 724.37 1518.27 Q727.449 1513.66 733.259 1513.66 Z" fill="#000000" fill-rule="nonzero" fill-opacity="1"></path><path clip-path="url(#clip980)" d="M1121.08 1518.36 L1109.28 1536.81 L1121.08 1536.81 L1121.08 1518.36 M1119.86 1514.29 L1125.74 1514.29 L1125.74 1536.81 L1130.67 1536.81 L1130.67 1540.7 L1125.74 1540.7 L1125.74 1548.85 L1121.08 1548.85 L1121.08 1540.7 L1105.48 1540.7 L1105.48 1536.19 L1119.86 1514.29 Z" fill="#000000" fill-rule="nonzero" fill-opacity="1"></path><path clip-path="url(#clip980)" d="M1148.4 1517.37 Q1144.79 1517.37 1142.96 1520.93 Q1141.15 1524.47 1141.15 1531.6 Q1141.15 1538.71 1142.96 1542.27 Q1144.79 1545.82 1148.4 1545.82 Q1152.03 1545.82 1153.84 1542.27 Q1155.67 1538.71 1155.67 1531.6 Q1155.67 1524.47 1153.84 1520.93 Q1152.03 1517.37 1148.4 1517.37 M1148.4 1513.66 Q1154.21 1513.66 1157.26 1518.27 Q1160.34 1522.85 1160.34 1531.6 Q1160.34 1540.33 1157.26 1544.94 Q1154.21 1549.52 1148.4 1549.52 Q1142.59 1549.52 1139.51 1544.94 Q1136.45 1540.33 1136.45 1531.6 Q1136.45 1522.85 1139.51 1518.27 Q1142.59 1513.66 1148.4 1513.66 Z" fill="#000000" fill-rule="nonzero" fill-opacity="1"></path><path clip-path="url(#clip980)" d="M1532.88 1529.7 Q1529.73 1529.7 1527.88 1531.86 Q1526.05 1534.01 1526.05 1537.76 Q1526.05 1541.49 1527.88 1543.66 Q1529.73 1545.82 1532.88 1545.82 Q1536.03 1545.82 1537.85 1543.66 Q1539.71 1541.49 1539.71 1537.76 Q1539.71 1534.01 1537.85 1531.86 Q1536.03 1529.7 1532.88 1529.7 M1542.16 1515.05 L1542.16 1519.31 Q1540.4 1518.48 1538.6 1518.04 Q1536.81 1517.6 1535.05 1517.6 Q1530.42 1517.6 1527.97 1520.72 Q1525.54 1523.85 1525.19 1530.17 Q1526.56 1528.15 1528.62 1527.09 Q1530.68 1526 1533.16 1526 Q1538.36 1526 1541.37 1529.17 Q1544.41 1532.32 1544.41 1537.76 Q1544.41 1543.08 1541.26 1546.3 Q1538.11 1549.52 1532.88 1549.52 Q1526.88 1549.52 1523.71 1544.94 Q1520.54 1540.33 1520.54 1531.6 Q1520.54 1523.41 1524.43 1518.55 Q1528.32 1513.66 1534.87 1513.66 Q1536.63 1513.66 1538.41 1514.01 Q1540.22 1514.36 1542.16 1515.05 Z" fill="#000000" fill-rule="nonzero" fill-opacity="1"></path><path clip-path="url(#clip980)" d="M1562.46 1517.37 Q1558.85 1517.37 1557.02 1520.93 Q1555.22 1524.47 1555.22 1531.6 Q1555.22 1538.71 1557.02 1542.27 Q1558.85 1545.82 1562.46 1545.82 Q1566.1 1545.82 1567.9 1542.27 Q1569.73 1538.71 1569.73 1531.6 Q1569.73 1524.47 1567.9 1520.93 Q1566.1 1517.37 1562.46 1517.37 M1562.46 1513.66 Q1568.27 1513.66 1571.33 1518.27 Q1574.41 1522.85 1574.41 1531.6 Q1574.41 1540.33 1571.33 1544.94 Q1568.27 1549.52 1562.46 1549.52 Q1556.65 1549.52 1553.57 1544.94 Q1550.52 1540.33 1550.52 1531.6 Q1550.52 1522.85 1553.57 1518.27 Q1556.65 1513.66 1562.46 1513.66 Z" fill="#000000" fill-rule="nonzero" fill-opacity="1"></path><path clip-path="url(#clip980)" d="M1946.91 1532.44 Q1943.57 1532.44 1941.65 1534.22 Q1939.75 1536 1939.75 1539.13 Q1939.75 1542.25 1941.65 1544.03 Q1943.57 1545.82 1946.91 1545.82 Q1950.24 1545.82 1952.16 1544.03 Q1954.08 1542.23 1954.08 1539.13 Q1954.08 1536 1952.16 1534.22 Q1950.26 1532.44 1946.91 1532.44 M1942.23 1530.45 Q1939.22 1529.7 1937.53 1527.64 Q1935.86 1525.58 1935.86 1522.62 Q1935.86 1518.48 1938.8 1516.07 Q1941.77 1513.66 1946.91 1513.66 Q1952.07 1513.66 1955.01 1516.07 Q1957.95 1518.48 1957.95 1522.62 Q1957.95 1525.58 1956.26 1527.64 Q1954.59 1529.7 1951.6 1530.45 Q1954.98 1531.23 1956.86 1533.52 Q1958.76 1535.82 1958.76 1539.13 Q1958.76 1544.15 1955.68 1546.83 Q1952.62 1549.52 1946.91 1549.52 Q1941.19 1549.52 1938.11 1546.83 Q1935.05 1544.15 1935.05 1539.13 Q1935.05 1535.82 1936.95 1533.52 Q1938.85 1531.23 1942.23 1530.45 M1940.52 1523.06 Q1940.52 1525.75 1942.18 1527.25 Q1943.87 1528.76 1946.91 1528.76 Q1949.91 1528.76 1951.6 1527.25 Q1953.32 1525.75 1953.32 1523.06 Q1953.32 1520.38 1951.6 1518.87 Q1949.91 1517.37 1946.91 1517.37 Q1943.87 1517.37 1942.18 1518.87 Q1940.52 1520.38 1940.52 1523.06 Z" fill="#000000" fill-rule="nonzero" fill-opacity="1"></path><path clip-path="url(#clip980)" d="M1977.07 1517.37 Q1973.46 1517.37 1971.63 1520.93 Q1969.82 1524.47 1969.82 1531.6 Q1969.82 1538.71 1971.63 1542.27 Q1973.46 1545.82 1977.07 1545.82 Q1980.7 1545.82 1982.51 1542.27 Q1984.34 1538.71 1984.34 1531.6 Q1984.34 1524.47 1982.51 1520.93 Q1980.7 1517.37 1977.07 1517.37 M1977.07 1513.66 Q1982.88 1513.66 1985.93 1518.27 Q1989.01 1522.85 1989.01 1531.6 Q1989.01 1540.33 1985.93 1544.94 Q1982.88 1549.52 1977.07 1549.52 Q1971.26 1549.52 1968.18 1544.94 Q1965.12 1540.33 1965.12 1531.6 Q1965.12 1522.85 1968.18 1518.27 Q1971.26 1513.66 1977.07 1513.66 Z" fill="#000000" fill-rule="nonzero" fill-opacity="1"></path><polyline clip-path="url(#clip982)" style="stroke:#000000; stroke-linecap:round; stroke-linejoin:round; stroke-width:2; stroke-opacity:0.1; fill:none" points="265.445,1441.66 2352.76,1441.66 "></polyline>
<polyline clip-path="url(#clip982)" style="stroke:#000000; stroke-linecap:round; stroke-linejoin:round; stroke-width:2; stroke-opacity:0.1; fill:none" points="265.445,1002.45 2352.76,1002.45 "></polyline>
<polyline clip-path="url(#clip982)" style="stroke:#000000; stroke-linecap:round; stroke-linejoin:round; stroke-width:2; stroke-opacity:0.1; fill:none" points="265.445,563.246 2352.76,563.246 "></polyline>
<polyline clip-path="url(#clip982)" style="stroke:#000000; stroke-linecap:round; stroke-linejoin:round; stroke-width:2; stroke-opacity:0.1; fill:none" points="265.445,124.038 2352.76,124.038 "></polyline>
<polyline clip-path="url(#clip980)" style="stroke:#000000; stroke-linecap:round; stroke-linejoin:round; stroke-width:4; stroke-opacity:1; fill:none" points="265.445,1486.45 265.445,123.472 "></polyline>
<polyline clip-path="url(#clip980)" style="stroke:#000000; stroke-linecap:round; stroke-linejoin:round; stroke-width:4; stroke-opacity:1; fill:none" points="265.445,1441.66 284.342,1441.66 "></polyline>
<polyline clip-path="url(#clip980)" style="stroke:#000000; stroke-linecap:round; stroke-linejoin:round; stroke-width:4; stroke-opacity:1; fill:none" points="265.445,1002.45 284.342,1002.45 "></polyline>
<polyline clip-path="url(#clip980)" style="stroke:#000000; stroke-linecap:round; stroke-linejoin:round; stroke-width:4; stroke-opacity:1; fill:none" points="265.445,563.246 284.342,563.246 "></polyline>
<polyline clip-path="url(#clip980)" style="stroke:#000000; stroke-linecap:round; stroke-linejoin:round; stroke-width:4; stroke-opacity:1; fill:none" points="265.445,124.038 284.342,124.038 "></polyline>
<path clip-path="url(#clip980)" d="M129.862 1428.45 L118.056 1446.9 L129.862 1446.9 L129.862 1428.45 M128.635 1424.38 L134.515 1424.38 L134.515 1446.9 L139.445 1446.9 L139.445 1450.79 L134.515 1450.79 L134.515 1458.94 L129.862 1458.94 L129.862 1450.79 L114.26 1450.79 L114.26 1446.28 L128.635 1424.38 Z" fill="#000000" fill-rule="nonzero" fill-opacity="1"></path><path clip-path="url(#clip980)" d="M147.223 1424.38 L165.579 1424.38 L165.579 1428.32 L151.505 1428.32 L151.505 1436.79 Q152.524 1436.44 153.542 1436.28 Q154.561 1436.09 155.579 1436.09 Q161.366 1436.09 164.746 1439.26 Q168.126 1442.44 168.126 1447.85 Q168.126 1453.43 164.653 1456.53 Q161.181 1459.61 154.862 1459.61 Q152.686 1459.61 150.417 1459.24 Q148.172 1458.87 145.765 1458.13 L145.765 1453.43 Q147.848 1454.57 150.07 1455.12 Q152.292 1455.68 154.769 1455.68 Q158.774 1455.68 161.112 1453.57 Q163.45 1451.46 163.45 1447.85 Q163.45 1444.24 161.112 1442.13 Q158.774 1440.03 154.769 1440.03 Q152.894 1440.03 151.019 1440.44 Q149.167 1440.86 147.223 1441.74 L147.223 1424.38 Z" fill="#000000" fill-rule="nonzero" fill-opacity="1"></path><path clip-path="url(#clip980)" d="M187.338 1427.46 Q183.727 1427.46 181.899 1431.02 Q180.093 1434.57 180.093 1441.69 Q180.093 1448.8 181.899 1452.37 Q183.727 1455.91 187.338 1455.91 Q190.973 1455.91 192.778 1452.37 Q194.607 1448.8 194.607 1441.69 Q194.607 1434.57 192.778 1431.02 Q190.973 1427.46 187.338 1427.46 M187.338 1423.76 Q193.149 1423.76 196.204 1428.36 Q199.283 1432.94 199.283 1441.69 Q199.283 1450.42 196.204 1455.03 Q193.149 1459.61 187.338 1459.61 Q181.528 1459.61 178.45 1455.03 Q175.394 1450.42 175.394 1441.69 Q175.394 1432.94 178.45 1428.36 Q181.528 1423.76 187.338 1423.76 Z" fill="#000000" fill-rule="nonzero" fill-opacity="1"></path><path clip-path="url(#clip980)" d="M217.5 1427.46 Q213.889 1427.46 212.061 1431.02 Q210.255 1434.57 210.255 1441.69 Q210.255 1448.8 212.061 1452.37 Q213.889 1455.91 217.5 1455.91 Q221.135 1455.91 222.94 1452.37 Q224.769 1448.8 224.769 1441.69 Q224.769 1434.57 222.94 1431.02 Q221.135 1427.46 217.5 1427.46 M217.5 1423.76 Q223.31 1423.76 226.366 1428.36 Q229.445 1432.94 229.445 1441.69 Q229.445 1450.42 226.366 1455.03 Q223.31 1459.61 217.5 1459.61 Q211.69 1459.61 208.612 1455.03 Q205.556 1450.42 205.556 1441.69 Q205.556 1432.94 208.612 1428.36 Q211.69 1423.76 217.5 1423.76 Z" fill="#000000" fill-rule="nonzero" fill-opacity="1"></path><path clip-path="url(#clip980)" d="M117.061 985.173 L135.417 985.173 L135.417 989.108 L121.343 989.108 L121.343 997.58 Q122.362 997.233 123.38 997.071 Q124.399 996.886 125.418 996.886 Q131.205 996.886 134.584 1000.06 Q137.964 1003.23 137.964 1008.64 Q137.964 1014.22 134.492 1017.33 Q131.019 1020.4 124.7 1020.4 Q122.524 1020.4 120.255 1020.03 Q118.01 1019.66 115.603 1018.92 L115.603 1014.22 Q117.686 1015.36 119.908 1015.91 Q122.13 1016.47 124.607 1016.47 Q128.612 1016.47 130.95 1014.36 Q133.288 1012.26 133.288 1008.64 Q133.288 1005.03 130.95 1002.93 Q128.612 1000.82 124.607 1000.82 Q122.732 1000.82 120.857 1001.24 Q119.006 1001.65 117.061 1002.53 L117.061 985.173 Z" fill="#000000" fill-rule="nonzero" fill-opacity="1"></path><path clip-path="url(#clip980)" d="M157.177 988.252 Q153.566 988.252 151.737 991.816 Q149.931 995.358 149.931 1002.49 Q149.931 1009.59 151.737 1013.16 Q153.566 1016.7 157.177 1016.7 Q160.811 1016.7 162.616 1013.16 Q164.445 1009.59 164.445 1002.49 Q164.445 995.358 162.616 991.816 Q160.811 988.252 157.177 988.252 M157.177 984.548 Q162.987 984.548 166.042 989.154 Q169.121 993.738 169.121 1002.49 Q169.121 1011.21 166.042 1015.82 Q162.987 1020.4 157.177 1020.4 Q151.366 1020.4 148.288 1015.82 Q145.232 1011.21 145.232 1002.49 Q145.232 993.738 148.288 989.154 Q151.366 984.548 157.177 984.548 Z" fill="#000000" fill-rule="nonzero" fill-opacity="1"></path><path clip-path="url(#clip980)" d="M187.338 988.252 Q183.727 988.252 181.899 991.816 Q180.093 995.358 180.093 1002.49 Q180.093 1009.59 181.899 1013.16 Q183.727 1016.7 187.338 1016.7 Q190.973 1016.7 192.778 1013.16 Q194.607 1009.59 194.607 1002.49 Q194.607 995.358 192.778 991.816 Q190.973 988.252 187.338 988.252 M187.338 984.548 Q193.149 984.548 196.204 989.154 Q199.283 993.738 199.283 1002.49 Q199.283 1011.21 196.204 1015.82 Q193.149 1020.4 187.338 1020.4 Q181.528 1020.4 178.45 1015.82 Q175.394 1011.21 175.394 1002.49 Q175.394 993.738 178.45 989.154 Q181.528 984.548 187.338 984.548 Z" fill="#000000" fill-rule="nonzero" fill-opacity="1"></path><path clip-path="url(#clip980)" d="M217.5 988.252 Q213.889 988.252 212.061 991.816 Q210.255 995.358 210.255 1002.49 Q210.255 1009.59 212.061 1013.16 Q213.889 1016.7 217.5 1016.7 Q221.135 1016.7 222.94 1013.16 Q224.769 1009.59 224.769 1002.49 Q224.769 995.358 222.94 991.816 Q221.135 988.252 217.5 988.252 M217.5 984.548 Q223.31 984.548 226.366 989.154 Q229.445 993.738 229.445 1002.49 Q229.445 1011.21 226.366 1015.82 Q223.31 1020.4 217.5 1020.4 Q211.69 1020.4 208.612 1015.82 Q205.556 1011.21 205.556 1002.49 Q205.556 993.738 208.612 989.154 Q211.69 984.548 217.5 984.548 Z" fill="#000000" fill-rule="nonzero" fill-opacity="1"></path><path clip-path="url(#clip980)" d="M117.061 545.966 L135.417 545.966 L135.417 549.901 L121.343 549.901 L121.343 558.373 Q122.362 558.026 123.38 557.864 Q124.399 557.679 125.418 557.679 Q131.205 557.679 134.584 560.85 Q137.964 564.021 137.964 569.438 Q137.964 575.016 134.492 578.118 Q131.019 581.197 124.7 581.197 Q122.524 581.197 120.255 580.827 Q118.01 580.456 115.603 579.715 L115.603 575.016 Q117.686 576.151 119.908 576.706 Q122.13 577.262 124.607 577.262 Q128.612 577.262 130.95 575.155 Q133.288 573.049 133.288 569.438 Q133.288 565.827 130.95 563.72 Q128.612 561.614 124.607 561.614 Q122.732 561.614 120.857 562.03 Q119.006 562.447 117.061 563.327 L117.061 545.966 Z" fill="#000000" fill-rule="nonzero" fill-opacity="1"></path><path clip-path="url(#clip980)" d="M147.223 545.966 L165.579 545.966 L165.579 549.901 L151.505 549.901 L151.505 558.373 Q152.524 558.026 153.542 557.864 Q154.561 557.679 155.579 557.679 Q161.366 557.679 164.746 560.85 Q168.126 564.021 168.126 569.438 Q168.126 575.016 164.653 578.118 Q161.181 581.197 154.862 581.197 Q152.686 581.197 150.417 580.827 Q148.172 580.456 145.765 579.715 L145.765 575.016 Q147.848 576.151 150.07 576.706 Q152.292 577.262 154.769 577.262 Q158.774 577.262 161.112 575.155 Q163.45 573.049 163.45 569.438 Q163.45 565.827 161.112 563.72 Q158.774 561.614 154.769 561.614 Q152.894 561.614 151.019 562.03 Q149.167 562.447 147.223 563.327 L147.223 545.966 Z" fill="#000000" fill-rule="nonzero" fill-opacity="1"></path><path clip-path="url(#clip980)" d="M187.338 549.044 Q183.727 549.044 181.899 552.609 Q180.093 556.151 180.093 563.28 Q180.093 570.387 181.899 573.952 Q183.727 577.493 187.338 577.493 Q190.973 577.493 192.778 573.952 Q194.607 570.387 194.607 563.28 Q194.607 556.151 192.778 552.609 Q190.973 549.044 187.338 549.044 M187.338 545.341 Q193.149 545.341 196.204 549.947 Q199.283 554.53 199.283 563.28 Q199.283 572.007 196.204 576.614 Q193.149 581.197 187.338 581.197 Q181.528 581.197 178.45 576.614 Q175.394 572.007 175.394 563.28 Q175.394 554.53 178.45 549.947 Q181.528 545.341 187.338 545.341 Z" fill="#000000" fill-rule="nonzero" fill-opacity="1"></path><path clip-path="url(#clip980)" d="M217.5 549.044 Q213.889 549.044 212.061 552.609 Q210.255 556.151 210.255 563.28 Q210.255 570.387 212.061 573.952 Q213.889 577.493 217.5 577.493 Q221.135 577.493 222.94 573.952 Q224.769 570.387 224.769 563.28 Q224.769 556.151 222.94 552.609 Q221.135 549.044 217.5 549.044 M217.5 545.341 Q223.31 545.341 226.366 549.947 Q229.445 554.53 229.445 563.28 Q229.445 572.007 226.366 576.614 Q223.31 581.197 217.5 581.197 Q211.69 581.197 208.612 576.614 Q205.556 572.007 205.556 563.28 Q205.556 554.53 208.612 549.947 Q211.69 545.341 217.5 545.341 Z" fill="#000000" fill-rule="nonzero" fill-opacity="1"></path><path clip-path="url(#clip980)" d="M127.593 122.175 Q124.445 122.175 122.593 124.328 Q120.765 126.48 120.765 130.23 Q120.765 133.957 122.593 136.133 Q124.445 138.286 127.593 138.286 Q130.742 138.286 132.57 136.133 Q134.422 133.957 134.422 130.23 Q134.422 126.48 132.57 124.328 Q130.742 122.175 127.593 122.175 M136.876 107.522 L136.876 111.781 Q135.117 110.948 133.311 110.508 Q131.529 110.069 129.769 110.069 Q125.14 110.069 122.686 113.194 Q120.255 116.318 119.908 122.638 Q121.274 120.624 123.334 119.559 Q125.394 118.471 127.871 118.471 Q133.08 118.471 136.089 121.643 Q139.121 124.791 139.121 130.23 Q139.121 135.554 135.973 138.772 Q132.825 141.99 127.593 141.99 Q121.598 141.99 118.427 137.406 Q115.256 132.8 115.256 124.073 Q115.256 115.879 119.144 111.018 Q123.033 106.133 129.584 106.133 Q131.343 106.133 133.126 106.481 Q134.931 106.828 136.876 107.522 Z" fill="#000000" fill-rule="nonzero" fill-opacity="1"></path><path clip-path="url(#clip980)" d="M157.177 109.837 Q153.566 109.837 151.737 113.402 Q149.931 116.943 149.931 124.073 Q149.931 131.18 151.737 134.744 Q153.566 138.286 157.177 138.286 Q160.811 138.286 162.616 134.744 Q164.445 131.18 164.445 124.073 Q164.445 116.943 162.616 113.402 Q160.811 109.837 157.177 109.837 M157.177 106.133 Q162.987 106.133 166.042 110.74 Q169.121 115.323 169.121 124.073 Q169.121 132.8 166.042 137.406 Q162.987 141.99 157.177 141.99 Q151.366 141.99 148.288 137.406 Q145.232 132.8 145.232 124.073 Q145.232 115.323 148.288 110.74 Q151.366 106.133 157.177 106.133 Z" fill="#000000" fill-rule="nonzero" fill-opacity="1"></path><path clip-path="url(#clip980)" d="M187.338 109.837 Q183.727 109.837 181.899 113.402 Q180.093 116.943 180.093 124.073 Q180.093 131.18 181.899 134.744 Q183.727 138.286 187.338 138.286 Q190.973 138.286 192.778 134.744 Q194.607 131.18 194.607 124.073 Q194.607 116.943 192.778 113.402 Q190.973 109.837 187.338 109.837 M187.338 106.133 Q193.149 106.133 196.204 110.74 Q199.283 115.323 199.283 124.073 Q199.283 132.8 196.204 137.406 Q193.149 141.99 187.338 141.99 Q181.528 141.99 178.45 137.406 Q175.394 132.8 175.394 124.073 Q175.394 115.323 178.45 110.74 Q181.528 106.133 187.338 106.133 Z" fill="#000000" fill-rule="nonzero" fill-opacity="1"></path><path clip-path="url(#clip980)" d="M217.5 109.837 Q213.889 109.837 212.061 113.402 Q210.255 116.943 210.255 124.073 Q210.255 131.18 212.061 134.744 Q213.889 138.286 217.5 138.286 Q221.135 138.286 222.94 134.744 Q224.769 131.18 224.769 124.073 Q224.769 116.943 222.94 113.402 Q221.135 109.837 217.5 109.837 M217.5 106.133 Q223.31 106.133 226.366 110.74 Q229.445 115.323 229.445 124.073 Q229.445 132.8 226.366 137.406 Q223.31 141.99 217.5 141.99 Q211.69 141.99 208.612 137.406 Q205.556 132.8 205.556 124.073 Q205.556 115.323 208.612 110.74 Q211.69 106.133 217.5 106.133 Z" fill="#000000" fill-rule="nonzero" fill-opacity="1"></path><path clip-path="url(#clip980)" d="M16.4842 1105.34 L16.4842 1075.3 L21.895 1075.3 L21.895 1098.91 L35.9632 1098.91 L35.9632 1076.28 L41.3741 1076.28 L41.3741 1098.91 L58.5933 1098.91 L58.5933 1074.72 L64.0042 1074.72 L64.0042 1105.34 L16.4842 1105.34 Z" fill="#000000" fill-rule="nonzero" fill-opacity="1"></path><path clip-path="url(#clip980)" d="M14.479 1064.41 L14.479 1058.55 L64.0042 1058.55 L64.0042 1064.41 L14.479 1064.41 Z" fill="#000000" fill-rule="nonzero" fill-opacity="1"></path><path clip-path="url(#clip980)" d="M44.7161 1015.81 L47.5806 1015.81 L47.5806 1042.74 Q53.6281 1042.35 56.8109 1039.11 Q59.9619 1035.83 59.9619 1030 Q59.9619 1026.63 59.1344 1023.48 Q58.3069 1020.3 56.6518 1017.18 L62.1899 1017.18 Q63.5267 1020.33 64.227 1023.64 Q64.9272 1026.95 64.9272 1030.35 Q64.9272 1038.88 59.9619 1043.88 Q54.9967 1048.85 46.5303 1048.85 Q37.7774 1048.85 32.6531 1044.14 Q27.4968 1039.39 27.4968 1031.37 Q27.4968 1024.18 32.1438 1020.01 Q36.7589 1015.81 44.7161 1015.81 M42.9973 1021.66 Q38.1912 1021.73 35.3266 1024.37 Q32.4621 1026.98 32.4621 1031.31 Q32.4621 1036.21 35.2312 1039.17 Q38.0002 1042.1 43.0292 1042.54 L42.9973 1021.66 Z" fill="#000000" fill-rule="nonzero" fill-opacity="1"></path><path clip-path="url(#clip980)" d="M28.3562 1010.4 L28.3562 1004.19 L58.275 993.051 L28.3562 981.911 L28.3562 975.704 L64.0042 989.072 L64.0042 997.029 L28.3562 1010.4 Z" fill="#000000" fill-rule="nonzero" fill-opacity="1"></path><path clip-path="url(#clip980)" d="M46.0847 951.419 Q46.0847 958.517 47.7079 961.254 Q49.3312 963.991 53.2461 963.991 Q56.3653 963.991 58.2114 961.954 Q60.0256 959.885 60.0256 956.352 Q60.0256 951.483 56.5881 948.554 Q53.1188 945.594 47.3897 945.594 L46.0847 945.594 L46.0847 951.419 M43.6657 939.738 L64.0042 939.738 L64.0042 945.594 L58.5933 945.594 Q61.8398 947.6 63.3994 950.591 Q64.9272 953.583 64.9272 957.912 Q64.9272 963.387 61.8716 966.633 Q58.7843 969.848 53.6281 969.848 Q47.6125 969.848 44.5569 965.837 Q41.5014 961.795 41.5014 953.806 L41.5014 945.594 L40.9285 945.594 Q36.8862 945.594 34.6901 948.268 Q32.4621 950.91 32.4621 955.716 Q32.4621 958.771 33.1941 961.668 Q33.9262 964.564 35.3903 967.238 L29.9795 967.238 Q28.7381 964.023 28.1334 960.999 Q27.4968 957.976 27.4968 955.111 Q27.4968 947.377 31.5072 943.557 Q35.5176 939.738 43.6657 939.738 Z" fill="#000000" fill-rule="nonzero" fill-opacity="1"></path><path clip-path="url(#clip980)" d="M18.2347 921.882 L28.3562 921.882 L28.3562 909.819 L32.9077 909.819 L32.9077 921.882 L52.2594 921.882 Q56.6199 921.882 57.8613 920.704 Q59.1026 919.495 59.1026 915.835 L59.1026 909.819 L64.0042 909.819 L64.0042 915.835 Q64.0042 922.614 61.4897 925.192 Q58.9434 927.77 52.2594 927.77 L32.9077 927.77 L32.9077 932.067 L28.3562 932.067 L28.3562 927.77 L18.2347 927.77 L18.2347 921.882 Z" fill="#000000" fill-rule="nonzero" fill-opacity="1"></path><path clip-path="url(#clip980)" d="M28.3562 902.117 L28.3562 896.26 L64.0042 896.26 L64.0042 902.117 L28.3562 902.117 M14.479 902.117 L14.479 896.26 L21.895 896.26 L21.895 902.117 L14.479 902.117 Z" fill="#000000" fill-rule="nonzero" fill-opacity="1"></path><path clip-path="url(#clip980)" d="M32.4621 870.193 Q32.4621 874.903 36.1542 877.64 Q39.8145 880.378 46.212 880.378 Q52.6095 880.378 56.3017 877.672 Q59.9619 874.935 59.9619 870.193 Q59.9619 865.514 56.2698 862.777 Q52.5777 860.039 46.212 860.039 Q39.8781 860.039 36.186 862.777 Q32.4621 865.514 32.4621 870.193 M27.4968 870.193 Q27.4968 862.554 32.4621 858.193 Q37.4273 853.833 46.212 853.833 Q54.9649 853.833 59.9619 858.193 Q64.9272 862.554 64.9272 870.193 Q64.9272 877.863 59.9619 882.224 Q54.9649 886.552 46.212 886.552 Q37.4273 886.552 32.4621 882.224 Q27.4968 877.863 27.4968 870.193 Z" fill="#000000" fill-rule="nonzero" fill-opacity="1"></path><path clip-path="url(#clip980)" d="M42.4881 814.493 L64.0042 814.493 L64.0042 820.349 L42.679 820.349 Q37.6183 820.349 35.1038 822.322 Q32.5894 824.296 32.5894 828.243 Q32.5894 832.985 35.6131 835.722 Q38.6368 838.46 43.8567 838.46 L64.0042 838.46 L64.0042 844.348 L28.3562 844.348 L28.3562 838.46 L33.8944 838.46 Q30.6797 836.359 29.0883 833.526 Q27.4968 830.662 27.4968 826.938 Q27.4968 820.795 31.3163 817.644 Q35.1038 814.493 42.4881 814.493 Z" fill="#000000" fill-rule="nonzero" fill-opacity="1"></path><path clip-path="url(#clip980)" d="M14.5426 768.023 Q21.8632 772.288 29.0246 774.357 Q36.186 776.426 43.5384 776.426 Q50.8908 776.426 58.1159 774.357 Q65.3091 772.256 72.5979 768.023 L72.5979 773.116 Q65.1182 777.89 57.8931 780.277 Q50.668 782.632 43.5384 782.632 Q36.4406 782.632 29.2474 780.277 Q22.0542 777.922 14.5426 773.116 L14.5426 768.023 Z" fill="#000000" fill-rule="nonzero" fill-opacity="1"></path><path clip-path="url(#clip980)" d="M35.1993 728.906 Q31.2526 726.71 29.3747 723.654 Q27.4968 720.598 27.4968 716.461 Q27.4968 710.891 31.4117 707.867 Q35.2948 704.843 42.4881 704.843 L64.0042 704.843 L64.0042 710.732 L42.679 710.732 Q37.5546 710.732 35.072 712.546 Q32.5894 714.36 32.5894 718.084 Q32.5894 722.635 35.6131 725.277 Q38.6368 727.919 43.8567 727.919 L64.0042 727.919 L64.0042 733.807 L42.679 733.807 Q37.5228 733.807 35.072 735.622 Q32.5894 737.436 32.5894 741.223 Q32.5894 745.711 35.6449 748.353 Q38.6686 750.995 43.8567 750.995 L64.0042 750.995 L64.0042 756.883 L28.3562 756.883 L28.3562 750.995 L33.8944 750.995 Q30.616 748.99 29.0564 746.189 Q27.4968 743.388 27.4968 739.536 Q27.4968 735.653 29.4702 732.948 Q31.4436 730.211 35.1993 728.906 Z" fill="#000000" fill-rule="nonzero" fill-opacity="1"></path><path clip-path="url(#clip980)" d="M55.9197 692.335 L55.9197 685.619 L64.0042 685.619 L64.0042 692.335 L55.9197 692.335 Z" fill="#000000" fill-rule="nonzero" fill-opacity="1"></path><path clip-path="url(#clip980)" d="M46.0847 656.241 Q46.0847 663.339 47.7079 666.076 Q49.3312 668.813 53.2461 668.813 Q56.3653 668.813 58.2114 666.776 Q60.0256 664.708 60.0256 661.175 Q60.0256 656.305 56.5881 653.377 Q53.1188 650.417 47.3897 650.417 L46.0847 650.417 L46.0847 656.241 M43.6657 644.56 L64.0042 644.56 L64.0042 650.417 L58.5933 650.417 Q61.8398 652.422 63.3994 655.414 Q64.9272 658.406 64.9272 662.734 Q64.9272 668.209 61.8716 671.455 Q58.7843 674.67 53.6281 674.67 Q47.6125 674.67 44.5569 670.66 Q41.5014 666.617 41.5014 658.628 L41.5014 650.417 L40.9285 650.417 Q36.8862 650.417 34.6901 653.09 Q32.4621 655.732 32.4621 660.538 Q32.4621 663.594 33.1941 666.49 Q33.9262 669.386 35.3903 672.06 L29.9795 672.06 Q28.7381 668.845 28.1334 665.822 Q27.4968 662.798 27.4968 659.933 Q27.4968 652.199 31.5072 648.38 Q35.5176 644.56 43.6657 644.56 Z" fill="#000000" fill-rule="nonzero" fill-opacity="1"></path><path clip-path="url(#clip980)" d="M55.9197 631.67 L55.9197 624.954 L64.0042 624.954 L64.0042 631.67 L55.9197 631.67 Z" fill="#000000" fill-rule="nonzero" fill-opacity="1"></path><path clip-path="url(#clip980)" d="M29.4065 589.051 L34.9447 589.051 Q33.6716 591.534 33.035 594.207 Q32.3984 596.881 32.3984 599.746 Q32.3984 604.106 33.7352 606.302 Q35.072 608.467 37.7456 608.467 Q39.7826 608.467 40.9603 606.907 Q42.1061 605.347 43.1565 600.637 L43.6021 598.632 Q44.9389 592.393 47.3897 589.783 Q49.8086 587.141 54.1691 587.141 Q59.1344 587.141 62.0308 591.088 Q64.9272 595.003 64.9272 601.878 Q64.9272 604.743 64.3543 607.862 Q63.8132 610.949 62.6992 614.387 L56.6518 614.387 Q58.3387 611.14 59.198 607.989 Q60.0256 604.838 60.0256 601.751 Q60.0256 597.613 58.6251 595.385 Q57.1929 593.157 54.6147 593.157 Q52.2276 593.157 50.9545 594.78 Q49.6813 596.372 48.5037 601.814 L48.0262 603.851 Q46.8804 609.294 44.5251 611.713 Q42.138 614.132 38.0002 614.132 Q32.9713 614.132 30.2341 610.567 Q27.4968 607.002 27.4968 600.446 Q27.4968 597.199 27.9743 594.335 Q28.4517 591.47 29.4065 589.051 Z" fill="#000000" fill-rule="nonzero" fill-opacity="1"></path><path clip-path="url(#clip980)" d="M55.9197 576.988 L55.9197 570.272 L64.0042 570.272 L64.0042 576.988 L55.9197 576.988 Z" fill="#000000" fill-rule="nonzero" fill-opacity="1"></path><path clip-path="url(#clip980)" d="M14.479 557.095 L14.479 551.239 L64.0042 551.239 L64.0042 557.095 L14.479 557.095 Z" fill="#000000" fill-rule="nonzero" fill-opacity="1"></path><path clip-path="url(#clip980)" d="M55.9197 538.157 L55.9197 531.442 L64.0042 531.442 L64.0042 538.157 L55.9197 538.157 Z" fill="#000000" fill-rule="nonzero" fill-opacity="1"></path><path clip-path="url(#clip980)" d="M14.5426 519.188 L14.5426 514.095 Q22.0542 509.321 29.2474 506.965 Q36.4406 504.578 43.5384 504.578 Q50.668 504.578 57.8931 506.965 Q65.1182 509.321 72.5979 514.095 L72.5979 519.188 Q65.3091 514.954 58.1159 512.885 Q50.8908 510.785 43.5384 510.785 Q36.186 510.785 29.0246 512.885 Q21.8632 514.954 14.5426 519.188 Z" fill="#000000" fill-rule="nonzero" fill-opacity="1"></path><path clip-path="url(#clip980)" d="M1002.89 9.62495 Q997.464 18.942 994.831 28.0566 Q992.198 37.1711 992.198 46.5287 Q992.198 55.8863 994.831 65.0818 Q997.505 74.2369 1002.89 83.5134 L996.411 83.5134 Q990.335 73.9938 987.296 64.7983 Q984.299 55.6027 984.299 46.5287 Q984.299 37.4952 987.296 28.3401 Q990.294 19.1851 996.411 9.62495 L1002.89 9.62495 Z" fill="#000000" fill-rule="nonzero" fill-opacity="1"></path><path clip-path="url(#clip980)" d="M1040.32 9.54393 L1040.32 15.7418 L1033.19 15.7418 Q1029.18 15.7418 1027.6 17.3622 Q1026.06 18.9825 1026.06 23.1955 L1026.06 27.2059 L1038.34 27.2059 L1038.34 32.9987 L1026.06 32.9987 L1026.06 72.576 L1018.57 72.576 L1018.57 32.9987 L1011.44 32.9987 L1011.44 27.2059 L1018.57 27.2059 L1018.57 24.0462 Q1018.57 16.471 1022.09 13.0277 Q1025.62 9.54393 1033.27 9.54393 L1040.32 9.54393 Z" fill="#000000" fill-rule="nonzero" fill-opacity="1"></path><path clip-path="url(#clip980)" d="M1064.14 32.4315 Q1058.15 32.4315 1054.66 37.1306 Q1051.18 41.7891 1051.18 49.9314 Q1051.18 58.0738 1054.62 62.7728 Q1058.11 67.4314 1064.14 67.4314 Q1070.1 67.4314 1073.58 62.7323 Q1077.06 58.0333 1077.06 49.9314 Q1077.06 41.8701 1073.58 37.1711 Q1070.1 32.4315 1064.14 32.4315 M1064.14 26.1121 Q1073.86 26.1121 1079.41 32.4315 Q1084.96 38.7509 1084.96 49.9314 Q1084.96 61.0714 1079.41 67.4314 Q1073.86 73.7508 1064.14 73.7508 Q1054.38 73.7508 1048.83 67.4314 Q1043.32 61.0714 1043.32 49.9314 Q1043.32 38.7509 1048.83 32.4315 Q1054.38 26.1121 1064.14 26.1121 Z" fill="#000000" fill-rule="nonzero" fill-opacity="1"></path><path clip-path="url(#clip980)" d="M1123.61 34.1734 Q1122.35 33.4443 1120.85 33.1202 Q1119.4 32.7556 1117.61 32.7556 Q1111.29 32.7556 1107.89 36.8875 Q1104.53 40.9789 1104.53 48.6757 L1104.53 72.576 L1097.04 72.576 L1097.04 27.2059 L1104.53 27.2059 L1104.53 34.2544 Q1106.88 30.1225 1110.65 28.1376 Q1114.41 26.1121 1119.8 26.1121 Q1120.57 26.1121 1121.5 26.2337 Q1122.43 26.3147 1123.57 26.5172 L1123.61 34.1734 Z" fill="#000000" fill-rule="nonzero" fill-opacity="1"></path><path clip-path="url(#clip980)" d="M1160.27 65.6895 L1173.64 65.6895 L1173.64 19.5497 L1159.1 22.4663 L1159.1 15.0127 L1173.56 12.096 L1181.74 12.096 L1181.74 65.6895 L1195.11 65.6895 L1195.11 72.576 L1160.27 72.576 L1160.27 65.6895 Z" fill="#000000" fill-rule="nonzero" fill-opacity="1"></path><path clip-path="url(#clip980)" d="M1229.14 17.4837 Q1222.82 17.4837 1219.62 23.7221 Q1216.46 29.92 1216.46 42.3968 Q1216.46 54.833 1219.62 61.0714 Q1222.82 67.2693 1229.14 67.2693 Q1235.5 67.2693 1238.66 61.0714 Q1241.86 54.833 1241.86 42.3968 Q1241.86 29.92 1238.66 23.7221 Q1235.5 17.4837 1229.14 17.4837 M1229.14 11.0023 Q1239.3 11.0023 1244.65 19.0636 Q1250.04 27.0843 1250.04 42.3968 Q1250.04 57.6687 1244.65 65.73 Q1239.3 73.7508 1229.14 73.7508 Q1218.97 73.7508 1213.58 65.73 Q1208.23 57.6687 1208.23 42.3968 Q1208.23 27.0843 1213.58 19.0636 Q1218.97 11.0023 1229.14 11.0023 Z" fill="#000000" fill-rule="nonzero" fill-opacity="1"></path><path clip-path="url(#clip980)" d="M1281.92 17.4837 Q1275.6 17.4837 1272.4 23.7221 Q1269.24 29.92 1269.24 42.3968 Q1269.24 54.833 1272.4 61.0714 Q1275.6 67.2693 1281.92 67.2693 Q1288.28 67.2693 1291.44 61.0714 Q1294.64 54.833 1294.64 42.3968 Q1294.64 29.92 1291.44 23.7221 Q1288.28 17.4837 1281.92 17.4837 M1281.92 11.0023 Q1292.09 11.0023 1297.43 19.0636 Q1302.82 27.0843 1302.82 42.3968 Q1302.82 57.6687 1297.43 65.73 Q1292.09 73.7508 1281.92 73.7508 Q1271.75 73.7508 1266.36 65.73 Q1261.02 57.6687 1261.02 42.3968 Q1261.02 27.0843 1266.36 19.0636 Q1271.75 11.0023 1281.92 11.0023 Z" fill="#000000" fill-rule="nonzero" fill-opacity="1"></path><path clip-path="url(#clip980)" d="M1317.2 62.2867 L1325.75 62.2867 L1325.75 72.576 L1317.2 72.576 L1317.2 62.2867 Z" fill="#000000" fill-rule="nonzero" fill-opacity="1"></path><path clip-path="url(#clip980)" d="M1361.07 17.4837 Q1354.75 17.4837 1351.55 23.7221 Q1348.39 29.92 1348.39 42.3968 Q1348.39 54.833 1351.55 61.0714 Q1354.75 67.2693 1361.07 67.2693 Q1367.43 67.2693 1370.59 61.0714 Q1373.79 54.833 1373.79 42.3968 Q1373.79 29.92 1370.59 23.7221 Q1367.43 17.4837 1361.07 17.4837 M1361.07 11.0023 Q1371.24 11.0023 1376.59 19.0636 Q1381.98 27.0843 1381.98 42.3968 Q1381.98 57.6687 1376.59 65.73 Q1371.24 73.7508 1361.07 73.7508 Q1350.91 73.7508 1345.52 65.73 Q1340.17 57.6687 1340.17 42.3968 Q1340.17 27.0843 1345.52 19.0636 Q1350.91 11.0023 1361.07 11.0023 Z" fill="#000000" fill-rule="nonzero" fill-opacity="1"></path><path clip-path="url(#clip980)" d="M1440.55 76.7889 Q1437.39 84.8907 1434.39 87.3618 Q1431.4 89.8329 1426.37 89.8329 L1420.42 89.8329 L1420.42 83.5945 L1424.79 83.5945 Q1427.87 83.5945 1429.57 82.1361 Q1431.28 80.6778 1433.34 75.2496 L1434.68 71.8468 L1416.33 27.2059 L1424.23 27.2059 L1438.41 62.6918 L1452.58 27.2059 L1460.48 27.2059 L1440.55 76.7889 Z" fill="#000000" fill-rule="nonzero" fill-opacity="1"></path><path clip-path="url(#clip980)" d="M1509.58 48.0275 L1509.58 51.6733 L1475.31 51.6733 Q1475.8 59.3701 1479.93 63.421 Q1484.1 67.4314 1491.51 67.4314 Q1495.81 67.4314 1499.82 66.3781 Q1503.87 65.3249 1507.84 63.2184 L1507.84 70.267 Q1503.83 71.9684 1499.61 72.8596 Q1495.4 73.7508 1491.07 73.7508 Q1480.21 73.7508 1473.85 67.4314 Q1467.53 61.1119 1467.53 50.3365 Q1467.53 39.1965 1473.53 32.6746 Q1479.56 26.1121 1489.77 26.1121 Q1498.93 26.1121 1504.23 32.0264 Q1509.58 37.9003 1509.58 48.0275 M1502.13 45.84 Q1502.04 39.7232 1498.68 36.0774 Q1495.36 32.4315 1489.85 32.4315 Q1483.61 32.4315 1479.85 35.9558 Q1476.12 39.4801 1475.55 45.8805 L1502.13 45.84 Z" fill="#000000" fill-rule="nonzero" fill-opacity="1"></path><path clip-path="url(#clip980)" d="M1542.43 49.7694 Q1533.4 49.7694 1529.92 51.8354 Q1526.43 53.9013 1526.43 58.8839 Q1526.43 62.8538 1529.02 65.2034 Q1531.66 67.5124 1536.15 67.5124 Q1542.35 67.5124 1546.08 63.1374 Q1549.85 58.7219 1549.85 51.4303 L1549.85 49.7694 L1542.43 49.7694 M1557.3 46.6907 L1557.3 72.576 L1549.85 72.576 L1549.85 65.6895 Q1547.29 69.8214 1543.49 71.8063 Q1539.68 73.7508 1534.17 73.7508 Q1527.2 73.7508 1523.07 69.8619 Q1518.98 65.9325 1518.98 59.3701 Q1518.98 51.7138 1524.08 47.825 Q1529.23 43.9361 1539.39 43.9361 L1549.85 43.9361 L1549.85 43.2069 Q1549.85 38.0623 1546.44 35.2672 Q1543.08 32.4315 1536.96 32.4315 Q1533.07 32.4315 1529.39 33.3632 Q1525.7 34.295 1522.3 36.1584 L1522.3 29.2718 Q1526.39 27.692 1530.24 26.9223 Q1534.09 26.1121 1537.73 26.1121 Q1547.58 26.1121 1552.44 31.2163 Q1557.3 36.3204 1557.3 46.6907 Z" fill="#000000" fill-rule="nonzero" fill-opacity="1"></path><path clip-path="url(#clip980)" d="M1598.94 34.1734 Q1597.69 33.4443 1596.19 33.1202 Q1594.73 32.7556 1592.95 32.7556 Q1586.63 32.7556 1583.23 36.8875 Q1579.86 40.9789 1579.86 48.6757 L1579.86 72.576 L1572.37 72.576 L1572.37 27.2059 L1579.86 27.2059 L1579.86 34.2544 Q1582.21 30.1225 1585.98 28.1376 Q1589.75 26.1121 1595.13 26.1121 Q1595.9 26.1121 1596.84 26.2337 Q1597.77 26.3147 1598.9 26.5172 L1598.94 34.1734 Z" fill="#000000" fill-rule="nonzero" fill-opacity="1"></path><path clip-path="url(#clip980)" d="M1635.68 28.5427 L1635.68 35.5912 Q1632.52 33.9709 1629.12 33.1607 Q1625.72 32.3505 1622.07 32.3505 Q1616.52 32.3505 1613.73 34.0519 Q1610.97 35.7533 1610.97 39.156 Q1610.97 41.7486 1612.96 43.2475 Q1614.94 44.7058 1620.94 46.0426 L1623.49 46.6097 Q1631.43 48.3111 1634.75 51.4303 Q1638.11 54.509 1638.11 60.0587 Q1638.11 66.3781 1633.09 70.0644 Q1628.11 73.7508 1619.36 73.7508 Q1615.71 73.7508 1611.74 73.0216 Q1607.81 72.3329 1603.44 70.9151 L1603.44 63.2184 Q1607.57 65.3654 1611.58 66.4591 Q1615.59 67.5124 1619.52 67.5124 Q1624.79 67.5124 1627.62 65.73 Q1630.46 63.9071 1630.46 60.6258 Q1630.46 57.5877 1628.39 55.9673 Q1626.37 54.3469 1619.44 52.8481 L1616.85 52.2405 Q1609.92 50.7821 1606.84 47.7845 Q1603.76 44.7463 1603.76 39.4801 Q1603.76 33.0797 1608.3 29.5959 Q1612.84 26.1121 1621.18 26.1121 Q1625.31 26.1121 1628.96 26.7198 Q1632.61 27.3274 1635.68 28.5427 Z" fill="#000000" fill-rule="nonzero" fill-opacity="1"></path><path clip-path="url(#clip980)" d="M1648.81 9.62495 L1655.29 9.62495 Q1661.37 19.1851 1664.36 28.3401 Q1667.4 37.4952 1667.4 46.5287 Q1667.4 55.6027 1664.36 64.7983 Q1661.37 73.9938 1655.29 83.5134 L1648.81 83.5134 Q1654.2 74.2369 1656.83 65.0818 Q1659.5 55.8863 1659.5 46.5287 Q1659.5 37.1711 1656.83 28.0566 Q1654.2 18.942 1648.81 9.62495 Z" fill="#000000" fill-rule="nonzero" fill-opacity="1"></path><polyline clip-path="url(#clip982)" style="stroke:#a52a2a; stroke-linecap:round; stroke-linejoin:round; stroke-width:4; stroke-opacity:1; fill:none" points="324.52,192.258 345.248,219.021 365.976,247.082 386.704,280.387 407.432,319.856 428.16,356.323 448.888,390.183 469.616,422.152 490.344,452.258 511.072,481.277 531.8,506.916 552.528,528.753 573.256,548.12 593.984,566.163 614.712,584.103 635.44,603.574 656.168,624.755 676.896,644.975 697.624,665.457 718.352,687.618 739.08,711.739 759.808,738.67 780.536,765.788 801.264,792.112 821.992,822.471 842.72,852.212 863.448,885.465 884.176,913.146 904.904,932.422 925.632,942.993 946.36,955.422 967.088,977.977 987.816,1000.99 1008.54,1016.24 1029.27,1033.87 1050,1047.09 1070.73,1054.09 1091.46,1049.69 1112.18,1052.51 1132.91,1058.61 1153.64,1066.85 1174.37,1081.79 1195.1,1098.38 1215.82,1115.83 1236.55,1137.27 1257.28,1157.13 1278.01,1159.6 1298.74,1176.68 1319.46,1152.29 1340.19,1128.45 1360.92,1131.74 1381.65,1133.33 1402.38,1137.68 1423.1,1146.1 1443.83,1158.37 1464.56,1172.64 1485.29,1187 1506.02,1201.59 1526.74,1218.82 1547.47,1239.81 1568.2,1264.31 1588.93,1293.23 1609.66,1327.17 1630.38,1362.97 1651.11,1394.44 1671.84,1418.77 1692.57,1436.65 1713.3,1447.14 1734.02,1447.87 1754.75,1439.28 1775.48,1426.32 1796.21,1415.92 1816.94,1413.21 1837.66,1418.93 1858.39,1427.81 1879.12,1432.78 1899.85,1432.13 1920.58,1427.42 1941.3,1419.57 1962.03,1409.59 1982.76,1398.88 2003.49,1388.86 2024.22,1380.62 2044.94,1373.96 2065.67,1367.59 2086.4,1359.95 2107.13,1349.3 2127.86,1334.95 2148.58,1318.86 2169.31,1304.51 2190.04,1294.18 2210.77,1287.63 2231.5,1282.88 2252.23,1277.9 2272.95,1272.17 2293.68,1267.78 "></polyline>
<polyline clip-path="url(#clip982)" style="stroke:#0000ff; stroke-linecap:round; stroke-linejoin:round; stroke-width:4; stroke-opacity:1; fill:none" points="324.52,162.047 345.248,194.504 365.976,221.623 386.704,257.376 407.432,295.191 428.16,329.526 448.888,361.612 469.616,391.66 490.344,419.989 511.072,445.337 531.8,466.855 552.528,485.884 573.256,503.909 593.984,522.025 614.712,541.088 635.44,561.567 656.168,582.516 676.896,603.573 697.624,625.982 718.352,650.515 739.08,677.182 759.808,705.098 780.536,732.568 801.264,762.008 821.992,792.747 842.72,824.27 863.448,852.683 884.176,871.994 904.904,888.348 925.632,905.079 946.36,924.675 967.088,948.591 987.816,969.776 1008.54,989.298 1029.27,1014.18 1050,1047.09 1070.73,1054.09 1091.46,1049.69 1112.18,1052.51 1132.91,1058.61 1153.64,1066.85 1174.37,1081.79 1195.1,1098.38 1215.82,1115.83 1236.55,1137.27 1257.28,1157.13 1278.01,1159.6 1298.74,1176.68 1319.46,1152.29 1340.19,1128.45 1360.92,1131.74 1381.65,1133.33 1402.38,1137.68 1423.1,1146.1 1443.83,1158.37 1464.56,1172.64 1485.29,1187 1506.02,1201.59 1526.74,1218.82 1547.47,1239.81 1568.2,1264.31 1588.93,1293.23 1609.66,1327.17 1630.38,1362.97 1651.11,1394.44 1671.84,1418.77 1692.57,1436.65 1713.3,1447.14 1734.02,1447.87 1754.75,1439.28 1775.48,1426.32 1796.21,1415.92 1816.94,1413.21 1837.66,1418.93 1858.39,1427.81 1879.12,1432.78 1899.85,1432.13 1920.58,1427.42 1941.3,1419.57 1962.03,1409.59 1982.76,1398.88 2003.49,1388.86 2024.22,1380.62 2044.94,1373.96 2065.67,1367.59 2086.4,1359.95 2107.13,1349.3 2127.86,1334.95 2148.58,1318.86 2169.31,1304.51 2190.04,1294.18 2210.77,1287.63 2231.5,1282.88 2252.23,1277.9 2272.95,1272.17 2293.68,1267.78 "></polyline>
<polyline clip-path="url(#clip982)" style="stroke:#ff0000; stroke-linecap:round; stroke-linejoin:round; stroke-width:4; stroke-opacity:1; fill:none" points="324.52,164.288 345.248,196.743 365.976,223.863 386.704,259.619 407.432,297.432 428.16,331.764 448.888,363.845 469.616,393.888 490.344,422.21 511.072,447.543 531.8,469.039 552.528,488.045 573.256,506.032 593.984,524.081 614.712,543.069 635.44,563.462 656.168,584.278 676.896,605.182 697.624,627.399 718.352,651.677 739.08,677.986 759.808,705.48 780.536,732.425 801.264,761.304 821.992,791.265 842.72,821.842 863.448,848.969 884.176,867.732 904.904,884.039 925.632,900.921 946.36,920.567 967.088,944.408 987.816,965.876 1008.54,985.628 1029.27,1011.56 1050,1045.83 1070.73,1054.09 1091.46,1049.69 1112.18,1052.51 1132.91,1058.61 1153.64,1066.85 1174.37,1081.79 1195.1,1098.38 1215.82,1115.83 1236.55,1137.27 1257.28,1157.13 1278.01,1159.6 1298.74,1176.68 1319.46,1152.29 1340.19,1128.45 1360.92,1131.74 1381.65,1133.33 1402.38,1137.68 1423.1,1146.1 1443.83,1158.37 1464.56,1172.64 1485.29,1187 1506.02,1201.59 1526.74,1218.82 1547.47,1239.81 1568.2,1264.31 1588.93,1293.23 1609.66,1327.17 1630.38,1362.97 1651.11,1394.44 1671.84,1418.77 1692.57,1436.65 1713.3,1447.14 1734.02,1447.87 1754.75,1439.28 1775.48,1426.32 1796.21,1415.92 1816.94,1413.21 1837.66,1418.93 1858.39,1427.81 1879.12,1432.78 1899.85,1432.13 1920.58,1427.42 1941.3,1419.57 1962.03,1409.59 1982.76,1398.88 2003.49,1388.86 2024.22,1380.62 2044.94,1373.96 2065.67,1367.59 2086.4,1359.95 2107.13,1349.3 2127.86,1334.95 2148.58,1318.86 2169.31,1304.51 2190.04,1294.18 2210.77,1287.63 2231.5,1282.88 2252.23,1277.9 2272.95,1272.17 2293.68,1267.78 "></polyline>
<polyline clip-path="url(#clip982)" style="stroke:#008000; stroke-linecap:round; stroke-linejoin:round; stroke-width:4; stroke-opacity:1; fill:none" points="324.52,168.645 345.248,194.345 365.976,222.548 386.704,257.547 407.432,295.594 428.16,329.749 448.888,361.549 469.616,391.556 490.344,419.488 511.072,444.797 531.8,466.156 552.528,485.088 573.256,503.074 593.984,521.153 614.712,540.184 635.44,560.644 656.168,581.813 676.896,602.747 697.624,625.145 718.352,649.658 739.08,676.179 759.808,703.873 780.536,731.235 801.264,759.522 821.992,790.176 842.72,818.943 863.448,846.014 884.176,862.133 904.904,876.889 925.632,891.843 946.36,907.582 967.088,924.572 987.816,935.885 1008.54,945.66 1029.27,955.137 1050,962.684 1070.73,970.23 1091.46,977.777 1112.18,989.269 1132.91,1001.07 1153.64,1016.28 1174.37,1033.89 1195.1,1051.35 1215.82,1069.14 1236.55,1087.2 1257.28,1103.77 1278.01,1116.48 1298.74,1120.18 1319.46,1123.87 1340.19,1127.57 1360.92,1131.74 1381.65,1133.33 1402.38,1137.68 1423.1,1146.1 1443.83,1158.37 1464.56,1172.64 1485.29,1187 1506.02,1201.59 1526.74,1218.82 1547.47,1239.81 1568.2,1264.31 1588.93,1293.23 1609.66,1327.17 1630.38,1362.97 1651.11,1394.44 1671.84,1418.77 1692.57,1436.65 1713.3,1447.14 1734.02,1447.87 1754.75,1439.28 1775.48,1426.32 1796.21,1415.92 1816.94,1413.21 1837.66,1418.93 1858.39,1427.81 1879.12,1432.78 1899.85,1432.13 1920.58,1427.42 1941.3,1419.57 1962.03,1409.59 1982.76,1398.88 2003.49,1388.86 2024.22,1380.62 2044.94,1373.96 2065.67,1367.59 2086.4,1359.95 2107.13,1349.3 2127.86,1334.95 2148.58,1318.86 2169.31,1304.51 2190.04,1294.18 2210.77,1287.63 2231.5,1282.88 2252.23,1277.9 2272.95,1272.17 2293.68,1267.78 "></polyline>
<polyline clip-path="url(#clip982)" style="stroke:#000000; stroke-linecap:round; stroke-linejoin:round; stroke-width:4; stroke-opacity:1; fill:none" stroke-dasharray="16, 10" points="324.52,173.818 345.248,196.527 365.976,225.369 386.704,260.279 407.432,297.403 428.16,331.626 448.888,363.57 469.616,393.722 490.344,421.836 511.072,446.807 531.8,468.211 552.528,487.233 573.256,505.271 593.984,523.432 614.712,542.554 635.44,562.849 656.168,583.606 676.896,604.711 697.624,627.172 718.352,651.704 739.08,678.176 759.808,705.503 780.536,733.019 801.264,762.203 821.992,792.919 842.72,824.686 863.448,852.427 884.176,872.354 904.904,888.998 925.632,906.361 946.36,927.61 967.088,953.239 987.816,976.894 1008.54,1016.24 1029.27,1033.87 1050,1047.09 1070.73,1054.09 1091.46,1049.69 1112.18,1052.51 1132.91,1058.61 1153.64,1066.85 1174.37,1081.79 1195.1,1098.38 1215.82,1115.83 1236.55,1137.27 1257.28,1157.13 1278.01,1159.6 1298.74,1176.68 1319.46,1152.29 1340.19,1128.45 1360.92,1131.74 1381.65,1133.33 1402.38,1137.68 1423.1,1146.1 1443.83,1158.37 1464.56,1172.64 1485.29,1187 1506.02,1201.59 1526.74,1218.82 1547.47,1239.81 1568.2,1264.31 1588.93,1293.23 1609.66,1327.17 1630.38,1362.97 1651.11,1394.44 1671.84,1418.77 1692.57,1436.65 1713.3,1447.14 1734.02,1447.87 1754.75,1439.28 1775.48,1426.32 1796.21,1415.92 1816.94,1413.21 1837.66,1418.93 1858.39,1427.81 1879.12,1432.78 1899.85,1432.13 1920.58,1427.42 1941.3,1419.57 1962.03,1409.59 1982.76,1398.88 2003.49,1388.86 2024.22,1380.62 2044.94,1373.96 2065.67,1367.59 2086.4,1359.95 2107.13,1349.3 2127.86,1334.95 2148.58,1318.86 2169.31,1304.51 2190.04,1294.18 2210.77,1287.63 2231.5,1282.88 2252.23,1277.9 2272.95,1272.17 2293.68,1267.78 "></polyline>
<path clip-path="url(#clip980)" d="M1729.73 479.945 L2283.18 479.945 L2283.18 168.905 L1729.73 168.905  Z" fill="#f8f8ff" fill-rule="evenodd" fill-opacity="1"></path>
<polyline clip-path="url(#clip980)" style="stroke:#000000; stroke-linecap:round; stroke-linejoin:round; stroke-width:4; stroke-opacity:1; fill:none" points="1729.73,479.945 2283.18,479.945 2283.18,168.905 1729.73,168.905 1729.73,479.945 "></polyline>
<polyline clip-path="url(#clip980)" style="stroke:#a52a2a; stroke-linecap:round; stroke-linejoin:round; stroke-width:4; stroke-opacity:1; fill:none" points="1752.92,220.745 1892.07,220.745 "></polyline>
<path clip-path="url(#clip980)" d="M1934.04 225.085 Q1934.04 220.386 1932.09 217.724 Q1930.17 215.039 1926.79 215.039 Q1923.41 215.039 1921.47 217.724 Q1919.55 220.386 1919.55 225.085 Q1919.55 229.784 1921.47 232.469 Q1923.41 235.131 1926.79 235.131 Q1930.17 235.131 1932.09 232.469 Q1934.04 229.784 1934.04 225.085 M1919.55 216.034 Q1920.89 213.719 1922.93 212.608 Q1924.99 211.474 1927.84 211.474 Q1932.56 211.474 1935.5 215.224 Q1938.46 218.974 1938.46 225.085 Q1938.46 231.196 1935.5 234.946 Q1932.56 238.696 1927.84 238.696 Q1924.99 238.696 1922.93 237.585 Q1920.89 236.451 1919.55 234.136 L1919.55 238.025 L1915.27 238.025 L1915.27 202.006 L1919.55 202.006 L1919.55 216.034 Z" fill="#000000" fill-rule="nonzero" fill-opacity="1"></path><path clip-path="url(#clip980)" d="M1967.7 223.997 L1967.7 226.08 L1948.11 226.08 Q1948.39 230.478 1950.75 232.793 Q1953.14 235.085 1957.37 235.085 Q1959.83 235.085 1962.12 234.483 Q1964.43 233.881 1966.7 232.677 L1966.7 236.705 Q1964.41 237.677 1962 238.187 Q1959.59 238.696 1957.12 238.696 Q1950.91 238.696 1947.28 235.085 Q1943.67 231.474 1943.67 225.316 Q1943.67 218.951 1947.09 215.224 Q1950.54 211.474 1956.38 211.474 Q1961.61 211.474 1964.64 214.853 Q1967.7 218.21 1967.7 223.997 M1963.44 222.747 Q1963.39 219.252 1961.47 217.168 Q1959.57 215.085 1956.42 215.085 Q1952.86 215.085 1950.71 217.099 Q1948.58 219.113 1948.25 222.77 L1963.44 222.747 Z" fill="#000000" fill-rule="nonzero" fill-opacity="1"></path><path clip-path="url(#clip980)" d="M1991.75 216.034 L1991.75 202.006 L1996.01 202.006 L1996.01 238.025 L1991.75 238.025 L1991.75 234.136 Q1990.4 236.451 1988.34 237.585 Q1986.31 238.696 1983.44 238.696 Q1978.74 238.696 1975.78 234.946 Q1972.84 231.196 1972.84 225.085 Q1972.84 218.974 1975.78 215.224 Q1978.74 211.474 1983.44 211.474 Q1986.31 211.474 1988.34 212.608 Q1990.4 213.719 1991.75 216.034 M1977.23 225.085 Q1977.23 229.784 1979.15 232.469 Q1981.1 235.131 1984.48 235.131 Q1987.86 235.131 1989.8 232.469 Q1991.75 229.784 1991.75 225.085 Q1991.75 220.386 1989.8 217.724 Q1987.86 215.039 1984.48 215.039 Q1981.1 215.039 1979.15 217.724 Q1977.23 220.386 1977.23 225.085 Z" fill="#000000" fill-rule="nonzero" fill-opacity="1"></path><polyline clip-path="url(#clip980)" style="stroke:#0000ff; stroke-linecap:round; stroke-linejoin:round; stroke-width:4; stroke-opacity:1; fill:none" points="1752.92,272.585 1892.07,272.585 "></polyline>
<path clip-path="url(#clip980)" d="M1933.69 264.703 L1933.69 268.731 Q1931.89 267.805 1929.94 267.342 Q1928 266.879 1925.91 266.879 Q1922.74 266.879 1921.15 267.851 Q1919.57 268.823 1919.57 270.768 Q1919.57 272.249 1920.71 273.105 Q1921.84 273.939 1925.27 274.703 L1926.72 275.027 Q1931.26 275.999 1933.16 277.781 Q1935.08 279.541 1935.08 282.712 Q1935.08 286.323 1932.21 288.429 Q1929.36 290.536 1924.36 290.536 Q1922.28 290.536 1920.01 290.119 Q1917.77 289.726 1915.27 288.916 L1915.27 284.517 Q1917.63 285.744 1919.92 286.369 Q1922.21 286.971 1924.46 286.971 Q1927.47 286.971 1929.09 285.953 Q1930.71 284.911 1930.71 283.036 Q1930.71 281.3 1929.53 280.374 Q1928.37 279.448 1924.41 278.592 L1922.93 278.244 Q1918.97 277.411 1917.21 275.698 Q1915.45 273.962 1915.45 270.953 Q1915.45 267.295 1918.04 265.305 Q1920.64 263.314 1925.4 263.314 Q1927.77 263.314 1929.85 263.661 Q1931.93 264.008 1933.69 264.703 Z" fill="#000000" fill-rule="nonzero" fill-opacity="1"></path><path clip-path="url(#clip980)" d="M1941.42 279.633 L1941.42 263.939 L1945.68 263.939 L1945.68 279.471 Q1945.68 283.152 1947.12 285.004 Q1948.55 286.832 1951.42 286.832 Q1954.87 286.832 1956.86 284.633 Q1958.88 282.434 1958.88 278.638 L1958.88 263.939 L1963.14 263.939 L1963.14 289.865 L1958.88 289.865 L1958.88 285.883 Q1957.33 288.244 1955.27 289.402 Q1953.23 290.536 1950.52 290.536 Q1946.05 290.536 1943.74 287.758 Q1941.42 284.98 1941.42 279.633 M1952.14 263.314 L1952.14 263.314 Z" fill="#000000" fill-rule="nonzero" fill-opacity="1"></path><path clip-path="url(#clip980)" d="M1986.93 267.92 Q1986.21 267.504 1985.36 267.318 Q1984.53 267.11 1983.51 267.11 Q1979.9 267.11 1977.95 269.471 Q1976.03 271.809 1976.03 276.207 L1976.03 289.865 L1971.75 289.865 L1971.75 263.939 L1976.03 263.939 L1976.03 267.967 Q1977.37 265.606 1979.53 264.471 Q1981.68 263.314 1984.76 263.314 Q1985.2 263.314 1985.73 263.383 Q1986.26 263.43 1986.91 263.545 L1986.93 267.92 Z" fill="#000000" fill-rule="nonzero" fill-opacity="1"></path><path clip-path="url(#clip980)" d="M2004.52 253.846 L2004.52 257.388 L2000.45 257.388 Q1998.16 257.388 1997.26 258.314 Q1996.38 259.24 1996.38 261.647 L1996.38 263.939 L2003.39 263.939 L2003.39 267.249 L1996.38 267.249 L1996.38 289.865 L1992.09 289.865 L1992.09 267.249 L1988.02 267.249 L1988.02 263.939 L1992.09 263.939 L1992.09 262.133 Q1992.09 257.805 1994.11 255.837 Q1996.12 253.846 2000.5 253.846 L2004.52 253.846 Z" fill="#000000" fill-rule="nonzero" fill-opacity="1"></path><path clip-path="url(#clip980)" d="M2019.87 276.832 Q2014.71 276.832 2012.72 278.013 Q2010.73 279.193 2010.73 282.041 Q2010.73 284.309 2012.21 285.652 Q2013.71 286.971 2016.28 286.971 Q2019.83 286.971 2021.96 284.471 Q2024.11 281.948 2024.11 277.781 L2024.11 276.832 L2019.87 276.832 M2028.37 275.073 L2028.37 289.865 L2024.11 289.865 L2024.11 285.929 Q2022.65 288.291 2020.47 289.425 Q2018.3 290.536 2015.15 290.536 Q2011.17 290.536 2008.81 288.314 Q2006.47 286.068 2006.47 282.318 Q2006.47 277.943 2009.39 275.721 Q2012.33 273.499 2018.14 273.499 L2024.11 273.499 L2024.11 273.082 Q2024.11 270.143 2022.16 268.545 Q2020.24 266.925 2016.75 266.925 Q2014.52 266.925 2012.42 267.457 Q2010.31 267.99 2008.37 269.055 L2008.37 265.119 Q2010.71 264.217 2012.9 263.777 Q2015.1 263.314 2017.19 263.314 Q2022.81 263.314 2025.59 266.231 Q2028.37 269.147 2028.37 275.073 Z" fill="#000000" fill-rule="nonzero" fill-opacity="1"></path><path clip-path="url(#clip980)" d="M2055.8 264.934 L2055.8 268.916 Q2053.99 267.92 2052.16 267.434 Q2050.36 266.925 2048.51 266.925 Q2044.36 266.925 2042.07 269.564 Q2039.78 272.18 2039.78 276.925 Q2039.78 281.67 2042.07 284.309 Q2044.36 286.925 2048.51 286.925 Q2050.36 286.925 2052.16 286.439 Q2053.99 285.929 2055.8 284.934 L2055.8 288.869 Q2054.02 289.703 2052.09 290.119 Q2050.2 290.536 2048.04 290.536 Q2042.19 290.536 2038.74 286.855 Q2035.29 283.175 2035.29 276.925 Q2035.29 270.582 2038.76 266.948 Q2042.26 263.314 2048.32 263.314 Q2050.29 263.314 2052.16 263.731 Q2054.04 264.124 2055.8 264.934 Z" fill="#000000" fill-rule="nonzero" fill-opacity="1"></path><path clip-path="url(#clip980)" d="M2085.38 275.837 L2085.38 277.92 L2065.8 277.92 Q2066.08 282.318 2068.44 284.633 Q2070.82 286.925 2075.06 286.925 Q2077.51 286.925 2079.8 286.323 Q2082.12 285.721 2084.39 284.517 L2084.39 288.545 Q2082.09 289.517 2079.69 290.027 Q2077.28 290.536 2074.8 290.536 Q2068.6 290.536 2064.96 286.925 Q2061.35 283.314 2061.35 277.156 Q2061.35 270.791 2064.78 267.064 Q2068.23 263.314 2074.06 263.314 Q2079.29 263.314 2082.33 266.693 Q2085.38 270.05 2085.38 275.837 M2081.12 274.587 Q2081.08 271.092 2079.15 269.008 Q2077.26 266.925 2074.11 266.925 Q2070.54 266.925 2068.39 268.939 Q2066.26 270.953 2065.94 274.61 L2081.12 274.587 Z" fill="#000000" fill-rule="nonzero" fill-opacity="1"></path><path clip-path="url(#clip980)" d="M2123.97 264.703 L2123.97 268.731 Q2122.16 267.805 2120.22 267.342 Q2118.27 266.879 2116.19 266.879 Q2113.02 266.879 2111.42 267.851 Q2109.85 268.823 2109.85 270.768 Q2109.85 272.249 2110.98 273.105 Q2112.12 273.939 2115.54 274.703 L2117 275.027 Q2121.54 275.999 2123.44 277.781 Q2125.36 279.541 2125.36 282.712 Q2125.36 286.323 2122.49 288.429 Q2119.64 290.536 2114.64 290.536 Q2112.56 290.536 2110.29 290.119 Q2108.04 289.726 2105.54 288.916 L2105.54 284.517 Q2107.9 285.744 2110.2 286.369 Q2112.49 286.971 2114.73 286.971 Q2117.74 286.971 2119.36 285.953 Q2120.98 284.911 2120.98 283.036 Q2120.98 281.3 2119.8 280.374 Q2118.64 279.448 2114.69 278.592 L2113.2 278.244 Q2109.25 277.411 2107.49 275.698 Q2105.73 273.962 2105.73 270.953 Q2105.73 267.295 2108.32 265.305 Q2110.91 263.314 2115.68 263.314 Q2118.04 263.314 2120.13 263.661 Q2122.21 264.008 2123.97 264.703 Z" fill="#000000" fill-rule="nonzero" fill-opacity="1"></path><path clip-path="url(#clip980)" d="M2142.19 266.925 Q2138.76 266.925 2136.77 269.61 Q2134.78 272.272 2134.78 276.925 Q2134.78 281.578 2136.75 284.263 Q2138.74 286.925 2142.19 286.925 Q2145.59 286.925 2147.58 284.24 Q2149.57 281.555 2149.57 276.925 Q2149.57 272.318 2147.58 269.633 Q2145.59 266.925 2142.19 266.925 M2142.19 263.314 Q2147.74 263.314 2150.91 266.925 Q2154.08 270.536 2154.08 276.925 Q2154.08 283.291 2150.91 286.925 Q2147.74 290.536 2142.19 290.536 Q2136.61 290.536 2133.44 286.925 Q2130.29 283.291 2130.29 276.925 Q2130.29 270.536 2133.44 266.925 Q2136.61 263.314 2142.19 263.314 Z" fill="#000000" fill-rule="nonzero" fill-opacity="1"></path><path clip-path="url(#clip980)" d="M2161.14 253.846 L2165.4 253.846 L2165.4 289.865 L2161.14 289.865 L2161.14 253.846 Z" fill="#000000" fill-rule="nonzero" fill-opacity="1"></path><path clip-path="url(#clip980)" d="M2171.26 263.939 L2175.77 263.939 L2183.88 285.698 L2191.98 263.939 L2196.49 263.939 L2186.77 289.865 L2180.98 289.865 L2171.26 263.939 Z" fill="#000000" fill-rule="nonzero" fill-opacity="1"></path><path clip-path="url(#clip980)" d="M2224.55 275.837 L2224.55 277.92 L2204.96 277.92 Q2205.24 282.318 2207.6 284.633 Q2209.99 286.925 2214.22 286.925 Q2216.68 286.925 2218.97 286.323 Q2221.28 285.721 2223.55 284.517 L2223.55 288.545 Q2221.26 289.517 2218.85 290.027 Q2216.45 290.536 2213.97 290.536 Q2207.76 290.536 2204.13 286.925 Q2200.52 283.314 2200.52 277.156 Q2200.52 270.791 2203.95 267.064 Q2207.39 263.314 2213.23 263.314 Q2218.46 263.314 2221.49 266.693 Q2224.55 270.05 2224.55 275.837 M2220.29 274.587 Q2220.24 271.092 2218.32 269.008 Q2216.42 266.925 2213.27 266.925 Q2209.71 266.925 2207.56 268.939 Q2205.43 270.953 2205.1 274.61 L2220.29 274.587 Z" fill="#000000" fill-rule="nonzero" fill-opacity="1"></path><path clip-path="url(#clip980)" d="M2246.56 267.92 Q2245.84 267.504 2244.99 267.318 Q2244.15 267.11 2243.13 267.11 Q2239.52 267.11 2237.58 269.471 Q2235.66 271.809 2235.66 276.207 L2235.66 289.865 L2231.38 289.865 L2231.38 263.939 L2235.66 263.939 L2235.66 267.967 Q2237 265.606 2239.15 264.471 Q2241.31 263.314 2244.38 263.314 Q2244.82 263.314 2245.36 263.383 Q2245.89 263.43 2246.54 263.545 L2246.56 267.92 Z" fill="#000000" fill-rule="nonzero" fill-opacity="1"></path><polyline clip-path="url(#clip980)" style="stroke:#ff0000; stroke-linecap:round; stroke-linejoin:round; stroke-width:4; stroke-opacity:1; fill:none" points="1752.92,324.425 1892.07,324.425 "></polyline>
<path clip-path="url(#clip980)" d="M1933.69 316.543 L1933.69 320.571 Q1931.89 319.645 1929.94 319.182 Q1928 318.719 1925.91 318.719 Q1922.74 318.719 1921.15 319.691 Q1919.57 320.663 1919.57 322.608 Q1919.57 324.089 1920.71 324.945 Q1921.84 325.779 1925.27 326.543 L1926.72 326.867 Q1931.26 327.839 1933.16 329.621 Q1935.08 331.381 1935.08 334.552 Q1935.08 338.163 1932.21 340.269 Q1929.36 342.376 1924.36 342.376 Q1922.28 342.376 1920.01 341.959 Q1917.77 341.566 1915.27 340.756 L1915.27 336.357 Q1917.63 337.584 1919.92 338.209 Q1922.21 338.811 1924.46 338.811 Q1927.47 338.811 1929.09 337.793 Q1930.71 336.751 1930.71 334.876 Q1930.71 333.14 1929.53 332.214 Q1928.37 331.288 1924.41 330.432 L1922.93 330.084 Q1918.97 329.251 1917.21 327.538 Q1915.45 325.802 1915.45 322.793 Q1915.45 319.135 1918.04 317.145 Q1920.64 315.154 1925.4 315.154 Q1927.77 315.154 1929.85 315.501 Q1931.93 315.848 1933.69 316.543 Z" fill="#000000" fill-rule="nonzero" fill-opacity="1"></path><path clip-path="url(#clip980)" d="M1941.42 331.473 L1941.42 315.779 L1945.68 315.779 L1945.68 331.311 Q1945.68 334.992 1947.12 336.844 Q1948.55 338.672 1951.42 338.672 Q1954.87 338.672 1956.86 336.473 Q1958.88 334.274 1958.88 330.478 L1958.88 315.779 L1963.14 315.779 L1963.14 341.705 L1958.88 341.705 L1958.88 337.723 Q1957.33 340.084 1955.27 341.242 Q1953.23 342.376 1950.52 342.376 Q1946.05 342.376 1943.74 339.598 Q1941.42 336.82 1941.42 331.473 M1952.14 315.154 L1952.14 315.154 Z" fill="#000000" fill-rule="nonzero" fill-opacity="1"></path><path clip-path="url(#clip980)" d="M1986.93 319.76 Q1986.21 319.344 1985.36 319.158 Q1984.53 318.95 1983.51 318.95 Q1979.9 318.95 1977.95 321.311 Q1976.03 323.649 1976.03 328.047 L1976.03 341.705 L1971.75 341.705 L1971.75 315.779 L1976.03 315.779 L1976.03 319.807 Q1977.37 317.446 1979.53 316.311 Q1981.68 315.154 1984.76 315.154 Q1985.2 315.154 1985.73 315.223 Q1986.26 315.27 1986.91 315.385 L1986.93 319.76 Z" fill="#000000" fill-rule="nonzero" fill-opacity="1"></path><path clip-path="url(#clip980)" d="M2004.52 305.686 L2004.52 309.228 L2000.45 309.228 Q1998.16 309.228 1997.26 310.154 Q1996.38 311.08 1996.38 313.487 L1996.38 315.779 L2003.39 315.779 L2003.39 319.089 L1996.38 319.089 L1996.38 341.705 L1992.09 341.705 L1992.09 319.089 L1988.02 319.089 L1988.02 315.779 L1992.09 315.779 L1992.09 313.973 Q1992.09 309.645 1994.11 307.677 Q1996.12 305.686 2000.5 305.686 L2004.52 305.686 Z" fill="#000000" fill-rule="nonzero" fill-opacity="1"></path><path clip-path="url(#clip980)" d="M2019.87 328.672 Q2014.71 328.672 2012.72 329.853 Q2010.73 331.033 2010.73 333.881 Q2010.73 336.149 2012.21 337.492 Q2013.71 338.811 2016.28 338.811 Q2019.83 338.811 2021.96 336.311 Q2024.11 333.788 2024.11 329.621 L2024.11 328.672 L2019.87 328.672 M2028.37 326.913 L2028.37 341.705 L2024.11 341.705 L2024.11 337.769 Q2022.65 340.131 2020.47 341.265 Q2018.3 342.376 2015.15 342.376 Q2011.17 342.376 2008.81 340.154 Q2006.47 337.908 2006.47 334.158 Q2006.47 329.783 2009.39 327.561 Q2012.33 325.339 2018.14 325.339 L2024.11 325.339 L2024.11 324.922 Q2024.11 321.983 2022.16 320.385 Q2020.24 318.765 2016.75 318.765 Q2014.52 318.765 2012.42 319.297 Q2010.31 319.83 2008.37 320.895 L2008.37 316.959 Q2010.71 316.057 2012.9 315.617 Q2015.1 315.154 2017.19 315.154 Q2022.81 315.154 2025.59 318.071 Q2028.37 320.987 2028.37 326.913 Z" fill="#000000" fill-rule="nonzero" fill-opacity="1"></path><path clip-path="url(#clip980)" d="M2055.8 316.774 L2055.8 320.756 Q2053.99 319.76 2052.16 319.274 Q2050.36 318.765 2048.51 318.765 Q2044.36 318.765 2042.07 321.404 Q2039.78 324.02 2039.78 328.765 Q2039.78 333.51 2042.07 336.149 Q2044.36 338.765 2048.51 338.765 Q2050.36 338.765 2052.16 338.279 Q2053.99 337.769 2055.8 336.774 L2055.8 340.709 Q2054.02 341.543 2052.09 341.959 Q2050.2 342.376 2048.04 342.376 Q2042.19 342.376 2038.74 338.695 Q2035.29 335.015 2035.29 328.765 Q2035.29 322.422 2038.76 318.788 Q2042.26 315.154 2048.32 315.154 Q2050.29 315.154 2052.16 315.571 Q2054.04 315.964 2055.8 316.774 Z" fill="#000000" fill-rule="nonzero" fill-opacity="1"></path><path clip-path="url(#clip980)" d="M2085.38 327.677 L2085.38 329.76 L2065.8 329.76 Q2066.08 334.158 2068.44 336.473 Q2070.82 338.765 2075.06 338.765 Q2077.51 338.765 2079.8 338.163 Q2082.12 337.561 2084.39 336.357 L2084.39 340.385 Q2082.09 341.357 2079.69 341.867 Q2077.28 342.376 2074.8 342.376 Q2068.6 342.376 2064.96 338.765 Q2061.35 335.154 2061.35 328.996 Q2061.35 322.631 2064.78 318.904 Q2068.23 315.154 2074.06 315.154 Q2079.29 315.154 2082.33 318.533 Q2085.38 321.89 2085.38 327.677 M2081.12 326.427 Q2081.08 322.932 2079.15 320.848 Q2077.26 318.765 2074.11 318.765 Q2070.54 318.765 2068.39 320.779 Q2066.26 322.793 2065.94 326.45 L2081.12 326.427 Z" fill="#000000" fill-rule="nonzero" fill-opacity="1"></path><path clip-path="url(#clip980)" d="M2122.46 319.76 Q2121.75 319.344 2120.89 319.158 Q2120.06 318.95 2119.04 318.95 Q2115.43 318.95 2113.48 321.311 Q2111.56 323.649 2111.56 328.047 L2111.56 341.705 L2107.28 341.705 L2107.28 315.779 L2111.56 315.779 L2111.56 319.807 Q2112.9 317.446 2115.06 316.311 Q2117.21 315.154 2120.29 315.154 Q2120.73 315.154 2121.26 315.223 Q2121.79 315.27 2122.44 315.385 L2122.46 319.76 Z" fill="#000000" fill-rule="nonzero" fill-opacity="1"></path><path clip-path="url(#clip980)" d="M2138.71 328.672 Q2133.55 328.672 2131.56 329.853 Q2129.57 331.033 2129.57 333.881 Q2129.57 336.149 2131.05 337.492 Q2132.56 338.811 2135.13 338.811 Q2138.67 338.811 2140.8 336.311 Q2142.95 333.788 2142.95 329.621 L2142.95 328.672 L2138.71 328.672 M2147.21 326.913 L2147.21 341.705 L2142.95 341.705 L2142.95 337.769 Q2141.49 340.131 2139.32 341.265 Q2137.14 342.376 2133.99 342.376 Q2130.01 342.376 2127.65 340.154 Q2125.31 337.908 2125.31 334.158 Q2125.31 329.783 2128.23 327.561 Q2131.17 325.339 2136.98 325.339 L2142.95 325.339 L2142.95 324.922 Q2142.95 321.983 2141.01 320.385 Q2139.08 318.765 2135.59 318.765 Q2133.37 318.765 2131.26 319.297 Q2129.15 319.83 2127.21 320.895 L2127.21 316.959 Q2129.55 316.057 2131.75 315.617 Q2133.95 315.154 2136.03 315.154 Q2141.65 315.154 2144.43 318.071 Q2147.21 320.987 2147.21 326.913 Z" fill="#000000" fill-rule="nonzero" fill-opacity="1"></path><path clip-path="url(#clip980)" d="M2153.51 315.779 L2157.76 315.779 L2163.09 336.01 L2168.39 315.779 L2173.41 315.779 L2178.74 336.01 L2184.04 315.779 L2188.3 315.779 L2181.51 341.705 L2176.49 341.705 L2170.91 320.455 L2165.31 341.705 L2160.29 341.705 L2153.51 315.779 Z" fill="#000000" fill-rule="nonzero" fill-opacity="1"></path><polyline clip-path="url(#clip980)" style="stroke:#008000; stroke-linecap:round; stroke-linejoin:round; stroke-width:4; stroke-opacity:1; fill:none" points="1752.92,376.265 1892.07,376.265 "></polyline>
<path clip-path="url(#clip980)" d="M1933.69 368.383 L1933.69 372.411 Q1931.89 371.485 1929.94 371.022 Q1928 370.559 1925.91 370.559 Q1922.74 370.559 1921.15 371.531 Q1919.57 372.503 1919.57 374.448 Q1919.57 375.929 1920.71 376.785 Q1921.84 377.619 1925.27 378.383 L1926.72 378.707 Q1931.26 379.679 1933.16 381.461 Q1935.08 383.221 1935.08 386.392 Q1935.08 390.003 1932.21 392.109 Q1929.36 394.216 1924.36 394.216 Q1922.28 394.216 1920.01 393.799 Q1917.77 393.406 1915.27 392.596 L1915.27 388.197 Q1917.63 389.424 1919.92 390.049 Q1922.21 390.651 1924.46 390.651 Q1927.47 390.651 1929.09 389.633 Q1930.71 388.591 1930.71 386.716 Q1930.71 384.98 1929.53 384.054 Q1928.37 383.128 1924.41 382.272 L1922.93 381.924 Q1918.97 381.091 1917.21 379.378 Q1915.45 377.642 1915.45 374.633 Q1915.45 370.975 1918.04 368.985 Q1920.64 366.994 1925.4 366.994 Q1927.77 366.994 1929.85 367.341 Q1931.93 367.688 1933.69 368.383 Z" fill="#000000" fill-rule="nonzero" fill-opacity="1"></path><path clip-path="url(#clip980)" d="M1941.42 383.313 L1941.42 367.619 L1945.68 367.619 L1945.68 383.151 Q1945.68 386.832 1947.12 388.684 Q1948.55 390.512 1951.42 390.512 Q1954.87 390.512 1956.86 388.313 Q1958.88 386.114 1958.88 382.318 L1958.88 367.619 L1963.14 367.619 L1963.14 393.545 L1958.88 393.545 L1958.88 389.563 Q1957.33 391.924 1955.27 393.082 Q1953.23 394.216 1950.52 394.216 Q1946.05 394.216 1943.74 391.438 Q1941.42 388.66 1941.42 383.313 M1952.14 366.994 L1952.14 366.994 Z" fill="#000000" fill-rule="nonzero" fill-opacity="1"></path><path clip-path="url(#clip980)" d="M1986.93 371.6 Q1986.21 371.184 1985.36 370.998 Q1984.53 370.79 1983.51 370.79 Q1979.9 370.79 1977.95 373.151 Q1976.03 375.489 1976.03 379.887 L1976.03 393.545 L1971.75 393.545 L1971.75 367.619 L1976.03 367.619 L1976.03 371.647 Q1977.37 369.286 1979.53 368.151 Q1981.68 366.994 1984.76 366.994 Q1985.2 366.994 1985.73 367.063 Q1986.26 367.11 1986.91 367.225 L1986.93 371.6 Z" fill="#000000" fill-rule="nonzero" fill-opacity="1"></path><path clip-path="url(#clip980)" d="M2004.52 357.526 L2004.52 361.068 L2000.45 361.068 Q1998.16 361.068 1997.26 361.994 Q1996.38 362.92 1996.38 365.327 L1996.38 367.619 L2003.39 367.619 L2003.39 370.929 L1996.38 370.929 L1996.38 393.545 L1992.09 393.545 L1992.09 370.929 L1988.02 370.929 L1988.02 367.619 L1992.09 367.619 L1992.09 365.813 Q1992.09 361.485 1994.11 359.517 Q1996.12 357.526 2000.5 357.526 L2004.52 357.526 Z" fill="#000000" fill-rule="nonzero" fill-opacity="1"></path><path clip-path="url(#clip980)" d="M2019.87 380.512 Q2014.71 380.512 2012.72 381.693 Q2010.73 382.873 2010.73 385.721 Q2010.73 387.989 2012.21 389.332 Q2013.71 390.651 2016.28 390.651 Q2019.83 390.651 2021.96 388.151 Q2024.11 385.628 2024.11 381.461 L2024.11 380.512 L2019.87 380.512 M2028.37 378.753 L2028.37 393.545 L2024.11 393.545 L2024.11 389.609 Q2022.65 391.971 2020.47 393.105 Q2018.3 394.216 2015.15 394.216 Q2011.17 394.216 2008.81 391.994 Q2006.47 389.748 2006.47 385.998 Q2006.47 381.623 2009.39 379.401 Q2012.33 377.179 2018.14 377.179 L2024.11 377.179 L2024.11 376.762 Q2024.11 373.823 2022.16 372.225 Q2020.24 370.605 2016.75 370.605 Q2014.52 370.605 2012.42 371.137 Q2010.31 371.67 2008.37 372.735 L2008.37 368.799 Q2010.71 367.897 2012.9 367.457 Q2015.1 366.994 2017.19 366.994 Q2022.81 366.994 2025.59 369.911 Q2028.37 372.827 2028.37 378.753 Z" fill="#000000" fill-rule="nonzero" fill-opacity="1"></path><path clip-path="url(#clip980)" d="M2055.8 368.614 L2055.8 372.596 Q2053.99 371.6 2052.16 371.114 Q2050.36 370.605 2048.51 370.605 Q2044.36 370.605 2042.07 373.244 Q2039.78 375.86 2039.78 380.605 Q2039.78 385.35 2042.07 387.989 Q2044.36 390.605 2048.51 390.605 Q2050.36 390.605 2052.16 390.119 Q2053.99 389.609 2055.8 388.614 L2055.8 392.549 Q2054.02 393.383 2052.09 393.799 Q2050.2 394.216 2048.04 394.216 Q2042.19 394.216 2038.74 390.535 Q2035.29 386.855 2035.29 380.605 Q2035.29 374.262 2038.76 370.628 Q2042.26 366.994 2048.32 366.994 Q2050.29 366.994 2052.16 367.411 Q2054.04 367.804 2055.8 368.614 Z" fill="#000000" fill-rule="nonzero" fill-opacity="1"></path><path clip-path="url(#clip980)" d="M2085.38 379.517 L2085.38 381.6 L2065.8 381.6 Q2066.08 385.998 2068.44 388.313 Q2070.82 390.605 2075.06 390.605 Q2077.51 390.605 2079.8 390.003 Q2082.12 389.401 2084.39 388.197 L2084.39 392.225 Q2082.09 393.197 2079.69 393.707 Q2077.28 394.216 2074.8 394.216 Q2068.6 394.216 2064.96 390.605 Q2061.35 386.994 2061.35 380.836 Q2061.35 374.471 2064.78 370.744 Q2068.23 366.994 2074.06 366.994 Q2079.29 366.994 2082.33 370.373 Q2085.38 373.73 2085.38 379.517 M2081.12 378.267 Q2081.08 374.772 2079.15 372.688 Q2077.26 370.605 2074.11 370.605 Q2070.54 370.605 2068.39 372.619 Q2066.26 374.633 2065.94 378.29 L2081.12 378.267 Z" fill="#000000" fill-rule="nonzero" fill-opacity="1"></path><path clip-path="url(#clip980)" d="M2107.44 367.619 L2111.7 367.619 L2111.7 393.545 L2107.44 393.545 L2107.44 367.619 M2107.44 357.526 L2111.7 357.526 L2111.7 362.92 L2107.44 362.92 L2107.44 357.526 Z" fill="#000000" fill-rule="nonzero" fill-opacity="1"></path><path clip-path="url(#clip980)" d="M2142.16 377.897 L2142.16 393.545 L2137.9 393.545 L2137.9 378.035 Q2137.9 374.355 2136.47 372.526 Q2135.03 370.698 2132.16 370.698 Q2128.71 370.698 2126.72 372.897 Q2124.73 375.096 2124.73 378.892 L2124.73 393.545 L2120.45 393.545 L2120.45 367.619 L2124.73 367.619 L2124.73 371.647 Q2126.26 369.309 2128.32 368.151 Q2130.4 366.994 2133.11 366.994 Q2137.58 366.994 2139.87 369.772 Q2142.16 372.526 2142.16 377.897 Z" fill="#000000" fill-rule="nonzero" fill-opacity="1"></path><path clip-path="url(#clip980)" d="M2150.66 367.619 L2154.92 367.619 L2154.92 393.545 L2150.66 393.545 L2150.66 367.619 M2150.66 357.526 L2154.92 357.526 L2154.92 362.92 L2150.66 362.92 L2150.66 357.526 Z" fill="#000000" fill-rule="nonzero" fill-opacity="1"></path><path clip-path="url(#clip980)" d="M2168.04 360.258 L2168.04 367.619 L2176.82 367.619 L2176.82 370.929 L2168.04 370.929 L2168.04 385.003 Q2168.04 388.174 2168.9 389.077 Q2169.78 389.98 2172.44 389.98 L2176.82 389.98 L2176.82 393.545 L2172.44 393.545 Q2167.51 393.545 2165.64 391.716 Q2163.76 389.864 2163.76 385.003 L2163.76 370.929 L2160.64 370.929 L2160.64 367.619 L2163.76 367.619 L2163.76 360.258 L2168.04 360.258 Z" fill="#000000" fill-rule="nonzero" fill-opacity="1"></path><path clip-path="url(#clip980)" d="M2182.42 367.619 L2186.68 367.619 L2186.68 393.545 L2182.42 393.545 L2182.42 367.619 M2182.42 357.526 L2186.68 357.526 L2186.68 362.92 L2182.42 362.92 L2182.42 357.526 Z" fill="#000000" fill-rule="nonzero" fill-opacity="1"></path><path clip-path="url(#clip980)" d="M2207.37 380.512 Q2202.21 380.512 2200.22 381.693 Q2198.23 382.873 2198.23 385.721 Q2198.23 387.989 2199.71 389.332 Q2201.21 390.651 2203.78 390.651 Q2207.32 390.651 2209.45 388.151 Q2211.61 385.628 2211.61 381.461 L2211.61 380.512 L2207.37 380.512 M2215.87 378.753 L2215.87 393.545 L2211.61 393.545 L2211.61 389.609 Q2210.15 391.971 2207.97 393.105 Q2205.8 394.216 2202.65 394.216 Q2198.67 394.216 2196.31 391.994 Q2193.97 389.748 2193.97 385.998 Q2193.97 381.623 2196.89 379.401 Q2199.82 377.179 2205.63 377.179 L2211.61 377.179 L2211.61 376.762 Q2211.61 373.823 2209.66 372.225 Q2207.74 370.605 2204.25 370.605 Q2202.02 370.605 2199.92 371.137 Q2197.81 371.67 2195.87 372.735 L2195.87 368.799 Q2198.2 367.897 2200.4 367.457 Q2202.6 366.994 2204.69 366.994 Q2210.31 366.994 2213.09 369.911 Q2215.87 372.827 2215.87 378.753 Z" fill="#000000" fill-rule="nonzero" fill-opacity="1"></path><path clip-path="url(#clip980)" d="M2224.64 357.526 L2228.9 357.526 L2228.9 393.545 L2224.64 393.545 L2224.64 357.526 Z" fill="#000000" fill-rule="nonzero" fill-opacity="1"></path><path clip-path="url(#clip980)" d="M2259.99 379.517 L2259.99 381.6 L2240.4 381.6 Q2240.68 385.998 2243.04 388.313 Q2245.43 390.605 2249.66 390.605 Q2252.12 390.605 2254.41 390.003 Q2256.72 389.401 2258.99 388.197 L2258.99 392.225 Q2256.7 393.197 2254.29 393.707 Q2251.88 394.216 2249.41 394.216 Q2243.2 394.216 2239.57 390.605 Q2235.96 386.994 2235.96 380.836 Q2235.96 374.471 2239.38 370.744 Q2242.83 366.994 2248.67 366.994 Q2253.9 366.994 2256.93 370.373 Q2259.99 373.73 2259.99 379.517 M2255.73 378.267 Q2255.68 374.772 2253.76 372.688 Q2251.86 370.605 2248.71 370.605 Q2245.15 370.605 2243 372.619 Q2240.87 374.633 2240.54 378.29 L2255.73 378.267 Z" fill="#000000" fill-rule="nonzero" fill-opacity="1"></path><polyline clip-path="url(#clip980)" style="stroke:#000000; stroke-linecap:round; stroke-linejoin:round; stroke-width:4; stroke-opacity:1; fill:none" stroke-dasharray="16, 10" points="1752.92,428.105 1892.07,428.105 "></polyline>
<path clip-path="url(#clip980)" d="M1933.69 420.223 L1933.69 424.251 Q1931.89 423.325 1929.94 422.862 Q1928 422.399 1925.91 422.399 Q1922.74 422.399 1921.15 423.371 Q1919.57 424.343 1919.57 426.288 Q1919.57 427.769 1920.71 428.625 Q1921.84 429.459 1925.27 430.223 L1926.72 430.547 Q1931.26 431.519 1933.16 433.301 Q1935.08 435.061 1935.08 438.232 Q1935.08 441.843 1932.21 443.949 Q1929.36 446.056 1924.36 446.056 Q1922.28 446.056 1920.01 445.639 Q1917.77 445.246 1915.27 444.436 L1915.27 440.037 Q1917.63 441.264 1919.92 441.889 Q1922.21 442.491 1924.46 442.491 Q1927.47 442.491 1929.09 441.473 Q1930.71 440.431 1930.71 438.556 Q1930.71 436.82 1929.53 435.894 Q1928.37 434.968 1924.41 434.112 L1922.93 433.764 Q1918.97 432.931 1917.21 431.218 Q1915.45 429.482 1915.45 426.473 Q1915.45 422.815 1918.04 420.825 Q1920.64 418.834 1925.4 418.834 Q1927.77 418.834 1929.85 419.181 Q1931.93 419.528 1933.69 420.223 Z" fill="#000000" fill-rule="nonzero" fill-opacity="1"></path><path clip-path="url(#clip980)" d="M1941.42 435.153 L1941.42 419.459 L1945.68 419.459 L1945.68 434.991 Q1945.68 438.672 1947.12 440.524 Q1948.55 442.352 1951.42 442.352 Q1954.87 442.352 1956.86 440.153 Q1958.88 437.954 1958.88 434.158 L1958.88 419.459 L1963.14 419.459 L1963.14 445.385 L1958.88 445.385 L1958.88 441.403 Q1957.33 443.764 1955.27 444.922 Q1953.23 446.056 1950.52 446.056 Q1946.05 446.056 1943.74 443.278 Q1941.42 440.5 1941.42 435.153 M1952.14 418.834 L1952.14 418.834 Z" fill="#000000" fill-rule="nonzero" fill-opacity="1"></path><path clip-path="url(#clip980)" d="M1986.93 423.44 Q1986.21 423.024 1985.36 422.838 Q1984.53 422.63 1983.51 422.63 Q1979.9 422.63 1977.95 424.991 Q1976.03 427.329 1976.03 431.727 L1976.03 445.385 L1971.75 445.385 L1971.75 419.459 L1976.03 419.459 L1976.03 423.487 Q1977.37 421.126 1979.53 419.991 Q1981.68 418.834 1984.76 418.834 Q1985.2 418.834 1985.73 418.903 Q1986.26 418.95 1986.91 419.065 L1986.93 423.44 Z" fill="#000000" fill-rule="nonzero" fill-opacity="1"></path><path clip-path="url(#clip980)" d="M2004.52 409.366 L2004.52 412.908 L2000.45 412.908 Q1998.16 412.908 1997.26 413.834 Q1996.38 414.76 1996.38 417.167 L1996.38 419.459 L2003.39 419.459 L2003.39 422.769 L1996.38 422.769 L1996.38 445.385 L1992.09 445.385 L1992.09 422.769 L1988.02 422.769 L1988.02 419.459 L1992.09 419.459 L1992.09 417.653 Q1992.09 413.325 1994.11 411.357 Q1996.12 409.366 2000.5 409.366 L2004.52 409.366 Z" fill="#000000" fill-rule="nonzero" fill-opacity="1"></path><path clip-path="url(#clip980)" d="M2019.87 432.352 Q2014.71 432.352 2012.72 433.533 Q2010.73 434.713 2010.73 437.561 Q2010.73 439.829 2012.21 441.172 Q2013.71 442.491 2016.28 442.491 Q2019.83 442.491 2021.96 439.991 Q2024.11 437.468 2024.11 433.301 L2024.11 432.352 L2019.87 432.352 M2028.37 430.593 L2028.37 445.385 L2024.11 445.385 L2024.11 441.449 Q2022.65 443.811 2020.47 444.945 Q2018.3 446.056 2015.15 446.056 Q2011.17 446.056 2008.81 443.834 Q2006.47 441.588 2006.47 437.838 Q2006.47 433.463 2009.39 431.241 Q2012.33 429.019 2018.14 429.019 L2024.11 429.019 L2024.11 428.602 Q2024.11 425.663 2022.16 424.065 Q2020.24 422.445 2016.75 422.445 Q2014.52 422.445 2012.42 422.977 Q2010.31 423.51 2008.37 424.575 L2008.37 420.639 Q2010.71 419.737 2012.9 419.297 Q2015.1 418.834 2017.19 418.834 Q2022.81 418.834 2025.59 421.751 Q2028.37 424.667 2028.37 430.593 Z" fill="#000000" fill-rule="nonzero" fill-opacity="1"></path><path clip-path="url(#clip980)" d="M2055.8 420.454 L2055.8 424.436 Q2053.99 423.44 2052.16 422.954 Q2050.36 422.445 2048.51 422.445 Q2044.36 422.445 2042.07 425.084 Q2039.78 427.7 2039.78 432.445 Q2039.78 437.19 2042.07 439.829 Q2044.36 442.445 2048.51 442.445 Q2050.36 442.445 2052.16 441.959 Q2053.99 441.449 2055.8 440.454 L2055.8 444.389 Q2054.02 445.223 2052.09 445.639 Q2050.2 446.056 2048.04 446.056 Q2042.19 446.056 2038.74 442.375 Q2035.29 438.695 2035.29 432.445 Q2035.29 426.102 2038.76 422.468 Q2042.26 418.834 2048.32 418.834 Q2050.29 418.834 2052.16 419.251 Q2054.04 419.644 2055.8 420.454 Z" fill="#000000" fill-rule="nonzero" fill-opacity="1"></path><path clip-path="url(#clip980)" d="M2085.38 431.357 L2085.38 433.44 L2065.8 433.44 Q2066.08 437.838 2068.44 440.153 Q2070.82 442.445 2075.06 442.445 Q2077.51 442.445 2079.8 441.843 Q2082.12 441.241 2084.39 440.037 L2084.39 444.065 Q2082.09 445.037 2079.69 445.547 Q2077.28 446.056 2074.8 446.056 Q2068.6 446.056 2064.96 442.445 Q2061.35 438.834 2061.35 432.676 Q2061.35 426.311 2064.78 422.584 Q2068.23 418.834 2074.06 418.834 Q2079.29 418.834 2082.33 422.213 Q2085.38 425.57 2085.38 431.357 M2081.12 430.107 Q2081.08 426.612 2079.15 424.528 Q2077.26 422.445 2074.11 422.445 Q2070.54 422.445 2068.39 424.459 Q2066.26 426.473 2065.94 430.13 L2081.12 430.107 Z" fill="#000000" fill-rule="nonzero" fill-opacity="1"></path><path clip-path="url(#clip980)" d="M2117.49 422.445 Q2114.06 422.445 2112.07 425.13 Q2110.08 427.792 2110.08 432.445 Q2110.08 437.098 2112.05 439.783 Q2114.04 442.445 2117.49 442.445 Q2120.89 442.445 2122.88 439.76 Q2124.87 437.075 2124.87 432.445 Q2124.87 427.838 2122.88 425.153 Q2120.89 422.445 2117.49 422.445 M2117.49 418.834 Q2123.04 418.834 2126.21 422.445 Q2129.39 426.056 2129.39 432.445 Q2129.39 438.811 2126.21 442.445 Q2123.04 446.056 2117.49 446.056 Q2111.91 446.056 2108.74 442.445 Q2105.59 438.811 2105.59 432.445 Q2105.59 426.056 2108.74 422.445 Q2111.91 418.834 2117.49 418.834 Z" fill="#000000" fill-rule="nonzero" fill-opacity="1"></path><path clip-path="url(#clip980)" d="M2153.51 432.121 Q2153.51 427.491 2151.58 424.945 Q2149.69 422.399 2146.24 422.399 Q2142.81 422.399 2140.89 424.945 Q2138.99 427.491 2138.99 432.121 Q2138.99 436.727 2140.89 439.274 Q2142.81 441.82 2146.24 441.82 Q2149.69 441.82 2151.58 439.274 Q2153.51 436.727 2153.51 432.121 M2157.76 442.167 Q2157.76 448.787 2154.83 452.005 Q2151.89 455.246 2145.82 455.246 Q2143.58 455.246 2141.58 454.898 Q2139.59 454.574 2137.72 453.88 L2137.72 449.736 Q2139.59 450.755 2141.42 451.241 Q2143.25 451.727 2145.15 451.727 Q2149.34 451.727 2151.42 449.528 Q2153.51 447.352 2153.51 442.931 L2153.51 440.824 Q2152.19 443.116 2150.13 444.25 Q2148.07 445.385 2145.2 445.385 Q2140.43 445.385 2137.51 441.75 Q2134.59 438.116 2134.59 432.121 Q2134.59 426.102 2137.51 422.468 Q2140.43 418.834 2145.2 418.834 Q2148.07 418.834 2150.13 419.968 Q2152.19 421.102 2153.51 423.394 L2153.51 419.459 L2157.76 419.459 L2157.76 442.167 Z" fill="#000000" fill-rule="nonzero" fill-opacity="1"></path><path clip-path="url(#clip980)" d="M2183.6 432.121 Q2183.6 427.491 2181.68 424.945 Q2179.78 422.399 2176.33 422.399 Q2172.9 422.399 2170.98 424.945 Q2169.08 427.491 2169.08 432.121 Q2169.08 436.727 2170.98 439.274 Q2172.9 441.82 2176.33 441.82 Q2179.78 441.82 2181.68 439.274 Q2183.6 436.727 2183.6 432.121 M2187.86 442.167 Q2187.86 448.787 2184.92 452.005 Q2181.98 455.246 2175.91 455.246 Q2173.67 455.246 2171.68 454.898 Q2169.69 454.574 2167.81 453.88 L2167.81 449.736 Q2169.69 450.755 2171.51 451.241 Q2173.34 451.727 2175.24 451.727 Q2179.43 451.727 2181.51 449.528 Q2183.6 447.352 2183.6 442.931 L2183.6 440.824 Q2182.28 443.116 2180.22 444.25 Q2178.16 445.385 2175.29 445.385 Q2170.52 445.385 2167.6 441.75 Q2164.69 438.116 2164.69 432.121 Q2164.69 426.102 2167.6 422.468 Q2170.52 418.834 2175.29 418.834 Q2178.16 418.834 2180.22 419.968 Q2182.28 421.102 2183.6 423.394 L2183.6 419.459 L2187.86 419.459 L2187.86 442.167 Z" fill="#000000" fill-rule="nonzero" fill-opacity="1"></path><path clip-path="url(#clip980)" d="M2216.82 424.436 Q2218.41 421.565 2220.63 420.2 Q2222.86 418.834 2225.87 418.834 Q2229.92 418.834 2232.12 421.681 Q2234.32 424.505 2234.32 429.737 L2234.32 445.385 L2230.03 445.385 L2230.03 429.875 Q2230.03 426.149 2228.71 424.343 Q2227.39 422.538 2224.69 422.538 Q2221.38 422.538 2219.45 424.737 Q2217.53 426.936 2217.53 430.732 L2217.53 445.385 L2213.25 445.385 L2213.25 429.875 Q2213.25 426.125 2211.93 424.343 Q2210.61 422.538 2207.86 422.538 Q2204.59 422.538 2202.67 424.76 Q2200.75 426.959 2200.75 430.732 L2200.75 445.385 L2196.47 445.385 L2196.47 419.459 L2200.75 419.459 L2200.75 423.487 Q2202.21 421.102 2204.25 419.968 Q2206.28 418.834 2209.08 418.834 Q2211.91 418.834 2213.88 420.269 Q2215.87 421.704 2216.82 424.436 Z" fill="#000000" fill-rule="nonzero" fill-opacity="1"></path></svg>